<?xml version="1.0" encoding="UTF-8" standalone="no"?>
<!-- Created with Inkscape (http://www.inkscape.org/) -->

<svg
   xmlns:dc="http://purl.org/dc/elements/1.1/"
   xmlns:cc="http://creativecommons.org/ns#"
   xmlns:rdf="http://www.w3.org/1999/02/22-rdf-syntax-ns#"
   xmlns:svg="http://www.w3.org/2000/svg"
   xmlns="http://www.w3.org/2000/svg"
   xmlns:sodipodi="http://sodipodi.sourceforge.net/DTD/sodipodi-0.dtd"
   xmlns:inkscape="http://www.inkscape.org/namespaces/inkscape"
   width="194.88188"
   height="194.88187"
   id="svg3163"
   version="1.1"
   inkscape:version="0.48.4 r9939"
   sodipodi:docname="lm_sticker_2_pink_bl_curves.svg"
   inkscape:export-filename="/home/svet/Dropbox/falanster/digital-lab/start_stickers/lm_sticker_2_pink_bl_print.png"
   inkscape:export-xdpi="300.18182"
   inkscape:export-ydpi="300.18182">
  <defs
     id="defs3165" />
  <sodipodi:namedview
     id="base"
     pagecolor="#ffffff"
     bordercolor="#666666"
     borderopacity="1.0"
     inkscape:pageopacity="0.0"
     inkscape:pageshadow="2"
     inkscape:zoom="2.8"
     inkscape:cx="188.42065"
     inkscape:cy="87.839134"
     inkscape:document-units="px"
     inkscape:current-layer="layer1"
     showgrid="false"
     fit-margin-top="0"
     fit-margin-left="0"
     fit-margin-right="0"
     fit-margin-bottom="0"
     inkscape:window-width="1301"
     inkscape:window-height="744"
     inkscape:window-x="65"
     inkscape:window-y="24"
     inkscape:window-maximized="1"
     showguides="true"
     inkscape:guide-bbox="true">
    <sodipodi:guide
       orientation="1,0"
       position="851.16763,629.31992"
       id="guide3038" />
  </sodipodi:namedview>
  <metadata
     id="metadata3168">
    <rdf:RDF>
      <cc:Work
         rdf:about="">
        <dc:format>image/svg+xml</dc:format>
        <dc:type
           rdf:resource="http://purl.org/dc/dcmitype/StillImage" />
        <dc:title></dc:title>
      </cc:Work>
    </rdf:RDF>
  </metadata>
  <g
     inkscape:label="Layer 1"
     inkscape:groupmode="layer"
     id="layer1"
     transform="translate(-175.75439,-1104.9887)">
    <g
       id="g3049"
       transform="matrix(0.17049501,0,0,0.17049501,145.78914,1078.2491)">
      <path
         id="path3290-7"
         d="m 1318.7901,728.35265 c 0,315.64055 -255.8772,571.51785 -571.51794,571.51785 -315.64055,0 -571.51777,-255.8773 -571.51777,-571.51785 0,-315.64055 255.87722,-571.51778 571.51777,-571.51778 315.64074,0 571.51794,255.87723 571.51794,571.51778 z"
         style="fill:#ff2ad4;fill-opacity:1;stroke:none"
         inkscape:connector-curvature="0" />
      <path
         inkscape:connector-curvature="0"
         transform="translate(0,-2)"
         id="path3290"
         d="m 1265.7143,729.50507 c 0,287.18803 -232.8119,520.00003 -520.00001,520.00003 -287.18807,0 -520,-232.812 -520,-520.00003 0,-287.18807 232.81193,-520 520,-520 287.18811,0 520.00001,232.81193 520.00001,520 z"
         style="fill:#333333;fill-opacity:1;stroke:none" />
      <g
         id="text4575-3-7"
         style="font-size:96.07583618px;font-style:normal;font-variant:normal;font-weight:normal;font-stretch:normal;line-height:125%;letter-spacing:0px;word-spacing:0px;fill:#ff55dd;fill-opacity:1;stroke:none;font-family:Ubuntu Mono;-inkscape-font-specification:Ubuntu Mono">
        <path
           id="path3090"
           d="m 871.57501,663.05377 c -2e-5,1.92155 -0.0641,3.97117 -0.19215,6.14885 -0.0641,2.1137 -0.2242,4.25939 -0.48038,6.43708 -0.19217,2.11369 -0.4804,4.22736 -0.86468,6.34101 -0.38432,2.04963 -0.89673,3.97115 -1.53721,5.76455 -1.28103,3.65089 -3.23457,6.78936 -5.86063,9.41543 -2.62608,2.62607 -6.37304,4.19531 -11.24087,4.70772 l -1.15291,-6.72531 c 2.81822,-0.5124 5.02796,-1.53721 6.62923,-3.07443 1.66531,-1.60125 2.97834,-3.52277 3.93911,-5.76455 0.83264,-1.9215 1.44112,-4.09922 1.82544,-6.53316 0.44834,-2.43389 0.76859,-4.99591 0.96076,-7.68606 0.19214,-2.6901 0.28821,-5.38022 0.28823,-8.07037 -2e-5,-2.69009 -2e-5,-5.22008 0,-7.58999 l 26.32478,0 0,44.57918 -7.9743,0 0,-37.94995 -10.66442,0"
           inkscape:connector-curvature="0" />
        <path
           id="path3092"
           d="m 917.11496,649.50707 c -1.66533,6e-5 -3.10647,-0.5764 -4.32341,-1.72936 -1.21698,-1.15286 -1.82546,-2.72209 -1.82544,-4.70772 -2e-5,-1.9855 0.60846,-3.55474 1.82544,-4.70771 1.21694,-1.15285 2.65808,-1.7293 4.32341,-1.72937 1.72934,7e-5 3.17048,0.57652 4.32341,1.72937 1.21694,1.15297 1.82542,2.72221 1.82544,4.70771 -2e-5,1.98563 -0.6085,3.55486 -1.82544,4.70772 -1.15293,1.15296 -2.59407,1.72942 -4.32341,1.72936 m -2.01759,13.5467 -12.87416,0 0,-6.62923 20.75238,0 0,27.38161 c -3e-5,4.4195 0.60845,7.39785 1.82544,8.93505 1.21693,1.47317 3.04237,2.20975 5.47632,2.20975 1.85743,0 3.55477,-0.22418 5.09202,-0.67254 1.60122,-0.44834 2.85021,-0.92872 3.74696,-1.44113 l 1.15291,6.72531 c -0.38435,0.19215 -0.92878,0.44835 -1.63329,0.7686 -0.7046,0.2562 -1.53726,0.51241 -2.49797,0.76861 -0.89675,0.2562 -1.92156,0.48038 -3.07443,0.67253 -1.0889,0.19215 -2.2418,0.28823 -3.45873,0.28823 -2.81826,0 -5.1561,-0.38431 -7.01354,-1.15291 -1.85749,-0.76861 -3.36267,-1.92152 -4.51556,-3.45873 -1.08888,-1.53721 -1.85749,-3.4267 -2.30582,-5.66848 -0.44837,-2.30581 -0.67255,-4.9639 -0.67253,-7.97429 l 0,-20.75238"
           inkscape:connector-curvature="0" />
        <path
           id="path3094"
           d="m 958.13934,656.42454 0,13.06631 c -10e-6,3.39471 0.8967,5.76457 2.69013,7.10961 1.85744,1.34509 4.38744,2.01762 7.58999,2.01759 2.30579,3e-5 4.22731,-0.096 5.76455,-0.28822 1.53718,-0.25618 2.91427,-0.54441 4.13126,-0.86469 l 0,-21.0406 7.97429,0 0,44.57918 -7.97429,0 0,-17.19757 c -0.44839,0.12812 -1.08889,0.28824 -1.92152,0.48038 -0.76864,0.12812 -1.66534,0.28824 -2.69012,0.48038 -0.96079,0.12811 -1.9856,0.25622 -3.07443,0.3843 -1.08888,0.12812 -2.14572,0.19217 -3.1705,0.19215 -2.56204,2e-5 -4.89989,-0.25618 -7.01354,-0.7686 -2.11368,-0.57644 -3.93912,-1.47315 -5.47632,-2.69013 -1.47317,-1.21694 -2.62608,-2.8182 -3.45873,-4.80379 -0.83266,-2.04959 -1.24899,-4.54756 -1.24899,-7.49392 l 0,-13.16238 7.87822,0"
           inkscape:connector-curvature="0" />
        <path
           id="path3096"
           d="m 1005.9851,661.51655 c 1.6653,-1.40907 3.5868,-2.49793 5.7646,-3.26657 2.1777,-0.76857 4.3233,-1.15287 6.437,-1.15291 6.341,4e-5 11.1128,1.95358 14.3153,5.86062 3.2025,3.90712 4.8038,9.35141 4.8038,16.33289 0,3.0104 -0.4163,5.89267 -1.249,8.64683 -0.7686,2.75418 -1.9856,5.1881 -3.6508,7.30176 -1.6013,2.11368 -3.683,3.81101 -6.245,5.09202 -2.562,1.21696 -5.5724,1.82544 -9.0311,1.82544 -3.9711,0 -7.2377,-0.73658 -9.7997,-2.20974 -2.498,-1.53721 -4.4836,-3.58683 -5.9567,-6.14885 -1.4732,-2.56202 -2.49801,-5.54037 -3.07446,-8.93506 -0.57646,-3.45871 -0.86469,-7.10959 -0.86468,-10.95264 -10e-6,-4.99591 0.32025,-9.60755 0.96076,-13.83492 0.70455,-4.29135 1.98558,-8.07032 3.84308,-11.33695 1.8574,-3.26652 4.3874,-5.95665 7.5899,-8.07037 3.2666,-2.17766 7.4619,-3.65082 12.586,-4.41949 1.6012,-0.25614 2.9463,-0.44829 4.0352,-0.57646 1.1528,-0.19208 2.1776,-0.35221 3.0744,-0.48037 0.8967,-0.12804 1.6973,-0.22412 2.4019,-0.28823 0.7045,-0.12804 1.4411,-0.28816 2.2097,-0.48038 l 0.8647,6.91746 c -0.3843,0.12816 -0.8007,0.25626 -1.249,0.3843 -0.4484,0.0641 -1.0568,0.16019 -1.8254,0.28823 -0.7687,0.0641 -1.7935,0.19221 -3.0744,0.3843 -1.217,0.12816 -2.8183,0.28829 -4.8038,0.48038 -5.5084,0.70462 -9.7357,2.49803 -12.682,5.38025 -2.9464,2.81827 -4.7398,7.23776 -5.3803,13.25846 m -0.4804,13.64277 c 0,2.69015 0.1601,5.25217 0.4804,7.68607 0.3202,2.43394 0.8967,4.61165 1.7294,6.53316 0.8967,1.85747 2.0816,3.33063 3.5548,4.41949 1.5372,1.08886 3.4907,1.63329 5.8606,1.63328 2.1136,10e-6 3.9391,-0.41632 5.4763,-1.24898 1.5372,-0.8967 2.7862,-2.08164 3.747,-3.55481 0.9607,-1.47315 1.6653,-3.17049 2.1137,-5.09202 0.5123,-1.98555 0.7685,-4.06719 0.7686,-6.24493 -10e-5,-1.92149 -0.1922,-3.81098 -0.5765,-5.66847 -0.3843,-1.92149 -1.0569,-3.5868 -2.0176,-4.99594 -0.9608,-1.47313 -2.2418,-2.65807 -3.843,-3.55481 -1.6013,-0.89667 -3.6189,-1.34502 -6.0528,-1.34506 -2.3058,4e-5 -4.4836,0.57649 -6.5332,1.72936 -1.9855,1.0889 -3.5548,2.36991 -4.7077,3.84304 l 0,5.86062"
           inkscape:connector-curvature="0" />
        <path
           id="path3098"
           d="m 1065.6482,695.33525 c 1.9855,0 3.7469,-0.064 5.2842,-0.19215 1.6012,-0.1281 2.9142,-0.28822 3.9391,-0.48038 l 0,-13.25847 c -1.0249,-0.32023 -2.2738,-0.57643 -3.747,-0.7686 -1.4091,-0.19214 -2.9143,-0.28821 -4.5155,-0.28823 -1.4732,2e-5 -2.9144,0.12812 -4.3235,0.3843 -1.4091,0.19217 -2.6581,0.57648 -3.7469,1.15291 -1.0889,0.57648 -1.9856,1.34508 -2.6901,2.30582 -0.7046,0.89673 -1.0569,2.04963 -1.0569,3.45873 0,2.88229 0.9608,4.89988 2.8823,6.05278 1.9856,1.08887 4.6437,1.63329 7.9743,1.63329 m -0.7686,-39.96755 c 3.3306,5e-5 6.1168,0.41637 8.3586,1.24899 2.3058,0.8327 4.1632,1.98561 5.5724,3.45873 1.4091,1.4732 2.4018,3.26661 2.9783,5.38024 0.5765,2.11371 0.8647,4.41952 0.8647,6.91746 l 0,27.862 c -1.8575,0.32025 -4.3234,0.70455 -7.3978,1.15291 -3.0104,0.44835 -6.1169,0.67253 -9.3194,0.67253 -2.4339,0 -4.8038,-0.22418 -7.1096,-0.67253 -2.3058,-0.38431 -4.3554,-1.08886 -6.1488,-2.11367 -1.7935,-1.08886 -3.2346,-2.56202 -4.3234,-4.41949 -1.0889,-1.85746 -1.6333,-4.22733 -1.6333,-7.10961 0,-2.56201 0.5444,-4.7077 1.6333,-6.43708 1.1529,-1.7934 2.594,-3.23453 4.3234,-4.32342 1.7934,-1.08883 3.811,-1.85744 6.0527,-2.30582 2.3058,-0.51237 4.6117,-0.76858 6.9175,-0.7686 3.1385,2e-5 6.2129,0.3523 9.2233,1.05683 l 0,-2.20974 c -10e-5,-1.34503 -0.1602,-2.62604 -0.4804,-3.84304 -0.2562,-1.28097 -0.8007,-2.43388 -1.6333,-3.45873 -0.7686,-1.02477 -1.8575,-1.8254 -3.2666,-2.40189 -1.3451,-0.64047 -3.1064,-0.96072 -5.2841,-0.96076 -2.7542,4e-5 -5.1561,0.19219 -7.2057,0.57645 -2.0497,0.38435 -3.6189,0.76865 -4.7077,1.15291 l -0.9608,-6.53315 c 1.0889,-0.51236 2.8823,-0.96072 5.3803,-1.34506 2.562,-0.38426 5.2841,-0.57641 8.1664,-0.57646"
           inkscape:connector-curvature="0" />
        <path
           id="path3100"
           d="m 1103.7903,694.95095 c 0.6405,0.1281 1.7934,0.2562 3.4587,0.3843 1.6653,0.0641 3.3306,0.0961 4.996,0.0961 1.6653,1e-5 3.2345,-0.0961 4.7077,-0.28822 1.5372,-0.2562 2.8502,-0.67253 3.9391,-1.24899 1.1529,-0.57645 2.0496,-1.34505 2.6901,-2.30582 0.7046,-0.96075 1.0568,-2.17771 1.0569,-3.65088 -10e-5,-1.4091 -0.3203,-2.59403 -0.9608,-3.55481 -0.5765,-0.96074 -1.3771,-1.72934 -2.4019,-2.30582 -1.0248,-0.57643 -2.2418,-0.96074 -3.6509,-1.15291 -1.4091,-0.25618 -2.9143,-0.38428 -4.5155,-0.3843 l -9.3194,0 0,14.41138 m 8.2625,-20.27201 c 3.0744,3e-5 5.6044,-0.44832 7.59,-1.34506 2.0496,-0.96073 3.0744,-2.75414 3.0744,-5.38024 0,-1.34503 -0.3523,-2.40186 -1.0568,-3.17051 -0.6405,-0.83262 -1.5372,-1.47312 -2.6901,-1.92151 -1.0889,-0.44832 -2.3379,-0.73655 -3.747,-0.86469 -1.4091,-0.12806 -2.8182,-0.19211 -4.2273,-0.19215 -1.3451,4e-5 -2.6581,0.0321 -3.9391,0.0961 -1.281,0.0641 -2.3699,0.12814 -3.2666,0.19215 l 0,12.58593 8.2625,0 m -0.096,27.09339 c -3.4588,0 -6.5652,-0.16013 -9.3194,-0.48038 -2.7542,-0.32025 -4.9639,-0.67253 -6.6292,-1.05683 l 0,-43.42628 c 1.6653,-0.38426 3.875,-0.73654 6.6292,-1.05684 2.7542,-0.3202 5.8606,-0.48033 9.3194,-0.48037 2.3058,4e-5 4.5795,0.19219 6.8213,0.57645 2.2418,0.38435 4.2273,1.05688 5.9567,2.01759 1.7294,0.9608 3.1065,2.24181 4.1313,3.84304 1.0888,1.6013 1.6333,3.61889 1.6333,6.05277 0,2.2418 -0.5445,4.13129 -1.6333,5.66848 -1.0889,1.47319 -2.5621,2.65812 -4.4195,3.5548 2.4339,0.89674 4.3874,2.17774 5.8606,3.84304 1.4732,1.60128 2.2097,3.93912 2.2098,7.01353 -10e-5,2.69014 -0.5445,4.9319 -1.6333,6.72531 -1.0249,1.79342 -2.466,3.23456 -4.3234,4.32341 -1.8575,1.02481 -4.0352,1.7614 -6.5332,2.20975 -2.498,0.44835 -5.1881,0.67253 -8.0703,0.67253"
           inkscape:connector-curvature="0" />
        <path
           id="path3102"
           d="m 1161.724,695.33525 c 1.9856,0 3.747,-0.064 5.2842,-0.19215 1.6012,-0.1281 2.9143,-0.28822 3.9391,-0.48038 l 0,-13.25847 c -1.0248,-0.32023 -2.2738,-0.57643 -3.7469,-0.7686 -1.4092,-0.19214 -2.9144,-0.28821 -4.5156,-0.28823 -1.4732,2e-5 -2.9143,0.12812 -4.3234,0.3843 -1.4091,0.19217 -2.6581,0.57648 -3.747,1.15291 -1.0888,0.57648 -1.9856,1.34508 -2.6901,2.30582 -0.7046,0.89673 -1.0568,2.04963 -1.0568,3.45873 0,2.88229 0.9607,4.89988 2.8822,6.05278 1.9856,1.08887 4.6437,1.63329 7.9743,1.63329 m -0.7686,-39.96755 c 3.3306,5e-5 6.1168,0.41637 8.3586,1.24899 2.3058,0.8327 4.1633,1.98561 5.5724,3.45873 1.4091,1.4732 2.4019,3.26661 2.9784,5.38024 0.5764,2.11371 0.8646,4.41952 0.8647,6.91746 l 0,27.862 c -1.8575,0.32025 -4.3235,0.70455 -7.3979,1.15291 -3.0104,0.44835 -6.1168,0.67253 -9.3193,0.67253 -2.434,0 -4.8038,-0.22418 -7.1096,-0.67253 -2.3059,-0.38431 -4.3555,-1.08886 -6.1489,-2.11367 -1.7934,-1.08886 -3.2346,-2.56202 -4.3234,-4.41949 -1.0889,-1.85746 -1.6333,-4.22733 -1.6333,-7.10961 0,-2.56201 0.5444,-4.7077 1.6333,-6.43708 1.1529,-1.7934 2.594,-3.23453 4.3234,-4.32342 1.7934,-1.08883 3.811,-1.85744 6.0528,-2.30582 2.3058,-0.51237 4.6116,-0.76858 6.9174,-0.7686 3.1385,2e-5 6.2129,0.3523 9.2233,1.05683 l 0,-2.20974 c 0,-1.34503 -0.1601,-2.62604 -0.4804,-3.84304 -0.2562,-1.28097 -0.8006,-2.43388 -1.6332,-3.45873 -0.7687,-1.02477 -1.8575,-1.8254 -3.2666,-2.40189 -1.3451,-0.64047 -3.1065,-0.96072 -5.2842,-0.96076 -2.7542,4e-5 -5.1561,0.19219 -7.2057,0.57645 -2.0496,0.38435 -3.6189,0.76865 -4.7077,1.15291 l -0.9608,-6.53315 c 1.0889,-0.51236 2.8823,-0.96072 5.3803,-1.34506 2.562,-0.38426 5.2841,-0.57641 8.1664,-0.57646"
           inkscape:connector-curvature="0" />
        <path
           id="path3104"
           d="m 1211.7796,683.71007 c -0.8968,2e-5 -1.7615,2e-5 -2.5941,0 -0.7686,-0.064 -1.5052,-0.12808 -2.2097,-0.19215 -1.8575,2.75419 -3.6189,5.70051 -5.2842,8.83898 -1.6653,3.07443 -3.1705,5.9567 -4.5156,8.64682 l -8.0703,0 c 0.7045,-1.66531 1.5052,-3.36265 2.4019,-5.09202 0.8967,-1.7934 1.8254,-3.49074 2.7862,-5.09202 0.9607,-1.6653 1.9215,-3.23454 2.8822,-4.70771 0.9608,-1.5372 1.8895,-2.88226 2.7862,-4.03519 -3.2025,-1.15289 -5.3802,-2.78617 -6.5331,-4.89986 -1.0889,-2.1777 -1.6333,-4.48351 -1.6333,-6.91746 0,-2.49794 0.4483,-4.67566 1.3451,-6.53316 0.9607,-1.85743 2.2737,-3.39464 3.9391,-4.61164 1.6653,-1.28097 3.6188,-2.24173 5.8606,-2.88228 2.3058,-0.64046 4.8038,-0.96071 7.4939,-0.96075 3.779,4e-5 6.9495,0.16017 9.5115,0.48037 2.562,0.3203 4.7397,0.73663 6.5332,1.24899 l 0,44.00273 -7.9743,0 0,-17.29365 -6.7253,0 m 6.7253,-21.42491 c -0.6406,-0.12806 -1.6654,-0.22414 -3.0745,-0.28823 -1.345,-0.12806 -2.9783,-0.19211 -4.8998,-0.19215 -3.2666,4e-5 -5.8927,0.67257 -7.8782,2.01759 -1.9856,1.3451 -2.9784,3.45877 -2.9784,6.34101 0,2.8823 1.0248,4.86787 3.0744,5.9567 2.0496,1.08888 4.7077,1.63331 7.9743,1.63329 l 7.7822,0 0,-15.46821"
           inkscape:connector-curvature="0" />
      </g>
      <g
         id="text4579-1-0"
         style="font-size:85.05580139px;font-style:normal;font-variant:normal;font-weight:normal;font-stretch:normal;line-height:125%;letter-spacing:0px;word-spacing:0px;fill:#ff55dd;fill-opacity:1;stroke:none;font-family:Ubuntu Mono;-inkscape-font-specification:Ubuntu Mono">
        <path
           id="path3071"
           d="m 859.11883,736.28549 c -0.45364,5.16007 -0.70881,10.20671 -0.7655,15.13993 -10e-6,4.87654 -0.0851,9.52626 -0.25517,13.94915 l -6.80446,0 c 0.0567,-3.11871 0.17011,-6.35082 0.34022,-9.69636 0.22681,-3.34551 0.45363,-6.71939 0.68045,-10.12164 0.28351,-3.40221 0.56703,-6.77608 0.85056,-10.12164 0.34022,-3.34549 0.68044,-6.52091 1.02067,-9.52625 l 6.54929,0 c 1.07736,2.72182 2.3532,6.12405 3.82751,10.2067 1.47429,4.0827 3.34551,8.95923 5.61369,14.62959 2.32483,-5.67036 4.22441,-10.54689 5.69874,-14.62959 1.53097,-4.08265 2.86351,-7.48488 3.99762,-10.2067 l 6.46424,0 c 0.34018,3.00534 0.65206,6.18076 0.93561,9.52625 0.34019,3.34556 0.62371,6.71943 0.85056,10.12164 0.28348,3.40225 0.5103,6.77613 0.68045,10.12164 0.17007,3.34554 0.31183,6.57765 0.42528,9.69636 l -6.80447,0 c -0.17014,-4.42289 -0.3119,-9.18601 -0.42528,-14.28937 -0.0567,-5.10333 -0.28355,-10.03656 -0.68044,-14.79971 -0.73718,1.75785 -1.41763,3.40226 -2.04134,4.93324 -0.56707,1.47432 -1.13411,3.00532 -1.70112,4.59301 -0.51036,1.58772 -1.0774,3.28884 -1.70111,5.10335 -0.62377,1.75783 -1.36092,3.82752 -2.21146,6.20907 l -6.97457,0 c -0.79387,-2.38155 -1.50267,-4.45124 -2.1264,-6.20907 -0.62375,-1.81451 -1.21914,-3.51563 -1.78617,-5.10335 -0.51035,-1.58769 -1.07738,-3.11869 -1.70111,-4.59301 -0.56705,-1.53098 -1.21915,-3.17539 -1.95629,-4.93324"
           inkscape:connector-curvature="0" />
        <path
           id="path3073"
           d="m 913.21432,760.35628 c 1.7578,10e-6 3.31715,-0.0567 4.67807,-0.17011 1.41757,-0.1134 2.58,-0.25516 3.48729,-0.42528 l 0,-11.7377 c -0.90729,-0.2835 -2.01302,-0.51032 -3.31718,-0.68045 -1.24751,-0.17009 -2.58005,-0.25515 -3.99762,-0.25516 -1.30421,10e-6 -2.58005,0.11342 -3.82751,0.34022 -1.2475,0.17013 -2.35323,0.51035 -3.31718,1.02067 -0.96398,0.51035 -1.75783,1.1908 -2.38156,2.04134 -0.62375,0.79387 -0.93563,1.81453 -0.93561,3.06201 -2e-5,2.55168 0.85054,4.33785 2.55167,5.35851 1.7578,0.96397 4.11101,1.44596 7.05963,1.44595 m -0.68044,-35.38321 c 2.94857,4e-5 5.41519,0.36861 7.39985,1.10572 2.04131,0.73719 3.68572,1.75786 4.93324,3.06201 1.24745,1.30423 2.12636,2.89193 2.63673,4.76313 0.5103,1.87125 0.76546,3.91259 0.7655,6.12401 l 0,24.66619 c -1.64445,0.28352 -3.82754,0.62374 -6.5493,1.02067 -2.66511,0.39692 -5.41524,0.59539 -8.25041,0.59539 -2.15477,0 -4.25281,-0.19847 -6.29413,-0.59539 -2.04135,-0.34023 -3.85587,-0.96397 -5.44357,-1.87123 -1.58772,-0.96396 -2.86355,-2.26815 -3.82751,-3.91257 -0.96397,-1.6444 -1.44596,-3.74244 -1.44595,-6.29413 -1e-5,-2.26814 0.48198,-4.16772 1.44595,-5.69874 1.02066,-1.58769 2.2965,-2.86352 3.82751,-3.82751 1.5877,-0.96394 3.37387,-1.64439 5.35851,-2.04134 2.04133,-0.4536 4.08266,-0.68042 6.12402,-0.68044 2.77847,2e-5 5.50025,0.31189 8.16536,0.93561 l 0,-1.95628 c -3e-5,-1.19076 -0.14179,-2.32483 -0.42528,-3.40223 -0.22684,-1.13405 -0.70883,-2.15472 -1.44595,-3.06201 -0.68047,-0.90723 -1.64444,-1.61603 -2.8919,-2.1264 -1.1908,-0.567 -2.75016,-0.85052 -4.67806,-0.85056 -2.43829,4e-5 -4.56468,0.17015 -6.37919,0.51034 -1.81454,0.34025 -3.20378,0.68048 -4.16773,1.02067 l -0.85056,-5.7838 c 0.96395,-0.45359 2.55166,-0.85052 4.76312,-1.19078 2.26814,-0.34018 4.67805,-0.51029 7.22975,-0.51033"
           inkscape:connector-curvature="0" />
        <path
           id="path3075"
           d="m 971.30743,725.90868 0,39.46589 -6.88952,0 0,-30.10975 c -1.53103,1.92796 -3.14709,4.19611 -4.84818,6.80446 -1.64443,2.6084 -3.31719,5.30183 -5.01829,8.0803 -1.64443,2.7218 -3.23214,5.41523 -4.76312,8.08031 -1.53102,2.66508 -2.89191,5.04664 -4.08268,7.14468 l -6.29413,0 0,-39.46589 6.80446,0 0,28.40864 c 1.30418,-2.21144 2.72177,-4.593 4.25279,-7.14469 1.53099,-2.60836 3.1187,-5.18838 4.76313,-7.74008 1.64439,-2.60835 3.2888,-5.07496 4.93323,-7.39985 1.64439,-2.38153 3.26045,-4.42287 4.84819,-6.12402 l 6.29412,0 m -14.96982,-6.37918 c -3.17543,4e-5 -5.75546,-0.79381 -7.74007,-2.38157 -1.98465,-1.64436 -3.20378,-3.91251 -3.6574,-6.80446 l 5.35851,-1.44595 c 0.45362,1.64447 1.16241,2.97701 2.1264,3.99762 0.96394,0.96402 2.26813,1.446 3.91256,1.44595 1.64439,5e-5 2.94858,-0.48193 3.91257,-1.44595 0.96394,-1.02061 1.67274,-2.35315 2.1264,-3.99762 l 5.27346,1.44595 c -0.45367,2.89195 -1.6728,5.1601 -3.6574,6.80446 -1.92796,1.58776 -4.47964,2.38161 -7.65503,2.38157"
           inkscape:connector-curvature="0" />
        <path
           id="path3077"
           d="m 980.74863,745.72668 c -1e-5,-3.57232 0.56703,-6.66268 1.70111,-9.27108 1.13408,-2.60835 2.69343,-4.76309 4.67807,-6.46424 1.98463,-1.70108 4.28113,-2.94856 6.88952,-3.74246 2.66507,-0.85051 5.50026,-1.27579 8.50557,-1.27583 1.9279,4e-5 3.8275,0.1418 5.6988,0.42528 1.9279,0.22685 3.9692,0.68048 6.124,1.36089 l -1.6161,6.03896 c -1.8713,-0.68041 -3.6007,-1.10569 -5.1884,-1.27584 -1.531,-0.22678 -3.0904,-0.34019 -4.6781,-0.34022 -2.0413,3e-5 -3.96926,0.28355 -5.78376,0.85056 -1.81454,0.51037 -3.40225,1.36092 -4.76312,2.55167 -1.30421,1.13411 -2.35323,2.63676 -3.14707,4.50796 -0.79386,1.81455 -1.19079,4.026 -1.19078,6.63435 -1e-5,2.49499 0.36857,4.64973 1.10573,6.46424 0.73713,1.75783 1.7578,3.23213 3.06201,4.42291 1.36087,1.13408 2.97693,1.98464 4.84818,2.55167 1.8712,0.56704 3.94091,0.85056 6.20911,0.85056 1.8145,0 3.5439,-0.0851 5.1884,-0.25517 1.701,-0.22681 3.5439,-0.68044 5.5286,-1.36089 l 1.0207,5.86885 c -1.9847,0.73715 -3.9977,1.24748 -6.039,1.531 -2.0414,0.34022 -4.2528,0.51034 -6.6344,0.51034 -3.17539,0 -6.09564,-0.42528 -8.7607,-1.27584 -2.60839,-0.90726 -4.87655,-2.21145 -6.80447,-3.91257 -1.87123,-1.70111 -3.34553,-3.8275 -4.4229,-6.37918 -1.02067,-2.60837 -1.53101,-5.61367 -1.531,-9.01592"
           inkscape:connector-curvature="0" />
        <path
           id="path3079"
           d="m 1056.7035,725.90868 0,5.86885 -12.8435,0 0,33.59704 -6.9745,0 0,-33.59704 -12.8435,0 0,-5.86885 32.6615,0"
           inkscape:connector-curvature="0" />
        <path
           id="path3081"
           d="m 1100.7624,745.47152 c -10e-5,3.28884 -0.5104,6.23743 -1.531,8.8458 -0.964,2.55168 -2.3816,4.73478 -4.2528,6.5493 -1.8146,1.75782 -4.0544,3.11871 -6.7194,4.08267 -2.6084,0.90727 -5.5287,1.3609 -8.7608,1.3609 -2.8919,0 -5.5003,-0.22682 -7.8251,-0.68045 -2.2682,-0.39693 -3.941,-0.85056 -5.0183,-1.36089 l 1.0207,-5.86885 c 1.134,0.51034 2.7217,0.93562 4.7631,1.27583 2.098,0.34023 4.2244,0.51034 6.3792,0.51034 2.0413,0 3.9125,-0.28351 5.6136,-0.85056 1.7578,-0.56703 3.2888,-1.36088 4.5931,-2.38156 1.3041,-1.07737 2.3531,-2.38155 3.147,-3.91257 0.7938,-1.53099 1.2758,-3.2321 1.446,-5.10335 l -18.1169,0 0,-5.69874 17.9468,0 c -0.2269,-1.70109 -0.7372,-3.23209 -1.531,-4.59301 -0.7939,-1.41757 -1.8146,-2.60835 -3.0621,-3.57234 -1.2475,-0.96394 -2.6934,-1.70109 -4.3378,-2.21145 -1.6444,-0.56701 -3.4306,-0.85053 -5.3585,-0.85056 -2.2115,3e-5 -4.0827,0.14179 -5.6137,0.42528 -1.4743,0.28355 -3.0337,0.73718 -4.6781,1.36089 l -1.616,-6.03896 c 1.3609,-0.45359 3.0336,-0.85052 5.0183,-1.19078 1.9846,-0.39689 4.3945,-0.59535 7.2297,-0.59539 3.1754,4e-5 6.0673,0.48202 8.6757,1.44595 2.6083,0.964 4.8481,2.32489 6.7194,4.08267 1.8712,1.75786 3.3171,3.9126 4.3379,6.46425 1.0206,2.55169 1.5309,5.38689 1.531,8.50558"
           inkscape:connector-curvature="0" />
        <path
           id="path3083"
           d="m 1136.0605,745.72668 c 0,-4.59299 -1.0774,-8.13697 -3.2321,-10.63197 -2.1548,-2.55164 -4.9616,-3.82748 -8.4205,-3.82751 -1.928,3e-5 -3.459,0.0851 -4.593,0.25516 -1.0774,0.17015 -1.928,0.36861 -2.5517,0.59539 l 0,24.92135 c 0.7938,0.73716 1.9563,1.41761 3.4873,2.04134 1.531,0.62375 3.1187,0.93562 4.7631,0.93562 1.8712,0 3.4589,-0.36857 4.7631,-1.10573 1.3609,-0.73714 2.4666,-1.72946 3.3172,-2.97695 0.8505,-1.30418 1.4743,-2.80683 1.8712,-4.50796 0.3969,-1.7578 0.5954,-3.65738 0.5954,-5.69874 m 7.2298,0 c -10e-5,3.00532 -0.397,5.78381 -1.1908,8.33547 -0.7372,2.49498 -1.8429,4.64972 -3.3172,6.46424 -1.4176,1.81453 -3.1754,3.23212 -5.2735,4.25279 -2.098,1.02067 -4.4796,1.53101 -7.1446,1.53101 -2.0981,0 -3.941,-0.25517 -5.5287,-0.76551 -1.5877,-0.51033 -2.7785,-1.07737 -3.5723,-1.70111 l 0,15.56521 -7.0596,0 0,-52.30932 c 1.531,-0.45359 3.4872,-0.90722 5.8688,-1.36089 2.4383,-0.45359 5.2167,-0.68041 8.3355,-0.68045 2.8351,4e-5 5.4152,0.48203 7.7401,1.44595 2.3248,0.96401 4.3094,2.35325 5.9539,4.16774 1.6443,1.75785 2.9202,3.91259 3.8275,6.46424 0.9072,2.5517 1.3608,5.41524 1.3609,8.59063"
           inkscape:connector-curvature="0" />
        <path
           id="path3085"
           d="m 1183.1814,765.37457 -7.0596,0 0,-17.43644 -16.3307,0 0,17.43644 -7.0596,0 0,-39.46589 7.0596,0 0,16.07555 16.3307,0 0,-16.07555 7.0596,0 0,39.46589"
           inkscape:connector-curvature="0" />
        <path
           id="path3087"
           d="m 1212.6958,750.06453 c -0.7939,10e-6 -1.5594,10e-6 -2.2965,0 -0.6805,-0.0567 -1.3326,-0.11339 -1.9563,-0.17011 -1.6444,2.43828 -3.2038,5.04665 -4.6781,7.82513 -1.4743,2.72179 -2.8068,5.27346 -3.9976,7.65502 l -7.1447,0 c 0.6238,-1.4743 1.3326,-2.97695 2.1264,-4.50795 0.7939,-1.58771 1.6161,-3.09036 2.4666,-4.50796 0.8506,-1.47429 1.7011,-2.86354 2.5517,-4.16774 0.8506,-1.36087 1.6728,-2.55165 2.4666,-3.57234 -2.8352,-1.02065 -4.7631,-2.4666 -5.7838,-4.33785 -0.9639,-1.9279 -1.4459,-3.96924 -1.4459,-6.12401 0,-2.21143 0.3969,-4.13935 1.1908,-5.7838 0.8505,-1.64438 2.013,-3.00527 3.4873,-4.08268 1.4743,-1.13404 3.2037,-1.98459 5.1884,-2.55167 2.0413,-0.567 4.2527,-0.85052 6.6343,-0.85056 3.3455,4e-5 6.1524,0.1418 8.4205,0.42528 2.2682,0.28356 4.1961,0.65213 5.7838,1.10573 l 0,38.95555 -7.0596,0 0,-15.31004 -5.9539,0 m 5.9539,-18.96745 c -0.5671,-0.11337 -1.4743,-0.19842 -2.7218,-0.25516 -1.1908,-0.11338 -2.6367,-0.17008 -4.3378,-0.17011 -2.8919,3e-5 -5.2168,0.59542 -6.9746,1.78617 -1.7578,1.19081 -2.6367,3.06204 -2.6367,5.61368 0,2.5517 0.9072,4.30952 2.7218,5.27346 1.8145,0.96399 4.1677,1.44597 7.0596,1.44595 l 6.8895,0 0,-13.69399"
           inkscape:connector-curvature="0" />
      </g>
      <g
         id="text3292-8"
         style="font-size:54.65794754px;font-style:normal;font-variant:normal;font-weight:normal;font-stretch:normal;line-height:125%;letter-spacing:0px;word-spacing:0px;fill:#ff55dd;fill-opacity:1;stroke:none;font-family:Ubuntu Mono;-inkscape-font-specification:Ubuntu Mono">
        <path
           id="path3040"
           d="m 271.75643,730.73477 c -0.94742,3e-5 -1.76729,-0.32791 -2.45961,-0.98384 -0.69234,-0.65586 -1.03851,-1.54861 -1.0385,-2.67824 -1e-5,-1.12956 0.34616,-2.02231 1.0385,-2.67824 0.69232,-0.65586 1.51219,-0.98381 2.45961,-0.98384 0.98383,3e-5 1.8037,0.32798 2.4596,0.98384 0.69232,0.65593 1.03849,1.54868 1.03851,2.67824 -2e-5,1.12963 -0.34619,2.02238 -1.03851,2.67824 -0.6559,0.65593 -1.47577,0.98387 -2.4596,0.98384 m -1.14782,7.70677 -7.32416,0 0,-3.77139 11.80611,0 0,15.57751 c -10e-6,2.51427 0.34615,4.20867 1.0385,5.08319 0.69232,0.83809 1.73082,1.25714 3.11551,1.25713 1.0567,10e-6 2.02232,-0.12753 2.89687,-0.3826 0.91094,-0.25507 1.62149,-0.52836 2.13166,-0.81987 l 0.65589,3.82605 c -0.21865,0.10932 -0.52838,0.25507 -0.92918,0.43727 -0.40085,0.14575 -0.87455,0.29151 -1.42111,0.43726 -0.51016,0.14576 -1.09318,0.27329 -1.74905,0.38261 -0.61948,0.10931 -1.27537,0.16397 -1.96769,0.16397 -1.60332,0 -2.93332,-0.21863 -3.99003,-0.65589 -1.05673,-0.43727 -1.91304,-1.09316 -2.56892,-1.96769 -0.61947,-0.87453 -1.05673,-1.94946 -1.31179,-3.22482 -0.25508,-1.31178 -0.38262,-2.82399 -0.38261,-4.53661 l 0,-11.80612"
           inkscape:connector-curvature="0" />
        <path
           id="path3042"
           d="m 300.94377,734.67015 10.71296,0 0,3.77139 -10.71296,0 0,11.80612 c -10e-6,1.27536 0.0911,2.31386 0.27329,3.1155 0.18218,0.80166 0.47369,1.45755 0.87453,1.96769 0.43725,0.47371 0.98383,0.80165 1.63974,0.98384 0.65588,0.1822 1.45752,0.2733 2.40495,0.27329 1.31177,10e-6 2.36849,-0.10931 3.17016,-0.32795 0.80162,-0.21862 1.56684,-0.51013 2.29563,-0.87452 l 0.6559,3.82605 c -0.51017,0.21864 -1.33004,0.51015 -2.45961,0.87453 -1.09318,0.36439 -2.45963,0.54658 -4.09935,0.54658 -1.89482,0 -3.44346,-0.21863 -4.64592,-0.65589 -1.20249,-0.43727 -2.14989,-1.09316 -2.84222,-1.96769 -0.6559,-0.87453 -1.11138,-1.94946 -1.36644,-3.22482 -0.25508,-1.31178 -0.38262,-2.82399 -0.38261,-4.53661 l 0,-11.80612 -5.35648,0 0,-3.77139 5.35648,0 0,-7.10554 4.48195,-0.76521 0,7.87075"
           inkscape:connector-curvature="0" />
        <path
           id="path3044"
           d="m 332.70004,756.53332 c -2e-5,1.09317 -0.3644,2.05879 -1.09316,2.89688 -0.72879,0.83808 -1.69441,1.25713 -2.89687,1.25713 -1.23893,0 -2.22277,-0.41905 -2.95153,-1.25713 -0.72878,-0.83809 -1.09317,-1.80371 -1.09316,-2.89688 -1e-5,-1.12959 0.36438,-2.11343 1.09316,-2.95152 0.72876,-0.83809 1.7126,-1.25713 2.95153,-1.25714 1.20246,10e-6 2.16808,0.41905 2.89687,1.25714 0.72876,0.83809 1.09314,1.82193 1.09316,2.95152"
           inkscape:connector-curvature="0" />
        <path
           id="path3046"
           d="m 351.11977,760.03143 0,-21.58989 -5.35648,0 0,-3.77139 5.35648,0 0,-2.29564 c -1e-5,-1.96765 0.27328,-3.58917 0.81987,-4.86456 0.54657,-1.31175 1.25712,-2.36847 2.13166,-3.17016 0.91095,-0.80161 1.94945,-1.36641 3.1155,-1.69439 1.20246,-0.32791 2.45959,-0.49189 3.7714,-0.49192 1.31177,3e-5 2.62356,0.14579 3.93537,0.43726 1.34821,0.29155 2.60534,0.63771 3.7714,1.0385 l -0.81987,3.88071 c -0.80167,-0.40079 -1.80374,-0.74695 -3.00619,-1.0385 -1.20249,-0.29147 -2.42319,-0.43723 -3.66208,-0.43726 -0.76523,3e-5 -1.494,0.10935 -2.18632,0.32795 -0.65591,0.18222 -1.23893,0.52839 -1.74905,1.0385 -0.51016,0.47373 -0.91098,1.12963 -1.20248,1.96768 -0.29152,0.80168 -0.43727,1.82196 -0.43726,3.06085 l 0,2.24098 10.22104,0 0,3.77139 -10.22104,0 0,21.58989 -4.48195,0"
           inkscape:connector-curvature="0" />
        <path
           id="path3048"
           d="m 383.58659,756.80661 c 1.12958,10e-6 2.13164,-0.0364 3.00619,-0.10931 0.91094,-0.0729 1.65793,-0.16397 2.24097,-0.27329 l 0,-7.5428 c -0.58304,-0.18218 -1.29359,-0.32793 -2.13166,-0.43726 -0.80167,-0.10931 -1.65797,-0.16396 -2.56892,-0.16398 -0.8381,2e-5 -1.65797,0.0729 -2.45961,0.21864 -0.80166,0.10932 -1.51221,0.32796 -2.13166,0.65589 -0.61947,0.32796 -1.12961,0.76522 -1.53042,1.31179 -0.40084,0.51015 -0.60125,1.16605 -0.60124,1.96769 -10e-6,1.63974 0.54657,2.78756 1.63974,3.44345 1.12959,0.61946 2.64179,0.92919 4.53661,0.92918 m -0.43727,-22.7377 c 1.8948,2e-5 3.47988,0.23687 4.75525,0.71055 1.31177,0.47373 2.36849,1.12962 3.17016,1.96769 0.80162,0.83811 1.36642,1.85839 1.69439,3.06084 0.32793,1.2025 0.4919,2.51429 0.49192,3.93537 l 0,15.85081 c -1.05674,0.18219 -2.45962,0.40082 -4.20866,0.65589 -1.71263,0.25507 -3.4799,0.38261 -5.30182,0.38261 -1.38468,0 -2.73291,-0.12754 -4.04469,-0.38261 -1.3118,-0.21863 -2.47783,-0.61945 -3.4981,-1.20247 -1.02029,-0.61946 -1.84016,-1.45754 -2.45961,-2.51427 -0.61946,-1.05671 -0.92919,-2.40494 -0.92919,-4.04468 0,-1.45754 0.30973,-2.67823 0.92919,-3.66209 0.65589,-1.02027 1.47576,-1.84013 2.45961,-2.4596 1.02027,-0.61945 2.16808,-1.05671 3.44345,-1.31179 1.31178,-0.2915 2.62356,-0.43725 3.93537,-0.43727 1.78548,2e-5 3.53453,0.20043 5.24716,0.60124 l 0,-1.25713 c -2e-5,-0.7652 -0.0911,-1.49397 -0.27329,-2.18632 -0.14577,-0.72876 -0.4555,-1.38465 -0.92918,-1.96769 -0.43729,-0.58299 -1.05674,-1.03848 -1.85837,-1.36645 -0.76523,-0.36436 -1.76729,-0.54655 -3.00619,-0.54658 -1.56687,3e-5 -2.93332,0.10934 -4.09935,0.32795 -1.16604,0.21866 -2.05879,0.43729 -2.67824,0.6559 l -0.54658,-3.71674 c 0.61945,-0.29149 1.63973,-0.54656 3.06085,-0.76521 1.45753,-0.21861 3.00617,-0.32793 4.64592,-0.32795"
           inkscape:connector-curvature="0" />
        <path
           id="path3050"
           d="m 415.45217,760.63267 c -1.60332,0 -2.93333,-0.21863 -3.99003,-0.65589 -1.05673,-0.43727 -1.89482,-1.09316 -2.51427,-1.96769 -0.61946,-0.87453 -1.05673,-1.94946 -1.31179,-3.22482 -0.25508,-1.31178 -0.38261,-2.82399 -0.3826,-4.53661 l 0,-23.99484 -7.32417,0 0,-3.82605 11.80612,0 0,27.82089 c -2e-5,1.27536 0.0729,2.31386 0.21863,3.1155 0.18218,0.80166 0.43725,1.45755 0.76521,1.96769 0.36437,0.47371 0.80164,0.80165 1.31179,0.98384 0.51013,0.1822 1.11136,0.2733 1.80372,0.27329 1.0567,10e-6 2.04054,-0.12753 2.95152,-0.3826 0.91095,-0.25507 1.6215,-0.52836 2.13166,-0.81987 l 0.6559,3.82605 c -0.21866,0.10932 -0.52838,0.25507 -0.92919,0.43727 -0.40084,0.14575 -0.87455,0.29151 -1.4211,0.43726 -0.5466,0.14576 -1.14784,0.27329 -1.80371,0.38261 -0.61948,0.10931 -1.27538,0.16397 -1.96769,0.16397"
           inkscape:connector-curvature="0" />
        <path
           id="path3052"
           d="m 438.24454,756.80661 c 1.12958,10e-6 2.13164,-0.0364 3.00619,-0.10931 0.91094,-0.0729 1.65794,-0.16397 2.24097,-0.27329 l 0,-7.5428 c -0.58303,-0.18218 -1.29359,-0.32793 -2.13166,-0.43726 -0.80166,-0.10931 -1.65797,-0.16396 -2.56892,-0.16398 -0.8381,2e-5 -1.65797,0.0729 -2.45961,0.21864 -0.80166,0.10932 -1.51221,0.32796 -2.13166,0.65589 -0.61946,0.32796 -1.12961,0.76522 -1.53042,1.31179 -0.40083,0.51015 -0.60125,1.16605 -0.60124,1.96769 -1e-5,1.63974 0.54657,2.78756 1.63974,3.44345 1.12959,0.61946 2.64179,0.92919 4.53661,0.92918 m -0.43726,-22.7377 c 1.89479,2e-5 3.47987,0.23687 4.75524,0.71055 1.31177,0.47373 2.36849,1.12962 3.17016,1.96769 0.80163,0.83811 1.36642,1.85839 1.69439,3.06084 0.32793,1.2025 0.4919,2.51429 0.49193,3.93537 l 0,15.85081 c -1.05675,0.18219 -2.45963,0.40082 -4.20867,0.65589 -1.71263,0.25507 -3.4799,0.38261 -5.30182,0.38261 -1.38468,0 -2.73291,-0.12754 -4.04468,-0.38261 -1.3118,-0.21863 -2.47784,-0.61945 -3.49811,-1.20247 -1.02029,-0.61946 -1.84016,-1.45754 -2.45961,-2.51427 -0.61946,-1.05671 -0.92919,-2.40494 -0.92919,-4.04468 0,-1.45754 0.30973,-2.67823 0.92919,-3.66209 0.65589,-1.02027 1.47576,-1.84013 2.45961,-2.4596 1.02027,-0.61945 2.16809,-1.05671 3.44345,-1.31179 1.31178,-0.2915 2.62357,-0.43725 3.93537,-0.43727 1.78548,2e-5 3.53453,0.20043 5.24716,0.60124 l 0,-1.25713 c -2e-5,-0.7652 -0.0911,-1.49397 -0.27329,-2.18632 -0.14577,-0.72876 -0.4555,-1.38465 -0.92918,-1.96769 -0.43728,-0.58299 -1.05674,-1.03848 -1.85837,-1.36645 -0.76523,-0.36436 -1.76729,-0.54655 -3.00619,-0.54658 -1.56687,3e-5 -2.93332,0.10934 -4.09935,0.32795 -1.16604,0.21866 -2.05879,0.43729 -2.67824,0.6559 l -0.54657,-3.71674 c 0.61945,-0.29149 1.63973,-0.54656 3.06084,-0.76521 1.45754,-0.21861 3.00618,-0.32793 4.64593,-0.32795"
           inkscape:connector-curvature="0" />
        <path
           id="path3054"
           d="m 455.51644,735.3807 c 1.63973,-0.4008 3.26125,-0.71053 4.86456,-0.92919 1.63973,-0.2186 3.17015,-0.32792 4.59127,-0.32794 3.38877,2e-5 5.93947,0.87455 7.65211,2.62358 1.74903,1.74907 2.62356,4.55485 2.62358,8.41732 l 0,14.86696 -4.48195,0 0,-14.04709 c -2e-5,-1.63972 -0.14577,-2.96973 -0.43727,-3.99003 -0.29152,-1.02026 -0.71057,-1.80369 -1.25713,-2.35029 -0.51016,-0.583 -1.14783,-0.98382 -1.91303,-1.20248 -0.72878,-0.21861 -1.53043,-0.32792 -2.40495,-0.32794 -0.72878,2e-5 -1.51221,0.0547 -2.35029,0.16397 -0.80166,0.0729 -1.58509,0.18221 -2.35029,0.32795 l 0,21.42591 -4.53661,0 0,-24.65073"
           inkscape:connector-curvature="0" />
        <path
           id="path3056"
           d="m 498.14965,753.69111 c -2e-5,-0.91096 -0.38263,-1.65795 -1.14782,-2.24097 -0.72879,-0.58301 -1.65798,-1.09315 -2.78756,-1.53043 -1.09317,-0.43725 -2.29564,-0.85629 -3.60742,-1.25713 -1.3118,-0.43725 -2.53249,-0.96561 -3.66208,-1.58508 -1.09317,-0.61944 -2.02235,-1.38465 -2.78756,-2.29563 -0.72878,-0.91095 -1.09316,-2.09521 -1.09316,-3.55277 0,-2.04054 0.81987,-3.73494 2.45961,-5.08319 1.67617,-1.38464 4.28153,-2.07698 7.81609,-2.077 1.38465,2e-5 2.80575,0.10934 4.26332,0.32795 1.49396,0.18221 2.76931,0.43728 3.82605,0.76521 l -0.81987,4.04469 c -0.29153,-0.14574 -0.69235,-0.29149 -1.20247,-0.43727 -0.51016,-0.18217 -1.09318,-0.32792 -1.74906,-0.43726 -0.65591,-0.14573 -1.36646,-0.25505 -2.13166,-0.32795 -0.72878,-0.0729 -1.43934,-0.10929 -2.13166,-0.10932 -3.93538,3e-5 -5.90306,1.07497 -5.90305,3.22482 -1e-5,0.76523 0.36437,1.42113 1.09316,1.96769 0.7652,0.51016 1.7126,0.98386 2.84221,1.42111 1.12958,0.43727 2.35028,0.89276 3.66208,1.36644 1.31177,0.43728 2.53247,0.98386 3.66208,1.63974 1.12958,0.65591 2.05876,1.45756 2.78756,2.40495 0.76519,0.91098 1.14779,2.07701 1.14782,3.49811 -3e-5,2.29564 -0.89277,4.08113 -2.67824,5.35648 -1.78552,1.23891 -4.60951,1.85837 -8.47199,1.85837 -1.74906,0 -3.35236,-0.14575 -4.8099,-0.43726 -1.45755,-0.29151 -2.84221,-0.72878 -4.154,-1.31179 l 0.87453,-4.09935 c 1.27534,0.58302 2.60535,1.07494 3.99003,1.47576 1.4211,0.36439 2.9333,0.54659 4.53661,0.54658 4.11755,10e-6 6.17633,-1.03849 6.17635,-3.1155"
           inkscape:connector-curvature="0" />
        <path
           id="path3058"
           d="m 519.57557,734.67015 10.71295,0 0,3.77139 -10.71295,0 0,11.80612 c -2e-5,1.27536 0.0911,2.31386 0.27329,3.1155 0.18218,0.80166 0.47369,1.45755 0.87452,1.96769 0.43725,0.47371 0.98383,0.80165 1.63974,0.98384 0.65588,0.1822 1.45753,0.2733 2.40495,0.27329 1.31177,10e-6 2.36849,-0.10931 3.17016,-0.32795 0.80163,-0.21862 1.56684,-0.51013 2.29564,-0.87452 l 0.65589,3.82605 c -0.51016,0.21864 -1.33003,0.51015 -2.45961,0.87453 -1.09318,0.36439 -2.45962,0.54658 -4.09934,0.54658 -1.89483,0 -3.44347,-0.21863 -4.64593,-0.65589 -1.20248,-0.43727 -2.14989,-1.09316 -2.84221,-1.96769 -0.65591,-0.87453 -1.11139,-1.94946 -1.36645,-3.22482 -0.25508,-1.31178 -0.38261,-2.82399 -0.3826,-4.53661 l 0,-11.80612 -5.35648,0 0,-3.77139 5.35648,0 0,-7.10554 4.48195,-0.76521 0,7.87075"
           inkscape:connector-curvature="0" />
        <path
           id="path3060"
           d="m 547.77906,734.06891 c 3.42521,2e-5 6.06701,1.07496 7.9254,3.22482 1.85835,2.11346 2.78753,5.33827 2.78756,9.67445 l 0,1.58508 -18.14644,0 c 0.18218,2.62359 1.03849,4.62772 2.56892,6.01238 1.56685,1.34823 3.75317,2.02235 6.55895,2.02234 1.60329,10e-6 2.96973,-0.12753 4.09935,-0.3826 1.12958,-0.25507 1.98588,-0.52836 2.56892,-0.81987 l 0.60124,3.82605 c -0.5466,0.29151 -1.53044,0.60124 -2.95153,0.92919 -1.42112,0.32795 -3.02442,0.49192 -4.8099,0.49192 -2.18633,0 -4.11757,-0.32795 -5.79374,-0.98384 -1.63975,-0.69234 -3.00619,-1.62152 -4.09935,-2.78756 -1.09316,-1.16603 -1.91303,-2.5507 -2.4596,-4.154 -0.54658,-1.63973 -0.81987,-3.407 -0.81987,-5.30182 0,-2.25918 0.34616,-4.22687 1.0385,-5.90306 0.69233,-1.67616 1.60329,-3.06082 2.7329,-4.15401 1.12959,-1.09313 2.40494,-1.913 3.82605,-2.4596 1.4211,-0.54656 2.87864,-0.81985 4.37264,-0.81987 m 6.12169,10.82227 c -2e-5,-2.14986 -0.56482,-3.84426 -1.6944,-5.08319 -1.12961,-1.27533 -2.6236,-1.913 -4.48195,-1.91303 -1.05673,3e-5 -2.02236,0.20044 -2.89687,0.60124 -0.8381,0.40085 -1.56687,0.92921 -2.18632,1.58508 -0.61946,0.65592 -1.11138,1.40291 -1.47576,2.24098 -0.3644,0.8381 -0.60125,1.69441 -0.71056,2.56892 l 13.44586,0"
           inkscape:connector-curvature="0" />
        <path
           id="path3062"
           d="m 566.80003,760.03143 0,-23.99484 c 3.71673,-1.27532 7.46991,-1.913 11.25954,-1.91302 1.16602,2e-5 2.27739,0.0547 3.33413,0.16397 1.0567,0.0729 2.22274,0.2551 3.49811,0.54658 l -0.81987,3.99003 c -1.16606,-0.32793 -2.20456,-0.52834 -3.1155,-0.60124 -0.87455,-0.10929 -1.84017,-0.16395 -2.89687,-0.16397 -2.22277,2e-5 -4.48197,0.30975 -6.77759,0.92918 l 0,21.04331 -4.48195,0"
           inkscape:connector-curvature="0" />
        <path
           id="path3064"
           d="m 605.98978,756.53332 c -10e-6,1.09317 -0.3644,2.05879 -1.09315,2.89688 -0.72879,0.83808 -1.69442,1.25713 -2.89688,1.25713 -1.23892,0 -2.22276,-0.41905 -2.95153,-1.25713 -0.72878,-0.83809 -1.09316,-1.80371 -1.09315,-2.89688 -10e-6,-1.12959 0.36437,-2.11343 1.09315,-2.95152 0.72877,-0.83809 1.71261,-1.25713 2.95153,-1.25714 1.20246,10e-6 2.16809,0.41905 2.89688,1.25714 0.72875,0.83809 1.09314,1.82193 1.09315,2.95152"
           inkscape:connector-curvature="0" />
        <path
           id="path3066"
           d="m 624.02691,735.59933 c 0.54657,-0.32792 1.33,-0.65587 2.35029,-0.98384 1.05671,-0.36436 2.22275,-0.54656 3.49811,-0.54658 1.7126,2e-5 3.24302,0.32797 4.59127,0.98384 1.34821,0.65592 2.47781,1.56689 3.38879,2.7329 0.94738,1.16606 1.65794,2.56894 2.13166,4.20866 0.51012,1.60332 0.76519,3.38881 0.76521,5.35648 -2e-5,2.04057 -0.29153,3.88072 -0.87452,5.52045 -0.58304,1.63975 -1.40291,3.04263 -2.45961,4.20866 -1.05674,1.1296 -2.33209,2.00413 -3.82606,2.62359 -1.494,0.61945 -3.15195,0.92918 -4.97387,0.92918 -2.00414,0 -3.78963,-0.14575 -5.35648,-0.43726 -1.56687,-0.29151 -2.824,-0.58302 -3.7714,-0.87453 l 0,-36.40219 4.53661,-0.76521 0,13.44585 m 0,20.49673 c 0.69233,0.1822 1.38466,0.32795 2.077,0.43726 0.69233,0.0729 1.34822,0.10932 1.96769,0.10932 2.51425,0 4.48194,-0.76521 5.90306,-2.29563 1.42109,-1.56686 2.13164,-3.89893 2.13166,-6.99622 -2e-5,-1.31178 -0.12756,-2.53247 -0.38261,-3.66208 -0.25509,-1.16602 -0.65591,-2.14986 -1.20247,-2.95153 -0.5466,-0.83807 -1.25715,-1.49397 -2.13166,-1.96769 -0.83811,-0.47368 -1.85839,-0.71053 -3.06085,-0.71055 -1.05673,2e-5 -2.07701,0.21865 -3.06084,0.65589 -0.98385,0.40085 -1.73085,0.83811 -2.24098,1.31179 l 0,16.06944"
           inkscape:connector-curvature="0" />
        <path
           id="path3068"
           d="m 645.72609,764.78667 c 0.32795,0.18219 0.78343,0.32795 1.36645,0.43727 0.61945,0.10931 1.18425,0.16397 1.6944,0.16397 1.78548,0 3.17015,-0.40083 4.154,-1.20247 1.02027,-0.76522 1.94946,-2.04057 2.78756,-3.82606 -2.04058,-3.86249 -3.9536,-7.99827 -5.73909,-12.40735 -1.7855,-4.4455 -3.26126,-8.87279 -4.42729,-13.28188 l 4.91921,0 c 0.36438,1.45756 0.78343,3.04264 1.25714,4.75524 0.51013,1.67619 1.07493,3.40703 1.69439,5.1925 0.61945,1.78551 1.27534,3.58922 1.96769,5.41114 0.72876,1.7855 1.49397,3.49811 2.29563,5.13785 0.58301,-1.67617 1.12959,-3.33413 1.63974,-4.97388 0.51013,-1.63972 0.98383,-3.27946 1.42111,-4.91921 0.43724,-1.67616 0.87451,-3.37056 1.31179,-5.08319 0.43724,-1.74903 0.89273,-3.58918 1.36645,-5.52045 l 4.70058,0 c -1.16606,4.73704 -2.47785,9.3283 -3.93537,13.7738 -1.42113,4.44552 -2.95155,8.56308 -4.59127,12.35269 -0.61947,1.45755 -1.29359,2.71468 -2.02234,3.7714 -0.69235,1.05672 -1.45756,1.93124 -2.29564,2.62358 -0.8381,0.69233 -1.7855,1.20247 -2.84221,1.53043 -1.05673,0.32794 -2.2592,0.49191 -3.60742,0.49192 -0.69234,-10e-6 -1.45755,-0.0911 -2.29564,-0.27329 -0.80165,-0.1822 -1.34823,-0.34618 -1.63974,-0.49192 l 0.81987,-3.66209"
           inkscape:connector-curvature="0" />
      </g>
      <g
         id="text4064-2"
         style="font-size:58.23609161px;font-style:normal;font-variant:normal;font-weight:normal;font-stretch:normal;line-height:125%;letter-spacing:0px;word-spacing:0px;fill:#999999;fill-opacity:1;stroke:none;font-family:Ubuntu Mono;-inkscape-font-specification:Ubuntu Mono">
        <path
           id="path3013"
           d="m 869.435,822.36853 -4.36771,0 1.80532,-9.49248 -6.46421,0 -1.80532,9.49248 -4.3677,0 1.80532,-9.49248 -3.72711,0 0,-3.90182 4.48417,0 1.74709,-9.25954 -6.23126,0 0,-3.84358 7.04656,0 1.80532,-9.55072 4.36771,0 -1.80532,9.55072 6.46421,0 1.74708,-9.55072 4.36771,0 -1.74709,9.55072 3.72711,0 0,3.84358 -4.48418,0 -1.80532,9.25954 6.2895,0 0,3.90182 -7.04656,0 -1.80532,9.49248 m -0.0582,-22.65384 -6.40597,0 -1.80532,9.25954 6.40597,0 1.80532,-9.25954"
           inkscape:connector-curvature="0" />
        <path
           id="path3015"
           d="m 894.70946,818.9326 c 1.20353,0 2.27119,-0.0388 3.20299,-0.11647 0.97058,-0.0777 1.76647,-0.17471 2.38767,-0.29118 l 0,-8.03658 c -0.6212,-0.19411 -1.37827,-0.34941 -2.2712,-0.46589 -0.85415,-0.11646 -1.76651,-0.1747 -2.7371,-0.17471 -0.89297,10e-6 -1.76651,0.0777 -2.62062,0.23294 -0.85414,0.11649 -1.61121,0.34943 -2.27121,0.69884 -0.66002,0.34943 -1.20356,0.81531 -1.63061,1.39766 -0.42707,0.54355 -0.64061,1.24238 -0.6406,2.0965 -10e-6,1.74709 0.58235,2.97005 1.74708,3.66888 1.20354,0.66001 2.81474,0.99001 4.8336,0.99001 m -0.46589,-24.22621 c 2.01884,2e-5 3.70768,0.25238 5.06654,0.75707 1.39765,0.50474 2.52354,1.20357 3.37769,2.0965 0.85411,0.89297 1.45588,1.98005 1.80532,3.26122 0.3494,1.28121 0.5241,2.67888 0.52413,4.19299 l 0,16.88847 c -1.12592,0.19412 -2.62065,0.42707 -4.48418,0.69883 -1.82475,0.27177 -3.70772,0.40766 -5.6489,0.40766 -1.47533,0 -2.91182,-0.13589 -4.30947,-0.40766 -1.39768,-0.23294 -2.64005,-0.66 -3.72711,-1.28119 -1.08708,-0.66001 -1.96062,-1.55296 -2.62063,-2.67886 -0.66001,-1.12589 -0.99001,-2.56238 -0.99001,-4.30947 0,-1.55295 0.33,-2.85356 0.99001,-3.90182 0.69883,-1.08706 1.57237,-1.9606 2.62063,-2.62062 1.08706,-0.66 2.31002,-1.12588 3.66887,-1.39767 1.39766,-0.31058 2.79532,-0.46587 4.193,-0.46589 1.90236,2e-5 3.76592,0.21355 5.59066,0.6406 l 0,-1.33943 c -2e-5,-0.81529 -0.0971,-1.59177 -0.29118,-2.32944 -0.15531,-0.77647 -0.48532,-1.4753 -0.99001,-2.0965 -0.46591,-0.62117 -1.12591,-1.10647 -1.98003,-1.45591 -0.81532,-0.38821 -1.88298,-0.58233 -3.20298,-0.58236 -1.66945,3e-5 -3.12535,0.1165 -4.36771,0.34942 -1.24238,0.23297 -2.19357,0.46591 -2.85357,0.69883 l -0.58236,-3.96005 c 0.66,-0.31057 1.74708,-0.58234 3.26122,-0.81531 1.55296,-0.23291 3.20298,-0.34939 4.95007,-0.34941"
           inkscape:connector-curvature="0" />
        <path
           id="path3017"
           d="m 934.48471,795.34698 0,27.02155 -4.71712,0 0,-20.61558 c -1.04827,1.32004 -2.15476,2.873 -3.31946,4.65889 -1.12591,1.78592 -2.27122,3.63006 -3.43593,5.53243 -1.12591,1.86356 -2.21298,3.7077 -3.26122,5.53243 -1.04826,1.82473 -1.98004,3.45534 -2.79533,4.89183 l -4.30947,0 0,-27.02155 4.65888,0 0,19.45086 c 0.89295,-1.51413 1.86355,-3.14474 2.91181,-4.89183 1.04824,-1.7859 2.13531,-3.55239 3.26122,-5.29949 1.12588,-1.78588 2.25178,-3.47473 3.37769,-5.06654 1.12588,-1.63058 2.23237,-3.02825 3.31946,-4.193 l 4.30947,0 m -10.24955,-4.3677 c -2.17416,3e-5 -3.94065,-0.54351 -5.29949,-1.63061 -1.35885,-1.12587 -2.19356,-2.67883 -2.50415,-4.65889 l 3.66888,-0.99001 c 0.31058,1.12593 0.79588,2.0383 1.4559,2.73709 0.65999,0.66005 1.55295,0.99005 2.67886,0.99002 1.12588,3e-5 2.01883,-0.32997 2.67886,-0.99002 0.65999,-0.69879 1.14529,-1.61116 1.4559,-2.73709 l 3.61064,0.99001 c -0.31062,1.98006 -1.14533,3.53302 -2.50415,4.65889 -1.32004,1.0871 -3.06712,1.63064 -5.24125,1.63061"
           inkscape:connector-curvature="0" />
        <path
           id="path3019"
           d="m 962.84569,818.292 2.27121,0 0,11.58899 -4.54242,0 0,-7.51246 -18.34437,0 0,-27.02155 4.8336,0 0,22.94502 11.00662,0 0,-22.94502 4.77536,0 0,22.94502"
           inkscape:connector-curvature="0" />
        <path
           id="path3021"
           d="m 979.38474,791.15399 c -1.00944,3e-5 -1.88298,-0.34939 -2.62063,-1.04825 -0.73766,-0.6988 -1.10649,-1.64999 -1.10648,-2.85357 -1e-5,-1.20351 0.36882,-2.1547 1.10648,-2.85357 0.73765,-0.6988 1.61119,-1.04821 2.62063,-1.04825 1.04823,4e-5 1.92177,0.34945 2.62062,1.04825 0.73764,0.69887 1.10647,1.65006 1.10649,2.85357 -2e-5,1.20358 -0.36885,2.15477 -1.10649,2.85357 -0.69885,0.69886 -1.57239,1.04828 -2.62062,1.04825 m -1.22296,8.21128 -7.80364,0 0,-4.01829 12.579,0 0,16.59729 c -2e-5,2.67887 0.36881,4.48418 1.10648,5.41596 0.73764,0.89295 1.84413,1.33943 3.31946,1.33943 1.12588,0 2.15471,-0.13588 3.08651,-0.40766 0.97058,-0.27176 1.72765,-0.56294 2.27121,-0.87354 l 0.69884,4.07653 c -0.23297,0.11647 -0.56298,0.27177 -0.99002,0.46589 -0.42709,0.15529 -0.9318,0.31059 -1.51414,0.46589 -0.54356,0.15529 -1.16474,0.29118 -1.86355,0.40765 -0.66003,0.11647 -1.35886,0.17471 -2.0965,0.17471 -1.70828,0 -3.12535,-0.23295 -4.25124,-0.69884 -1.12591,-0.46588 -2.03827,-1.16472 -2.73709,-2.0965 -0.66002,-0.93177 -1.12591,-2.07708 -1.39767,-3.43592 -0.27178,-1.39766 -0.40766,-3.00886 -0.40765,-4.8336 l 0,-12.579"
           inkscape:connector-curvature="0" />
        <path
           id="path3023"
           d="m 1005.1833,818.69966 c 0.3883,0.0777 1.0871,0.1553 2.0965,0.23294 1.0094,0.0388 2.0189,0.0582 3.0283,0.0582 1.0094,0 1.9606,-0.0582 2.8536,-0.17471 0.9317,-0.15529 1.7276,-0.40765 2.3876,-0.75707 0.6989,-0.34941 1.2424,-0.8153 1.6307,-1.39767 0.427,-0.58235 0.6405,-1.32001 0.6406,-2.21297 -10e-5,-0.85412 -0.1942,-1.57236 -0.5824,-2.15473 -0.3494,-0.58235 -0.8347,-1.04824 -1.4559,-1.39767 -0.6212,-0.3494 -1.3589,-0.58235 -2.213,-0.69883 -0.8541,-0.15529 -1.7665,-0.23293 -2.7371,-0.23295 l -5.6489,0 0,8.73542 m 5.0083,-12.28782 c 1.8636,2e-5 3.3971,-0.27175 4.6007,-0.8153 1.2423,-0.58235 1.8635,-1.66942 1.8635,-3.26123 0,-0.81528 -0.2135,-1.45588 -0.6406,-1.92179 -0.3882,-0.50469 -0.9318,-0.89293 -1.6306,-1.16472 -0.66,-0.27174 -1.4171,-0.44645 -2.2712,-0.52412 -0.8541,-0.0776 -1.7083,-0.11645 -2.5624,-0.11648 -0.8153,3e-5 -1.6112,0.0194 -2.3877,0.0582 -0.7764,0.0389 -1.4365,0.0777 -1.98,0.11647 l 0,7.62893 5.0083,0 m -0.058,16.42258 c -2.0965,0 -3.9795,-0.0971 -5.6489,-0.29118 -1.6695,-0.19412 -3.0089,-0.40765 -4.0183,-0.6406 l 0,-26.32271 c 1.0094,-0.23292 2.3488,-0.44645 4.0183,-0.6406 1.6694,-0.19409 3.5524,-0.29115 5.6489,-0.29118 1.3976,3e-5 2.7759,0.1165 4.1348,0.34942 1.3588,0.23297 2.5623,0.64062 3.6106,1.22296 1.0482,0.58238 1.8829,1.35886 2.5041,2.32944 0.66,0.97062 0.99,2.19358 0.9901,3.66887 -10e-5,1.35886 -0.3301,2.50417 -0.9901,3.43593 -0.66,0.89297 -1.5529,1.61122 -2.6788,2.15474 1.4753,0.54355 2.6594,1.32003 3.5524,2.32944 0.8929,0.97061 1.3394,2.38769 1.3394,4.25124 0,1.63061 -0.33,2.98945 -0.99,4.07652 -0.6212,1.08708 -1.4948,1.96062 -2.6206,2.62063 -1.1259,0.62118 -2.446,1.06766 -3.9601,1.33943 -1.5141,0.27176 -3.1447,0.40765 -4.8918,0.40765"
           inkscape:connector-curvature="0" />
        <path
           id="path3025"
           d="m 1040.2997,818.9326 c 1.2035,0 2.2712,-0.0388 3.203,-0.11647 0.9706,-0.0777 1.7665,-0.17471 2.3877,-0.29118 l 0,-8.03658 c -0.6212,-0.19411 -1.3783,-0.34941 -2.2712,-0.46589 -0.8542,-0.11646 -1.7666,-0.1747 -2.7371,-0.17471 -0.893,10e-6 -1.7666,0.0777 -2.6207,0.23294 -0.8541,0.11649 -1.6112,0.34943 -2.2712,0.69884 -0.66,0.34943 -1.2035,0.81531 -1.6306,1.39766 -0.4271,0.54355 -0.6406,1.24238 -0.6406,2.0965 0,1.74709 0.5824,2.97005 1.7471,3.66888 1.2035,0.66001 2.8147,0.99001 4.8336,0.99001 m -0.4659,-24.22621 c 2.0188,2e-5 3.7077,0.25238 5.0665,0.75707 1.3977,0.50474 2.5236,1.20357 3.3777,2.0965 0.8541,0.89297 1.4559,1.98005 1.8054,3.26122 0.3494,1.28121 0.5241,2.67888 0.5241,4.19299 l 0,16.88847 c -1.1259,0.19412 -2.6207,0.42707 -4.4842,0.69883 -1.8247,0.27177 -3.7077,0.40766 -5.6489,0.40766 -1.4753,0 -2.9118,-0.13589 -4.3095,-0.40766 -1.3976,-0.23294 -2.64,-0.66 -3.7271,-1.28119 -1.0871,-0.66001 -1.9606,-1.55296 -2.6206,-2.67886 -0.66,-1.12589 -0.99,-2.56238 -0.99,-4.30947 0,-1.55295 0.33,-2.85356 0.99,-3.90182 0.6988,-1.08706 1.5724,-1.9606 2.6206,-2.62062 1.0871,-0.66 2.31,-1.12588 3.6689,-1.39767 1.3977,-0.31058 2.7953,-0.46587 4.193,-0.46589 1.9024,2e-5 3.7659,0.21355 5.5907,0.6406 l 0,-1.33943 c -10e-5,-0.81529 -0.097,-1.59177 -0.2912,-2.32944 -0.1553,-0.77647 -0.4853,-1.4753 -0.99,-2.0965 -0.4659,-0.62117 -1.1259,-1.10647 -1.9801,-1.45591 -0.8153,-0.38821 -1.8829,-0.58233 -3.2029,-0.58236 -1.6695,3e-5 -3.1254,0.1165 -4.3678,0.34942 -1.2423,0.23297 -2.1935,0.46591 -2.8535,0.69883 l -0.5824,-3.96005 c 0.66,-0.31057 1.7471,-0.58234 3.2612,-0.81531 1.553,-0.23291 3.203,-0.34939 4.9501,-0.34941"
           inkscape:connector-curvature="0" />
        <path
           id="path3027"
           d="m 1068.253,799.36527 c 0,1.16475 -0.039,2.40712 -0.1165,3.72711 -0.039,1.28122 -0.1359,2.58182 -0.2911,3.90182 -0.1165,1.28121 -0.2912,2.5624 -0.5242,3.84358 -0.2329,1.24238 -0.5435,2.40711 -0.9317,3.49417 -0.7765,2.21298 -1.9607,4.11535 -3.5524,5.70714 -1.5918,1.59178 -3.863,2.54297 -6.8137,2.85357 l -0.6988,-4.07653 c 1.7083,-0.31059 3.0477,-0.93177 4.0183,-1.86356 1.0094,-0.97059 1.8053,-2.13531 2.3877,-3.49416 0.5047,-1.16471 0.8735,-2.48473 1.1065,-3.96006 0.2717,-1.4753 0.4658,-3.02826 0.5823,-4.65888 0.1165,-1.63059 0.1747,-3.2612 0.1747,-4.89183 0,-1.63059 0,-3.16414 0,-4.60066 l 15.9567,0 0,27.02155 -4.8336,0 0,-23.00326 -6.4642,0"
           inkscape:connector-curvature="0" />
        <path
           id="path3029"
           d="m 1098.5358,818.9326 c 1.2035,0 2.2712,-0.0388 3.203,-0.11647 0.9705,-0.0777 1.7664,-0.17471 2.3876,-0.29118 l 0,-8.03658 c -0.6212,-0.19411 -1.3782,-0.34941 -2.2712,-0.46589 -0.8541,-0.11646 -1.7665,-0.1747 -2.7371,-0.17471 -0.8929,10e-6 -1.7665,0.0777 -2.6206,0.23294 -0.8541,0.11649 -1.6112,0.34943 -2.2712,0.69884 -0.66,0.34943 -1.2035,0.81531 -1.6306,1.39766 -0.4271,0.54355 -0.6406,1.24238 -0.6406,2.0965 0,1.74709 0.5824,2.97005 1.7471,3.66888 1.2035,0.66001 2.8147,0.99001 4.8336,0.99001 m -0.4659,-24.22621 c 2.0188,2e-5 3.7077,0.25238 5.0665,0.75707 1.3977,0.50474 2.5236,1.20357 3.3777,2.0965 0.8541,0.89297 1.4559,1.98005 1.8053,3.26122 0.3494,1.28121 0.5241,2.67888 0.5242,4.19299 l 0,16.88847 c -1.126,0.19412 -2.6207,0.42707 -4.4842,0.69883 -1.8248,0.27177 -3.7077,0.40766 -5.6489,0.40766 -1.4753,0 -2.9118,-0.13589 -4.3095,-0.40766 -1.3977,-0.23294 -2.64,-0.66 -3.7271,-1.28119 -1.0871,-0.66001 -1.9606,-1.55296 -2.6206,-2.67886 -0.66,-1.12589 -0.99,-2.56238 -0.99,-4.30947 0,-1.55295 0.33,-2.85356 0.99,-3.90182 0.6988,-1.08706 1.5724,-1.9606 2.6206,-2.62062 1.0871,-0.66 2.31,-1.12588 3.6689,-1.39767 1.3976,-0.31058 2.7953,-0.46587 4.193,-0.46589 1.9023,2e-5 3.7659,0.21355 5.5906,0.6406 l 0,-1.33943 c 0,-0.81529 -0.097,-1.59177 -0.2911,-2.32944 -0.1554,-0.77647 -0.4854,-1.4753 -0.99,-2.0965 -0.466,-0.62117 -1.126,-1.10647 -1.9801,-1.45591 -0.8153,-0.38821 -1.883,-0.58233 -3.203,-0.58236 -1.6694,3e-5 -3.1253,0.1165 -4.3677,0.34942 -1.2423,0.23297 -2.1935,0.46591 -2.8535,0.69883 l -0.5824,-3.96005 c 0.66,-0.31057 1.7471,-0.58234 3.2612,-0.81531 1.553,-0.23291 3.203,-0.34939 4.9501,-0.34941"
           inkscape:connector-curvature="0" />
        <path
           id="path3031"
           d="m 1137.7869,822.36853 -4.8336,0 0,-11.9384 -11.1813,0 0,11.9384 -4.8336,0 0,-27.02155 4.8336,0 0,11.00663 11.1813,0 0,-11.00663 4.8336,0 0,27.02155"
           inkscape:connector-curvature="0" />
        <path
           id="path3033"
           d="m 1166.672,818.292 2.2712,0 0,11.58899 -4.5424,0 0,-7.51246 -18.3444,0 0,-27.02155 4.8336,0 0,22.94502 11.0066,0 0,-22.94502 4.7754,0 0,22.94502"
           inkscape:connector-curvature="0" />
        <path
           id="path3035"
           d="m 1186.1229,794.70639 c 3.6494,2e-5 6.4641,1.14533 8.4442,3.43593 1.98,2.25181 2.97,5.68774 2.97,10.30778 l 0,1.68885 -19.3344,0 c 0.1942,2.79534 1.1065,4.93066 2.7371,6.40597 1.6695,1.4365 3.9989,2.15474 6.9884,2.15474 1.7082,0 3.1641,-0.13588 4.3677,-0.40766 1.2035,-0.27176 2.1159,-0.56294 2.7371,-0.87354 l 0.6406,4.07653 c -0.5824,0.31059 -1.6307,0.6406 -3.1448,0.99001 -1.5141,0.34942 -3.2224,0.52413 -5.1248,0.52413 -2.3294,0 -4.3871,-0.34942 -6.173,-1.04825 -1.7471,-0.73766 -3.203,-1.72767 -4.3677,-2.97004 -1.1647,-1.24237 -2.0383,-2.71768 -2.6206,-4.42595 -0.5824,-1.74707 -0.8736,-3.63003 -0.8736,-5.6489 0,-2.40707 0.3689,-4.50357 1.1065,-6.28949 0.7377,-1.78589 1.7083,-3.2612 2.9118,-4.42595 1.2036,-1.16469 2.5624,-2.03823 4.0766,-2.62062 1.5141,-0.58234 3.0671,-0.87352 4.6589,-0.87354 m 6.5224,11.53074 c 0,-2.2906 -0.6018,-4.09592 -1.8053,-5.41595 -1.2036,-1.35882 -2.7954,-2.03824 -4.7754,-2.03827 -1.1259,3e-5 -2.1547,0.21356 -3.0865,0.6406 -0.893,0.42709 -1.6694,0.99004 -2.3294,1.68885 -0.6601,0.69885 -1.1842,1.49474 -1.5724,2.38768 -0.3883,0.89297 -0.6406,1.80533 -0.7571,2.73709 l 14.3261,0 m -11.2396,-15.89845 c -0.7765,3e-5 -1.4753,-0.29115 -2.0965,-0.87354 -0.6212,-0.58233 -0.9318,-1.31999 -0.9317,-2.21297 -10e-5,-0.89292 0.3105,-1.61116 0.9317,-2.15474 0.6212,-0.58232 1.32,-0.8735 2.0965,-0.87354 0.8153,4e-5 1.5142,0.29122 2.0965,0.87354 0.6212,0.54358 0.9318,1.26182 0.9318,2.15474 0,0.89298 -0.3106,1.63064 -0.9318,2.21297 -0.5823,0.58239 -1.2812,0.87357 -2.0965,0.87354 m 9.9002,0 c -0.8154,3e-5 -1.5336,-0.29115 -2.1548,-0.87354 -0.5824,-0.58233 -0.8735,-1.31999 -0.8735,-2.21297 0,-0.89292 0.2911,-1.61116 0.8735,-2.15474 0.6212,-0.58232 1.3394,-0.8735 2.1548,-0.87354 0.8152,4e-5 1.5141,0.29122 2.0965,0.87354 0.6211,0.54358 0.9317,1.26182 0.9317,2.15474 0,0.89298 -0.3106,1.63064 -0.9317,2.21297 -0.5824,0.58239 -1.2813,0.87357 -2.0965,0.87354"
           inkscape:connector-curvature="0" />
        <path
           id="path3037"
           d="m 1221.9963,808.91599 c 0,-3.14473 -0.7377,-5.57123 -2.213,-7.27951 -1.4753,-1.74706 -3.3971,-2.6206 -5.7653,-2.62062 -1.3201,2e-5 -2.3683,0.0583 -3.1448,0.17471 -0.7377,0.11649 -1.32,0.25238 -1.7471,0.40765 l 0,17.06317 c 0.5436,0.50472 1.3395,0.97061 2.3877,1.39767 1.0483,0.42707 2.1353,0.6406 3.2612,0.6406 1.2812,0 2.3683,-0.25236 3.2613,-0.75707 0.9317,-0.50471 1.6888,-1.18413 2.2712,-2.03827 0.5823,-0.89294 1.0094,-1.92178 1.2812,-3.08651 0.2717,-1.20353 0.4076,-2.50414 0.4076,-3.90182 m 4.9501,0 c 0,2.05769 -0.2718,3.96007 -0.8153,5.70714 -0.5048,1.70826 -1.2618,3.18358 -2.2712,4.42594 -0.9707,1.24238 -2.1742,2.21298 -3.6107,2.91181 -1.4365,0.69883 -3.0671,1.04825 -4.8918,1.04825 -1.4365,0 -2.6983,-0.17471 -3.7854,-0.52413 -1.087,-0.34941 -1.9023,-0.73765 -2.4459,-1.16472 l 0,10.65721 -4.8336,0 0,-35.8152 c 1.0483,-0.31057 2.3877,-0.62116 4.0183,-0.93178 1.6695,-0.31056 3.5718,-0.46586 5.7072,-0.46589 1.9412,3e-5 3.7076,0.33003 5.2995,0.99002 1.5917,0.66003 2.9506,1.61122 4.0765,2.85356 1.1258,1.20357 1.9994,2.67889 2.6206,4.42595 0.6212,1.7471 0.9318,3.70771 0.9318,5.88184"
           inkscape:connector-curvature="0" />
      </g>
      <g
         transform="matrix(1.6428556,0.48128941,-0.48128941,1.6428556,-4385.1813,-1676.9324)"
         style="fill:#ff2ad4;stroke:none"
         id="g3261-7-8">
        <path
           style="fill:#ff2ad4;stroke:none"
           d="m 3198.5714,336.6479 c 0,0 -18.5714,24.28571 -15.7143,41.42857 2.8572,17.14286 25.7143,50 25.7143,50 1.3288,13.89088 3.3508,29.78734 3.5504,31.60189 4.2857,37.14285 49.7251,40.59173 49.7251,96.30601 0,55.71429 -6.1326,44.94924 -28.9898,74.94924 -22.8571,30 -26.6853,54.01654 -22.8571,80 5.9594,40.44816 38.3816,100.24775 141.4286,84.28572 71.5424,-11.08194 81.4285,-32.85715 81.4285,-32.85715 0,0 0.7293,5.90898 -39.8687,14.28572 -65.6722,13.5504 -153.277,-26.19054 -139.6113,-92.61204 5.2417,-25.4775 19.9282,-32.39667 41.082,-57.14286 42.001,-55.2481 32.3876,-97.13291 25.5409,-117.07107 -6.8467,-19.93815 -20.9211,-28.24272 -29.2634,-44.68322 -7.9839,-15.73428 -29.2862,-25.17935 -36.9709,-48.23339 -2.5822,-28.96011 -2.683,-42.90223 -15.1943,-58.82885 -9.3441,-11.89482 -30,-21.42857 -40,-21.42857 z"
           id="path3245-1-9"
           inkscape:connector-curvature="0"
           sodipodi:nodetypes="csccsssscssczscac" />
        <path
           style="fill:#ff2ad4;stroke:none"
           d="m 3281.5373,466.82287 c 23.8824,-13.32688 23.2015,-11.53014 33.7144,-28.35069 0,0 3.8311,-13.79224 -6.8961,-20.68835 -10.7274,-6.89612 -18.3775,-17.98929 -10.1776,-19.43476 3.6713,-0.64718 2.5151,-1.25359 8.6451,-1.25359 6.1299,0 9.4779,-1.67997 8.9815,-4.96996 -34.831,2.85741 -14.0759,-9.20037 -23.54,-19.54957 -5.3637,0 -1.0842,0.2092 -4.9155,8.63779 -9.408,15.52794 -18.4764,-1.11016 -24.2014,-4.80661 -3.8312,2.2987 -0.5393,8.33167 7.7669,17.33627 11.0553,7.83506 -8.8984,23.64281 -1.6371,27.10537 5.1919,2.03051 3.4673,-8.52155 8.0648,-14.65143 4.5974,-6.12988 12.6236,6.98907 12.6236,6.98907 2.0885,5.83451 6.4549,12.36455 5.0662,16.76328 -2.7638,8.75454 -14.7105,13.60454 -17.4855,19.49187 -4.4589,9.4597 1.2399,17.20058 3.9907,17.38131 z"
           id="path3247-0-7"
           inkscape:connector-curvature="0"
           sodipodi:nodetypes="ccsssccccccsccsc" />
        <path
           style="fill:#ff2ad4;stroke:none"
           d="m 3225.3572,463.79075 c 7.8571,3.21429 16.7857,4.64286 11.4286,10.71429 -5.3572,6.07142 -13.5715,10 -22.5,14.28571 -8.9286,4.28571 -15,10.35714 -21.4286,1.07143 -6.4286,-9.28572 -16.0714,-27.5 -18.5714,-27.14286 -2.5,0.35714 -13.9286,15.35714 -14.6429,20.35714 -0.7143,5 -6.0714,2.5 -6.0714,2.5 0,0 -6.4286,-2.5 0,-7.85714 9.0428,-16.74701 -0.5924,-11.01156 -14.7961,-15.633 -1.3818,-0.44962 0.1532,-4.72414 3.0104,-5.08128 2.8571,-0.35715 14.0996,-1.42497 15.3568,-6.8933 0.7896,-3.43429 -6.7854,-8.1067 -6.7854,-8.1067 0,0 -0.7143,-8.57143 3.5714,-5 4.2857,3.57142 8.2446,5.62834 15.5419,7.47415 5.3586,1.35541 0.8867,-10.3313 4.4582,-12.8313 3.5714,-2.5 6.7857,5 6.7857,5 0,0 -3.2143,14.64286 0.7142,16.78572 3.9286,2.14286 5,8.57143 5,8.57143 0,0 6.2419,12.15147 11.7857,11.78571 7.0327,-0.46399 7.5,-13.21428 12.8571,-16.78571 6.8078,-5.89638 6.6434,4.02445 14.2858,6.78571 z"
           id="path3249-6-8"
           inkscape:connector-curvature="0"
           sodipodi:nodetypes="csssssccssacssccscacc" />
        <path
           style="fill:#ff2ad4;stroke:none"
           d="m 3233.9286,572.71932 c 0,0 8.5714,-13.92857 20,-12.14285 11.4285,1.78571 17.8571,-5.35715 18.2143,8.21428 0.3571,13.57143 5.3571,15.35715 -6.7858,20.35715 -12.1428,5 -19.6428,4.64285 -24.2857,4.64285 -4.6428,0 -9.6428,1.42857 -12.8571,3.21429 -3.2143,1.78571 -4.2857,1.78571 -6.0714,2.85714 -1.7858,1.07143 -10.3572,5 -15.3572,16.78572 -5,11.78571 -7.1428,12.14285 -7.1428,10.71428 0,-1.42857 2.7918,-12.28378 -1.4025,-15.11314 -4.2319,-2.85478 -7.8883,4.12892 -14.669,4.39886 -1.4285,0 -3.0903,-0.21173 0,-4.28572 4.3549,-5.74117 10.614,-14.49457 -4.9401,-14.0215 -15.5541,0.47308 -11.8456,-2.76421 -8.9884,-4.54993 13.4884,-0.86541 16.6653,-3.89496 6.0714,-4.64285 -7.8572,-1.42858 -10,-5.71429 0.3571,-5.35715 12.5615,1.47747 26.3672,-1.86089 33.5715,-1.78571 6.0714,0 8.5714,-3.57143 13.9285,-5.71429 5.3572,-2.14285 10.3572,-3.57143 10.3572,-3.57143 z"
           id="path3257-6-8"
           inkscape:connector-curvature="0"
           sodipodi:nodetypes="cssssscssacszccccsc" />
        <path
           style="fill:#ff2ad4;stroke:none"
           d="m 3321.0714,601.29075 c 0,0 -17.1428,-3.92857 -16.0714,-13.57143 1.0714,-9.64285 -1.4286,-20.71428 9.6429,-24.28571 11.0714,-3.57143 15.3571,-4.28571 21.7857,-1.42857 6.4285,2.85714 10,14.28571 10,19.28571 0,5 4.2856,4.28572 4.2856,-1.78571 0,-6.07143 -0.3571,-23.57143 4.2858,-22.14286 1.6483,22.35285 8.3242,6.56003 17.8571,5.71429 -2.8467,8.52027 -3.865,9.15467 -1.2193,12.6557 5.9527,5.622 14.7008,-1.05718 13.3622,4.13001 -1.0412,4.03458 -10.0098,2.38011 -10.3571,6.42857 -0.3676,4.28482 1.822,6.01562 9.6428,8.57143 2.1429,0.71429 3.4458,5.3392 -8.9286,3.57143 -5,-0.71429 -9.2857,-3.92857 -20,-0.35714 -10.7142,3.57143 -17.1428,6.42857 -17.1428,6.42857 0,0 0.3571,-4.64286 -5,-5 -5.3572,-0.35714 -12.1429,1.78571 -12.1429,1.78571 z"
           id="path3259-5-1"
           inkscape:connector-curvature="0"
           sodipodi:nodetypes="cssssscccsacsscsc" />
      </g>
      <g
         style="fill:#ff2ad4"
         transform="matrix(1.0163997,0,0,1.0163997,-1211.9362,-10.165936)"
         id="g3087">
        <path
           style="font-size:medium;font-style:normal;font-variant:normal;font-weight:normal;font-stretch:normal;text-indent:0;text-align:start;text-decoration:none;line-height:normal;letter-spacing:normal;word-spacing:normal;text-transform:none;direction:ltr;block-progression:tb;writing-mode:lr-tb;text-anchor:start;baseline-shift:baseline;color:#000000;fill:#ff2ad4;fill-opacity:1;stroke:none;stroke-width:50.71868134;marker:none;visibility:visible;display:inline;overflow:visible;enable-background:accumulate;font-family:Sans;-inkscape-font-specification:Sans"
           d="m 1857.4427,379.31442 a 9.4344041,9.4344041 0 0 0 13.2933,1.14179 c 24.1663,-19.76509 59.4893,-16.22626 79.2544,7.94009 5.23,6.39468 8.9876,13.8617 11.01,21.87139 a 9.4361486,9.4361486 0 1 0 18.2984,-4.61867 c -2.6997,-10.69219 -7.7224,-20.66104 -14.704,-29.19731 -26.2204,-32.05914 -73.7442,-36.8203 -105.8034,-10.59988 a 9.4344041,9.4344041 0 0 0 -1.3487,13.46259 z"
           id="path9306-6"
           inkscape:connector-curvature="0" />
        <path
           style="font-size:medium;font-style:normal;font-variant:normal;font-weight:normal;font-stretch:normal;text-indent:0;text-align:start;text-decoration:none;line-height:normal;letter-spacing:normal;word-spacing:normal;text-transform:none;direction:ltr;block-progression:tb;writing-mode:lr-tb;text-anchor:start;baseline-shift:baseline;color:#000000;fill:#ff2ad4;fill-opacity:1;stroke:none;stroke-width:32.8099823;marker:none;visibility:visible;display:inline;overflow:visible;enable-background:accumulate;font-family:Sans;-inkscape-font-specification:Sans"
           d="m 1837.8228,339.11003 a 9.4344046,9.4344046 0 0 0 13.2958,1.12773 c 39.5111,-32.31523 97.4559,-26.51007 129.7711,13.00109 8.5628,10.46954 14.7096,22.68605 18.0207,35.79977 a 9.4344046,9.4344046 0 1 0 18.2884,-4.60401 c -3.9884,-15.79618 -11.4031,-30.51873 -21.7175,-43.12987 -38.7705,-47.40394 -108.9043,-54.44304 -156.3082,-15.67247 a 9.4344046,9.4344046 0 0 0 -1.3503,13.47776 z"
           id="path9306-1-2"
           inkscape:connector-curvature="0" />
        <path
           style="font-size:medium;font-style:normal;font-variant:normal;font-weight:normal;font-stretch:normal;text-indent:0;text-align:start;text-decoration:none;line-height:normal;letter-spacing:normal;word-spacing:normal;text-transform:none;direction:ltr;block-progression:tb;writing-mode:lr-tb;text-anchor:start;baseline-shift:baseline;color:#000000;fill:#ff2ad4;fill-opacity:1;stroke:none;stroke-width:24.76887131;marker:none;visibility:visible;display:inline;overflow:visible;enable-background:accumulate;font-family:Sans;-inkscape-font-specification:Sans"
           d="m 1822.5274,297.51484 a 9.4344041,9.4344041 0 0 0 13.2845,1.12786 c 53.6194,-43.85409 132.3493,-35.9496 176.2033,17.66983 11.627,14.21607 19.9827,30.80976 24.4788,48.61625 a 9.4349555,9.4349555 0 1 0 18.2932,-4.62922 c -5.1733,-20.48895 -14.7817,-39.57987 -28.1603,-55.93758 -50.3094,-61.51222 -141.2382,-70.62195 -202.7505,-20.31253 a 9.4344041,9.4344041 0 0 0 -1.349,13.46539 z"
           id="path9306-4-8"
           inkscape:connector-curvature="0" />
      </g>
      <g
         id="g3007">
        <path
           id="path3896-12-9-4-0-8-4"
           d="m -360,662.36218 c 0,14.99059 -12.15227,27.14286 -27.14285,27.14286 -14.99059,0 -27.14286,-12.15227 -27.14286,-27.14286 0,-14.99058 12.15227,-27.14285 27.14286,-27.14285 14.99058,0 27.14285,12.15227 27.14285,27.14285 z"
           style="fill:#333333;fill-opacity:1;stroke:none"
           transform="matrix(0.72947349,0,0,0.72947349,1014.4062,164.29557)"
           inkscape:connector-curvature="0" />
        <path
           id="path3896-12-9-4-0-8-4-9-0"
           d="m -360,662.36218 c 0,14.99059 -12.15227,27.14286 -27.14285,27.14286 -14.99059,0 -27.14286,-12.15227 -27.14286,-27.14286 0,-14.99058 12.15227,-27.14285 27.14286,-27.14285 14.99058,0 27.14285,12.15227 27.14285,27.14285 z"
           style="fill:#333333;fill-opacity:1;stroke:none"
           transform="matrix(0.72947349,0,0,0.72947349,1032.765,224.10441)"
           inkscape:connector-curvature="0" />
        <path
           id="path3896-12-9-4-0-8-4-8"
           d="m -360,662.36218 c 0,14.99059 -12.15227,27.14286 -27.14285,27.14286 -14.99059,0 -27.14286,-12.15227 -27.14286,-27.14286 0,-14.99058 12.15227,-27.14285 27.14286,-27.14285 14.99058,0 27.14285,12.15227 27.14285,27.14285 z"
           style="fill:#333333;fill-opacity:1;stroke:none"
           transform="matrix(0.72947349,0,0,0.72947349,1045.065,285.6869)"
           inkscape:connector-curvature="0" />
        <path
           id="path3896-12-9-4-0-8-4-3"
           d="m -360,662.36218 c 0,14.99059 -12.15227,27.14286 -27.14285,27.14286 -14.99059,0 -27.14286,-12.15227 -27.14286,-27.14286 0,-14.99058 12.15227,-27.14285 27.14286,-27.14285 14.99058,0 27.14285,12.15227 27.14285,27.14285 z"
           style="fill:#333333;fill-opacity:1;stroke:none"
           transform="matrix(0.72947349,0,0,0.72947349,1034.7978,347.29002)"
           inkscape:connector-curvature="0" />
      </g>
    </g>
  </g>
</svg>
