<?xml version="1.0" encoding="UTF-8" standalone="no"?>
<!-- Created with Inkscape (http://www.inkscape.org/) -->

<svg
   xmlns:osb="http://www.openswatchbook.org/uri/2009/osb"
   xmlns:dc="http://purl.org/dc/elements/1.1/"
   xmlns:cc="http://creativecommons.org/ns#"
   xmlns:rdf="http://www.w3.org/1999/02/22-rdf-syntax-ns#"
   xmlns:svg="http://www.w3.org/2000/svg"
   xmlns="http://www.w3.org/2000/svg"
   xmlns:xlink="http://www.w3.org/1999/xlink"
   xmlns:sodipodi="http://sodipodi.sourceforge.net/DTD/sodipodi-0.dtd"
   xmlns:inkscape="http://www.inkscape.org/namespaces/inkscape"
   width="290.5625"
   height="194.875"
   id="svg2"
   version="1.1"
   inkscape:version="0.48.4 r9939"
   sodipodi:docname="visitouka.svg"
   inkscape:export-filename="/home/svet/Dropbox/falanster/digital-lab/flyer/visitouka.png"
   inkscape:export-xdpi="300"
   inkscape:export-ydpi="300">
  <defs
     id="defs4">
    <linearGradient
       id="linearGradient3755"
       osb:paint="solid">
      <stop
         style="stop-color:#ffffff;stop-opacity:1;"
         offset="0"
         id="stop3757" />
    </linearGradient>
    <linearGradient
       inkscape:collect="always"
       xlink:href="#linearGradient3755"
       id="linearGradient3759"
       x1="-1026.2142"
       y1="480.16248"
       x2="-735.66302"
       y2="480.16248"
       gradientUnits="userSpaceOnUse"
       gradientTransform="matrix(1.0000779,0,0,0.88699975,0.06862717,66.660053)" />
    <inkscape:path-effect
       effect="spiro"
       id="path-effect8824-6"
       is_visible="true" />
    <inkscape:path-effect
       effect="spiro"
       id="path-effect8824"
       is_visible="true" />
  </defs>
  <sodipodi:namedview
     id="base"
     pagecolor="#ffffff"
     bordercolor="#666666"
     borderopacity="1.0"
     inkscape:pageopacity="0.0"
     inkscape:pageshadow="2"
     inkscape:zoom="1.979899"
     inkscape:cx="269.03878"
     inkscape:cy="50.626274"
     inkscape:document-units="px"
     inkscape:current-layer="layer1"
     showgrid="false"
     fit-margin-top="0"
     fit-margin-left="0"
     fit-margin-right="0"
     fit-margin-bottom="0"
     inkscape:window-width="1301"
     inkscape:window-height="744"
     inkscape:window-x="65"
     inkscape:window-y="24"
     inkscape:window-maximized="1" />
  <metadata
     id="metadata7">
    <rdf:RDF>
      <cc:Work
         rdf:about="">
        <dc:format>image/svg+xml</dc:format>
        <dc:type
           rdf:resource="http://purl.org/dc/dcmitype/StillImage" />
        <dc:title></dc:title>
      </cc:Work>
    </rdf:RDF>
  </metadata>
  <g
     inkscape:label="Layer 1"
     inkscape:groupmode="layer"
     id="layer1"
     transform="translate(1026.2188,-395.125)">
    <rect
       style="fill:url(#linearGradient3759);fill-opacity:1;fill-rule:nonzero;stroke:#000000;stroke-width:0.36607563"
       id="rect2985"
       width="290.18512"
       height="194.51581"
       x="-1026.0312"
       y="395.30615" />
    <g
       style="font-size:36.89054871px;font-style:normal;font-variant:normal;font-weight:bold;font-stretch:normal;line-height:75%;letter-spacing:0px;word-spacing:0px;fill:#333333;fill-opacity:1;stroke:none;font-family:Courier 10 Pitch;-inkscape-font-specification:Ubuntu Mono Bold"
       id="text4072"
       transform="translate(-2,-12)">
      <path
         d="m -999.4675,523.26949 c -0.0492,1.05754 -0.11068,2.12737 -0.18445,3.20948 -0.0492,1.05754 -0.15987,2.09047 -0.33201,3.09881 -0.14754,1.00834 -0.38124,1.9552 -0.70094,2.84057 -0.3197,0.88538 -0.7624,1.67237 -1.328,2.36099 -0.5411,0.66404 -1.2297,1.2051 -2.0659,1.62319 -0.8116,0.41809 -1.8077,0.66403 -2.9881,0.73781 l -0.6272,-3.76284 c 0.8608,-0.19674 1.5002,-0.50416 1.9183,-0.92226 0.4181,-0.41809 0.7624,-0.88537 1.033,-1.40184 0.2951,-0.59024 0.5164,-1.26657 0.664,-2.02898 0.1721,-0.78699 0.2951,-1.61088 0.3689,-2.47167 0.098,-0.86077 0.1475,-1.72155 0.1476,-2.58234 0.025,-0.88536 0.037,-1.70924 0.037,-2.47166 l 0,-1.99209 11.36233,0 0,17.33855 -4.53754,0 0,-13.57572 -2.76679,0"
         style="line-height:75%;fill:#333333;font-family:Ubuntu Mono;-inkscape-font-specification:Ubuntu Mono Bold"
         id="path4621"
         inkscape:connector-curvature="0" />
      <path
         d="m -979.39904,514.52643 c -10e-6,0.8854 -0.28284,1.58632 -0.84848,2.10276 -0.56566,0.51649 -1.24199,0.77473 -2.02898,0.77471 -0.78701,2e-5 -1.46333,-0.25822 -2.02898,-0.77471 -0.54107,-0.51644 -0.8116,-1.21736 -0.81159,-2.10276 -10e-6,-0.90994 0.27052,-1.62316 0.81159,-2.13965 0.56565,-0.51644 1.24197,-0.77468 2.02898,-0.7747 0.78699,2e-5 1.46332,0.25826 2.02898,0.7747 0.56564,0.51649 0.84847,1.22971 0.84848,2.13965 m 6.75097,21.58097 c -0.93457,0.44269 -1.81995,0.73781 -2.65612,0.88538 -0.8116,0.17215 -1.56171,0.25823 -2.25032,0.25823 -1.18051,0 -2.17655,-0.17216 -2.98813,-0.51647 -0.78701,-0.34431 -1.42645,-0.83618 -1.91831,-1.47562 -0.46729,-0.66403 -0.79931,-1.46332 -0.99605,-2.39788 -0.19675,-0.93456 -0.29513,-2.00438 -0.29512,-3.20948 l 0,-6.38207 -4.79577,0 0,-3.76283 9.3333,0 0,10.73515 c -10e-6,1.03294 0.18445,1.80764 0.55336,2.3241 0.39349,0.49188 1.03293,0.73782 1.91831,0.73781 0.41808,10e-6 0.92225,-0.0492 1.51251,-0.14756 0.59024,-0.12296 1.25427,-0.3566 1.99209,-0.70092 l 0.59025,3.65216"
         style="line-height:75%;fill:#333333;font-family:Ubuntu Mono;-inkscape-font-specification:Ubuntu Mono Bold"
         id="path4623"
         inkscape:connector-curvature="0" />
      <path
         d="m -965.30685,519.50666 0,5.49669 c 0,0.46729 0.0984,0.84849 0.29513,1.14361 0.19674,0.29513 0.45497,0.52877 0.7747,0.70092 0.3443,0.17216 0.71321,0.29513 1.10671,0.3689 0.41809,0.0492 0.83618,0.0738 1.25428,0.0738 0.39349,10e-6 0.7624,-0.0123 1.10672,-0.0369 0.3443,-0.0246 0.65172,-0.0615 0.92226,-0.11067 l 0,-7.63634 4.57443,0 0,17.33855 -4.57443,0 0,-5.68114 c -1.03294,0.14757 -2.02899,0.22135 -2.98813,0.22134 -0.95916,1e-5 -1.86913,-0.0861 -2.7299,-0.25823 -0.83619,-0.19674 -1.574,-0.52876 -2.21343,-0.99605 -0.63944,-0.49186 -1.14361,-1.1313 -1.51252,-1.9183 -0.3689,-0.81159 -0.55336,-1.83222 -0.55336,-3.06192 l 0,-5.64425 4.53754,0"
         style="line-height:75%;fill:#333333;font-family:Ubuntu Mono;-inkscape-font-specification:Ubuntu Mono Bold"
         id="path4625"
         inkscape:connector-curvature="0" />
      <path
         d="m -936.2371,515.33802 c -1.08213,0.22137 -2.18885,0.38123 -3.32015,0.47958 -1.10672,0.0984 -2.13966,0.30744 -3.0988,0.62714 -0.95916,0.29515 -1.78305,0.79932 -2.47167,1.51251 -0.66404,0.68865 -1.08213,1.74617 -1.25428,3.17259 1.25427,-0.68861 2.49625,-1.03292 3.72595,-1.03293 0.93455,10e-6 1.80762,0.18447 2.61923,0.55335 0.81158,0.34433 1.5125,0.8731 2.10276,1.5863 0.61483,0.68864 1.0944,1.56171 1.43873,2.61923 0.3443,1.03294 0.51645,2.23803 0.51647,3.61527 -2e-5,1.47563 -0.20907,2.7668 -0.62714,3.87351 -0.39352,1.10672 -0.93458,2.02898 -1.62319,2.76679 -0.66404,0.73781 -1.46333,1.29117 -2.39788,1.66007 -0.90998,0.36891 -1.88143,0.55336 -2.91435,0.55336 -2.85288,0 -4.89416,-0.92226 -6.12384,-2.76679 -1.22968,-1.84452 -1.84452,-4.58672 -1.84452,-8.22659 0,-2.38558 0.22134,-4.40226 0.66403,-6.05005 0.44268,-1.64776 1.09441,-3.02501 1.9552,-4.13174 0.86077,-1.1067 1.94289,-1.97977 3.24636,-2.61923 1.30346,-0.63941 2.80368,-1.14358 4.50065,-1.51251 0.7378,-0.14754 1.45102,-0.25821 2.13965,-0.33202 0.71321,-0.0983 1.45102,-0.23361 2.21344,-0.4058 l 0.55335,4.05796 m -10.21868,9.776 c -0.0492,0.27054 -0.0861,0.60256 -0.11067,0.99605 -10e-6,0.36891 -10e-6,0.77471 0,1.21738 -10e-6,0.63945 0.0369,1.31577 0.11067,2.02898 0.0738,0.68863 0.22134,1.32807 0.44269,1.91831 0.22133,0.56566 0.52876,1.03294 0.92226,1.40184 0.41809,0.36891 0.94685,0.55336 1.5863,0.55336 0.41808,0 0.78698,-0.12296 1.10671,-0.3689 0.31971,-0.27053 0.59024,-0.61484 0.81159,-1.03294 0.22134,-0.41809 0.3812,-0.89766 0.47958,-1.43873 0.12296,-0.56565 0.18444,-1.1313 0.18445,-1.69697 -10e-6,-1.30345 -0.23365,-2.37328 -0.70092,-3.20947 -0.44269,-0.86077 -1.14361,-1.29116 -2.10276,-1.29117 -0.83619,10e-6 -1.74616,0.30743 -2.7299,0.92226"
         style="line-height:75%;fill:#333333;font-family:Ubuntu Mono;-inkscape-font-specification:Ubuntu Mono Bold"
         id="path4627"
         inkscape:connector-curvature="0" />
      <path
         d="m -925.2806,533.59885 c 0.49186,0 0.97144,0 1.43873,0 0.46727,-0.0246 0.87306,-0.0615 1.21739,-0.11068 l 0,-3.98417 c -0.29514,-0.0492 -0.65175,-0.0861 -1.06983,-0.11068 -0.4181,-0.0492 -0.7993,-0.0738 -1.14361,-0.0738 -0.46729,10e-6 -0.92227,0.0369 -1.36495,0.11067 -0.44269,0.0492 -0.83619,0.14757 -1.18049,0.29513 -0.31973,0.14757 -0.57796,0.35661 -0.77471,0.62714 -0.19675,0.27054 -0.29513,0.62714 -0.29512,1.06982 -1e-5,0.78701 0.29512,1.35266 0.88537,1.69697 0.59024,0.31972 1.35265,0.47958 2.28722,0.47958 m -0.4058,-14.53488 c 1.42643,2e-5 2.60692,0.17217 3.54149,0.51647 0.95914,0.31973 1.72155,0.78701 2.28722,1.40184 0.56564,0.59026 0.97143,1.32807 1.21739,2.21343 0.24592,0.86079 0.36889,1.83224 0.3689,2.91436 l 0,10.32935 c -0.66404,0.14756 -1.64779,0.31972 -2.95124,0.51647 -1.30348,0.19675 -2.7668,0.29512 -4.38998,0.29512 -1.10672,0 -2.11506,-0.0984 -3.02502,-0.29512 -0.88538,-0.19675 -1.64778,-0.51647 -2.28722,-0.95916 -0.63944,-0.46728 -1.13131,-1.05752 -1.47562,-1.77074 -0.34431,-0.73781 -0.51647,-1.63548 -0.51647,-2.69301 0,-1.00834 0.19675,-1.85682 0.59025,-2.54545 0.3935,-0.68862 0.92226,-1.24197 1.5863,-1.66008 0.66402,-0.41808 1.42643,-0.7132 2.28721,-0.88537 0.86077,-0.19674 1.75844,-0.29511 2.69301,-0.29512 1.18049,10e-6 2.22572,0.0984 3.1357,0.29512 l 0,-0.55336 c -2e-5,-0.86077 -0.27055,-1.57398 -0.8116,-2.13965 -0.54107,-0.59024 -1.47563,-0.88536 -2.80368,-0.88537 -0.86078,10e-6 -1.69697,0.0615 -2.50855,0.18445 -0.78701,0.12298 -1.42644,0.27054 -1.91831,0.44269 l -0.62714,-3.65217 c 0.56565,-0.19673 1.36494,-0.36889 2.39788,-0.51647 1.03293,-0.17213 2.10276,-0.25821 3.20948,-0.25823"
         style="line-height:75%;fill:#333333;font-family:Ubuntu Mono;-inkscape-font-specification:Ubuntu Mono Bold"
         id="path4629"
         inkscape:connector-curvature="0" />
      <path
         d="m -909.04876,533.30372 c 0.24593,0.0492 0.63943,0.0861 1.1805,0.11067 0.54105,10e-6 0.99603,10e-6 1.36495,0 0.93455,10e-6 1.66006,-0.13526 2.17654,-0.40579 0.51645,-0.29512 0.77469,-0.81159 0.7747,-1.54941 -1e-5,-1.30345 -0.92228,-1.95519 -2.76679,-1.95519 l -2.7299,0 0,3.79972 m 2.65612,-6.89853 c 0.63942,1e-5 1.15589,-0.12296 1.5494,-0.36891 0.41808,-0.24592 0.62713,-0.7132 0.62714,-1.40184 -10e-6,-0.66401 -0.23365,-1.119 -0.70092,-1.36495 -0.46729,-0.27051 -1.08213,-0.40578 -1.84453,-0.40579 -0.27054,10e-6 -0.66404,0.0246 -1.18049,0.0738 -0.49189,0.0246 -0.86079,0.0615 -1.10672,0.11067 l 0,3.35704 2.65612,0 m -0.51647,10.77204 c -0.56566,0 -1.15591,-0.0246 -1.77075,-0.0738 -0.61485,-0.0492 -1.22969,-0.11067 -1.84452,-0.18445 -0.59026,-0.0738 -1.15591,-0.15986 -1.69697,-0.25824 -0.51647,-0.0984 -0.97145,-0.19675 -1.36495,-0.29512 l 0,-16.60075 c 0.3935,-0.0738 0.84848,-0.14754 1.36495,-0.22134 0.54106,-0.0984 1.10671,-0.17214 1.69697,-0.22135 0.61483,-0.0492 1.22967,-0.0861 1.84452,-0.11067 0.61484,-0.0492 1.20509,-0.0738 1.77075,-0.0738 1.25427,2e-5 2.33639,0.13528 3.24637,0.4058 0.90995,0.24595 1.64776,0.59026 2.21343,1.03293 0.59024,0.41811 1.02062,0.92228 1.29117,1.51252 0.27052,0.56566 0.40578,1.18051 0.4058,1.84452 -2e-5,0.86079 -0.19677,1.58631 -0.59025,2.17655 -0.39352,0.59025 -0.87309,1.03294 -1.43873,1.32805 0.29511,0.14758 0.60253,0.34433 0.92226,0.59025 0.3443,0.22136 0.63942,0.50418 0.88537,0.84849 0.27052,0.34432 0.49186,0.75011 0.66403,1.21738 0.17214,0.46729 0.24592,1.00835 0.22135,1.62319 -0.0492,1.59859 -0.71324,2.91435 -1.99209,3.94729 -1.27889,1.00834 -3.22179,1.51251 -5.82871,1.51251"
         style="line-height:75%;fill:#333333;font-family:Ubuntu Mono;-inkscape-font-specification:Ubuntu Mono Bold"
         id="path4631"
         inkscape:connector-curvature="0" />
      <path
         d="m -888.39005,533.59885 c 0.49186,0 0.97144,0 1.43873,0 0.46727,-0.0246 0.87306,-0.0615 1.21739,-0.11068 l 0,-3.98417 c -0.29514,-0.0492 -0.65175,-0.0861 -1.06983,-0.11068 -0.4181,-0.0492 -0.79931,-0.0738 -1.14361,-0.0738 -0.46729,10e-6 -0.92227,0.0369 -1.36495,0.11067 -0.44269,0.0492 -0.83619,0.14757 -1.1805,0.29513 -0.31972,0.14757 -0.57795,0.35661 -0.7747,0.62714 -0.19675,0.27054 -0.29513,0.62714 -0.29512,1.06982 -10e-6,0.78701 0.29512,1.35266 0.88537,1.69697 0.59024,0.31972 1.35265,0.47958 2.28722,0.47958 m -0.4058,-14.53488 c 1.42642,2e-5 2.60692,0.17217 3.54149,0.51647 0.95914,0.31973 1.72155,0.78701 2.28722,1.40184 0.56564,0.59026 0.97143,1.32807 1.21738,2.21343 0.24593,0.86079 0.36889,1.83224 0.36891,2.91436 l 0,10.32935 c -0.66405,0.14756 -1.64779,0.31972 -2.95124,0.51647 -1.30348,0.19675 -2.76681,0.29512 -4.38998,0.29512 -1.10672,0 -2.11506,-0.0984 -3.02502,-0.29512 -0.88538,-0.19675 -1.64779,-0.51647 -2.28722,-0.95916 -0.63944,-0.46728 -1.13131,-1.05752 -1.47562,-1.77074 -0.34431,-0.73781 -0.51647,-1.63548 -0.51647,-2.69301 0,-1.00834 0.19675,-1.85682 0.59025,-2.54545 0.3935,-0.68862 0.92226,-1.24197 1.58629,-1.66008 0.66403,-0.41808 1.42643,-0.7132 2.28722,-0.88537 0.86077,-0.19674 1.75844,-0.29511 2.69301,-0.29512 1.18049,10e-6 2.22572,0.0984 3.1357,0.29512 l 0,-0.55336 c -2e-5,-0.86077 -0.27055,-1.57398 -0.8116,-2.13965 -0.54107,-0.59024 -1.47563,-0.88536 -2.80368,-0.88537 -0.86079,10e-6 -1.69697,0.0615 -2.50856,0.18445 -0.787,0.12298 -1.42643,0.27054 -1.9183,0.44269 l -0.62714,-3.65217 c 0.56565,-0.19673 1.36494,-0.36889 2.39788,-0.51647 1.03293,-0.17213 2.10276,-0.25821 3.20948,-0.25823"
         style="line-height:75%;fill:#333333;font-family:Ubuntu Mono;-inkscape-font-specification:Ubuntu Mono Bold"
         id="path4633"
         inkscape:connector-curvature="0" />
      <path
         d="m -870.31369,530.68449 c -0.68863,1.03294 -1.31577,2.04128 -1.88142,3.02503 -0.56566,0.98375 -1.09443,2.02898 -1.58629,3.13569 l -4.6851,0 c 0.63943,-1.42643 1.30346,-2.76678 1.99209,-4.02106 0.71321,-1.25428 1.37724,-2.31181 1.99209,-3.17259 -1.08213,-0.54106 -1.83224,-1.16819 -2.25033,-1.88142 -0.3935,-0.7378 -0.59025,-1.61088 -0.59025,-2.61923 0,-1.91829 0.66403,-3.39391 1.99209,-4.42686 1.35265,-1.05752 3.30785,-1.58628 5.8656,-1.5863 0.59024,2e-5 1.20508,0.0246 1.84453,0.0738 0.63942,0.0492 1.26656,0.12299 1.88142,0.22135 0.63942,0.0738 1.24196,0.17217 1.80763,0.29512 0.59023,0.0984 1.09441,0.19677 1.51251,0.29512 l 0,16.82209 -4.53753,0 0,-6.16072 -3.35704,0 m 3.35704,-7.63634 c -0.24595,-0.0246 -0.61486,-0.0492 -1.10672,-0.0738 -0.49188,-0.0492 -0.90998,-0.0738 -1.25428,-0.0738 -1.32807,10e-6 -2.23803,0.20906 -2.7299,0.62714 -0.49188,0.39351 -0.73782,0.90998 -0.73781,1.5494 -10e-6,0.4181 0.0984,0.76242 0.29512,1.03294 0.19675,0.27054 0.44268,0.49188 0.73782,0.66403 0.31971,0.17216 0.67631,0.29513 1.06982,0.3689 0.39349,0.0738 0.78699,0.11068 1.1805,0.11067 l 2.54545,0 0,-4.20552"
         style="line-height:75%;fill:#333333;font-family:Ubuntu Mono;-inkscape-font-specification:Ubuntu Mono Bold"
         id="path4635"
         inkscape:connector-curvature="0" />
      <path
         d="m -1002.345,547.17457 c 0.1722,0.51648 0.3812,1.14362 0.6272,1.88142 0.2705,0.73782 0.5533,1.53712 0.8485,2.39788 0.2951,0.8362 0.5902,1.69698 0.88534,2.58234 0.31971,0.88538 0.61483,1.74616 0.88537,2.58234 0.27052,-0.81158 0.55335,-1.66007 0.84848,-2.54545 0.31971,-0.88536 0.62713,-1.74614 0.92227,-2.58234 0.29511,-0.86076 0.56564,-1.66006 0.81159,-2.39788 0.27052,-0.76239 0.50416,-1.40183 0.70092,-1.91831 l 3.76283,0 c 0.17214,1.52482 0.332,3.01274 0.47958,4.46375 0.17214,1.42645 0.30741,2.85288 0.4058,4.27931 0.12295,1.40185 0.22132,2.81598 0.29512,4.24241 0.0738,1.40185 0.13525,2.85287 0.18445,4.35309 l -4.16863,0 0.22135,-12.24767 -2.7668,8.66928 -3.32017,0 -2.7299,-8.66928 0.1845,12.24767 -4.1687,0 c 0.074,-1.42644 0.1476,-2.90206 0.2214,-4.42687 0.098,-1.5248 0.1967,-3.03731 0.2951,-4.53754 0.098,-1.5248 0.2091,-3.00042 0.332,-4.42686 0.1476,-1.42642 0.3074,-2.74218 0.4796,-3.94729 l 3.7628,0"
         style="line-height:75%;fill:#333333;font-family:Ubuntu Mono;-inkscape-font-specification:Ubuntu Mono Bold"
         id="path4637"
         inkscape:connector-curvature="0" />
      <path
         d="m -980.61643,561.26676 c 0.49187,0 0.97144,0 1.43874,0 0.46726,-0.0246 0.87306,-0.0615 1.21738,-0.11067 l 0,-3.98418 c -0.29513,-0.0492 -0.65174,-0.0861 -1.06982,-0.11067 -0.41811,-0.0492 -0.79931,-0.0738 -1.14361,-0.0738 -0.46729,10e-6 -0.92227,0.0369 -1.36495,0.11068 -0.44269,0.0492 -0.83619,0.14757 -1.1805,0.29512 -0.31972,0.14757 -0.57796,0.35662 -0.7747,0.62714 -0.19675,0.27054 -0.29513,0.62714 -0.29512,1.06983 -1e-5,0.787 0.29511,1.35265 0.88537,1.69696 0.59024,0.31972 1.35265,0.47958 2.28721,0.47958 m -0.40579,-14.53488 c 1.42642,2e-5 2.60692,0.17218 3.54149,0.51647 0.95914,0.31973 1.72155,0.78701 2.28721,1.40184 0.56564,0.59026 0.97144,1.32807 1.21739,2.21343 0.24592,0.8608 0.36889,1.83225 0.36891,2.91436 l 0,10.32935 c -0.66405,0.14756 -1.64779,0.31972 -2.95125,0.51647 -1.30347,0.19675 -2.7668,0.29512 -4.38997,0.29512 -1.10673,0 -2.11507,-0.0984 -3.02503,-0.29512 -0.88537,-0.19675 -1.64778,-0.51647 -2.28721,-0.95916 -0.63944,-0.46728 -1.13131,-1.05752 -1.47562,-1.77074 -0.34432,-0.73781 -0.51647,-1.63548 -0.51647,-2.69301 0,-1.00834 0.19675,-1.85682 0.59025,-2.54545 0.3935,-0.68862 0.92226,-1.24197 1.58629,-1.66008 0.66403,-0.41808 1.42643,-0.7132 2.28722,-0.88537 0.86077,-0.19674 1.75844,-0.29511 2.69301,-0.29512 1.18048,1e-5 2.22572,0.0984 3.13569,0.29512 l 0,-0.55336 c -10e-6,-0.86076 -0.27054,-1.57398 -0.81159,-2.13965 -0.54107,-0.59023 -1.47563,-0.88536 -2.80368,-0.88537 -0.86079,10e-6 -1.69697,0.0615 -2.50856,0.18445 -0.787,0.12298 -1.42644,0.27055 -1.91831,0.44269 l -0.62714,-3.65217 c 0.56566,-0.19673 1.36495,-0.36888 2.39789,-0.51646 1.03293,-0.17214 2.10275,-0.25822 3.20948,-0.25824"
         style="line-height:75%;fill:#333333;font-family:Ubuntu Mono;-inkscape-font-specification:Ubuntu Mono Bold"
         id="path4639"
         inkscape:connector-curvature="0" />
      <path
         d="m -969.10657,564.51313 0,-17.33856 4.05796,0 0,9.84977 c 0.78699,-1.57398 1.66006,-3.14798 2.61922,-4.72199 0.95915,-1.59857 2.12735,-3.30783 3.50461,-5.12778 l 3.65216,0 0,17.33856 -4.09485,0 0,-10.62448 c -0.56567,0.86079 -1.10673,1.69697 -1.62318,2.50856 -0.49189,0.8116 -0.98376,1.63548 -1.47563,2.47166 -0.46728,0.83619 -0.95916,1.72157 -1.47562,2.65612 -0.49188,0.90997 -1.00835,1.90601 -1.5494,2.98814 l -3.61527,0 m 6.89853,-19.69956 c -0.68863,2e-5 -1.36496,-0.0983 -2.02898,-0.29512 -0.66404,-0.22132 -1.25429,-0.52875 -1.77075,-0.92226 -0.51647,-0.41808 -0.94686,-0.92225 -1.29117,-1.51252 -0.34431,-0.59022 -0.54106,-1.25425 -0.59025,-1.99209 l 3.39393,-0.88537 c 0.14756,0.8608 0.43039,1.46335 0.84849,1.80764 0.41808,0.34433 0.89766,0.51649 1.43873,0.51646 0.56564,3e-5 1.05752,-0.15983 1.47562,-0.47957 0.41808,-0.34429 0.70091,-0.94684 0.84848,-1.80764 l 3.39393,0.88537 c -0.0738,0.73784 -0.28284,1.40187 -0.62714,1.99209 -0.34432,0.59027 -0.77471,1.08215 -1.29117,1.47563 -0.51648,0.39351 -1.10672,0.70094 -1.77074,0.92226 -0.66404,0.19677 -1.34037,0.29514 -2.02898,0.29512"
         style="line-height:75%;fill:#333333;font-family:Ubuntu Mono;-inkscape-font-specification:Ubuntu Mono Bold"
         id="path4641"
         inkscape:connector-curvature="0" />
      <path
         d="m -951.36222,555.84385 c 0,-1.25427 0.19675,-2.43477 0.59025,-3.5415 0.39349,-1.1067 0.99604,-2.06585 1.80763,-2.87746 0.81159,-0.83617 1.83223,-1.4879 3.06192,-1.9552 1.25427,-0.49185 2.74219,-0.73779 4.46376,-0.73781 1.03292,2e-5 1.96748,0.0738 2.80368,0.22135 0.83617,0.14757 1.68465,0.39351 2.54545,0.73781 l -0.99605,3.65216 c -0.49189,-0.17214 -1.04525,-0.3197 -1.66007,-0.44269 -0.59027,-0.14754 -1.35267,-0.22133 -2.28722,-0.22134 -1.08213,10e-6 -1.9921,0.13528 -2.7299,0.4058 -0.71322,0.24595 -1.29117,0.60256 -1.73385,1.06982 -0.4427,0.4427 -0.76241,0.98376 -0.95916,1.62319 -0.19675,0.63944 -0.29513,1.32807 -0.29512,2.06587 -10e-6,1.59859 0.44268,2.85287 1.32806,3.76283 0.90996,0.90997 2.44706,1.36496 4.61132,1.36495 0.7132,10e-6 1.45101,-0.0492 2.21343,-0.14756 0.78698,-0.0984 1.5002,-0.25823 2.13965,-0.47958 l 0.66403,3.72595 c -0.63945,0.24594 -1.41415,0.44269 -2.3241,0.59025 -0.90998,0.17215 -1.97981,0.25823 -3.20948,0.25823 -1.77076,0 -3.29557,-0.23364 -4.57443,-0.70092 -1.25428,-0.46728 -2.28722,-1.10671 -3.09881,-1.91831 -0.81159,-0.81159 -1.41414,-1.77074 -1.80763,-2.87746 -0.36891,-1.10671 -0.55336,-2.2995 -0.55336,-3.57838"
         style="line-height:75%;fill:#333333;font-family:Ubuntu Mono;-inkscape-font-specification:Ubuntu Mono Bold"
         id="path4643"
         inkscape:connector-curvature="0" />
      <path
         d="m -917.45981,550.9374 -5.57047,0 0,13.57573 -4.57443,0 0,-13.57573 -5.53358,0 0,-3.76283 15.67848,0 0,3.76283"
         style="line-height:75%;fill:#333333;font-family:Ubuntu Mono;-inkscape-font-specification:Ubuntu Mono Bold"
         id="path4645"
         inkscape:connector-curvature="0" />
      <path
         d="m -899.16209,555.73318 c -2e-5,1.47563 -0.23366,2.79139 -0.70092,3.94728 -0.4673,1.13132 -1.11903,2.09047 -1.9552,2.87747 -0.81161,0.7624 -1.79536,1.35265 -2.95125,1.77074 -1.15591,0.3935 -2.42249,0.59025 -3.79972,0.59025 -1.18051,0 -2.28722,-0.0861 -3.32015,-0.25823 -1.03294,-0.14756 -2.13966,-0.43039 -3.32015,-0.84848 l 0.92226,-3.72595 c 0.71322,0.22135 1.47562,0.43039 2.28721,0.62714 0.81159,0.17216 1.64778,0.25824 2.50856,0.25823 0.61484,10e-6 1.22968,-0.0615 1.84453,-0.18445 0.61483,-0.12296 1.18049,-0.31971 1.69696,-0.59025 0.54106,-0.29512 0.99604,-0.65173 1.36495,-1.06982 0.3689,-0.44268 0.62713,-0.98375 0.77471,-1.62319 l -7.19366,0 0,-3.43082 7.15677,0 c -0.34433,-1.22967 -1.02065,-2.10275 -2.02898,-2.61923 -1.00836,-0.51645 -2.13966,-0.77469 -3.39393,-0.7747 -0.90998,10e-6 -1.69698,0.0615 -2.361,0.18445 -0.66403,0.0984 -1.37725,0.28284 -2.13965,0.55336 l -0.95916,-3.68905 c 1.08212,-0.3443 2.12736,-0.59023 3.1357,-0.73781 1.00834,-0.17214 1.97979,-0.25822 2.91435,-0.25824 1.40184,2e-5 2.68071,0.20907 3.83662,0.62714 1.18049,0.39352 2.18883,0.98377 3.02503,1.77075 0.83617,0.76242 1.4879,1.70927 1.9552,2.84057 0.46726,1.10673 0.7009,2.36101 0.70092,3.76284"
         style="line-height:75%;fill:#333333;font-family:Ubuntu Mono;-inkscape-font-specification:Ubuntu Mono Bold"
         id="path4647"
         inkscape:connector-curvature="0" />
      <path
         d="m -884.95923,555.99141 c -2e-5,-1.54939 -0.30744,-2.81597 -0.92227,-3.79973 -0.61485,-1.00833 -1.54941,-1.5125 -2.80368,-1.51251 -0.34432,10e-6 -0.71322,0.0246 -1.10672,0.0738 -0.3935,0.0246 -0.72552,0.0492 -0.99604,0.0738 l 0,9.51776 c 0.29512,0.19676 0.68862,0.35662 1.1805,0.47958 0.49186,0.12297 0.98374,0.18446 1.47562,0.18445 1.08211,10e-6 1.88141,-0.43038 2.39789,-1.29116 0.51645,-0.88537 0.77468,-2.12735 0.7747,-3.72595 m 4.61132,-0.14756 c -2e-5,1.32806 -0.14758,2.55775 -0.44269,3.68905 -0.29514,1.10672 -0.72553,2.06588 -1.29117,2.87747 -0.56567,0.78699 -1.27889,1.40184 -2.13965,1.84452 -0.86079,0.44269 -1.85684,0.66403 -2.98814,0.66403 -1.15591,0 -2.3487,-0.28283 -3.57838,-0.84848 l 0,6.52963 -4.53754,0 0,-22.87214 c 0.83619,-0.27052 1.85682,-0.49186 3.06192,-0.66403 1.22968,-0.17214 2.43477,-0.25822 3.61527,-0.25824 2.6807,2e-5 4.73428,0.81161 6.16072,2.43478 1.42642,1.6232 2.13964,3.82433 2.13966,6.60341"
         style="line-height:75%;fill:#333333;font-family:Ubuntu Mono;-inkscape-font-specification:Ubuntu Mono Bold"
         id="path4649"
         inkscape:connector-curvature="0" />
      <path
         d="m -862.97247,564.51313 -4.53754,0 0,-6.86165 -4.98023,0 0,6.86165 -4.53753,0 0,-17.33856 4.53753,0 0,6.71408 4.98023,0 0,-6.71408 4.53754,0 0,17.33856"
         style="line-height:75%;fill:#333333;font-family:Ubuntu Mono;-inkscape-font-specification:Ubuntu Mono Bold"
         id="path4651"
         inkscape:connector-curvature="0" />
      <path
         d="m -851.86841,558.3524 c -0.68863,1.03295 -1.31577,2.04129 -1.88142,3.02503 -0.56566,0.98375 -1.09442,2.02898 -1.58629,3.1357 l -4.6851,0 c 0.63943,-1.42644 1.30346,-2.76679 1.99209,-4.02107 0.71321,-1.25428 1.37724,-2.3118 1.99209,-3.17259 -1.08213,-0.54105 -1.83224,-1.16819 -2.25033,-1.88142 -0.3935,-0.7378 -0.59025,-1.61088 -0.59025,-2.61923 0,-1.91829 0.66403,-3.39391 1.99209,-4.42686 1.35265,-1.05752 3.30785,-1.58628 5.8656,-1.5863 0.59024,2e-5 1.20508,0.0246 1.84453,0.0738 0.63942,0.0492 1.26656,0.12299 1.88142,0.22135 0.63942,0.0738 1.24196,0.17217 1.80763,0.29512 0.59024,0.0984 1.09441,0.19677 1.51252,0.29513 l 0,16.82209 -4.53754,0 0,-6.16073 -3.35704,0 m 3.35704,-7.63634 c -0.24595,-0.0246 -0.61486,-0.0492 -1.10672,-0.0738 -0.49188,-0.0492 -0.90997,-0.0738 -1.25428,-0.0738 -1.32806,10e-6 -2.23803,0.20906 -2.7299,0.62714 -0.49188,0.39351 -0.73781,0.90998 -0.73781,1.5494 0,0.41811 0.0984,0.76242 0.29513,1.03294 0.19674,0.27054 0.44268,0.49188 0.73781,0.66403 0.31971,0.17216 0.67632,0.29513 1.06982,0.3689 0.39349,0.0738 0.78699,0.11068 1.1805,0.11067 l 2.54545,0 0,-4.20552"
         style="line-height:75%;fill:#333333;font-family:Ubuntu Mono;-inkscape-font-specification:Ubuntu Mono Bold"
         id="path4653"
         inkscape:connector-curvature="0" />
    </g>
    <g
       id="g4571"
       transform="matrix(0.96755451,0,0,0.96755451,-22.332714,6.537949)">
      <path
         id="rect3855-6-6-5-6-8-6-2"
         d="m -941.48297,-22.044172 7.41326,0 0,40.895927 -7.41326,0 z"
         style="fill:#333333;fill-opacity:1;stroke:none"
         transform="matrix(0.84155565,-0.54017043,0.58387785,0.81184152,0,0)"
         inkscape:connector-curvature="0" />
      <path
         id="rect3855-89-9-0-5-6-8-5"
         d="m -584.17096,758.82666 7.41326,0 0,40.89593 -7.41326,0 z"
         style="fill:#333333;fill-opacity:1;stroke:none"
         transform="matrix(0.92007027,0.39175336,-0.34259626,0.93948273,0,0)"
         inkscape:connector-curvature="0" />
      <g
         transform="matrix(0.11774216,0.03816558,-0.03816558,0.11774216,-1408.0792,186.32085)"
         id="g7396">
        <rect
           style="fill:#333333;fill-opacity:1;stroke:none"
           id="rect2985-79-1-9-3-2"
           width="158.50073"
           height="329.8526"
           x="5174.084"
           y="289.33029"
           ry="74.103355"
           rx="94.724609" />
        <rect
           style="fill:#333333;fill-opacity:1;stroke:none"
           id="rect2985-79-4-5-5-7-5"
           width="158.50073"
           height="297.2981"
           x="-636.01031"
           y="5172.687"
           ry="74.103355"
           rx="94.724609"
           transform="matrix(0,-1,1,0,0,0)" />
        <rect
           style="fill:#333333;fill-opacity:1;stroke:none"
           id="rect2985-79-7-0-7-2-4"
           width="158.50073"
           height="272.45163"
           x="5564.6387"
           y="414.87592"
           ry="74.103355"
           rx="94.724609" />
        <rect
           style="fill:#333333;fill-opacity:1;stroke:none"
           id="rect2985-79-5-8-8-2-7"
           width="158.50073"
           height="610.30853"
           x="5375.0239"
           y="294.18884"
           ry="74.103355"
           rx="94.724609" />
        <path
           style="fill:#333333;fill-opacity:1;stroke:none"
           d="m 5662.2445,418.2847 c 0,11.68831 -8.6269,21.16356 -19.2683,21.16356 -10.6418,0 -19.2685,-9.47525 -19.2685,-21.16356 0,-11.68833 8.3015,-13.89848 19.2685,-36.9573 10.4483,22.74295 19.2683,25.26897 19.2683,36.9573 z"
           id="path4099-90-1-7-8"
           inkscape:connector-curvature="0"
           sodipodi:nodetypes="ssscs" />
        <path
           style="fill:#333333;fill-opacity:1;stroke:none"
           d="m 5712.781,459.78396 c -8.3533,8.17548 -21.1593,8.63756 -28.6025,1.03243 -7.4435,-7.60543 -6.7057,-20.39823 1.6476,-28.57371 8.3535,-8.17546 15.7396,-3.78849 39.8899,-12.07929 -8.9455,23.37489 -4.5816,31.44511 -12.935,39.62057 z"
           id="path4099-4-2-4-7-7"
           inkscape:connector-curvature="0"
           sodipodi:nodetypes="ssscs" />
        <path
           style="fill:#333333;fill-opacity:1;stroke:none"
           d="m 5595.8181,436.20373 c 9.3115,7.06481 11.6456,19.66463 5.2136,28.14217 -6.4321,8.47785 -19.1949,9.62319 -28.5065,2.55839 -9.3116,-7.06482 -6.0546,-15.01414 -17.7957,-37.68858 24.4336,5.42283 31.7771,-0.0767 41.0886,6.98802 z"
           id="path4099-8-7-9-1-0"
           inkscape:connector-curvature="0"
           sodipodi:nodetypes="ssscs" />
        <path
           style="fill:#333333;fill-opacity:1;stroke:none"
           d="m 5718.8389,534.874 c -11.6883,0 -21.1636,-8.6269 -21.1636,-19.26829 0,-10.6418 9.4753,-19.26849 21.1636,-19.26849 11.6883,0 13.8982,8.3015 36.9572,19.26849 -22.743,10.44837 -25.2689,19.26829 -36.9572,19.26829 z"
           id="path4099-1-5-8-3-3"
           inkscape:connector-curvature="0"
           sodipodi:nodetypes="ssscs" />
        <path
           style="fill:#333333;fill-opacity:1;stroke:none"
           d="m 5270.3058,296.18825 c 0,11.6883 -8.6269,21.16356 -19.2683,21.16356 -10.6418,0 -19.2685,-9.47526 -19.2685,-21.16356 0,-11.68833 8.3015,-13.89848 19.2685,-36.9573 10.4484,22.74295 19.2683,25.26897 19.2683,36.9573 z"
           id="path4099-9-1-6-1-3"
           inkscape:connector-curvature="0"
           sodipodi:nodetypes="ssscs" />
        <path
           style="fill:#333333;fill-opacity:1;stroke:none"
           d="m 5475.877,299.25367 c 0,11.68831 -8.6269,21.16357 -19.2683,21.16357 -10.6418,0 -19.2684,-9.47526 -19.2684,-21.16357 0,-11.68832 8.3015,-13.89847 19.2684,-36.95729 10.4484,22.74295 19.2683,25.26897 19.2683,36.95729 z"
           id="path4099-6-9-8-7-3"
           inkscape:connector-curvature="0"
           sodipodi:nodetypes="ssscs" />
        <path
           style="fill:#333333;fill-opacity:1;stroke:none"
           d="m 5319.8671,327.10234 c -7.1024,9.28281 -19.7116,11.56577 -28.1628,5.0994 -8.4517,-6.46661 -9.5452,-19.23395 -2.4426,-28.51674 7.1023,-9.28282 15.0384,-5.99361 37.7602,-17.64259 -5.522,24.41143 -0.052,31.77711 -7.1548,41.05993 z"
           id="path4099-2-6-6-4-4"
           inkscape:connector-curvature="0"
           sodipodi:nodetypes="ssscs" />
        <path
           style="fill:#333333;fill-opacity:1;stroke:none"
           d="m 5209.7563,304.01444 c 8.3468,8.18201 9.0743,20.97554 1.6253,28.57484 -7.4495,7.59961 -20.2548,7.12732 -28.6019,-1.0547 -8.3468,-8.18201 -4.1139,-15.65746 -12.9039,-39.63083 23.5554,8.45896 31.5333,3.92867 39.8805,12.11069 z"
           id="path4099-0-7-6-1-9"
           inkscape:connector-curvature="0"
           sodipodi:nodetypes="ssscs" />
        <path
           style="fill:#333333;fill-opacity:1;stroke:none"
           d="m 5418.8656,305.90327 c 6.0221,10.01748 3.5104,22.5831 -5.6099,28.06584 -9.1206,5.48294 -21.396,1.80682 -27.4182,-8.21066 -6.0221,-10.01753 -0.046,-16.18889 -2.5272,-41.60204 20.6727,14.10864 29.5331,11.72932 35.5553,21.74686 z"
           id="path4099-18-0-6-8-5"
           inkscape:connector-curvature="0"
           sodipodi:nodetypes="ssscs" />
        <path
           style="fill:#333333;fill-opacity:1;stroke:none"
           d="m 5181.7774,366.9687 c 11.6883,0 21.1635,8.6269 21.1635,19.26829 0,10.6418 -9.4752,19.26849 -21.1635,19.26849 -11.6884,0 -13.8985,-8.30149 -36.9575,-19.26849 22.743,-10.44837 25.2691,-19.26829 36.9575,-19.26829 z"
           id="path4099-92-9-8-5-3"
           inkscape:connector-curvature="0"
           sodipodi:nodetypes="ssscs" />
        <path
           style="fill:#333333;fill-opacity:1;stroke:none"
           d="m 5181.8192,443.91633 c 11.6883,0 21.1635,8.62689 21.1635,19.26828 0,10.6418 -9.4752,19.26849 -21.1635,19.26849 -11.6884,0 -13.8986,-8.30149 -36.9574,-19.26849 22.743,-10.44837 25.269,-19.26828 36.9574,-19.26828 z"
           id="path4099-183-5-5-0-7"
           inkscape:connector-curvature="0"
           sodipodi:nodetypes="ssscs" />
        <path
           style="fill:#333333;fill-opacity:1;stroke:none"
           d="m 5379.1001,353.32775 c 11.6883,0 21.1635,8.6269 21.1635,19.26828 0,10.6418 -9.4752,19.26849 -21.1635,19.26849 -11.6884,0 -13.8985,-8.30149 -36.9574,-19.26849 22.7429,-10.44837 25.269,-19.26828 36.9574,-19.26828 z"
           id="path4099-99-0-6-1-7"
           inkscape:connector-curvature="0"
           sodipodi:nodetypes="ssscs" />
        <rect
           style="fill:#333333;fill-opacity:1;stroke:none"
           id="rect2985-79-4-5-6-7-6-7"
           width="158.50073"
           height="283.02582"
           x="-687.63702"
           y="5424.4136"
           ry="74.103355"
           rx="94.724609"
           transform="matrix(0,-1,1,0,0,0)" />
      </g>
      <g
         transform="matrix(0.10904636,-0.01262906,0.01262906,0.10904636,-1345.2571,429.41473)"
         id="g8793">
        <rect
           style="fill:#333333;fill-opacity:1;stroke:none"
           id="rect2985-79-1-9-3-2-7"
           width="138.64384"
           height="239.91525"
           x="4052.9233"
           y="524.60107"
           ry="64.819725"
           rx="82.857559" />
        <rect
           style="fill:#333333;fill-opacity:1;stroke:none"
           id="rect2985-79-4-5-5-7-5-5"
           width="138.64384"
           height="260.05276"
           x="-763.84924"
           y="4051.7014"
           ry="64.819725"
           rx="82.857559"
           transform="matrix(0,-1,1,0,0,0)" />
        <rect
           style="fill:#333333;fill-opacity:1;stroke:none"
           id="rect2985-79-7-0-7-2-4-0"
           width="138.64384"
           height="238.31903"
           x="4394.5498"
           y="570.4184"
           ry="64.819725"
           rx="82.857559" />
        <rect
           style="fill:#333333;fill-opacity:1;stroke:none"
           id="rect2985-79-5-8-8-2-7-6"
           width="138.64384"
           height="533.84943"
           x="4228.6895"
           y="464.85095"
           ry="64.819725"
           rx="82.857559" />
        <path
           style="fill:#333333;fill-opacity:1;stroke:none"
           d="m 4479.9274,573.40016 c 0,10.224 -7.5461,18.5122 -16.8544,18.5122 -9.3086,0 -16.8545,-8.2882 -16.8545,-18.5122 0,-10.22402 7.2615,-12.15729 16.8545,-32.32731 9.1394,19.89372 16.8544,22.10329 16.8544,32.32731 z"
           id="path4099-90-1-7-8-8"
           inkscape:connector-curvature="0"
           sodipodi:nodetypes="ssscs" />
        <path
           style="fill:#333333;fill-opacity:1;stroke:none"
           d="m 4524.1327,609.70041 c -7.3068,7.15126 -18.5085,7.55545 -25.0192,0.90309 -6.511,-6.65262 -5.8656,-17.84275 1.4412,-24.99401 7.307,-7.15124 13.7678,-3.31387 34.8925,-10.566 -7.8248,20.44649 -4.0076,27.50568 -11.3145,34.65692 z"
           id="path4099-4-2-4-7-7-8"
           inkscape:connector-curvature="0"
           sodipodi:nodetypes="ssscs" />
        <path
           style="fill:#333333;fill-opacity:1;stroke:none"
           d="m 4421.8229,589.0743 c 8.1449,6.17974 10.1866,17.20106 4.5604,24.61654 -5.6263,7.41575 -16.7902,8.4176 -24.9352,2.23787 -8.1451,-6.17974 -5.2961,-13.13317 -15.5663,-32.96697 21.3726,4.74346 27.7961,-0.0671 35.9411,6.11256 z"
           id="path4099-8-7-9-1-0-8"
           inkscape:connector-curvature="0"
           sodipodi:nodetypes="ssscs" />
        <path
           style="fill:#333333;fill-opacity:1;stroke:none"
           d="m 4529.4317,675.38321 c -10.224,0 -18.5123,-7.54612 -18.5123,-16.85436 0,-9.30861 8.2883,-16.85455 18.5123,-16.85455 10.224,0 12.157,7.26149 32.3272,16.85455 -19.8938,9.1394 -22.1032,16.85436 -32.3272,16.85436 z"
           id="path4099-1-5-8-3-3-3"
           inkscape:connector-curvature="0"
           sodipodi:nodetypes="ssscs" />
        <path
           style="fill:#333333;fill-opacity:1;stroke:none"
           d="m 4137.0906,530.59989 c 0,10.22399 -7.5462,18.5122 -16.8544,18.5122 -9.3086,0 -16.8546,-8.28821 -16.8546,-18.5122 0,-10.22403 7.2615,-12.15729 16.8546,-32.32731 9.1394,19.89372 16.8544,22.10328 16.8544,32.32731 z"
           id="path4099-9-1-6-1-3-8"
           inkscape:connector-curvature="0"
           sodipodi:nodetypes="ssscs" />
        <path
           style="fill:#333333;fill-opacity:1;stroke:none"
           d="m 4316.9079,469.28127 c 0,10.22401 -7.5461,18.51221 -16.8544,18.51221 -9.3086,0 -16.8544,-8.2882 -16.8544,-18.51221 0,-10.22401 7.2615,-12.15728 16.8544,-32.3273 9.1395,19.89373 16.8544,22.10329 16.8544,32.3273 z"
           id="path4099-6-9-8-7-3-8"
           inkscape:connector-curvature="0"
           sodipodi:nodetypes="ssscs" />
        <path
           style="fill:#333333;fill-opacity:1;stroke:none"
           d="m 4180.4429,557.64108 c -6.2127,8.11986 -17.2422,10.11681 -24.6346,4.46055 -7.3929,-5.65648 -8.3494,-16.82434 -2.1366,-24.94418 6.2125,-8.11988 13.1544,-5.24274 33.0296,-15.43234 -4.8302,21.35318 -0.045,27.79609 -6.2584,35.91597 z"
           id="path4099-2-6-6-4-4-1"
           inkscape:connector-curvature="0"
           sodipodi:nodetypes="ssscs" />
        <path
           style="fill:#333333;fill-opacity:1;stroke:none"
           d="m 4084.1267,537.44562 c 7.3011,7.15697 7.9375,18.34773 1.4217,24.99499 -6.5163,6.64754 -17.7173,6.23442 -25.0187,-0.92256 -7.3011,-7.15698 -3.5985,-13.69591 -11.2873,-34.6659 20.6044,7.39922 27.5828,3.43648 34.8843,10.59347 z"
           id="path4099-0-7-6-1-9-7"
           inkscape:connector-curvature="0"
           sodipodi:nodetypes="ssscs" />
        <path
           style="fill:#333333;fill-opacity:1;stroke:none"
           d="m 4267.0389,475.09781 c 5.2676,8.7625 3.0706,19.7539 -4.9071,24.54977 -7.978,4.79604 -18.7155,1.58046 -23.9833,-7.18203 -5.2676,-8.76254 -0.04,-14.16076 -2.2106,-36.39016 18.0829,12.34112 25.8332,10.25988 31.101,19.02242 z"
           id="path4099-18-0-6-8-5-7"
           inkscape:connector-curvature="0"
           sodipodi:nodetypes="ssscs" />
        <path
           style="fill:#333333;fill-opacity:1;stroke:none"
           d="m 4059.653,592.513 c 10.224,0 18.5121,7.54613 18.5121,16.85437 0,9.3086 -8.2881,16.85454 -18.5121,16.85454 -10.2241,0 -12.1573,-7.26148 -32.3275,-16.85454 19.8937,-9.13941 22.1034,-16.85437 32.3275,-16.85437 z"
           id="path4099-92-9-8-5-3-1"
           inkscape:connector-curvature="0"
           sodipodi:nodetypes="ssscs" />
        <path
           style="fill:#333333;fill-opacity:1;stroke:none"
           d="m 4059.6895,659.82067 c 10.224,0 18.5122,7.54612 18.5122,16.85436 0,9.3086 -8.2882,16.85455 -18.5122,16.85455 -10.2241,0 -12.1574,-7.26149 -32.3274,-16.85455 19.8938,-9.1394 22.1033,-16.85436 32.3274,-16.85436 z"
           id="path4099-183-5-5-0-7-4"
           inkscape:connector-curvature="0"
           sodipodi:nodetypes="ssscs" />
        <path
           style="fill:#333333;fill-opacity:1;stroke:none"
           d="m 4232.2552,516.58098 c 10.224,0 18.5121,7.54613 18.5121,16.85436 0,9.3086 -8.2881,16.85454 -18.5121,16.85454 -10.2241,0 -12.1573,-7.26148 -32.3274,-16.85454 19.8937,-9.1394 22.1033,-16.85436 32.3274,-16.85436 z"
           id="path4099-99-0-6-1-7-8"
           inkscape:connector-curvature="0"
           sodipodi:nodetypes="ssscs" />
        <rect
           style="fill:#333333;fill-opacity:1;stroke:none"
           id="rect2985-79-4-5-6-7-6-7-5"
           width="138.64384"
           height="247.5685"
           x="-809.00818"
           y="4271.8916"
           ry="64.819725"
           rx="82.857559"
           transform="matrix(0,-1,1,0,0,0)" />
      </g>
      <path
         id="rect3855-5-7-4-9-6-8-7-7"
         d="m 146.47783,914.41895 7.46448,0 0,41.17851 -7.46448,0 z"
         style="fill:#333333;fill-opacity:1;stroke:none"
         transform="matrix(0.33289124,0.94296523,-0.92406065,0.38224589,0,0)"
         inkscape:connector-curvature="0" />
      <path
         inkscape:connector-curvature="0"
         id="path3971"
         d="m -802.71719,536.34461 -5.28493,4.47099 12.36337,15.92605 5.69051,-4.70939 z"
         style="fill:#333333;stroke:none" />
      <path
         inkscape:connector-curvature="0"
         id="path3971-5"
         d="m -885.7657,490.50628 4.53229,5.2324 15.78089,-12.54808 -4.77539,-5.63524 z"
         style="fill:#333333;stroke:none" />
      <path
         inkscape:connector-curvature="0"
         id="path4465-6"
         d="m -887.64988,485.78607 c -6.2354,0 -11.3543,5.1189 -11.3543,11.35432 0,6.23542 5.1189,11.35926 11.3543,11.35926 6.2354,0 11.3593,-5.12384 11.3593,-11.35926 0,-6.23542 -5.1239,-11.35432 -11.3593,-11.35432 z m 0,6.23994 c 2.8631,0 5.1193,2.25128 5.1193,5.11438 0,2.86311 -2.2562,5.11932 -5.1193,5.11932 -2.8631,0 -5.1144,-2.25621 -5.1144,-5.11932 0,-2.8631 2.2513,-5.11438 5.1144,-5.11438 z"
         style="font-size:medium;font-style:normal;font-variant:normal;font-weight:normal;font-stretch:normal;text-indent:0;text-align:start;text-decoration:none;line-height:normal;letter-spacing:normal;word-spacing:normal;text-transform:none;direction:ltr;block-progression:tb;writing-mode:lr-tb;text-anchor:start;baseline-shift:baseline;color:#000000;fill:#333333;fill-opacity:1;stroke:none;stroke-width:39.5;marker:none;visibility:visible;display:inline;overflow:visible;enable-background:accumulate;font-family:Sans;-inkscape-font-specification:Sans" />
      <path
         inkscape:connector-curvature="0"
         id="path4465-9"
         d="m -840.50702,496.85749 c -6.2354,0 -11.3543,5.1189 -11.3543,11.35432 0,6.23542 5.1189,11.35926 11.3543,11.35926 6.2354,0 11.3593,-5.12384 11.3593,-11.35926 0,-6.23542 -5.1239,-11.35432 -11.3593,-11.35432 z m 0,6.23994 c 2.8631,0 5.1193,2.25128 5.1193,5.11438 0,2.86311 -2.2562,5.11932 -5.1193,5.11932 -2.8631,0 -5.1144,-2.25621 -5.1144,-5.11932 0,-2.8631 2.2513,-5.11438 5.1144,-5.11438 z"
         style="font-size:medium;font-style:normal;font-variant:normal;font-weight:normal;font-stretch:normal;text-indent:0;text-align:start;text-decoration:none;line-height:normal;letter-spacing:normal;word-spacing:normal;text-transform:none;direction:ltr;block-progression:tb;writing-mode:lr-tb;text-anchor:start;baseline-shift:baseline;color:#000000;fill:#333333;fill-opacity:1;stroke:none;stroke-width:39.5;marker:none;visibility:visible;display:inline;overflow:visible;enable-background:accumulate;font-family:Sans;-inkscape-font-specification:Sans" />
      <path
         inkscape:connector-curvature="0"
         id="path4465-4"
         d="m -773.36416,516.85749 c -6.2354,0 -11.3543,5.1189 -11.3543,11.35432 0,6.23542 5.1189,11.35926 11.3543,11.35926 6.2354,0 11.3593,-5.12384 11.3593,-11.35926 0,-6.23542 -5.1239,-11.35432 -11.3593,-11.35432 z m 0,6.23994 c 2.8631,0 5.1193,2.25128 5.1193,5.11438 0,2.86311 -2.2562,5.11932 -5.1193,5.11932 -2.8631,0 -5.1144,-2.25621 -5.1144,-5.11932 0,-2.8631 2.2513,-5.11438 5.1144,-5.11438 z"
         style="font-size:medium;font-style:normal;font-variant:normal;font-weight:normal;font-stretch:normal;text-indent:0;text-align:start;text-decoration:none;line-height:normal;letter-spacing:normal;word-spacing:normal;text-transform:none;direction:ltr;block-progression:tb;writing-mode:lr-tb;text-anchor:start;baseline-shift:baseline;color:#000000;fill:#333333;fill-opacity:1;stroke:none;stroke-width:39.5;marker:none;visibility:visible;display:inline;overflow:visible;enable-background:accumulate;font-family:Sans;-inkscape-font-specification:Sans" />
      <path
         inkscape:connector-curvature="0"
         id="path4465-2"
         d="m -810.50701,519.71464 c -6.2354,0 -11.3543,5.1189 -11.3543,11.35432 0,6.23542 5.1189,11.35926 11.3543,11.35926 6.2354,0 11.3593,-5.12384 11.3593,-11.35926 0,-6.23542 -5.1239,-11.35432 -11.3593,-11.35432 z m 0,6.23994 c 2.8631,0 5.1193,2.25128 5.1193,5.11438 0,2.86311 -2.2562,5.11932 -5.1193,5.11932 -2.8631,0 -5.1144,-2.25621 -5.1144,-5.11932 0,-2.8631 2.2513,-5.11438 5.1144,-5.11438 z"
         style="font-size:medium;font-style:normal;font-variant:normal;font-weight:normal;font-stretch:normal;text-indent:0;text-align:start;text-decoration:none;line-height:normal;letter-spacing:normal;word-spacing:normal;text-transform:none;direction:ltr;block-progression:tb;writing-mode:lr-tb;text-anchor:start;baseline-shift:baseline;color:#000000;fill:#333333;fill-opacity:1;stroke:none;stroke-width:39.5;marker:none;visibility:visible;display:inline;overflow:visible;enable-background:accumulate;font-family:Sans;-inkscape-font-specification:Sans" />
      <path
         inkscape:connector-curvature="0"
         id="path4465-26"
         d="m -788.7213,548.64321 c -6.2354,0 -11.3543,5.1189 -11.3543,11.35432 0,6.23542 5.1189,11.35926 11.3543,11.35926 6.2354,0 11.3593,-5.12384 11.3593,-11.35926 0,-6.23542 -5.1239,-11.35432 -11.3593,-11.35432 z m 0,6.23994 c 2.8631,0 5.1193,2.25128 5.1193,5.11438 0,2.86311 -2.2562,5.11932 -5.1193,5.11932 -2.8631,0 -5.1144,-2.25621 -5.1144,-5.11932 0,-2.8631 2.2513,-5.11438 5.1144,-5.11438 z"
         style="font-size:medium;font-style:normal;font-variant:normal;font-weight:normal;font-stretch:normal;text-indent:0;text-align:start;text-decoration:none;line-height:normal;letter-spacing:normal;word-spacing:normal;text-transform:none;direction:ltr;block-progression:tb;writing-mode:lr-tb;text-anchor:start;baseline-shift:baseline;color:#000000;fill:#333333;fill-opacity:1;stroke:none;stroke-width:39.5;marker:none;visibility:visible;display:inline;overflow:visible;enable-background:accumulate;font-family:Sans;-inkscape-font-specification:Sans" />
      <path
         id="rect3855-6-6-5-6-8-6-2-2"
         d="m -870.67011,472.58027 6.2387,-4.00442 23.8782,33.20101 -6.2387,4.00443 z"
         style="fill:#333333;fill-opacity:1;stroke:none"
         inkscape:connector-curvature="0" />
    </g>
    <g
       style="font-size:18.22425652px;font-style:normal;font-variant:normal;font-weight:normal;font-stretch:normal;line-height:125%;letter-spacing:0px;word-spacing:0px;fill:#333333;fill-opacity:1;stroke:none;font-family:Ubuntu Mono;-inkscape-font-specification:Ubuntu Mono"
       id="text3054">
      <path
         d="m -1004.0828,467.46606 -1.3668,0 0.5649,-2.97055 -2.0229,0 -0.5649,2.97055 -1.3668,0 0.5649,-2.97055 -1.1663,0 0,-1.22102 1.4032,0 0.5468,-2.89766 -1.95,0 0,-1.2028 2.2051,0 0.5649,-2.98878 1.3669,0 -0.565,2.98878 2.0229,0 0.5467,-2.98878 1.3668,0 -0.5467,2.98878 1.1664,0 0,1.2028 -1.4033,0 -0.5649,2.89766 1.9682,0 0,1.22102 -2.2052,0 -0.5649,2.97055 m -0.018,-7.08923 -2.0047,0 -0.565,2.89766 2.0047,0 0.565,-2.89766"
         style=""
         id="path3102" />
      <path
         d="m -996.17349,466.39083 c 0.37663,0 0.71074,-0.0122 1.00234,-0.0365 0.30373,-0.0243 0.55279,-0.0547 0.74719,-0.0911 l 0,-2.51494 c -0.1944,-0.0607 -0.43131,-0.10935 -0.71074,-0.1458 -0.2673,-0.0364 -0.55281,-0.0547 -0.85654,-0.0547 -0.27945,0 -0.55281,0.0243 -0.8201,0.0729 -0.26729,0.0365 -0.5042,0.10935 -0.71074,0.21869 -0.20655,0.10935 -0.37664,0.25514 -0.51028,0.43738 -0.13365,0.1701 -0.20047,0.38879 -0.20047,0.65607 0,0.54673 0.18224,0.92944 0.54673,1.14813 0.37663,0.20654 0.88084,0.30981 1.51261,0.30981 m -0.14579,-7.58129 c 0.63177,10e-6 1.16027,0.079 1.58551,0.23692 0.43738,0.15795 0.78971,0.37664 1.05701,0.65607 0.26728,0.27945 0.4556,0.61963 0.56495,1.02056 0.10934,0.40094 0.16401,0.83832 0.16402,1.31215 l 0,5.28503 c -0.35235,0.0607 -0.8201,0.13364 -1.40327,0.21869 -0.57103,0.0851 -1.16028,0.12757 -1.76775,0.12757 -0.46169,0 -0.91122,-0.0425 -1.3486,-0.12757 -0.43738,-0.0729 -0.82617,-0.20654 -1.16635,-0.40093 -0.34019,-0.20654 -0.61355,-0.48598 -0.82009,-0.83832 -0.20655,-0.35233 -0.30982,-0.80186 -0.30982,-1.34859 0,-0.48598 0.10327,-0.89299 0.30982,-1.22103 0.21869,-0.34018 0.49205,-0.61354 0.82009,-0.82009 0.34018,-0.20654 0.72289,-0.35233 1.14813,-0.43738 0.43738,-0.0972 0.87476,-0.14579 1.31214,-0.1458 0.59532,10e-6 1.1785,0.0668 1.74953,0.20047 l 0,-0.41916 c 0,-0.25513 -0.0304,-0.49812 -0.0911,-0.72897 -0.0486,-0.24298 -0.15187,-0.46167 -0.30981,-0.65607 -0.1458,-0.19439 -0.35234,-0.34625 -0.61963,-0.45561 -0.25514,-0.12148 -0.58925,-0.18223 -1.00233,-0.18224 -0.52243,10e-6 -0.97804,0.0365 -1.36682,0.10935 -0.38879,0.0729 -0.68645,0.1458 -0.89299,0.21869 l -0.18224,-1.23925 c 0.20654,-0.0972 0.54672,-0.18224 1.02056,-0.25514 0.48597,-0.0729 1.00233,-0.10934 1.54906,-0.10935"
         style=""
         id="path3104" />
      <path
         d="m -983.72632,459.01001 0,8.45605 -1.47616,0 0,-6.45138 c -0.32805,0.41309 -0.67431,0.89907 -1.03879,1.45794 -0.35234,0.55888 -0.71075,1.13598 -1.07523,1.7313 -0.35234,0.58318 -0.69252,1.16028 -1.02056,1.73131 -0.32804,0.57102 -0.61962,1.0813 -0.87476,1.53083 l -1.3486,0 0,-8.45605 1.45794,0 0,6.0869 c 0.27944,-0.47383 0.58318,-0.98411 0.91122,-1.53084 0.32803,-0.55887 0.66822,-1.11167 1.02056,-1.6584 0.35233,-0.55887 0.70466,-1.08738 1.057,-1.58551 0.35233,-0.51028 0.69859,-0.94766 1.03879,-1.31215 l 1.34859,0 m -3.20747,-1.36682 c -0.68037,10e-6 -1.23318,-0.17008 -1.65841,-0.51028 -0.42523,-0.35232 -0.68645,-0.8383 -0.78364,-1.45794 l 1.14813,-0.30981 c 0.0972,0.35235 0.24906,0.63786 0.45561,0.85654 0.20653,0.20655 0.48597,0.30982 0.83831,0.30981 0.35233,10e-6 0.63177,-0.10326 0.83832,-0.30981 0.20653,-0.21868 0.3584,-0.50419 0.4556,-0.85654 l 1.12991,0.30981 c -0.0972,0.61964 -0.35842,1.10562 -0.78365,1.45794 -0.41308,0.3402 -0.95981,0.51029 -1.64018,0.51028"
         style=""
         id="path3106" />
      <path
         d="m -974.85111,466.19037 0.71075,0 0,3.62662 -1.42149,0 0,-2.35093 -5.74064,0 0,-8.45605 1.51261,0 0,7.18036 3.44438,0 0,-7.18036 1.49439,0 0,7.18036"
         style=""
         id="path3108" />
      <path
         d="m -969.67542,457.69786 c -0.31589,1e-5 -0.58925,-0.10933 -0.82009,-0.32803 -0.23084,-0.21868 -0.34626,-0.51635 -0.34626,-0.89299 0,-0.37663 0.11542,-0.67429 0.34626,-0.89299 0.23084,-0.21868 0.5042,-0.32803 0.82009,-0.32804 0.32803,1e-5 0.6014,0.10936 0.82009,0.32804 0.23084,0.2187 0.34626,0.51636 0.34626,0.89299 0,0.37664 -0.11542,0.67431 -0.34626,0.89299 -0.21869,0.2187 -0.49206,0.32804 -0.82009,0.32803 m -0.38271,2.56962 -2.44205,0 0,-1.25747 3.93644,0 0,5.19391 c 0,0.83832 0.11542,1.40327 0.34626,1.69486 0.23084,0.27944 0.5771,0.41916 1.03879,0.41916 0.35232,0 0.67429,-0.0425 0.96588,-0.12757 0.30373,-0.085 0.54065,-0.17617 0.71075,-0.27337 l 0.21869,1.2757 c -0.0729,0.0365 -0.17618,0.0851 -0.30981,0.14579 -0.13366,0.0486 -0.2916,0.0972 -0.47383,0.1458 -0.17011,0.0486 -0.3645,0.0911 -0.58318,0.12757 -0.20655,0.0365 -0.42524,0.0547 -0.65607,0.0547 -0.53459,0 -0.97804,-0.0729 -1.33038,-0.21869 -0.35234,-0.14579 -0.63785,-0.36448 -0.85654,-0.65607 -0.20654,-0.29159 -0.35233,-0.65 -0.43738,-1.07523 -0.0851,-0.43738 -0.12757,-0.94159 -0.12757,-1.51262 l 0,-3.93644"
         style=""
         id="path3110" />
      <path
         d="m -961.60207,466.31794 c 0.12149,0.0243 0.34018,0.0486 0.65607,0.0729 0.31589,0.0122 0.63177,0.0182 0.94766,0.0182 0.31589,0 0.61355,-0.0182 0.89299,-0.0547 0.29158,-0.0486 0.54065,-0.12756 0.7472,-0.23691 0.21868,-0.10934 0.38877,-0.25514 0.51028,-0.43738 0.13363,-0.18224 0.20046,-0.41308 0.20046,-0.69252 0,-0.26729 -0.0607,-0.49206 -0.18224,-0.6743 -0.10935,-0.18224 -0.26122,-0.32804 -0.45561,-0.43738 -0.19439,-0.10935 -0.42523,-0.18224 -0.69252,-0.2187 -0.26729,-0.0486 -0.55281,-0.0729 -0.85654,-0.0729 l -1.76775,0 0,2.73364 m 1.56729,-3.84532 c 0.58317,0 1.06307,-0.085 1.43971,-0.25514 0.38878,-0.18224 0.58317,-0.52242 0.58318,-1.02056 -10e-6,-0.25513 -0.0668,-0.4556 -0.20047,-0.6014 -0.1215,-0.15794 -0.29159,-0.27943 -0.51028,-0.36449 -0.20655,-0.085 -0.44346,-0.13971 -0.71074,-0.16401 -0.2673,-0.0243 -0.53459,-0.0364 -0.80187,-0.0365 -0.25515,10e-6 -0.50421,0.006 -0.7472,0.0182 -0.24299,0.0122 -0.44953,0.0243 -0.61962,0.0365 l 0,2.38738 1.56729,0 m -0.0182,5.13924 c -0.65608,0 -1.24533,-0.0304 -1.76775,-0.0911 -0.52243,-0.0607 -0.94159,-0.12757 -1.25748,-0.20047 l 0,-8.23736 c 0.31589,-0.0729 0.73505,-0.13971 1.25748,-0.20047 0.52242,-0.0607 1.11167,-0.0911 1.76775,-0.0911 0.43738,1e-5 0.86869,0.0365 1.29392,0.10934 0.42523,0.0729 0.80186,0.20048 1.12991,0.38271 0.32803,0.18225 0.58924,0.42524 0.78364,0.72897 0.20653,0.30375 0.3098,0.68646 0.30981,1.14813 -1e-5,0.42524 -0.10328,0.78365 -0.30981,1.07523 -0.20655,0.27945 -0.48599,0.50421 -0.83832,0.6743 0.46168,0.1701 0.83224,0.41309 1.11168,0.72897 0.27943,0.30374 0.41915,0.7472 0.41916,1.33037 -10e-6,0.51028 -0.10328,0.93551 -0.30981,1.2757 -0.1944,0.34019 -0.46776,0.61355 -0.82009,0.82009 -0.35234,0.19439 -0.76543,0.33411 -1.23925,0.41916 -0.47384,0.0851 -0.98412,0.12757 -1.53084,0.12757"
         style=""
         id="path3112" />
      <path
         d="m -950.61285,466.39083 c 0.37663,0 0.71074,-0.0122 1.00234,-0.0365 0.30373,-0.0243 0.55279,-0.0547 0.74719,-0.0911 l 0,-2.51494 c -0.1944,-0.0607 -0.43131,-0.10935 -0.71074,-0.1458 -0.2673,-0.0364 -0.55281,-0.0547 -0.85654,-0.0547 -0.27945,0 -0.55281,0.0243 -0.8201,0.0729 -0.26729,0.0365 -0.5042,0.10935 -0.71074,0.21869 -0.20655,0.10935 -0.37664,0.25514 -0.51028,0.43738 -0.13365,0.1701 -0.20047,0.38879 -0.20047,0.65607 0,0.54673 0.18224,0.92944 0.54673,1.14813 0.37663,0.20654 0.88083,0.30981 1.51261,0.30981 m -0.14579,-7.58129 c 0.63177,10e-6 1.16027,0.079 1.58551,0.23692 0.43737,0.15795 0.78971,0.37664 1.05701,0.65607 0.26728,0.27945 0.45559,0.61963 0.56495,1.02056 0.10934,0.40094 0.16401,0.83832 0.16402,1.31215 l 0,5.28503 c -0.35235,0.0607 -0.8201,0.13364 -1.40327,0.21869 -0.57103,0.0851 -1.16028,0.12757 -1.76775,0.12757 -0.46169,0 -0.91122,-0.0425 -1.3486,-0.12757 -0.43738,-0.0729 -0.82617,-0.20654 -1.16635,-0.40093 -0.34019,-0.20654 -0.61355,-0.48598 -0.82009,-0.83832 -0.20655,-0.35233 -0.30982,-0.80186 -0.30982,-1.34859 0,-0.48598 0.10327,-0.89299 0.30982,-1.22103 0.21869,-0.34018 0.49205,-0.61354 0.82009,-0.82009 0.34018,-0.20654 0.72289,-0.35233 1.14813,-0.43738 0.43737,-0.0972 0.87476,-0.14579 1.31214,-0.1458 0.59532,10e-6 1.1785,0.0668 1.74953,0.20047 l 0,-0.41916 c -10e-6,-0.25513 -0.0304,-0.49812 -0.0911,-0.72897 -0.0486,-0.24298 -0.15187,-0.46167 -0.30981,-0.65607 -0.1458,-0.19439 -0.35234,-0.34625 -0.61963,-0.45561 -0.25514,-0.12148 -0.58925,-0.18223 -1.00233,-0.18224 -0.52243,10e-6 -0.97804,0.0365 -1.36682,0.10935 -0.38879,0.0729 -0.68645,0.1458 -0.89299,0.21869 l -0.18224,-1.23925 c 0.20654,-0.0972 0.54672,-0.18224 1.02056,-0.25514 0.48597,-0.0729 1.00233,-0.10934 1.54906,-0.10935"
         style=""
         id="path3114" />
      <path
         d="m -941.8652,460.26748 c -1e-5,0.3645 -0.0122,0.75328 -0.0365,1.16636 -0.0122,0.40093 -0.0425,0.80794 -0.0911,1.22102 -0.0365,0.40094 -0.0911,0.80187 -0.16402,1.2028 -0.0729,0.38879 -0.1701,0.75327 -0.29159,1.09346 -0.24299,0.69252 -0.61355,1.28785 -1.11168,1.78597 -0.49813,0.49813 -1.20888,0.7958 -2.13224,0.89299 l -0.21869,-1.2757 c 0.53458,-0.0972 0.95374,-0.29158 1.25748,-0.58317 0.31588,-0.30374 0.56495,-0.66822 0.74719,-1.09346 0.15794,-0.36448 0.27336,-0.77756 0.34626,-1.23925 0.085,-0.46167 0.14579,-0.94765 0.18224,-1.45794 0.0365,-0.51027 0.0547,-1.02055 0.0547,-1.53083 -1e-5,-0.51028 -1e-5,-0.99018 0,-1.43972 l 4.99344,0 0,8.45605 -1.51261,0 0,-7.19858 -2.02289,0"
         style=""
         id="path3116" />
      <path
         d="m -932.38859,466.39083 c 0.37663,0 0.71074,-0.0122 1.00234,-0.0365 0.30373,-0.0243 0.55279,-0.0547 0.74719,-0.0911 l 0,-2.51494 c -0.1944,-0.0607 -0.43131,-0.10935 -0.71075,-0.1458 -0.26729,-0.0364 -0.5528,-0.0547 -0.85654,-0.0547 -0.27944,0 -0.5528,0.0243 -0.82009,0.0729 -0.26729,0.0365 -0.50421,0.10935 -0.71074,0.21869 -0.20655,0.10935 -0.37664,0.25514 -0.51028,0.43738 -0.13365,0.1701 -0.20047,0.38879 -0.20047,0.65607 0,0.54673 0.18224,0.92944 0.54673,1.14813 0.37663,0.20654 0.88083,0.30981 1.51261,0.30981 m -0.14579,-7.58129 c 0.63177,10e-6 1.16027,0.079 1.58551,0.23692 0.43737,0.15795 0.78971,0.37664 1.057,0.65607 0.26729,0.27945 0.4556,0.61963 0.56496,1.02056 0.10933,0.40094 0.16401,0.83832 0.16401,1.31215 l 0,5.28503 c -0.35234,0.0607 -0.82009,0.13364 -1.40326,0.21869 -0.57104,0.0851 -1.16029,0.12757 -1.76776,0.12757 -0.46168,0 -0.91121,-0.0425 -1.34859,-0.12757 -0.43739,-0.0729 -0.82617,-0.20654 -1.16635,-0.40093 -0.34019,-0.20654 -0.61355,-0.48598 -0.82009,-0.83832 -0.20655,-0.35233 -0.30982,-0.80186 -0.30982,-1.34859 0,-0.48598 0.10327,-0.89299 0.30982,-1.22103 0.21868,-0.34018 0.49205,-0.61354 0.82009,-0.82009 0.34018,-0.20654 0.72289,-0.35233 1.14812,-0.43738 0.43738,-0.0972 0.87476,-0.14579 1.31215,-0.1458 0.59532,10e-6 1.1785,0.0668 1.74953,0.20047 l 0,-0.41916 c -10e-6,-0.25513 -0.0304,-0.49812 -0.0911,-0.72897 -0.0486,-0.24298 -0.15188,-0.46167 -0.30981,-0.65607 -0.1458,-0.19439 -0.35235,-0.34625 -0.61963,-0.45561 -0.25514,-0.12148 -0.58925,-0.18223 -1.00233,-0.18224 -0.52244,10e-6 -0.97804,0.0365 -1.36682,0.10935 -0.38879,0.0729 -0.68645,0.1458 -0.89299,0.21869 l -0.18224,-1.23925 c 0.20654,-0.0972 0.54672,-0.18224 1.02056,-0.25514 0.48597,-0.0729 1.00233,-0.10934 1.54906,-0.10935"
         style=""
         id="path3118" />
      <path
         d="m -920.10544,467.46606 -1.51261,0 0,-3.73597 -3.49906,0 0,3.73597 -1.51261,0 0,-8.45605 1.51261,0 0,3.44438 3.49906,0 0,-3.44438 1.51261,0 0,8.45605"
         style=""
         id="path3120" />
      <path
         d="m -911.06621,466.19037 0.71075,0 0,3.62662 -1.42149,0 0,-2.35093 -5.74064,0 0,-8.45605 1.51261,0 0,7.18036 3.44438,0 0,-7.18036 1.49439,0 0,7.18036"
         style=""
         id="path3122" />
      <path
         d="m -904.9793,458.80954 c 1.14204,10e-6 2.02288,0.35842 2.64251,1.07523 0.61962,0.70468 0.92943,1.77991 0.92944,3.2257 l 0,0.5285 -6.05045,0 c 0.0607,0.87477 0.34626,1.54299 0.85654,2.00467 0.52242,0.44953 1.25139,0.6743 2.18691,0.6743 0.53457,0 0.99018,-0.0425 1.36682,-0.12757 0.37662,-0.085 0.66214,-0.17617 0.85654,-0.27337 l 0.20046,1.2757 c -0.18225,0.0972 -0.51028,0.20047 -0.98411,0.30981 -0.47383,0.10935 -1.00841,0.16402 -1.60373,0.16402 -0.72898,0 -1.3729,-0.10934 -1.93177,-0.32804 -0.54673,-0.23084 -1.00234,-0.54065 -1.36682,-0.92943 -0.36449,-0.38879 -0.63785,-0.85047 -0.82009,-1.38505 -0.18225,-0.54672 -0.27337,-1.13597 -0.27337,-1.76775 0,-0.75326 0.11542,-1.40934 0.34626,-1.96822 0.23084,-0.55887 0.53458,-1.02055 0.91122,-1.38504 0.37663,-0.36448 0.80186,-0.63784 1.2757,-0.82009 0.47382,-0.18224 0.9598,-0.27336 1.45794,-0.27337 m 2.04111,3.60841 c 0,-0.71682 -0.18832,-1.28177 -0.56495,-1.69486 -0.37664,-0.42523 -0.87477,-0.63784 -1.49439,-0.63785 -0.35234,10e-6 -0.6743,0.0668 -0.96588,0.20047 -0.27945,0.13365 -0.52244,0.30982 -0.72897,0.5285 -0.20655,0.2187 -0.37057,0.46776 -0.49206,0.7472 -0.1215,0.27944 -0.20047,0.56495 -0.23691,0.85654 l 4.48316,0 m -3.51728,-4.97523 c -0.24299,10e-6 -0.46168,-0.0911 -0.65607,-0.27336 -0.1944,-0.18223 -0.29159,-0.41307 -0.29159,-0.69252 0,-0.27943 0.0972,-0.5042 0.29159,-0.6743 0.19439,-0.18223 0.41308,-0.27335 0.65607,-0.27336 0.25514,1e-5 0.47383,0.0911 0.65607,0.27336 0.19439,0.1701 0.29159,0.39487 0.29159,0.6743 0,0.27945 -0.0972,0.51029 -0.29159,0.69252 -0.18224,0.18225 -0.40093,0.27337 -0.65607,0.27336 m 3.09812,0 c -0.25514,10e-6 -0.47991,-0.0911 -0.67429,-0.27336 -0.18225,-0.18223 -0.27337,-0.41307 -0.27337,-0.69252 0,-0.27943 0.0911,-0.5042 0.27337,-0.6743 0.19438,-0.18223 0.41915,-0.27335 0.67429,-0.27336 0.25514,1e-5 0.47383,0.0911 0.65608,0.27336 0.19438,0.1701 0.29158,0.39487 0.29159,0.6743 -10e-6,0.27945 -0.0972,0.51029 -0.29159,0.69252 -0.18225,0.18225 -0.40094,0.27337 -0.65608,0.27336"
         style=""
         id="path3124" />
      <path
         d="m -893.75317,463.25626 c -1e-5,-0.9841 -0.23085,-1.74345 -0.69252,-2.27803 -0.46169,-0.54672 -1.06309,-0.82009 -1.8042,-0.82009 -0.41309,0 -0.74113,0.0182 -0.98411,0.0547 -0.23085,0.0365 -0.41309,0.079 -0.54673,0.12757 l 0,5.33971 c 0.17009,0.15794 0.41916,0.30374 0.7472,0.43738 0.32803,0.13365 0.66821,0.20047 1.02055,0.20047 0.40093,0 0.74112,-0.079 1.02056,-0.23692 0.29158,-0.15794 0.5285,-0.37056 0.71075,-0.63785 0.18223,-0.27943 0.31588,-0.6014 0.40093,-0.96588 0.085,-0.37663 0.12756,-0.78364 0.12757,-1.22103 m 1.54906,0 c -10e-6,0.64393 -0.0851,1.23925 -0.25514,1.78598 -0.15795,0.53458 -0.39486,0.99626 -0.71074,1.38504 -0.30375,0.38879 -0.68038,0.69252 -1.12991,0.91121 -0.44953,0.2187 -0.95981,0.32804 -1.53083,0.32804 -0.44954,0 -0.8444,-0.0547 -1.18458,-0.16402 -0.34019,-0.10934 -0.59533,-0.23084 -0.76542,-0.36448 l 0,3.33504 -1.51261,0 0,-11.20792 c 0.32803,-0.0972 0.74719,-0.19438 1.25747,-0.29159 0.52243,-0.0972 1.11775,-0.14578 1.78598,-0.14579 0.60747,1e-5 1.16027,0.10328 1.65841,0.30981 0.49812,0.20655 0.92335,0.50421 1.27569,0.89299 0.35233,0.37664 0.62569,0.83832 0.82009,1.38504 0.19439,0.54673 0.29158,1.16028 0.29159,1.84065"
         style=""
         id="path3126" />
    </g>
    <g
       style="font-size:15.92071247px;font-style:normal;font-variant:normal;font-weight:bold;font-stretch:normal;line-height:125%;letter-spacing:0px;word-spacing:0px;fill:#333333;fill-opacity:1;stroke:none;font-family:Ubuntu Mono;-inkscape-font-specification:Ubuntu Mono Bold"
       id="text3058">
      <path
         d="m -1006.2498,563.01928 c 0,0.3821 -0.1221,0.68459 -0.3662,0.90748 -0.2441,0.22289 -0.536,0.33434 -0.8756,0.33433 -0.3397,1e-5 -0.6316,-0.11144 -0.8757,-0.33433 -0.2335,-0.22289 -0.3502,-0.52538 -0.3502,-0.90748 0,-0.39271 0.1167,-0.70051 0.3502,-0.92341 0.2441,-0.22288 0.536,-0.33432 0.8757,-0.33433 0.3396,1e-5 0.6315,0.11145 0.8756,0.33433 0.2441,0.2229 0.3662,0.5307 0.3662,0.92341 m 2.9135,9.31361 c -0.4034,0.19105 -0.7855,0.31842 -1.1463,0.3821 -0.3503,0.0743 -0.674,0.11144 -0.9712,0.11144 -0.5095,0 -0.9393,-0.0743 -1.2896,-0.22289 -0.3396,-0.14859 -0.6156,-0.36087 -0.8278,-0.63682 -0.2017,-0.28658 -0.345,-0.63152 -0.4299,-1.03485 -0.085,-0.40332 -0.1274,-0.86502 -0.1274,-1.3851 l 0,-2.75429 -2.0697,0 0,-1.62391 4.028,0 0,4.63293 c 0,0.44578 0.08,0.78012 0.2388,1.003 0.1698,0.21228 0.4458,0.31842 0.8279,0.31842 0.1804,0 0.398,-0.0212 0.6527,-0.0637 0.2547,-0.0531 0.5413,-0.15389 0.8597,-0.30249 l 0.2548,1.57615"
         style=""
         id="path3071" />
      <path
         d="m -1000.5343,566.79248 -1.7035,0 0,-1.62391 1.7035,0 0,-1.87864 1.95826,-0.31842 0,2.19706 3.13638,0 0,1.62391 -3.13638,0 0,3.02494 c 0,0.27596 0.0265,0.49885 0.0796,0.66867 0.0531,0.16982 0.12736,0.30249 0.22289,0.39802 0.0955,0.0955 0.21227,0.15921 0.35025,0.19105 0.13798,0.0318 0.29188,0.0478 0.4617,0.0478 0.18043,0 0.34495,-0.005 0.49355,-0.0159 0.1592,-0.0106 0.30779,-0.0265 0.44578,-0.0478 0.14858,-0.0318 0.29718,-0.0743 0.44578,-0.12736 0.1592,-0.0531 0.32902,-0.12206 0.50946,-0.20697 l 0.27065,1.6876 c -0.36088,0.14859 -0.75359,0.25473 -1.17813,0.31841 -0.41395,0.0637 -0.81727,0.0955 -1.20998,0.0955 -0.45639,0 -0.85972,-0.0371 -1.20997,-0.11144 -0.35026,-0.0743 -0.64745,-0.21758 -0.89156,-0.42986 -0.24409,-0.21228 -0.42989,-0.50946 -0.55719,-0.89156 -0.1274,-0.39271 -0.1911,-0.90217 -0.1911,-1.52839 l 0,-3.0727"
         style=""
         id="path3073" />
      <path
         d="m -989.43755,571.39357 c 0,0.46701 -0.14329,0.82257 -0.42986,1.06669 -0.28657,0.24412 -0.6156,0.36617 -0.98708,0.36617 -0.19105,0 -0.37149,-0.0318 -0.5413,-0.0955 -0.16983,-0.0637 -0.32373,-0.1539 -0.4617,-0.27065 -0.12737,-0.12737 -0.23351,-0.27596 -0.31842,-0.44578 -0.0743,-0.18044 -0.11145,-0.38741 -0.11144,-0.62091 -1e-5,-0.22289 0.0371,-0.41924 0.11144,-0.58907 0.0849,-0.18043 0.19105,-0.32902 0.31842,-0.44578 0.13797,-0.11675 0.29187,-0.20696 0.4617,-0.27065 0.16981,-0.0637 0.35025,-0.0955 0.5413,-0.0955 0.37148,0 0.70051,0.12206 0.98708,0.36617 0.28657,0.24412 0.42986,0.58907 0.42986,1.03485"
         style=""
         id="path3075" />
      <path
         d="m -984.67725,572.65131 0,-5.85883 -1.63984,0 0,-1.62391 1.63984,0 0,-0.42986 c -1e-5,-0.60498 0.0849,-1.10382 0.25473,-1.49654 0.18043,-0.40332 0.41924,-0.72173 0.71643,-0.95525 0.29718,-0.2441 0.63683,-0.41393 1.01893,-0.50946 0.38209,-0.10613 0.7748,-0.1592 1.17813,-0.15921 0.41393,10e-6 0.83848,0.0372 1.27366,0.11145 0.43515,0.0743 0.82787,0.19636 1.17813,0.36617 l -0.33434,1.59208 c -0.24412,-0.0849 -0.55192,-0.16982 -0.9234,-0.25474 -0.36087,-0.0955 -0.70582,-0.14327 -1.03484,-0.14328 -0.18044,10e-6 -0.35557,0.0159 -0.52539,0.0478 -0.15921,0.0319 -0.3025,0.10084 -0.42986,0.20697 -0.11675,0.10615 -0.21228,0.26005 -0.28657,0.4617 -0.0743,0.19106 -0.11145,0.44579 -0.11144,0.76419 l 0,0.39802 3.07269,0 0,1.62391 -3.07269,0 0,5.85883 -1.97417,0"
         style=""
         id="path3077" />
      <path
         d="m -974.93378,571.25028 c 0.21227,0 0.41924,0 0.62091,0 0.20166,-0.0106 0.37679,-0.0265 0.52538,-0.0478 l 0,-1.71944 c -0.12737,-0.0212 -0.28127,-0.0371 -0.4617,-0.0478 -0.18044,-0.0212 -0.34495,-0.0318 -0.49354,-0.0318 -0.20167,0 -0.39802,0.0159 -0.58907,0.0478 -0.19105,0.0212 -0.36087,0.0637 -0.50946,0.12737 -0.13798,0.0637 -0.24943,0.1539 -0.33433,0.27065 -0.0849,0.11676 -0.12737,0.27066 -0.12737,0.4617 0,0.33965 0.12736,0.58376 0.3821,0.73235 0.25473,0.13799 0.58375,0.20697 0.98708,0.20697 m -0.17513,-6.27276 c 0.6156,10e-6 1.12506,0.0743 1.52839,0.22289 0.41394,0.13799 0.74296,0.33965 0.98709,0.60499 0.24411,0.25474 0.41924,0.57315 0.52538,0.95524 0.10613,0.37149 0.1592,0.79074 0.15921,1.25774 l 0,4.4578 c -0.28658,0.0637 -0.71113,0.13798 -1.27366,0.22289 -0.56254,0.0849 -1.19406,0.12736 -1.89456,0.12736 -0.47763,0 -0.91279,-0.0424 -1.3055,-0.12736 -0.3821,-0.0849 -0.71113,-0.22289 -0.98709,-0.41394 -0.27596,-0.20166 -0.48823,-0.45639 -0.63683,-0.76419 -0.14859,-0.31842 -0.22289,-0.70582 -0.22288,-1.16222 -10e-6,-0.43516 0.0849,-0.80134 0.25473,-1.09853 0.16982,-0.29718 0.39801,-0.53599 0.68459,-0.71643 0.28657,-0.18043 0.6156,-0.30779 0.98708,-0.38209 0.37148,-0.0849 0.75889,-0.12737 1.16221,-0.12737 0.50946,0 0.96055,0.0425 1.35326,0.12737 l 0,-0.23882 c 0,-0.37147 -0.11675,-0.67927 -0.35025,-0.9234 -0.23351,-0.25472 -0.63683,-0.38209 -1.20998,-0.38209 -0.37148,0 -0.73235,0.0265 -1.0826,0.0796 -0.33965,0.0531 -0.61561,0.11676 -0.82788,0.19105 l -0.27065,-1.57615 c 0.24411,-0.0849 0.58906,-0.1592 1.03484,-0.22289 0.44578,-0.0743 0.90748,-0.11144 1.3851,-0.11145"
         style=""
         id="path3079" />
      <path
         d="m -963.53455,572.33289 c -0.0319,0.0212 -0.10614,0.0584 -0.22289,0.11145 -0.10614,0.0531 -0.24943,0.11144 -0.42986,0.17512 -0.18044,0.0531 -0.40333,0.10084 -0.66867,0.14329 -0.25473,0.0425 -0.54661,0.0637 -0.87564,0.0637 -0.90217,0 -1.56023,-0.26534 -1.97416,-0.79603 -0.41395,-0.5413 -0.62091,-1.32673 -0.62091,-2.35627 l 0,-6.35236 -2.06969,0 0,-1.62391 4.02794,0 0,8.11956 c -10e-6,0.50946 0.10082,0.85441 0.30249,1.03485 0.20166,0.18043 0.45639,0.27065 0.76419,0.27065 0.39271,0 0.72174,-0.0531 0.98709,-0.15921 0.26534,-0.10614 0.44046,-0.17513 0.52538,-0.20697 l 0.25473,1.57615"
         style=""
         id="path3081" />
      <path
         d="m -959.01306,571.25028 c 0.21227,0 0.41924,0 0.6209,0 0.20166,-0.0106 0.37679,-0.0265 0.52539,-0.0478 l 0,-1.71944 c -0.12737,-0.0212 -0.28127,-0.0371 -0.4617,-0.0478 -0.18044,-0.0212 -0.34496,-0.0318 -0.49355,-0.0318 -0.20166,0 -0.39802,0.0159 -0.58906,0.0478 -0.19105,0.0212 -0.36087,0.0637 -0.50946,0.12737 -0.13799,0.0637 -0.24943,0.1539 -0.33434,0.27065 -0.0849,0.11676 -0.12737,0.27066 -0.12737,0.4617 0,0.33965 0.12737,0.58376 0.3821,0.73235 0.25473,0.13799 0.58376,0.20697 0.98709,0.20697 m -0.17513,-6.27276 c 0.61559,10e-6 1.12506,0.0743 1.52839,0.22289 0.41393,0.13799 0.74296,0.33965 0.98708,0.60499 0.24411,0.25474 0.41924,0.57315 0.52538,0.95524 0.10614,0.37149 0.1592,0.79074 0.15921,1.25774 l 0,4.4578 c -0.28658,0.0637 -0.71113,0.13798 -1.27366,0.22289 -0.56253,0.0849 -1.19405,0.12736 -1.89456,0.12736 -0.47763,0 -0.91279,-0.0424 -1.3055,-0.12736 -0.3821,-0.0849 -0.71113,-0.22289 -0.98708,-0.41394 -0.27596,-0.20166 -0.48824,-0.45639 -0.63683,-0.76419 -0.1486,-0.31842 -0.22289,-0.70582 -0.22289,-1.16222 0,-0.43516 0.0849,-0.80134 0.25473,-1.09853 0.16982,-0.29718 0.39802,-0.53599 0.68459,-0.71643 0.28657,-0.18043 0.6156,-0.30779 0.98708,-0.38209 0.37148,-0.0849 0.75889,-0.12737 1.16222,-0.12737 0.50946,0 0.96054,0.0425 1.35326,0.12737 l 0,-0.23882 c -10e-6,-0.37147 -0.11676,-0.67927 -0.35026,-0.9234 -0.23351,-0.25472 -0.63683,-0.38209 -1.20997,-0.38209 -0.37149,0 -0.73236,0.0265 -1.08261,0.0796 -0.33965,0.0531 -0.6156,0.11676 -0.82788,0.19105 l -0.27065,-1.57615 c 0.24412,-0.0849 0.58906,-0.1592 1.03485,-0.22289 0.44577,-0.0743 0.90747,-0.11144 1.3851,-0.11145"
         style=""
         id="path3083" />
      <path
         d="m -954.0458,565.40738 c 0.35025,-0.0955 0.78011,-0.18573 1.28957,-0.27065 0.52008,-0.0849 1.08261,-0.12736 1.6876,-0.12737 0.59437,10e-6 1.08791,0.0849 1.48063,0.25474 0.3927,0.15921 0.7005,0.39271 0.9234,0.70051 0.23349,0.29719 0.39801,0.65806 0.49354,1.08261 0.0955,0.41394 0.14328,0.87564 0.14329,1.3851 l 0,4.21899 -1.95825,0 0,-3.96426 c -10e-6,-0.70051 -0.0796,-1.20466 -0.23881,-1.51247 -0.15921,-0.30779 -0.48294,-0.46169 -0.97117,-0.4617 -0.14859,10e-6 -0.29719,0.005 -0.44578,0.0159 -0.13798,0.0106 -0.28657,0.0265 -0.44578,0.0478 l 0,5.87475 -1.95824,0 0,-7.24393"
         style=""
         id="path3085" />
      <path
         d="m -943.45853,571.17068 c 0.47762,0 0.84379,-0.0318 1.09853,-0.0955 0.25473,-0.0743 0.38209,-0.21759 0.3821,-0.42986 -10e-6,-0.13798 -0.0425,-0.25473 -0.12737,-0.35026 -0.0743,-0.0955 -0.18574,-0.17512 -0.33433,-0.23881 -0.13799,-0.0743 -0.3025,-0.14328 -0.49355,-0.20697 -0.18043,-0.0637 -0.37148,-0.12736 -0.57314,-0.19105 -0.28658,-0.0849 -0.57846,-0.18043 -0.87564,-0.28657 -0.29719,-0.11675 -0.56784,-0.26004 -0.81196,-0.42986 -0.24412,-0.16982 -0.44578,-0.38209 -0.60498,-0.63683 -0.15921,-0.26534 -0.23882,-0.59437 -0.23881,-0.98708 -10e-6,-0.31841 0.0584,-0.6156 0.17512,-0.89156 0.12737,-0.28657 0.31842,-0.53599 0.57315,-0.74828 0.26534,-0.22288 0.59968,-0.3927 1.003,-0.50946 0.40333,-0.12736 0.88625,-0.19104 1.44879,-0.19105 0.48823,10e-6 0.93932,0.0372 1.35326,0.11145 0.42455,0.0743 0.79072,0.18044 1.09853,0.31841 l -0.30249,1.65576 c -0.18045,-0.0531 -0.46171,-0.13798 -0.8438,-0.25474 -0.38211,-0.12736 -0.81196,-0.19104 -1.28958,-0.19104 -0.49885,0 -0.83849,0.0637 -1.01893,0.19104 -0.16982,0.11676 -0.25473,0.24413 -0.25473,0.3821 0,0.11676 0.0371,0.2229 0.11145,0.31842 0.0849,0.0849 0.19104,0.16452 0.31841,0.23881 0.13798,0.0743 0.29188,0.14859 0.4617,0.22289 0.18043,0.0637 0.37148,0.12737 0.57315,0.19105 0.28657,0.0955 0.58375,0.20166 0.89156,0.31841 0.30779,0.11676 0.58375,0.26535 0.82788,0.44578 0.25472,0.16982 0.46169,0.39271 0.6209,0.66867 0.1592,0.26535 0.23881,0.59438 0.23881,0.98708 0,0.30781 -0.0584,0.59969 -0.17512,0.87564 -0.11676,0.27596 -0.31312,0.51477 -0.58907,0.71643 -0.26535,0.20167 -0.61561,0.36087 -1.05077,0.47763 -0.43517,0.11675 -0.97117,0.17512 -1.60799,0.17512 -0.64744,0 -1.19936,-0.0743 -1.65575,-0.22289 -0.4564,-0.14859 -0.82258,-0.28126 -1.09853,-0.39801 l 0.30249,-1.63984 c 0.37148,0.1486 0.76419,0.28658 1.17813,0.41394 0.42455,0.12737 0.85441,0.19105 1.28958,0.19105"
         style=""
         id="path3087" />
      <path
         d="m -936.85144,566.79248 -1.70351,0 0,-1.62391 1.70351,0 0,-1.87864 1.95825,-0.31842 0,2.19706 3.13638,0 0,1.62391 -3.13638,0 0,3.02494 c 0,0.27596 0.0265,0.49885 0.0796,0.66867 0.0531,0.16982 0.12736,0.30249 0.22289,0.39802 0.0955,0.0955 0.21227,0.15921 0.35025,0.19105 0.13798,0.0318 0.29188,0.0478 0.4617,0.0478 0.18043,0 0.34494,-0.005 0.49354,-0.0159 0.15921,-0.0106 0.3078,-0.0265 0.44578,-0.0478 0.14859,-0.0318 0.29718,-0.0743 0.44578,-0.12736 0.1592,-0.0531 0.32902,-0.12206 0.50947,-0.20697 l 0.27065,1.6876 c -0.36088,0.14859 -0.75359,0.25473 -1.17813,0.31841 -0.41395,0.0637 -0.81727,0.0955 -1.20998,0.0955 -0.4564,0 -0.85972,-0.0371 -1.20997,-0.11144 -0.35026,-0.0743 -0.64745,-0.21758 -0.89156,-0.42986 -0.24412,-0.21228 -0.42986,-0.50946 -0.55723,-0.89156 -0.12737,-0.39271 -0.19105,-0.90217 -0.19105,-1.52839 l 0,-3.0727"
         style=""
         id="path3089" />
      <path
         d="m -930.6742,568.97362 c 0,-0.65805 0.10083,-1.2365 0.3025,-1.73536 0.20166,-0.49884 0.467,-0.91278 0.79603,-1.24181 0.32903,-0.33964 0.70582,-0.59437 1.13037,-0.7642 0.42455,-0.16981 0.85972,-0.25472 1.3055,-0.25473 1.10383,10e-6 1.94232,0.32904 2.51547,0.98709 0.57314,0.64745 0.85971,1.59738 0.85972,2.8498 -1e-5,0.12737 -0.005,0.26005 -0.0159,0.39802 -10e-6,0.13799 -0.005,0.24943 -0.0159,0.33434 l -4.85582,0 c 0,0.48824 0.20166,0.87564 0.60499,1.16221 0.40332,0.27596 0.9234,0.41394 1.56023,0.41394 0.39271,0 0.76419,-0.0425 1.11445,-0.12737 0.36086,-0.0849 0.66336,-0.16982 0.90748,-0.25473 l 0.27065,1.67168 c -0.33965,0.11675 -0.70052,0.21227 -1.08261,0.28657 -0.3821,0.0849 -0.81196,0.12736 -1.28957,0.12736 -0.63684,0 -1.20998,-0.0796 -1.71944,-0.23881 -0.49885,-0.16982 -0.92871,-0.41393 -1.28958,-0.73235 -0.35026,-0.32903 -0.62091,-0.73235 -0.81195,-1.20997 -0.19105,-0.47762 -0.28658,-1.03485 -0.28658,-1.67168 m 5.01503,-0.78011 c -10e-6,-0.20166 -0.0265,-0.39271 -0.0796,-0.57315 -0.0531,-0.19104 -0.13798,-0.36086 -0.25473,-0.50946 -0.11676,-0.14859 -0.26535,-0.26534 -0.44578,-0.35026 -0.18044,-0.0955 -0.40333,-0.14328 -0.66867,-0.14328 -0.25473,0 -0.47762,0.0425 -0.66867,0.12736 -0.18044,0.0849 -0.33434,0.20167 -0.4617,0.35026 -0.11675,0.1486 -0.21228,0.31842 -0.28657,0.50946 -0.0637,0.19105 -0.10614,0.38741 -0.12737,0.58907 l 2.9931,0"
         style=""
         id="path3091" />
      <path
         d="m -916.25003,567.15866 c -0.12737,-0.0318 -0.28127,-0.0637 -0.4617,-0.0955 -0.16983,-0.0318 -0.34496,-0.0584 -0.52539,-0.0796 -0.18044,-0.0318 -0.35556,-0.0531 -0.52538,-0.0637 -0.16982,-0.0106 -0.31311,-0.0159 -0.42986,-0.0159 -0.27596,0 -0.54661,0.0159 -0.81195,0.0478 -0.26535,0.0212 -0.53601,0.069 -0.81196,0.14329 l 0,5.55633 -1.97417,0 0,-6.9892 c 0.52008,-0.19104 1.05077,-0.34494 1.59207,-0.4617 0.55192,-0.11674 1.19405,-0.17512 1.92641,-0.17513 0.10613,1e-5 0.25472,0.005 0.44578,0.0159 0.20166,0.0106 0.41393,0.0318 0.63683,0.0637 0.22288,0.0212 0.44577,0.0531 0.66867,0.0955 0.23349,0.0318 0.44046,0.0796 0.6209,0.14329 l -0.35025,1.81496"
         style=""
         id="path3093" />
      <path
         d="m -909.83398,571.39357 c -10e-6,0.46701 -0.14329,0.82257 -0.42986,1.06669 -0.28658,0.24412 -0.61561,0.36617 -0.98709,0.36617 -0.19105,0 -0.37148,-0.0318 -0.5413,-0.0955 -0.16982,-0.0637 -0.32372,-0.1539 -0.4617,-0.27065 -0.12737,-0.12737 -0.23351,-0.27596 -0.31841,-0.44578 -0.0743,-0.18044 -0.11145,-0.38741 -0.11145,-0.62091 0,-0.22289 0.0371,-0.41924 0.11145,-0.58907 0.0849,-0.18043 0.19104,-0.32902 0.31841,-0.44578 0.13798,-0.11675 0.29188,-0.20696 0.4617,-0.27065 0.16982,-0.0637 0.35025,-0.0955 0.5413,-0.0955 0.37148,0 0.70051,0.12206 0.98709,0.36617 0.28657,0.24412 0.42985,0.58907 0.42986,1.03485"
         style=""
         id="path3095" />
      <path
         d="m -901.79402,568.86218 c -10e-6,-0.70051 -0.11676,-1.23651 -0.35026,-1.608 -0.22289,-0.37147 -0.56784,-0.55721 -1.03484,-0.55722 -0.21228,10e-6 -0.42456,0.0318 -0.63683,0.0955 -0.20167,0.0531 -0.37679,0.12207 -0.52539,0.20697 l 0,4.05978 c 0.1486,0.0319 0.3025,0.0531 0.46171,0.0637 0.16981,0.0106 0.3131,0.0159 0.42985,0.0159 0.50946,0 0.91279,-0.16982 1.20998,-0.50946 0.29718,-0.35026 0.44577,-0.93932 0.44578,-1.7672 m 1.99009,0.0478 c -10e-6,0.59438 -0.0796,1.13568 -0.23881,1.62391 -0.15922,0.47762 -0.39272,0.88626 -0.70051,1.2259 -0.30781,0.33964 -0.6846,0.60498 -1.13037,0.79603 -0.44579,0.18044 -0.95525,0.27065 -1.52839,0.27065 -0.50947,0 -1.02955,-0.0371 -1.56023,-0.11144 -0.5307,-0.0743 -0.97647,-0.16982 -1.33734,-0.28657 l 0,-10.49175 1.95824,-0.33434 0,3.74137 c 0.27596,-0.12736 0.54131,-0.21227 0.79604,-0.25473 0.25473,-0.0531 0.50946,-0.0796 0.76419,-0.0796 0.48823,10e-6 0.91809,0.0955 1.28958,0.28658 0.37148,0.18044 0.67928,0.44578 0.9234,0.79603 0.25473,0.33965 0.44578,0.74828 0.57315,1.2259 0.12736,0.47762 0.19104,1.00831 0.19105,1.59207"
         style=""
         id="path3097" />
      <path
         d="m -891.81174,565.16857 c -0.20167,0.70052 -0.39803,1.39042 -0.58907,2.06969 -0.18044,0.66868 -0.37149,1.32673 -0.57314,1.97417 -0.20167,0.63683 -0.41925,1.26305 -0.65275,1.87865 -0.2229,0.6156 -0.46701,1.21528 -0.73235,1.79904 -0.20167,0.42455 -0.40333,0.79072 -0.60499,1.09853 -0.19105,0.30779 -0.40864,0.55722 -0.65275,0.74827 -0.23351,0.20166 -0.49885,0.35025 -0.79604,0.44578 -0.28657,0.0955 -0.62621,0.14328 -1.01892,0.14329 -0.32903,-1e-5 -0.63152,-0.0265 -0.90748,-0.0796 -0.26535,-0.0531 -0.48824,-0.12206 -0.66867,-0.20697 l 0.36617,-1.63983 c 0.21228,0.0955 0.39802,0.15921 0.55723,0.19105 0.16982,0.0424 0.35025,0.0637 0.5413,0.0637 0.3821,0 0.6899,-0.12737 0.9234,-0.3821 0.23351,-0.25473 0.41925,-0.55722 0.55723,-0.90748 -0.46701,-0.93401 -0.93402,-2.0007 -1.40102,-3.20006 -0.46701,-1.20997 -0.89156,-2.542 -1.27366,-3.9961 l 2.03785,0 c 0.0955,0.39272 0.20166,0.81196 0.31841,1.25774 0.12737,0.44578 0.26004,0.89156 0.39802,1.33734 0.13798,0.44578 0.28127,0.88625 0.42986,1.32142 0.15921,0.42455 0.31841,0.82257 0.47762,1.19405 0.10614,-0.37148 0.21758,-0.7695 0.33434,-1.19405 0.11675,-0.43517 0.22819,-0.87033 0.33433,-1.3055 0.10614,-0.44578 0.20697,-0.89156 0.3025,-1.33734 0.10613,-0.44578 0.20165,-0.87033 0.28657,-1.27366 l 2.00601,0"
         style=""
         id="path3099" />
    </g>
    <flowRoot
       xml:space="preserve"
       id="flowRoot3062"
       style="fill:black;stroke:none;stroke-opacity:1;stroke-width:1px;stroke-linejoin:miter;stroke-linecap:butt;fill-opacity:1;font-family:Ubuntu Mono;font-style:normal;font-weight:normal;font-size:40px;line-height:125%;letter-spacing:0px;word-spacing:0px;-inkscape-font-specification:Ubuntu Mono;font-stretch:normal;font-variant:normal"><flowRegion
         id="flowRegion3064"><rect
           id="rect3066"
           width="331.83511"
           height="228.79955"
           x="-15.657365"
           y="12.03739" /></flowRegion><flowPara
         id="flowPara3068"></flowPara></flowRoot>  </g>
</svg>
