<?xml version="1.0" encoding="UTF-8" standalone="no"?>
<svg
   xmlns:dc="http://purl.org/dc/elements/1.1/"
   xmlns:cc="http://creativecommons.org/ns#"
   xmlns:rdf="http://www.w3.org/1999/02/22-rdf-syntax-ns#"
   xmlns:svg="http://www.w3.org/2000/svg"
   xmlns="http://www.w3.org/2000/svg"
   version="1.1"
   id="svg5174"
   viewBox="0 0 155.33637 194.88188"
   height="194.88188"
   width="155.33636">
  <defs
     id="defs5176" />
  <metadata
     id="metadata5179">
    <rdf:RDF>
      <cc:Work
         rdf:about="">
        <dc:format>image/svg+xml</dc:format>
        <dc:type
           rdf:resource="http://purl.org/dc/dcmitype/StillImage" />
        <dc:title></dc:title>
      </cc:Work>
    </rdf:RDF>
  </metadata>
  <g
     transform="translate(893.99081,-302.87854)"
     id="layer1">
    <g
       transform="matrix(0.91657439,0,0,0.91657433,-48.265199,6.6443125)"
       id="g5507">
      <path
         style="fill:#ffffff;stroke:#cccccc;stroke-width:1.0234617px;stroke-linecap:butt;stroke-linejoin:miter;stroke-opacity:1"
         d="m -922.15037,386.57727 c 0.54379,-22.73505 16.77285,-52.12489 34.37015,-58.93469 14.39243,-5.19727 32.79452,-5.43146 43.18906,0.56539 10.39453,5.99684 14.52961,5.36286 18.12771,3.7637 3.59812,-1.59916 9.85757,5.57697 9.85757,5.57697 0,0 6.32803,0.35129 10.72572,6.74792 4.39768,6.39664 4.3776,14.72363 11.9736,18.32174 7.59601,3.5981 22.17413,3.36391 22.17413,3.36391 l 9.84923,-1.46197 c 0,0 3.74362,4.61179 4.1434,7.01052 0.3998,2.39874 -0.96517,13.06764 -0.96517,13.06764 0,0 0.84809,21.05167 0.84809,27.8481 0,6.79642 -2.14447,16.0685 -4.54321,19.66661 -2.39874,3.59811 -7.6445,9.61505 -12.44198,10.41463 -4.79747,0.79958 -24.64145,0.23419 -24.64145,0.23419 l -0.51687,8.46418 c 8.11208,7.56129 -0.30215,0.17379 12.21835,10.64766 6.88927,-3.25656 17.20518,-1.86482 24.2311,2.35972 7.19621,4.39769 10.36249,14.63345 9.73214,22.90511 -0.66854,8.7729 -5.81514,18.94046 -13.88386,22.4485 -9.76637,4.24612 -23.07638,2.67933 -31.33256,-6.2428 0.22294,7.96932 -4.25874,19.53648 -11.58557,25.15001 -9.10994,6.97967 -22.50533,7.95561 -33.94195,5.77097 -7.90272,-1.50959 -20.41769,-11.10542 -22.81643,-19.10122 -2.39874,-7.99579 -1.10236,-11.3313 -0.70258,-13.73003 0.3998,-2.39874 2.30174,-7.31331 4.70047,-10.51163 0.70258,-0.93677 -7.596,2.79852 -13.19305,2.79852 -20.90377,0.77902 -29.1323,-12.74783 -28.50218,-26.36603 0.79958,-11.59391 6.29963,-16.80294 13.29008,-24.05597 -4.60218,-3.76048 -19.73356,-14.71979 -23.16772,-21.93994 -3.59811,-7.9958 -7.69207,-14.05103 -7.19622,-34.78171 z"
         id="path3209" />
      <g
         id="g3321"
         style="fill:#00d400">
        <path
           transform="matrix(-0.40410859,-0.1014165,-0.1014165,0.40410859,-1131.7284,229.38597)"
           style="fill:#00d400;fill-opacity:1;stroke:none"
           d="m -924.9253,391.89828 a 43.819698,43.819698 0 0 1 -43.8197,43.8197 43.819698,43.819698 0 0 1 -43.8197,-43.8197 43.819698,43.819698 0 0 1 43.8197,-43.81969 43.819698,43.819698 0 0 1 43.8197,43.81969 z"
           id="path3787-9-0-6-9-3-8-1" />
        <path
           transform="matrix(-0.40410859,-0.1014165,-0.1014165,0.40410859,-1131.7284,227.36313)"
           style="fill:#00d400;fill-opacity:1;stroke:none"
           d="m -807.41858,464.19125 a 43.819698,43.819698 0 0 1 -43.8197,43.8197 43.819698,43.819698 0 0 1 -43.8197,-43.8197 43.819698,43.819698 0 0 1 43.8197,-43.81969 43.819698,43.819698 0 0 1 43.8197,43.81969 z"
           id="path3787-3-9-6-4-2-8-3-9" />
        <path
           transform="matrix(-0.40410859,-0.1014165,-0.1014165,0.40410859,-1131.7284,229.38597)"
           style="fill:#00d400;fill-opacity:1;stroke:none"
           d="m -686.75318,407.87918 a 43.819698,43.819698 0 0 1 -43.8197,43.8197 43.819698,43.819698 0 0 1 -43.81969,-43.8197 43.819698,43.819698 0 0 1 43.81969,-43.8197 43.819698,43.819698 0 0 1 43.8197,43.8197 z"
           id="path3787-5-3-8-0-7-2-9-1" />
        <path
           transform="matrix(-0.60065201,0.79951058,0.76665978,0.64205357,0,0)"
           style="fill:#00d400;fill-opacity:1;stroke:none"
           d="m 876.68,-389.9155 c 3.47873,0 6.2793,2.80057 6.2793,6.27931 l 0,56.72208 c 0,3.47874 -2.80057,6.27931 -6.2793,6.27931 -3.47874,0 -6.2793,-2.80057 -6.2793,-6.27931 l 0,-56.72208 c 0,-3.47874 2.80056,-6.27931 6.2793,-6.27931 z"
           id="rect3855-5-71-7-0-5-8-6" />
        <path
           transform="matrix(-0.26785106,-0.96346033,-0.97626608,0.21657457,0,0)"
           style="fill:#00d400;fill-opacity:1;stroke:none"
           d="m -263.91757,910.6947 c 3.47874,0 6.27931,2.80057 6.27931,6.2793 l 0,56.72209 c 0,3.47874 -2.80057,6.27931 -6.27931,6.27931 -3.47873,0 -6.2793,-2.80057 -6.2793,-6.27931 l 0,-56.72209 c 0,-3.47873 2.80057,-6.2793 6.2793,-6.2793 z"
           id="rect3855-6-6-5-6-8-6-2-6" />
        <path
           transform="matrix(-0.40410859,-0.1014165,-0.1014165,0.40410859,-1131.7284,229.38597)"
           style="fill:#ffffff;fill-opacity:1;stroke:none"
           d="m -940.81901,391.89832 a 28.222857,28.222857 0 0 1 -28.22286,28.22285 28.222857,28.222857 0 0 1 -28.22286,-28.22285 28.222857,28.222857 0 0 1 28.22286,-28.22286 28.222857,28.222857 0 0 1 28.22286,28.22286 z"
           id="path3896-12-9-4-0-8-9-69" />
        <path
           transform="matrix(-0.99526787,-0.09716931,-0.14961647,0.98874411,0,0)"
           style="fill:#00d400;fill-opacity:1;stroke:none"
           d="m 750.3501,522.82288 c 3.47874,0 6.27931,2.80056 6.27931,6.2793 l 0,56.72209 c 0,3.47873 -2.80057,6.2793 -6.27931,6.2793 -3.47873,0 -6.2793,-2.80057 -6.2793,-6.2793 l 0,-56.72209 c 0,-3.47874 2.80057,-6.2793 6.2793,-6.2793 z"
           id="rect3855-89-9-0-5-6-8-5-2" />
        <path
           transform="matrix(-0.40410859,-0.1014165,-0.1014165,0.40410859,-1131.7284,227.36313)"
           style="fill:#ffffff;fill-opacity:1;stroke:none"
           d="m -823.90642,464.19131 a 28.222857,28.222857 0 0 1 -28.22285,28.22286 28.222857,28.222857 0 0 1 -28.22286,-28.22286 28.222857,28.222857 0 0 1 28.22286,-28.22285 28.222857,28.222857 0 0 1 28.22285,28.22285 z"
           id="path3896-7-7-2-6-1-6-1-0" />
        <path
           transform="matrix(-0.40410859,-0.1014165,-0.1014165,0.40410859,-1131.7284,229.38597)"
           style="fill:#ffffff;fill-opacity:1;stroke:none"
           d="m -702.49833,407.285 a 28.222857,28.222857 0 0 1 -28.22286,28.22286 28.222857,28.222857 0 0 1 -28.22286,-28.22286 28.222857,28.222857 0 0 1 28.22286,-28.22285 28.222857,28.222857 0 0 1 28.22286,28.22285 z"
           id="path3896-1-4-7-6-4-6-1-9" />
        <path
           transform="matrix(-0.00140643,-0.99999901,0.99999927,-0.00120857,0,0)"
           style="fill:#00d400;fill-opacity:1;stroke:none"
           d="m -398.81828,-885.24426 c 9.21079,0 16.62597,7.87037 16.62597,17.64657 l 0,26.36607 c 0,9.7762 -7.41518,17.64657 -16.62597,17.64657 -9.21078,0 -16.62596,-7.87037 -16.62596,-17.64657 l 0,-26.36607 c 0,-9.7762 7.41518,-17.64657 16.62596,-17.64657 z"
           id="rect2985-79-7-0-7-2-4-0-3" />
        <path
           transform="matrix(0.9986793,0.05137751,-0.00225171,0.99999746,0,0)"
           style="fill:#00d400;fill-opacity:1;stroke:none"
           d="m -825.68445,391.4335 c 9.17146,0 16.55498,6.95411 16.55498,15.59216 l 0,81.94651 c 0,8.63806 -7.38352,15.59216 -16.55498,15.59216 -9.17147,0 -16.55499,-6.9541 -16.55499,-15.59216 l 0,-81.94651 c 0,-8.63805 7.38352,-15.59216 16.55499,-15.59216 z"
           id="rect2985-79-5-8-8-2-7-6-8" />
        <path
           id="path4099-90-1-7-8-8-3"
           d="m -884.87276,381.63122 c 2.45201,-0.002 4.44222,1.80403 4.44526,4.03648 0.004,2.23256 -1.98267,4.04492 -4.43468,4.04814 -2.45225,0.002 -2.9181,-1.73776 -7.75862,-4.03223 4.76839,-2.19819 5.29578,-4.04922 7.74804,-4.05239 z"
           style="fill:#00d400;fill-opacity:1;stroke:none" />
        <path
           id="path4099-4-2-4-7-7-8-5"
           d="m -876.18039,371.01778 c 1.71743,1.75022 1.81776,4.43666 0.22431,6.00026 -1.59364,1.56364 -4.2776,1.41236 -5.99503,-0.33782 -1.71743,-1.75027 -0.79912,-3.30102 -2.54505,-8.36523 4.90632,1.87029 6.59829,0.95257 8.31548,2.70279 z"
           style="fill:#00d400;fill-opacity:1;stroke:none" />
        <path
           id="path4099-1-5-8-3-3-3-1"
           d="m -860.42897,369.72636 c 0.004,2.45206 -1.80414,4.44229 -4.03662,4.4452 -2.23245,0.002 -4.04492,-1.98257 -4.04796,-4.43467 -0.004,-2.45209 1.73765,-2.91799 4.03208,-7.75852 2.19819,4.76839 4.04924,5.29589 4.0525,7.74799 z"
           style="fill:#00d400;fill-opacity:1;stroke:none" />
        <path
           id="path4099-6-9-8-7-3-8-9"
           d="m -820.98314,350.23694 c -0.0706,2.45114 -1.93476,4.38693 -4.16621,4.32379 -2.23168,-0.0633 -3.98445,-2.10137 -3.91511,-4.55251 0.0706,-2.45108 1.82333,-2.86531 4.25997,-7.63579 2.05625,4.83134 3.89067,5.4134 3.82135,7.86451 z"
           style="fill:#00d400;fill-opacity:1;stroke:none" />
        <path
           id="path4099-18-0-6-8-5-7-6"
           d="m -832.97831,351.29304 c 1.20343,2.13649 0.60222,4.75667 -1.34208,5.85253 -1.94508,1.09566 -4.49742,0.25183 -5.70088,-1.88455 -1.20347,-2.13651 0.0857,-3.39519 -0.28311,-8.73924 4.25139,3.08137 6.12365,2.63498 7.32707,4.77146 z"
           style="fill:#00d400;fill-opacity:1;stroke:none" />
        <path
           id="path4099-99-0-6-1-7-8-7"
           d="m -841.5988,361.00227 c 2.45126,0.0693 4.38701,1.93472 4.32373,4.16629 -0.063,2.23164 -2.10136,3.98449 -4.55238,3.91511 -2.45101,-0.0693 -2.86544,-1.82337 -7.63589,-4.26006 4.83145,-2.05612 5.41353,-3.89071 7.86454,-3.82134 z"
           style="fill:#00d400;fill-opacity:1;stroke:none" />
        <path
           transform="matrix(0.02828895,-0.99959979,0.99959979,0.02828895,0,0)"
           style="fill:#00d400;fill-opacity:1;stroke:none"
           d="m -441.38392,-819.57306 c 9.21078,0 16.62596,7.87037 16.62596,17.64657 l 0,24.08296 c 0,9.7762 -7.41518,17.64657 -16.62596,17.64657 -9.21079,0 -16.62597,-7.87037 -16.62597,-17.64657 l 0,-24.08296 c 0,-9.7762 7.41518,-17.64657 16.62597,-17.64657 z"
           id="rect2985-79-4-5-6-7-6-7-5-6" />
        <path
           transform="matrix(0.99956015,0.02965656,-0.02698431,0.99963586,0,0)"
           style="fill:#00d400;fill-opacity:1;stroke:none"
           d="m -772.93093,396.67514 c 9.21115,0 16.62662,7.86168 16.62662,17.62708 l 0,26.99266 c 0,9.7654 -7.41547,17.62708 -16.62662,17.62708 -9.21115,0 -16.62663,-7.86168 -16.62663,-17.62708 l 0,-26.99266 c 0,-9.7654 7.41548,-17.62708 16.62663,-17.62708 z"
           id="rect2985-79-4-5-6-7-6-7-5-6-3" />
        <path
           transform="matrix(0.99975163,0.02228648,-0.03590475,0.99935522,0,0)"
           style="fill:#00d400;fill-opacity:1;stroke:none"
           d="m -853.28434,388.54266 c 9.20939,0 16.62344,7.86264 16.62344,17.62923 l 0,11.52331 c 0,9.76659 -7.41405,17.62923 -16.62344,17.62923 -9.20938,0 -16.62344,-7.86264 -16.62344,-17.62923 l 0,-11.52331 c 0,-9.76659 7.41406,-17.62923 16.62344,-17.62923 z"
           id="rect2985-79-4-5-6-7-6-7-5-6-3-6" />
        <path
           id="path4099-18-0-6-8-5-7-6-3"
           d="m -791.37897,375.58654 c 1.38995,2.0201 1.02585,4.68361 -0.81246,5.94922 -1.83912,1.26547 -4.45678,0.65367 -5.84677,-1.36634 -1.39001,-2.02011 -0.21877,-3.38922 -1.06477,-8.67874 4.5103,2.68818 6.33505,2.07587 7.72502,4.09597 z"
           style="fill:#00d400;fill-opacity:1;stroke:none" />
        <path
           id="path4099-18-0-6-8-5-7-6-6"
           d="m -774.44885,376.16291 c -1.67654,1.78942 -1.71501,4.47742 -0.0867,6.0038 1.62911,1.52637 4.30884,1.31306 5.98539,-0.47625 1.67657,-1.78945 0.72333,-3.31836 2.35116,-8.42179 -4.86172,1.98316 -6.57433,1.10476 -8.25085,2.89418 z"
           style="fill:#00d400;fill-opacity:1;stroke:none" />
      </g>
      <g
         style="font-style:normal;font-variant:normal;font-weight:normal;font-stretch:normal;font-size:28.51474762px;line-height:125%;font-family:'Ubuntu Mono';-inkscape-font-specification:'Ubuntu Mono';letter-spacing:0px;word-spacing:0px;fill:#333333;fill-opacity:1;stroke:none"
         id="text3121-6">
        <path
           d="m -887.13198,436.94846 q -1.18805,-0.26608 -2.4657,-0.79042 -1.32569,-0.51242 -2.49499,-1.21666 -1.13933,-0.68618 -2.0623,-1.52806 -0.94104,-0.8119 -1.46164,-1.77916 -0.5206,-0.96726 -0.53083,-2.03572 -0.0283,-1.03847 0.6579,-2.1778 0.32503,-0.53968 0.82382,-0.89299 0.4988,-0.35331 1.06335,-0.54445 0.56454,-0.19114 1.11683,-0.22624 0.5223,-0.0532 0.95432,0.0436 -0.88652,-1.10593 -1.14853,-2.36688 -0.31005,-1.24903 0.5567,-2.68818 1.20984,-2.0088 3.58695,-2.08888 2.32907,-0.0682 5.23734,1.68341 1.79894,1.08344 2.95564,2.1478 1.12672,1.04631 1.52194,1.6112 l -1.77371,1.79178 q -0.35945,-0.42077 -1.34818,-1.42483 -1.00679,-0.97408 -2.65581,-1.96723 -1.97883,-1.19178 -3.22139,-1.16384 -1.24255,0.0279 -1.82039,0.98737 -0.65006,1.07936 -0.1298,2.25071 0.52027,1.17135 2.04936,2.09227 l 2.93826,1.76962 -1.19179,1.97882 -2.75836,-1.66127 q -1.52909,-0.92092 -2.58562,-0.86266 -1.05653,0.0583 -1.5802,0.92775 -0.55977,0.92945 -0.0453,1.97473 0.51447,1.04529 2.3134,2.12873 0.8395,0.5056 2.07525,0.96385 1.20576,0.44019 2.20198,0.54989 l -0.7785,2.51373 z"
           style="font-size:35.00000381px;letter-spacing:-2.5400002px;fill:#333333"
           id="path5032" />
        <path
           d="m -905.72474,415.30654 q 0.95745,-0.43103 2.0713,-0.85571 1.06756,-0.44222 2.21014,-0.80306 1.0963,-0.3784 2.2357,-0.66104 1.10749,-0.26828 2.14479,-0.35143 2.10651,-0.18067 4.0041,0.53877 1.8976,0.71943 3.24487,3.03003 l -2.06164,1.38873 q -0.8875,-1.28932 -2.01266,-1.74237 -1.17143,-0.47059 -2.50398,-0.44644 -1.14423,0.0161 -2.4432,0.37062 -1.31335,0.32257 -2.69688,0.83027 -1.38353,0.50771 -2.72396,1.11115 -1.34043,0.60345 -2.52129,1.13506 l -3.93677,-8.74471 14.80855,-6.66665 1.19253,2.64894 -12.60642,5.67528 1.59482,3.54256 z"
           style="font-size:35.00000381px;letter-spacing:-2.5400002px;fill:#333333"
           id="path5034" />
        <path
           d="m -893.06706,401.44017 q 0.16341,-0.32116 0.24795,-0.88461 0.0833,-0.59843 0.0654,-1.08811 -0.0625,-1.71386 -0.86635,-2.63019 -0.77019,-0.95259 -2.51337,-1.69461 -3.63617,2.0938 -7.80591,3.96187 -4.20472,1.86935 -8.39613,3.14282 l -0.1147,-3.14791 q 1.38632,-0.40075 3.01367,-0.91535 1.59108,-0.5483 3.28328,-1.20535 1.6922,-0.65706 3.41682,-1.38534 1.68838,-0.76199 3.23429,-1.58883 -1.62932,-0.501 -3.22112,-0.93332 -1.5918,-0.43233 -3.18105,-0.7947 -1.62422,-0.36109 -3.28343,-0.72091 -1.69417,-0.35855 -3.56451,-0.7457 l -0.10961,-3.00801 q 4.58777,0.95358 8.90592,2.19717 4.31687,1.2086 8.01181,2.65002 1.42073,0.54362 2.46055,1.2062 1.03854,0.6276 1.73241,1.40785 0.69388,0.78025 1.04563,1.78311 0.35175,1.00285 0.3989,2.29699 0.0242,0.66456 -0.12135,1.4754 -0.14685,0.77586 -0.27656,1.06078 l -2.36256,-0.43927 z"
           style="font-size:35.00000381px;letter-spacing:-2.5400002px;fill:#333333"
           id="path5036" />
        <path
           d="m -911.3842,379.37845 4.59396,1.24624 q 1.7903,0.48566 2.75624,-0.26772 0.9751,-0.78716 1.43328,-2.47612 0.32988,-1.21605 0.44847,-2.05424 0.0848,-0.84735 0.09,-1.53498 l -7.39764,-2.0068 0.76057,-2.80367 15.67353,4.25186 -0.76057,2.80367 -6.04647,-1.64027 q 0.003,0.25479 -0.0144,0.72141 -0.0424,0.42367 -0.0877,0.99163 -0.0699,0.52501 -0.15811,1.11759 -0.0882,0.59257 -0.23484,1.13303 -0.36654,1.35117 -0.93917,2.39257 -0.6064,1.03224 -1.46813,1.66884 -0.85256,0.60281 -2.01884,0.75787 -1.20006,0.1459 -2.7539,-0.27562 l -4.62775,-1.2554 0.75141,-2.76989 z"
           style="font-size:35.00000381px;letter-spacing:-2.5400002px;fill:#333333"
           id="path5038" />
        <path
           d="m -889.87224,364.88749 q 0.67744,-0.84753 1.14722,-1.54739 0.49164,-0.7272 0.75927,-1.23019 l -3.77287,-3.01569 q -0.48634,0.32818 -1.07098,0.89143 -0.56278,0.53591 -1.1091,1.2194 -0.50261,0.62881 -0.87401,1.3177 -0.39875,0.66703 -0.52419,1.32848 -0.12544,0.66145 0.0443,1.28997 0.14237,0.60668 0.74384,1.08744 1.23029,0.98338 2.37798,0.55654 1.14221,-0.47603 2.27856,-1.89769 z m -11.54811,-8.87205 q 1.13634,-1.42166 2.25661,-2.09446 1.14211,-0.70014 2.25168,-0.799 1.10958,-0.0989 2.20846,0.37623 1.09888,0.47508 2.16513,1.32734 l 7.92849,6.33731 q -0.49703,0.90212 -1.35458,2.36739 -0.83571,1.43793 -1.92835,2.80491 -0.8304,1.03891 -1.80848,1.87017 -0.95074,0.85311 -2.00005,1.26897 -1.07666,0.39401 -2.241,0.22506 -1.16435,-0.16896 -2.39463,-1.15234 -1.09359,-0.87411 -1.46026,-1.92891 -0.37216,-1.10399 -0.24691,-2.21366 0.14711,-1.137 0.72058,-2.24686 0.56798,-1.15905 1.35468,-2.14328 1.07079,-1.33964 2.3986,-2.38422 l -0.62881,-0.50262 q -0.57413,-0.45891 -1.20285,-0.73741 -0.6342,-0.3277 -1.35572,-0.32193 -0.69967,-0.0216 -1.42649,0.38323 -0.7323,0.35561 -1.4753,1.28515 -0.93967,1.17561 -1.47492,2.18159 -0.53525,1.00599 -0.74271,1.60188 l -2.07762,-1.2126 q 0.15278,-0.63959 0.841,-1.83695 0.71007,-1.22471 1.69345,-2.45499 z"
           style="font-size:35.00000381px;letter-spacing:-2.5400002px;fill:#333333"
           id="path5040" />
        <path
           d="m -875.20329,340.29394 5.10616,15.41638 -2.69122,0.89138 -3.89565,-11.76164 q -0.52292,1.42678 -1.01345,3.28527 -0.45731,1.84748 -0.91483,3.80564 -0.4353,1.91394 -0.81515,3.77264 -0.37986,1.85869 -0.67041,3.31912 l -2.45865,0.81434 -5.10616,-15.41638 2.65799,-0.88037 3.67556,11.09713 q 0.335,-1.54888 0.73686,-3.34113 0.39086,-1.82547 0.85917,-3.63973 0.45731,-1.84748 0.96964,-3.52884 0.50133,-1.71458 1.10149,-3.01946 l 2.45865,-0.81435 z m -6.67295,-0.55505 q -1.86059,0.61626 -3.3316,0.0711 -1.48201,-0.57836 -2.30904,-2.1848 l 1.90609,-1.25812 q 0.58493,0.87549 1.34784,1.28646 0.75191,0.37775 1.71543,0.0586 0.96352,-0.31914 1.34127,-1.07104 0.36674,-0.78513 0.3134,-1.83669 l 2.24703,-0.11746 q 0.29544,1.78251 -0.5483,3.13119 -0.82152,1.30446 -2.68212,1.92072 z"
           style="font-size:35.00000381px;letter-spacing:-2.5400002px;fill:#333333"
           id="path5042" />
        <path
           d="m -856.47747,342.33628 q -0.2985,1.26013 -0.58266,2.30784 -0.28416,1.04771 -0.61223,1.97712 -0.29401,0.93747 -0.62207,1.86688 -0.32001,0.89535 -0.66421,1.89287 l -1.94128,-0.45986 q 0.13986,-1.04593 0.25552,-1.98968 0.12372,-0.97781 0.24745,-1.95563 0.15778,-0.96974 0.37382,-2.03359 0.21604,-1.06385 0.51454,-2.32398 l 1.35538,-5.72166 3.03112,0.71803 -1.35538,5.72166 z m -5.26793,15.40557 q -0.91956,-0.21783 -1.45549,-0.99222 -0.52786,-0.80845 -0.27776,-1.86423 0.2501,-1.05578 1.07647,-1.50746 0.83443,-0.48574 1.75398,-0.26791 0.95361,0.2259 1.44742,1.02627 0.53593,0.77439 0.28583,1.83018 -0.2501,1.05578 -1.08453,1.54152 -0.79231,0.45974 -1.74592,0.23385 z"
           style="font-size:35.00000381px;letter-spacing:-2.5400002px;fill:#333333"
           id="path5044" />
      </g>
      <path
         style="fill:none;stroke:none"
         d="m -875.68854,423.3302 c -26.72151,-4.08983 -24.90249,-46.85178 -9.62837,-60.31165 14.65063,-12.91043 31.80364,-2.58102 31.80364,-2.58102"
         id="path3150" />
      <g
         transform="matrix(-0.43468573,-0.90058225,0.90058215,-0.43468573,-1731.2282,-245.02872)"
         style="font-style:normal;font-variant:normal;font-weight:normal;font-stretch:normal;font-size:7.08267832px;line-height:125%;font-family:'Ubuntu Mono';-inkscape-font-specification:'Ubuntu Mono';letter-spacing:0px;word-spacing:0px;fill:#1a1a1a;fill-opacity:1;stroke:none"
         id="text3125-2">
        <path
           d="m -1060.5471,511.11374 q 0.3248,0.0114 0.5543,0.24457 0.2294,0.23318 0.2159,0.62045 -0.014,0.38726 -0.2589,0.6038 -0.2452,0.21654 -0.57,0.20515 -0.3373,-0.0118 -0.5543,-0.24458 -0.2294,-0.23318 -0.2159,-0.62044 0.014,-0.38727 0.2589,-0.6038 0.2327,-0.21698 0.57,-0.20515 z m 0.3241,-1.75222 1.674,0.0587 -0.03,0.86197 -2.6983,-0.0946 0.1248,-3.56031 q 0.03,-0.86197 -0.1966,-1.17011 -0.2272,-0.29565 -0.702,-0.31229 -0.3622,-0.0127 -0.6651,0.0642 -0.3154,0.0765 -0.4938,0.1703 l -0.1192,-0.87972 q 0.076,-0.0349 0.2158,-0.0925 0.1392,-0.0451 0.3283,-0.0885 0.1767,-0.0438 0.4029,-0.0734 0.2137,-0.03 0.451,-0.0217 0.5497,0.0193 0.9067,0.18188 0.357,0.16262 0.5714,0.47032 0.2018,0.30726 0.2739,0.74756 0.072,0.45279 0.051,1.03992 l -0.095,2.69835 z"
           style="font-size:12.50000095px;letter-spacing:-0.9000001px"
           id="path4971" />
        <path
           d="m -1067.1204,509.61167 -2.4087,-0.44805 0.1577,-0.84795 2.4087,0.44804 0.4938,-2.65446 q 0.08,-0.43013 0.069,-0.71192 -0.011,-0.28179 -0.1143,-0.47898 -0.1178,-0.18719 -0.3276,-0.28979 -0.2097,-0.10259 -0.5293,-0.16203 -0.4424,-0.0823 -0.7264,-0.0588 -0.2841,0.0234 -0.5528,0.10062 l 0.013,-0.88767 q 0.1857,-0.0417 0.5896,-0.0938 0.3915,-0.0543 0.9445,0.0486 0.6391,0.11887 1.0172,0.34178 0.3781,0.2229 0.5567,0.56128 0.1664,0.33609 0.1724,0.78221 0,0.45841 -0.1037,1.036 l -0.4938,2.65447 1.2043,0.22403 -0.1577,0.84795 -1.2043,-0.22402 -0.2972,1.59759 -1.0397,-0.0154 0.3292,-1.76964 z"
           style="font-size:12.50000095px;letter-spacing:-0.9000001px"
           id="path4973" />
        <path
           d="m -1072.4251,502.67618 q 0.1573,-0.3404 0.5049,-0.4965 0.3475,-0.1561 0.722,0.017 0.3858,0.17829 0.4921,0.54415 0.1063,0.36586 -0.051,0.70626 -0.1626,0.35175 -0.5101,0.50785 -0.3476,0.1561 -0.7333,-0.0222 -0.3745,-0.17305 -0.4808,-0.53891 -0.1063,-0.36586 0.056,-0.71761 z"
           style="font-size:12.50000095px;letter-spacing:-0.9000001px"
           id="path4975" />
        <path
           d="m -1074.8734,500.15236 -3.304,3.66914 0.9103,0.81972 -0.5772,0.64094 -0.9103,-0.81973 -0.3513,0.39014 q -0.4517,0.5016 -0.8838,0.70125 -0.4404,0.20893 -0.8474,0.21254 -0.4162,-0.005 -0.7888,-0.18882 -0.3818,-0.19243 -0.7162,-0.49355 -0.3344,-0.30113 -0.6019,-0.67656 -0.2767,-0.3838 -0.482,-0.75365 l 0.7332,-0.53404 q 0.1124,0.2862 0.352,0.63654 0.2396,0.35034 0.5554,0.63473 0.1951,0.17566 0.4218,0.27885 0.209,0.10412 0.4562,0.0912 0.2387,-0.004 0.5054,-0.15039 0.2584,-0.13744 0.5428,-0.45326 l 0.3429,-0.38085 -1.737,-1.56417 0.5771,-0.64093 1.7371,1.56416 3.304,-3.66913 0.7617,0.68589 z"
           style="font-size:12.50000095px;letter-spacing:-0.9000001px"
           id="path4977" />
        <path
           d="m -1079.7743,495.66426 q -0.2106,-0.32523 -0.3947,-0.56343 -0.1909,-0.24869 -0.3311,-0.39617 l -1.4478,0.93782 q 0.056,0.20184 0.1811,0.46353 0.118,0.25119 0.2879,0.51347 0.1563,0.2413 0.3478,0.44493 0.181,0.21042 0.3909,0.32761 0.21,0.11719 0.4421,0.13066 0.2216,0.0203 0.4524,-0.12924 0.4722,-0.30581 0.4571,-0.74287 -0.032,-0.44076 -0.3857,-0.98631 z m -4.31,2.91096 q -0.3534,-0.54555 -0.4548,-1.00109 -0.1083,-0.46603 -0.016,-0.85314 0.092,-0.38711 0.3768,-0.70579 0.2851,-0.31868 0.6943,-0.58372 l 3.0424,-1.97077 q 0.2496,0.27027 0.6492,0.72629 0.3929,0.44552 0.7326,0.97008 0.2583,0.39867 0.4295,0.82393 0.1817,0.41846 0.2041,0.82095 0.012,0.40929 -0.1768,0.78472 -0.1887,0.37543 -0.6608,0.68124 -0.4197,0.27183 -0.8185,0.27696 -0.416,0.001 -0.7779,-0.1663 -0.3686,-0.17823 -0.6799,-0.49786 -0.3286,-0.32332 -0.5732,-0.70101 -0.333,-0.51407 -0.537,-1.08192 l -0.2413,0.15631 q -0.2203,0.14271 -0.3857,0.32428 -0.1826,0.17788 -0.2622,0.423 -0.086,0.23463 -0.031,0.5266 0.038,0.28828 0.2689,0.64498 0.2922,0.45113 0.5726,0.74607 0.2804,0.29495 0.4589,0.43253 l -0.6455,0.56702 q -0.1994,-0.12398 -0.5274,-0.49237 -0.3348,-0.37888 -0.6406,-0.85099 z"
           style="font-size:12.50000095px;letter-spacing:-0.9000001px"
           id="path4979" />
        <path
           d="m -1081.8259,489.4817 q 0.205,0.51039 0.2009,0.90268 0,0.39229 -0.2034,0.70127 -0.1992,0.30898 -0.5726,0.5532 -0.385,0.24888 -0.9302,0.46779 l -5.0923,2.04474 0.6241,1.55437 -0.8119,0.32604 -1.0061,-2.50556 5.9043,-2.37078 q 0.406,-0.16302 0.6426,-0.31188 0.2319,-0.16047 0.3523,-0.33008 0.1043,-0.17655 0.097,-0.36223 -0.01,-0.18569 -0.096,-0.40609 -0.135,-0.33639 -0.3327,-0.59378 -0.1976,-0.25739 -0.3556,-0.38253 l 0.7561,-0.46524 q 0.063,0.0556 0.172,0.15994 0.098,0.10897 0.2139,0.26433 0.1162,0.15537 0.2349,0.35019 0.1139,0.18323 0.2024,0.40362 z"
           style="font-size:12.50000095px;letter-spacing:-0.9000001px"
           id="path4981" />
        <path
           d="m -1083.6348,485.41122 q -0.037,-0.38574 -0.09,-0.68199 -0.055,-0.3087 -0.111,-0.50421 l -1.7172,0.16436 q -0.043,0.20505 -0.053,0.49481 -0.011,0.27732 0.019,0.5884 0.027,0.2862 0.1033,0.55518 0.064,0.27018 0.1958,0.47099 0.1322,0.20081 0.332,0.31982 0.1873,0.1202 0.4611,0.094 0.5599,-0.0536 0.7481,-0.44833 0.1746,-0.40599 0.1127,-1.05303 z m -5.1668,0.59502 q -0.062,-0.64704 0.058,-1.09803 0.1189,-0.46344 0.3789,-0.76458 0.26,-0.30115 0.6599,-0.45244 0.3999,-0.15129 0.8852,-0.19774 l 3.6085,-0.34541 q 0.097,0.3549 0.241,0.94383 0.1431,0.57649 0.2027,1.19865 0.045,0.47284 10e-4,0.92913 -0.032,0.4551 -0.1975,0.82256 -0.1782,0.36866 -0.5188,0.61473 -0.3406,0.24607 -0.9006,0.29967 -0.4977,0.0476 -0.8539,-0.13173 -0.3698,-0.19063 -0.6135,-0.50635 -0.2449,-0.32816 -0.3737,-0.75533 -0.1424,-0.43842 -0.1853,-0.88638 -0.058,-0.60971 0.023,-1.20764 l -0.2862,0.0274 q -0.2613,0.025 -0.4917,0.10985 -0.2441,0.0736 -0.4277,0.25442 -0.1848,0.16837 -0.2706,0.45284 -0.099,0.27321 -0.059,0.69628 0.051,0.53505 0.1639,0.92609 0.1128,0.39103 0.2077,0.59542 l -0.8342,0.20542 q -0.1198,-0.202 -0.2409,-0.68014 -0.1223,-0.49058 -0.1759,-1.05052 z"
           style="font-size:12.50000095px;letter-spacing:-0.9000001px"
           id="path4983" />
        <path
           d="m -1088.5701,481.55378 q -0.063,-0.57557 -0.067,-1.13065 0,-0.56748 0.062,-1.05087 0.1506,-1.1527 0.8216,-1.65753 0.6727,-0.51723 1.9865,-0.34559 l 3.3714,0.44042 -0.1328,1.01636 -3.1854,-0.41613 q -0.5578,-0.0729 -0.9178,-0.019 -0.36,0.0538 -0.5702,0.21545 -0.221,0.14762 -0.3293,0.39819 -0.1068,0.23818 -0.1457,0.53565 -0.032,0.24789 -0.032,0.53783 -0.011,0.27592 0,0.54269 l 4.8588,0.63472 -0.1344,1.02876 -5.59,-0.73026 z"
           style="font-size:12.50000095px;letter-spacing:-0.9000001px"
           id="path4985" />
        <path
           d="m -1082.4634,473.17298 q -0.2939,-0.106 -0.5711,0.0731 -0.273,0.16734 -0.5455,0.48098 -0.2683,0.30188 -0.5503,0.67856 -0.2938,0.37244 -0.6251,0.66488 -0.3271,0.28068 -0.7102,0.42162 -0.3787,0.12917 -0.8491,-0.0404 -0.6585,-0.23745 -0.9028,-0.92348 -0.2517,-0.70204 0.1596,-1.84265 0.1611,-0.44683 0.4012,-0.89175 0.2327,-0.46091 0.4615,-0.76375 l 0.8065,0.49015 q -0.081,0.0771 -0.1873,0.22477 -0.1182,0.14343 -0.2298,0.34237 -0.1233,0.1947 -0.2359,0.43315 -0.1083,0.2267 -0.1889,0.45012 -0.4579,1.26996 0.2359,1.52012 0.2469,0.089 0.5081,-0.0825 0.2536,-0.18757 0.5262,-0.50121 0.2725,-0.31365 0.5781,-0.68184 0.2937,-0.37244 0.6368,-0.66064 0.3431,-0.2882 0.7337,-0.41314 0.383,-0.14093 0.8416,0.0244 0.7408,0.26713 0.9446,0.99172 0.192,0.72035 -0.2575,1.96679 -0.2035,0.56442 -0.4672,1.00086 -0.2636,0.43643 -0.6044,0.79191 l -0.8141,-0.50616 q 0.3365,-0.34372 0.627,-0.74391 0.283,-0.41619 0.4695,-0.93358 0.4792,-1.32876 -0.1911,-1.57045 z"
           style="font-size:12.50000095px;letter-spacing:-0.9000001px"
           id="path4987" />
        <path
           d="m -1083.6959,466.7759 1.4618,-1.96613 0.6921,0.51461 -1.4618,1.96613 2.1668,1.61096 q 0.3511,0.26103 0.609,0.37496 0.258,0.11392 0.4805,0.10799 0.2199,-0.0234 0.4043,-0.16669 0.1844,-0.14327 0.3783,-0.40409 0.2685,-0.36112 0.3724,-0.62656 0.1039,-0.26544 0.1527,-0.54064 l 0.7917,0.40169 q -0.044,0.18519 -0.1751,0.57074 -0.1234,0.37552 -0.459,0.82692 -0.3879,0.52163 -0.7543,0.76316 -0.3665,0.24154 -0.749,0.25314 -0.375,0.002 -0.7783,-0.18925 -0.4133,-0.19827 -0.8848,-0.54881 l -2.1667,-1.61095 -0.7309,0.98306 -0.6922,-0.51461 0.7309,-0.98307 -1.3041,-0.96955 0.4712,-0.92698 1.4445,1.07397 z"
           style="font-size:12.50000095px;letter-spacing:-0.9000001px"
           id="path4989" />
        <path
           d="m -1078.9733,461.67802 q 0.9061,-0.74802 1.8672,-0.5851 0.9532,0.15327 1.9002,1.30041 l 0.2307,0.27955 -3.2004,2.64193 q 0.6212,0.65428 1.3284,0.68638 0.709,0.0145 1.4512,-0.59824 0.4242,-0.35014 0.6673,-0.6643 0.2432,-0.31417 0.3337,-0.51861 l 0.6631,0.58726 q -0.081,0.19648 -0.3853,0.59358 -0.3043,0.39711 -0.7767,0.78703 -0.5783,0.47746 -1.165,0.66999 -0.585,0.17494 -1.1288,0.10519 -0.5439,-0.0697 -1.0386,-0.37453 -0.5027,-0.31443 -0.9165,-0.8157 -0.4934,-0.59767 -0.6763,-1.1923 -0.1829,-0.59463 -0.1228,-1.13051 0.06,-0.53588 0.3167,-0.99083 0.2566,-0.45494 0.6519,-0.7812 z m 2.6552,1.01743 q -0.4695,-0.56875 -1.0389,-0.64981 -0.5773,-0.0907 -1.0689,0.31512 -0.2796,0.23078 -0.4234,0.5278 -0.1342,0.28906 -0.1548,0.59786 -0.021,0.30879 0.066,0.61008 0.087,0.3013 0.2487,0.55653 l 2.3714,-1.95758 z"
           style="font-size:12.50000095px;letter-spacing:-0.9000001px"
           id="path4991" />
        <path
           d="m -1072.4091,464.20948 -2.5916,-4.83695 q 0.9172,-0.98779 2.0631,-1.60175 0.3526,-0.18892 0.6898,-0.32706 0.3313,-0.14917 0.7642,-0.26765 l 0.2657,0.89288 q -0.4057,0.0898 -0.693,0.2153 -0.2821,0.10863 -0.6017,0.27983 -0.6721,0.36011 -1.2658,0.91934 l 2.2728,4.24197 -0.9035,0.48409 z"
           style="font-size:12.50000095px;letter-spacing:-0.9000001px"
           id="path4993" />
        <path
           d="m -1065.1883,460.33361 q 0.09,0.36417 -0.085,0.70302 -0.1742,0.33885 -0.5748,0.43728 -0.4127,0.10142 -0.7241,-0.11812 -0.3114,-0.21954 -0.4008,-0.5837 -0.092,-0.37631 0.082,-0.71516 0.1741,-0.33885 0.5869,-0.44027 0.4005,-0.0984 0.7119,0.12111 0.3114,0.21954 0.4039,0.59584 z"
           style="font-size:12.50000095px;letter-spacing:-0.9000001px"
           id="path4995" />
        <path
           d="m -1061.538,455.27979 q 0.1923,-0.10409 0.5469,-0.201 0.3677,-0.10884 0.8047,-0.0895 0.587,0.026 1.0391,0.27124 0.4521,0.24525 0.7466,0.65868 0.3069,0.41399 0.4444,0.98313 0.1505,0.5572 0.1206,1.23154 -0.031,0.69932 -0.2557,1.25242 -0.2246,0.5531 -0.6045,0.93667 -0.3793,0.37108 -0.9007,0.56069 -0.5214,0.18962 -1.1458,0.16196 -0.6868,-0.0304 -1.2193,-0.1541 -0.5326,-0.12369 -0.8529,-0.23797 l 0.3684,-8.31685 1.0442,-0.12892 -0.136,3.07199 z m -0.2074,4.68291 q 0.2345,0.0729 0.4701,0.12092 0.2361,0.0355 0.4484,0.0449 0.8617,0.0382 1.3719,-0.46476 0.5108,-0.5154 0.5579,-1.57686 0.02,-0.44956 -0.05,-0.84055 -0.07,-0.40348 -0.2449,-0.68651 -0.1746,-0.29551 -0.4671,-0.47113 -0.28,-0.17506 -0.6921,-0.19331 -0.3621,-0.016 -0.706,0.11888 -0.3432,0.12243 -0.5252,0.27703 l -0.1626,3.6714 z"
           style="font-size:12.50000095px;letter-spacing:-0.9000001px"
           id="path4997" />
        <path
           d="m -1057.9934,462.10111 q 0.092,0.09 0.2749,0.17909 0.1951,0.0924 0.3638,0.13865 0.5907,0.16199 0.9889,-0.014 0.407,-0.16058 0.8463,-0.67524 -0.3247,-1.46295 -0.5154,-3.08358 -0.1873,-1.63269 -0.1731,-3.19713 l 1.085,0.29754 q -0.012,0.51525 -0.01,1.12481 0.017,0.60081 0.06,1.2477 0.043,0.64689 0.1067,1.31245 0.079,0.65681 0.1955,1.27201 0.345,-0.50163 0.6625,-0.99781 0.3175,-0.49619 0.611,-0.99899 0.2967,-0.51485 0.5967,-1.04176 0.3034,-0.53896 0.6353,-1.1349 l 1.0367,0.28432 q -0.8155,1.46134 -1.701,2.7998 -0.8735,1.34177 -1.7598,2.44671 -0.3372,0.42599 -0.6741,0.70946 -0.325,0.28678 -0.665,0.43979 -0.3401,0.153 -0.7195,0.16563 -0.3793,0.0126 -0.8253,-0.1097 -0.2291,-0.0628 -0.4898,-0.19913 -0.2487,-0.13301 -0.3319,-0.20767 l 0.4023,-0.75809 z"
           style="font-size:12.50000095px;letter-spacing:-0.9000001px"
           id="path4999" />
      </g>
    </g>
  </g>
</svg>
