<?xml version="1.0" encoding="UTF-8" standalone="no"?>
<svg
   xmlns:dc="http://purl.org/dc/elements/1.1/"
   xmlns:cc="http://creativecommons.org/ns#"
   xmlns:rdf="http://www.w3.org/1999/02/22-rdf-syntax-ns#"
   xmlns:svg="http://www.w3.org/2000/svg"
   xmlns="http://www.w3.org/2000/svg"
   version="1.1"
   id="svg5940"
   viewBox="0 0 157.51133 230.31496"
   height="65mm"
   width="44.453197mm">
  <defs
     id="defs5942" />
  <metadata
     id="metadata5945">
    <rdf:RDF>
      <cc:Work
         rdf:about="">
        <dc:format>image/svg+xml</dc:format>
        <dc:type
           rdf:resource="http://purl.org/dc/dcmitype/StillImage" />
        <dc:title></dc:title>
      </cc:Work>
    </rdf:RDF>
  </metadata>
  <g
     transform="translate(733.33451,-165.44818)"
     id="layer1">
    <g
       transform="matrix(0.92737627,0,0,0.92737622,-57.440469,-132.53072)"
       id="g5558">
      <path
         style="fill:#ffffff;stroke:#cccccc;stroke-width:1.0120548px;stroke-linecap:butt;stroke-linejoin:miter;stroke-opacity:1"
         d="m -716.81101,357.32396 c 0,0 8.69734,-8.69735 9.09267,-12.25536 0.39534,-3.558 10e-6,-13.44135 10e-6,-13.44135 0,0 10.93031,1.00829 14.62736,0.39534 4.44679,-0.73726 10.27867,-8.69735 10.27867,-8.69735 0,0 6.32536,8.69735 10.2787,9.48801 3.95333,0.79067 8.69733,4.34868 8.69733,4.34868 l 5.13935,-8.69735 c 0,0 8.69734,2.372 12.25534,1.186 3.55801,-1.186 9.09269,-7.51134 9.09269,-7.51134 0,0 5.93,8.69734 11.46468,9.48801 5.97837,3.39035 11.46874,9.42069 12.65068,18.5807 0,0 7.11602,3.95333 10.27869,3.95333 3.16267,0 9.88334,-7.51134 9.88334,-7.51134 0,0 5.53468,7.90668 9.48802,9.09268 3.95334,1.186 13.44135,0 13.44135,0 0,0 9.4905,6.43443 9.88335,11.46468 0.75812,9.7076 1.43261,24.499 -0.39534,41.11473 -2.60468,23.67619 -11.34588,28.59254 -23.72004,32.41739 -12.25535,3.558 -30.04537,1.97666 -30.04537,1.97666 l -0.39533,7.51134 16.40635,7.90668 c 10.22399,-1.39506 22.3611,2.00661 28.26638,10.08101 5.60439,7.66302 5.9596,19.9014 0.98833,28.46404 -5.31764,9.15928 -12.05768,11.86002 -13.83669,12.45302 -1.779,0.59301 4.16026,5.85002 5.33702,9.09268 5.43391,14.97365 -0.99958,31.41489 -18.5807,35.58005 -6.91834,0 -12.05769,-0.19766 -12.05769,-0.19766 0,0 -9.68568,14.03435 -16.20868,15.22035 -6.52301,1.18601 -11.66236,-0.98833 -13.04603,-3.75567 -5.01916,-7.93922 -12.13358,-13.93566 -19.37135,-14.03435 -5.93002,0 -11.86002,0.593 -15.02269,2.76733 -3.16267,2.17434 -14.03436,5.93001 -16.99936,4.94168 -9.86527,-4.04179 -13.76745,-9.65205 -26.88271,-14.42969 -5.73234,-3.36034 -13.04601,-13.04602 -12.45301,-14.82502 6.85947,-5.24381 8.0871,-11.48744 12.84835,-18.38303 0,0 -2.70631,-9.29457 1.38367,-18.5807 4.26496,-9.68345 17.08475,-17.62066 30.63837,-16.20868 8.41427,-8.8667 19.37137,-22.33637 19.37137,-22.33637 l -0.59301,-38.54505 -25.69669,-0.593 c 0,0 -8.49969,-1.186 -11.86002,-5.53467 -3.36035,-4.34868 -6.72068,-9.29036 -6.52302,-18.97604 0.19768,-9.68567 0.593,-22.53403 0.593,-22.53403 z"
         id="path3238" />
      <path
         transform="matrix(0.54171684,-0.84056104,0.86800757,0.49655097,0,0)"
         style="fill:#00d400;fill-opacity:1;stroke:none"
         d="m -758.45647,-277.27615 c 3.51772,0 6.34968,0.0205 6.34968,0.046 l 0,69.96514 c 0,0.0255 -2.83196,0.046 -6.34968,0.046 -3.51772,0 -6.34968,-0.0205 -6.34968,-0.046 l 0,-69.96514 c 0,-0.0255 2.83196,-0.046 6.34968,-0.046 z"
         id="rect3855-5-7-4-9-6-8-7-7" />
      <path
         transform="matrix(0.9999597,-0.0089781,0.0089781,0.9999597,0,0)"
         style="fill:#00d400;fill-opacity:1;stroke:none"
         d="m -675.02884,495.05011 a 18.334988,18.334988 0 0 1 -18.33499,18.33499 18.334988,18.334988 0 0 1 -18.33499,-18.33499 18.334988,18.334988 0 0 1 18.33499,-18.33499 18.334988,18.334988 0 0 1 18.33499,18.33499 z"
         id="path3787-9-0-6-9-3-8-3" />
      <path
         transform="matrix(0.9999597,-0.0089781,0.0089781,0.9999597,0,0)"
         style="fill:#00d400;fill-opacity:1;stroke:none"
         d="m -628.25595,499.96414 a 18.334988,18.334988 0 0 1 -18.33499,18.33499 18.334988,18.334988 0 0 1 -18.33499,-18.33499 18.334988,18.334988 0 0 1 18.33499,-18.33499 18.334988,18.334988 0 0 1 18.33499,18.33499 z"
         id="path3787-3-9-6-4-2-8-3-3" />
      <path
         transform="matrix(0.9999597,-0.0089781,0.0089781,0.9999597,0,0)"
         style="fill:#00d400;fill-opacity:1;stroke:none"
         d="m -577.76719,476.40216 a 18.334988,18.334988 0 0 1 -18.33498,18.33499 18.334988,18.334988 0 0 1 -18.33499,-18.33499 18.334988,18.334988 0 0 1 18.33499,-18.33499 18.334988,18.334988 0 0 1 18.33498,18.33499 z"
         id="path3787-5-3-8-0-7-2-9-9" />
      <path
         transform="matrix(0.71483342,0.69929478,-0.66055141,0.75078081,0,0)"
         style="fill:#00d400;fill-opacity:1;stroke:none"
         d="m -184.37503,774.88031 c 3.49358,0 6.30611,12.20445 6.30611,27.36423 l 0,14.848 c 0,15.15979 -2.81253,27.36423 -6.30611,27.36423 -3.49358,0 -6.30611,-12.20444 -6.30611,-27.36423 l 0,-14.848 c 0,-15.15978 2.81253,-27.36423 6.30611,-27.36423 z"
         id="rect3855-5-71-7-0-5-8-7" />
      <path
         transform="matrix(0.48649103,-0.87368557,0.8981681,0.4396522,0,0)"
         style="fill:#00d400;fill-opacity:1;stroke:none"
         d="m -690.29545,-345.23413 c 3.49358,0 6.3061,0.034 6.3061,0.0762 l 0,69.42412 c 0,0.0422 -2.81252,0.0762 -6.3061,0.0762 -3.49359,0 -6.30611,-0.034 -6.30611,-0.0762 l 0,-69.42412 c 0,-0.0422 2.81252,-0.0762 6.30611,-0.0762 z"
         id="rect3855-6-6-5-6-8-6-2-0" />
      <path
         transform="matrix(0.9999597,-0.0089781,0.0089781,0.9999597,0,0)"
         style="fill:#ffffff;fill-opacity:1;stroke:none"
         d="m -681.67918,495.05008 a 11.808976,11.808976 0 0 1 -11.80898,11.80898 11.808976,11.808976 0 0 1 -11.80898,-11.80898 11.808976,11.808976 0 0 1 11.80898,-11.80898 11.808976,11.808976 0 0 1 11.80898,11.80898 z"
         id="path3896-12-9-4-0-8-9-6" />
      <path
         transform="matrix(0.99027394,0.13913133,-0.08661799,0.9962416,0,0)"
         style="fill:#00d400;fill-opacity:1;stroke:none"
         d="m -597.5056,530.70526 c 3.49359,0 6.30611,12.20445 6.30611,27.36423 l 0,14.84801 c 0,15.15978 -2.81252,27.36422 -6.30611,27.36422 -3.49358,0 -6.30611,-12.20444 -6.30611,-27.36422 l 0,-14.84801 c 0,-15.15978 2.81253,-27.36423 6.30611,-27.36423 z"
         id="rect3855-89-9-0-5-6-8-5-8" />
      <path
         transform="matrix(0.9999597,-0.0089781,0.0089781,0.9999597,0,0)"
         style="fill:#ffffff;fill-opacity:1;stroke:none"
         d="m -635.15483,499.9642 a 11.808976,11.808976 0 0 1 -11.80898,11.80898 11.808976,11.808976 0 0 1 -11.80897,-11.80898 11.808976,11.808976 0 0 1 11.80897,-11.80897 11.808976,11.808976 0 0 1 11.80898,11.80897 z"
         id="path3896-7-7-2-6-1-6-1-3" />
      <path
         transform="matrix(0.9999597,-0.0089781,0.0089781,0.9999597,0,0)"
         style="fill:#ffffff;fill-opacity:1;stroke:none"
         d="m -584.35533,476.1535 a 11.808976,11.808976 0 0 1 -11.80898,11.80898 11.808976,11.808976 0 0 1 -11.80897,-11.80898 11.808976,11.808976 0 0 1 11.80897,-11.80897 11.808976,11.808976 0 0 1 11.80898,11.80897 z"
         id="path3896-1-4-7-6-4-6-1-6" />
      <path
         transform="matrix(0.9999597,-0.0089781,0.0089781,0.9999597,0,0)"
         style="fill:#00d400;fill-opacity:1;stroke:none"
         d="m -588.58432,520.9126 a 18.334988,18.334988 0 0 1 -18.33499,18.33499 18.334988,18.334988 0 0 1 -18.33499,-18.33499 18.334988,18.334988 0 0 1 18.33499,-18.33499 18.334988,18.334988 0 0 1 18.33499,18.33499 z"
         id="path3787-4-1-7-8-5-2-7-5-8" />
      <path
         transform="matrix(0.9999597,-0.0089781,0.0089781,0.9999597,0,0)"
         style="fill:#ffffff;fill-opacity:1;stroke:none"
         d="m -595.17247,520.60181 a 11.808976,11.808976 0 0 1 -11.80898,11.80897 11.808976,11.808976 0 0 1 -11.80897,-11.80897 11.808976,11.808976 0 0 1 11.80897,-11.80898 11.808976,11.808976 0 0 1 11.80898,11.80898 z"
         id="path3896-3-9-5-8-3-1-4-0-2" />
      <path
         transform="matrix(-0.00140643,-0.99999901,0.99999927,-0.00120857,0,0)"
         style="fill:#00d400;fill-opacity:1;stroke:none"
         d="m -388.74952,-698.41663 c 9.21078,0 16.62596,7.87037 16.62596,17.64657 l 0,26.36608 c 0,9.7762 -7.41518,17.64657 -16.62596,17.64657 -9.21079,0 -16.62597,-7.87037 -16.62597,-17.64657 l 0,-26.36608 c 0,-9.7762 7.41518,-17.64657 16.62597,-17.64657 z"
         id="rect2985-79-7-0-7-2-4-0-3-84" />
      <path
         transform="matrix(0.99840789,0.05640635,-0.00205041,0.9999979,0,0)"
         style="fill:#00d400;fill-opacity:1;stroke:none"
         d="m -638.91097,374.75818 c 9.17395,0 16.55948,6.9541 16.55948,15.59216 l 0,93.05348 c 0,8.63806 -7.38553,15.59216 -16.55948,15.59216 -9.17396,0 -16.55949,-6.9541 -16.55949,-15.59216 l 0,-93.05348 c 0,-8.63806 7.38553,-15.59216 16.55949,-15.59216 z"
         id="rect2985-79-5-8-8-2-7-6-8-5" />
      <path
         style="fill:#00d400;fill-opacity:1;stroke:none"
         d="m -699.30196,353.08413 c 2.452,-0.002 4.4422,1.80403 4.4453,4.03648 0,2.23256 -1.9827,4.04492 -4.4347,4.04814 -2.4523,0.002 -2.9181,-1.73776 -7.7586,-4.03223 4.7684,-2.19819 5.2958,-4.04922 7.748,-4.05239 z"
         id="path4099-90-1-7-8-8-3-0" />
      <path
         style="fill:#00d400;fill-opacity:1;stroke:none"
         d="m -691.34686,342.47069 c 1.7174,1.75022 1.8177,4.43666 0.2243,6.00026 -1.5936,1.56364 -4.2776,1.41236 -5.995,-0.33782 -1.7175,-1.75027 -0.7992,-3.30102 -2.5451,-8.36523 4.9063,1.87029 6.5983,0.95257 8.3155,2.70279 z"
         id="path4099-4-2-4-7-7-8-5-36" />
      <path
         style="fill:#00d400;fill-opacity:1;stroke:none"
         d="m -589.95707,364.48968 c -0.1285,2.44872 -2.0393,4.33925 -4.2687,4.22258 -2.2295,-0.11671 -3.933,-2.1963 -3.805,-4.645 0.1286,-2.44876 1.8917,-2.82078 4.442,-7.53147 1.9398,4.87923 3.7601,5.50495 3.6312,7.95409 z"
         id="path4099-8-7-9-1-0-8-9-1" />
      <path
         style="fill:#00d400;fill-opacity:1;stroke:none"
         d="m -677.86831,340.6742 c 0,2.45206 -1.8041,4.44229 -4.0366,4.4452 -2.2325,0.002 -4.0449,-1.98257 -4.048,-4.43467 0,-2.45209 1.7377,-2.91799 4.0321,-7.75852 2.1982,4.76839 4.0492,5.29589 4.0525,7.74799 z"
         id="path4099-1-5-8-3-3-3-1-0" />
      <path
         style="fill:#00d400;fill-opacity:1;stroke:none"
         d="m -634.16997,339.94239 c -0.071,2.45114 -1.9347,4.38693 -4.1662,4.32379 -2.2317,-0.0633 -3.9844,-2.10137 -3.9151,-4.55251 0.071,-2.45108 1.8233,-2.8653 4.26,-7.63578 2.0562,4.83134 3.8907,5.41339 3.8213,7.8645 z"
         id="path4099-6-9-8-7-3-8-9-6" />
      <path
         style="fill:#00d400;fill-opacity:1;stroke:none"
         d="m -646.16507,340.99849 c 1.2034,2.13649 0.6022,4.75667 -1.3421,5.85253 -1.9451,1.09566 -4.4974,0.25183 -5.7009,-1.88455 -1.2035,-2.13651 0.086,-3.39519 -0.2831,-8.73923 4.2514,3.08136 6.1236,2.63497 7.3271,4.77145 z"
         id="path4099-18-0-6-8-5-7-6-32" />
      <path
         style="fill:#00d400;fill-opacity:1;stroke:none"
         d="m -654.78557,350.70772 c 2.4512,0.0693 4.387,1.93472 4.3237,4.16629 -0.063,2.23164 -2.1014,3.98449 -4.5524,3.91511 -2.451,-0.0693 -2.8654,-1.82337 -7.6359,-4.26006 4.8315,-2.05612 5.4136,-3.89071 7.8646,-3.82134 z"
         id="path4099-99-0-6-1-7-8-7-0" />
      <path
         transform="matrix(0.03100944,-0.99951909,0.99966695,0.02580678,0,0)"
         style="fill:#00d400;fill-opacity:1;stroke:none"
         d="m -424.2411,-631.97241 c 9.21153,0 16.6273,7.87028 16.6273,17.64637 l 0,29.79431 c 0,9.77609 -7.41577,17.64637 -16.6273,17.64637 -9.21153,0 -16.62731,-7.87028 -16.62731,-17.64637 l 0,-29.79431 c 0,-9.77609 7.41578,-17.64637 16.62731,-17.64637 z"
         id="rect2985-79-4-5-6-7-6-7-5-6-6" />
      <path
         transform="matrix(0.99956015,0.02965656,-0.02698431,0.99963586,0,0)"
         style="fill:#00d400;fill-opacity:1;stroke:none"
         d="m -584.46371,380.7854 c 9.21115,0 16.62662,7.86168 16.62662,17.62708 l 0,26.99266 c 0,9.7654 -7.41547,17.62708 -16.62662,17.62708 -9.21115,0 -16.62662,-7.86168 -16.62662,-17.62708 l 0,-26.99266 c 0,-9.7654 7.41547,-17.62708 16.62662,-17.62708 z"
         id="rect2985-79-4-5-6-7-6-7-5-6-3-1" />
      <path
         transform="matrix(0.99951533,0.0311306,-0.02570632,0.99966954,0,0)"
         style="fill:#00d400;fill-opacity:1;stroke:none"
         d="m -673.24354,361.48892 c 9.21156,0 16.62736,7.86143 16.62736,17.62653 l 0,30.08838 c 0,9.7651 -7.4158,17.62653 -16.62736,17.62653 -9.21156,0 -16.62737,-7.86143 -16.62737,-17.62653 l 0,-30.08838 c 0,-9.7651 7.41581,-17.62653 16.62737,-17.62653 z"
         id="rect2985-79-4-5-6-7-6-7-5-6-3-6-5" />
      <path
         style="fill:#00d400;fill-opacity:1;stroke:none"
         d="m -602.56577,365.29199 c 1.39,2.0201 1.0259,4.68361 -0.8125,5.94922 -1.8391,1.26547 -4.4567,0.65367 -5.8467,-1.36634 -1.39,-2.02011 -0.2188,-3.38922 -1.0648,-8.67874 4.5103,2.68818 6.3351,2.07587 7.725,4.09597 z"
         id="path4099-18-0-6-8-5-7-6-3-5" />
      <path
         style="fill:#00d400;fill-opacity:1;stroke:none"
         d="m -585.63567,365.86836 c -1.6765,1.78942 -1.715,4.47742 -0.087,6.0038 1.6291,1.52637 4.3089,1.31306 5.9854,-0.47625 1.6766,-1.78945 0.7234,-3.31836 2.3512,-8.42179 -4.8617,1.98316 -6.5743,1.10476 -8.2509,2.89418 z"
         id="path4099-18-0-6-8-5-7-6-6-4" />
      <g
         transform="translate(-1.1718751,1.9531252)"
         style="font-style:normal;font-variant:normal;font-weight:normal;font-stretch:normal;font-size:28.51474762px;line-height:125%;font-family:'Ubuntu Mono';-inkscape-font-specification:'Ubuntu Mono';letter-spacing:0px;word-spacing:0px;fill:#333333;fill-opacity:1;stroke:none"
         id="text3121-3">
        <path
           d="m -709.17107,516.91916 q 1.1935,0.24043 2.48216,0.73712 1.33642,0.48373 2.52063,1.1626 1.15385,0.66147 2.09475,1.48327 0.95831,0.79143 1.49964,1.74725 0.54132,0.95582 0.57457,2.02381 0.0507,1.03762 -0.61082,2.19147 -0.31332,0.54655 -0.80439,0.91053 -0.49106,0.36398 -1.05136,0.56724 -0.5603,0.20326 -1.1117,0.25025 -0.52104,0.0644 -0.95504,-0.023 0.91015,1.08657 1.19927,2.34158 0.33689,1.24206 -0.49865,2.69955 -1.16627,2.03441 -3.5411,2.16569 -2.32706,0.11832 -5.2724,-1.57016 -1.82186,-1.04442 -3.00123,-2.08361 -1.14901,-1.02179 -1.55631,-1.57803 l 1.73469,-1.82958 q 0.36843,0.41292 1.37857,1.39544 1.02754,0.95216 2.69758,1.90955 2.00405,1.14886 3.24572,1.09415 1.24166,-0.0547 1.79869,-1.02637 0.62665,-1.09312 0.0813,-2.25298 -0.54538,-1.15987 -2.09397,-2.04763 l -2.9757,-1.70589 1.14886,-2.00404 2.79352,1.60144 q 1.54859,0.88776 2.60361,0.80675 1.05503,-0.081 1.55984,-0.96159 0.53962,-0.94129 0.003,-1.97525 -0.53687,-1.03396 -2.35874,-2.07838 -0.8502,-0.4874 -2.09553,-0.91891 -1.21497,-0.4141 -2.21332,-0.50231 l 0.72415,-2.52993 z"
           style="font-size:35.00000381px;letter-spacing:-2.5400002px;fill:#333333"
           id="path5017" />
        <path
           d="m -694.58152,526.51354 q -0.33598,0.9948 -0.78308,2.09983 -0.40274,1.08307 -0.91616,2.16571 -0.46906,1.06068 -1.03761,2.08775 -0.55734,0.99392 -1.20252,1.8104 -1.30156,1.66612 -3.12029,2.5665 -1.81873,0.90037 -4.42847,0.31449 l 0.38604,-2.45558 q 1.54863,0.2275 2.64641,-0.28835 1.14214,-0.53781 2.03152,-1.53041 0.76706,-0.8492 1.3916,-2.04208 0.65769,-1.18168 1.22755,-2.54079 0.56986,-1.35911 1.04023,-2.75183 0.47038,-1.39271 0.88476,-2.61962 l 9.08578,3.06864 -5.19653,15.38616 -2.75227,-0.92956 4.42378,-13.09812 -3.68074,-1.24314 z"
           style="font-size:35.00000381px;letter-spacing:-2.5400002px;fill:#333333"
           id="path5019" />
        <path
           d="m -691.01387,545.38399 q 0.30481,0.1922 0.85813,0.3281 0.58826,0.13783 1.0775,0.16501 1.71236,0.0951 2.69861,-0.6213 1.01925,-0.67953 1.91812,-2.34724 -1.75124,-3.81299 -3.22874,-8.13658 -1.47556,-4.35854 -2.35898,-8.64913 l 3.14515,0.17469 q 0.27183,1.41725 0.6349,3.08495 0.39996,1.6347 0.89894,3.38006 0.49897,1.74535 1.0659,3.52954 0.60382,1.75118 1.28529,3.36646 0.64842,-1.57647 1.22501,-3.12187 0.57659,-1.5454 1.08329,-3.09469 0.50864,-1.58423 1.01922,-3.20341 0.51252,-1.65412 1.06969,-3.48103 l 3.00537,0.16692 q -1.37061,4.48089 -3.00525,8.66668 -1.5997,4.18773 -3.37414,7.73479 -0.67172,1.36484 -1.42693,2.33946 -0.72027,0.97656 -1.56091,1.5959 -0.84064,0.61933 -1.87155,0.87756 -1.0309,0.25822 -2.32391,0.18641 -0.66398,-0.0369 -1.45803,-0.25625 -0.75911,-0.21744 -1.03092,-0.37275 l 0.65424,-2.31228 z"
           style="font-size:35.00000381px;letter-spacing:-2.5400002px;fill:#333333"
           id="path5021" />
        <path
           d="m -675.45312,526.03131 0.73014,4.70367 q 0.28454,1.83305 1.36569,2.40903 1.11573,0.5706 2.84502,0.30217 1.24509,-0.19327 2.05904,-0.42588 0.80859,-0.26719 1.43887,-0.54213 l -1.17574,-7.57429 2.87062,-0.4456 2.49108,16.04781 -2.87063,0.4456 -0.96099,-6.19085 q -0.23137,0.10675 -0.66488,0.2803 -0.40429,0.13359 -0.94155,0.32325 -0.50805,0.1497 -1.08528,0.31014 -0.57722,0.16044 -1.13059,0.24634 -1.38343,0.21475 -2.56771,0.11523 -1.18965,-0.1341 -2.12172,-0.66238 -0.89747,-0.53365 -1.51352,-1.53602 -0.62141,-1.03695 -0.86837,-2.6279 l -0.73552,-4.73825 2.83604,-0.44024 z"
           style="font-size:35.00000381px;letter-spacing:-2.5400002px;fill:#333333"
           id="path5023" />
        <path
           d="m -653.72821,538.61192 q 1.07077,0.17516 1.91105,0.24169 0.87483,0.0722 1.44443,0.059 l 0.77976,-4.76664 q -0.52441,-0.26311 -1.3019,-0.49669 -0.74294,-0.22793 -1.60647,-0.36919 -0.79444,-0.12996 -1.57694,-0.11611 -0.77685,-0.0207 -1.4149,0.19413 -0.63805,0.21481 -1.10275,0.67077 -0.45906,0.42142 -0.58337,1.18132 -0.25426,1.55434 0.68026,2.34558 0.97471,0.76236 2.77083,1.05618 z m 2.07424,-14.41421 q 1.79613,0.29382 2.9316,0.94061 1.17002,0.65245 1.79996,1.5712 0.62994,0.91875 0.75435,2.10945 0.1244,1.1907 -0.096,2.5378 l -1.63862,10.01686 q -1.02994,0.009 -2.72745,-0.0206 -1.66298,-0.0238 -3.39002,-0.30631 -1.31255,-0.21471 -2.51647,-0.65991 -1.20957,-0.41066 -2.08631,-1.12152 -0.87109,-0.74541 -1.29442,-1.84315 -0.42334,-1.09775 -0.16907,-2.65209 0.22601,-1.38163 0.96577,-2.21818 0.77995,-0.86544 1.80861,-1.30007 1.0632,-0.42899 2.31168,-0.47301 1.28868,-0.0729 2.53215,0.1305 1.6925,0.27687 3.25377,0.92239 l 0.12996,-0.79444 q 0.11866,-0.72536 0.0533,-1.40989 -0.0252,-0.71342 -0.38378,-1.33953 -0.32408,-0.62046 -1.03313,-1.05563 -0.66885,-0.46407 -1.84324,-0.65618 -1.48526,-0.24297 -2.62447,-0.21654 -1.13921,0.0264 -1.76031,0.13762 l 0.0388,-2.40528 q 0.63239,-0.18027 2.01339,-0.16715 1.41554,0.0188 2.96988,0.27304 z"
           style="font-size:35.00000381px;letter-spacing:-2.5400002px;fill:#333333"
           id="path5025" />
        <path
           d="m -625.15333,538.84816 -10.75416,12.16905 -2.12434,-1.87734 8.20468,-9.28415 q -1.49613,0.26592 -3.34907,0.77702 -1.82671,0.53428 -3.74918,1.12406 -1.87306,0.58674 -3.6705,1.1936 -1.79743,0.60686 -3.20574,1.09052 l -1.94075,-1.7151 10.75415,-12.16906 2.09812,1.85417 -7.74114,8.75962 q 1.50711,-0.48976 3.25819,-1.04417 1.77426,-0.58063 3.57779,-1.08869 1.82671,-0.53428 3.53754,-0.93742 1.734,-0.42938 3.16365,-0.56721 l 1.94076,1.7151 z m -2.87757,-6.04614 q -1.46868,-1.29792 -1.73765,-2.84345 -0.24579,-1.57177 0.72643,-3.09473 l 2.04627,1.0143 q -0.46232,0.94599 -0.43366,1.81207 0.0518,0.83986 0.81241,1.512 0.76056,0.67213 1.60042,0.62029 0.86304,-0.0781 1.74498,-0.65321 l 1.23203,1.88282 q -1.39184,1.15213 -2.9819,1.1015 -1.54065,-0.0537 -3.00933,-1.35159 z"
           style="font-size:35.00000381px;letter-spacing:-2.5400002px;fill:#333333"
           id="path5027" />
        <path
           d="m -618.22056,550.01261 q -1.02627,0.78981 -1.90746,1.42381 -0.88119,0.63399 -1.72187,1.14847 -0.81933,0.54222 -1.66,1.05671 -0.81294,0.49313 -1.70908,1.05031 l -1.21674,-1.58101 q 0.76807,-0.7236 1.45293,-1.38315 0.7126,-0.68091 1.4252,-1.36181 0.73394,-0.65317 1.57244,-1.34264 0.8385,-0.68947 1.86477,-1.47928 l 4.65981,-3.58616 1.89981,2.46859 -4.65981,3.58616 z m -13.8028,8.63513 q -0.57635,-0.7489 -0.50401,-1.68787 0.10008,-0.96032 0.95993,-1.62205 0.85985,-0.66173 1.78603,-0.49122 0.95393,0.14916 1.53028,0.89806 0.59769,0.77663 0.47627,1.70921 -0.0723,0.93897 -0.93219,1.60071 -0.85985,0.66173 -1.81377,0.51257 -0.90485,-0.14277 -1.50254,-0.91941 z"
           style="font-size:35.00000381px;letter-spacing:-2.5400002px;fill:#333333"
           id="path5029" />
      </g>
      <path
         style="fill:none;stroke:none"
         d="m -719.44142,528.803 c 34.07781,23.60057 51.8052,9.91603 60.97989,11.29414 17.4723,1.62416 18.16411,7.39163 27.68795,19.47248"
         id="path3150-6" />
      <g
         transform="translate(-419.07633,25.413946)"
         style="font-style:normal;font-variant:normal;font-weight:normal;font-stretch:normal;font-size:7.08267832px;line-height:125%;font-family:'Ubuntu Mono';-inkscape-font-specification:'Ubuntu Mono';letter-spacing:0px;word-spacing:0px;fill:#1a1a1a;fill-opacity:1;stroke:none"
         id="text3125-7-3">
        <path
           d="m -149.38862,346.01553 q -0.0102,-0.32484 0.20733,-0.56925 0.21747,-0.24441 0.60478,-0.25651 0.38731,-0.0121 0.61962,0.21825 0.23231,0.23036 0.24246,0.5552 0.0105,0.33734 -0.20733,0.56925 -0.21747,0.24441 -0.60478,0.25652 -0.38731,0.0121 -0.61962,-0.21826 -0.23192,-0.21787 -0.24246,-0.5552 z m -1.76983,-0.20734 -0.0523,-1.67418 0.86208,-0.0269 0.0843,2.69868 -3.56076,0.11125 q -0.86208,0.0269 -1.15452,0.27368 -0.27994,0.24637 -0.26511,0.72113 0.0113,0.36233 0.10815,0.65945 0.0972,0.30961 0.20263,0.48141 l -0.86989,0.17725 q -0.0398,-0.0738 -0.10659,-0.20928 -0.0543,-0.13587 -0.1101,-0.32172 -0.0554,-0.17335 -0.0999,-0.39707 -0.0441,-0.21122 -0.0515,-0.44861 -0.0172,-0.54973 0.12143,-0.91674 0.13861,-0.367 0.43144,-0.60126 0.29322,-0.22177 0.72777,-0.32289 0.44705,-0.10151 1.03426,-0.11985 l 2.69869,-0.0843 z"
           style="font-size:12.50000095px"
           id="path4863" />
        <path
           d="m -150.09433,352.78977 0.0634,2.44918 -0.86221,0.0223 -0.0634,-2.44918 -2.6991,0.0699 q -0.43735,0.0113 -0.71064,0.0809 -0.27329,0.0696 -0.44468,0.21158 -0.15856,0.15415 -0.21522,0.38069 -0.0566,0.22655 -0.0482,0.55144 0.0116,0.44985 0.0937,0.72281 0.0821,0.27297 0.21352,0.51965 l -0.87082,0.1726 q -0.0795,-0.173 -0.21449,-0.55714 -0.13466,-0.37164 -0.14922,-0.93395 -0.0168,-0.64978 0.12245,-1.06603 0.13928,-0.41624 0.43303,-0.66143 0.29408,-0.23268 0.72917,-0.33148 0.44758,-0.0991 1.03489,-0.11431 l 2.69909,-0.0699 -0.0317,-1.22459 0.86221,-0.0223 0.0317,1.22459 1.62446,-0.0421 0.20147,1.02013 -1.7994,0.0466 z"
           style="font-size:12.50000095px"
           id="path4865" />
        <path
           d="m -154.92651,360.18668 q -0.37492,0.008 -0.66743,-0.23653 -0.2925,-0.24412 -0.30086,-0.65654 -0.009,-0.42491 0.27377,-0.68068 0.28237,-0.25578 0.6573,-0.26337 0.38742,-0.008 0.67992,0.23627 0.29251,0.24412 0.30112,0.66904 0.008,0.41241 -0.27402,0.66818 -0.28238,0.25578 -0.6698,0.26363 z"
           style="font-size:12.50000095px"
           id="path4867" />
        <path
           d="m -155.65353,364.4263 4.93708,-0.0647 -0.016,-1.2249 0.86243,-0.0113 0.016,1.22489 0.52496,-0.007 q 0.67494,-0.009 1.11486,0.17292 0.45241,0.18159 0.73132,0.47796 0.27907,0.30887 0.3968,0.70736 0.11789,0.411 0.12378,0.86096 0.006,0.44996 -0.0882,0.90123 -0.0939,0.46377 -0.22619,0.86554 l -0.88988,-0.17587 q 0.13389,-0.27677 0.22848,-0.69055 0.0946,-0.41377 0.089,-0.83874 -0.003,-0.26247 -0.0815,-0.49897 -0.0654,-0.22416 -0.24272,-0.39686 -0.16477,-0.17285 -0.45356,-0.26908 -0.27629,-0.0964 -0.70125,-0.0908 l -0.51246,0.007 0.0306,2.3373 -0.86243,0.0113 -0.0306,-2.3373 -4.93708,0.0647 -0.0134,-1.02491 z"
           style="font-size:12.50000095px"
           id="path4869" />
        <path
           d="m -154.84845,371.85302 q 0.001,0.3875 0.0268,0.68743 0.0258,0.31243 0.0639,0.51233 l 1.72499,-0.005 q 0.062,-0.20016 0.0987,-0.48776 0.0368,-0.2751 0.0359,-0.5876 -7.6e-4,-0.2875 -0.0515,-0.56236 -0.0382,-0.2749 -0.15129,-0.4871 -0.11306,-0.21221 -0.30092,-0.34921 -0.17537,-0.13704 -0.45037,-0.13631 -0.56249,0.001 -0.7865,0.37709 -0.21147,0.38806 -0.20975,1.03806 z m 5.19972,-0.11377 q 0.002,0.64999 -0.15962,1.08792 -0.16131,0.45043 -0.44808,0.72619 -0.28677,0.27576 -0.69897,0.38935 -0.41221,0.1136 -0.8997,0.11489 l -3.62499,0.01 q -0.0635,-0.36234 -0.15255,-0.9621 -0.089,-0.58727 -0.0907,-1.21227 -0.001,-0.47499 0.0851,-0.92523 0.0738,-0.45019 0.27288,-0.80072 0.21157,-0.35056 0.57351,-0.56402 0.36194,-0.21346 0.92443,-0.21495 0.5,-10e-4 0.83806,0.21028 0.3506,0.22407 0.56399,0.56101 0.21343,0.34944 0.30209,0.7867 0.10119,0.44974 0.10238,0.89973 0.002,0.6125 -0.13432,1.20036 l 0.2875,-7.6e-4 q 0.26249,-6.9e-4 0.49983,-0.0638 0.24986,-0.0507 0.44943,-0.21369 0.19961,-0.15053 0.31138,-0.42583 0.1243,-0.26283 0.12318,-0.68783 -0.001,-0.53749 -0.0775,-0.93729 -0.0761,-0.3998 -0.15162,-0.61211 l 0.84967,-0.12725 q 0.10056,0.21224 0.17685,0.69954 0.0763,0.4998 0.0778,1.0623 z"
           style="font-size:12.50000095px"
           id="path4871" />
        <path
           d="m -155.7726,379.14331 q 0.009,-0.54992 0.16456,-0.90998 0.15577,-0.36006 0.45913,-0.56774 0.30335,-0.20768 0.7422,-0.28818 0.45134,-0.0803 1.03876,-0.0709 l 5.4868,0.0877 0.0268,-1.67479 0.87489,0.014 -0.0431,2.69966 -6.36169,-0.10167 q -0.43744,-0.007 -0.7132,0.0386 -0.27597,0.0581 -0.45274,0.16779 -0.16448,0.12239 -0.22977,0.29637 -0.0653,0.17397 -0.0691,0.41144 -0.006,0.36246 0.0767,0.67632 0.0825,0.31385 0.17969,0.49043 l -0.87729,0.136 q -0.0363,-0.0756 -0.0966,-0.21407 -0.0478,-0.13828 -0.0948,-0.32656 -0.047,-0.18827 -0.0809,-0.41384 -0.0341,-0.21308 -0.0303,-0.45055 z"
           style="font-size:12.50000095px"
           id="path4873" />
        <path
           d="m -155.09878,384.40473 q -0.0295,0.38638 -0.0273,0.68741 0.001,0.3135 0.0233,0.51577 l 1.72001,0.13118 q 0.0775,-0.19467 0.13678,-0.47848 0.0583,-0.27136 0.0821,-0.58295 0.0219,-0.28667 -0.007,-0.56467 -0.0165,-0.27706 -0.1125,-0.4975 -0.096,-0.22044 -0.27251,-0.3718 -0.16404,-0.15041 -0.43824,-0.17132 -0.56087,-0.0428 -0.81374,0.31403 -0.24135,0.37022 -0.29078,1.01833 z m 5.19255,0.29573 q -0.0494,0.64811 -0.24473,1.07199 -0.19625,0.43634 -0.50383,0.68868 -0.30758,0.25234 -0.72744,0.33315 -0.41986,0.0808 -0.90595,0.0437 l -3.6145,-0.27566 q -0.0348,-0.3662 -0.0764,-0.97112 -0.0426,-0.59245 0.005,-1.21564 0.0361,-0.47363 0.15759,-0.91567 0.109,-0.443 0.33504,-0.77677 0.2385,-0.33283 0.61611,-0.51715 0.37761,-0.18432 0.93848,-0.14154 0.49855,0.038 0.81892,0.27557 0.33187,0.25096 0.51809,0.60365 0.18527,0.36514 0.23925,0.80803 0.0655,0.4563 0.0313,0.905 -0.0466,0.61072 -0.22836,1.18607 l 0.28667,0.0219 q 0.26174,0.02 0.50331,-0.0243 0.25307,-0.0308 0.46485,-0.17766 0.21083,-0.13436 0.34392,-0.40001 0.1446,-0.25223 0.17692,-0.676 0.0409,-0.53594 -0.004,-0.94049 -0.0444,-0.40454 -0.10298,-0.62213 l 0.85704,-0.06 q 0.0836,0.21949 0.12126,0.71128 0.0368,0.50426 -0.006,1.06513 z"
           style="font-size:12.50000095px"
           id="path4875" />
        <path
           d="m -151.01814,390.36218 q -0.0788,0.57368 -0.21108,1.11277 -0.1369,0.55072 -0.316,1.00413 -0.42708,1.0812 -1.20096,1.40719 -0.77848,0.33761 -2.01082,-0.14918 l -3.16223,-1.24911 0.37657,-0.95332 2.98785,1.18022 q 0.52316,0.20666 0.88542,0.24224 0.36226,0.0356 0.60554,-0.0699 0.2503,-0.0893 0.4165,-0.30587 0.1616,-0.20497 0.27181,-0.48399 0.0918,-0.23251 0.1626,-0.51369 0.0778,-0.26495 0.12771,-0.52746 l -4.55734,-1.80019 0.38117,-0.96495 5.24326,2.07114 z"
           style="font-size:12.50000095px"
           id="path4877" />
        <path
           d="m -159.88061,397.64151 q 0.24368,0.19564 0.56398,0.11616 0.31247,-0.0697 0.67203,-0.278 0.35173,-0.19851 0.74068,-0.46333 0.39869,-0.257 0.80698,-0.42613 0.40048,-0.15938 0.8085,-0.16843 0.40019,6.9e-4 0.79008,0.31371 0.54585,0.43824 0.55435,1.16641 0.0104,0.74575 -0.74866,1.69124 -0.29737,0.3704 -0.66888,0.71334 -0.36959,0.36051 -0.68426,0.57275 l -0.60391,-0.7253 q 0.10159,-0.0467 0.25014,-0.15184 0.15829,-0.0973 0.3284,-0.24931 0.17985,-0.14415 0.36368,-0.33319 0.176,-0.1793 0.32469,-0.36449 0.84517,-1.05271 0.27007,-1.51442 -0.20469,-0.16434 -0.50741,-0.0868 -0.3008,0.0951 -0.66036,0.3034 -0.35956,0.20825 -0.768,0.45743 -0.39869,0.25699 -0.81673,0.4183 -0.41805,0.1613 -0.82799,0.15278 -0.40802,0.009 -0.78817,-0.29614 -0.61408,-0.49301 -0.57178,-1.24453 0.0521,-0.74369 0.88156,-1.7769 0.37563,-0.46787 0.76663,-0.79516 0.391,-0.32729 0.82868,-0.55298 l 0.60584,0.74288 q -0.42985,0.21594 -0.83444,0.50026 -0.40268,0.30189 -0.747,0.73077 -0.88429,1.10144 -0.3287,1.5475 z"
           style="font-size:12.50000095px"
           id="path4879" />
        <path
           d="m -161.27696,404.65841 -1.98111,1.44143 -0.50744,-0.69743 1.9811,-1.44143 -1.58851,-2.18326 q -0.2574,-0.35377 -0.46973,-0.53937 -0.21233,-0.1856 -0.42647,-0.24621 -0.2169,-0.0432 -0.43561,0.0387 -0.21871,0.0818 -0.48151,0.27305 -0.36388,0.26475 -0.54212,0.48719 -0.17824,0.22244 -0.30685,0.4706 l -0.63609,-0.61929 q 0.0974,-0.1636 0.33718,-0.49266 0.22968,-0.32171 0.68453,-0.65265 0.5256,-0.38242 0.94741,-0.50381 0.4218,-0.1214 0.79035,-0.0185 0.35844,0.1102 0.68659,0.41249 0.3355,0.3124 0.68115,0.78746 l 1.58851,2.18326 0.99056,-0.72071 0.50744,0.69743 -0.99055,0.72072 0.95604,1.314 -0.72587,0.74455 -1.059,-1.45551 z"
           style="font-size:12.50000095px"
           id="path4881" />
        <path
           d="m -168.56163,408.7264 q -1.12242,0.34757 -1.94954,-0.16835 -0.82343,-0.50399 -1.26343,-1.92492 l -0.10723,-0.34628 3.96428,-1.22757 q -0.32592,-0.84124 -0.96793,-1.13969 -0.65026,-0.28281 -1.56968,0.002 -0.52539,0.16269 -0.86967,0.3609 -0.34427,0.19821 -0.50574,0.35289 l -0.39018,-0.79517 q 0.14953,-0.15099 0.58194,-0.40266 0.43241,-0.25166 1.0175,-0.43284 0.71643,-0.22185 1.33226,-0.17701 0.60758,0.0605 1.08412,0.33166 0.47654,0.27118 0.81834,0.7411 0.34549,0.48187 0.53776,1.10278 0.22925,0.74032 0.17246,1.35984 -0.0568,0.61952 -0.31602,1.09236 -0.25923,0.47284 -0.66945,0.79615 -0.41023,0.32332 -0.89979,0.47491 z m -2.06946,-1.95012 q 0.21816,0.7045 0.71403,0.99586 0.49957,0.3033 1.10854,0.11472 0.34628,-0.10722 0.59218,-0.32731 0.23397,-0.21639 0.3704,-0.49418 0.13644,-0.27779 0.1708,-0.5894 0.0344,-0.31161 -0.0186,-0.60927 l -2.9374,0.90958 z"
           style="font-size:12.50000095px"
           id="path4883" />
        <path
           d="m -174.61822,403.68125 0.42449,5.47106 q -1.23734,0.53482 -2.53344,0.63538 -0.3988,0.0309 -0.76312,0.0216 -0.36334,0.003 -0.80727,-0.0627 l 0.11635,-0.92427 q 0.40751,0.0812 0.721,0.082 0.30201,0.0142 0.66342,-0.0139 0.76021,-0.059 1.52892,-0.33177 l -0.37228,-4.79808 1.02193,-0.0793 z"
           style="font-size:12.50000095px"
           id="path4885" />
        <path
           d="m -183.53897,404.99537 q -0.0149,-0.3747 0.2234,-0.67193 0.23835,-0.29723 0.65052,-0.31367 0.42466,-0.0169 0.68592,0.26038 0.26126,0.27731 0.2762,0.65201 0.0154,0.38719 -0.22291,0.68442 -0.23834,0.29724 -0.663,0.31417 -0.41218,0.0164 -0.67343,-0.26087 -0.26126,-0.27731 -0.2767,-0.66451 z"
           style="font-size:12.50000095px"
           id="path4887" />
        <path
           d="m -187.58404,409.90427 q -0.18504,0.11651 -0.53254,0.23651 -0.35973,0.13277 -0.79713,0.14217 -0.58736,0.0126 -1.05459,-0.20237 -0.46723,-0.215 -0.78826,-0.60819 -0.33353,-0.39292 -0.50809,-0.95179 -0.18678,-0.54611 -0.2013,-1.22096 -0.0151,-0.69984 0.17281,-1.26651 0.18786,-0.56667 0.54167,-0.97437 0.35409,-0.3952 0.8619,-0.61868 0.50781,-0.22347 1.13267,-0.23691 0.68734,-0.0148 1.22687,0.0736 0.53952,0.0884 0.8666,0.18141 l 0.17901,8.32307 -1.0335,0.19727 -0.0661,-3.07429 z m -0.1008,-4.68641 q -0.23878,-0.0574 -0.47704,-0.0898 -0.23798,-0.0199 -0.45043,-0.0153 -0.8623,0.0185 -1.3384,0.5539 -0.47583,0.54786 -0.45298,1.61012 0.01,0.44989 0.10549,0.83542 0.0961,0.39803 0.28945,0.66893 0.19364,0.2834 0.49706,0.43941 0.29093,0.15629 0.70333,0.14742 0.36242,-0.008 0.69662,-0.16502 0.33446,-0.14473 0.50593,-0.31095 l -0.079,-3.67415 z"
           style="font-size:12.50000095px"
           id="path4889" />
        <path
           d="m -192.67787,403.32697 q -0.11306,-0.0615 -0.31339,-0.0972 -0.21284,-0.0356 -0.38783,-0.034 -0.61247,0.006 -0.94747,0.28358 -0.34761,0.26565 -0.62956,0.88073 0.71195,1.31861 1.33811,2.82551 0.62627,1.5194 1.03993,3.02822 l -1.12496,0.0102 q -0.12951,-0.49885 -0.29732,-1.08486 -0.18019,-0.57339 -0.39822,-1.18395 -0.21803,-0.61055 -0.46118,-1.23338 -0.25553,-0.61021 -0.5356,-1.1702 -0.19479,0.57679 -0.3647,1.14085 -0.16991,0.56406 -0.31481,1.12789 -0.1448,0.57633 -0.28948,1.16517 -0.14456,0.60133 -0.30106,1.26527 l -1.07496,0.01 q 0.38529,-1.62855 0.87147,-3.15801 0.47369,-1.52935 1.02441,-2.83438 0.20797,-0.5019 0.45468,-0.86665 0.23421,-0.36463 0.51955,-0.60472 0.28534,-0.24009 0.64681,-0.35587 0.36147,-0.11577 0.82395,-0.11995 0.23749,-0.002 0.52554,0.0577 0.27556,0.06 0.376,0.1091 l -0.17991,0.83916 z"
           style="font-size:12.50000095px"
           id="path4891" />
      </g>
    </g>
  </g>
</svg>
