<?xml version="1.0" encoding="UTF-8" standalone="no"?>
<svg
   xmlns:dc="http://purl.org/dc/elements/1.1/"
   xmlns:cc="http://creativecommons.org/ns#"
   xmlns:rdf="http://www.w3.org/1999/02/22-rdf-syntax-ns#"
   xmlns:svg="http://www.w3.org/2000/svg"
   xmlns="http://www.w3.org/2000/svg"
   width="46.624096mm"
   height="75mm"
   viewBox="0 0 165.20349 265.74803"
   id="svg6722"
   version="1.1">
  <defs
     id="defs6724" />
  <metadata
     id="metadata6727">
    <rdf:RDF>
      <cc:Work
         rdf:about="">
        <dc:format>image/svg+xml</dc:format>
        <dc:type
           rdf:resource="http://purl.org/dc/dcmitype/StillImage" />
        <dc:title></dc:title>
      </cc:Work>
    </rdf:RDF>
  </metadata>
  <g
     transform="matrix(0.93749501,0,0,0.93749496,484.93488,-274.36703)"
     id="g5612">
    <path
       style="fill:#ffffff;stroke:#cccccc;stroke-width:1.01584804px;stroke-linecap:butt;stroke-linejoin:miter;stroke-opacity:1"
       d="m -507.09676,349.98038 -8.66185,-8.44936 c 0,0 9.12675,-6.39719 9.92038,-9.47543 1.2052,-4.67461 -0.58111,-15.01091 -0.58111,-15.01091 0,0 12.11697,1.58726 15.03085,0.28059 4.92477,-2.20842 9.3592,-9.87225 9.3592,-9.87225 0,0 3.94823,0.86172 9.90045,-1.12236 15.23755,-7.65251 20.73807,-9.4903 33.00378,-9.94033 12.6981,-0.39682 23.7608,2.72956 32.09393,1.93593 8.33312,-0.79363 16.66625,-5.1586 23.41212,-5.1586 6.74587,0 15.47581,0.39681 18.25351,2.38089 2.77772,1.98408 1.98409,8.72995 5.95224,8.72995 3.96816,0 7.93632,-2.3809 11.50765,-0.39682 3.57135,1.98408 6.34905,5.95223 6.34905,8.33313 0,2.38089 -15.07899,16.26944 -18.25352,22.22167 -3.17452,5.95224 -2.37842,3.82437 -1.94419,7.34693 0.36861,2.99022 7.51955,11.1191 7.51955,11.1191 0,0 -9.03047,7.98446 -9.03047,10.36535 0,2.38089 0.51016,29.79866 -0.51304,44.97633 -0.5167,7.66456 -5.54374,15.66837 -12.68642,19.23972 -7.14268,3.57133 -31.75693,0.99787 -31.75693,0.99787 l 0,17.45989 13.09492,7.37513 c 13.92652,-3.85232 21.6815,0.99237 28.57072,8.10069 5.31374,5.48272 7.30684,14.79007 5.55542,22.22167 -1.9335,8.20418 -8.50576,16.43381 -16.44207,19.21152 -7.93631,2.77771 -13.31085,3.15458 -13.31085,3.15458 11.28327,6.9779 15.05867,10.87693 17.55961,19.17505 3.66184,15.06549 -3.92365,24.66966 -13.359,30.53487 -6.72806,4.1823 -20.96315,1.68355 -23.74085,-1.09417 -2.77771,-2.7777 -10.92653,-8.44935 -10.92653,-8.44935 0,0 -3.66763,6.91023 -3.66763,10.48158 -1.02256,6.62917 -8.0941,14.8655 -15.39946,17.54791 -8.39056,3.08087 -20.57459,0.84177 -26.52683,-3.92002 -5.95223,-4.76179 -7.94799,-14.59416 -7.55118,-24.11773 0.39683,-9.52358 -0.9862,-11.82812 -4.95436,-12.22494 -3.96815,-0.39681 -12.70636,-0.77369 -20.24585,-3.55141 -18.2045,-9.40033 -19.48239,-28.6025 -15.04253,-43.18481 3.61943,-11.88771 15.98703,-21.29634 29.80106,-22.39772 10.71401,-0.79363 11.90446,0.1843 11.90446,0.1843 l 13.88855,-15.87262 -0.23245,-39.40098 c 0,0 -16.95711,1.20287 -25.27998,-0.11621 -4.21209,-0.66758 -9.93485,-1.76894 -12.18505,-3.90009 -3.10645,-2.94206 -10.1329,-9.64804 -10.52972,-17.58435 -0.39681,-7.93632 0.14442,-38.13419 0.14442,-38.13419 z"
       id="path3242" />
    <g
       id="g3582"
       style="fill:#00d400">
      <path
         transform="matrix(0.37875674,0.16207507,-0.16207507,0.37875674,-124.25782,518.61273)"
         style="fill:#00d400;fill-opacity:1;stroke:none"
         d="m -652.7716,378.35675 a 44.50489,44.50489 0 0 1 -44.50489,44.50489 44.50489,44.50489 0 0 1 -44.50489,-44.50489 44.50489,44.50489 0 0 1 44.50489,-44.50489 44.50489,44.50489 0 0 1 44.50489,44.50489 z"
         id="path3787-5-3-8-0-7-2-9-9-6-9" />
      <path
         transform="matrix(0.83547227,-0.54953261,0.59290557,0.805272,0,0)"
         style="fill:#00d400;fill-opacity:1;stroke:none"
         d="m -686.66417,145.69881 c 3.49359,0 6.30611,12.20444 6.30611,27.36422 l 0,14.84801 c 0,15.15978 -2.81252,27.36423 -6.30611,27.36423 -3.49358,0 -6.30611,-12.20445 -6.30611,-27.36423 l 0,-14.84801 c 0,-15.15978 2.81253,-27.36422 6.30611,-27.36422 z"
         id="rect3855-6-6-5-6-8-6-2-0-3-2" />
      <path
         transform="matrix(0.37875674,0.16207507,-0.16207507,0.37875674,-124.25782,518.61273)"
         style="fill:#ffffff;fill-opacity:1;stroke:none"
         d="m -668.76308,377.75317 a 28.664167,28.664167 0 0 1 -28.66417,28.66417 28.664167,28.664167 0 0 1 -28.66416,-28.66417 28.664167,28.664167 0 0 1 28.66416,-28.66416 28.664167,28.664167 0 0 1 28.66417,28.66416 z"
         id="path3896-1-4-7-6-4-6-1-6-2-0" />
      <path
         transform="matrix(0.68413803,-0.72935256,0.76447893,0.64464871,0,0)"
         style="fill:#00d400;fill-opacity:1;stroke:none"
         d="m -666.02758,14.127356 c 3.51773,0 6.34969,12.288776 6.34969,27.55331 l 0,14.950607 c 0,15.264534 -2.83196,27.553311 -6.34969,27.553311 -3.51772,0 -6.34968,-12.288777 -6.34968,-27.553311 l 0,-14.950607 c 0,-15.264534 2.83196,-27.55331 6.34968,-27.55331 z"
         id="rect3855-5-7-4-9-6-8-7-7-7" />
      <path
         transform="matrix(0.41196033,-0.00369877,0.00369877,0.41196033,-101.09914,319.57571)"
         style="fill:#00d400;fill-opacity:1;stroke:none"
         d="m -888.8568,423.62128 a 44.50489,44.50489 0 0 1 -44.50489,44.50489 44.50489,44.50489 0 0 1 -44.50489,-44.50489 44.50489,44.50489 0 0 1 44.50489,-44.50489 44.50489,44.50489 0 0 1 44.50489,44.50489 z"
         id="path3787-9-0-6-9-3-8-3-6" />
      <path
         transform="matrix(0.41196033,-0.00369877,0.00369877,0.41196033,-101.09914,319.57571)"
         style="fill:#00d400;fill-opacity:1;stroke:none"
         d="m -775.32397,435.54926 a 44.50489,44.50489 0 0 1 -44.50489,44.50489 44.50489,44.50489 0 0 1 -44.50489,-44.50489 44.50489,44.50489 0 0 1 44.50489,-44.5049 44.50489,44.50489 0 0 1 44.50489,44.5049 z"
         id="path3787-3-9-6-4-2-8-3-3-5" />
      <path
         transform="matrix(0.41196033,-0.00369877,0.00369877,0.41196033,-101.09914,319.57571)"
         style="fill:#00d400;fill-opacity:1;stroke:none"
         d="m -652.7716,378.35675 a 44.50489,44.50489 0 0 1 -44.50489,44.50489 44.50489,44.50489 0 0 1 -44.50489,-44.50489 44.50489,44.50489 0 0 1 44.50489,-44.50489 44.50489,44.50489 0 0 1 44.50489,44.50489 z"
         id="path3787-5-3-8-0-7-2-9-9-6" />
      <path
         transform="matrix(0.71483342,0.69929478,-0.66055141,0.75078082,0,0)"
         style="fill:#00d400;fill-opacity:1;stroke:none"
         d="m -32.817168,628.77148 c 3.493584,0 6.306108,12.20445 6.306108,27.36423 l 0,14.84801 c 0,15.15978 -2.812524,27.36423 -6.306108,27.36423 -3.493584,0 -6.306108,-12.20445 -6.306108,-27.36423 l 0,-14.84801 c 0,-15.15978 2.812524,-27.36423 6.306108,-27.36423 z"
         id="rect3855-5-71-7-0-5-8-7-9" />
      <path
         transform="matrix(0.48649103,-0.87368557,0.8981681,0.4396522,0,0)"
         style="fill:#00d400;fill-opacity:1;stroke:none"
         d="m -596.76756,-167.8168 c 3.49358,0 6.30611,12.20444 6.30611,27.36422 l 0,14.84801 c 0,15.15978 -2.81253,27.364229 -6.30611,27.364229 -3.49359,0 -6.30611,-12.204449 -6.30611,-27.364229 l 0,-14.84801 c 0,-15.15978 2.81252,-27.36422 6.30611,-27.36422 z"
         id="rect3855-6-6-5-6-8-6-2-0-3" />
      <path
         transform="matrix(0.41196033,-0.00369877,0.00369877,0.41196033,-101.09914,319.57571)"
         style="fill:#ffffff;fill-opacity:1;stroke:none"
         d="m -904.99928,423.62122 a 28.664167,28.664167 0 0 1 -28.66417,28.66416 28.664167,28.664167 0 0 1 -28.66417,-28.66416 28.664167,28.664167 0 0 1 28.66417,-28.66417 28.664167,28.664167 0 0 1 28.66417,28.66417 z"
         id="path3896-12-9-4-0-8-9-6-7" />
      <path
         transform="matrix(0.99027394,0.13913133,-0.08661799,0.9962416,0,0)"
         style="fill:#00d400;fill-opacity:1;stroke:none"
         d="m -393.46098,498.48312 c 3.49358,0 6.30611,0.14145 6.30611,0.31715 l 0,68.94217 c 0,0.1757 -2.81253,0.31715 -6.30611,0.31715 -3.49359,0 -6.30611,-0.14145 -6.30611,-0.31715 l 0,-68.94217 c 0,-0.1757 2.81252,-0.31715 6.30611,-0.31715 z"
         id="rect3855-89-9-0-5-6-8-5-8-4" />
      <path
         transform="matrix(0.41196033,-0.00369877,0.00369877,0.41196033,-101.09914,319.57571)"
         style="fill:#ffffff;fill-opacity:1;stroke:none"
         d="m -792.06972,435.54938 a 28.664167,28.664167 0 0 1 -28.66417,28.66416 28.664167,28.664167 0 0 1 -28.66416,-28.66416 28.664167,28.664167 0 0 1 28.66416,-28.66417 28.664167,28.664167 0 0 1 28.66417,28.66417 z"
         id="path3896-7-7-2-6-1-6-1-3-5" />
      <path
         transform="matrix(0.41196033,-0.00369877,0.00369877,0.41196033,-101.09914,319.57571)"
         style="fill:#ffffff;fill-opacity:1;stroke:none"
         d="m -668.76308,377.75317 a 28.664167,28.664167 0 0 1 -28.66417,28.66417 28.664167,28.664167 0 0 1 -28.66416,-28.66417 28.664167,28.664167 0 0 1 28.66416,-28.66416 28.664167,28.664167 0 0 1 28.66417,28.66416 z"
         id="path3896-1-4-7-6-4-6-1-6-2" />
      <path
         transform="matrix(0.41196033,-0.00369877,0.00369877,0.41196033,-101.81343,320.95091)"
         style="fill:#00d400;fill-opacity:1;stroke:none"
         d="m -679.18505,503.86469 a 44.50489,44.50489 0 0 1 -44.50489,44.50489 44.50489,44.50489 0 0 1 -44.50489,-44.50489 44.50489,44.50489 0 0 1 44.50489,-44.5049 44.50489,44.50489 0 0 1 44.50489,44.5049 z"
         id="path3787-4-1-7-8-5-2-7-5-8-5" />
      <path
         transform="matrix(0.41196033,-0.00369877,0.00369877,0.41196033,-101.81343,320.95091)"
         style="fill:#ffffff;fill-opacity:1;stroke:none"
         d="m -695.17653,503.11035 a 28.664167,28.664167 0 0 1 -28.66417,28.66417 28.664167,28.664167 0 0 1 -28.66417,-28.66417 28.664167,28.664167 0 0 1 28.66417,-28.66417 28.664167,28.664167 0 0 1 28.66417,28.66417 z"
         id="path3896-3-9-5-8-3-1-4-0-2-4" />
      <path
         transform="matrix(-0.00153892,-0.99999882,0.99999939,-0.00110452,0,0)"
         style="fill:#00d400;fill-opacity:1;stroke:none"
         d="m -385.32999,-499.41998 c 9.21078,0 16.62596,7.87037 16.62596,17.64657 l 0,32.17444 c 0,9.7762 -7.41518,17.64657 -16.62596,17.64657 -9.21079,0 -16.62597,-7.87037 -16.62597,-17.64657 l 0,-32.17444 c 0,-9.7762 7.41518,-17.64657 16.62597,-17.64657 z"
         id="rect2985-79-7-0-7-2-4-0-3-84-7" />
      <path
         transform="matrix(0.99840789,0.05640635,-0.00205041,0.9999979,0,0)"
         style="fill:#00d400;fill-opacity:1;stroke:none"
         d="m -433.76473,359.47449 c 9.17395,0 16.55948,6.9541 16.55948,15.59216 l 0,93.05348 c 0,8.63805 -7.38553,15.59216 -16.55948,15.59216 -9.17396,0 -16.55949,-6.95411 -16.55949,-15.59216 l 0,-93.05348 c 0,-8.63806 7.38553,-15.59216 16.55949,-15.59216 z"
         id="rect2985-79-5-8-8-2-7-6-8-5-4" />
      <path
         id="path4099-90-1-7-8-8-3-0-4"
         d="m -498.45097,339.37207 c 2.452,-0.002 4.4422,1.80403 4.4453,4.03648 0,2.23256 -1.9827,4.04492 -4.4347,4.04814 -2.4523,0.002 -2.9181,-1.73776 -7.7586,-4.03223 4.7684,-2.19819 5.2958,-4.04922 7.748,-4.05239 z"
         style="fill:#00d400;fill-opacity:1;stroke:none" />
      <path
         id="path4099-4-2-4-7-7-8-5-36-3"
         d="m -490.49587,328.75863 c 1.7174,1.75022 1.8177,4.43666 0.2243,6.00026 -1.5936,1.56364 -4.2776,1.41236 -5.995,-0.33782 -1.7175,-1.75027 -0.7992,-3.30102 -2.5451,-8.36523 4.9063,1.87029 6.5983,0.95257 8.3155,2.70279 z"
         style="fill:#00d400;fill-opacity:1;stroke:none" />
      <path
         id="path4099-8-7-9-1-0-8-9-1-0"
         d="m -383.10607,334.77762 c -0.1285,2.44872 -2.0393,4.33925 -4.2687,4.22258 -2.2295,-0.11671 -3.933,-2.1963 -3.805,-4.645 0.1286,-2.44876 1.8917,-2.82078 4.442,-7.53147 1.9398,4.87923 3.7601,5.50495 3.6312,7.95409 z"
         style="fill:#00d400;fill-opacity:1;stroke:none" />
      <path
         id="path4099-1-5-8-3-3-3-1-0-7"
         d="m -477.01727,326.96214 c 0,2.45206 -1.8041,4.44229 -4.0366,4.4452 -2.2325,0.002 -4.0449,-1.98257 -4.048,-4.43467 0,-2.45209 1.7377,-2.91799 4.0321,-7.75852 2.1982,4.76839 4.0492,5.29589 4.0525,7.74799 z"
         style="fill:#00d400;fill-opacity:1;stroke:none" />
      <path
         id="path4099-6-9-8-7-3-8-9-6-8"
         d="m -429.31897,336.23033 c -0.071,2.45114 -1.9347,4.38693 -4.1662,4.32379 -2.2317,-0.0633 -3.9844,-2.10137 -3.9151,-4.55251 0.071,-2.45108 1.8233,-2.8653 4.26,-7.63578 2.0562,4.83134 3.8907,5.41339 3.8213,7.8645 z"
         style="fill:#00d400;fill-opacity:1;stroke:none" />
      <path
         id="path4099-18-0-6-8-5-7-6-32-6"
         d="m -441.31407,337.28643 c 1.2034,2.13649 0.6022,4.75667 -1.3421,5.85253 -1.9451,1.09566 -4.4974,0.25183 -5.7009,-1.88455 -1.2035,-2.13651 0.086,-3.39519 -0.2831,-8.73923 4.2514,3.08136 6.1236,2.63497 7.3271,4.77145 z"
         style="fill:#00d400;fill-opacity:1;stroke:none" />
      <path
         id="path4099-99-0-6-1-7-8-7-0-8"
         d="m -449.93457,346.99566 c 2.4512,0.0693 4.387,1.93472 4.3237,4.16629 -0.063,2.23164 -2.1014,3.98449 -4.5524,3.91511 -2.451,-0.0693 -2.8654,-1.82337 -7.6359,-4.26006 4.8315,-2.05612 5.4136,-3.89071 7.8646,-3.82134 z"
         style="fill:#00d400;fill-opacity:1;stroke:none" />
      <path
         transform="matrix(0.03134945,-0.99950849,0.99967414,0.0255268,0,0)"
         style="fill:#00d400;fill-opacity:1;stroke:none"
         d="m -415.12472,-427.19159 c 9.21163,0 16.62749,7.87026 16.62749,17.64633 l 0,30.50829 c 0,9.77607 -7.41586,17.64633 -16.62749,17.64633 -9.21162,0 -16.62748,-7.87026 -16.62748,-17.64633 l 0,-30.50829 c 0,-9.77607 7.41586,-17.64633 16.62748,-17.64633 z"
         id="rect2985-79-4-5-6-7-6-7-5-6-6-8" />
      <path
         transform="matrix(0.99911505,0.04206085,-0.0190213,0.99981908,0,0)"
         style="fill:#00d400;fill-opacity:1;stroke:none"
         d="m -381.31629,349.70639 c 9.21525,0 16.63403,7.86095 16.63403,17.62545 l 0,53.0547 c 0,9.7645 -7.41878,17.62545 -16.63403,17.62545 -9.21525,0 -16.63403,-7.86095 -16.63403,-17.62545 l 0,-53.0547 c 0,-9.7645 7.41878,-17.62545 16.63403,-17.62545 z"
         id="rect2985-79-4-5-6-7-6-7-5-6-3-1-4" />
      <path
         transform="matrix(0.99934535,0.03617821,-0.0221179,0.99975537,0,0)"
         style="fill:#00d400;fill-opacity:1;stroke:none"
         d="m -474.06197,343.93506 c 9.21312,0 16.63019,7.86125 16.63019,17.62613 l 0,40.69022 c 0,9.76487 -7.41707,17.62613 -16.63019,17.62613 -9.21313,0 -16.6302,-7.86126 -16.6302,-17.62613 l 0,-40.69022 c 0,-9.76488 7.41707,-17.62613 16.6302,-17.62613 z"
         id="rect2985-79-4-5-6-7-6-7-5-6-3-6-5-3" />
      <path
         id="path4099-18-0-6-8-5-7-6-3-5-1"
         d="m -395.71477,335.57993 c 1.39,2.0201 1.0259,4.68361 -0.8125,5.94922 -1.8391,1.26547 -4.4567,0.65367 -5.8467,-1.36634 -1.39,-2.02011 -0.2188,-3.38922 -1.0648,-8.67874 4.5103,2.68818 6.3351,2.07587 7.725,4.09597 z"
         style="fill:#00d400;fill-opacity:1;stroke:none" />
      <path
         id="path4099-18-0-6-8-5-7-6-6-4-4"
         d="m -378.78467,336.1563 c -1.6765,1.78942 -1.715,4.47742 -0.087,6.0038 1.6291,1.52637 4.3089,1.31306 5.9854,-0.47625 1.6766,-1.78945 0.7234,-3.31836 2.3512,-8.42179 -4.8617,1.98316 -6.5743,1.10476 -8.2509,2.89418 z"
         style="fill:#00d400;fill-opacity:1;stroke:none" />
      <path
         id="path4099-90-1-7-8-8-3-0-4-6"
         d="m -372.06172,350.35262 c -2.452,-0.002 -4.4422,1.80403 -4.4453,4.03648 0,2.23256 1.9827,4.04492 4.4347,4.04814 2.4523,0.002 2.9181,-1.73776 7.7586,-4.03223 -4.7684,-2.19819 -5.2958,-4.04922 -7.748,-4.05239 z"
         style="fill:#00d400;fill-opacity:1;stroke:none" />
    </g>
    <g
       style="font-style:normal;font-variant:normal;font-weight:normal;font-stretch:normal;font-size:28.51474762px;line-height:125%;font-family:'Ubuntu Mono';-inkscape-font-specification:'Ubuntu Mono';letter-spacing:0px;word-spacing:0px;fill:#333333;fill-opacity:1;stroke:none"
       id="text3121-9">
      <path
         d="m -465.86252,312.33519 q 0.86814,-0.85357 2.00184,-1.64227 1.14975,-0.83552 2.37577,-1.43561 1.19458,-0.58469 2.40257,-0.90318 1.19259,-0.34991 2.28756,-0.26237 1.09497,0.0875 1.99801,0.65869 0.88765,0.53973 1.47235,1.73431 0.27696,0.56585 0.3031,1.17654 0.0261,0.61069 -0.11964,1.18862 -0.14578,0.57793 -0.41597,1.06088 -0.23875,0.46757 -0.55444,0.77796 1.40999,-0.14459 2.61135,0.31953 1.2174,0.41729 1.95596,1.92623 1.03092,2.10624 -0.19165,4.14644 -1.20651,1.99337 -4.25584,3.48588 -1.88619,0.92321 -3.40787,1.3173 -1.49025,0.3787 -2.1792,0.40417 l -0.54265,-2.46212 q 0.54848,-0.0736 1.92837,-0.35934 1.3645,-0.31716 3.0935,-1.16343 2.0748,-1.01552 2.72555,-2.07442 0.65074,-1.05889 0.15836,-2.06486 -0.55392,-1.13171 -1.82014,-1.33027 -1.26621,-0.19856 -2.86947,0.58616 l -3.08076,1.50791 -1.01553,-2.07481 2.89215,-1.41558 q 1.60326,-0.78473 2.12759,-1.70381 0.52434,-0.91909 0.0781,-1.83075 -0.47699,-0.97453 -1.63417,-1.10955 -1.15718,-0.13503 -3.04337,0.78818 -0.88022,0.43083 -1.93566,1.22019 -1.024,0.77398 -1.65671,1.55127 l -1.68908,-2.01789 z"
         style="font-size:35.00000381px;letter-spacing:-2.5400002px;fill:#333333"
         id="path5002" />
      <path
         d="m -439.52341,307.97702 q -0.004,1.05 -0.0777,2.23975 -0.039,1.15487 -0.18305,2.34438 -0.10896,1.15464 -0.32293,2.30891 -0.21384,1.11927 -0.5672,2.09807 -0.70684,1.99258 -2.14676,3.42265 -1.43992,1.43006 -4.10086,1.70093 l -0.41159,-2.45142 q 1.54095,-0.27472 2.41883,-1.11171 0.913,-0.87187 1.4422,-2.09506 0.4586,-1.04843 0.67316,-2.37771 0.24956,-1.32915 0.35961,-2.79878 0.11004,-1.46963 0.11509,-2.93962 0.005,-1.46999 0.009,-2.76498 l 9.58994,0.0329 -0.0557,16.23991 -2.90499,-0.01 0.0474,-13.82492 -3.88498,-0.0133 z"
         style="font-size:35.00000381px;letter-spacing:-2.5400002px;fill:#333333"
         id="path5004" />
      <path
         d="m -431.56164,325.37483 q 0.28281,0.22331 0.81868,0.41687 0.57041,0.19919 1.05405,0.27787 1.69275,0.2754 2.74913,-0.33285 1.08531,-0.56809 2.15527,-2.13157 -1.3388,-3.97659 -2.35147,-8.43203 -1.00706,-4.48999 -1.43245,-8.84988 l 3.10912,0.50584 q 0.12064,1.43803 0.30558,3.13475 0.2251,1.66779 0.53697,3.45608 0.31188,1.78829 0.68723,3.62237 0.41552,1.80515 0.92261,3.48336 0.81127,-1.49918 1.54783,-2.97505 0.73656,-1.47588 1.40402,-2.96299 0.67309,-1.52166 1.3518,-3.07787 0.68433,-1.59075 1.43131,-3.34861 l 2.97094,0.48335 q -1.83612,4.3111 -3.90364,8.30087 -2.03298,3.99539 -4.17206,7.33523 -0.8121,1.28629 -1.66601,2.1757 -0.81936,0.89504 -1.7207,1.42214 -0.90134,0.5271 -1.95375,0.67502 -1.05241,0.14792 -2.33061,-0.06 -0.65637,-0.10679 -1.42282,-0.40879 -0.7319,-0.29638 -0.98579,-0.47952 l 0.89476,-2.23026 z"
         style="font-size:35.00000381px;letter-spacing:-2.5400002px;fill:#333333"
         id="path5006" />
      <path
         d="m -414.03941,309.28592 0.19428,4.75604 q 0.0757,1.85345 1.08489,2.54784 1.04415,0.69296 2.79269,0.62154 1.25895,-0.0514 2.09397,-0.19062 0.83358,-0.17417 1.49089,-0.37616 l -0.31284,-7.65862 2.90258,-0.11856 0.66281,16.22647 -2.90258,0.11856 -0.25569,-6.25978 q -0.24194,0.0799 -0.69228,0.20343 -0.41679,0.0871 -0.97204,0.21485 -0.52171,0.0914 -1.11335,0.18559 -0.59165,0.0942 -1.15118,0.11708 -1.39884,0.0571 -2.5643,-0.17548 -1.1669,-0.2676 -2.03334,-0.89776 -0.83147,-0.6316 -1.33037,-1.69712 -0.50033,-1.1005 -0.56604,-2.70916 l -0.1957,-4.791 2.8676,-0.11714 z"
         style="font-size:35.00000381px;letter-spacing:-2.5400002px;fill:#333333"
         id="path5008" />
      <path
         d="m -394.59845,321.06065 q 1.08139,-0.0885 1.91288,-0.2267 0.86639,-0.14109 1.41596,-0.2914 l -0.39374,-4.81392 q -0.5724,-0.12877 -1.38328,-0.16779 -0.776,-0.0419 -1.64809,0.0294 -0.80232,0.0656 -1.55834,0.26793 -0.75888,0.16742 -1.32622,0.52987 -0.56734,0.36246 -0.90826,0.9171 -0.34378,0.51975 -0.28101,1.28719 0.1284,1.56976 1.22626,2.11206 1.12989,0.50457 2.94384,0.35621 z m -1.46601,-14.48872 q 1.81394,-0.14837 3.07196,0.20526 1.2929,0.35077 2.12596,1.09032 0.83306,0.73955 1.24117,1.86502 0.40811,1.12548 0.51938,2.48594 l 0.82743,10.11622 q -0.99735,0.25716 -2.65179,0.6383 -1.61955,0.37828 -3.36373,0.52094 -1.32557,0.10843 -2.60135,-0.033 -1.27293,-0.10659 -2.29532,-0.58483 -1.02524,-0.51313 -1.701,-1.47625 -0.67576,-0.96312 -0.80416,-2.53288 -0.11413,-1.39534 0.40186,-2.3857 0.54801,-1.02809 1.44136,-1.69815 0.92823,-0.67291 2.12918,-1.01696 1.23298,-0.38178 2.48879,-0.4845 1.70929,-0.1398 3.3802,0.10981 l -0.0656,-0.80232 q -0.0599,-0.73255 -0.28855,-1.38107 -0.1966,-0.68626 -0.69573,-1.2073 -0.46426,-0.5239 -1.25737,-0.77508 -0.76109,-0.28892 -1.94713,-0.19191 -1.49999,0.12269 -2.59914,0.42329 -1.09916,0.30061 -1.67506,0.55841 l -0.54285,-2.34354 q 0.57019,-0.32758 1.91353,-0.64815 1.37822,-0.32343 2.94798,-0.45183 z"
         style="font-size:35.00000381px;letter-spacing:-2.5400002px;fill:#333333"
         id="path5010" />
      <path
         d="m -370.40964,308.53195 -2.79045,15.99847 -2.79284,-0.48713 2.12892,-12.20573 q -1.13541,1.00993 -2.44644,2.41557 -1.27654,1.41165 -2.60561,2.92073 -1.28857,1.48061 -2.50217,2.93877 -1.21359,1.45816 -2.16018,2.60761 l -2.55148,-0.44503 2.79045,-15.99847 2.75836,0.48111 -2.00864,11.51614 q 1.02757,-1.20638 2.22914,-2.59558 1.20758,-1.42368 2.47811,-2.80085 1.27654,-1.41166 2.52302,-2.65091 1.25249,-1.27374 2.39833,-2.13973 l 2.55148,0.44503 z m -5.61735,-3.64441 q -1.93084,-0.33678 -2.96924,-1.51269 -1.03238,-1.21039 -1.0015,-3.01695 l 2.27444,-0.20728 q 0.10143,1.04802 0.57933,1.77088 0.48392,0.68839 1.48382,0.86279 0.99991,0.17441 1.68829,-0.30951 0.69441,-0.51839 1.14464,-1.47018 l 2.03549,0.95901 q -0.58254,1.71034 -1.96372,2.49976 -1.3407,0.76095 -3.27155,0.42417 z"
         style="font-size:35.00000381px;letter-spacing:-2.5400002px;fill:#333333"
         id="path5012" />
      <path
         d="m -354.59916,318.16415 q -0.84757,0.97911 -1.58415,1.77654 -0.73658,0.79744 -1.45736,1.46967 -0.69433,0.69513 -1.41511,1.36737 -0.69788,0.64576 -1.46448,1.37092 l -1.50836,-1.3057 q 0.60782,-0.8626 1.14692,-1.64581 0.56201,-0.80967 1.12402,-1.61935 0.58847,-0.78676 1.27213,-1.63001 0.68366,-0.84325 1.53122,-1.82236 l 3.84838,-4.44571 2.35517,2.03873 -3.84838,4.44571 z m -11.79679,11.22134 q -0.71449,-0.61849 -0.83141,-1.55295 -0.094,-0.96093 0.6161,-1.78127 0.71012,-0.82034 1.6517,-0.83853 0.96448,-0.0446 1.67897,0.57385 0.74095,0.64139 0.80851,1.57942 0.11692,0.93446 -0.5932,1.7548 -0.71011,0.82034 -1.6746,0.86499 -0.91512,0.0411 -1.65607,-0.60031 z"
         style="font-size:35.00000381px;letter-spacing:-2.5400002px;fill:#333333"
         id="path5014" />
    </g>
    <path
       style="fill:none;stroke:none"
       d="m -460.31833,329.45946 c 0,0 2.409,-8.29263 23.23756,-7.61779 10.35906,0.33563 23.12365,4.53958 29.00507,3.33206 17.3933,-3.57104 39.78517,-5.09186 46.93187,10.55583"
       id="path3150-2" />
    <g
       transform="translate(577.75867,15.519818)"
       style="font-style:normal;font-variant:normal;font-weight:normal;font-stretch:normal;font-size:7.08267832px;line-height:125%;font-family:'Ubuntu Mono';-inkscape-font-specification:'Ubuntu Mono';letter-spacing:0px;word-spacing:0px;fill:#1a1a1a;fill-opacity:1;stroke:none"
       id="text3125-5">
      <path
         d="m -1060.5471,511.11374 q 0.3248,0.0114 0.5543,0.24457 0.2294,0.23318 0.2159,0.62045 -0.014,0.38726 -0.2589,0.6038 -0.2452,0.21654 -0.57,0.20515 -0.3373,-0.0118 -0.5543,-0.24458 -0.2294,-0.23318 -0.2159,-0.62044 0.014,-0.38727 0.2589,-0.6038 0.2327,-0.21698 0.57,-0.20515 z m 0.3241,-1.75222 1.674,0.0587 -0.03,0.86197 -2.6983,-0.0946 0.1248,-3.56031 q 0.03,-0.86197 -0.1966,-1.17011 -0.2272,-0.29565 -0.702,-0.31229 -0.3622,-0.0127 -0.6651,0.0642 -0.3154,0.0765 -0.4938,0.1703 l -0.1192,-0.87972 q 0.076,-0.0349 0.2158,-0.0925 0.1392,-0.0451 0.3283,-0.0885 0.1767,-0.0438 0.4029,-0.0734 0.2137,-0.03 0.451,-0.0217 0.5497,0.0193 0.9067,0.18188 0.357,0.16262 0.5714,0.47032 0.2018,0.30726 0.2739,0.74756 0.072,0.45279 0.051,1.03992 l -0.095,2.69835 z"
         style="font-size:12.50000095px;letter-spacing:-0.9000001px"
         id="path4940" />
      <path
         d="m -1067.1204,509.61167 -2.4087,-0.44805 0.1577,-0.84795 2.4087,0.44804 0.4938,-2.65446 q 0.08,-0.43013 0.069,-0.71192 -0.011,-0.28179 -0.1143,-0.47898 -0.1178,-0.18719 -0.3276,-0.28979 -0.2097,-0.10259 -0.5293,-0.16203 -0.4424,-0.0823 -0.7264,-0.0588 -0.2841,0.0234 -0.5528,0.10062 l 0.013,-0.88767 q 0.1857,-0.0417 0.5896,-0.0938 0.3915,-0.0543 0.9445,0.0486 0.6391,0.11887 1.0172,0.34178 0.3781,0.2229 0.5567,0.56128 0.1664,0.33609 0.1724,0.78221 0,0.45841 -0.1037,1.036 l -0.4938,2.65447 1.2043,0.22403 -0.1577,0.84795 -1.2043,-0.22402 -0.2972,1.59759 -1.0397,-0.0154 0.3292,-1.76964 z"
         style="font-size:12.50000095px;letter-spacing:-0.9000001px"
         id="path4942" />
      <path
         d="m -1072.4251,502.67618 q 0.1573,-0.3404 0.5049,-0.4965 0.3475,-0.1561 0.722,0.017 0.3858,0.17829 0.4921,0.54415 0.1063,0.36586 -0.051,0.70626 -0.1626,0.35175 -0.5101,0.50785 -0.3476,0.1561 -0.7333,-0.0222 -0.3745,-0.17305 -0.4808,-0.53891 -0.1063,-0.36586 0.056,-0.71761 z"
         style="font-size:12.50000095px;letter-spacing:-0.9000001px"
         id="path4944" />
      <path
         d="m -1074.8734,500.15236 -3.304,3.66914 0.9103,0.81972 -0.5772,0.64094 -0.9103,-0.81973 -0.3513,0.39014 q -0.4517,0.5016 -0.8838,0.70125 -0.4404,0.20893 -0.8474,0.21254 -0.4162,-0.005 -0.7888,-0.18882 -0.3818,-0.19243 -0.7162,-0.49355 -0.3344,-0.30113 -0.6019,-0.67656 -0.2767,-0.3838 -0.482,-0.75365 l 0.7332,-0.53404 q 0.1124,0.2862 0.352,0.63654 0.2396,0.35034 0.5554,0.63473 0.1951,0.17566 0.4218,0.27885 0.209,0.10412 0.4562,0.0912 0.2387,-0.004 0.5054,-0.15039 0.2584,-0.13744 0.5428,-0.45326 l 0.3429,-0.38085 -1.737,-1.56417 0.5771,-0.64093 1.7371,1.56416 3.304,-3.66913 0.7617,0.68589 z"
         style="font-size:12.50000095px;letter-spacing:-0.9000001px"
         id="path4946" />
      <path
         d="m -1079.7743,495.66426 q -0.2106,-0.32523 -0.3947,-0.56343 -0.1909,-0.24869 -0.3311,-0.39617 l -1.4478,0.93782 q 0.056,0.20184 0.1811,0.46353 0.118,0.25119 0.2879,0.51347 0.1563,0.2413 0.3478,0.44493 0.181,0.21042 0.3909,0.32761 0.21,0.11719 0.4421,0.13066 0.2216,0.0203 0.4524,-0.12924 0.4722,-0.30581 0.4571,-0.74287 -0.032,-0.44076 -0.3857,-0.98631 z m -4.31,2.91096 q -0.3534,-0.54555 -0.4548,-1.00109 -0.1083,-0.46603 -0.016,-0.85314 0.092,-0.38711 0.3768,-0.70579 0.2851,-0.31868 0.6943,-0.58372 l 3.0424,-1.97077 q 0.2496,0.27027 0.6492,0.72629 0.3929,0.44552 0.7326,0.97008 0.2583,0.39867 0.4295,0.82393 0.1817,0.41846 0.2041,0.82095 0.012,0.40929 -0.1768,0.78472 -0.1887,0.37543 -0.6608,0.68124 -0.4197,0.27183 -0.8185,0.27696 -0.416,0.001 -0.7779,-0.1663 -0.3686,-0.17823 -0.6799,-0.49786 -0.3286,-0.32332 -0.5732,-0.70101 -0.333,-0.51407 -0.537,-1.08192 l -0.2413,0.15631 q -0.2203,0.14271 -0.3857,0.32428 -0.1826,0.17788 -0.2622,0.423 -0.086,0.23463 -0.031,0.5266 0.038,0.28828 0.2689,0.64498 0.2922,0.45113 0.5726,0.74607 0.2804,0.29495 0.4589,0.43253 l -0.6455,0.56702 q -0.1994,-0.12398 -0.5274,-0.49237 -0.3348,-0.37888 -0.6406,-0.85099 z"
         style="font-size:12.50000095px;letter-spacing:-0.9000001px"
         id="path4948" />
      <path
         d="m -1081.8259,489.4817 q 0.205,0.51039 0.2009,0.90268 0,0.39229 -0.2034,0.70127 -0.1992,0.30898 -0.5726,0.5532 -0.385,0.24888 -0.9302,0.46779 l -5.0923,2.04474 0.6241,1.55437 -0.8119,0.32604 -1.0061,-2.50556 5.9043,-2.37078 q 0.406,-0.16302 0.6426,-0.31188 0.2319,-0.16047 0.3523,-0.33008 0.1043,-0.17655 0.097,-0.36223 -0.01,-0.18569 -0.096,-0.40609 -0.135,-0.33639 -0.3327,-0.59378 -0.1976,-0.25739 -0.3556,-0.38253 l 0.7561,-0.46524 q 0.063,0.0556 0.172,0.15994 0.098,0.10897 0.2139,0.26433 0.1162,0.15537 0.2349,0.35019 0.1139,0.18323 0.2024,0.40362 z"
         style="font-size:12.50000095px;letter-spacing:-0.9000001px"
         id="path4950" />
      <path
         d="m -1083.6348,485.41122 q -0.037,-0.38574 -0.09,-0.68199 -0.055,-0.3087 -0.111,-0.50421 l -1.7172,0.16436 q -0.043,0.20505 -0.053,0.49481 -0.011,0.27732 0.019,0.5884 0.027,0.2862 0.1033,0.55518 0.064,0.27018 0.1958,0.47099 0.1322,0.20081 0.332,0.31982 0.1873,0.1202 0.4611,0.094 0.5599,-0.0536 0.7481,-0.44833 0.1746,-0.40599 0.1127,-1.05303 z m -5.1668,0.59502 q -0.062,-0.64704 0.058,-1.09803 0.1189,-0.46344 0.3789,-0.76458 0.26,-0.30115 0.6599,-0.45244 0.3999,-0.15129 0.8852,-0.19774 l 3.6085,-0.34541 q 0.097,0.3549 0.241,0.94383 0.1431,0.57649 0.2027,1.19865 0.045,0.47284 10e-4,0.92913 -0.032,0.4551 -0.1975,0.82256 -0.1782,0.36866 -0.5188,0.61473 -0.3406,0.24607 -0.9006,0.29967 -0.4977,0.0476 -0.8539,-0.13173 -0.3698,-0.19063 -0.6135,-0.50635 -0.2449,-0.32816 -0.3737,-0.75533 -0.1424,-0.43842 -0.1853,-0.88638 -0.058,-0.60971 0.023,-1.20764 l -0.2862,0.0274 q -0.2613,0.025 -0.4917,0.10985 -0.2441,0.0736 -0.4277,0.25442 -0.1848,0.16837 -0.2706,0.45284 -0.099,0.27321 -0.059,0.69628 0.051,0.53505 0.1639,0.92609 0.1128,0.39103 0.2077,0.59542 l -0.8342,0.20542 q -0.1198,-0.202 -0.2409,-0.68014 -0.1223,-0.49058 -0.1759,-1.05052 z"
         style="font-size:12.50000095px;letter-spacing:-0.9000001px"
         id="path4952" />
      <path
         d="m -1088.5701,481.55378 q -0.063,-0.57557 -0.067,-1.13065 0,-0.56748 0.062,-1.05087 0.1506,-1.1527 0.8216,-1.65753 0.6727,-0.51723 1.9865,-0.34559 l 3.3714,0.44042 -0.1328,1.01636 -3.1854,-0.41613 q -0.5578,-0.0729 -0.9178,-0.019 -0.36,0.0538 -0.5702,0.21545 -0.221,0.14762 -0.3293,0.39819 -0.1068,0.23818 -0.1457,0.53565 -0.032,0.24789 -0.032,0.53783 -0.011,0.27592 0,0.54269 l 4.8588,0.63472 -0.1344,1.02876 -5.59,-0.73026 z"
         style="font-size:12.50000095px;letter-spacing:-0.9000001px"
         id="path4954" />
      <path
         d="m -1082.4634,473.17298 q -0.2939,-0.106 -0.5711,0.0731 -0.273,0.16734 -0.5455,0.48098 -0.2683,0.30188 -0.5503,0.67856 -0.2938,0.37244 -0.6251,0.66488 -0.3271,0.28068 -0.7102,0.42162 -0.3787,0.12917 -0.8491,-0.0404 -0.6585,-0.23745 -0.9028,-0.92348 -0.2517,-0.70204 0.1596,-1.84265 0.1611,-0.44683 0.4012,-0.89175 0.2327,-0.46091 0.4615,-0.76375 l 0.8065,0.49015 q -0.081,0.0771 -0.1873,0.22477 -0.1182,0.14343 -0.2298,0.34237 -0.1233,0.1947 -0.2359,0.43315 -0.1083,0.2267 -0.1889,0.45012 -0.4579,1.26996 0.2359,1.52012 0.2469,0.089 0.5081,-0.0825 0.2536,-0.18757 0.5262,-0.50121 0.2725,-0.31365 0.5781,-0.68184 0.2937,-0.37244 0.6368,-0.66064 0.3431,-0.2882 0.7337,-0.41314 0.383,-0.14093 0.8416,0.0244 0.7408,0.26713 0.9446,0.99172 0.192,0.72035 -0.2575,1.96679 -0.2035,0.56442 -0.4672,1.00086 -0.2636,0.43643 -0.6044,0.79191 l -0.8141,-0.50616 q 0.3365,-0.34372 0.627,-0.74391 0.283,-0.41619 0.4695,-0.93358 0.4792,-1.32876 -0.1911,-1.57045 z"
         style="font-size:12.50000095px;letter-spacing:-0.9000001px"
         id="path4956" />
      <path
         d="m -1083.6959,466.7759 1.4618,-1.96613 0.6921,0.51461 -1.4618,1.96613 2.1668,1.61096 q 0.3511,0.26103 0.609,0.37496 0.258,0.11392 0.4805,0.10799 0.2199,-0.0234 0.4043,-0.16669 0.1844,-0.14327 0.3783,-0.40409 0.2685,-0.36112 0.3724,-0.62656 0.1039,-0.26544 0.1527,-0.54064 l 0.7917,0.40169 q -0.044,0.18519 -0.1751,0.57074 -0.1234,0.37552 -0.459,0.82692 -0.3879,0.52163 -0.7543,0.76316 -0.3665,0.24154 -0.749,0.25314 -0.375,0.002 -0.7783,-0.18925 -0.4133,-0.19827 -0.8848,-0.54881 l -2.1667,-1.61095 -0.7309,0.98306 -0.6922,-0.51461 0.7309,-0.98307 -1.3041,-0.96955 0.4712,-0.92698 1.4445,1.07397 z"
         style="font-size:12.50000095px;letter-spacing:-0.9000001px"
         id="path4958" />
      <path
         d="m -1078.9733,461.67802 q 0.9061,-0.74802 1.8672,-0.5851 0.9532,0.15327 1.9002,1.30041 l 0.2307,0.27955 -3.2004,2.64193 q 0.6212,0.65428 1.3284,0.68638 0.709,0.0145 1.4512,-0.59824 0.4242,-0.35014 0.6673,-0.6643 0.2432,-0.31417 0.3337,-0.51861 l 0.6631,0.58726 q -0.081,0.19648 -0.3853,0.59358 -0.3043,0.39711 -0.7767,0.78703 -0.5783,0.47746 -1.165,0.66999 -0.585,0.17494 -1.1288,0.10519 -0.5439,-0.0697 -1.0386,-0.37453 -0.5027,-0.31443 -0.9165,-0.8157 -0.4934,-0.59767 -0.6763,-1.1923 -0.1829,-0.59463 -0.1228,-1.13051 0.06,-0.53588 0.3167,-0.99083 0.2566,-0.45494 0.6519,-0.7812 z m 2.6552,1.01743 q -0.4695,-0.56875 -1.0389,-0.64981 -0.5773,-0.0907 -1.0689,0.31512 -0.2796,0.23078 -0.4234,0.5278 -0.1342,0.28906 -0.1548,0.59786 -0.021,0.30879 0.066,0.61008 0.087,0.3013 0.2487,0.55653 l 2.3714,-1.95758 z"
         style="font-size:12.50000095px;letter-spacing:-0.9000001px"
         id="path4960" />
      <path
         d="m -1072.4091,464.20948 -2.5916,-4.83695 q 0.9172,-0.98779 2.0631,-1.60175 0.3526,-0.18892 0.6898,-0.32706 0.3313,-0.14917 0.7642,-0.26765 l 0.2657,0.89288 q -0.4057,0.0898 -0.693,0.2153 -0.2821,0.10863 -0.6017,0.27983 -0.6721,0.36011 -1.2658,0.91934 l 2.2728,4.24197 -0.9035,0.48409 z"
         style="font-size:12.50000095px;letter-spacing:-0.9000001px"
         id="path4962" />
      <path
         d="m -1065.1883,460.33361 q 0.09,0.36417 -0.085,0.70302 -0.1742,0.33885 -0.5748,0.43728 -0.4127,0.10142 -0.7241,-0.11812 -0.3114,-0.21954 -0.4008,-0.5837 -0.092,-0.37631 0.082,-0.71516 0.1741,-0.33885 0.5869,-0.44027 0.4005,-0.0984 0.7119,0.12111 0.3114,0.21954 0.4039,0.59584 z"
         style="font-size:12.50000095px;letter-spacing:-0.9000001px"
         id="path4964" />
      <path
         d="m -1061.538,455.27979 q 0.1923,-0.10409 0.5469,-0.201 0.3677,-0.10884 0.8047,-0.0895 0.587,0.026 1.0391,0.27124 0.4521,0.24525 0.7466,0.65868 0.3069,0.41399 0.4444,0.98313 0.1505,0.5572 0.1206,1.23154 -0.031,0.69932 -0.2557,1.25242 -0.2246,0.5531 -0.6045,0.93667 -0.3793,0.37108 -0.9007,0.56069 -0.5214,0.18962 -1.1458,0.16196 -0.6868,-0.0304 -1.2193,-0.1541 -0.5326,-0.12369 -0.8529,-0.23797 l 0.3684,-8.31685 1.0442,-0.12892 -0.136,3.07199 z m -0.2074,4.68291 q 0.2345,0.0729 0.4701,0.12092 0.2361,0.0355 0.4484,0.0449 0.8617,0.0382 1.3719,-0.46476 0.5108,-0.5154 0.5579,-1.57686 0.02,-0.44956 -0.05,-0.84055 -0.07,-0.40348 -0.2449,-0.68651 -0.1746,-0.29551 -0.4671,-0.47113 -0.28,-0.17506 -0.6921,-0.19331 -0.3621,-0.016 -0.706,0.11888 -0.3432,0.12243 -0.5252,0.27703 l -0.1626,3.6714 z"
         style="font-size:12.50000095px;letter-spacing:-0.9000001px"
         id="path4966" />
      <path
         d="m -1057.9934,462.10111 q 0.092,0.09 0.2749,0.17909 0.1951,0.0924 0.3638,0.13865 0.5907,0.16199 0.9889,-0.014 0.407,-0.16058 0.8463,-0.67524 -0.3247,-1.46295 -0.5154,-3.08358 -0.1873,-1.63269 -0.1731,-3.19713 l 1.085,0.29754 q -0.012,0.51525 -0.01,1.12481 0.017,0.60081 0.06,1.2477 0.043,0.64689 0.1067,1.31245 0.079,0.65681 0.1955,1.27201 0.345,-0.50163 0.6625,-0.99781 0.3175,-0.49619 0.611,-0.99899 0.2967,-0.51485 0.5967,-1.04176 0.3034,-0.53896 0.6353,-1.1349 l 1.0367,0.28432 q -0.8155,1.46134 -1.701,2.7998 -0.8735,1.34177 -1.7598,2.44671 -0.3372,0.42599 -0.6741,0.70946 -0.325,0.28678 -0.665,0.43979 -0.3401,0.153 -0.7195,0.16563 -0.3793,0.0126 -0.8253,-0.1097 -0.2291,-0.0628 -0.4898,-0.19913 -0.2487,-0.13301 -0.3319,-0.20767 l 0.4023,-0.75809 z"
         style="font-size:12.50000095px;letter-spacing:-0.9000001px"
         id="path4968" />
    </g>
  </g>
</svg>
