<?xml version="1.0" encoding="UTF-8" standalone="no"?>
<svg
   xmlns:dc="http://purl.org/dc/elements/1.1/"
   xmlns:cc="http://creativecommons.org/ns#"
   xmlns:rdf="http://www.w3.org/1999/02/22-rdf-syntax-ns#"
   xmlns:svg="http://www.w3.org/2000/svg"
   xmlns="http://www.w3.org/2000/svg"
   version="1.1"
   id="svg4299"
   viewBox="0 0 129.49856 194.88188"
   height="194.88188"
   width="129.49857">
  <defs
     id="defs4301" />
  <metadata
     id="metadata4304">
    <rdf:RDF>
      <cc:Work
         rdf:about="">
        <dc:format>image/svg+xml</dc:format>
        <dc:type
           rdf:resource="http://purl.org/dc/dcmitype/StillImage" />
        <dc:title></dc:title>
      </cc:Work>
    </rdf:RDF>
  </metadata>
  <g
     transform="translate(659.76732,-67.235469)"
     id="layer1">
    <g
       transform="matrix(0.91657487,0,0,0.91657481,345.28919,-219.11656)"
       id="g5459">
      <path
         style="fill:#ffffff;stroke:#cccccc;stroke-width:1.00045061px;stroke-linecap:butt;stroke-linejoin:miter;stroke-opacity:1"
         d="m -1095.8177,384.00678 c 0,0 8.5665,-7.46113 8.5665,-9.67183 0,-2.21071 -0.2763,-11.32987 -0.2763,-11.32987 0,0 7.4611,-1.38169 11.6062,-3.86873 7.7246,-7.28921 8.0382,-17.79324 13.2642,-25.4231 10.2564,-14.80913 31.738,-23.75172 48.9119,-19.89634 23.67205,6.39025 33.48802,18.73627 43.38503,38.96367 0,0 2.76337,5.8031 2.76337,9.67183 0,3.86873 0.82903,10.22451 -0.82901,21.00169 12.34624,4.12805 13.30834,19.24246 12.43522,29.56818 -1.65802,17.13296 -2.49518,18.71598 -5.25042,22.10705 -3.5924,4.4214 -10.50085,6.63211 -16.58029,6.63211 -6.07944,0 -19.89634,-0.82902 -19.89634,-0.82902 0,0 -0.55268,5.80311 -0.27634,12.71155 2.76371,7.23618 -0.0633,-0.13759 11.34854,20.56792 8.51459,1.32187 16.81526,4.06953 22.08836,13.97434 3.03039,5.82766 2.66208,19.28616 -6.07943,29.29183 -7.82164,8.9528 -24.37605,9.41771 -35.64759,1.10535 -7.6758,-6.91683 -11.2198,-18.88643 -5.8031,-27.6338 2.2107,-3.31606 -8.2902,-21.0017 -8.2902,-21.0017 0,0 -5.1469,-2.5278 -6.0794,-1.93436 -3.0397,1.93437 -5.8579,3.85164 -9.3955,7.73747 -2.4812,2.72539 0.7434,5.31248 -0.2763,12.15887 -2.6405,17.72691 -16.3717,17.97289 -16.5803,20.17268 -0.2764,4.14508 1.3817,8.0138 -3.3161,8.29015 -16.2892,2.31253 -34.5179,-7.88051 -37.8583,-22.10705 -4.1814,-17.80812 2.3387,-42.17179 30.1209,-45.87212 4.4963,-0.59887 13.6787,2.62521 13.6787,2.62521 0,0 5.9413,-2.48703 5.9413,-3.86873 0,-1.38169 0,-24.45592 0,-24.45592 0,0 -15.4169,0.58149 -22.9361,-0.82902 -4.4093,-0.82712 -9.6718,-1.93436 -12.7115,-4.4214 -3.0398,-2.48705 -7.1848,-6.63212 -7.1848,-11.32986 0,-4.69775 -1.3817,-8.56649 -1.6581,-11.60621 -0.2763,-3.03972 -7.1848,-10.50084 -7.1848,-10.50084 z"
         id="path3207" />
      <g
         transform="translate(-512.35156,245.72432)"
         id="layer1-2"
         style="fill:#00d400">
        <path
           transform="matrix(2.5291616,-0.13723817,0.13723817,2.5291616,882.52989,-418.30928)"
           style="fill:#00d400;fill-opacity:1;stroke:none"
           d="m -570.70963,227.84694 a 7.6163015,7.6163015 0 0 1 -7.6163,7.6163 7.6163015,7.6163015 0 0 1 -7.6163,-7.6163 7.6163015,7.6163015 0 0 1 7.6163,-7.6163 7.6163015,7.6163015 0 0 1 7.6163,7.6163 z"
           id="path3787-9-0-6-9-3-8-7-7" />
        <path
           transform="matrix(2.117838,1.3893361,-1.3893361,2.117838,882.52989,-418.30928)"
           style="fill:#00d400;fill-opacity:1;stroke:none"
           d="m -295.43027,516.06409 a 7.6163011,7.6163011 0 0 1 -7.6163,7.6163 7.6163011,7.6163011 0 0 1 -7.6163,-7.6163 7.6163011,7.6163011 0 0 1 7.6163,-7.6163 7.6163011,7.6163011 0 0 1 7.6163,7.6163 z"
           id="path3787-5-3-8-0-7-2-9-5-7" />
        <path
           transform="matrix(0.62035788,0.78431888,-0.75044815,0.66092932,0,0)"
           style="fill:#00d400;fill-opacity:1;stroke:none"
           d="m -193.46054,520.64465 13.26997,0 0,73.20501 -13.26997,0 z"
           id="rect3855-5-71-7-0-5-8-4-0" />
        <path
           transform="matrix(0.89013443,-0.45569803,0.50208996,0.8648154,0,0)"
           style="fill:#00d400;fill-opacity:1;stroke:none"
           d="m -546.15643,-50.073078 13.26997,0 0,73.205009 -13.26997,0 z"
           id="rect3855-6-6-5-6-8-6-2-7-2" />
        <path
           transform="matrix(2.5291616,-0.13723817,0.13723817,2.5291616,882.52989,-418.30928)"
           style="fill:#ffffff;fill-opacity:1;stroke:none"
           d="m -573.47209,227.84694 a 4.9054146,4.9054146 0 0 1 -4.90541,4.90541 4.9054146,4.9054146 0 0 1 -4.90542,-4.90541 4.9054146,4.9054146 0 0 1 4.90542,-4.90542 4.9054146,4.9054146 0 0 1 4.90541,4.90542 z"
           id="path3896-12-9-4-0-8-9-7-2" />
        <path
           transform="matrix(2.117838,1.3893361,-1.3893361,2.117838,882.52989,-418.30928)"
           style="fill:#ffffff;fill-opacity:1;stroke:none"
           d="m -298.16694,515.96088 a 4.9054141,4.9054141 0 0 1 -4.90542,4.90541 4.9054141,4.9054141 0 0 1 -4.90541,-4.90541 4.9054141,4.9054141 0 0 1 4.90541,-4.90542 4.9054141,4.9054141 0 0 1 4.90542,4.90542 z"
           id="path3896-1-4-7-6-4-6-1-1-9" />
        <path
           transform="matrix(-0.00140643,-0.99999901,0.99999927,-0.00120857,0,0)"
           style="fill:#00d400;fill-opacity:1;stroke:none"
           d="m -152.82923,-567.97174 c 9.2548,0 16.70541,7.90798 16.70541,17.73089 l 0,26.49206 c 0,9.82291 -7.45061,17.73089 -16.70541,17.73089 -9.2548,0 -16.70541,-7.90798 -16.70541,-17.73089 l 0,-26.49206 c 0,-9.82291 7.45061,-17.73089 16.70541,-17.73089 z"
           id="rect2985-79-7-0-7-2-4-0-3-8" />
        <path
           transform="matrix(0.9986793,0.05137751,-0.00225171,0.99999746,0,0)"
           style="fill:#00d400;fill-opacity:1;stroke:none"
           d="m -508.64826,128.52895 c 9.21529,0 16.63409,6.98733 16.63409,15.66666 l 0,82.33807 c 0,8.67934 -7.4188,15.66667 -16.63409,15.66667 -9.21528,0 -16.63409,-6.98733 -16.63409,-15.66667 l 0,-82.33807 c 0,-8.67933 7.41881,-15.66666 16.63409,-15.66666 z"
           id="rect2985-79-5-8-8-2-7-6-8-9" />
        <path
           id="path4099-90-1-7-8-8-3-7"
           d="m -567.94731,135.1717 c 2.46381,-0.003 4.46347,1.81266 4.46641,4.05578 0.003,2.24322 -1.99199,4.06423 -4.45585,4.06748 -2.46381,0.003 -2.93196,-1.74607 -7.79558,-4.0515 4.79112,-2.2087 5.32118,-4.06857 7.78502,-4.07176 z"
           style="fill:#00d400;fill-opacity:1;stroke:none" />
        <path
           id="path4099-4-2-4-7-7-8-5-3"
           d="m -559.21348,124.50755 c 1.72563,1.75859 1.82656,4.45785 0.22543,6.02892 -1.60111,1.57112 -4.29795,1.41913 -6.02358,-0.33943 -1.72562,-1.75863 -0.80292,-3.31678 -2.5572,-8.40519 4.92973,1.87922 6.62967,0.95712 8.35527,2.7157 z"
           style="fill:#00d400;fill-opacity:1;stroke:none" />
        <path
           id="path4099-8-7-9-1-0-8-9-6"
           d="m -461.33774,144.19998 c -0.12867,2.46042 -2.04915,4.35998 -4.28921,4.24276 -2.24013,-0.11728 -3.95173,-2.2068 -3.82303,-4.66719 0.12867,-2.46047 1.90057,-2.83427 4.46317,-7.56747 1.949,4.90254 3.77809,5.53126 3.64861,7.9921 z"
           style="fill:#00d400;fill-opacity:1;stroke:none" />
        <path
           id="path4099-1-5-8-3-3-3-1-1"
           d="m -543.38669,123.20996 c 0.003,2.46378 -1.81268,4.46352 -4.05583,4.46643 -2.24322,0.003 -4.06426,-1.99203 -4.06745,-4.45584 -0.003,-2.46381 1.74609,-2.93194 4.0515,-7.79561 2.20869,4.79118 4.06856,5.32121 4.07178,7.78502 z"
           style="fill:#00d400;fill-opacity:1;stroke:none" />
        <path
           id="path4099-6-9-8-7-3-8-9-2"
           d="m -503.75232,103.62741 c -0.0697,2.46285 -1.94397,4.4079 -4.1862,4.34445 -2.24231,-0.0636 -4.00347,-2.11141 -3.93379,-4.57426 0.0697,-2.4628 1.83206,-2.879 4.28036,-7.672276 2.06598,4.854426 3.90933,5.439266 3.83963,7.902086 z"
           style="fill:#00d400;fill-opacity:1;stroke:none" />
        <path
           id="path4099-18-0-6-8-5-7-6-9"
           d="m -515.80474,104.68856 c 1.20917,2.1467 0.60498,4.7794 -1.34853,5.88049 -1.9545,1.10089 -4.51909,0.25304 -5.72829,-1.89355 -1.20918,-2.14672 0.0869,-3.41142 -0.28442,-8.781001 4.27178,3.096091 6.1529,2.647571 7.36213,4.794261 z"
           style="fill:#00d400;fill-opacity:1;stroke:none" />
        <path
           id="path4099-99-0-6-1-7-8-7-3"
           d="m -524.46646,114.44419 c 2.46282,0.0696 4.40787,1.94396 4.3444,4.18619 -0.0633,2.24231 -2.11139,4.00353 -4.57421,3.93382 -2.46282,-0.0696 -2.87903,-1.83208 -7.67233,-4.28042 4.85442,-2.06594 5.43929,-3.9093 7.90214,-3.83959 z"
           style="fill:#00d400;fill-opacity:1;stroke:none" />
        <path
           transform="matrix(0.02828895,-0.99959979,0.99959979,0.02828895,0,0)"
           style="fill:#00d400;fill-opacity:1;stroke:none"
           d="m -186.22425,-509.48761 c 9.25479,0 16.70541,7.90798 16.70541,17.73089 l 0,24.19803 c 0,9.82291 -7.45062,17.73089 -16.70541,17.73089 -9.2548,0 -16.70541,-7.90798 -16.70541,-17.73089 l 0,-24.19803 c 0,-9.82291 7.45061,-17.73089 16.70541,-17.73089 z"
           id="rect2985-79-4-5-6-7-6-7-5-6-1" />
        <path
           transform="matrix(0.99975163,0.02228648,-0.03590475,0.99935522,0,0)"
           style="fill:#00d400;fill-opacity:1;stroke:none"
           d="m -460.50438,153.01981 c 9.25339,0 16.70287,7.9002 16.70287,17.71346 l 0,11.57837 c 0,9.81326 -7.44948,17.71346 -16.70287,17.71346 -9.25339,0 -16.70286,-7.9002 -16.70286,-17.71346 l 0,-11.57837 c 0,-9.81326 7.44947,-17.71346 16.70286,-17.71346 z"
           id="rect2985-79-4-5-6-7-6-7-5-6-3-9" />
        <path
           transform="matrix(0.99975163,0.02228648,-0.03590475,0.99935522,0,0)"
           style="fill:#00d400;fill-opacity:1;stroke:none"
           d="m -545.30043,134.9968 c 9.25339,0 16.70287,7.9002 16.70287,17.71346 l 0,11.57837 c 0,9.81326 -7.44948,17.71346 -16.70287,17.71346 -9.25339,0 -16.70287,-7.9002 -16.70287,-17.71346 l 0,-11.57837 c 0,-9.81326 7.44948,-17.71346 16.70287,-17.71346 z"
           id="rect2985-79-4-5-6-7-6-7-5-6-3-6-4" />
      </g>
      <g
         style="font-style:normal;font-variant:normal;font-weight:normal;font-stretch:normal;font-size:28.51474762px;line-height:125%;font-family:'Ubuntu Mono';-inkscape-font-specification:'Ubuntu Mono';letter-spacing:0px;word-spacing:0px;fill:#333333;fill-opacity:1;stroke:none"
         id="text3121">
        <path
           d="m -1064.762,354.99764 q 0.015,-1.21739 0.2635,-2.57585 0.2273,-1.40299 0.6746,-2.69263 0.4358,-1.25658 1.0686,-2.33367 0.5998,-1.08857 1.4385,-1.7979 0.8388,-0.70934 1.882,-0.94025 1.0102,-0.24238 2.2668,0.19341 0.5952,0.20643 1.044,0.6214 0.4488,0.41496 0.7526,0.9278 0.3037,0.51283 0.4522,1.04593 0.16,0.50002 0.1547,0.94271 0.8987,-1.09602 2.0782,-1.61307 1.158,-0.56159 2.7452,-0.0111 2.2156,0.76838 2.7854,3.07757 0.5482,2.26465 -0.5642,5.47223 -0.6881,1.98407 -1.4903,3.33583 -0.7908,1.31871 -1.2617,1.82218 l -2.1198,-1.36493 q 0.3373,-0.43868 1.1153,-1.61364 0.7449,-1.18643 1.3756,-3.00516 0.7569,-2.18247 0.4727,-3.3924 -0.2843,-1.20993 -1.3424,-1.57692 -1.1905,-0.41285 -2.229,0.33835 -1.0384,0.7512 -1.6233,2.43766 l -1.1239,3.24064 -2.1825,-0.7569 1.0551,-3.04224 q 0.5849,-1.68646 0.3094,-2.70812 -0.2754,-1.02165 -1.2344,-1.35423 -1.0251,-0.35552 -1.9414,0.36395 -0.9163,0.71947 -1.6044,2.70354 -0.3211,0.9259 -0.514,2.22969 -0.1814,1.27072 -0.083,2.2681 l -2.6204,-0.24196 z"
           style="font-size:35.00000381px;letter-spacing:-2.5400002px;fill:#333333"
           id="path5078" />
        <path
           d="m -1049.4168,332.16051 q 0.686,0.7949 1.4105,1.74152 0.7281,0.89726 1.3996,1.88962 0.6752,0.94299 1.2708,1.95459 0.5728,0.98509 0.9481,1.95568 0.7736,1.96766 0.6248,3.99159 -0.1488,2.02394 -1.9796,3.97385 l -1.9187,-1.58035 q 0.9829,-1.21815 1.0965,-2.42576 0.1172,-1.25698 -0.2857,-2.52737 -0.3416,-1.09218 -1.0516,-2.23626 -0.6835,-1.16695 -1.5644,-2.34841 -0.881,-1.18146 -1.8414,-2.29432 -0.9604,-1.11286 -1.8065,-2.09323 l 7.26,-6.26573 10.6106,12.29444 -2.1992,1.89801 -9.0327,-10.46617 -2.9411,2.5383 z"
           style="font-size:35.00000381px;letter-spacing:-2.5400002px;fill:#333333"
           id="path5080" />
        <path
           d="m -1033.0024,340.37466 q 0.3326,0.13858 0.9009,0.18014 0.603,0.0376 1.0899,-0.0173 1.7042,-0.19227 2.5569,-1.06337 0.8914,-0.84024 1.4991,-2.63467 -2.3636,-3.46687 -4.5426,-7.4829 -2.1829,-4.0508 -3.7707,-8.13354 l 3.1302,-0.35315 q 0.5047,1.35193 1.1413,2.93555 0.6674,1.54491 1.4509,3.18239 0.7835,1.63748 1.6405,3.30189 0.8879,1.62571 1.8296,3.10445 0.376,-1.66263 0.6863,-3.28263 0.3104,-1.62001 0.5511,-3.23217 0.2369,-1.64694 0.4698,-3.32865 0.229,-1.7165 0.4732,-3.61082 l 2.991,-0.33746 q -0.6028,4.64688 -1.5153,9.04692 -0.8776,4.39612 -2.0346,8.18975 -0.4343,1.45788 -1.0161,2.54496 -0.547,1.08316 -1.2724,1.83422 -0.7254,0.75105 -1.6986,1.17786 -0.9733,0.42681 -2.2602,0.572 -0.6608,0.0746 -1.4803,-0.009 -0.7848,-0.0876 -1.0787,-0.19529 l 0.2588,-2.38908 z"
           style="font-size:35.00000381px;letter-spacing:-2.5400002px;fill:#333333"
           id="path5082" />
        <path
           d="m -1008.7084,322.36538 -1.971,4.33277 q -0.7681,1.6885 -0.1804,2.76332 0.6196,1.08931 2.2125,1.81394 1.1469,0.52173 1.955,0.77397 0.8226,0.22038 1.5003,0.33645 l 3.1739,-6.97703 2.64424,1.20287 -6.72454,14.78238 -2.6442,-1.20287 2.5941,-5.70269 q -0.252,-0.0377 -0.7096,-0.13055 -0.4113,-0.11019 -0.9645,-0.2465 -0.5069,-0.15367 -1.0774,-0.33632 -0.5706,-0.18266 -1.0804,-0.41454 -1.2743,-0.57969 -2.2097,-1.31281 -0.9209,-0.76498 -1.4102,-1.71811 -0.4573,-0.93864 -0.4222,-2.11466 0.05,-1.20788 0.7162,-2.67337 l 1.9855,-4.36463 2.6124,1.18838 z"
           style="font-size:35.00000381px;letter-spacing:-2.5400002px;fill:#333333"
           id="path5084" />
        <path
           d="m -998.91972,347.64541 q 0.55774,0.93067 1.04958,1.61521 0.50984,0.71456 0.88777,1.14093 l 4.14299,-2.48285 q -0.13776,-0.5703 -0.4615,-1.31478 -0.30575,-0.71445 -0.75554,-1.46499 -0.41381,-0.6905 -0.92971,-1.27901 -0.48589,-0.6065 -1.06194,-0.95494 -0.57605,-0.34845 -1.22428,-0.40881 -0.61822,-0.0784 -1.27869,0.31746 -1.35098,0.80962 -1.35162,2.03412 0.0474,1.23653 0.98294,2.79766 z m 12.34508,-7.7247 q 0.93557,1.56113 1.17499,2.84578 0.25742,1.31467 -0.0373,2.38895 -0.29468,1.07429 -1.12347,1.93821 -0.82879,0.86392 -1.99964,1.56559 l -8.70628,5.21758 q -0.67187,-0.78067 -1.74562,-2.09577 -1.05574,-1.28508 -1.95534,-2.78616 -0.6836,-1.14082 -1.1212,-2.34754 -0.4676,-1.18873 -0.491,-2.31721 0.01,-1.14646 0.5714,-2.17859 0.5648,-1.03212 1.9157,-1.84175 1.20086,-0.71966 2.31731,-0.69507 1.16445,0.0366 2.1606,0.54135 1.01413,0.53475 1.85399,1.45957 0.88787,0.93684 1.53557,2.01762 0.88159,1.47106 1.39696,3.07999 l 0.6905,-0.41381 q 0.63046,-0.37782 1.11091,-0.86977 0.52847,-0.47992 0.77492,-1.15807 0.26445,-0.64812 0.13883,-1.47053 -0.0776,-0.81037 -0.68933,-1.8311 -0.77364,-1.29094 -1.5295,-2.14368 -0.75586,-0.85274 -1.24185,-1.25516 l 1.86156,-1.52365 q 0.54603,0.36643 1.42783,1.42933 0.8998,1.09292 1.70942,2.44389 z"
           style="font-size:35.00000381px;letter-spacing:-2.5400002px;fill:#333333"
           id="path5086" />
        <path
           d="m -980.06383,367.85329 -16.16625,1.54601 -0.26988,-2.82213 12.33373,-1.1795 q -1.27456,-0.82742 -2.9772,-1.71938 -1.69932,-0.85713 -3.50648,-1.73909 -1.769,-0.85046 -3.49649,-1.63457 -1.72749,-0.78411 -3.08658,-1.39249 l -0.24656,-2.57824 16.16624,-1.54601 0.26656,2.78729 -11.63691,1.11286 q 1.43543,0.6714 3.09324,1.46217 1.69265,0.78744 3.35712,1.64789 1.69932,0.85713 3.22442,1.73091 1.55995,0.87045 2.69848,1.74604 l 0.24656,2.57824 z m 2.02666,-6.38192 q -0.18658,-1.9511 0.67235,-3.26383 0.89377,-1.31606 2.64401,-1.76472 l 0.80221,2.13835 q -0.98374,0.37535 -1.55423,1.02762 -0.53566,0.64894 -0.43903,1.65933 0.0966,1.01039 0.74556,1.54605 0.68378,0.53232 1.72083,0.71442 l -0.38572,2.21679 q -1.80355,-0.1088 -2.93056,-1.23161 -1.08883,-1.0913 -1.27542,-3.0424 z"
           style="font-size:35.00000381px;letter-spacing:-2.5400002px;fill:#333333"
           id="path5088" />
        <path
           d="m -980.67985,376.3719 q -1.27282,0.23869 -2.34568,0.40426 -1.07286,0.16558 -2.05543,0.243 -0.97611,0.11183 -1.95867,0.18925 -0.94817,0.071 -1.99953,0.1613 l -0.3677,-1.96082 q 1.01266,-0.29673 1.92212,-0.57411 0.94385,-0.28382 1.88771,-0.56765 0.95031,-0.24942 2.01027,-0.4838 1.05996,-0.23438 2.33278,-0.47306 l 5.77926,-1.08375 0.57413,3.06164 -5.77926,1.08374 z m -16.21767,1.43874 q -0.17418,-0.92881 0.31601,-1.73293 0.52459,-0.81058 1.59101,-1.01055 1.06641,-0.19998 1.81463,0.37191 0.78263,0.56544 0.9568,1.49425 0.18062,0.96321 -0.35042,1.73939 -0.49019,0.80412 -1.5566,1.0041 -1.06641,0.19997 -1.84903,-0.36547 -0.74178,-0.53749 -0.9224,-1.5007 z"
           style="font-size:35.00000381px;letter-spacing:-2.5400002px;fill:#333333"
           id="path5090" />
      </g>
      <g
         style="font-style:normal;font-variant:normal;font-weight:normal;font-stretch:normal;font-size:7.08267832px;line-height:125%;font-family:'Ubuntu Mono';-inkscape-font-specification:'Ubuntu Mono';letter-spacing:0px;word-spacing:0px;fill:#1a1a1a;fill-opacity:1;stroke:none"
         id="text3125">
        <path
           d="m -1060.5471,511.11374 q 0.3248,0.0114 0.5543,0.24457 0.2294,0.23318 0.2159,0.62045 -0.014,0.38726 -0.2589,0.6038 -0.2452,0.21654 -0.57,0.20515 -0.3373,-0.0118 -0.5543,-0.24458 -0.2294,-0.23318 -0.2159,-0.62044 0.014,-0.38727 0.2589,-0.6038 0.2327,-0.21698 0.57,-0.20515 z m 0.3241,-1.75222 1.674,0.0587 -0.03,0.86197 -2.6983,-0.0946 0.1248,-3.56031 q 0.03,-0.86197 -0.1966,-1.17011 -0.2272,-0.29565 -0.702,-0.31229 -0.3622,-0.0127 -0.6651,0.0642 -0.3154,0.0765 -0.4938,0.1703 l -0.1192,-0.87972 q 0.076,-0.0349 0.2158,-0.0925 0.1392,-0.0451 0.3283,-0.0885 0.1767,-0.0438 0.4029,-0.0734 0.2137,-0.03 0.451,-0.0217 0.5497,0.0193 0.9067,0.18188 0.357,0.16262 0.5714,0.47032 0.2018,0.30726 0.2739,0.74756 0.072,0.45279 0.051,1.03992 l -0.095,2.69835 z"
           style="font-size:12.50000095px;letter-spacing:-0.9000001px"
           id="path5047" />
        <path
           d="m -1067.1204,509.61167 -2.4087,-0.44805 0.1577,-0.84795 2.4087,0.44804 0.4938,-2.65446 q 0.08,-0.43013 0.069,-0.71192 -0.011,-0.28179 -0.1143,-0.47898 -0.1178,-0.18719 -0.3276,-0.28979 -0.2097,-0.10259 -0.5293,-0.16203 -0.4424,-0.0823 -0.7264,-0.0588 -0.2841,0.0234 -0.5528,0.10062 l 0.013,-0.88767 q 0.1857,-0.0417 0.5896,-0.0938 0.3915,-0.0543 0.9445,0.0486 0.6391,0.11887 1.0172,0.34178 0.3781,0.2229 0.5567,0.56128 0.1664,0.33609 0.1724,0.78221 0,0.45841 -0.1037,1.036 l -0.4938,2.65447 1.2043,0.22403 -0.1577,0.84795 -1.2043,-0.22402 -0.2972,1.59759 -1.0397,-0.0154 0.3292,-1.76964 z"
           style="font-size:12.50000095px;letter-spacing:-0.9000001px"
           id="path5049" />
        <path
           d="m -1072.4251,502.67618 q 0.1573,-0.3404 0.5049,-0.4965 0.3475,-0.1561 0.722,0.017 0.3858,0.17829 0.4921,0.54415 0.1063,0.36586 -0.051,0.70626 -0.1626,0.35175 -0.5101,0.50785 -0.3476,0.1561 -0.7333,-0.0222 -0.3745,-0.17305 -0.4808,-0.53891 -0.1063,-0.36586 0.056,-0.71761 z"
           style="font-size:12.50000095px;letter-spacing:-0.9000001px"
           id="path5051" />
        <path
           d="m -1074.8734,500.15236 -3.304,3.66914 0.9103,0.81972 -0.5772,0.64094 -0.9103,-0.81973 -0.3513,0.39014 q -0.4517,0.5016 -0.8838,0.70125 -0.4404,0.20893 -0.8474,0.21254 -0.4162,-0.005 -0.7888,-0.18882 -0.3818,-0.19243 -0.7162,-0.49355 -0.3344,-0.30113 -0.6019,-0.67656 -0.2767,-0.3838 -0.482,-0.75365 l 0.7332,-0.53404 q 0.1124,0.2862 0.352,0.63654 0.2396,0.35034 0.5554,0.63473 0.1951,0.17566 0.4218,0.27885 0.209,0.10412 0.4562,0.0912 0.2387,-0.004 0.5054,-0.15039 0.2584,-0.13744 0.5428,-0.45326 l 0.3429,-0.38085 -1.737,-1.56417 0.5771,-0.64093 1.7371,1.56416 3.304,-3.66913 0.7617,0.68589 z"
           style="font-size:12.50000095px;letter-spacing:-0.9000001px"
           id="path5053" />
        <path
           d="m -1079.7743,495.66426 q -0.2106,-0.32523 -0.3947,-0.56343 -0.1909,-0.24869 -0.3311,-0.39617 l -1.4478,0.93782 q 0.056,0.20184 0.1811,0.46353 0.118,0.25119 0.2879,0.51347 0.1563,0.2413 0.3478,0.44493 0.181,0.21042 0.3909,0.32761 0.21,0.11719 0.4421,0.13066 0.2216,0.0203 0.4524,-0.12924 0.4722,-0.30581 0.4571,-0.74287 -0.032,-0.44076 -0.3857,-0.98631 z m -4.31,2.91096 q -0.3534,-0.54555 -0.4548,-1.00109 -0.1083,-0.46603 -0.016,-0.85314 0.092,-0.38711 0.3768,-0.70579 0.2851,-0.31868 0.6943,-0.58372 l 3.0424,-1.97077 q 0.2496,0.27027 0.6492,0.72629 0.3929,0.44552 0.7326,0.97008 0.2583,0.39867 0.4295,0.82393 0.1817,0.41846 0.2041,0.82095 0.012,0.40929 -0.1768,0.78472 -0.1887,0.37543 -0.6608,0.68124 -0.4197,0.27183 -0.8185,0.27696 -0.416,0.001 -0.7779,-0.1663 -0.3686,-0.17823 -0.6799,-0.49786 -0.3286,-0.32332 -0.5732,-0.70101 -0.333,-0.51407 -0.537,-1.08192 l -0.2413,0.15631 q -0.2203,0.14271 -0.3857,0.32428 -0.1826,0.17788 -0.2622,0.423 -0.086,0.23463 -0.031,0.5266 0.038,0.28828 0.2689,0.64498 0.2922,0.45113 0.5726,0.74607 0.2804,0.29495 0.4589,0.43253 l -0.6455,0.56702 q -0.1994,-0.12398 -0.5274,-0.49237 -0.3348,-0.37888 -0.6406,-0.85099 z"
           style="font-size:12.50000095px;letter-spacing:-0.9000001px"
           id="path5055" />
        <path
           d="m -1081.8259,489.4817 q 0.205,0.51039 0.2009,0.90268 0,0.39229 -0.2034,0.70127 -0.1992,0.30898 -0.5726,0.5532 -0.385,0.24888 -0.9302,0.46779 l -5.0923,2.04474 0.6241,1.55437 -0.8119,0.32604 -1.0061,-2.50556 5.9043,-2.37078 q 0.406,-0.16302 0.6426,-0.31188 0.2319,-0.16047 0.3523,-0.33008 0.1043,-0.17655 0.097,-0.36223 -0.01,-0.18569 -0.096,-0.40609 -0.135,-0.33639 -0.3327,-0.59378 -0.1976,-0.25739 -0.3556,-0.38253 l 0.7561,-0.46524 q 0.063,0.0556 0.172,0.15994 0.098,0.10897 0.2139,0.26433 0.1162,0.15537 0.2349,0.35019 0.1139,0.18323 0.2024,0.40362 z"
           style="font-size:12.50000095px;letter-spacing:-0.9000001px"
           id="path5057" />
        <path
           d="m -1083.6348,485.41122 q -0.037,-0.38574 -0.09,-0.68199 -0.055,-0.3087 -0.111,-0.50421 l -1.7172,0.16436 q -0.043,0.20505 -0.053,0.49481 -0.011,0.27732 0.019,0.5884 0.027,0.2862 0.1033,0.55518 0.064,0.27018 0.1958,0.47099 0.1322,0.20081 0.332,0.31982 0.1873,0.1202 0.4611,0.094 0.5599,-0.0536 0.7481,-0.44833 0.1746,-0.40599 0.1127,-1.05303 z m -5.1668,0.59502 q -0.062,-0.64704 0.058,-1.09803 0.1189,-0.46344 0.3789,-0.76458 0.26,-0.30115 0.6599,-0.45244 0.3999,-0.15129 0.8852,-0.19774 l 3.6085,-0.34541 q 0.097,0.3549 0.241,0.94383 0.1431,0.57649 0.2027,1.19865 0.045,0.47284 10e-4,0.92913 -0.032,0.4551 -0.1975,0.82256 -0.1782,0.36866 -0.5188,0.61473 -0.3406,0.24607 -0.9006,0.29967 -0.4977,0.0476 -0.8539,-0.13173 -0.3698,-0.19063 -0.6135,-0.50635 -0.2449,-0.32816 -0.3737,-0.75533 -0.1424,-0.43842 -0.1853,-0.88638 -0.058,-0.60971 0.023,-1.20764 l -0.2862,0.0274 q -0.2613,0.025 -0.4917,0.10985 -0.2441,0.0736 -0.4277,0.25442 -0.1848,0.16837 -0.2706,0.45284 -0.099,0.27321 -0.059,0.69628 0.051,0.53505 0.1639,0.92609 0.1128,0.39103 0.2077,0.59542 l -0.8342,0.20542 q -0.1198,-0.202 -0.2409,-0.68014 -0.1223,-0.49058 -0.1759,-1.05052 z"
           style="font-size:12.50000095px;letter-spacing:-0.9000001px"
           id="path5059" />
        <path
           d="m -1088.5701,481.55378 q -0.063,-0.57557 -0.067,-1.13065 0,-0.56748 0.062,-1.05087 0.1506,-1.1527 0.8216,-1.65753 0.6727,-0.51723 1.9865,-0.34559 l 3.3714,0.44042 -0.1328,1.01636 -3.1854,-0.41613 q -0.5578,-0.0729 -0.9178,-0.019 -0.36,0.0538 -0.5702,0.21545 -0.221,0.14762 -0.3293,0.39819 -0.1068,0.23818 -0.1457,0.53565 -0.032,0.24789 -0.032,0.53783 -0.011,0.27592 0,0.54269 l 4.8588,0.63472 -0.1344,1.02876 -5.59,-0.73026 z"
           style="font-size:12.50000095px;letter-spacing:-0.9000001px"
           id="path5061" />
        <path
           d="m -1082.4634,473.17298 q -0.2939,-0.106 -0.5711,0.0731 -0.273,0.16734 -0.5455,0.48098 -0.2683,0.30188 -0.5503,0.67856 -0.2938,0.37244 -0.6251,0.66488 -0.3271,0.28068 -0.7102,0.42162 -0.3787,0.12917 -0.8491,-0.0404 -0.6585,-0.23745 -0.9028,-0.92348 -0.2517,-0.70204 0.1596,-1.84265 0.1611,-0.44683 0.4012,-0.89175 0.2327,-0.46091 0.4615,-0.76375 l 0.8065,0.49015 q -0.081,0.0771 -0.1873,0.22477 -0.1182,0.14343 -0.2298,0.34237 -0.1233,0.1947 -0.2359,0.43315 -0.1083,0.2267 -0.1889,0.45012 -0.4579,1.26996 0.2359,1.52012 0.2469,0.089 0.5081,-0.0825 0.2536,-0.18757 0.5262,-0.50121 0.2725,-0.31365 0.5781,-0.68184 0.2937,-0.37244 0.6368,-0.66064 0.3431,-0.2882 0.7337,-0.41314 0.383,-0.14093 0.8416,0.0244 0.7408,0.26713 0.9446,0.99172 0.192,0.72035 -0.2575,1.96679 -0.2035,0.56442 -0.4672,1.00086 -0.2636,0.43643 -0.6044,0.79191 l -0.8141,-0.50616 q 0.3365,-0.34372 0.627,-0.74391 0.283,-0.41619 0.4695,-0.93358 0.4792,-1.32876 -0.1911,-1.57045 z"
           style="font-size:12.50000095px;letter-spacing:-0.9000001px"
           id="path5063" />
        <path
           d="m -1083.6959,466.7759 1.4618,-1.96613 0.6921,0.51461 -1.4618,1.96613 2.1668,1.61096 q 0.3511,0.26103 0.609,0.37496 0.258,0.11392 0.4805,0.10799 0.2199,-0.0234 0.4043,-0.16669 0.1844,-0.14327 0.3783,-0.40409 0.2685,-0.36112 0.3724,-0.62656 0.1039,-0.26544 0.1527,-0.54064 l 0.7917,0.40169 q -0.044,0.18519 -0.1751,0.57074 -0.1234,0.37552 -0.459,0.82692 -0.3879,0.52163 -0.7543,0.76316 -0.3665,0.24154 -0.749,0.25314 -0.375,0.002 -0.7783,-0.18925 -0.4133,-0.19827 -0.8848,-0.54881 l -2.1667,-1.61095 -0.7309,0.98306 -0.6922,-0.51461 0.7309,-0.98307 -1.3041,-0.96955 0.4712,-0.92698 1.4445,1.07397 z"
           style="font-size:12.50000095px;letter-spacing:-0.9000001px"
           id="path5065" />
        <path
           d="m -1078.9733,461.67802 q 0.9061,-0.74802 1.8672,-0.5851 0.9532,0.15327 1.9002,1.30041 l 0.2307,0.27955 -3.2004,2.64193 q 0.6212,0.65428 1.3284,0.68638 0.709,0.0145 1.4512,-0.59824 0.4242,-0.35014 0.6673,-0.6643 0.2432,-0.31417 0.3337,-0.51861 l 0.6631,0.58726 q -0.081,0.19648 -0.3853,0.59358 -0.3043,0.39711 -0.7767,0.78703 -0.5783,0.47746 -1.165,0.66999 -0.585,0.17494 -1.1288,0.10519 -0.5439,-0.0697 -1.0386,-0.37453 -0.5027,-0.31443 -0.9165,-0.8157 -0.4934,-0.59767 -0.6763,-1.1923 -0.1829,-0.59463 -0.1228,-1.13051 0.06,-0.53588 0.3167,-0.99083 0.2566,-0.45494 0.6519,-0.7812 z m 2.6552,1.01743 q -0.4695,-0.56875 -1.0389,-0.64981 -0.5773,-0.0907 -1.0689,0.31512 -0.2796,0.23078 -0.4234,0.5278 -0.1342,0.28906 -0.1548,0.59786 -0.021,0.30879 0.066,0.61008 0.087,0.3013 0.2487,0.55653 l 2.3714,-1.95758 z"
           style="font-size:12.50000095px;letter-spacing:-0.9000001px"
           id="path5067" />
        <path
           d="m -1072.4091,464.20948 -2.5916,-4.83695 q 0.9172,-0.98779 2.0631,-1.60175 0.3526,-0.18892 0.6898,-0.32706 0.3313,-0.14917 0.7642,-0.26765 l 0.2657,0.89288 q -0.4057,0.0898 -0.693,0.2153 -0.2821,0.10863 -0.6017,0.27983 -0.6721,0.36011 -1.2658,0.91934 l 2.2728,4.24197 -0.9035,0.48409 z"
           style="font-size:12.50000095px;letter-spacing:-0.9000001px"
           id="path5069" />
        <path
           d="m -1065.1883,460.33361 q 0.09,0.36417 -0.085,0.70302 -0.1742,0.33885 -0.5748,0.43728 -0.4127,0.10142 -0.7241,-0.11812 -0.3114,-0.21954 -0.4008,-0.5837 -0.092,-0.37631 0.082,-0.71516 0.1741,-0.33885 0.5869,-0.44027 0.4005,-0.0984 0.7119,0.12111 0.3114,0.21954 0.4039,0.59584 z"
           style="font-size:12.50000095px;letter-spacing:-0.9000001px"
           id="path5071" />
        <path
           d="m -1061.538,455.27979 q 0.1923,-0.10409 0.5469,-0.201 0.3677,-0.10884 0.8047,-0.0895 0.587,0.026 1.0391,0.27124 0.4521,0.24525 0.7466,0.65868 0.3069,0.41399 0.4444,0.98313 0.1505,0.5572 0.1206,1.23154 -0.031,0.69932 -0.2557,1.25242 -0.2246,0.5531 -0.6045,0.93667 -0.3793,0.37108 -0.9007,0.56069 -0.5214,0.18962 -1.1458,0.16196 -0.6868,-0.0304 -1.2193,-0.1541 -0.5326,-0.12369 -0.8529,-0.23797 l 0.3684,-8.31685 1.0442,-0.12892 -0.136,3.07199 z m -0.2074,4.68291 q 0.2345,0.0729 0.4701,0.12092 0.2361,0.0355 0.4484,0.0449 0.8617,0.0382 1.3719,-0.46476 0.5108,-0.5154 0.5579,-1.57686 0.02,-0.44956 -0.05,-0.84055 -0.07,-0.40348 -0.2449,-0.68651 -0.1746,-0.29551 -0.4671,-0.47113 -0.28,-0.17506 -0.6921,-0.19331 -0.3621,-0.016 -0.706,0.11888 -0.3432,0.12243 -0.5252,0.27703 l -0.1626,3.6714 z"
           style="font-size:12.50000095px;letter-spacing:-0.9000001px"
           id="path5073" />
        <path
           d="m -1057.9934,462.10111 q 0.092,0.09 0.2749,0.17909 0.1951,0.0924 0.3638,0.13865 0.5907,0.16199 0.9889,-0.014 0.407,-0.16058 0.8463,-0.67524 -0.3247,-1.46295 -0.5154,-3.08358 -0.1873,-1.63269 -0.1731,-3.19713 l 1.085,0.29754 q -0.012,0.51525 -0.01,1.12481 0.017,0.60081 0.06,1.2477 0.043,0.64689 0.1067,1.31245 0.079,0.65681 0.1955,1.27201 0.345,-0.50163 0.6625,-0.99781 0.3175,-0.49619 0.611,-0.99899 0.2967,-0.51485 0.5967,-1.04176 0.3034,-0.53896 0.6353,-1.1349 l 1.0367,0.28432 q -0.8155,1.46134 -1.701,2.7998 -0.8735,1.34177 -1.7598,2.44671 -0.3372,0.42599 -0.6741,0.70946 -0.325,0.28678 -0.665,0.43979 -0.3401,0.153 -0.7195,0.16563 -0.3793,0.0126 -0.8253,-0.1097 -0.2291,-0.0628 -0.4898,-0.19913 -0.2487,-0.13301 -0.3319,-0.20767 l 0.4023,-0.75809 z"
           style="font-size:12.50000095px;letter-spacing:-0.9000001px"
           id="path5075" />
      </g>
      <path
         style="fill:none;stroke:none"
         d="m -1049.7547,363.29427 c 0,0 0.8515,-15.43194 12.3416,-22.97354 10.8273,-7.1066 30.6938,-5.09185 37.84047,10.55584 6.88792,15.08122 -2.55447,35.33115 10.54531,36.76289"
         id="path3129" />
      <path
         style="fill:none;stroke:none"
         d="m 30.383869,219.85669 c -9.315248,0.0968 -19.526478,-0.74378 -24.6347333,-16.02067 -1.3550058,-4.05232 -0.19635,-10.64224 0.7622804,-13.4191 3.1867984,-9.23117 13.9417699,-13.684 17.3648529,-13.98166 4.527231,-0.39367 9.568631,0.22887 13.856496,2.79443"
         id="path3204"
         transform="translate(-1088.0839,284.56401)" />
    </g>
  </g>
</svg>
