<?xml version="1.0" encoding="UTF-8" standalone="no"?>
<svg
   xmlns:dc="http://purl.org/dc/elements/1.1/"
   xmlns:cc="http://creativecommons.org/ns#"
   xmlns:rdf="http://www.w3.org/1999/02/22-rdf-syntax-ns#"
   xmlns:svg="http://www.w3.org/2000/svg"
   xmlns="http://www.w3.org/2000/svg"
   width="701.31421"
   height="399.44385"
   viewBox="0 0 701.31418 399.44384"
   id="svg4299"
   version="1.1">
  <defs
     id="defs4301">
    <linearGradient
       id="linearGradient4195">
      <stop
         id="stop4197"
         style="stop-color:#000000;stop-opacity:1"
         offset="0" />
    </linearGradient>
  </defs>
  <metadata
     id="metadata4304">
    <rdf:RDF>
      <cc:Work
         rdf:about="">
        <dc:format>image/svg+xml</dc:format>
        <dc:type
           rdf:resource="http://purl.org/dc/dcmitype/StillImage" />
        <dc:title></dc:title>
      </cc:Work>
    </rdf:RDF>
  </metadata>
  <path
     id="path3207"
     d="m 239.38398,139.03234 c 0,0 7.85184,-6.83869 7.85184,-8.86496 0,-2.02628 -0.25325,-10.38467 -0.25325,-10.38467 0,0 6.83865,-1.26642 10.63795,-3.54598 7.08017,-6.68111 7.36761,-16.308838 12.15763,-23.302175 9.40076,-13.573676 29.09025,-21.770229 44.83142,-18.236485 21.6972,5.857142 30.69427,17.173194 39.76562,35.71312 0,0 2.53284,5.31897 2.53284,8.86495 0,3.54598 0.75987,9.37153 -0.75985,19.24962 11.31625,3.78367 12.19809,17.63716 11.39781,27.10145 -1.5197,15.70365 -2.28702,17.1546 -4.8124,20.26277 -3.29271,4.05255 -9.62482,6.07883 -15.19708,6.07883 -5.57226,0 -18.23648,-0.75986 -18.23648,-0.75986 0,0 -0.50658,5.31898 -0.25329,11.65109 2.53315,6.6325 -0.058,-0.12612 10.40178,18.85203 7.80426,1.2116 15.41245,3.73003 20.24564,12.80853 2.77758,5.34149 2.44,17.67721 -5.57225,26.84815 -7.16912,8.20592 -22.34247,8.63204 -32.67368,1.01314 -7.03545,-6.33979 -10.28379,-17.31083 -5.31898,-25.32844 2.02627,-3.03942 -7.59859,-19.24963 -7.59859,-19.24963 0,0 -4.71752,-2.31692 -5.57222,-1.77299 -2.78612,1.773 -5.36921,3.53032 -8.61168,7.09197 -2.27421,2.49802 0.68138,4.86929 -0.25325,11.14451 -2.42022,16.24804 -15.00589,16.4735 -15.19709,18.48978 -0.25334,3.79927 1.26643,7.34524 -3.03945,7.59854 -14.93027,2.1196 -31.63824,-7.22308 -34.69997,-20.26277 -3.83257,-16.32247 2.14359,-38.6536 27.60806,-42.04523 4.1212,-0.54891 12.53755,2.4062 12.53755,2.4062 0,0 5.44565,-2.27954 5.44565,-3.54598 0,-1.26642 0,-22.41568 0,-22.41568 0,0 -14.13074,0.53298 -21.02265,-0.75986 -4.04146,-0.75812 -8.86493,-1.77299 -11.65105,-4.05254 -2.7862,-2.27957 -6.5854,-6.07884 -6.5854,-10.38467 0,-4.30584 -1.26643,-7.85183 -1.51978,-10.63796 -0.25324,-2.78613 -6.5854,-9.6248 -6.5854,-9.6248 z"
     style="fill:#ffffff;stroke:#cccccc;stroke-width:0.91698784px;stroke-linecap:butt;stroke-linejoin:miter;stroke-opacity:1" />
  <path
     id="path3129"
     d="m 281.60417,120.04777 c 0,0 0.78046,-14.14453 11.312,-21.056966 9.92403,-6.51373 28.13316,-4.667061 34.68362,9.675216 6.31329,13.82307 -2.34136,32.38364 9.66557,33.69594"
     style="fill:none;stroke:none" />
  <path
     id="path3204"
     d="m 274.32168,249.40071 c -8.53813,0.0887 -17.89748,-0.68173 -22.57958,-14.68415 -1.24197,-3.71425 -0.17997,-9.7544 0.69868,-12.2996 2.92094,-8.46106 12.77868,-12.54241 15.91619,-12.81524 4.14955,-0.36083 8.77037,0.20977 12.70052,2.5613"
     style="fill:none;stroke:none" />
  <path
     style="fill:#ffffff;stroke:#cccccc;stroke-width:0.93807876px;stroke-linecap:butt;stroke-linejoin:miter;stroke-opacity:1"
     d="m 389.47723,129.85446 c 0.49842,-20.83837 15.37356,-47.776338 31.5028,-54.018026 13.19173,-4.763684 30.05861,-4.978337 39.58598,0.518222 9.52736,5.496549 13.31747,4.91546 16.6154,3.449711 3.29794,-1.465749 9.03519,5.111708 9.03519,5.111708 0,0 5.80011,0.321983 9.83092,6.18497 4.0308,5.862996 4.0124,13.495305 10.9747,16.793235 6.96231,3.29793 20.32424,3.08327 20.32424,3.08327 l 9.02755,-1.34 c 0,0 3.43131,4.22705 3.79774,6.42566 0.36644,2.19863 -0.88466,11.97747 -0.88466,11.97747 0,0 0.77734,19.29542 0.77734,25.52485 0,6.22942 -1.96556,14.72797 -4.16419,18.02591 -2.19862,3.29794 -7.00675,8.81291 -11.404,9.54579 -4.39724,0.73287 -22.58572,0.21465 -22.58572,0.21465 l -0.47375,7.75805 c 7.43533,6.93048 -0.27694,0.15929 11.19903,9.75937 6.31453,-2.98488 15.76982,-1.70924 22.2096,2.16286 6.59586,4.03081 9.498,13.41264 8.92023,20.99424 -0.61276,8.04101 -5.33001,17.36034 -12.72559,20.57571 -8.9516,3.89189 -21.15122,2.45581 -28.71862,-5.72199 0.20434,7.30448 -3.90345,17.90664 -10.61904,23.05186 -8.34993,6.39738 -20.62781,7.29191 -31.11032,5.28952 -7.24343,-1.38365 -18.71433,-10.17894 -20.91295,-17.50769 -2.19863,-7.32873 -1.0104,-10.38598 -0.64397,-12.58459 0.36645,-2.19862 2.10972,-6.70319 4.30833,-9.63469 0.64397,-0.85862 -6.9623,2.56505 -12.09241,2.56505 -19.15986,0.71403 -26.70192,-11.68433 -26.12437,-24.16642 0.73287,-10.62669 5.77408,-15.40115 12.18135,-22.04909 -4.21824,-3.44676 -18.08728,-13.49179 -21.23494,-20.10959 -3.29794,-7.32874 -7.05036,-12.87881 -6.59587,-31.88002 z"
     id="path3209" />
  <path
     style="fill:none;stroke:none"
     d="m 432.06295,163.54125 c -24.49225,-3.74863 -22.82498,-42.94314 -8.82512,-55.28011 13.4284,-11.833368 29.15041,-2.3657 29.15041,-2.3657"
     id="path3150" />
  <path
     id="path4737"
     d="m 616.05198,34.462316 c 0,0 7.31856,-6.309101 21.95568,-8.580376 14.63711,-2.271275 34.15571,4.769553 40.96957,13.349928 6.81376,8.580375 12.74059,20.946209 12.74059,27.760043 0,6.813826 -2.43699,13.775481 -1.17514,25.888948 1.26176,12.113481 8.65874,26.754191 6.22245,40.039281 -1.37638,7.50542 -2.48035,15.35834 -11.31311,19.90088 -8.83266,4.54256 -9.21498,14.29816 -7.95313,22.37381 1.26185,8.07564 3.34194,9.00594 9.65109,14.30557 14.83355,12.89677 5.44077,34.54391 -15.57793,31.71127 -4.79495,-0.75709 -14.13241,-5.29964 -18.67492,-3.5331 -4.54261,1.76656 -24.21469,14.06449 -24.67045,26.00402 -0.55819,14.6227 13.05146,29.49821 27.69885,34.05862 10.09451,3.02837 26.49819,5.04728 36.088,3.28072 9.58981,-1.76654 8.83276,-1.2618 8.83276,-1.2618 0,0 -10.63517,11.104 -15.68248,14.13238 -18.84403,8.41782 -38.84797,1.55413 -56.70271,3.38218 -15.39417,1.51419 -17.40254,14.13547 -27.7495,9.84528 -10.34696,-4.29019 -22.50565,-15.16167 -28.06618,-26.85513 -9.23813,-19.42718 -10.37329,-43.45261 -5.17718,-64.32745 3.48561,-14.0031 11.45444,-28.24214 23.29665,-36.48825 4.39414,-3.05978 8.37872,-4.42008 15.69727,-3.41062 7.31856,1.00946 13.12292,1.76655 15.64653,-1.00946 2.5237,-2.776 6.5615,-6.81383 4.29025,-12.11347 -2.27135,-5.29965 -4.0379,-6.81384 -7.82335,-6.05674 -3.78546,0.75709 -9.84217,3.02836 -11.60872,-0.50473 -1.76655,-3.5331 -0.50471,-7.57092 -5.29966,-7.31855 -4.79486,0.25236 -11.35636,-8.58037 -12.61812,-14.13238 -1.26185,-5.55201 0,-15.14184 2.27125,-17.91785 2.27126,-2.776 4.54251,-7.0662 12.36577,-7.31855 7.82336,-0.25237 10.09461,0.75709 11.35646,-5.55201 1.26176,-6.309102 -2.27134,-14.132386 0.5047,-20.693844 2.77596,-6.561477 7.18869,-10.303632 4.16029,-17.622182 -3.0284,-7.318568 -7.52765,-18.692882 -7.52765,-22.983075 0,-4.290183 3.87207,-8.353363 3.87207,-8.353363 z"
     style="fill:#ffffff;fill-rule:evenodd;stroke:#cccccc;stroke-width:0.91365528px;stroke-linecap:butt;stroke-linejoin:miter;stroke-opacity:1" />
  <path
     id="path4352"
     d="m 616.06241,289.29432 c 0,0 -5.71928,1.03987 -18.19758,-15.07801 -13.66532,-23.3959 -11.48471,-46.21423 4.67936,-67.59108"
     style="fill:none;fill-rule:evenodd;stroke:none;stroke-width:1px;stroke-linecap:butt;stroke-linejoin:miter;stroke-opacity:1" />
  <path
     id="path4379"
     d="m 678.78922,74.514565 c 0,0 -4.18279,15.109786 -0.55147,25.919115 3.41875,10.1766 8.57883,22.63465 5.14708,31.98528 -2.95438,8.04992 -16.17649,16.3603 -16.17649,16.3603"
     style="fill:none;fill-rule:evenodd;stroke:none;stroke-width:1px;stroke-linecap:butt;stroke-linejoin:miter;stroke-opacity:1" />
  <path
     style="fill:#ffffff;stroke:#333333;stroke-width:0.20337909;stroke-miterlimit:4;stroke-dasharray:none;stroke-opacity:1"
     id="path4493"
     d="m 136.12067,8.2888787 c -2.42182,-3.23089 -2.49487,-5.13827 -5.17408,-8.15256002 -4.41611,3.19707002 -8.1202,10.84600032 -9.27677,14.47855032 -3.81628,-0.73456 -8.8691,-3.80877 -8.8691,-3.80877 -0.29498,-0.19246 -0.69197,-0.0428 -0.78654,0.29643 0,0 -0.79243,2.82654 -1.26875,6.09276 -0.23817,1.63313 -0.39871,3.37642 -0.33794,4.95642 0.37775,9.86437 1.57109,11.14664 -1.38094,10.77149 -0.18745,-2.28243 -0.0783,-1.66952 -1.10153,-4.04683 -1.72911,-3.22387 -8.444857,-4.60288 -10.789997,-1.33168 -0.0887,0.15086 -0.049,0.15499 -0.12252,0.30237 -1.1554,-1.13074 -2.70756,-2.15829 -4.30427,-2.10754 -1.76409,0.0561 -3.85061,1.03608 -4.59801,2.6258 -2.78896,-0.27529 -5.13999,-0.7328 -7.19721,2.30958 -1.41192,2.58163 -1.07998,3.97918 -0.96245,4.53069 l -66.31084,-0.1962 c -2.64306,-0.008 -5.2394395,1.02744 -7.1105195,2.71733 -1.87108,1.6899 -3.53402,5.5682 -2.95567,8.21159 L 20.750353,124.78245 c 0,0 -18.5346995,30.24561 -19.88848954,34.71611 -1.35379,4.4705 -0.5635,20.6455 -0.17475,22.035 0.38874004,1.3897 1.25570004,2.6326 2.35173004,3.6956 2.19207,2.1256 6.43767,5.5862 9.3244195,5.5862 l 167.490247,0 c 2.88675,0 6.74394,-3.6413 8.936,-5.767 2.53503,-3.0809 2.83859,-22.4625 2.08663,-26.3628 l -20.9559,-34.79187 5.7312,-29.616751 c 3.94176,0.12784 5.28928,-0.46921 5.28928,-0.46921 4.53899,-0.092 6.29157,-5.46138 5.09843,-9.12656 0,0 0.20644,0.006 0.42686,-0.0711 2.70888,-0.68801 2.9424,-2.83342 3.31557,-4.48127 0.0208,-1.49524 -0.92184,-4.46553 -1.72413,-5.09617 0.85097,-0.64313 2.59597,-3.47597 2.61683,-5.03603 -0.17119,-4.26622 -5.56218,-5.64948 -8.89853,-5.44434 l 3.54518,-17.80191 c 0.57924,-2.64353 -0.57927,-5.11629 -2.45055,-6.80619 -0.80727,-0.72902 -5.90982,-5.84232 -6.93237,-6.29575 l 8.9614,-0.87321 c 0.36834,-0.0682 0.5465,-0.49119 0.33794,-0.80236 0,0 -2.14055,-3.24579 -4.31414,-5.04139 -2.65103,-2.00855 0,0 -8.55299,-5.87939 -1.48691,-0.79283 3.4177,-5.44995 3.64674,-7.06591 -10.60747,-4.2737803 -9.73571,-2.928 -14.53949,-2.18516 -1.09643,-3.0604303 -1.11245,-5.2777103 -1.13791,-7.4462503 -9.85032,1.78011 -7.72227,6.3454203 -11.47458,-3.29131 -4.82869,0.82801 -8.43699,3.61994 -12.74431,7.22549 z" />
  <path
     style="fill:#ffffff;stroke:#333333;stroke-width:0.20337909;stroke-miterlimit:4;stroke-dasharray:none;stroke-opacity:1"
     id="path4493-7"
     d="m 137.2891,233.02188 c -2.42182,-3.23089 -2.49487,-5.13827 -5.17408,-8.15256 -4.41611,3.19707 -8.1202,10.846 -9.27677,14.47855 -3.81628,-0.73456 -8.8691,-3.80877 -8.8691,-3.80877 -0.29498,-0.19246 -0.69197,-0.0428 -0.78654,0.29643 0,0 -0.79243,2.82654 -1.26875,6.09276 -0.23817,1.63313 -0.39871,3.37642 -0.33794,4.95642 0.37775,9.86437 1.57109,11.14664 -1.38094,10.77149 -0.18745,-2.28243 -0.0783,-1.66952 -1.10153,-4.04683 -1.72911,-3.22387 -8.44486,-4.60288 -10.789997,-1.33168 -0.0887,0.15086 -0.049,0.15499 -0.12252,0.30237 -1.1554,-1.13074 -2.70756,-2.15829 -4.30427,-2.10754 -1.76409,0.0561 -3.85061,1.03608 -4.59801,2.6258 -3.10004,-1.21889 -3.28218,-0.66346 -6.57857,1.50408 l -65.71793,-0.1962 c -2.64305,-0.008 -6.4189,1.03483 -8.0986995,2.91497 -3.45217,3.8639 -4.71984,10.70675 -4.14149,13.35014 l 17.1768195,78.84414 c 0,0 -18.5346995,30.24561 -19.8884895,34.71611 -1.35379004,4.4705 -0.5635,4.43929 -0.17475,5.82879 0.38874,1.3897 1.2557,2.6326 2.35173,3.6956 2.19207,2.1256 6.4376695,5.5862 9.3244195,5.5862 l 167.490247,0 c 2.88675,0 6.74394,-3.6413 8.936,-5.767 2.53503,-3.0809 2.83859,-6.25629 2.08663,-10.15659 l -20.9559,-34.79187 5.7312,-29.61675 c 3.94176,0.12784 5.28928,-0.46921 5.28928,-0.46921 4.53899,-0.092 6.29157,-5.46138 5.09843,-9.12656 0,0 0.20644,0.006 0.42686,-0.0711 2.70888,-0.68801 2.9424,-2.83342 3.31557,-4.48127 0.0208,-1.49524 -0.92184,-4.46553 -1.72413,-5.09617 0.85097,-0.64313 2.59597,-3.47597 2.61683,-5.03603 -0.17119,-4.26622 -5.56218,-5.64948 -8.89853,-5.44434 l 3.54518,-17.80191 c 0.57924,-2.64353 -0.57927,-5.11629 -2.45055,-6.80619 -0.80727,-0.72902 -5.90982,-5.84232 -6.93237,-6.29575 l 8.9614,-0.87321 c 0.36834,-0.0682 0.5465,-0.49119 0.33794,-0.80236 0,0 -2.14055,-3.24579 -4.31414,-5.04139 -2.65103,-2.00855 0,0 -8.55299,-5.87939 -1.48691,-0.79283 3.4177,-5.44995 3.64674,-7.06591 -10.60747,-4.27378 -9.73571,-2.928 -14.53949,-2.18516 -1.09643,-3.06043 -1.11245,-5.27771 -1.13791,-7.44625 -9.85032,1.78011 -7.72227,6.34542 -11.47458,-3.29131 -4.82869,0.82801 -8.43699,3.61994 -12.74431,7.22549 z" />
</svg>
