<?xml version="1.0" encoding="UTF-8" standalone="no"?>
<svg
   xmlns:dc="http://purl.org/dc/elements/1.1/"
   xmlns:cc="http://creativecommons.org/ns#"
   xmlns:rdf="http://www.w3.org/1999/02/22-rdf-syntax-ns#"
   xmlns:svg="http://www.w3.org/2000/svg"
   xmlns="http://www.w3.org/2000/svg"
   xmlns:sodipodi="http://sodipodi.sourceforge.net/DTD/sodipodi-0.dtd"
   xmlns:inkscape="http://www.inkscape.org/namespaces/inkscape"
   width="27.69449mm"
   height="61.349312mm"
   viewBox="0 0 98.130086 217.37945"
   id="svg4256"
   version="1.1"
   inkscape:version="0.91 r13725"
   sodipodi:docname="lizard.svg"
   inkscape:export-filename="/home/jedi/Dropbox/falanster/dig_lab/design/logos/lizard.png"
   inkscape:export-xdpi="458.73706"
   inkscape:export-ydpi="458.73706">
  <sodipodi:namedview
     pagecolor="#ffffff"
     bordercolor="#666666"
     borderopacity="1"
     objecttolerance="10"
     gridtolerance="10"
     guidetolerance="10"
     inkscape:pageopacity="0"
     inkscape:pageshadow="2"
     inkscape:window-width="1855"
     inkscape:window-height="1056"
     id="namedview44"
     showgrid="false"
     fit-margin-top="0"
     fit-margin-left="0"
     fit-margin-right="0"
     fit-margin-bottom="0"
     inkscape:zoom="1.1774114"
     inkscape:cx="52.20925"
     inkscape:cy="198.98775"
     inkscape:window-x="65"
     inkscape:window-y="24"
     inkscape:window-maximized="1"
     inkscape:current-layer="svg4256" />
  <defs
     id="defs4258" />
  <metadata
     id="metadata4261">
    <rdf:RDF>
      <cc:Work
         rdf:about="">
        <dc:format>image/svg+xml</dc:format>
        <dc:type
           rdf:resource="http://purl.org/dc/dcmitype/StillImage" />
        <dc:title></dc:title>
      </cc:Work>
    </rdf:RDF>
  </metadata>
  <g
     id="g3261-7-8-4-4"
     style="fill:#333333;stroke:none"
     transform="matrix(0.4208035,0.11285896,-0.11285892,0.42080362,-1261.0344,-496.333)">
    <path
       id="path3245-1-9-4-7"
       d="m 3198.5714,336.6479 c 0,0 -18.5714,24.28571 -15.7143,41.42857 2.8572,17.14286 25.7143,50 25.7143,50 1.3288,13.89088 3.3508,29.78734 3.5504,31.60189 4.2857,37.14285 49.7251,40.59173 49.7251,96.30601 0,55.71429 -6.1326,44.94924 -28.9898,74.94924 -22.8571,30 -26.6853,54.01654 -22.8571,80 5.9594,40.44816 38.3816,100.24775 141.4286,84.28572 71.5424,-11.08194 81.4285,-32.85715 81.4285,-32.85715 0,0 0.7293,5.90898 -39.8687,14.28572 -65.6722,13.5504 -153.277,-26.19054 -139.6113,-92.61204 5.2417,-25.4775 19.9282,-32.39667 41.082,-57.14286 42.001,-55.2481 32.3876,-97.13291 25.5409,-117.07107 -6.8467,-19.93815 -20.9211,-28.24272 -29.2634,-44.68322 -7.9839,-15.73428 -29.2862,-25.17935 -36.9709,-48.23339 -2.5822,-28.96011 -2.683,-42.90223 -15.1943,-58.82885 -9.3441,-11.89482 -30,-21.42857 -40,-21.42857 z"
       style="fill:#333333;stroke:none"
       inkscape:connector-curvature="0" />
    <path
       id="path3247-0-7-1-8"
       d="m 3281.5373,466.82287 c 23.8824,-13.32688 23.2015,-11.53014 33.7144,-28.35069 0,0 3.8311,-13.79224 -6.8961,-20.68835 -10.7274,-6.89612 -18.3775,-17.98929 -10.1776,-19.43476 3.6713,-0.64718 2.5151,-1.25359 8.6451,-1.25359 6.1299,0 9.4779,-1.67997 8.9815,-4.96996 -34.831,2.85741 -14.0759,-9.20037 -23.54,-19.54957 -5.3637,0 -1.0842,0.2092 -4.9155,8.63779 -9.408,15.52794 -18.4764,-1.11016 -24.2014,-4.80661 -3.8312,2.2987 -0.5393,8.33167 7.7669,17.33627 11.0553,7.83506 -8.8984,23.64281 -1.6371,27.10537 5.1919,2.03051 3.4673,-8.52155 8.0648,-14.65143 4.5974,-6.12988 12.6236,6.98907 12.6236,6.98907 2.0885,5.83451 6.4549,12.36455 5.0662,16.76328 -2.7638,8.75454 -14.7105,13.60454 -17.4855,19.49187 -4.4589,9.4597 1.2399,17.20058 3.9907,17.38131 z"
       style="fill:#333333;stroke:none"
       inkscape:connector-curvature="0" />
    <path
       id="path3249-6-8-4-4"
       d="m 3225.3572,463.79075 c 7.8571,3.21429 16.7857,4.64286 11.4286,10.71429 -5.3572,6.07142 -13.5715,10 -22.5,14.28571 -8.9286,4.28571 -15,10.35714 -21.4286,1.07143 -6.4286,-9.28572 -16.0714,-27.5 -18.5714,-27.14286 -2.5,0.35714 -13.9286,15.35714 -14.6429,20.35714 -0.7143,5 -6.0714,2.5 -6.0714,2.5 0,0 -6.4286,-2.5 0,-7.85714 9.0428,-16.74701 -0.5924,-11.01156 -14.7961,-15.633 -1.3818,-0.44962 0.1532,-4.72414 3.0104,-5.08128 2.8571,-0.35715 14.0996,-1.42497 15.3568,-6.8933 0.7896,-3.43429 -6.7854,-8.1067 -6.7854,-8.1067 0,0 -0.7143,-8.57143 3.5714,-5 4.2857,3.57142 8.2446,5.62834 15.5419,7.47415 5.3586,1.35541 0.8867,-10.3313 4.4582,-12.8313 3.5714,-2.5 6.7857,5 6.7857,5 0,0 -3.2143,14.64286 0.7142,16.78572 3.9286,2.14286 5,8.57143 5,8.57143 0,0 6.2419,12.15147 11.7857,11.78571 7.0327,-0.46399 7.5,-13.21428 12.8571,-16.78571 6.8078,-5.89638 6.6434,4.02445 14.2858,6.78571 z"
       style="fill:#333333;stroke:none"
       inkscape:connector-curvature="0" />
    <path
       id="path3257-6-8-0-5"
       d="m 3233.9286,572.71932 c 0,0 8.5714,-13.92857 20,-12.14285 11.4285,1.78571 17.8571,-5.35715 18.2143,8.21428 0.3571,13.57143 5.3571,15.35715 -6.7858,20.35715 -12.1428,5 -19.6428,4.64285 -24.2857,4.64285 -4.6428,0 -9.6428,1.42857 -12.8571,3.21429 -3.2143,1.78571 -4.2857,1.78571 -6.0714,2.85714 -1.7858,1.07143 -10.3572,5 -15.3572,16.78572 -5,11.78571 -7.1428,12.14285 -7.1428,10.71428 0,-1.42857 2.7918,-12.28378 -1.4025,-15.11314 -4.2319,-2.85478 -7.8883,4.12892 -14.669,4.39886 -1.4285,0 -3.0903,-0.21173 0,-4.28572 4.3549,-5.74117 10.614,-14.49457 -4.9401,-14.0215 -15.5541,0.47308 -11.8456,-2.76421 -8.9884,-4.54993 13.4884,-0.86541 16.6653,-3.89496 6.0714,-4.64285 -7.8572,-1.42858 -10,-5.71429 0.3571,-5.35715 12.5615,1.47747 26.3672,-1.86089 33.5715,-1.78571 6.0714,0 8.5714,-3.57143 13.9285,-5.71429 5.3572,-2.14285 10.3572,-3.57143 10.3572,-3.57143 z"
       style="fill:#333333;stroke:none"
       inkscape:connector-curvature="0" />
    <path
       id="path3259-5-1-3-0"
       d="m 3321.0714,601.29075 c 0,0 -17.1428,-3.92857 -16.0714,-13.57143 1.0714,-9.64285 -1.4286,-20.71428 9.6429,-24.28571 11.0714,-3.57143 15.3571,-4.28571 21.7857,-1.42857 6.4285,2.85714 10,14.28571 10,19.28571 0,5 4.2856,4.28572 4.2856,-1.78571 0,-6.07143 -0.3571,-23.57143 4.2858,-22.14286 1.6483,22.35285 8.3242,6.56003 17.8571,5.71429 -2.8467,8.52027 -3.865,9.15467 -1.2193,12.6557 5.9527,5.622 14.7008,-1.05718 13.3622,4.13001 -1.0412,4.03458 -10.0098,2.38011 -10.3571,6.42857 -0.3676,4.28482 1.822,6.01562 9.6428,8.57143 2.1429,0.71429 3.4458,5.3392 -8.9286,3.57143 -5,-0.71429 -9.2857,-3.92857 -20,-0.35714 -10.7142,3.57143 -17.1428,6.42857 -17.1428,6.42857 0,0 0.3571,-4.64286 -5,-5 -5.3572,-0.35714 -12.1429,1.78571 -12.1429,1.78571 z"
       style="fill:#333333;stroke:none"
       inkscape:connector-curvature="0" />
  </g>
  <path
     inkscape:connector-curvature="0"
     id="path4352"
     d="m 27.191472,214.77975 c 0,0 -5.719281,1.03987 -18.1975811,-15.07801 -13.665322,-23.3959 -11.484708,-46.21423 4.6793551,-67.59108"
     style="fill:none;fill-rule:evenodd;stroke:none;stroke-width:1px;stroke-linecap:butt;stroke-linejoin:miter;stroke-opacity:1" />
  <path
     inkscape:connector-curvature="0"
     id="path4379"
     d="m 89.918279,0 c 0,0 -4.18279,15.109786 -0.55147,25.919112 3.41875,10.176601 8.57883,22.634652 5.14708,31.985289 -2.95438,8.04992 -16.17649,16.3603 -16.17649,16.3603"
     style="fill:none;fill-rule:evenodd;stroke:none;stroke-width:1px;stroke-linecap:butt;stroke-linejoin:miter;stroke-opacity:1" />
</svg>
