<?xml version="1.0" encoding="UTF-8" standalone="no"?>
<!-- Created with Inkscape (http://www.inkscape.org/) -->

<svg
   xmlns:dc="http://purl.org/dc/elements/1.1/"
   xmlns:cc="http://creativecommons.org/ns#"
   xmlns:rdf="http://www.w3.org/1999/02/22-rdf-syntax-ns#"
   xmlns:svg="http://www.w3.org/2000/svg"
   xmlns="http://www.w3.org/2000/svg"
   xmlns:sodipodi="http://sodipodi.sourceforge.net/DTD/sodipodi-0.dtd"
   xmlns:inkscape="http://www.inkscape.org/namespaces/inkscape"
   width="744.09448819"
   height="1052.3622047"
   id="svg8942"
   version="1.1"
   inkscape:version="0.48.4 r9939"
   sodipodi:docname="New document 33">
  <defs
     id="defs8944">
    <clipPath
       clipPathUnits="userSpaceOnUse"
       id="clipPath8503">
      <g
         id="g8505">
        <path
           style="fill:#55d400;fill-opacity:1;stroke:none"
           d="m 3926.7438,3063.858 48.611,28.5515 -143.1187,276.1142 -48.611,-28.5515 z"
           id="path8507"
           inkscape:connector-curvature="0" />
        <path
           style="fill:#55d400;fill-opacity:1;stroke:none"
           d="m 3745.9247,3147.7376 36.9621,-42.5679 245.2746,191.2131 -36.9621,42.5679 z"
           id="path8509"
           inkscape:connector-curvature="0" />
        <path
           style="fill:#55d400;fill-opacity:1;stroke:none"
           d="m 3547.1274,2181.8489 c 43.4297,0 78.393,32.6925 78.393,73.3017 l 0,325.6092 c 0,40.6092 -34.9633,73.3017 -78.393,73.3017 -43.4297,0 -78.393,-32.6925 -78.393,-73.3017 l 0,-325.6092 c 0,-40.6092 34.9633,-73.3017 78.393,-73.3017 z"
           id="path8511"
           inkscape:connector-curvature="0" />
        <path
           style="fill:#55d400;fill-opacity:1;stroke:none"
           d="m 3613.1221,3136.5174 c 0,45.2631 -36.693,81.9561 -81.9561,81.9561 -45.263,0 -81.956,-36.693 -81.956,-81.9561 0,-45.2631 36.693,-81.956 81.956,-81.956 45.2631,0 81.9561,36.6929 81.9561,81.956 z"
           id="path8513"
           inkscape:connector-curvature="0" />
        <path
           style="fill:#55d400;fill-opacity:1;stroke:none"
           d="m 3839.8457,3126.7103 c 0,45.2631 -36.693,81.9561 -81.9561,81.9561 -45.263,0 -81.956,-36.693 -81.956,-81.9561 0,-45.2631 36.693,-81.956 81.956,-81.956 45.2631,0 81.9561,36.6929 81.9561,81.956 z"
           id="path8515"
           inkscape:connector-curvature="0" />
        <path
           style="fill:#55d400;fill-opacity:1;stroke:none"
           d="m 4065.5262,3021.3897 c 0,45.2631 -36.693,81.9561 -81.9561,81.9561 -45.263,0 -81.956,-36.693 -81.956,-81.9561 0,-45.2631 36.693,-81.956 81.956,-81.956 45.2631,0 81.9561,36.6929 81.9561,81.956 z"
           id="path8517"
           inkscape:connector-curvature="0" />
        <path
           style="fill:#55d400;fill-opacity:1;stroke:none"
           d="m 3707.5801,3344.8802 c 0,45.2631 -36.693,81.9561 -81.9561,81.9561 -45.263,0 -81.956,-36.693 -81.956,-81.9561 0,-45.2631 36.693,-81.956 81.956,-81.956 45.2631,0 81.9561,36.6929 81.9561,81.956 z"
           id="path8519"
           inkscape:connector-curvature="0" />
        <path
           style="fill:#55d400;fill-opacity:1;stroke:none"
           d="m 3874.6733,3375.7994 c 0,45.2631 -36.693,81.9561 -81.9561,81.9561 -45.263,0 -81.956,-36.693 -81.956,-81.9561 0,-45.2631 36.693,-81.956 81.956,-81.956 45.2631,0 81.9561,36.6929 81.9561,81.956 z"
           id="path8521"
           inkscape:connector-curvature="0" />
        <path
           style="fill:#55d400;fill-opacity:1;stroke:none"
           d="m 3733.0274,2870.2315 39.9437,39.7835 -207.5207,231.6403 -39.9436,-39.7835 z"
           id="path8523"
           inkscape:connector-curvature="0" />
        <path
           style="fill:#55d400;fill-opacity:1;stroke:none"
           d="m 3475.1897,3086.8651 52.2431,-21.187 131.943,281.6257 -52.2431,21.187 z"
           id="path8525"
           inkscape:connector-curvature="0" />
        <path
           style="fill:#55d400;fill-opacity:1;stroke:none"
           d="m 3729.051,2907.7719 27.8673,-49.0064 278.0929,139.2349 -27.8674,49.0064 z"
           id="path8527"
           inkscape:connector-curvature="0" />
        <path
           style="fill:#55d400;fill-opacity:1;stroke:none"
           d="m 3756.9355,2795.6777 55.7547,8.3446 -29.7189,309.5785 -55.7548,-8.3446 z"
           id="path8529"
           inkscape:connector-curvature="0" />
        <path
           style="fill:#ffffff;fill-opacity:1;stroke:none"
           d="m 3583.3961,3136.5174 c 0,29.1525 -23.6327,52.7853 -52.7852,52.7853 -29.1525,0 -52.7853,-23.6328 -52.7853,-52.7853 0,-29.1525 23.6328,-52.7852 52.7853,-52.7852 29.1525,0 52.7852,23.6327 52.7852,52.7852 z"
           id="path8531"
           inkscape:connector-curvature="0" />
        <path
           style="fill:#ffffff;fill-opacity:1;stroke:none"
           d="m 3809.008,3126.7103 c 0,29.1525 -23.6327,52.7853 -52.7852,52.7853 -29.1525,0 -52.7853,-23.6328 -52.7853,-52.7853 0,-29.1525 23.6328,-52.7852 52.7853,-52.7852 29.1525,0 52.7852,23.6327 52.7852,52.7852 z"
           id="path8533"
           inkscape:connector-curvature="0" />
        <path
           style="fill:#ffffff;fill-opacity:1;stroke:none"
           d="m 4036.0776,3020.2785 c 0,29.1525 -23.6327,52.7853 -52.7852,52.7853 -29.1525,0 -52.7853,-23.6328 -52.7853,-52.7853 0,-29.1525 23.6328,-52.7852 52.7853,-52.7852 29.1525,0 52.7852,23.6327 52.7852,52.7852 z"
           id="path8535"
           inkscape:connector-curvature="0" />
        <path
           style="fill:#ffffff;fill-opacity:1;stroke:none"
           d="m 3675.6313,3345.9915 c 0,29.1525 -23.6327,52.7853 -52.7852,52.7853 -29.1525,0 -52.7853,-23.6328 -52.7853,-52.7853 0,-29.1525 23.6328,-52.7852 52.7853,-52.7852 29.1525,0 52.7852,23.6327 52.7852,52.7852 z"
           id="path8537"
           inkscape:connector-curvature="0" />
        <path
           style="fill:#ffffff;fill-opacity:1;stroke:none"
           d="m 3845.2247,3374.4104 c 0,29.1525 -23.6327,52.7853 -52.7852,52.7853 -29.1525,0 -52.7853,-23.6328 -52.7853,-52.7853 0,-29.1525 23.6328,-52.7852 52.7853,-52.7852 29.1525,0 52.7852,23.6327 52.7852,52.7852 z"
           id="path8539"
           inkscape:connector-curvature="0" />
        <path
           style="fill:#55d400;fill-opacity:1;stroke:none"
           d="m 3483.1794,2573.4829 c 0,-43.4297 32.6926,-78.393 73.3017,-78.393 l 206.2113,0 c 40.6091,0 73.3016,34.9633 73.3016,78.393 0,43.4298 -32.6925,78.3931 -73.3016,78.3931 l -206.2113,0 c -40.6091,0 -73.3017,-34.9633 -73.3017,-78.3931 z"
           id="path8541"
           inkscape:connector-curvature="0" />
        <path
           style="fill:#55d400;fill-opacity:1;stroke:none"
           d="m 3984.8945,2290.9387 c 43.4297,0 78.393,32.6926 78.393,73.3017 l 0,280.5517 c 0,40.6092 -34.9633,73.3017 -78.393,73.3017 -43.4297,0 -78.393,-32.6925 -78.393,-73.3017 l 0,-280.5517 c 0,-40.6091 34.9633,-73.3017 78.393,-73.3017 z"
           id="path8543"
           inkscape:connector-curvature="0" />
        <path
           style="fill:#55d400;fill-opacity:1;stroke:none"
           d="m 3767.9025,2350.8464 c 43.4298,0 78.3931,32.6926 78.3931,73.3017 l 0,457.1028 c 0,40.6092 -34.9633,73.3017 -78.3931,73.3017 -43.4297,0 -78.393,-32.6925 -78.393,-73.3017 l 0,-457.1028 c 0,-40.6091 34.9633,-73.3017 78.393,-73.3017 z"
           id="path8545"
           inkscape:connector-curvature="0" />
        <path
           style="fill:#55d400;fill-opacity:1;stroke:#00d400;stroke-width:1.94471991"
           d="m 4068.0752,3298.4075 c 0,45.2631 -36.693,81.9561 -81.9561,81.9561 -45.263,0 -81.956,-36.693 -81.956,-81.9561 0,-45.2631 36.693,-81.956 81.956,-81.956 45.2631,0 81.9561,36.6929 81.9561,81.956 z"
           id="path8547"
           inkscape:connector-curvature="0" />
        <path
           style="fill:#ffffff;fill-opacity:1;stroke:none"
           d="m 4038.6266,3297.0185 c 0,29.1525 -23.6327,52.7853 -52.7852,52.7853 -29.1525,0 -52.7853,-23.6328 -52.7853,-52.7853 0,-29.1525 23.6328,-52.7852 52.7853,-52.7852 29.1525,0 52.7852,23.6327 52.7852,52.7852 z"
           id="path8549"
           inkscape:connector-curvature="0" />
        <path
           sodipodi:nodetypes="ssscs"
           inkscape:connector-curvature="0"
           id="path8551"
           d="m 4003.0513,2294.3107 c 0,11.5619 -8.5336,20.9346 -19.0598,20.9346 -10.5267,0 -19.0601,-9.3727 -19.0601,-20.9346 0,-11.5619 8.2117,-13.7481 19.0601,-36.5575 10.3353,22.4969 19.0598,24.9956 19.0598,36.5575 z"
           style="fill:#55d400;fill-opacity:1;stroke:none" />
        <path
           sodipodi:nodetypes="ssscs"
           inkscape:connector-curvature="0"
           id="path8553"
           d="m 4053.0411,2335.361 c -8.2629,8.0871 -20.9304,8.5441 -28.2931,1.0213 -7.3629,-7.5232 -6.6331,-20.1776 1.6298,-28.2646 8.2631,-8.087 15.5693,-3.7475 39.4584,-11.9486 -8.8487,23.122 -4.532,31.1049 -12.7951,39.1919 z"
           style="fill:#55d400;fill-opacity:1;stroke:none" />
        <path
           sodipodi:nodetypes="ssscs"
           inkscape:connector-curvature="0"
           id="path8555"
           d="m 3937.3435,2312.0359 c 9.2108,6.9884 11.5197,19.4519 5.1573,27.8377 -6.3626,8.3861 -18.9872,9.5191 -28.1982,2.5307 -9.2108,-6.9884 -5.9891,-14.8517 -17.6032,-37.2808 24.1693,5.3641 31.4333,-0.076 40.6441,6.9124 z"
           style="fill:#55d400;fill-opacity:1;stroke:none" />
        <path
           sodipodi:nodetypes="ssscs"
           inkscape:connector-curvature="0"
           id="path8557"
           d="m 4059.0334,2409.6387 c -11.5618,0 -20.9346,-8.5335 -20.9346,-19.0598 0,-10.5267 9.3728,-19.0601 20.9346,-19.0601 11.5619,0 13.748,8.2117 36.5574,19.0601 -22.4969,10.3353 -24.9955,19.0598 -36.5574,19.0598 z"
           style="fill:#55d400;fill-opacity:1;stroke:none" />
        <path
           sodipodi:nodetypes="ssscs"
           inkscape:connector-curvature="0"
           id="path8559"
           d="m 3563.9152,2188.6325 c 0,11.5619 -8.5336,20.9347 -19.0599,20.9347 -10.5267,0 -19.06,-9.3728 -19.06,-20.9347 0,-11.5618 8.2117,-13.7481 19.06,-36.5574 10.3354,22.4969 19.0599,24.9956 19.0599,36.5574 z"
           style="fill:#55d400;fill-opacity:1;stroke:none" />
        <path
           sodipodi:nodetypes="ssscs"
           inkscape:connector-curvature="0"
           id="path8561"
           d="m 3789.2718,2355.8566 c 0,11.5618 -8.5335,20.9346 -19.0598,20.9346 -10.5267,0 -19.0601,-9.3728 -19.0601,-20.9346 0,-11.5619 8.2117,-13.7481 19.0601,-36.5575 10.3353,22.4969 19.0598,24.9956 19.0598,36.5575 z"
           style="fill:#55d400;fill-opacity:1;stroke:none" />
        <path
           sodipodi:nodetypes="ssscs"
           inkscape:connector-curvature="0"
           id="path8563"
           d="m 3612.9403,2219.2122 c -7.0255,9.1824 -19.4984,11.4407 -27.8582,5.0442 -8.3601,-6.3966 -9.4419,-19.0258 -2.4161,-28.2082 7.0255,-9.1824 14.8758,-5.9288 37.3517,-17.4517 -5.4622,24.1473 -0.051,31.4333 -7.0774,40.6157 z"
           style="fill:#55d400;fill-opacity:1;stroke:none" />
        <path
           sodipodi:nodetypes="ssscs"
           inkscape:connector-curvature="0"
           id="path8565"
           d="m 3504.0206,2196.3741 c 8.2566,8.0935 8.9763,20.7486 1.6078,28.2657 -7.3688,7.5174 -20.0357,7.0502 -28.2924,-1.0433 -8.2566,-8.0935 -4.0695,-15.4881 -12.7644,-39.2021 23.3006,8.3674 31.1923,3.8862 39.449,11.9797 z"
           style="fill:#55d400;fill-opacity:1;stroke:none" />
        <path
           sodipodi:nodetypes="ssscs"
           inkscape:connector-curvature="0"
           id="path8567"
           d="m 3732.8772,2362.4342 c 5.9569,9.9092 3.4724,22.3388 -5.5493,27.7623 -9.0219,5.4236 -21.1645,1.7872 -27.1216,-8.1219 -5.9569,-9.9091 -0.045,-16.0137 -2.4998,-41.152 20.449,13.9561 29.2137,11.6025 35.1707,21.5116 z"
           style="fill:#55d400;fill-opacity:1;stroke:none" />
        <path
           sodipodi:nodetypes="ssscs"
           inkscape:connector-curvature="0"
           id="path8569"
           d="m 3476.3444,2258.6473 c 11.5619,0 20.9347,8.5336 20.9347,19.0598 0,10.5267 -9.3728,19.0601 -20.9347,19.0601 -11.5619,0 -13.7481,-8.2117 -36.5576,-19.0601 22.497,-10.3353 24.9957,-19.0598 36.5576,-19.0598 z"
           style="fill:#55d400;fill-opacity:1;stroke:none" />
        <path
           sodipodi:nodetypes="ssscs"
           inkscape:connector-curvature="0"
           id="path8571"
           d="m 3476.3858,2334.7625 c 11.5619,0 20.9347,8.5336 20.9347,19.0598 0,10.5267 -9.3728,19.0601 -20.9347,19.0601 -11.5619,0 -13.7481,-8.2117 -36.5576,-19.0601 22.497,-10.3353 24.9957,-19.0598 36.5576,-19.0598 z"
           style="fill:#55d400;fill-opacity:1;stroke:none" />
        <path
           sodipodi:nodetypes="ssscs"
           inkscape:connector-curvature="0"
           id="path8573"
           d="m 3693.5418,2409.3457 c 11.5619,0 20.9347,8.5336 20.9347,19.0598 0,10.5267 -9.3728,19.0601 -20.9347,19.0601 -11.5619,0 -13.7481,-8.2117 -36.5576,-19.0601 22.497,-10.3353 24.9957,-19.0598 36.5576,-19.0598 z"
           style="fill:#55d400;fill-opacity:1;stroke:none" />
        <path
           style="fill:#55d400;fill-opacity:1;stroke:none"
           d="m 3760.0032,2640.0069 c 0,-43.4298 32.6925,-78.3931 73.3017,-78.3931 l 133.3606,0 c 40.6091,0 73.3017,34.9633 73.3017,78.3931 0,43.4297 -32.6926,78.393 -73.3017,78.393 l -133.3606,0 c -40.6092,0 -73.3017,-34.9633 -73.3017,-78.393 z"
           id="path8575"
           inkscape:connector-curvature="0" />
        <g
           transform="matrix(0.39795311,0.10673049,-0.10673049,0.39795311,2509.0205,2091.1043)"
           style="fill:#ffffff;stroke:none"
           id="g8577">
          <path
             style="fill:#ffffff;stroke:none"
             d="m 3198.5714,336.6479 c 0,0 -18.5714,24.28571 -15.7143,41.42857 2.8572,17.14286 25.7143,50 25.7143,50 1.3288,13.89088 3.3508,29.78734 3.5504,31.60189 4.2857,37.14285 49.7251,40.59173 49.7251,96.30601 0,55.71429 -6.1326,44.94924 -28.9898,74.94924 -22.8571,30 -26.6853,54.01654 -22.8571,80 5.9594,40.44816 38.3816,100.24775 141.4286,84.28572 71.5424,-11.08194 81.4285,-32.85715 81.4285,-32.85715 0,0 0.7293,5.90898 -39.8687,14.28572 -65.6722,13.5504 -153.277,-26.19054 -139.6113,-92.61204 5.2417,-25.4775 19.9282,-32.39667 41.082,-57.14286 42.001,-55.2481 32.3876,-97.13291 25.5409,-117.07107 -6.8467,-19.93815 -20.9211,-28.24272 -29.2634,-44.68322 -7.9839,-15.73428 -29.2862,-25.17935 -36.9709,-48.23339 -2.5822,-28.96011 -2.683,-42.90223 -15.1943,-58.82885 -9.3441,-11.89482 -30,-21.42857 -40,-21.42857 z"
             id="path8579"
             inkscape:connector-curvature="0"
             sodipodi:nodetypes="csccsssscssczscac" />
          <path
             style="fill:#ffffff;stroke:none"
             d="m 3281.5373,466.82287 c 23.8824,-13.32688 23.2015,-11.53014 33.7144,-28.35069 0,0 3.8311,-13.79224 -6.8961,-20.68835 -10.7274,-6.89612 -18.3775,-17.98929 -10.1776,-19.43476 3.6713,-0.64718 2.5151,-1.25359 8.6451,-1.25359 6.1299,0 9.4779,-1.67997 8.9815,-4.96996 -34.831,2.85741 -14.0759,-9.20037 -23.54,-19.54957 -5.3637,0 -1.0842,0.2092 -4.9155,8.63779 -9.408,15.52794 -18.4764,-1.11016 -24.2014,-4.80661 -3.8312,2.2987 -0.5393,8.33167 7.7669,17.33627 11.0553,7.83506 -8.8984,23.64281 -1.6371,27.10537 5.1919,2.03051 3.4673,-8.52155 8.0648,-14.65143 4.5974,-6.12988 12.6236,6.98907 12.6236,6.98907 2.0885,5.83451 6.4549,12.36455 5.0662,16.76328 -2.7638,8.75454 -14.7105,13.60454 -17.4855,19.49187 -4.4589,9.4597 1.2399,17.20058 3.9907,17.38131 z"
             id="path8581"
             inkscape:connector-curvature="0"
             sodipodi:nodetypes="ccsssccccccsccsc" />
          <path
             style="fill:#ffffff;stroke:none"
             d="m 3225.3572,463.79075 c 7.8571,3.21429 16.7857,4.64286 11.4286,10.71429 -5.3572,6.07142 -13.5715,10 -22.5,14.28571 -8.9286,4.28571 -15,10.35714 -21.4286,1.07143 -6.4286,-9.28572 -16.0714,-27.5 -18.5714,-27.14286 -2.5,0.35714 -13.9286,15.35714 -14.6429,20.35714 -0.7143,5 -6.0714,2.5 -6.0714,2.5 0,0 -6.4286,-2.5 0,-7.85714 9.0428,-16.74701 -0.5924,-11.01156 -14.7961,-15.633 -1.3818,-0.44962 0.1532,-4.72414 3.0104,-5.08128 2.8571,-0.35715 14.0996,-1.42497 15.3568,-6.8933 0.7896,-3.43429 -6.7854,-8.1067 -6.7854,-8.1067 0,0 -0.7143,-8.57143 3.5714,-5 4.2857,3.57142 8.2446,5.62834 15.5419,7.47415 5.3586,1.35541 0.8867,-10.3313 4.4582,-12.8313 3.5714,-2.5 6.7857,5 6.7857,5 0,0 -3.2143,14.64286 0.7142,16.78572 3.9286,2.14286 5,8.57143 5,8.57143 0,0 6.2419,12.15147 11.7857,11.78571 7.0327,-0.46399 7.5,-13.21428 12.8571,-16.78571 6.8078,-5.89638 6.6434,4.02445 14.2858,6.78571 z"
             id="path8583"
             inkscape:connector-curvature="0"
             sodipodi:nodetypes="csssssccssacssccscacc" />
          <path
             style="fill:#ffffff;stroke:none"
             d="m 3233.9286,572.71932 c 0,0 8.5714,-13.92857 20,-12.14285 11.4285,1.78571 17.8571,-5.35715 18.2143,8.21428 0.3571,13.57143 5.3571,15.35715 -6.7858,20.35715 -12.1428,5 -19.6428,4.64285 -24.2857,4.64285 -4.6428,0 -9.6428,1.42857 -12.8571,3.21429 -3.2143,1.78571 -4.2857,1.78571 -6.0714,2.85714 -1.7858,1.07143 -10.3572,5 -15.3572,16.78572 -5,11.78571 -7.1428,12.14285 -7.1428,10.71428 0,-1.42857 2.7918,-12.28378 -1.4025,-15.11314 -4.2319,-2.85478 -7.8883,4.12892 -14.669,4.39886 -1.4285,0 -3.0903,-0.21173 0,-4.28572 4.3549,-5.74117 10.614,-14.49457 -4.9401,-14.0215 -15.5541,0.47308 -11.8456,-2.76421 -8.9884,-4.54993 13.4884,-0.86541 16.6653,-3.89496 6.0714,-4.64285 -7.8572,-1.42858 -10,-5.71429 0.3571,-5.35715 12.5615,1.47747 26.3672,-1.86089 33.5715,-1.78571 6.0714,0 8.5714,-3.57143 13.9285,-5.71429 5.3572,-2.14285 10.3572,-3.57143 10.3572,-3.57143 z"
             id="path8585"
             inkscape:connector-curvature="0"
             sodipodi:nodetypes="cssssscssacszccccsc" />
          <path
             style="fill:#ffffff;stroke:none"
             d="m 3321.0714,601.29075 c 0,0 -17.1428,-3.92857 -16.0714,-13.57143 1.0714,-9.64285 -1.4286,-20.71428 9.6429,-24.28571 11.0714,-3.57143 15.3571,-4.28571 21.7857,-1.42857 6.4285,2.85714 10,14.28571 10,19.28571 0,5 4.2856,4.28572 4.2856,-1.78571 0,-6.07143 -0.3571,-23.57143 4.2858,-22.14286 1.6483,22.35285 8.3242,6.56003 17.8571,5.71429 -2.8467,8.52027 -3.865,9.15467 -1.2193,12.6557 5.9527,5.622 14.7008,-1.05718 13.3622,4.13001 -1.0412,4.03458 -10.0098,2.38011 -10.3571,6.42857 -0.3676,4.28482 1.822,6.01562 9.6428,8.57143 2.1429,0.71429 3.4458,5.3392 -8.9286,3.57143 -5,-0.71429 -9.2857,-3.92857 -20,-0.35714 -10.7142,3.57143 -17.1428,6.42857 -17.1428,6.42857 0,0 0.3571,-4.64286 -5,-5 -5.3572,-0.35714 -12.1429,1.78571 -12.1429,1.78571 z"
             id="path8587"
             inkscape:connector-curvature="0"
             sodipodi:nodetypes="cssssscccsacsscsc" />
        </g>
      </g>
    </clipPath>
  </defs>
  <sodipodi:namedview
     id="base"
     pagecolor="#ffffff"
     bordercolor="#666666"
     borderopacity="1.0"
     inkscape:pageopacity="0.0"
     inkscape:pageshadow="2"
     inkscape:zoom="0.35"
     inkscape:cx="375"
     inkscape:cy="520"
     inkscape:document-units="px"
     inkscape:current-layer="layer1"
     showgrid="false"
     inkscape:window-width="1301"
     inkscape:window-height="744"
     inkscape:window-x="65"
     inkscape:window-y="24"
     inkscape:window-maximized="1" />
  <metadata
     id="metadata8947">
    <rdf:RDF>
      <cc:Work
         rdf:about="">
        <dc:format>image/svg+xml</dc:format>
        <dc:type
           rdf:resource="http://purl.org/dc/dcmitype/StillImage" />
        <dc:title></dc:title>
      </cc:Work>
    </rdf:RDF>
  </metadata>
  <g
     inkscape:label="Layer 1"
     inkscape:groupmode="layer"
     id="layer1">
    <rect
       style="fill:#333333;fill-opacity:1;stroke:#000000;stroke-width:1.22551548"
       id="rect7415"
       width="949.77448"
       height="949.77448"
       x="-1620.6016"
       y="-628.62042" />
    <g
       id="g8693"
       transform="translate(-4922.7143,-2879.7204)">
      <rect
         clip-path="url(#clipPath8503)"
         y="2252.4749"
         x="3293.8628"
         height="949.77448"
         width="949.77448"
         id="rect7415-3"
         style="fill:#55d400;fill-opacity:1;stroke:none" />
      <path
         style="fill:#ffffff;fill-opacity:1;stroke:none"
         d="m 3584.028,3136.7109 c 0,29.1525 -23.6327,52.7853 -52.7852,52.7853 -29.1525,0 -52.7853,-23.6328 -52.7853,-52.7853 0,-29.1525 23.6328,-52.7852 52.7853,-52.7852 29.1525,0 52.7852,23.6327 52.7852,52.7852 z"
         id="path3896-12-9-4-0-6-8"
         inkscape:connector-curvature="0" />
      <path
         style="fill:#ffffff;fill-opacity:1;stroke:none"
         d="m 3809.6399,3126.9038 c 0,29.1525 -23.6327,52.7853 -52.7852,52.7853 -29.1525,0 -52.7853,-23.6328 -52.7853,-52.7853 0,-29.1525 23.6328,-52.7852 52.7853,-52.7852 29.1525,0 52.7852,23.6327 52.7852,52.7852 z"
         id="path3896-7-7-2-6-1-0-7"
         inkscape:connector-curvature="0" />
      <path
         style="fill:#ffffff;fill-opacity:1;stroke:none"
         d="m 4036.7095,3020.472 c 0,29.1525 -23.6327,52.7853 -52.7852,52.7853 -29.1525,0 -52.7853,-23.6328 -52.7853,-52.7853 0,-29.1525 23.6328,-52.7852 52.7853,-52.7852 29.1525,0 52.7852,23.6327 52.7852,52.7852 z"
         id="path3896-1-4-7-6-4-8-3"
         inkscape:connector-curvature="0" />
      <g
         transform="matrix(0.39795311,0.10673049,-0.10673049,0.39795311,2509.6524,2091.2978)"
         style="fill:#ffffff;stroke:none"
         id="g3261-0-5">
        <path
           style="fill:#ffffff;stroke:none"
           d="m 3198.5714,336.6479 c 0,0 -18.5714,24.28571 -15.7143,41.42857 2.8572,17.14286 25.7143,50 25.7143,50 1.3288,13.89088 3.3508,29.78734 3.5504,31.60189 4.2857,37.14285 49.7251,40.59173 49.7251,96.30601 0,55.71429 -6.1326,44.94924 -28.9898,74.94924 -22.8571,30 -26.6853,54.01654 -22.8571,80 5.9594,40.44816 38.3816,100.24775 141.4286,84.28572 71.5424,-11.08194 81.4285,-32.85715 81.4285,-32.85715 0,0 0.7293,5.90898 -39.8687,14.28572 -65.6722,13.5504 -153.277,-26.19054 -139.6113,-92.61204 5.2417,-25.4775 19.9282,-32.39667 41.082,-57.14286 42.001,-55.2481 32.3876,-97.13291 25.5409,-117.07107 -6.8467,-19.93815 -20.9211,-28.24272 -29.2634,-44.68322 -7.9839,-15.73428 -29.2862,-25.17935 -36.9709,-48.23339 -2.5822,-28.96011 -2.683,-42.90223 -15.1943,-58.82885 -9.3441,-11.89482 -30,-21.42857 -40,-21.42857 z"
           id="path3245-3-8"
           inkscape:connector-curvature="0"
           sodipodi:nodetypes="csccsssscssczscac" />
        <path
           style="fill:#ffffff;stroke:none"
           d="m 3281.5373,466.82287 c 23.8824,-13.32688 23.2015,-11.53014 33.7144,-28.35069 0,0 3.8311,-13.79224 -6.8961,-20.68835 -10.7274,-6.89612 -18.3775,-17.98929 -10.1776,-19.43476 3.6713,-0.64718 2.5151,-1.25359 8.6451,-1.25359 6.1299,0 9.4779,-1.67997 8.9815,-4.96996 -34.831,2.85741 -14.0759,-9.20037 -23.54,-19.54957 -5.3637,0 -1.0842,0.2092 -4.9155,8.63779 -9.408,15.52794 -18.4764,-1.11016 -24.2014,-4.80661 -3.8312,2.2987 -0.5393,8.33167 7.7669,17.33627 11.0553,7.83506 -8.8984,23.64281 -1.6371,27.10537 5.1919,2.03051 3.4673,-8.52155 8.0648,-14.65143 4.5974,-6.12988 12.6236,6.98907 12.6236,6.98907 2.0885,5.83451 6.4549,12.36455 5.0662,16.76328 -2.7638,8.75454 -14.7105,13.60454 -17.4855,19.49187 -4.4589,9.4597 1.2399,17.20058 3.9907,17.38131 z"
           id="path3247-00-4"
           inkscape:connector-curvature="0"
           sodipodi:nodetypes="ccsssccccccsccsc" />
        <path
           style="fill:#ffffff;stroke:none"
           d="m 3225.3572,463.79075 c 7.8571,3.21429 16.7857,4.64286 11.4286,10.71429 -5.3572,6.07142 -13.5715,10 -22.5,14.28571 -8.9286,4.28571 -15,10.35714 -21.4286,1.07143 -6.4286,-9.28572 -16.0714,-27.5 -18.5714,-27.14286 -2.5,0.35714 -13.9286,15.35714 -14.6429,20.35714 -0.7143,5 -6.0714,2.5 -6.0714,2.5 0,0 -6.4286,-2.5 0,-7.85714 9.0428,-16.74701 -0.5924,-11.01156 -14.7961,-15.633 -1.3818,-0.44962 0.1532,-4.72414 3.0104,-5.08128 2.8571,-0.35715 14.0996,-1.42497 15.3568,-6.8933 0.7896,-3.43429 -6.7854,-8.1067 -6.7854,-8.1067 0,0 -0.7143,-8.57143 3.5714,-5 4.2857,3.57142 8.2446,5.62834 15.5419,7.47415 5.3586,1.35541 0.8867,-10.3313 4.4582,-12.8313 3.5714,-2.5 6.7857,5 6.7857,5 0,0 -3.2143,14.64286 0.7142,16.78572 3.9286,2.14286 5,8.57143 5,8.57143 0,0 6.2419,12.15147 11.7857,11.78571 7.0327,-0.46399 7.5,-13.21428 12.8571,-16.78571 6.8078,-5.89638 6.6434,4.02445 14.2858,6.78571 z"
           id="path3249-8-6"
           inkscape:connector-curvature="0"
           sodipodi:nodetypes="csssssccssacssccscacc" />
        <path
           style="fill:#ffffff;stroke:none"
           d="m 3233.9286,572.71932 c 0,0 8.5714,-13.92857 20,-12.14285 11.4285,1.78571 17.8571,-5.35715 18.2143,8.21428 0.3571,13.57143 5.3571,15.35715 -6.7858,20.35715 -12.1428,5 -19.6428,4.64285 -24.2857,4.64285 -4.6428,0 -9.6428,1.42857 -12.8571,3.21429 -3.2143,1.78571 -4.2857,1.78571 -6.0714,2.85714 -1.7858,1.07143 -10.3572,5 -15.3572,16.78572 -5,11.78571 -7.1428,12.14285 -7.1428,10.71428 0,-1.42857 2.7918,-12.28378 -1.4025,-15.11314 -4.2319,-2.85478 -7.8883,4.12892 -14.669,4.39886 -1.4285,0 -3.0903,-0.21173 0,-4.28572 4.3549,-5.74117 10.614,-14.49457 -4.9401,-14.0215 -15.5541,0.47308 -11.8456,-2.76421 -8.9884,-4.54993 13.4884,-0.86541 16.6653,-3.89496 6.0714,-4.64285 -7.8572,-1.42858 -10,-5.71429 0.3571,-5.35715 12.5615,1.47747 26.3672,-1.86089 33.5715,-1.78571 6.0714,0 8.5714,-3.57143 13.9285,-5.71429 5.3572,-2.14285 10.3572,-3.57143 10.3572,-3.57143 z"
           id="path3257-66-4"
           inkscape:connector-curvature="0"
           sodipodi:nodetypes="cssssscssacszccccsc" />
        <path
           style="fill:#ffffff;stroke:none"
           d="m 3321.0714,601.29075 c 0,0 -17.1428,-3.92857 -16.0714,-13.57143 1.0714,-9.64285 -1.4286,-20.71428 9.6429,-24.28571 11.0714,-3.57143 15.3571,-4.28571 21.7857,-1.42857 6.4285,2.85714 10,14.28571 10,19.28571 0,5 4.2856,4.28572 4.2856,-1.78571 0,-6.07143 -0.3571,-23.57143 4.2858,-22.14286 1.6483,22.35285 8.3242,6.56003 17.8571,5.71429 -2.8467,8.52027 -3.865,9.15467 -1.2193,12.6557 5.9527,5.622 14.7008,-1.05718 13.3622,4.13001 -1.0412,4.03458 -10.0098,2.38011 -10.3571,6.42857 -0.3676,4.28482 1.822,6.01562 9.6428,8.57143 2.1429,0.71429 3.4458,5.3392 -8.9286,3.57143 -5,-0.71429 -9.2857,-3.92857 -20,-0.35714 -10.7142,3.57143 -17.1428,6.42857 -17.1428,6.42857 0,0 0.3571,-4.64286 -5,-5 -5.3572,-0.35714 -12.1429,1.78571 -12.1429,1.78571 z"
           id="path3259-8-5"
           inkscape:connector-curvature="0"
           sodipodi:nodetypes="cssssscccsacsscsc" />
      </g>
    </g>
  </g>
</svg>
