<?xml version="1.0" encoding="UTF-8" standalone="no"?>
<!-- Created with Inkscape (http://www.inkscape.org/) -->

<svg
   xmlns:dc="http://purl.org/dc/elements/1.1/"
   xmlns:cc="http://creativecommons.org/ns#"
   xmlns:rdf="http://www.w3.org/1999/02/22-rdf-syntax-ns#"
   xmlns:svg="http://www.w3.org/2000/svg"
   xmlns="http://www.w3.org/2000/svg"
   xmlns:sodipodi="http://sodipodi.sourceforge.net/DTD/sodipodi-0.dtd"
   xmlns:inkscape="http://www.inkscape.org/namespaces/inkscape"
   width="744.09448819"
   height="1052.3622047"
   id="svg2"
   version="1.1"
   inkscape:version="0.48.4 r9939"
   sodipodi:docname="logo_vars.svg">
  <defs
     id="defs4" />
  <sodipodi:namedview
     id="base"
     pagecolor="#ffffff"
     bordercolor="#666666"
     borderopacity="1.0"
     inkscape:pageopacity="0.0"
     inkscape:pageshadow="2"
     inkscape:zoom="0.24748737"
     inkscape:cx="1682.8279"
     inkscape:cy="311.45275"
     inkscape:document-units="px"
     inkscape:current-layer="layer1"
     showgrid="false"
     inkscape:window-width="1301"
     inkscape:window-height="744"
     inkscape:window-x="65"
     inkscape:window-y="24"
     inkscape:window-maximized="1" />
  <metadata
     id="metadata7">
    <rdf:RDF>
      <cc:Work
         rdf:about="">
        <dc:format>image/svg+xml</dc:format>
        <dc:type
           rdf:resource="http://purl.org/dc/dcmitype/StillImage" />
        <dc:title />
      </cc:Work>
    </rdf:RDF>
  </metadata>
  <g
     inkscape:label="Layer 1"
     inkscape:groupmode="layer"
     id="layer1">
    <rect
       style="opacity:0.96296297;fill:#ffffff;fill-opacity:1;stroke:#000000;stroke-width:0.98001534"
       id="rect3723"
       width="2024.3657"
       height="783.89838"
       x="929.33032"
       y="236.14894" />
    <rect
       style="fill:#55d400;fill-opacity:1;stroke:none"
       id="rect3855-0-5"
       width="27.637627"
       height="152.46553"
       x="1507.5673"
       y="-14.493402"
       rx="45.871086"
       ry="0"
       transform="matrix(0.8622694,0.50644988,-0.46018636,0.88782234,0,0)" />
    <rect
       style="fill:#55d400;fill-opacity:1;stroke:none"
       id="rect3855-5-7"
       width="27.637627"
       height="152.46553"
       x="124.57773"
       y="1440.7677"
       rx="45.871086"
       ry="0"
       transform="matrix(0.65563804,-0.75507533,0.78866003,0.61482954,0,0)" />
    <rect
       style="fill:#55d400;fill-opacity:1;stroke:none"
       id="rect2985-79"
       width="76.862839"
       height="228.10391"
       x="1080.9214"
       y="367.98257"
       ry="35.935444"
       rx="45.935448" />
    <path
       sodipodi:type="arc"
       style="fill:#55d400;fill-opacity:1;stroke:none"
       id="path3787-9"
       sodipodi:cx="570"
       sodipodi:cy="645.2193"
       sodipodi:rx="42.142857"
       sodipodi:ry="42.142857"
       d="m 612.14286,645.2193 a 42.142857,42.142857 0 1 1 -84.28572,0 42.142857,42.142857 0 1 1 84.28572,0 z"
       transform="matrix(0.95337995,0,0,0.95337995,569.24436,171.1212)" />
    <path
       sodipodi:type="arc"
       style="fill:#55d400;fill-opacity:1;stroke:none"
       id="path3787-3-9"
       sodipodi:cx="570"
       sodipodi:cy="645.2193"
       sodipodi:rx="42.142857"
       sodipodi:ry="42.142857"
       d="m 612.14286,645.2193 a 42.142857,42.142857 0 1 1 -84.28572,0 42.142857,42.142857 0 1 1 84.28572,0 z"
       transform="matrix(0.95337995,0,0,0.95337995,680.39322,166.31336)" />
    <path
       sodipodi:type="arc"
       style="fill:#55d400;fill-opacity:1;stroke:none"
       id="path3787-5-3"
       sodipodi:cx="570"
       sodipodi:cy="645.2193"
       sodipodi:rx="42.142857"
       sodipodi:ry="42.142857"
       d="m 612.14286,645.2193 a 42.142857,42.142857 0 1 1 -84.28572,0 42.142857,42.142857 0 1 1 84.28572,0 z"
       transform="matrix(0.95337995,0,0,0.95337995,791.03091,114.68099)" />
    <path
       sodipodi:type="arc"
       style="fill:#55d400;fill-opacity:1;stroke:none"
       id="path3787-53-7"
       sodipodi:cx="570"
       sodipodi:cy="645.2193"
       sodipodi:rx="42.142857"
       sodipodi:ry="42.142857"
       d="m 612.14286,645.2193 a 42.142857,42.142857 0 1 1 -84.28572,0 42.142857,42.142857 0 1 1 84.28572,0 z"
       transform="matrix(0.95337995,0,0,0.95337995,615.55139,273.26906)" />
    <path
       sodipodi:type="arc"
       style="fill:#55d400;fill-opacity:1;stroke:none"
       id="path3787-4-1"
       sodipodi:cx="570"
       sodipodi:cy="645.2193"
       sodipodi:rx="42.142857"
       sodipodi:ry="42.142857"
       d="m 612.14286,645.2193 a 42.142857,42.142857 0 1 1 -84.28572,0 42.142857,42.142857 0 1 1 84.28572,0 z"
       transform="matrix(0.95337995,0,0,0.95337995,697.46714,288.4269)" />
    <rect
       style="fill:#55d400;fill-opacity:1;stroke:none"
       id="rect3855-5"
       width="27.637627"
       height="152.46553"
       x="1341.8582"
       y="-390.98312"
       rx="45.871086"
       ry="0"
       transform="matrix(0.70852626,0.70568445,-0.66726537,0.74482006,0,0)" />
    <rect
       style="fill:#55d400;fill-opacity:1;stroke:none"
       id="rect3855-8-1"
       width="27.637627"
       height="152.46553"
       x="660.39966"
       y="1115.4706"
       rx="45.871086"
       ry="0"
       transform="matrix(0.92669399,-0.37581677,0.42425181,0.90554426,0,0)" />
    <rect
       style="fill:#55d400;fill-opacity:1;stroke:none"
       id="rect3855-6-6"
       width="27.637627"
       height="152.46553"
       x="-61.300922"
       y="1386.7201"
       rx="45.871086"
       ry="0"
       transform="matrix(0.49431547,-0.86928259,0.89418464,0.44769837,0,0)" />
    <rect
       style="fill:#55d400;fill-opacity:1;stroke:none"
       id="rect3855-89-9"
       width="27.637627"
       height="152.46553"
       x="1278.7064"
       y="431.8736"
       rx="45.871086"
       ry="0"
       transform="matrix(0.98898489,0.14801652,-0.09555887,0.99542378,0,0)" />
    <path
       sodipodi:type="arc"
       style="fill:#ffffff;fill-opacity:1;stroke:none"
       id="path3896-12"
       sodipodi:cx="-387.14285"
       sodipodi:cy="662.36218"
       sodipodi:rx="27.142857"
       sodipodi:ry="27.142857"
       d="m -360,662.36218 a 27.142857,27.142857 0 1 1 -54.28571,0 27.142857,27.142857 0 1 1 54.28571,0 z"
       transform="matrix(0.95337995,0,0,0.95337995,1481.4928,154.77754)" />
    <path
       sodipodi:type="arc"
       style="fill:#ffffff;fill-opacity:1;stroke:none"
       id="path3896-7-7"
       sodipodi:cx="-387.14285"
       sodipodi:cy="662.36218"
       sodipodi:rx="27.142857"
       sodipodi:ry="27.142857"
       d="m -360,662.36218 a 27.142857,27.142857 0 1 1 -54.28571,0 27.142857,27.142857 0 1 1 54.28571,0 z"
       transform="matrix(0.95337995,0,0,0.95337995,1592.0968,149.96969)" />
    <path
       sodipodi:type="arc"
       style="fill:#ffffff;fill-opacity:1;stroke:none"
       id="path3896-1-4"
       sodipodi:cx="-387.14285"
       sodipodi:cy="662.36218"
       sodipodi:rx="27.142857"
       sodipodi:ry="27.142857"
       d="m -360,662.36218 a 27.142857,27.142857 0 1 1 -54.28571,0 27.142857,27.142857 0 1 1 54.28571,0 z"
       transform="matrix(0.95337995,0,0,0.95337995,1703.4155,97.792527)" />
    <path
       sodipodi:type="arc"
       style="fill:#ffffff;fill-opacity:1;stroke:none"
       id="path3896-4-6"
       sodipodi:cx="-387.14285"
       sodipodi:cy="662.36218"
       sodipodi:rx="27.142857"
       sodipodi:ry="27.142857"
       d="m -360,662.36218 a 27.142857,27.142857 0 1 1 -54.28571,0 27.142857,27.142857 0 1 1 54.28571,0 z"
       transform="matrix(0.95337995,0,0,0.95337995,1526.7102,257.47018)" />
    <path
       sodipodi:type="arc"
       style="fill:#ffffff;fill-opacity:1;stroke:none"
       id="path3896-3-9"
       sodipodi:cx="-387.14285"
       sodipodi:cy="662.36218"
       sodipodi:rx="27.142857"
       sodipodi:ry="27.142857"
       d="m -360,662.36218 a 27.142857,27.142857 0 1 1 -54.28571,0 27.142857,27.142857 0 1 1 54.28571,0 z"
       transform="matrix(0.95337995,0,0,0.95337995,1609.8517,271.40224)" />
    <rect
       style="fill:#55d400;fill-opacity:1;stroke:none"
       id="rect2985-79-4"
       width="76.862839"
       height="284.39249"
       x="-597.24103"
       y="1089.1458"
       ry="35.935444"
       rx="45.935448"
       transform="matrix(0,-1,1,0,0,0)" />
    <rect
       style="fill:#55d400;fill-opacity:1;stroke:none"
       id="rect2985-79-7"
       width="76.862839"
       height="193.69434"
       x="1296.6754"
       y="402.0094"
       ry="35.935444"
       rx="45.935448" />
    <rect
       style="fill:#55d400;fill-opacity:1;stroke:none"
       id="rect2985-79-5"
       width="76.862839"
       height="245.96106"
       x="1190.2971"
       y="449.66434"
       ry="35.935444"
       rx="45.935448" />
    <path
       sodipodi:type="arc"
       style="fill:#55d400;fill-opacity:1;stroke:#00d400"
       id="path3787-4-1-7"
       sodipodi:cx="570"
       sodipodi:cy="645.2193"
       sodipodi:rx="42.142857"
       sodipodi:ry="42.142857"
       d="m 612.14286,645.2193 a 42.142857,42.142857 0 1 1 -84.28572,0 42.142857,42.142857 0 1 1 84.28572,0 z"
       transform="matrix(0.95337995,0,0,0.95337995,792.2805,250.48628)" />
    <path
       sodipodi:type="arc"
       style="fill:#ffffff;fill-opacity:1;stroke:none"
       id="path3896-3-9-5"
       sodipodi:cx="-387.14285"
       sodipodi:cy="662.36218"
       sodipodi:rx="27.142857"
       sodipodi:ry="27.142857"
       d="m -360,662.36218 a 27.142857,27.142857 0 1 1 -54.28571,0 27.142857,27.142857 0 1 1 54.28571,0 z"
       transform="matrix(0.95337995,0,0,0.95337995,1704.6651,233.46162)" />
    <path
       style="fill:#55d400;fill-opacity:1;stroke:none"
       d="m 1344.008,403.66246 c 0,5.66809 -4.1835,10.26299 -9.3439,10.26299 -5.1606,0 -9.344,-4.5949 -9.344,-10.26299 0,-5.6681 4.0257,-6.73988 9.344,-17.92195 5.0668,11.02889 9.3439,12.25385 9.3439,17.92195 z"
       id="path4099"
       inkscape:connector-curvature="0"
       sodipodi:nodetypes="ssscs" />
    <path
       style="fill:#55d400;fill-opacity:1;stroke:none"
       d="m 1368.515,423.78698 c -4.0508,3.96459 -10.2609,4.18867 -13.8704,0.50066 -3.6096,-3.68815 -3.2518,-9.89185 0.799,-13.85644 4.0509,-3.96458 7.6327,-1.83718 19.3441,-5.85769 -4.338,11.33534 -2.2218,15.24889 -6.2727,19.21347 z"
       id="path4099-4"
       inkscape:connector-curvature="0"
       sodipodi:nodetypes="ssscs" />
    <path
       style="fill:#55d400;fill-opacity:1;stroke:none"
       d="m 1311.7954,412.35206 c 4.5155,3.42598 5.6474,9.5361 2.5283,13.64717 -3.1192,4.11122 -9.3083,4.66664 -13.8239,1.24066 -4.5155,-3.42599 -2.9361,-7.28091 -8.6298,-18.27658 11.8488,2.62973 15.4099,-0.0372 19.9254,3.38875 z"
       id="path4099-8"
       inkscape:connector-curvature="0"
       sodipodi:nodetypes="ssscs" />
    <path
       style="fill:#55d400;fill-opacity:1;stroke:none"
       d="m 1371.4527,460.2009 c -5.6681,0 -10.263,-4.1835 -10.263,-9.3439 0,-5.1606 4.5949,-9.344 10.263,-9.344 5.6681,0 6.7398,4.0257 17.9219,9.344 -11.0289,5.0668 -12.2538,9.3439 -17.9219,9.3439 z"
       id="path4099-1"
       inkscape:connector-curvature="0"
       sodipodi:nodetypes="ssscs" />
    <path
       style="fill:#55d400;fill-opacity:1;stroke:none"
       d="m 1127.5828,371.30823 c 0,5.66809 -4.1835,10.26299 -9.3439,10.26299 -5.1606,0 -9.344,-4.5949 -9.344,-10.26299 0,-5.6681 4.0257,-6.73988 9.344,-17.92195 5.0668,11.02889 9.3439,12.25385 9.3439,17.92195 z"
       id="path4099-9"
       inkscape:connector-curvature="0"
       sodipodi:nodetypes="ssscs" />
    <path
       style="fill:#55d400;fill-opacity:1;stroke:none"
       d="m 1239.2047,452.12044 c 0,5.66809 -4.1835,10.26299 -9.3439,10.26299 -5.1606,0 -9.344,-4.5949 -9.344,-10.26299 0,-5.6681 4.0257,-6.73988 9.344,-17.92195 5.0668,11.02889 9.3439,12.25385 9.3439,17.92195 z"
       id="path4099-6"
       inkscape:connector-curvature="0"
       sodipodi:nodetypes="ssscs" />
    <path
       style="fill:#55d400;fill-opacity:1;stroke:none"
       d="m 1151.617,386.29961 c -3.4442,4.50158 -9.5589,5.60867 -13.6573,2.47289 -4.0985,-3.1359 -4.6288,-9.32725 -1.1845,-13.82882 3.4443,-4.50158 7.2928,-2.90652 18.3114,-8.55554 -2.6778,11.838 -0.025,15.40989 -3.4696,19.91147 z"
       id="path4099-2"
       inkscape:connector-curvature="0"
       sodipodi:nodetypes="ssscs" />
    <path
       style="fill:#55d400;fill-opacity:1;stroke:none"
       d="m 1098.2201,375.10344 c 4.0477,3.96776 4.4005,10.17181 0.7882,13.85699 -3.6125,3.68533 -9.8223,3.4563 -13.87,-0.51146 -4.0478,-3.96776 -1.9951,-7.59288 -6.2576,-19.21845 11.4228,4.10206 15.2916,1.90516 19.3394,5.87292 z"
       id="path4099-0"
       inkscape:connector-curvature="0"
       sodipodi:nodetypes="ssscs" />
    <path
       style="fill:#55d400;fill-opacity:1;stroke:none"
       d="m 1211.5578,455.34507 c 2.9203,4.85785 1.7023,10.95138 -2.7205,13.61016 -4.4229,2.65888 -10.3757,0.8762 -13.2961,-3.98165 -2.9203,-4.85787 -0.022,-7.85059 -1.2255,-20.17436 10.0249,6.8418 14.3217,5.68798 17.2421,10.54585 z"
       id="path4099-18"
       inkscape:connector-curvature="0"
       sodipodi:nodetypes="ssscs" />
    <path
       style="fill:#55d400;fill-opacity:1;stroke:none"
       d="m 1082.6521,407.63228 c 5.6681,0 10.263,4.1835 10.263,9.3439 0,5.1606 -4.5949,9.344 -10.263,9.344 -5.6681,0 -6.7399,-4.0257 -17.922,-9.344 11.0289,-5.0668 12.2539,-9.3439 17.922,-9.3439 z"
       id="path4099-92"
       inkscape:connector-curvature="0"
       sodipodi:nodetypes="ssscs" />
    <path
       style="fill:#55d400;fill-opacity:1;stroke:none"
       d="m 1082.6724,438.94701 c 5.6681,0 10.263,4.1835 10.263,9.3439 0,5.1606 -4.5949,9.344 -10.263,9.344 -5.6681,0 -6.7399,-4.0257 -17.922,-9.344 11.0289,-5.0668 12.2539,-9.3439 17.922,-9.3439 z"
       id="path4099-183"
       inkscape:connector-curvature="0"
       sodipodi:nodetypes="ssscs" />
    <path
       style="fill:#55d400;fill-opacity:1;stroke:none"
       d="m 1192.274,478.34295 c 5.6681,0 10.263,4.1835 10.263,9.3439 0,5.1606 -4.5949,9.344 -10.263,9.344 -5.6681,0 -6.7399,-4.0257 -17.922,-9.344 11.0289,-5.0668 12.2539,-9.3439 17.922,-9.3439 z"
       id="path4099-99"
       inkscape:connector-curvature="0"
       sodipodi:nodetypes="ssscs" />
    <rect
       style="fill:#55d400;fill-opacity:1;stroke:none"
       id="rect3855-0-5-9"
       width="27.637627"
       height="152.46553"
       x="1912.7213"
       y="-236.50581"
       rx="45.871086"
       ry="0"
       transform="matrix(0.8622694,0.50644988,-0.46018636,0.88782234,0,0)" />
    <rect
       style="fill:#55d400;fill-opacity:1;stroke:none"
       id="rect3855-5-7-4"
       width="27.637627"
       height="152.46553"
       x="396.18988"
       y="1787.4822"
       rx="45.871086"
       ry="0"
       transform="matrix(0.65563804,-0.75507533,0.78866003,0.61482954,0,0)" />
    <rect
       style="fill:#55d400;fill-opacity:1;stroke:none"
       id="rect2985-79-1"
       width="76.862839"
       height="228.10391"
       x="1532.4404"
       y="327.4938"
       ry="35.935444"
       rx="45.935448" />
    <path
       sodipodi:type="arc"
       style="fill:#55d400;fill-opacity:1;stroke:none"
       id="path3787-9-0"
       sodipodi:cx="570"
       sodipodi:cy="645.2193"
       sodipodi:rx="42.142857"
       sodipodi:ry="42.142857"
       d="m 612.14286,645.2193 a 42.142857,42.142857 0 1 1 -84.28572,0 42.142857,42.142857 0 1 1 84.28572,0 z"
       transform="matrix(0.95337995,0,0,0.95337995,1020.7634,179.20386)" />
    <path
       sodipodi:type="arc"
       style="fill:#55d400;fill-opacity:1;stroke:none"
       id="path3787-3-9-6"
       sodipodi:cx="570"
       sodipodi:cy="645.2193"
       sodipodi:rx="42.142857"
       sodipodi:ry="42.142857"
       d="m 612.14286,645.2193 a 42.142857,42.142857 0 1 1 -84.28572,0 42.142857,42.142857 0 1 1 84.28572,0 z"
       transform="matrix(0.95337995,0,0,0.95337995,1131.9123,174.39602)" />
    <path
       sodipodi:type="arc"
       style="fill:#55d400;fill-opacity:1;stroke:none"
       id="path3787-5-3-8"
       sodipodi:cx="570"
       sodipodi:cy="645.2193"
       sodipodi:rx="42.142857"
       sodipodi:ry="42.142857"
       d="m 612.14286,645.2193 a 42.142857,42.142857 0 1 1 -84.28572,0 42.142857,42.142857 0 1 1 84.28572,0 z"
       transform="matrix(0.95337995,0,0,0.95337995,1242.55,122.76365)" />
    <path
       sodipodi:type="arc"
       style="fill:#55d400;fill-opacity:1;stroke:none"
       id="path3787-53-7-7"
       sodipodi:cx="570"
       sodipodi:cy="645.2193"
       sodipodi:rx="42.142857"
       sodipodi:ry="42.142857"
       d="m 612.14286,645.2193 a 42.142857,42.142857 0 1 1 -84.28572,0 42.142857,42.142857 0 1 1 84.28572,0 z"
       transform="matrix(0.95337995,0,0,0.95337995,1067.0705,281.35172)" />
    <path
       sodipodi:type="arc"
       style="fill:#55d400;fill-opacity:1;stroke:none"
       id="path3787-4-1-5"
       sodipodi:cx="570"
       sodipodi:cy="645.2193"
       sodipodi:rx="42.142857"
       sodipodi:ry="42.142857"
       d="m 612.14286,645.2193 a 42.142857,42.142857 0 1 1 -84.28572,0 42.142857,42.142857 0 1 1 84.28572,0 z"
       transform="matrix(0.95337995,0,0,0.95337995,1148.9862,296.50956)" />
    <rect
       style="fill:#55d400;fill-opacity:1;stroke:none"
       id="rect3855-5-71"
       width="27.637627"
       height="152.46553"
       x="1684.0297"
       y="-704.32397"
       rx="45.871086"
       ry="0"
       transform="matrix(0.70852626,0.70568445,-0.66726537,0.74482006,0,0)" />
    <rect
       style="fill:#55d400;fill-opacity:1;stroke:none"
       id="rect3855-8-1-4"
       width="27.637627"
       height="152.46553"
       x="1066.4081"
       y="1292.8969"
       rx="45.871086"
       ry="0"
       transform="matrix(0.92669399,-0.37581677,0.42425181,0.90554426,0,0)" />
    <rect
       style="fill:#55d400;fill-opacity:1;stroke:none"
       id="rect3855-6-6-5"
       width="27.637627"
       height="152.46553"
       x="133.88866"
       y="1783.7677"
       rx="45.871086"
       ry="0"
       transform="matrix(0.49431547,-0.86928259,0.89418464,0.44769837,0,0)" />
    <rect
       style="fill:#55d400;fill-opacity:1;stroke:none"
       id="rect3855-89-9-0"
       width="27.637627"
       height="152.46553"
       x="1729.5613"
       y="372.95264"
       rx="45.871086"
       ry="0"
       transform="matrix(0.98898489,0.14801652,-0.09555887,0.99542378,0,0)" />
    <path
       sodipodi:type="arc"
       style="fill:#ffffff;fill-opacity:1;stroke:none"
       id="path3896-12-9"
       sodipodi:cx="-387.14285"
       sodipodi:cy="662.36218"
       sodipodi:rx="27.142857"
       sodipodi:ry="27.142857"
       d="m -360,662.36218 a 27.142857,27.142857 0 1 1 -54.28571,0 27.142857,27.142857 0 1 1 54.28571,0 z"
       transform="matrix(0.95337995,0,0,0.95337995,1933.0119,162.8602)" />
    <path
       sodipodi:type="arc"
       style="fill:#ffffff;fill-opacity:1;stroke:none"
       id="path3896-7-7-2"
       sodipodi:cx="-387.14285"
       sodipodi:cy="662.36218"
       sodipodi:rx="27.142857"
       sodipodi:ry="27.142857"
       d="m -360,662.36218 a 27.142857,27.142857 0 1 1 -54.28571,0 27.142857,27.142857 0 1 1 54.28571,0 z"
       transform="matrix(0.95337995,0,0,0.95337995,2043.6159,158.05235)" />
    <path
       sodipodi:type="arc"
       style="fill:#ffffff;fill-opacity:1;stroke:none"
       id="path3896-1-4-7"
       sodipodi:cx="-387.14285"
       sodipodi:cy="662.36218"
       sodipodi:rx="27.142857"
       sodipodi:ry="27.142857"
       d="m -360,662.36218 a 27.142857,27.142857 0 1 1 -54.28571,0 27.142857,27.142857 0 1 1 54.28571,0 z"
       transform="matrix(0.95337995,0,0,0.95337995,2154.9346,105.87519)" />
    <path
       sodipodi:type="arc"
       style="fill:#ffffff;fill-opacity:1;stroke:none"
       id="path3896-4-6-9"
       sodipodi:cx="-387.14285"
       sodipodi:cy="662.36218"
       sodipodi:rx="27.142857"
       sodipodi:ry="27.142857"
       d="m -360,662.36218 a 27.142857,27.142857 0 1 1 -54.28571,0 27.142857,27.142857 0 1 1 54.28571,0 z"
       transform="matrix(0.95337995,0,0,0.95337995,1978.2293,265.55284)" />
    <path
       sodipodi:type="arc"
       style="fill:#ffffff;fill-opacity:1;stroke:none"
       id="path3896-3-9-56"
       sodipodi:cx="-387.14285"
       sodipodi:cy="662.36218"
       sodipodi:rx="27.142857"
       sodipodi:ry="27.142857"
       d="m -360,662.36218 a 27.142857,27.142857 0 1 1 -54.28571,0 27.142857,27.142857 0 1 1 54.28571,0 z"
       transform="matrix(0.95337995,0,0,0.95337995,2061.3708,279.4849)" />
    <rect
       style="fill:#55d400;fill-opacity:1;stroke:none"
       id="rect2985-79-4-5"
       width="76.862839"
       height="172.96391"
       x="-556.7522"
       y="1540.6648"
       ry="35.935444"
       rx="45.935448"
       transform="matrix(0,-1,1,0,0,0)" />
    <rect
       style="fill:#55d400;fill-opacity:1;stroke:none"
       id="rect2985-79-7-0"
       width="76.862839"
       height="209.40862"
       x="1748.1945"
       y="379.80634"
       ry="35.935444"
       rx="45.935448" />
    <rect
       style="fill:#55d400;fill-opacity:1;stroke:none"
       id="rect2985-79-5-8"
       width="76.862839"
       height="295.96106"
       x="1641.8162"
       y="409.17557"
       ry="35.935444"
       rx="45.935448" />
    <path
       sodipodi:type="arc"
       style="fill:#55d400;fill-opacity:1;stroke:#00d400;stroke-width:1"
       id="path3787-4-1-7-8"
       sodipodi:cx="570"
       sodipodi:cy="645.2193"
       sodipodi:rx="42.142857"
       sodipodi:ry="42.142857"
       d="m 612.14286,645.2193 a 42.142857,42.142857 0 1 1 -84.28572,0 42.142857,42.142857 0 1 1 84.28572,0 z"
       transform="matrix(0.95337995,0,0,0.95337995,1243.7996,258.56894)" />
    <path
       sodipodi:type="arc"
       style="fill:#ffffff;fill-opacity:1;stroke:none"
       id="path3896-3-9-5-8"
       sodipodi:cx="-387.14285"
       sodipodi:cy="662.36218"
       sodipodi:rx="27.142857"
       sodipodi:ry="27.142857"
       d="m -360,662.36218 a 27.142857,27.142857 0 1 1 -54.28571,0 27.142857,27.142857 0 1 1 54.28571,0 z"
       transform="matrix(0.95337995,0,0,0.95337995,2156.1842,241.54428)" />
    <path
       style="fill:#55d400;fill-opacity:1;stroke:none"
       d="m 1795.527,381.4594 c 0,5.66809 -4.1835,10.26299 -9.3439,10.26299 -5.1606,0 -9.344,-4.5949 -9.344,-10.26299 0,-5.6681 4.0257,-6.73988 9.344,-17.92195 5.0668,11.02889 9.3439,12.25385 9.3439,17.92195 z"
       id="path4099-90"
       inkscape:connector-curvature="0"
       sodipodi:nodetypes="ssscs" />
    <path
       style="fill:#55d400;fill-opacity:1;stroke:none"
       d="m 1820.034,401.58392 c -4.0508,3.96459 -10.2609,4.18867 -13.8704,0.50066 -3.6096,-3.68815 -3.2518,-9.89185 0.799,-13.85644 4.0509,-3.96458 7.6327,-1.83718 19.3441,-5.85769 -4.338,11.33534 -2.2218,15.24889 -6.2727,19.21347 z"
       id="path4099-4-2"
       inkscape:connector-curvature="0"
       sodipodi:nodetypes="ssscs" />
    <path
       style="fill:#55d400;fill-opacity:1;stroke:none"
       d="m 1763.3144,390.149 c 4.5155,3.42598 5.6474,9.5361 2.5283,13.64717 -3.1192,4.11122 -9.3083,4.66664 -13.8239,1.24066 -4.5155,-3.42599 -2.9361,-7.28091 -8.6298,-18.27658 11.8488,2.62973 15.4099,-0.0372 19.9254,3.38875 z"
       id="path4099-8-7"
       inkscape:connector-curvature="0"
       sodipodi:nodetypes="ssscs" />
    <path
       style="fill:#55d400;fill-opacity:1;stroke:none"
       d="m 1822.9717,437.99784 c -5.6681,0 -10.263,-4.1835 -10.263,-9.3439 0,-5.1606 4.5949,-9.344 10.263,-9.344 5.6681,0 6.7398,4.0257 17.9219,9.344 -11.0289,5.0668 -12.2538,9.3439 -17.9219,9.3439 z"
       id="path4099-1-5"
       inkscape:connector-curvature="0"
       sodipodi:nodetypes="ssscs" />
    <path
       style="fill:#55d400;fill-opacity:1;stroke:none"
       d="m 1579.1019,330.81946 c 0,5.66809 -4.1835,10.26299 -9.3439,10.26299 -5.1606,0 -9.344,-4.5949 -9.344,-10.26299 0,-5.6681 4.0257,-6.73988 9.344,-17.92195 5.0668,11.02889 9.3439,12.25385 9.3439,17.92195 z"
       id="path4099-9-1"
       inkscape:connector-curvature="0"
       sodipodi:nodetypes="ssscs" />
    <path
       style="fill:#55d400;fill-opacity:1;stroke:none"
       d="m 1690.7237,411.63167 c 0,5.66809 -4.1835,10.26299 -9.3439,10.26299 -5.1606,0 -9.344,-4.5949 -9.344,-10.26299 0,-5.6681 4.0257,-6.73988 9.344,-17.92195 5.0668,11.02889 9.3439,12.25385 9.3439,17.92195 z"
       id="path4099-6-9"
       inkscape:connector-curvature="0"
       sodipodi:nodetypes="ssscs" />
    <path
       style="fill:#55d400;fill-opacity:1;stroke:none"
       d="m 1603.136,345.81084 c -3.4442,4.50158 -9.5589,5.60867 -13.6572,2.47289 -4.0985,-3.1359 -4.6288,-9.32725 -1.1845,-13.82882 3.4442,-4.50158 7.2927,-2.90652 18.3113,-8.55554 -2.6778,11.838 -0.025,15.40989 -3.4696,19.91147 z"
       id="path4099-2-6"
       inkscape:connector-curvature="0"
       sodipodi:nodetypes="ssscs" />
    <path
       style="fill:#55d400;fill-opacity:1;stroke:none"
       d="m 1549.7392,334.61467 c 4.0477,3.96776 4.4005,10.17181 0.7882,13.85699 -3.6125,3.68533 -9.8223,3.4563 -13.8701,-0.51146 -4.0477,-3.96776 -1.995,-7.59288 -6.2576,-19.21845 11.4229,4.10206 15.2917,1.90516 19.3395,5.87292 z"
       id="path4099-0-7"
       inkscape:connector-curvature="0"
       sodipodi:nodetypes="ssscs" />
    <path
       style="fill:#55d400;fill-opacity:1;stroke:none"
       d="m 1663.0768,414.8563 c 2.9203,4.85785 1.7023,10.95138 -2.7205,13.61016 -4.4229,2.65888 -10.3757,0.8762 -13.2961,-3.98165 -2.9203,-4.85787 -0.022,-7.85059 -1.2255,-20.17436 10.0249,6.8418 14.3217,5.68798 17.2421,10.54585 z"
       id="path4099-18-0"
       inkscape:connector-curvature="0"
       sodipodi:nodetypes="ssscs" />
    <path
       style="fill:#55d400;fill-opacity:1;stroke:none"
       d="m 1534.1712,367.14351 c 5.6681,0 10.263,4.1835 10.263,9.3439 0,5.1606 -4.5949,9.344 -10.263,9.344 -5.6681,0 -6.7399,-4.0257 -17.922,-9.344 11.0289,-5.0668 12.2539,-9.3439 17.922,-9.3439 z"
       id="path4099-92-9"
       inkscape:connector-curvature="0"
       sodipodi:nodetypes="ssscs" />
    <path
       style="fill:#55d400;fill-opacity:1;stroke:none"
       d="m 1534.1915,398.45824 c 5.6681,0 10.263,4.1835 10.263,9.3439 0,5.1606 -4.5949,9.344 -10.263,9.344 -5.6681,0 -6.7399,-4.0257 -17.922,-9.344 11.0289,-5.0668 12.2539,-9.3439 17.922,-9.3439 z"
       id="path4099-183-5"
       inkscape:connector-curvature="0"
       sodipodi:nodetypes="ssscs" />
    <path
       style="fill:#55d400;fill-opacity:1;stroke:none"
       d="m 1643.793,437.85418 c 5.6681,0 10.263,4.1835 10.263,9.3439 0,5.1606 -4.5949,9.344 -10.263,9.344 -5.6681,0 -6.7399,-4.0257 -17.922,-9.344 11.0289,-5.0668 12.2539,-9.3439 17.922,-9.3439 z"
       id="path4099-99-0"
       inkscape:connector-curvature="0"
       sodipodi:nodetypes="ssscs" />
    <rect
       style="fill:#55d400;fill-opacity:1;stroke:none"
       id="rect2985-79-4-5-6"
       width="76.862839"
       height="137.24963"
       x="-589.36505"
       y="1676.3751"
       ry="35.935444"
       rx="45.935448"
       transform="matrix(0,-1,1,0,0,0)" />
    <rect
       style="fill:#55d400;fill-opacity:1;stroke:none"
       id="rect3855-0-5-9-2"
       width="27.637627"
       height="152.46553"
       x="2376.5842"
       y="-481.8031"
       rx="45.871086"
       ry="0"
       transform="matrix(0.8622694,0.50644988,-0.46018636,0.88782234,0,0)" />
    <rect
       style="fill:#55d400;fill-opacity:1;stroke:none"
       id="rect3855-5-7-4-9"
       width="27.637627"
       height="152.46553"
       x="698.41187"
       y="2186.5249"
       rx="45.871086"
       ry="0"
       transform="matrix(0.65563804,-0.75507533,0.78866003,0.61482954,0,0)" />
    <rect
       style="fill:#55d400;fill-opacity:1;stroke:none"
       id="rect2985-79-1-9"
       width="76.862839"
       height="202.38963"
       x="2046.4404"
       y="370.92236"
       ry="35.935444"
       rx="45.935448" />
    <path
       sodipodi:type="arc"
       style="fill:#55d400;fill-opacity:1;stroke:none"
       id="path3787-9-0-6"
       sodipodi:cx="570"
       sodipodi:cy="645.2193"
       sodipodi:rx="42.142857"
       sodipodi:ry="42.142857"
       d="m 612.14286,645.2193 a 42.142857,42.142857 0 1 1 -84.28572,0 42.142857,42.142857 0 1 1 84.28572,0 z"
       transform="matrix(0.95337995,0,0,0.95337995,1533.6205,196.34671)" />
    <path
       sodipodi:type="arc"
       style="fill:#55d400;fill-opacity:1;stroke:none"
       id="path3787-3-9-6-4"
       sodipodi:cx="570"
       sodipodi:cy="645.2193"
       sodipodi:rx="42.142857"
       sodipodi:ry="42.142857"
       d="m 612.14286,645.2193 a 42.142857,42.142857 0 1 1 -84.28572,0 42.142857,42.142857 0 1 1 84.28572,0 z"
       transform="matrix(0.95337995,0,0,0.95337995,1644.7695,191.53887)" />
    <path
       sodipodi:type="arc"
       style="fill:#55d400;fill-opacity:1;stroke:none"
       id="path3787-5-3-8-0"
       sodipodi:cx="570"
       sodipodi:cy="645.2193"
       sodipodi:rx="42.142857"
       sodipodi:ry="42.142857"
       d="m 612.14286,645.2193 a 42.142857,42.142857 0 1 1 -84.28572,0 42.142857,42.142857 0 1 1 84.28572,0 z"
       transform="matrix(0.95337995,0,0,0.95337995,1755.4072,139.9065)" />
    <path
       sodipodi:type="arc"
       style="fill:#55d400;fill-opacity:1;stroke:none"
       id="path3787-53-7-7-7"
       sodipodi:cx="570"
       sodipodi:cy="645.2193"
       sodipodi:rx="42.142857"
       sodipodi:ry="42.142857"
       d="m 612.14286,645.2193 a 42.142857,42.142857 0 1 1 -84.28572,0 42.142857,42.142857 0 1 1 84.28572,0 z"
       transform="matrix(0.95337995,0,0,0.95337995,1579.9276,298.49457)" />
    <path
       sodipodi:type="arc"
       style="fill:#55d400;fill-opacity:1;stroke:none"
       id="path3787-4-1-5-8"
       sodipodi:cx="570"
       sodipodi:cy="645.2193"
       sodipodi:rx="42.142857"
       sodipodi:ry="42.142857"
       d="m 612.14286,645.2193 a 42.142857,42.142857 0 1 1 -84.28572,0 42.142857,42.142857 0 1 1 84.28572,0 z"
       transform="matrix(0.95337995,0,0,0.95337995,1661.8434,313.65241)" />
    <rect
       style="fill:#55d400;fill-opacity:1;stroke:none"
       id="rect3855-5-71-7"
       width="27.637627"
       height="152.46553"
       x="2078.0051"
       y="-1054.5823"
       rx="45.871086"
       ry="0"
       transform="matrix(0.70852626,0.70568445,-0.66726537,0.74482006,0,0)" />
    <rect
       style="fill:#55d400;fill-opacity:1;stroke:none"
       id="rect3855-8-1-4-7"
       width="27.637627"
       height="152.46553"
       x="1524.1895"
       y="1501.8152"
       rx="45.871086"
       ry="0"
       transform="matrix(0.92669399,-0.37581677,0.42425181,0.90554426,0,0)" />
    <rect
       style="fill:#55d400;fill-opacity:1;stroke:none"
       id="rect3855-6-6-5-6"
       width="27.637627"
       height="152.46553"
       x="348.46478"
       y="2238.6948"
       rx="45.871086"
       ry="0"
       transform="matrix(0.49431547,-0.86928259,0.89418464,0.44769837,0,0)" />
    <rect
       style="fill:#55d400;fill-opacity:1;stroke:none"
       id="rect3855-89-9-0-5"
       width="27.637627"
       height="152.46553"
       x="2242.426"
       y="313.91287"
       rx="45.871086"
       ry="0"
       transform="matrix(0.98898489,0.14801652,-0.09555887,0.99542378,0,0)" />
    <path
       sodipodi:type="arc"
       style="fill:#ffffff;fill-opacity:1;stroke:none"
       id="path3896-12-9-4"
       sodipodi:cx="-387.14285"
       sodipodi:cy="662.36218"
       sodipodi:rx="27.142857"
       sodipodi:ry="27.142857"
       d="m -360,662.36218 a 27.142857,27.142857 0 1 1 -54.28571,0 27.142857,27.142857 0 1 1 54.28571,0 z"
       transform="matrix(0.95337995,0,0,0.95337995,2445.8691,180.00305)" />
    <path
       sodipodi:type="arc"
       style="fill:#ffffff;fill-opacity:1;stroke:none"
       id="path3896-7-7-2-6"
       sodipodi:cx="-387.14285"
       sodipodi:cy="662.36218"
       sodipodi:rx="27.142857"
       sodipodi:ry="27.142857"
       d="m -360,662.36218 a 27.142857,27.142857 0 1 1 -54.28571,0 27.142857,27.142857 0 1 1 54.28571,0 z"
       transform="matrix(0.95337995,0,0,0.95337995,2556.4731,175.1952)" />
    <path
       sodipodi:type="arc"
       style="fill:#ffffff;fill-opacity:1;stroke:none"
       id="path3896-1-4-7-6"
       sodipodi:cx="-387.14285"
       sodipodi:cy="662.36218"
       sodipodi:rx="27.142857"
       sodipodi:ry="27.142857"
       d="m -360,662.36218 a 27.142857,27.142857 0 1 1 -54.28571,0 27.142857,27.142857 0 1 1 54.28571,0 z"
       transform="matrix(0.95337995,0,0,0.95337995,2667.7918,123.01804)" />
    <path
       sodipodi:type="arc"
       style="fill:#ffffff;fill-opacity:1;stroke:none"
       id="path3896-4-6-9-5"
       sodipodi:cx="-387.14285"
       sodipodi:cy="662.36218"
       sodipodi:rx="27.142857"
       sodipodi:ry="27.142857"
       d="m -360,662.36218 a 27.142857,27.142857 0 1 1 -54.28571,0 27.142857,27.142857 0 1 1 54.28571,0 z"
       transform="matrix(0.95337995,0,0,0.95337995,2491.0865,282.69569)" />
    <path
       sodipodi:type="arc"
       style="fill:#ffffff;fill-opacity:1;stroke:none"
       id="path3896-3-9-56-4"
       sodipodi:cx="-387.14285"
       sodipodi:cy="662.36218"
       sodipodi:rx="27.142857"
       sodipodi:ry="27.142857"
       d="m -360,662.36218 a 27.142857,27.142857 0 1 1 -54.28571,0 27.142857,27.142857 0 1 1 54.28571,0 z"
       transform="matrix(0.95337995,0,0,0.95337995,2574.228,296.62775)" />
    <rect
       style="fill:#55d400;fill-opacity:1;stroke:none"
       id="rect2985-79-4-5-5"
       width="76.862839"
       height="172.96391"
       x="-573.89508"
       y="2053.522"
       ry="35.935444"
       rx="45.935448"
       transform="matrix(0,-1,1,0,0,0)" />
    <rect
       style="fill:#55d400;fill-opacity:1;stroke:none"
       id="rect2985-79-7-0-7"
       width="76.862839"
       height="209.40862"
       x="2261.0515"
       y="396.94919"
       ry="35.935444"
       rx="45.935448" />
    <rect
       style="fill:#55d400;fill-opacity:1;stroke:none"
       id="rect2985-79-5-8-8"
       width="76.862839"
       height="295.96106"
       x="2154.6733"
       y="426.31842"
       ry="35.935444"
       rx="45.935448" />
    <path
       sodipodi:type="arc"
       style="fill:#55d400;fill-opacity:1;stroke:#00d400;stroke-width:1"
       id="path3787-4-1-7-8-5"
       sodipodi:cx="570"
       sodipodi:cy="645.2193"
       sodipodi:rx="42.142857"
       sodipodi:ry="42.142857"
       d="m 612.14286,645.2193 a 42.142857,42.142857 0 1 1 -84.28572,0 42.142857,42.142857 0 1 1 84.28572,0 z"
       transform="matrix(0.95337995,0,0,0.95337995,1756.6568,275.71179)" />
    <path
       sodipodi:type="arc"
       style="fill:#ffffff;fill-opacity:1;stroke:none"
       id="path3896-3-9-5-8-3"
       sodipodi:cx="-387.14285"
       sodipodi:cy="662.36218"
       sodipodi:rx="27.142857"
       sodipodi:ry="27.142857"
       d="m -360,662.36218 a 27.142857,27.142857 0 1 1 -54.28571,0 27.142857,27.142857 0 1 1 54.28571,0 z"
       transform="matrix(0.95337995,0,0,0.95337995,2669.0414,258.68713)" />
    <path
       style="fill:#55d400;fill-opacity:1;stroke:none"
       d="m 2308.3842,398.60225 c 0,5.66809 -4.1835,10.26299 -9.3439,10.26299 -5.1606,0 -9.344,-4.5949 -9.344,-10.26299 0,-5.6681 4.0257,-6.73988 9.344,-17.92195 5.0668,11.02889 9.3439,12.25385 9.3439,17.92195 z"
       id="path4099-90-1"
       inkscape:connector-curvature="0"
       sodipodi:nodetypes="ssscs" />
    <path
       style="fill:#55d400;fill-opacity:1;stroke:none"
       d="m 2332.8912,418.72677 c -4.0508,3.96459 -10.2609,4.18867 -13.8704,0.50066 -3.6096,-3.68815 -3.2518,-9.89185 0.799,-13.85644 4.0509,-3.96458 7.6327,-1.83718 19.3441,-5.85769 -4.338,11.33534 -2.2218,15.24889 -6.2727,19.21347 z"
       id="path4099-4-2-4"
       inkscape:connector-curvature="0"
       sodipodi:nodetypes="ssscs" />
    <path
       style="fill:#55d400;fill-opacity:1;stroke:none"
       d="m 2276.1716,407.29185 c 4.5155,3.42598 5.6474,9.5361 2.5283,13.64717 -3.1192,4.11122 -9.3083,4.66664 -13.8239,1.24066 -4.5155,-3.42599 -2.9361,-7.28091 -8.6298,-18.27658 11.8488,2.62973 15.4099,-0.0372 19.9254,3.38875 z"
       id="path4099-8-7-9"
       inkscape:connector-curvature="0"
       sodipodi:nodetypes="ssscs" />
    <path
       style="fill:#55d400;fill-opacity:1;stroke:none"
       d="m 2335.8289,455.14069 c -5.6681,0 -10.263,-4.1835 -10.263,-9.3439 0,-5.1606 4.5949,-9.344 10.263,-9.344 5.6681,0 6.7398,4.0257 17.9219,9.344 -11.0289,5.0668 -12.2538,9.3439 -17.9219,9.3439 z"
       id="path4099-1-5-8"
       inkscape:connector-curvature="0"
       sodipodi:nodetypes="ssscs" />
    <path
       style="fill:#55d400;fill-opacity:1;stroke:none"
       d="m 2093.102,374.24802 c 0,5.66809 -4.1835,10.26299 -9.3439,10.26299 -5.1606,0 -9.344,-4.5949 -9.344,-10.26299 0,-5.6681 4.0257,-6.73988 9.344,-17.92195 5.0668,11.02889 9.3439,12.25385 9.3439,17.92195 z"
       id="path4099-9-1-6"
       inkscape:connector-curvature="0"
       sodipodi:nodetypes="ssscs" />
    <path
       style="fill:#55d400;fill-opacity:1;stroke:none"
       d="m 2203.5809,428.77452 c 0,5.66809 -4.1835,10.26299 -9.3439,10.26299 -5.1606,0 -9.344,-4.5949 -9.344,-10.26299 0,-5.6681 4.0257,-6.73988 9.344,-17.92195 5.0668,11.02889 9.3439,12.25385 9.3439,17.92195 z"
       id="path4099-6-9-8"
       inkscape:connector-curvature="0"
       sodipodi:nodetypes="ssscs" />
    <path
       style="fill:#55d400;fill-opacity:1;stroke:none"
       d="m 2117.1361,389.2394 c -3.4442,4.50158 -9.5589,5.60867 -13.6572,2.47289 -4.0985,-3.1359 -4.6288,-9.32725 -1.1845,-13.82882 3.4442,-4.50158 7.2927,-2.90652 18.3113,-8.55554 -2.6778,11.838 -0.025,15.40989 -3.4696,19.91147 z"
       id="path4099-2-6-6"
       inkscape:connector-curvature="0"
       sodipodi:nodetypes="ssscs" />
    <path
       style="fill:#55d400;fill-opacity:1;stroke:none"
       d="m 2063.7393,378.04323 c 4.0477,3.96776 4.4005,10.17181 0.7882,13.85699 -3.6125,3.68533 -9.8223,3.4563 -13.8701,-0.51146 -4.0477,-3.96776 -1.995,-7.59288 -6.2576,-19.21845 11.4229,4.10206 15.2917,1.90516 19.3395,5.87292 z"
       id="path4099-0-7-6"
       inkscape:connector-curvature="0"
       sodipodi:nodetypes="ssscs" />
    <path
       style="fill:#55d400;fill-opacity:1;stroke:none"
       d="m 2175.934,431.99915 c 2.9203,4.85785 1.7023,10.95138 -2.7205,13.61016 -4.4229,2.65888 -10.3757,0.8762 -13.2961,-3.98165 -2.9203,-4.85787 -0.022,-7.85059 -1.2255,-20.17436 10.0249,6.8418 14.3217,5.68798 17.2421,10.54585 z"
       id="path4099-18-0-6"
       inkscape:connector-curvature="0"
       sodipodi:nodetypes="ssscs" />
    <path
       style="fill:#55d400;fill-opacity:1;stroke:none"
       d="m 2050.1713,408.57207 c 5.6681,0 10.263,4.1835 10.263,9.3439 0,5.1606 -4.5949,9.344 -10.263,9.344 -5.6681,0 -6.7399,-4.0257 -17.922,-9.344 11.0289,-5.0668 12.2539,-9.3439 17.922,-9.3439 z"
       id="path4099-92-9-8"
       inkscape:connector-curvature="0"
       sodipodi:nodetypes="ssscs" />
    <path
       style="fill:#55d400;fill-opacity:1;stroke:none"
       d="m 2050.1916,445.8868 c 5.6681,0 10.263,4.1835 10.263,9.3439 0,5.1606 -4.5949,9.344 -10.263,9.344 -5.6681,0 -6.7399,-4.0257 -17.922,-9.344 11.0289,-5.0668 12.2539,-9.3439 17.922,-9.3439 z"
       id="path4099-183-5-5"
       inkscape:connector-curvature="0"
       sodipodi:nodetypes="ssscs" />
    <path
       style="fill:#55d400;fill-opacity:1;stroke:none"
       d="m 2156.6502,454.99703 c 5.6681,0 10.263,4.1835 10.263,9.3439 0,5.1606 -4.5949,9.344 -10.263,9.344 -5.6681,0 -6.7399,-4.0257 -17.922,-9.344 11.0289,-5.0668 12.2539,-9.3439 17.922,-9.3439 z"
       id="path4099-99-0-6"
       inkscape:connector-curvature="0"
       sodipodi:nodetypes="ssscs" />
    <rect
       style="fill:#55d400;fill-opacity:1;stroke:none"
       id="rect2985-79-4-5-6-7"
       width="76.862839"
       height="137.24963"
       x="-606.50787"
       y="2189.2322"
       ry="35.935444"
       rx="45.935448"
       transform="matrix(0,-1,1,0,0,0)" />
    <path
       style="fill:#ffffff;fill-opacity:1;stroke:none"
       d="m 2315.2842,441.78437 c -4.3371,3.64925 -10.5464,3.40644 -13.8688,-0.54216 -3.3225,-3.94876 -2.5,-10.1081 1.8371,-13.75735 4.3371,-3.64925 7.749,-1.25887 19.7293,-4.38873 -5.1769,10.97764 -3.3605,15.03899 -7.6976,18.68824 z"
       id="path4099-1-5-8-0"
       inkscape:connector-curvature="0"
       sodipodi:nodetypes="ssscs" />
    <path
       style="fill:#ffffff;fill-opacity:1;stroke:none"
       d="m 2307.3001,475.29167 c -4.8739,-2.89354 -6.6893,-8.83653 -4.0549,-13.27386 2.6345,-4.4375 8.7211,-5.68905 13.595,-2.79551 4.8739,2.89354 3.7403,6.90226 10.6406,17.18377 -12.0701,-1.27336 -15.3068,1.77913 -20.1807,-1.1144 z"
       id="path4099-1-5-8-6"
       inkscape:connector-curvature="0"
       sodipodi:nodetypes="ssscs" />
    <path
       style="fill:#ffffff;fill-opacity:1;stroke:none"
       d="m 2291.9936,444.69754 c 3.6492,4.3371 3.4064,10.5464 -0.5422,13.8688 -3.9487,3.3225 -10.1081,2.5 -13.7573,-1.8371 -3.6493,-4.3371 -1.2589,-7.749 -4.3888,-19.7293 10.9777,5.1769 15.039,3.3605 18.6883,7.6976 z"
       id="path4099-1-5-8-0-4"
       inkscape:connector-curvature="0"
       sodipodi:nodetypes="ssscs" />
    <rect
       style="fill:#55d400;fill-opacity:1;stroke:none"
       id="rect3855-0-5-9-2-1"
       width="27.637627"
       height="152.46553"
       x="2813.3767"
       y="-721.63458"
       rx="45.871086"
       ry="0"
       transform="matrix(0.8622694,0.50644988,-0.46018636,0.88782234,0,0)" />
    <rect
       style="fill:#55d400;fill-opacity:1;stroke:none"
       id="rect3855-5-7-4-9-6"
       width="27.637627"
       height="152.46553"
       x="991.70886"
       y="2560.2009"
       rx="45.871086"
       ry="0"
       transform="matrix(0.65563804,-0.75507533,0.78866003,0.61482954,0,0)" />
    <rect
       style="fill:#55d400;fill-opacity:1;stroke:none"
       id="rect2985-79-1-9-3"
       width="76.862839"
       height="202.38963"
       x="2533.4404"
       y="379.20807"
       ry="35.935444"
       rx="45.935448" />
    <path
       sodipodi:type="arc"
       style="fill:#55d400;fill-opacity:1;stroke:none"
       id="path3787-9-0-6-9"
       sodipodi:cx="570"
       sodipodi:cy="645.2193"
       sodipodi:rx="42.142857"
       sodipodi:ry="42.142857"
       d="m 612.14286,645.2193 a 42.142857,42.142857 0 1 1 -84.28572,0 42.142857,42.142857 0 1 1 84.28572,0 z"
       transform="matrix(0.95337995,0,0,0.95337995,2020.6204,204.63243)" />
    <path
       sodipodi:type="arc"
       style="fill:#55d400;fill-opacity:1;stroke:none"
       id="path3787-3-9-6-4-2"
       sodipodi:cx="570"
       sodipodi:cy="645.2193"
       sodipodi:rx="42.142857"
       sodipodi:ry="42.142857"
       d="m 612.14286,645.2193 a 42.142857,42.142857 0 1 1 -84.28572,0 42.142857,42.142857 0 1 1 84.28572,0 z"
       transform="matrix(0.95337995,0,0,0.95337995,2131.7694,199.82459)" />
    <path
       sodipodi:type="arc"
       style="fill:#55d400;fill-opacity:1;stroke:none"
       id="path3787-5-3-8-0-7"
       sodipodi:cx="570"
       sodipodi:cy="645.2193"
       sodipodi:rx="42.142857"
       sodipodi:ry="42.142857"
       d="m 612.14286,645.2193 a 42.142857,42.142857 0 1 1 -84.28572,0 42.142857,42.142857 0 1 1 84.28572,0 z"
       transform="matrix(0.95337995,0,0,0.95337995,2242.4071,148.19222)" />
    <path
       sodipodi:type="arc"
       style="fill:#55d400;fill-opacity:1;stroke:none"
       id="path3787-53-7-7-7-4"
       sodipodi:cx="570"
       sodipodi:cy="645.2193"
       sodipodi:rx="42.142857"
       sodipodi:ry="42.142857"
       d="m 612.14286,645.2193 a 42.142857,42.142857 0 1 1 -84.28572,0 42.142857,42.142857 0 1 1 84.28572,0 z"
       transform="matrix(0.95337995,0,0,0.95337995,2066.9275,306.78029)" />
    <path
       sodipodi:type="arc"
       style="fill:#55d400;fill-opacity:1;stroke:none"
       id="path3787-4-1-5-8-2"
       sodipodi:cx="570"
       sodipodi:cy="645.2193"
       sodipodi:rx="42.142857"
       sodipodi:ry="42.142857"
       d="m 612.14286,645.2193 a 42.142857,42.142857 0 1 1 -84.28572,0 42.142857,42.142857 0 1 1 84.28572,0 z"
       transform="matrix(0.95337995,0,0,0.95337995,2148.8433,321.93813)" />
    <rect
       style="fill:#55d400;fill-opacity:1;stroke:none"
       id="rect3855-5-71-7-0"
       width="27.637627"
       height="152.46553"
       x="2446.7764"
       y="-1392.8524"
       rx="45.871086"
       ry="0"
       transform="matrix(0.70852626,0.70568445,-0.66726537,0.74482006,0,0)" />
    <rect
       style="fill:#55d400;fill-opacity:1;stroke:none"
       id="rect3855-8-1-4-7-1"
       width="27.637627"
       height="152.46553"
       x="1962.2861"
       y="1692.783"
       rx="45.871086"
       ry="0"
       transform="matrix(0.92669399,-0.37581677,0.42425181,0.90554426,0,0)" />
    <rect
       style="fill:#55d400;fill-opacity:1;stroke:none"
       id="rect3855-6-6-5-6-8"
       width="27.637627"
       height="152.46553"
       x="559.37946"
       y="2666.729"
       rx="45.871086"
       ry="0"
       transform="matrix(0.49431547,-0.86928259,0.89418464,0.44769837,0,0)" />
    <rect
       style="fill:#55d400;fill-opacity:1;stroke:none"
       id="rect3855-89-9-0-5-6"
       width="27.637627"
       height="152.46553"
       x="2728.6682"
       y="249.93394"
       rx="45.871086"
       ry="0"
       transform="matrix(0.98898489,0.14801652,-0.09555887,0.99542378,0,0)" />
    <path
       sodipodi:type="arc"
       style="fill:#ffffff;fill-opacity:1;stroke:none"
       id="path3896-12-9-4-0"
       sodipodi:cx="-387.14285"
       sodipodi:cy="662.36218"
       sodipodi:rx="27.142857"
       sodipodi:ry="27.142857"
       d="m -360,662.36218 a 27.142857,27.142857 0 1 1 -54.28571,0 27.142857,27.142857 0 1 1 54.28571,0 z"
       transform="matrix(0.95337995,0,0,0.95337995,2932.869,188.28877)" />
    <path
       sodipodi:type="arc"
       style="fill:#ffffff;fill-opacity:1;stroke:none"
       id="path3896-7-7-2-6-1"
       sodipodi:cx="-387.14285"
       sodipodi:cy="662.36218"
       sodipodi:rx="27.142857"
       sodipodi:ry="27.142857"
       d="m -360,662.36218 a 27.142857,27.142857 0 1 1 -54.28571,0 27.142857,27.142857 0 1 1 54.28571,0 z"
       transform="matrix(0.95337995,0,0,0.95337995,3043.473,183.48092)" />
    <path
       sodipodi:type="arc"
       style="fill:#ffffff;fill-opacity:1;stroke:none"
       id="path3896-1-4-7-6-4"
       sodipodi:cx="-387.14285"
       sodipodi:cy="662.36218"
       sodipodi:rx="27.142857"
       sodipodi:ry="27.142857"
       d="m -360,662.36218 a 27.142857,27.142857 0 1 1 -54.28571,0 27.142857,27.142857 0 1 1 54.28571,0 z"
       transform="matrix(0.95337995,0,0,0.95337995,3154.7917,131.30376)" />
    <path
       sodipodi:type="arc"
       style="fill:#ffffff;fill-opacity:1;stroke:none"
       id="path3896-4-6-9-5-7"
       sodipodi:cx="-387.14285"
       sodipodi:cy="662.36218"
       sodipodi:rx="27.142857"
       sodipodi:ry="27.142857"
       d="m -360,662.36218 a 27.142857,27.142857 0 1 1 -54.28571,0 27.142857,27.142857 0 1 1 54.28571,0 z"
       transform="matrix(0.95337995,0,0,0.95337995,2978.0864,290.98141)" />
    <path
       sodipodi:type="arc"
       style="fill:#ffffff;fill-opacity:1;stroke:none"
       id="path3896-3-9-56-4-2"
       sodipodi:cx="-387.14285"
       sodipodi:cy="662.36218"
       sodipodi:rx="27.142857"
       sodipodi:ry="27.142857"
       d="m -360,662.36218 a 27.142857,27.142857 0 1 1 -54.28571,0 27.142857,27.142857 0 1 1 54.28571,0 z"
       transform="matrix(0.95337995,0,0,0.95337995,3061.2279,304.91347)" />
    <rect
       style="fill:#55d400;fill-opacity:1;stroke:none"
       id="rect2985-79-4-5-5-7"
       width="76.862839"
       height="172.96391"
       x="-582.18079"
       y="2540.522"
       ry="35.935444"
       rx="45.935448"
       transform="matrix(0,-1,1,0,0,0)" />
    <rect
       style="fill:#55d400;fill-opacity:1;stroke:none"
       id="rect2985-79-7-0-7-2"
       width="76.862839"
       height="209.40862"
       x="2748.0515"
       y="405.23492"
       ry="35.935444"
       rx="45.935448" />
    <rect
       style="fill:#55d400;fill-opacity:1;stroke:none"
       id="rect2985-79-5-8-8-2"
       width="76.862839"
       height="295.96106"
       x="2641.6733"
       y="434.60413"
       ry="35.935444"
       rx="45.935448" />
    <path
       sodipodi:type="arc"
       style="fill:#55d400;fill-opacity:1;stroke:#00d400;stroke-width:1"
       id="path3787-4-1-7-8-5-2"
       sodipodi:cx="570"
       sodipodi:cy="645.2193"
       sodipodi:rx="42.142857"
       sodipodi:ry="42.142857"
       d="m 612.14286,645.2193 a 42.142857,42.142857 0 1 1 -84.28572,0 42.142857,42.142857 0 1 1 84.28572,0 z"
       transform="matrix(0.95337995,0,0,0.95337995,2243.6567,283.99751)" />
    <path
       sodipodi:type="arc"
       style="fill:#ffffff;fill-opacity:1;stroke:none"
       id="path3896-3-9-5-8-3-1"
       sodipodi:cx="-387.14285"
       sodipodi:cy="662.36218"
       sodipodi:rx="27.142857"
       sodipodi:ry="27.142857"
       d="m -360,662.36218 a 27.142857,27.142857 0 1 1 -54.28571,0 27.142857,27.142857 0 1 1 54.28571,0 z"
       transform="matrix(0.95337995,0,0,0.95337995,3156.0413,266.97285)" />
    <path
       style="fill:#55d400;fill-opacity:1;stroke:none"
       d="m 2795.3841,406.88797 c 0,5.66809 -4.1835,10.26299 -9.3439,10.26299 -5.1606,0 -9.344,-4.5949 -9.344,-10.26299 0,-5.6681 4.0257,-6.73988 9.344,-17.92195 5.0668,11.02889 9.3439,12.25385 9.3439,17.92195 z"
       id="path4099-90-1-7"
       inkscape:connector-curvature="0"
       sodipodi:nodetypes="ssscs" />
    <path
       style="fill:#55d400;fill-opacity:1;stroke:none"
       d="m 2819.8911,427.01249 c -4.0508,3.96459 -10.2609,4.18867 -13.8704,0.50066 -3.6096,-3.68815 -3.2518,-9.89185 0.799,-13.85644 4.0509,-3.96458 7.6327,-1.83718 19.3441,-5.85769 -4.338,11.33534 -2.2218,15.24889 -6.2727,19.21347 z"
       id="path4099-4-2-4-7"
       inkscape:connector-curvature="0"
       sodipodi:nodetypes="ssscs" />
    <path
       style="fill:#55d400;fill-opacity:1;stroke:none"
       d="m 2763.1715,415.57757 c 4.5155,3.42598 5.6474,9.5361 2.5283,13.64717 -3.1192,4.11122 -9.3083,4.66664 -13.8239,1.24066 -4.5155,-3.42599 -2.9361,-7.28091 -8.6298,-18.27658 11.8488,2.62973 15.4099,-0.0372 19.9254,3.38875 z"
       id="path4099-8-7-9-1"
       inkscape:connector-curvature="0"
       sodipodi:nodetypes="ssscs" />
    <path
       style="fill:#55d400;fill-opacity:1;stroke:none"
       d="m 2822.8288,463.42641 c -5.6681,0 -10.263,-4.1835 -10.263,-9.3439 0,-5.1606 4.5949,-9.344 10.263,-9.344 5.6681,0 6.7398,4.0257 17.9219,9.344 -11.0289,5.0668 -12.2538,9.3439 -17.9219,9.3439 z"
       id="path4099-1-5-8-3"
       inkscape:connector-curvature="0"
       sodipodi:nodetypes="ssscs" />
    <path
       style="fill:#55d400;fill-opacity:1;stroke:none"
       d="m 2580.1019,382.53374 c 0,5.66809 -4.1835,10.26299 -9.3439,10.26299 -5.1606,0 -9.344,-4.5949 -9.344,-10.26299 0,-5.6681 4.0257,-6.73988 9.344,-17.92195 5.0668,11.02889 9.3439,12.25385 9.3439,17.92195 z"
       id="path4099-9-1-6-1"
       inkscape:connector-curvature="0"
       sodipodi:nodetypes="ssscs" />
    <path
       style="fill:#55d400;fill-opacity:1;stroke:none"
       d="m 2690.5808,437.06024 c 0,5.66809 -4.1835,10.26299 -9.3439,10.26299 -5.1606,0 -9.344,-4.5949 -9.344,-10.26299 0,-5.6681 4.0257,-6.73988 9.344,-17.92195 5.0668,11.02889 9.3439,12.25385 9.3439,17.92195 z"
       id="path4099-6-9-8-7"
       inkscape:connector-curvature="0"
       sodipodi:nodetypes="ssscs" />
    <path
       style="fill:#55d400;fill-opacity:1;stroke:none"
       d="m 2604.136,397.52512 c -3.4442,4.50158 -9.5589,5.60867 -13.6572,2.47289 -4.0985,-3.1359 -4.6288,-9.32725 -1.1845,-13.82882 3.4442,-4.50158 7.2927,-2.90652 18.3113,-8.55554 -2.6778,11.838 -0.025,15.40989 -3.4696,19.91147 z"
       id="path4099-2-6-6-4"
       inkscape:connector-curvature="0"
       sodipodi:nodetypes="ssscs" />
    <path
       style="fill:#55d400;fill-opacity:1;stroke:none"
       d="m 2550.7392,386.32895 c 4.0477,3.96776 4.4005,10.17181 0.7882,13.85699 -3.6125,3.68533 -9.8223,3.4563 -13.8701,-0.51146 -4.0477,-3.96776 -1.995,-7.59288 -6.2576,-19.21845 11.4229,4.10206 15.2917,1.90516 19.3395,5.87292 z"
       id="path4099-0-7-6-1"
       inkscape:connector-curvature="0"
       sodipodi:nodetypes="ssscs" />
    <path
       style="fill:#55d400;fill-opacity:1;stroke:none"
       d="m 2662.9339,440.28487 c 2.9203,4.85785 1.7023,10.95138 -2.7205,13.61016 -4.4229,2.65888 -10.3757,0.8762 -13.2961,-3.98165 -2.9203,-4.85787 -0.022,-7.85059 -1.2255,-20.17436 10.0249,6.8418 14.3217,5.68798 17.2421,10.54585 z"
       id="path4099-18-0-6-8"
       inkscape:connector-curvature="0"
       sodipodi:nodetypes="ssscs" />
    <path
       style="fill:#55d400;fill-opacity:1;stroke:none"
       d="m 2537.1712,416.85779 c 5.6681,0 10.263,4.1835 10.263,9.3439 0,5.1606 -4.5949,9.344 -10.263,9.344 -5.6681,0 -6.7399,-4.0257 -17.922,-9.344 11.0289,-5.0668 12.2539,-9.3439 17.922,-9.3439 z"
       id="path4099-92-9-8-5"
       inkscape:connector-curvature="0"
       sodipodi:nodetypes="ssscs" />
    <path
       style="fill:#55d400;fill-opacity:1;stroke:none"
       d="m 2537.1915,454.17252 c 5.6681,0 10.263,4.1835 10.263,9.3439 0,5.1606 -4.5949,9.344 -10.263,9.344 -5.6681,0 -6.7399,-4.0257 -17.922,-9.344 11.0289,-5.0668 12.2539,-9.3439 17.922,-9.3439 z"
       id="path4099-183-5-5-0"
       inkscape:connector-curvature="0"
       sodipodi:nodetypes="ssscs" />
    <path
       style="fill:#55d400;fill-opacity:1;stroke:none"
       d="m 2643.6501,463.28275 c 5.6681,0 10.263,4.1835 10.263,9.3439 0,5.1606 -4.5949,9.344 -10.263,9.344 -5.6681,0 -6.7399,-4.0257 -17.922,-9.344 11.0289,-5.0668 12.2539,-9.3439 17.922,-9.3439 z"
       id="path4099-99-0-6-1"
       inkscape:connector-curvature="0"
       sodipodi:nodetypes="ssscs" />
    <rect
       style="fill:#55d400;fill-opacity:1;stroke:none"
       id="rect2985-79-4-5-6-7-6"
       width="76.862839"
       height="137.24963"
       x="-614.79358"
       y="2676.2322"
       ry="35.935444"
       rx="45.935448"
       transform="matrix(0,-1,1,0,0,0)" />
    <g
       id="g3261"
       style="fill:#ffffff;stroke:none"
       transform="matrix(0.19509263,0.05232358,-0.05232358,0.19509263,2062.9501,307.26804)">
      <path
         sodipodi:nodetypes="csccsssscssczscac"
         inkscape:connector-curvature="0"
         id="path3245"
         d="m 3198.5714,336.6479 c 0,0 -18.5714,24.28571 -15.7143,41.42857 2.8572,17.14286 25.7143,50 25.7143,50 1.3288,13.89088 3.3508,29.78734 3.5504,31.60189 4.2857,37.14285 49.7251,40.59173 49.7251,96.30601 0,55.71429 -6.1326,44.94924 -28.9898,74.94924 -22.8571,30 -26.6853,54.01654 -22.8571,80 5.9594,40.44816 38.3816,100.24775 141.4286,84.28572 71.5424,-11.08194 81.4285,-32.85715 81.4285,-32.85715 0,0 0.7293,5.90898 -39.8687,14.28572 -65.6722,13.5504 -153.277,-26.19054 -139.6113,-92.61204 5.2417,-25.4775 19.9282,-32.39667 41.082,-57.14286 42.001,-55.2481 32.3876,-97.13291 25.5409,-117.07107 -6.8467,-19.93815 -20.9211,-28.24272 -29.2634,-44.68322 -7.9839,-15.73428 -29.2862,-25.17935 -36.9709,-48.23339 -2.5822,-28.96011 -2.683,-42.90223 -15.1943,-58.82885 -9.3441,-11.89482 -30,-21.42857 -40,-21.42857 z"
         style="fill:#ffffff;stroke:none" />
      <path
         sodipodi:nodetypes="ccsssccccccsccsc"
         inkscape:connector-curvature="0"
         id="path3247"
         d="m 3281.5373,466.82287 c 23.8824,-13.32688 23.2015,-11.53014 33.7144,-28.35069 0,0 3.8311,-13.79224 -6.8961,-20.68835 -10.7274,-6.89612 -18.3775,-17.98929 -10.1776,-19.43476 3.6713,-0.64718 2.5151,-1.25359 8.6451,-1.25359 6.1299,0 9.4779,-1.67997 8.9815,-4.96996 -34.831,2.85741 -14.0759,-9.20037 -23.54,-19.54957 -5.3637,0 -1.0842,0.2092 -4.9155,8.63779 -9.408,15.52794 -18.4764,-1.11016 -24.2014,-4.80661 -3.8312,2.2987 -0.5393,8.33167 7.7669,17.33627 11.0553,7.83506 -8.8984,23.64281 -1.6371,27.10537 5.1919,2.03051 3.4673,-8.52155 8.0648,-14.65143 4.5974,-6.12988 12.6236,6.98907 12.6236,6.98907 2.0885,5.83451 6.4549,12.36455 5.0662,16.76328 -2.7638,8.75454 -14.7105,13.60454 -17.4855,19.49187 -4.4589,9.4597 1.2399,17.20058 3.9907,17.38131 z"
         style="fill:#ffffff;stroke:none" />
      <path
         sodipodi:nodetypes="csssssccssacssccscacc"
         inkscape:connector-curvature="0"
         id="path3249"
         d="m 3225.3572,463.79075 c 7.8571,3.21429 16.7857,4.64286 11.4286,10.71429 -5.3572,6.07142 -13.5715,10 -22.5,14.28571 -8.9286,4.28571 -15,10.35714 -21.4286,1.07143 -6.4286,-9.28572 -16.0714,-27.5 -18.5714,-27.14286 -2.5,0.35714 -13.9286,15.35714 -14.6429,20.35714 -0.7143,5 -6.0714,2.5 -6.0714,2.5 0,0 -6.4286,-2.5 0,-7.85714 9.0428,-16.74701 -0.5924,-11.01156 -14.7961,-15.633 -1.3818,-0.44962 0.1532,-4.72414 3.0104,-5.08128 2.8571,-0.35715 14.0996,-1.42497 15.3568,-6.8933 0.7896,-3.43429 -6.7854,-8.1067 -6.7854,-8.1067 0,0 -0.7143,-8.57143 3.5714,-5 4.2857,3.57142 8.2446,5.62834 15.5419,7.47415 5.3586,1.35541 0.8867,-10.3313 4.4582,-12.8313 3.5714,-2.5 6.7857,5 6.7857,5 0,0 -3.2143,14.64286 0.7142,16.78572 3.9286,2.14286 5,8.57143 5,8.57143 0,0 6.2419,12.15147 11.7857,11.78571 7.0327,-0.46399 7.5,-13.21428 12.8571,-16.78571 6.8078,-5.89638 6.6434,4.02445 14.2858,6.78571 z"
         style="fill:#ffffff;stroke:none" />
      <path
         sodipodi:nodetypes="cssssscssacszccccsc"
         inkscape:connector-curvature="0"
         id="path3257"
         d="m 3233.9286,572.71932 c 0,0 8.5714,-13.92857 20,-12.14285 11.4285,1.78571 17.8571,-5.35715 18.2143,8.21428 0.3571,13.57143 5.3571,15.35715 -6.7858,20.35715 -12.1428,5 -19.6428,4.64285 -24.2857,4.64285 -4.6428,0 -9.6428,1.42857 -12.8571,3.21429 -3.2143,1.78571 -4.2857,1.78571 -6.0714,2.85714 -1.7858,1.07143 -10.3572,5 -15.3572,16.78572 -5,11.78571 -7.1428,12.14285 -7.1428,10.71428 0,-1.42857 2.7918,-12.28378 -1.4025,-15.11314 -4.2319,-2.85478 -7.8883,4.12892 -14.669,4.39886 -1.4285,0 -3.0903,-0.21173 0,-4.28572 4.3549,-5.74117 10.614,-14.49457 -4.9401,-14.0215 -15.5541,0.47308 -11.8456,-2.76421 -8.9884,-4.54993 13.4884,-0.86541 16.6653,-3.89496 6.0714,-4.64285 -7.8572,-1.42858 -10,-5.71429 0.3571,-5.35715 12.5615,1.47747 26.3672,-1.86089 33.5715,-1.78571 6.0714,0 8.5714,-3.57143 13.9285,-5.71429 5.3572,-2.14285 10.3572,-3.57143 10.3572,-3.57143 z"
         style="fill:#ffffff;stroke:none" />
      <path
         sodipodi:nodetypes="cssssscccsacsscsc"
         inkscape:connector-curvature="0"
         id="path3259"
         d="m 3321.0714,601.29075 c 0,0 -17.1428,-3.92857 -16.0714,-13.57143 1.0714,-9.64285 -1.4286,-20.71428 9.6429,-24.28571 11.0714,-3.57143 15.3571,-4.28571 21.7857,-1.42857 6.4285,2.85714 10,14.28571 10,19.28571 0,5 4.2856,4.28572 4.2856,-1.78571 0,-6.07143 -0.3571,-23.57143 4.2858,-22.14286 1.6483,22.35285 8.3242,6.56003 17.8571,5.71429 -2.8467,8.52027 -3.865,9.15467 -1.2193,12.6557 5.9527,5.622 14.7008,-1.05718 13.3622,4.13001 -1.0412,4.03458 -10.0098,2.38011 -10.3571,6.42857 -0.3676,4.28482 1.822,6.01562 9.6428,8.57143 2.1429,0.71429 3.4458,5.3392 -8.9286,3.57143 -5,-0.71429 -9.2857,-3.92857 -20,-0.35714 -10.7142,3.57143 -17.1428,6.42857 -17.1428,6.42857 0,0 0.3571,-4.64286 -5,-5 -5.3572,-0.35714 -12.1429,1.78571 -12.1429,1.78571 z"
         style="fill:#ffffff;stroke:none" />
    </g>
  </g>
</svg>
