<?xml version="1.0" encoding="UTF-8" standalone="no"?>
<!-- Created with Inkscape (http://www.inkscape.org/) -->

<svg
   xmlns:dc="http://purl.org/dc/elements/1.1/"
   xmlns:cc="http://creativecommons.org/ns#"
   xmlns:rdf="http://www.w3.org/1999/02/22-rdf-syntax-ns#"
   xmlns:svg="http://www.w3.org/2000/svg"
   xmlns="http://www.w3.org/2000/svg"
   xmlns:sodipodi="http://sodipodi.sourceforge.net/DTD/sodipodi-0.dtd"
   xmlns:inkscape="http://www.inkscape.org/namespaces/inkscape"
   width="254.28571"
   height="254.28571"
   id="svg3183"
   version="1.1"
   inkscape:version="0.48.4 r9939"
   sodipodi:docname="minimal_logo_1.svg"
   inkscape:export-filename="/home/svet/Dropbox/falanster/dig_lab/design/logos/minimal_logo_1.png"
   inkscape:export-xdpi="300"
   inkscape:export-ydpi="300">
  <defs
     id="defs3185">
    <inkscape:path-effect
       effect="spiro"
       id="path-effect8824-8"
       is_visible="true" />
  </defs>
  <sodipodi:namedview
     id="base"
     pagecolor="#ffffff"
     bordercolor="#666666"
     borderopacity="1.0"
     inkscape:pageopacity="0.0"
     inkscape:pageshadow="2"
     inkscape:zoom="1.4"
     inkscape:cx="210.32153"
     inkscape:cy="163.13708"
     inkscape:document-units="px"
     inkscape:current-layer="layer1"
     showgrid="false"
     fit-margin-top="0"
     fit-margin-left="0"
     fit-margin-right="0"
     fit-margin-bottom="0"
     inkscape:window-width="1301"
     inkscape:window-height="744"
     inkscape:window-x="65"
     inkscape:window-y="24"
     inkscape:window-maximized="1" />
  <metadata
     id="metadata3188">
    <rdf:RDF>
      <cc:Work
         rdf:about="">
        <dc:format>image/svg+xml</dc:format>
        <dc:type
           rdf:resource="http://purl.org/dc/dcmitype/StillImage" />
        <dc:title></dc:title>
      </cc:Work>
    </rdf:RDF>
  </metadata>
  <g
     inkscape:label="Layer 1"
     inkscape:groupmode="layer"
     id="layer1"
     transform="translate(0,-798.07648)">
    <rect
       style="fill:#ffffff;fill-opacity:1;fill-rule:nonzero;stroke:none"
       id="rect3311-3"
       width="254.28571"
       height="254.28571"
       x="0"
       y="798.07648" />
    <path
       style="fill:#333333;fill-opacity:1;fill-rule:nonzero;stroke:none"
       d="m 254.28571,969.50505 c 0,0 -51.51186,32.81555 -80.54215,33.14785 C 128.49998,1003.1706 90.58978,948.57221 47.06964,953.87823 20.98907,957.05799 0,982.3622 0,982.3622 l 0,70 254.28571,0 z"
       id="rect3311"
       inkscape:connector-curvature="0"
       sodipodi:nodetypes="cascccc" />
    <g
       id="g3408"
       transform="matrix(0.88593504,0.18273556,-0.18273556,0.88593504,-2940.9986,703.7226)"
       style="fill:#333333">
      <rect
         transform="matrix(-0.99775929,0.06690587,0.06688976,0.99776037,0,0)"
         rx="21.051016"
         ry="16.473526"
         y="-301.47937"
         x="-3418.1274"
         height="73.327789"
         width="35.224228"
         id="rect2985-79-1-9-3-2-8"
         style="fill:#333333;fill-opacity:1;stroke:none" />
      <rect
         transform="matrix(-0.06688976,-0.99776037,-0.99775929,0.06690587,0,0)"
         rx="21.057728"
         ry="16.468275"
         y="-3418.4377"
         x="224.41077"
         height="66.069702"
         width="35.235462"
         id="rect2985-79-4-5-5-7-5-7"
         style="fill:#333333;fill-opacity:1;stroke:none" />
      <rect
         transform="matrix(-0.99775929,0.06690587,0.06688976,0.99776037,0,0)"
         rx="21.051016"
         ry="16.473526"
         y="-273.56998"
         x="-3331.3328"
         height="60.567284"
         width="35.224228"
         id="rect2985-79-7-0-7-2-4-08"
         style="fill:#333333;fill-opacity:1;stroke:none" />
      <rect
         transform="matrix(-0.99521583,0.09770087,0.04574418,0.99895319,0,0)"
         rx="21.051464"
         ry="18.606974"
         y="-196.81744"
         x="-3370.9495"
         height="198.39099"
         width="35.314247"
         id="rect2985-79-5-8-8-2-7-62"
         style="fill:#333333;fill-opacity:1;stroke:none" />
      <path
         sodipodi:nodetypes="ssscs"
         inkscape:connector-curvature="0"
         id="path4099-90-1-7-8-4"
         d="m 3283.9773,-493.63564 c 0.1738,2.59254 2.2276,4.56595 4.5871,4.40772 2.3597,-0.15823 4.1317,-2.38817 3.9579,-4.98072 -0.1738,-2.59255 -2.0474,-2.95934 -4.8221,-7.91088 -1.9786,5.19989 -3.8967,5.89132 -3.7229,8.48388 z"
         style="fill:#333333;fill-opacity:1;stroke:none" />
      <path
         sodipodi:nodetypes="ssscs"
         inkscape:connector-curvature="0"
         id="path4099-4-2-4-7-7-7"
         d="m 3273.3886,-483.67941 c 1.9738,1.68917 4.8202,1.60126 6.3576,-0.19628 1.5374,-1.79762 1.1835,-4.62418 -0.7903,-6.31335 -1.9738,-1.68917 -3.5463,-0.60629 -9.0246,-2.08616 2.3311,5.05171 1.4835,6.90662 3.4573,8.59579 z"
         style="fill:#333333;fill-opacity:1;stroke:none" />
      <path
         sodipodi:nodetypes="ssscs"
         inkscape:connector-curvature="0"
         id="path4099-8-7-9-1-0-9"
         d="m 3298.9728,-490.64876 c -1.9596,1.70547 -2.2898,4.53491 -0.7375,6.31965 1.5523,1.7848 4.3993,1.84908 6.3589,0.14361 1.9597,-1.70548 1.1193,-3.42026 3.3856,-8.62419 -5.3372,1.56612 -7.0473,0.45548 -9.007,2.16093 z"
         style="fill:#333333;fill-opacity:1;stroke:none" />
      <path
         sodipodi:nodetypes="ssscs"
         inkscape:connector-curvature="0"
         id="path4099-1-5-8-3-3-39"
         d="m 3273.1619,-466.93385 c 2.5918,-0.17379 4.5645,-2.22818 4.4062,-4.58852 -0.1582,-2.36042 -2.3875,-4.13299 -4.9792,-3.9592 -2.5917,0.17379 -2.9583,2.04797 -7.9082,4.82339 5.1983,1.97936 5.8895,3.89812 8.4812,3.72433 z"
         style="fill:#333333;fill-opacity:1;stroke:none" />
      <path
         sodipodi:nodetypes="ssscs"
         inkscape:connector-curvature="0"
         id="path4099-9-1-6-1-3-2"
         d="m 3369.0686,-526.54511 c 0.1738,2.59254 2.2276,4.56595 4.5872,4.40773 2.3596,-0.15823 4.1316,-2.38818 3.9578,-4.98072 -0.1738,-2.59256 -2.0474,-2.95935 -4.8221,-7.91089 -1.9786,5.1999 -3.8967,5.89133 -3.7229,8.48388 z"
         style="fill:#333333;fill-opacity:1;stroke:none" />
      <path
         sodipodi:nodetypes="ssscs"
         inkscape:connector-curvature="0"
         id="path4099-6-9-8-7-3-83"
         d="m 3323.5317,-522.80859 c 0.1738,2.59254 2.2276,4.56595 4.5871,4.40773 2.3597,-0.15823 4.1316,-2.38818 3.9578,-4.98073 -0.1738,-2.59254 -2.0474,-2.95934 -4.822,-7.91088 -1.9786,5.1999 -3.8967,5.89133 -3.7229,8.48388 z"
         style="fill:#333333;fill-opacity:1;stroke:none" />
      <path
         sodipodi:nodetypes="ssscs"
         inkscape:connector-curvature="0"
         id="path4099-2-6-6-4-4-0"
         d="m 3358.5388,-518.95124 c 1.7129,1.95339 4.5427,2.27228 6.3205,0.71234 1.7779,-1.56001 1.8305,-4.40815 0.1176,-6.36153 -1.7129,-1.95339 -3.4237,-1.10582 -8.6352,-3.3518 1.5875,5.33252 0.4841,7.04761 2.1971,9.00099 z"
         style="fill:#333333;fill-opacity:1;stroke:none" />
      <path
         sodipodi:nodetypes="ssscs"
         inkscape:connector-curvature="0"
         id="path4099-0-7-6-1-9-1"
         d="m 3382.611,-525.7095 c -1.7292,1.93893 -1.7002,4.78744 0.064,6.36226 1.7648,1.57488 4.5972,1.27972 6.3264,-0.65922 1.7291,-1.93893 0.6793,-3.5341 2.2719,-8.98225 -5.0973,2.22649 -6.9336,1.34027 -8.6628,3.27921 z"
         style="fill:#333333;fill-opacity:1;stroke:none" />
      <path
         sodipodi:nodetypes="ssscs"
         inkscape:connector-curvature="0"
         id="path4099-18-0-6-8-5-78"
         d="m 3336.272,-522.18135 c -1.1863,2.31148 -0.4426,5.06128 1.6613,6.14178 2.1039,1.08054 4.7711,0.0826 5.9575,-2.22886 1.1863,-2.31149 -0.2306,-3.59149 -0.058,-9.26519 -4.3741,3.43677 -6.3741,3.04076 -7.5605,5.35227 z"
         style="fill:#333333;fill-opacity:1;stroke:none" />
      <path
         sodipodi:nodetypes="ssscs"
         inkscape:connector-curvature="0"
         id="path4099-92-9-8-5-3-9"
         d="m 3389.751,-512.16183 c -2.5917,0.17379 -4.5644,2.22818 -4.4062,4.58851 0.1583,2.36043 2.3875,4.133 4.9793,3.95921 2.5917,-0.17379 2.9583,-2.04798 7.9082,-4.82339 -5.1983,-1.97936 -5.8895,-3.89812 -8.4813,-3.72433 z"
         style="fill:#333333;fill-opacity:1;stroke:none" />
      <path
         sodipodi:nodetypes="ssscs"
         inkscape:connector-curvature="0"
         id="path4099-183-5-5-0-7-1"
         d="m 3390.886,-495.0937 c -2.5918,0.17379 -4.5645,2.22818 -4.4062,4.58851 0.1582,2.36043 2.3875,4.133 4.9792,3.95921 2.5917,-0.17379 2.9584,-2.04798 7.9083,-4.82339 -5.1984,-1.97936 -5.8896,-3.89812 -8.4813,-3.72433 z"
         style="fill:#333333;fill-opacity:1;stroke:none" />
      <path
         sodipodi:nodetypes="ssscs"
         inkscape:connector-curvature="0"
         id="path4099-99-0-6-1-7-5"
         d="m 3345.7946,-512.25354 c -2.5917,0.17379 -4.5644,2.22818 -4.4061,4.58851 0.1582,2.36042 2.3875,4.133 4.9792,3.95921 2.5917,-0.1738 2.9583,-2.04799 7.9082,-4.8234 -5.1982,-1.97936 -5.8895,-3.89812 -8.4813,-3.72432 z"
         style="fill:#333333;fill-opacity:1;stroke:none" />
      <rect
         transform="matrix(-0.06688976,-0.99776037,-0.99775929,0.06690587,0,0)"
         rx="21.057728"
         ry="16.468275"
         y="-3362.4956"
         x="212.9339"
         height="62.897919"
         width="35.235462"
         id="rect2985-79-4-5-6-7-6-7-4"
         style="fill:#333333;fill-opacity:1;stroke:none" />
    </g>
    <path
       style="fill:none;stroke:#333333;stroke-width:0.59816927;stroke-linecap:butt;stroke-linejoin:miter;stroke-miterlimit:4;stroke-opacity:1;stroke-dasharray:none"
       d="m 165.66406,967.02398 c 0.61326,-0.11104 1.18406,-0.44322 1.58357,-0.92156 0.3995,-0.47834 0.62467,-1.09919 0.62467,-1.72243 0,-0.62323 -0.22517,-1.24408 -0.62467,-1.72242 -0.39951,-0.47834 -0.97031,-0.81052 -1.58357,-0.92156 -0.57932,-0.1049 -1.17355,-0.0173 -1.76204,0 -1.17665,0.0346 -2.36634,-0.21249 -3.52417,0 -0.96819,0.17768 -1.87261,0.68285 -2.53472,1.41126 -0.6621,0.7284 -1.07861,1.6754 -1.17217,2.6553 -0.0936,0.9799 0.13565,1.98733 0.64038,2.83243 0.50473,0.8451 1.28182,1.52391 2.18545,1.9143 1.22995,0.53137 2.61702,0.52118 3.95639,0.4865 1.33938,-0.0347 2.7196,-0.0786 3.97301,0.39481 0.96745,0.36538 1.82069,1.02694 2.82963,1.25389 0.50446,0.11347 1.04862,0.10909 1.52177,-0.0994 0.23658,-0.10427 0.45222,-0.25893 0.61795,-0.45736 0.16573,-0.19843 0.28037,-0.44113 0.31686,-0.69708 0.0415,-0.2912 -0.0173,-0.58767 0,-0.88131 0.009,-0.1482 0.0369,-0.29464 0.0487,-0.44263 0.0118,-0.14799 0.007,-0.3009 -0.0487,-0.43868 -0.045,-0.11226 -0.12237,-0.21052 -0.21724,-0.28556 -0.0949,-0.075 -0.20689,-0.12723 -0.32397,-0.15761 -0.23417,-0.0608 -0.48346,-0.0345 -0.71707,0.0283 -0.23362,0.0628 -0.45589,0.16105 -0.68224,0.24643 -0.22636,0.0854 -0.46094,0.15876 -0.70267,0.1684 -0.45056,0.018 -0.88589,-0.18929 -1.23485,-0.47486 -0.34896,-0.28557 -0.62625,-0.64692 -0.91128,-0.99632 -0.28504,-0.34939 -0.58692,-0.69526 -0.96844,-0.93561 -0.19076,-0.12017 -0.40047,-0.21252 -0.62129,-0.258 -0.22083,-0.0455 -0.45307,-0.0431 -0.66929,0.0208 -0.28223,0.0833 -0.52939,0.27041 -0.7024,0.50846 -0.17301,0.23804 -0.27367,0.52492 -0.30723,0.81728 -0.0671,0.58472 0.12847,1.17139 0.40616,1.69031 0.27768,0.51893 0.63735,0.98937 0.93651,1.49622 0.29916,0.50686 0.54146,1.06849 0.54812,1.65701 0.005,0.39723 -0.0986,0.78799 -0.22642,1.16413 -0.12779,0.37614 -0.28115,0.74419 -0.38286,1.12821 -0.10171,0.38402 -0.15045,0.7907 -0.0649,1.17864 0.0428,0.19397 0.11928,0.38139 0.23272,0.54444 0.11343,0.16306 0.26439,0.30123 0.44145,0.39125 0.26641,0.13544 0.57742,0.15648 0.87517,0.13079 0.29776,-0.0257 0.59006,-0.0951 0.88678,-0.13079 0.58375,-0.0702 1.17416,-0.009 1.76204,0 2.29055,0.0348 4.59193,-0.76127 6.34404,-2.23706 1.7521,-1.4758 2.93245,-3.62457 3.19596,-5.90019 0.2635,-2.27561 -0.40316,-4.6528 -1.84454,-6.43333 -1.44138,-1.78052 -3.64578,-2.93194 -5.93324,-3.056 -0.88001,-0.0477 -1.7632,0.0496 -2.64311,0 -0.7911,-0.0446 -1.57847,-0.20789 -2.36924,-0.15772 -0.39538,0.0251 -0.79081,0.10495 -1.14959,0.27298 -0.35878,0.16803 -0.68,0.42798 -0.88649,0.76609 -0.28085,0.45985 -0.33106,1.03215 -0.24163,1.56351 0.0894,0.53136 0.3077,1.03149 0.53545,1.51983 0.22774,0.48833 0.46834,0.97501 0.6072,1.49564 0.13887,0.52063 0.17009,1.0861 -0.02,1.5903 -0.16331,0.43326 -0.47828,0.79334 -0.82462,1.10066 -0.34633,0.30731 -0.72906,0.57144 -1.07646,0.87755 -0.3474,0.30611 -0.66465,0.66368 -0.83247,1.09522 -0.0839,0.21577 -0.12873,0.44811 -0.11755,0.67935 0.0112,0.23124 0.0796,0.4612 0.208,0.65385 0.1763,0.26456 0.45924,0.44817 0.76425,0.53783 0.30502,0.0897 0.6311,0.0904 0.94503,0.0402 0.62787,-0.10041 1.20562,-0.39647 1.81498,-0.57806 1.19244,-0.35535 2.46496,-0.26349 3.70572,-0.35675 0.62038,-0.0466 1.24218,-0.14163 1.82531,-0.35845 0.58312,-0.21681 1.12853,-0.56173 1.51731,-1.04742 0.43361,-0.54169 0.65323,-1.24133 0.65201,-1.93519 -0.001,-0.69387 -0.2164,-1.38007 -0.57406,-1.97466 -0.71532,-1.18917 -1.95983,-1.98438 -3.27254,-2.43449 -2.62542,-0.90021 -5.48361,-0.70629 -8.25908,-0.70629 l -2.6431,0 c -0.29389,0 -0.58926,-0.0349 -0.88107,0 -0.45979,0.0549 -0.87562,0.34728 -1.12178,0.73949 -0.24617,0.3922 -0.33004,0.87446 -0.27678,1.33444 0.0532,0.45999 0.2374,0.89851 0.48939,1.287 0.25198,0.38849 0.57062,0.72977 0.90917,1.04569 1.30929,1.22177 2.92139,2.07764 4.5872,2.73493 1.66581,0.65729 3.39797,1.12802 5.10425,1.6717 0.72996,0.23259 1.46403,0.48045 2.22744,0.5449 0.3817,0.0322 0.76914,0.0177 1.14265,-0.0674 0.37351,-0.085 0.73311,-0.24192 1.03514,-0.47753 0.36908,-0.28791 0.64342,-0.687 0.81916,-1.12085 0.17574,-0.43386 0.25617,-0.90208 0.27778,-1.36968 0.0432,-0.9352 -0.14384,-1.86402 -0.21578,-2.79745 -0.11496,-1.4916 0.0644,-2.98907 0.0702,-4.48509 0.006,-1.49602 -0.18032,-3.04612 -0.95135,-4.32816 -0.56642,-0.94183 -1.43154,-1.69321 -2.42422,-2.16486 -0.99268,-0.47166 -2.10838,-0.6676 -3.20589,-0.60976 -2.19502,0.11569 -4.25522,1.23445 -5.82346,2.77462 -1.0511,1.03229 -1.90634,2.24955 -2.64311,3.52532 -1.29234,2.23778 -2.24789,4.74072 -2.25502,7.32485 -0.004,1.29207 0.23421,2.59104 0.75677,3.77273 0.52255,1.18169 1.33497,2.24286 2.37932,3.00364 0.91283,0.66497 1.98342,1.09126 3.08206,1.35289 1.09863,0.26162 2.22936,0.36519 3.35787,0.40868 2.25704,0.087 4.51697,0.001 6.77568,0.001 l 4.40524,0 c 0.44228,0 0.88422,0.0212 1.32517,0.0554 0.44095,0.0343 0.8939,0.07 1.31803,-0.0554 0.54878,-0.16227 0.99035,-0.59302 1.26517,-1.09498 0.27483,-0.50195 0.40084,-1.07311 0.45946,-1.64236 0.11725,-1.13851 0.0375,-2.28741 0.0375,-3.43194 l 0,-4.40667 c 0,-1.17519 0.049,-2.3511 0,-3.52527 -0.14113,-3.38442 -1.41083,-6.72743 -3.62703,-9.28919 -2.21621,-2.56177 -5.37664,-4.3099 -8.73785,-4.72993 -3.36122,-0.42003 -6.88967,0.51519 -9.54327,2.62057 -2.65359,2.10538 -4.3767,5.37036 -4.52336,8.75454 -0.0382,0.88059 0,1.76259 0,2.64401 l 0,3.52527 0,2.64401 c 0,0.88143 -0.0446,1.76367 0,2.64397 0.13703,2.70228 1.43896,5.30657 3.44885,7.11805 2.00988,1.81148 4.69259,2.83085 7.3969,2.91919 2.70432,0.0883 5.41445,-0.73577 7.67402,-2.2242 2.25958,-1.48843 4.06997,-3.62458 5.26854,-6.05039 2.00357,-4.05506 2.27551,-8.71185 2.6432,-13.21991 0.0719,-0.88086 0.1483,-1.77271 0,-2.64397 -0.2779,-1.63263 -1.35567,-3.07431 -2.75515,-3.95983 -1.39948,-0.88553 -3.09299,-1.24346 -4.74817,-1.18785 -3.31035,0.11123 -6.34295,1.77343 -9.23665,3.38503 -0.92757,0.5166 -1.86571,1.03952 -2.64311,1.76265 -0.90311,0.84006 -1.55705,1.92647 -1.98142,3.08458 -0.42438,1.15811 -0.62635,2.38841 -0.70663,3.61921 -0.16055,2.4616 0.1572,4.93317 0.045,7.39744 -0.0268,0.58783 -0.0779,1.17938 0,1.76265 0.0903,0.67611 0.3548,1.32531 0.74251,1.88651 0.38772,0.5612 0.89678,1.03509 1.47106,1.40316 1.14855,0.73614 2.53625,1.03923 3.90044,1.04505 2.7284,0.0116 5.32004,-1.09559 7.98276,-1.69075 2.37166,-0.53011 4.87639,-0.67246 7.04834,-1.76261 1.83836,-0.92271 3.32245,-2.49604 4.23805,-4.33796 0.9156,-1.84191 1.27423,-3.94013 1.13613,-5.99242 -0.2762,-4.10459 -2.49022,-7.88776 -5.37418,-10.82148 -2.95914,-3.0102 -6.73422,-5.3022 -10.88074,-6.09224 -4.14652,-0.79004 -8.66019,0.0202 -12.0265,2.56688 -3.19471,2.4169 -5.15246,6.18983 -6.09378,10.0836 -0.94132,3.89377 -0.95457,7.94367 -0.95457,11.94961 l 0,3.52531 c 0,0.8814 -0.0342,1.76327 0,2.64401 0.12292,3.16506 1.46453,6.25365 3.63398,8.56149 2.16946,2.30785 5.13979,3.82961 8.2682,4.32536 3.1284,0.49574 6.39728,-0.0236 9.25565,-1.38826 2.85837,-1.3647 5.30163,-3.56001 7.03563,-6.21066 1.50632,-2.30261 2.47311,-4.93577 2.98006,-7.64022 0.50695,-2.70445 0.54411,-5.47211 0.54411,-8.22366 l 0,-6.16928 c 0,-1.17585 0.13437,-2.35718 0,-3.52532 -0.11169,-0.97099 -0.47255,-1.90779 -1.0087,-2.72501 -0.53615,-0.81722 -1.24494,-1.51606 -2.04766,-2.07367 -1.60546,-1.11523 -3.55609,-1.65275 -5.50293,-1.82885 -3.8937,-0.3522 -7.80067,0.66552 -11.70476,0.45821 -1.76802,-0.0939 -3.57031,-0.43565 -5.28639,0 -1.87181,0.47519 -3.43187,1.85733 -4.40515,3.52532 -0.91162,1.56232 -1.35388,3.3595 -1.56257,5.15626 -0.20869,1.79676 -0.19947,3.61084 -0.19947,5.41968 l 0,3.52532 c 0,0.58835 -0.0166,1.17655 -0.0435,1.76428 -0.0269,0.58774 -0.0556,1.18104 0.0435,1.76099 0.20046,1.17358 0.9443,2.21586 1.91091,2.91094 0.96662,0.69507 2.1406,1.06345 3.32346,1.1988 2.36572,0.27071 4.73075,-0.34933 7.10028,-0.58442 1.75576,-0.17419 3.52713,-0.1366 5.28621,0 1.17519,0.0913 2.36735,0.22574 3.52426,0 0.97827,-0.19088 1.90026,-0.63873 2.68169,-1.25744 0.78143,-0.61871 1.42388,-1.40547 1.91119,-2.27493 0.97463,-1.73893 1.31871,-3.77457 1.29994,-5.76791 -0.0375,-3.98668 -1.45187,-7.86487 -1.48767,-11.85157 -0.0229,-2.55467 0.52135,-5.07949 0.68403,-7.62908 0.0813,-1.2748 0.0664,-2.56231 -0.16121,-3.81926 -0.2276,-1.25694 -0.6739,-2.48581 -1.40371,-3.53419 -0.85705,-1.23116 -2.08374,-2.17932 -3.43584,-2.82902 -1.3521,-0.6497 -2.82842,-1.01175 -4.31588,-1.20605 -2.97493,-0.38861 -5.9986,-0.12023 -8.98825,-0.3716 -1.17633,-0.0989 -2.37665,-0.2766 -3.52426,0 -0.95493,0.23016 -1.82099,0.77073 -2.50794,1.47285 -0.68694,0.70213 -1.2008,1.56115 -1.57325,2.47009 -0.74489,1.81786 -0.93004,3.80644 -1.20502,5.75166 -0.43893,3.10503 -1.12606,6.17871 -1.35898,9.30594 -0.23292,3.12724 0.0143,6.36899 1.35898,9.20195 0.81397,1.71485 2.02261,3.24538 3.52417,4.40666 2.19396,1.69678 4.92252,2.557 7.64628,3.08012 2.72376,0.52313 5.5014,0.74183 8.21262,1.32646 2.3557,0.50797 4.65185,1.29025 7.03206,1.66702 2.38022,0.37676 4.92181,0.31709 7.06454,-0.78567 1.42022,-0.73092 2.60162,-1.89828 3.40844,-3.2768 0.80681,-1.37852 1.24406,-2.96195 1.32733,-4.55705 0.16655,-3.1902 -1.07419,-6.34288 -2.97364,-8.91138 -3.10117,-4.1935 -8.1109,-7.00927 -13.32527,-7.12343 -2.60719,-0.0571 -5.2321,0.54561 -7.53095,1.77685 -2.29885,1.23124 -4.26324,3.09277 -5.57511,5.34658 -0.66105,1.13569 -1.15508,2.35991 -1.76222,3.52532 -0.60772,1.16652 -1.3324,2.28213 -1.76204,3.52532 -0.77783,2.25069 -0.52354,4.72759 0,7.05063 0.20482,0.90881 0.45241,1.81688 0.88116,2.64396 0.87318,1.68441 2.46323,2.92939 4.2266,3.62954 1.76336,0.70015 3.69372,0.89203 5.5901,0.83373 3.79277,-0.11662 7.54292,-1.20144 11.32832,-0.93795 0.88535,0.0616 1.7646,0.19689 2.65056,0.24903 0.88596,0.0521 1.78958,0.0187 2.63574,-0.24903 1.26644,-0.40066 2.33636,-1.31729 3.05079,-2.43711 0.71442,-1.11982 1.0906,-2.43234 1.22587,-3.75374 0.27054,-2.64281 -0.38764,-5.27893 -0.75249,-7.91037 -0.48559,-3.50223 -0.45176,-7.0692 0,-10.57595 0.13264,-1.02964 0.30129,-2.05656 0.3523,-3.09345 0.051,-1.03689 -0.019,-2.09265 -0.3523,-3.07583 -0.52796,-1.55724 -1.70127,-2.84818 -3.10502,-3.70446 -1.40375,-0.85629 -3.02695,-1.30346 -4.65925,-1.50178 -3.2646,-0.39664 -6.57738,0.16555 -9.85667,-0.0817 -1.17703,-0.0888 -2.37747,-0.27994 -3.52417,0 -0.86601,0.21141 -1.6575,0.68857 -2.29018,1.31657 -0.63268,0.628 -1.11016,1.40296 -1.44113,2.23068 -0.66193,1.65545 -0.73904,3.48431 -0.67384,5.266 0.0918,2.51007 0.44842,5.00316 0.6035,7.51012 0.15508,2.50696 0.10293,5.06212 -0.6035,7.47249 -0.12932,0.44124 -0.28106,0.88053 -0.32391,1.33832 -0.0214,0.2289 -0.015,0.46161 0.035,0.68599 0.0501,0.22438 0.14483,0.44048 0.28887,0.61966 0.14515,0.18057 0.33798,0.32048 0.54969,0.41457 0.21171,0.0941 0.44197,0.14323 0.67324,0.15705 0.46253,0.0276 0.92214,-0.0838 1.36389,-0.22362 0.44176,-0.13983 0.8757,-0.30927 1.32936,-0.40358 0.45365,-0.0943 0.93711,-0.10957 1.37003,0.0556 0.41127,0.15689 0.7509,0.46811 1.00124,0.83017 0.25034,0.36207 0.41802,0.77455 0.5594,1.19141 0.14138,0.41686 0.25862,0.84216 0.41881,1.25215 0.16019,0.41 0.3664,0.80826 0.66366,1.1329 0.32127,0.35086 0.74178,0.6051 1.1939,0.75311 0.45212,0.14801 0.93508,0.19198 1.40945,0.15602 0.94874,-0.0719 1.84661,-0.45562 2.68304,-0.90913 1.22601,-0.66475 2.37062,-1.49728 3.3045,-2.53307 0.93388,-1.03578 1.65249,-2.281 1.98171,-3.63622 0.27998,-1.15253 0.2738,-2.3713 0,-3.52531 -0.30571,-1.2885 -0.93932,-2.48765 -1.76213,-3.52528 -1.73602,-2.18928 -4.35241,-3.66389 -7.12658,-3.99665 -2.77417,-0.33275 -5.67205,0.48519 -7.85117,2.23395 -1.90199,1.52636 -3.2404,3.73809 -3.71644,6.12989 -0.47604,2.39181 -0.0873,4.94525 1.07334,7.09007 0.86587,1.60009 2.14175,2.96309 3.62486,4.01686 1.4831,1.05377 3.17009,1.80404 4.92074,2.29927 3.50131,0.99046 7.20603,0.96555 10.83738,0.73446 2.44445,-0.15556 4.98915,-0.43629 7.04834,-1.76266 1.77553,-1.14366 3.02931,-2.99144 3.70325,-4.993 0.67395,-2.00157 0.80225,-4.15344 0.65671,-6.26041 -0.29106,-4.21392 -1.64752,-8.31905 -1.71676,-12.54245 -0.0398,-2.42742 0.34762,-4.8461 0.32149,-7.27371 -0.0131,-1.2138 -0.13094,-2.43266 -0.45215,-3.60327 -0.32121,-1.1706 -0.85134,-2.29429 -1.63156,-3.22421 -0.85093,-1.01419 -1.98033,-1.77421 -3.1994,-2.29047 -1.21907,-0.51627 -2.52788,-0.79649 -3.84351,-0.94408 -2.63126,-0.29519 -5.29626,-0.0694 -7.93475,-0.29076 -2.11123,-0.17714 -4.19609,-0.63988 -6.31355,-0.711 -1.05872,-0.0356 -2.12598,0.0282 -3.15687,0.27195 -1.03089,0.24379 -2.0264,0.67212 -2.86422,1.32036 -1.49352,1.15557 -2.37978,2.90456 -3.52417,4.40667 -1.1413,1.49805 -2.56911,2.78354 -3.52427,4.40662 -1.14231,1.9411 -1.53071,4.2468 -1.52836,6.49908 0.002,2.25228 0.3724,4.48536 0.64739,6.72079 0.18343,1.49112 0.33002,3.00898 0.88097,4.40667 0.62147,1.5766 1.7409,2.93089 3.08502,3.96298 1.34413,1.0321 2.90756,1.7538 4.52534,2.25844 3.23557,1.00929 6.66528,1.16552 10.0105,1.71052 2.63277,0.42893 5.27135,1.10431 7.9295,0.88135 0.59008,-0.0495 1.17621,-0.14321 1.76737,-0.17762 0.59115,-0.0344 1.19448,-0.008 1.75689,0.17762 0.14773,0.0487 0.29375,0.1085 0.44832,0.12588 0.0773,0.009 0.15637,0.006 0.23164,-0.0131 0.0753,-0.0196 0.14666,-0.0571 0.20101,-0.11274 0.0541,-0.0554 0.0898,-0.12714 0.10807,-0.20236 0.0182,-0.0752 0.0195,-0.15385 0.0105,-0.23072 -0.018,-0.15374 -0.0759,-0.29948 -0.11855,-0.44827 -0.12208,-0.42574 -0.11929,-0.87709 -0.0866,-1.31878 0.0327,-0.44169 0.0943,-0.8824 0.0866,-1.32523 -0.0149,-0.85191 -0.29123,-1.6918 -0.74944,-2.41014 -0.45821,-0.71834 -1.09411,-1.3167 -1.81678,-1.76806 -1.44534,-0.90272 -3.19767,-1.20625 -4.90158,-1.18211 -3.40783,0.0483 -6.76509,1.32348 -10.15314,0.95369 -0.64897,-0.0708 -1.30092,-0.20201 -1.94934,-0.12635 -0.32421,0.0378 -0.64538,0.12889 -0.92596,0.29568 -0.28058,0.16679 -0.51901,0.41255 -0.64887,0.71202 -0.11861,0.27353 -0.14316,0.57974 -0.12427,0.87728 0.0189,0.29754 0.0793,0.59064 0.12427,0.88537 0.18013,1.18079 0.11186,2.38326 0.14405,3.57728 0.0322,1.19401 0.17551,2.41908 0.73701,3.47332 0.59956,1.12569 1.64755,1.97653 2.82265,2.47227 1.17511,0.49575 2.47179,0.65517 3.74649,0.61296 2.54939,-0.0844 5.00469,-0.94613 7.52755,-1.32258 2.4915,-0.37178 5.05111,-0.27033 7.5024,-0.85083 1.22565,-0.29026 2.42289,-0.75606 3.44581,-1.49095 1.02293,-0.7349 1.86517,-1.75262 2.26758,-2.94615 0.47167,-1.39896 0.3383,-2.92075 0.20905,-4.39142 -0.12924,-1.47066 -0.20905,-2.94554 -0.20905,-4.42187 l 0,-10.57595 c 0,-1.18168 0.0671,-2.36208 0.17568,-3.53876 0.1086,-1.17668 0.22017,-2.39846 -0.17568,-3.51187 -0.30822,-0.86692 -0.9231,-1.60747 -1.67037,-2.14424 -0.74727,-0.53678 -1.62238,-0.87811 -2.52025,-1.07905 -1.79573,-0.40188 -3.66135,-0.25544 -5.50091,-0.30199 -3.1456,-0.0796 -6.25087,-0.72849 -9.39175,-0.91819 -3.14089,-0.1897 -6.44487,0.12716 -9.11026,1.79955 -2.14686,1.34704 -3.75079,3.56183 -4.27579,6.04133 -0.52501,2.4795 0.0614,5.1899 1.63268,7.17854 0.9144,1.1573 2.11896,2.0497 3.35652,2.85213 1.23756,0.80244 2.52643,1.53178 3.69182,2.43584 0.81363,0.63118 1.59058,1.36045 2.56663,1.68865 0.48802,0.1641 1.0215,0.21916 1.52077,0.0934 0.49927,-0.12581 0.95945,-0.44484 1.1989,-0.90065 0.2273,-0.43268 0.24113,-0.96119 0.0833,-1.42376 -0.15781,-0.46257 -0.47683,-0.86047 -0.86438,-1.15826 -0.7751,-0.59558 -1.77784,-0.78922 -2.74311,-0.94333 -4.65481,-0.74317 -9.383,-0.88131 -14.09677,-0.88131 l -2.64311,0 c -0.14713,0 -0.29421,-0.005 -0.44112,-0.013 -0.14691,-0.008 -0.2958,-0.0166 -0.43994,0.013 -0.26208,0.0537 -0.48818,0.23873 -0.61755,0.47289 -0.12937,0.23417 -0.16682,0.51269 -0.13246,0.77799 0.0344,0.26531 0.13735,0.51834 0.27302,0.74891 0.13567,0.23057 0.30373,0.44033 0.47699,0.64417 2.85599,3.36013 7.16196,5.19235 11.49214,6.02704 4.33018,0.83468 8.77385,0.78259 13.17715,1.0236 0.62826,0.0344 1.26275,0.0745 1.88318,-0.0302 0.62043,-0.10466 1.23566,-0.36988 1.64099,-0.85113 0.40101,-0.47612 0.55956,-1.12459 0.52435,-1.74609 -0.0352,-0.62151 -0.24962,-1.22063 -0.52435,-1.77923 -0.6553,-1.3324 -1.65978,-2.47515 -2.82051,-3.40112 -1.16072,-0.92598 -2.4764,-1.64267 -3.83607,-2.23934 -2.71933,-1.19334 -5.62854,-1.9204 -8.32117,-3.17283 -1.1844,-0.5509 -2.35128,-1.2109 -3.6445,-1.39497 -0.64661,-0.092 -1.31928,-0.0585 -1.93227,0.1669 -0.61299,0.22543 -1.16222,0.65285 -1.47157,1.22807 -0.28467,0.52932 -0.35444,1.15182 -0.31293,1.75139 0.0415,0.59958 0.18778,1.1861 0.31293,1.77393 0.40646,1.90919 0.59946,3.88058 1.31276,5.69756 0.35664,0.90849 0.84563,1.77379 1.51142,2.48742 0.66579,0.71364 1.51569,1.27089 2.46203,1.50962 0.71473,0.1803 1.46283,0.17673 2.19841,0.12897 0.73558,-0.0478 1.46976,-0.1386 2.20682,-0.12897 0.88316,0.0115 1.77573,0.16663 2.64311,0 0.61725,-0.11858 1.20064,-0.40043 1.68622,-0.79951 0.48558,-0.39908 0.87344,-0.91379 1.13614,-1.48479 0.52542,-1.142 0.53423,-2.48987 0.12368,-3.678 -0.41054,-1.18813 -1.21973,-2.21807 -2.21273,-2.98888 -0.99301,-0.77082 -2.16422,-1.2919 -3.37642,-1.62473 -3.13422,-0.86054 -6.46581,-0.48233 -9.69144,-0.88135 -0.44108,-0.0546 -0.88111,-0.12378 -1.32506,-0.1447 -0.44395,-0.0209 -0.89532,0.008 -1.31814,0.1447 -0.77682,0.25161 -1.40779,0.86174 -1.78782,1.58447 -0.38003,0.72272 -0.52617,1.55055 -0.53437,2.36706 -0.0164,1.63302 0.49511,3.22995 0.56015,4.86176 0.0704,1.76649 -0.38184,3.56177 0,5.28793 0.37818,1.70963 1.5668,3.17487 3.04474,4.11378 1.47793,0.93891 3.2249,1.38849 4.96935,1.53933 3.48889,0.30168 6.99005,-0.53708 10.48774,-0.36513 1.81124,0.089 3.60341,0.4486 5.41635,0.4908 0.90647,0.0211 1.81915,-0.0382 2.70128,-0.24789 0.88213,-0.20971 1.73467,-0.57361 2.45506,-1.12422 0.7531,-0.57561 1.34748,-1.34515 1.773,-2.19216 0.42551,-0.84701 0.68611,-1.77066 0.83143,-2.70734 0.29065,-1.87336 0.12622,-3.7827 0.0386,-5.67645 -0.12762,-2.75803 -0.0915,-5.53217 -0.49444,-8.26359 -0.40295,-2.73142 -1.28136,-5.46335 -3.02964,-7.60029 -1.28507,-1.57075 -2.99938,-2.76275 -4.86316,-3.56585 -1.86378,-0.80311 -3.87561,-1.22785 -5.89729,-1.40525 -4.04337,-0.3548 -8.09922,0.26274 -12.14689,0.56448 -2.05299,0.15304 -4.12079,0.22459 -6.16719,0 -1.17712,-0.12919 -2.39381,-0.35268 -3.52426,0 -0.58955,0.18393 -1.1276,0.52104 -1.56789,0.9541 -0.44029,0.43306 -0.7839,0.96048 -1.02523,1.52895 -0.48267,1.13693 -0.55187,2.41667 -0.38511,3.64051 0.33353,2.44768 1.56,4.68518 2.09726,7.09635 0.48065,2.15711 0.39801,4.39726 0.23462,6.60123 -0.16339,2.20396 -0.40516,4.41522 -0.23462,6.61864 0.43296,5.59402 3.60275,10.80808 8.06508,14.20928 4.46234,3.40119 10.11351,5.06338 15.72305,5.17992 2.05574,0.0427 4.11425,-0.11218 6.16737,0 1.06299,0.0581 2.12638,0.1877 3.18902,0.12352 1.06264,-0.0642 2.14664,-0.3403 2.97834,-1.00483 0.72447,-0.57885 1.21137,-1.42086 1.46333,-2.31329 0.25196,-0.89244 0.28114,-1.83546 0.20204,-2.7594 -0.15821,-1.84788 -0.7403,-3.64909 -0.78439,-5.50321 -0.035,-1.47162 0.26959,-2.95949 0,-4.40663 -0.20289,-1.08909 -0.72967,-2.10654 -1.44934,-2.94877 -0.71968,-0.84222 -1.62779,-1.51355 -2.61447,-2.01727 -1.97336,-1.00745 -4.22152,-1.35194 -6.43516,-1.44611 -4.42729,-0.18834 -8.85787,0.24283 -13.28916,0.24283 l -6.16737,0 c -0.44846,0 -0.89536,-0.0454 -1.33785,-0.11829 -0.22125,-0.0364 -0.44427,-0.0714 -0.66843,-0.066 -0.22416,0.005 -0.45344,0.0553 -0.63683,0.18428 -0.19295,0.13575 -0.32092,0.35165 -0.37819,0.5805 -0.0573,0.22886 -0.0482,0.47029 -0.006,0.70233 0.0852,0.46407 0.30042,0.89672 0.38377,1.36113 0.0781,0.43516 0.0377,0.8818 -0.002,1.32211 -0.0399,0.4403 -0.0788,0.88727 0.002,1.3219 0.12562,0.67391 0.53957,1.27514 1.07825,1.69913 0.53867,0.424 1.19513,0.68048 1.86686,0.81729 1.34346,0.27364 2.73283,0.0857 4.10324,0.12755 2.58083,0.0788 5.06142,0.96973 7.60889,1.39074 1.27374,0.21051 2.57839,0.30299 3.8557,0.11541 1.27732,-0.18759 2.53094,-0.66831 3.51315,-1.50615 0.81586,-0.69594 1.42542,-1.62585 1.76214,-2.64397 0.41789,-1.26357 0.41718,-2.62679 0.30889,-3.95327 -0.10829,-1.32647 -0.3199,-2.64783 -0.30889,-3.97867 0.01,-1.17726 0.19322,-2.36399 0,-3.52532 -0.17591,-1.05732 -0.66486,-2.0534 -1.35244,-2.87566 -0.68757,-0.82226 -1.56931,-1.47337 -2.53452,-1.93947 -1.93042,-0.93218 -4.14726,-1.11741 -6.28446,-0.95048 -2.1372,0.16694 -4.23198,0.66724 -6.342,1.04581 -2.11002,0.37857 -4.27447,0.63595 -6.39374,0.31318 -0.59106,-0.09 -1.17635,-0.2249 -1.77255,-0.26964 -0.5962,-0.0447 -1.21508,0.006 -1.75171,0.26964 -0.49136,0.24137 -0.88794,0.65065 -1.17245,1.11836 -0.28451,0.46771 -0.46287,0.99303 -0.58959,1.52561 -0.47862,2.01151 -0.24034,4.11563 0,6.16928 0.36093,3.08409 0.72269,6.17888 1.48427,9.18919 0.76157,3.0103 1.94005,5.95244 3.80203,8.43738 2.28616,3.05104 5.5386,5.30584 9.08134,6.71451 3.54274,1.40868 7.37141,2.00211 11.18271,2.09874 2.0552,0.0521 4.11175,-0.0371 6.16728,0 0.90816,0.0164 1.81947,0.0574 2.72264,-0.0391 0.90318,-0.0964 1.80798,-0.33818 2.56357,-0.84227 0.79376,-0.52955 1.38766,-1.33085 1.74282,-2.21648 0.35517,-0.88564 0.4802,-1.85281 0.44812,-2.80647 -0.0642,-1.90731 -0.73591,-3.73292 -1.30988,-5.55295 -0.66672,-2.1141 -1.21329,-4.27503 -2.11426,-6.30041 -0.90097,-2.02539 -2.19904,-3.94164 -4.05301,-5.15685 -0.90032,-0.59013 -1.92061,-1.00368 -2.98437,-1.16873 -1.06376,-0.16504 -2.17038,-0.0781 -3.18291,0.28742 -1.06553,0.38465 -1.99651,1.0594 -2.97328,1.63319 -0.97676,0.5738 -2.06245,1.06268 -3.19409,1.01078 -0.63644,-0.0292 -1.25518,-0.22976 -1.83131,-0.50175 -0.57613,-0.27199 -1.11523,-0.6151 -1.65856,-0.94781 -0.54333,-0.33272 -1.09557,-0.65741 -1.68934,-0.88838 -0.59377,-0.23096 -1.23486,-0.36607 -1.86913,-0.30603 -0.96613,0.0915 -1.86481,0.64779 -2.43237,1.43497 -0.56755,0.78718 -0.81145,1.78739 -0.73781,2.75504 0.0736,0.96765 0.45361,1.90037 1.0218,2.6871 0.56818,0.78673 1.31948,1.43146 2.14838,1.93614 2.09064,1.27289 4.60364,1.64233 7.04834,1.76266 3.81406,0.18773 7.63842,-0.16389 11.45358,0 0.58744,0.0252 1.17749,0.0626 1.76213,0 1.68211,-0.18015 3.22042,-1.21428 4.15026,-2.62756 0.92983,-1.41328 1.27388,-3.17067 1.09941,-4.85339 -0.17447,-1.68271 -0.84516,-3.29146 -1.78866,-4.69566 -0.94351,-1.40419 -2.15388,-2.61331 -3.46101,-3.68727 -3.00457,-2.4686 -6.64539,-4.28173 -10.51855,-4.62819 -1.93658,-0.17322 -3.91301,0.0245 -5.75466,0.64795 -1.84165,0.62345 -3.54491,1.67786 -4.8719,3.09893 -0.97875,1.04813 -1.74124,2.30466 -2.16493,3.67471 -0.42369,1.37004 -0.47827,2.82313 -0.47827,4.25719 l 0,3.52536 c 0,1.1758 -0.13163,2.35686 0,3.52527 0.12677,1.1252 0.58216,2.20455 1.25753,3.11341 0.67537,0.90886 1.56611,1.64937 2.55802,2.19551 1.98382,1.09227 4.32342,1.39496 6.58422,1.26318 4.52161,-0.26356 8.85926,-2.16593 13.38854,-2.16543 1.41218,1.6e-4 2.82794,0.18632 4.23294,0.0441 0.70249,-0.0711 1.4013,-0.22596 2.04459,-0.51707 0.64328,-0.29111 1.23046,-0.7231 1.65179,-1.28971 0.40359,-0.54275 0.64518,-1.19277 0.77935,-1.85569 0.13418,-0.66292 0.16639,-1.34244 0.16765,-2.01879 0.003,-1.35272 -0.0659,-2.7047 -0.0659,-4.05742 l 0,-5.28797 c 0,-1.46974 0.16193,-2.94584 0,-4.40663 -0.24863,-2.24284 -1.53039,-4.30123 -3.27518,-5.73225 -1.7448,-1.43103 -3.92152,-2.27004 -6.14392,-2.66128 -4.44481,-0.78249 -8.9856,0.15214 -13.48814,0.46155 -2.34565,0.16119 -4.70206,0.1518 -7.04834,0 -1.175,-0.076 -2.3617,-0.18723 -3.52418,0 -1.50214,0.24193 -2.91393,0.99175 -3.97408,2.0831 -1.06015,1.09135 -1.76644,2.51617 -2.01856,4.01663 -0.25212,1.50047 -0.0527,3.0703 0.54287,4.47041 0.59553,1.4001 1.58246,2.62764 2.80667,3.53112 1.95248,1.44095 4.41322,2.02073 6.82927,2.24697 2.41606,0.22625 4.85511,0.13365 7.26741,0.397 3.43505,0.37501 6.75185,1.46388 10.16136,2.0255 1.70475,0.28081 3.44026,0.42927 5.16206,0.28627 1.7218,-0.143 3.43381,-0.58512 4.94063,-1.43042 2.74578,-1.54034 4.64485,-4.36013 5.45347,-7.40284 0.80861,-3.04271 0.60068,-6.28918 -0.16717,-9.34243 -0.80822,-3.21376 -2.24803,-6.29778 -4.40532,-8.81325 -2.78995,-3.25316 -6.86361,-5.49281 -11.14668,-5.64167 -2.14153,-0.0744 -4.3067,0.3703 -6.21836,1.33843 -1.91166,0.96813 -3.56206,2.46369 -4.66105,4.30324 -0.81361,1.36186 -1.31771,2.88374 -1.76204,4.40663 -0.79973,2.74095 -1.4293,5.55089 -1.54057,8.40396 -0.11126,2.85307 0.31384,5.76299 1.54057,8.34127 1.45628,3.06074 4.00568,5.54119 6.98425,7.15888 2.97858,1.61769 6.36878,2.40114 9.75563,2.53571 1.76086,0.07 3.52422,-0.0305 5.28621,0 1.48194,0.0257 2.98266,0.14245 4.43227,-0.16646 0.72481,-0.15446 1.43221,-0.41734 2.04889,-0.82833 0.61668,-0.41099 1.14018,-0.9752 1.44834,-1.64917 0.37159,-0.81268 0.41511,-1.73881 0.33856,-2.62913 -0.0765,-0.89033 -0.26629,-1.76817 -0.33856,-2.65885 -0.14267,-1.75833 0.17469,-3.53253 0,-5.28797 -0.16405,-1.6485 -0.76564,-3.24314 -1.67302,-4.62919 -0.90737,-1.38605 -2.11549,-2.56577 -3.48369,-3.49983 -2.73641,-1.86813 -6.05715,-2.73217 -9.35993,-2.99578 -6.60555,-0.5272 -13.25111,1.21416 -19.84419,0.54885 -1.17953,-0.11903 -2.35176,-0.31483 -3.53533,-0.38283 -1.18357,-0.068 -2.39238,-0.004 -3.51301,0.38283 -1.2219,0.42181 -2.29755,1.2189 -3.1355,2.20319 -0.83794,0.98429 -1.44533,2.15114 -1.86887,3.37245 -0.84709,2.44261 -0.9665,5.06647 -1.16291,7.64432 -0.0895,1.17483 -0.19606,2.36346 0,3.52527 0.26809,1.58864 1.10332,3.055 2.23997,4.19679 1.13665,1.14179 2.56369,1.97021 4.0761,2.52544 3.02481,1.11046 6.32115,1.1431 9.54266,1.20976 5.29474,0.10956 10.59004,0.34625 15.85881,0.8813 1.76135,0.17887 3.55919,0.38918 5.2863,0 1.28346,-0.28921 2.48479,-0.90685 3.50425,-1.73848 1.01946,-0.83163 1.85934,-1.87384 2.50668,-3.0192 1.2947,-2.29072 1.80832,-4.95191 1.91857,-7.58088 0.0862,-2.05492 -0.0618,-4.11354 0,-6.16933 0.0442,-1.47023 0.19535,-2.94875 0,-4.40662 -0.23274,-1.7369 -0.96052,-3.3943 -2.0172,-4.7923 -1.05669,-1.398 -2.43571,-2.53995 -3.96734,-3.39148 -3.06326,-1.70305 -6.66553,-2.22691 -10.16866,-2.11743 -7.00627,0.21894 -13.85642,2.83196 -20.85082,2.36927 -2.71259,-0.17944 -5.37983,-0.82063 -8.09367,-0.97997 -1.35692,-0.0797 -2.72823,-0.0373 -4.05856,0.24163 -1.33033,0.27893 -2.62147,0.80092 -3.70649,1.61965 -1.18757,0.89612 -2.10555,2.13816 -2.64329,3.52531 -0.86023,2.21905 -0.73939,4.67491 -0.88098,7.05064 -0.0701,1.17615 -0.20677,2.36536 0,3.52531 0.18269,1.02487 0.63329,1.99544 1.2626,2.82473 0.62931,0.82928 1.43439,1.519 2.32763,2.05365 1.78649,1.0693 3.89093,1.50811 5.97078,1.60405 4.15969,0.19189 8.34472,-0.91454 12.46518,-0.31315 2.49209,0.36373 4.87072,1.34301 7.3747,1.61291 1.25199,0.13495 2.53956,0.0866 3.73777,-0.30067 1.19821,-0.38728 2.30383,-1.13388 2.98412,-2.19355 0.64982,-1.01221 0.87846,-2.24126 0.92717,-3.44312 0.0487,-1.20185 -0.0685,-2.40488 -0.046,-3.60751 0.022,-1.17683 0.17735,-2.36171 0,-3.52531 -0.16015,-1.05074 -0.59251,-2.05426 -1.21496,-2.9158 -0.62245,-0.86155 -1.43213,-1.58228 -2.34013,-2.13477 -1.816,-1.10497 -3.99075,-1.52235 -6.11596,-1.47394 -4.2504,0.0968 -8.23672,1.94339 -12.35504,2.99919 -2.64454,0.67797 -5.39254,1.04114 -7.89424,2.1342 -1.25084,0.54653 -2.43357,1.27875 -3.3889,2.25378 -0.95532,0.97502 -1.67558,2.20338 -1.93256,3.544 -0.27721,1.44614 -0.012,2.93421 0,4.40663 0.01,1.17618 -0.14313,2.35779 0,3.52527 0.24745,2.01837 1.39579,3.87604 2.98215,5.14826 1.58636,1.27221 3.58252,1.98095 5.60578,2.18459 4.04653,0.40729 8.03052,-1.12344 11.67612,-2.92618 3.1048,-1.53532 6.23342,-3.32763 9.69144,-3.52532 2.35193,-0.13446 4.74302,0.48489 7.04834,0 1.28836,-0.27099 2.49555,-0.88421 3.51552,-1.71666 1.01997,-0.83245 1.85546,-1.88029 2.49673,-3.03011 1.28254,-2.29964 1.77864,-4.96237 1.91725,-7.59183 0.17016,-3.22794 -0.16888,-6.46659 0,-9.6946 0.0461,-0.88179 0.12984,-1.77058 0,-2.64397 -0.14864,-0.99989 -0.57909,-1.95156 -1.20251,-2.74731 -0.62342,-0.79576 -1.43628,-1.43679 -2.33887,-1.89199 -1.80517,-0.9104 -3.92854,-1.06251 -5.91848,-0.70523 -3.97987,0.71455 -7.32171,3.28971 -10.80419,5.34453 -1.48308,0.87509 -3.02653,1.67297 -4.34821,2.77682 -1.32167,1.10384 -2.42757,2.57348 -2.70022,4.27377 -0.11643,0.72606 -0.0827,1.46686 -0.0511,2.20152 0.0316,0.73465 0.0511,1.46981 0.0511,2.20515 l 0,5.28797 c 0,1.52469 -0.0105,3.05566 0.19773,4.56606 0.20824,1.5104 0.65699,3.0219 1.56431,4.24723 1.07914,1.45738 2.72895,2.39854 4.43634,3.00951 1.7074,0.61097 3.50295,0.93004 5.2552,1.39707 1.53313,0.40863 3.06018,0.93537 4.64644,0.97057 0.79313,0.0176 1.59613,-0.0918 2.33068,-0.39142 0.73456,-0.29965 1.39843,-0.79703 1.83344,-1.46045 0.58096,-0.88601 0.71725,-2.00044 0.62509,-3.05592 -0.0922,-1.05547 -0.39379,-2.07943 -0.62509,-3.11337 -0.54705,-2.44532 -0.7031,-4.96331 -1.20982,-7.4173 -0.50672,-2.454 -1.41685,-4.91887 -3.19542,-6.68396 -1.09043,-1.08216 -2.46296,-1.85309 -3.90975,-2.36972 -1.4468,-0.51663 -2.97116,-0.78933 -4.49977,-0.94257 -3.0572,-0.30649 -6.13889,-0.21298 -9.21142,-0.21298 l -5.2863,0 c -0.88128,0 -1.76439,-0.0671 -2.64311,0 -2.14366,0.16368 -4.12876,1.42429 -5.38275,3.17061 -1.25398,1.74631 -1.81278,3.93436 -1.7915,6.08416 0.0213,2.1498 0.59586,4.26674 1.43972,6.24411 0.84385,1.97737 1.95375,3.82875 3.09143,5.65297 0.77926,1.2495 1.58365,2.5025 2.6431,3.52527 1.26469,1.22091 2.85698,2.07139 4.53206,2.60446 1.67508,0.53307 3.43503,0.759 5.19118,0.83629 3.51231,0.15459 7.04353,-0.27499 10.54081,0.0846 0.884,0.0909 1.76341,0.23205 2.65079,0.27981 0.88737,0.0478 1.79184,-6.4e-4 2.63551,-0.27981 1.32745,-0.43925 2.42851,-1.43689 3.15366,-2.63239 0.72516,-1.19551 1.09698,-2.57901 1.25443,-3.96836 0.3149,-2.77869 -0.19539,-5.59194 -0.003,-8.38178 0.10173,-1.474 0.39606,-2.98324 0,-4.40667 -0.40054,-1.43952 -1.46568,-2.60543 -2.6432,-3.52527 -2.43379,-1.90119 -5.4707,-2.97166 -8.5496,-3.21301 -3.0789,-0.24136 -6.19528,0.32507 -9.07134,1.45031 -0.61299,0.23983 -1.2205,0.50717 -1.76204,0.88135 -0.96556,0.66717 -1.68758,1.66216 -2.088,2.76538 -0.40042,1.10322 -0.48669,2.30958 -0.3167,3.47084 0.33997,2.32253 1.67033,4.39932 3.28567,6.10238 3.98743,4.20397 9.67286,6.40749 15.35635,7.53481 5.68349,1.12732 11.51161,1.30453 17.24235,2.1598 1.1749,0.17534 2.34858,0.3795 3.53507,0.43751 1.1865,0.058 2.39577,-0.0346 3.51327,-0.43751 1.5792,-0.56935 2.90417,-1.74642 3.79084,-3.17185 0.88668,-1.42543 1.35243,-3.08754 1.49546,-4.76014 0.15025,-1.75703 -0.0443,-3.52504 0,-5.28793 0.0444,-1.76652 0.32706,-3.55142 0,-5.28797 -0.45139,-2.3967 -2.06608,-4.48379 -4.11445,-5.80746 -2.04837,-1.32367 -4.49661,-1.93477 -6.93152,-2.07299 -4.86983,-0.27642 -9.64885,1.24593 -14.50429,1.71112 -1.505,0.14419 -3.02023,0.18684 -4.51764,0.3956 -1.49741,0.20875 -2.99419,0.59288 -4.29283,1.36706 -2.08995,1.24592 -3.54244,3.52558 -3.73366,5.95121 -0.0956,1.21282 0.11222,2.44929 0.60601,3.56115 0.49378,1.11186 1.2732,2.09646 2.24658,2.82625 0.68714,0.51518 1.46417,0.90243 2.14203,1.42975 0.33893,0.26366 0.65326,0.56345 0.90074,0.91437 0.24748,0.35091 0.42667,0.75529 0.4814,1.18119 0.0632,0.49194 -0.0423,0.9973 -0.25437,1.44567 -0.21205,0.44838 -0.52703,0.84254 -0.88492,1.18593 -0.71578,0.68678 -1.59627,1.17328 -2.38488,1.77503 -1.75304,1.33765 -3.04001,3.26448 -3.64485,5.385 -0.60484,2.12052 -0.53101,4.42288 0.16834,6.51413 0.69934,2.09126 2.0162,3.96575 3.71959,5.36608 1.70338,1.40033 3.78556,2.32667 5.95938,2.69675 4.34764,0.74014 8.95583,-0.81762 12.18707,-3.8191 3.23124,-3.00148 5.10193,-7.33605 5.39869,-11.73624 0.15818,-2.34538 0,-4.69988 0,-7.05059 l 0,-9.6946 c 0,-1.47266 0.0567,-2.94458 0.14879,-4.41436 0.0921,-1.46977 0.18908,-2.96555 -0.14879,-4.39893 -0.27546,-1.16861 -0.84628,-2.25945 -1.6032,-3.19144 -0.75692,-0.93198 -1.69703,-1.70794 -2.72642,-2.3259 -2.05879,-1.23592 -4.44191,-1.83995 -6.82453,-2.13871 -4.76522,-0.59753 -9.59357,-0.27589 -14.39611,-0.27589 l -3.52435,0 c -0.2943,0 -0.58847,-0.0103 -0.88229,-0.0271 -0.29383,-0.0167 -0.59195,-0.0344 -0.87975,0.0271 -0.39045,0.0834 -0.74085,0.31699 -0.99772,0.62266 -0.25687,0.30567 -0.42409,0.68039 -0.51595,1.06895 -0.18372,0.77712 -0.0792,1.59216 0.0688,2.37688 0.14795,0.78471 0.33442,1.56282 0.43963,2.3544 0.10521,0.79159 0.12426,1.59182 0.12426,2.39036 l 0,7.05067 c 0,2.05198 0.0575,4.12698 0.59935,6.10613 0.54186,1.97914 1.54331,3.83389 2.92483,5.35113 1.46443,1.6083 3.32425,2.83148 5.32603,3.6824 2.00178,0.85091 4.14511,1.33819 6.30541,1.59174 4.3206,0.50711 8.68828,0.0918 13.03784,0.0138 2.53232,-0.0454 5.10659,0.0188 7.54645,-0.66081 1.21992,-0.33979 2.39708,-0.86842 3.40005,-1.64155 1.00297,-0.77313 1.82679,-1.799 2.26921,-2.98557 0.46602,-1.24986 0.49577,-2.62056 0.38939,-3.95022 -0.10637,-1.32967 -0.34292,-2.64866 -0.38939,-3.98176 -0.0718,-2.05811 0.30986,-4.13336 0,-6.16928 -0.41274,-2.71188 -2.0601,-5.14971 -4.23163,-6.82576 -2.17152,-1.67604 -4.8331,-2.63547 -7.53908,-3.08524 -5.41197,-0.89955 -10.93687,0.15563 -16.42275,0.2164 -2.73449,0.0303 -5.4753,-0.1872 -8.20071,0.0375 -2.72541,0.22468 -5.49525,0.93303 -7.6581,2.60648 -1.37511,1.06395 -2.45898,2.49178 -3.15613,4.08454 -0.69714,1.59277 -1.01036,3.3466 -0.95356,5.08432 0.1136,3.47545 1.7146,6.81808 4.10969,9.33903 3.13339,3.29806 7.50368,5.20773 11.95908,6.12687 4.45539,0.91913 9.04197,0.92377 13.59118,0.92377 l 4.40533,0 c 0.29617,0 0.59185,0.0208 0.88611,0.0543 0.14714,0.0168 0.29482,0.0329 0.44289,0.0305 0.14806,-0.002 0.29787,-0.0241 0.43295,-0.0848 0.22483,-0.101 0.39356,-0.30657 0.47855,-0.53793 0.085,-0.23135 0.0915,-0.48634 0.0502,-0.72933 -0.0826,-0.48597 -0.34555,-0.91912 -0.52876,-1.37675 -0.38612,-0.96448 -0.415,-2.03544 -0.32843,-3.07072 0.0866,-1.03528 0.28293,-2.06067 0.32843,-3.09857 0.12534,-2.85945 -0.92939,-5.71012 -2.68836,-7.96805 -1.75896,-2.25793 -4.18777,-3.94392 -6.82575,-5.05446 -5.27594,-2.22106 -11.19689,-2.17342 -16.91731,-1.96006 -2.9368,0.10954 -5.88247,0.25323 -8.81038,0 -0.58735,-0.0508 -1.18424,-0.11707 -1.76204,0 -0.53033,0.10746 -1.02519,0.3692 -1.42954,0.72877 -0.40436,0.35957 -0.71937,0.81487 -0.93679,1.31038 -0.43482,0.99101 -0.47525,2.11903 -0.30479,3.18773 0.34093,2.13739 1.47915,4.08843 1.79014,6.23038 0.29591,2.03808 -0.17568,4.11738 0,6.16932 0.17156,2.00383 0.96908,3.93475 2.17528,5.54405 1.2062,1.60931 2.81088,2.90219 4.59059,3.83889 3.55942,1.87341 7.72043,2.30662 11.73605,2.07431 3.23999,-0.18744 6.5409,-0.77857 9.69154,0 2.11115,0.5217 4.06483,1.64317 6.22123,1.9243 1.0782,0.14057 2.20827,0.0573 3.19221,-0.40545 0.49196,-0.23138 0.94219,-0.55636 1.29998,-0.96569 0.3578,-0.40933 0.62145,-0.90394 0.74007,-1.4345 0.1285,-0.57473 0.0915,-1.172 0.0565,-1.75988 -0.035,-0.58787 -0.0565,-1.17652 -0.0565,-1.76544 l 0,-2.64401 c 0,-0.58798 0.0738,-1.17927 0,-1.76261 -0.0941,-0.74424 -0.51406,-1.4296 -1.09471,-1.90456 -0.58066,-0.47496 -1.31217,-0.74715 -2.05707,-0.8359 -1.4898,-0.17751 -2.97146,0.35116 -4.33003,0.9878 -1.35856,0.63665 -2.68075,1.39688 -4.14312,1.73223 -0.73119,0.16767 -1.49428,0.22494 -2.23368,0.0983 -0.73941,-0.12661 -1.45483,-0.44402 -2.00012,-0.9592 -0.57038,-0.53888 -0.93023,-1.26259 -1.4517,-1.84893 -0.26074,-0.29317 -0.56651,-0.55408 -0.92536,-0.71269 -0.35886,-0.15861 -0.77547,-0.2079 -1.1472,-0.0824 -0.38509,0.13002 -0.69441,0.43893 -0.87809,0.80151 -0.18369,0.36257 -0.25064,0.7753 -0.25168,1.18175 -0.002,0.8129 0.24829,1.61047 0.24871,2.42337 6.3e-4,1.21916 -0.55406,2.35798 -0.94019,3.51438 -0.19306,0.5782 -0.34656,1.17579 -0.36613,1.78505 -0.0196,0.60927 0.102,1.23444 0.42534,1.7512 0.24498,0.39153 0.5988,0.70951 0.99887,0.94026 0.40007,0.23076 0.84568,0.37664 1.30024,0.45839 0.90912,0.16349 1.84389,0.0791 2.75939,-0.0437 1.83099,-0.24568 3.66662,-0.47357 5.51402,-0.47357 l 3.52417,0 0.88106,0 c 2.04733,5.17008 1.35165,11.25141 -1.45535,16.05163 -2.807,4.80019 -7.6011,8.32319 -12.92982,9.91259 -5.32871,1.5894 -11.15424,1.2989 -16.40104,-0.543 -5.24679,-1.8418 -9.92127,-5.20084 -13.51211,-9.44669 -7.18168,-8.49169 -9.87117,-20.36655 -7.9552,-31.32166 1.91598,-10.95511 8.31069,-21.04503 17.34025,-27.53752 9.02957,-6.49255 20.74185,-9.32844 31.64288,-7.12521 5.45051,1.10161 10.6625,3.43832 15.03267,6.87681 4.37018,3.43849 7.885,7.98647 9.96724,13.14262 2.08224,5.15615 2.70816,10.91725 1.60892,16.36824 -1.09925,5.45098 -3.94748,10.56489 -8.13069,14.22855 -4.1832,3.66366 -9.69858,5.82425 -15.25911,5.77894 -5.56054,-0.0453 -11.10683,-2.34395 -14.92639,-6.3853 -0.61029,0.24388 -1.18771,0.56198 -1.76213,0.88131 -2.88319,1.60316 -5.83199,3.2955 -9.10441,3.71283 -1.63621,0.20867 -3.3343,0.0809 -4.86734,-0.52779 -1.53304,-0.60871 -2.88992,-1.72072 -3.64919,-3.18504 -0.83092,-1.60293 -0.88098,-3.48248 -0.88098,-5.28797 l 0,-17.62654 c 0,-1.96112 -0.16628,-3.91632 -0.31985,-5.87141 -0.0768,-0.97755 -0.1189,-1.96567 0.0294,-2.93494 0.14832,-0.96928 0.50491,-1.93167 1.1714,-2.6509 0.72273,-0.77992 1.73698,-1.20627 2.6431,-1.76266 0.90587,-0.55624 1.71577,-1.25262 2.55644,-1.90322 0.84067,-0.6506 1.72875,-1.26464 2.72986,-1.6221 1.25479,-0.44803 2.62195,-0.46954 3.95014,-0.36406 1.32819,0.10548 2.64735,0.33267 3.97936,0.36406 2.69562,0.0635 5.33724,-0.67364 8.00648,-1.05521 1.33462,-0.19079 2.68982,-0.2929 4.0315,-0.16062 1.34168,0.13229 2.67415,0.50666 3.82075,1.21583 1.42069,0.8787 2.4852,2.21733 3.52426,3.52532 1.99093,2.50622 4.00564,5.01 5.63458,7.76526 1.62895,2.75526 2.87031,5.79382 3.17589,8.97997 0.33703,3.51402 -0.46989,7.07718 0,10.57591 0.29145,2.17009 1.06851,4.2605 1.25891,6.44177 0.0952,1.09064 0.0393,2.20653 -0.2929,3.2497 -0.33221,1.04316 -0.95543,2.0119 -1.84708,2.64713 -0.53619,0.38199 -1.15176,0.63459 -1.76213,0.88131 -5.69955,2.30387 -11.53745,4.40264 -17.62094,5.28798 -3.50221,0.50968 -7.08634,0.60982 -10.57251,0 -5.09076,-0.8905 -9.82076,-3.26666 -14.09669,-6.16929 -2.0851,-1.41543 -4.14774,-3.03969 -5.2863,-5.28797 -1.07527,-2.12331 -1.21667,-4.59441 -1.11028,-6.97208 0.10639,-2.37768 0.43888,-4.75834 0.22931,-7.12915 -0.27001,-3.05443 -1.42758,-5.96013 -1.93242,-8.98463 -0.25242,-1.51225 -0.33954,-3.06741 -0.0669,-4.57616 0.27261,-1.50874 0.9232,-2.97376 1.99935,-4.06578 0.83506,-0.84737 1.89075,-1.44178 2.96368,-1.95579 1.07292,-0.51401 2.18138,-0.96084 3.20359,-1.56949 0.91009,-0.54188 1.74185,-1.20625 2.64311,-1.7627 2.04036,-1.25976 4.39855,-1.93896 6.77628,-2.2495 2.37774,-0.31055 4.78695,-0.26552 7.18273,-0.16392 4.79155,0.20322 9.75641,0.60495 14.23445,-1.11186 1.51489,-0.58079 2.96126,-1.40091 4.56326,-1.65742 0.801,-0.12825 1.6371,-0.10803 2.40416,0.15592 0.76706,0.26394 1.46008,0.78634 1.84296,1.5015 0.15592,0.29124 0.25844,0.60739 0.38142,0.914 0.12298,0.30661 0.2708,0.61042 0.49964,0.84867 0.32713,0.34058 0.7904,0.51654 1.25144,0.61877 0.46103,0.10223 0.93524,0.14138 1.39167,0.26253 1.28381,0.34077 2.32935,1.31442 3.01819,2.45011 0.68884,1.13569 1.06259,2.43117 1.38713,3.71918 0.29596,1.17458 0.55741,2.35804 0.88098,3.52531 0.7446,2.6861 1.81365,5.27089 2.6432,7.93198 0.84927,2.72435 1.44819,5.54329 1.5309,8.39574 0.0827,2.85245 -0.36397,5.7453 -1.5309,8.34945 -1.53477,3.42503 -4.27448,6.23454 -7.47864,8.18895 -3.20416,1.9544 -6.85827,3.09042 -10.56379,3.68666 -7.41103,1.19247 -14.98151,0.28198 -22.48568,0.46295 -1.83627,0.0443 -3.70157,0.15129 -5.4848,-0.28908 -0.89162,-0.22019 -1.75584,-0.57949 -2.49877,-1.11941 -0.74294,-0.53992 -1.36118,-1.26637 -1.70796,-2.11678 -0.27931,-0.68496 -0.37859,-1.43201 -0.38918,-2.17165 -0.0106,-0.73965 0.0633,-1.47768 0.14024,-2.21339 0.15382,-1.47143 0.24894,-2.9488 0.24894,-4.42825 l 0,-22.03316"
       id="path8822-2"
       inkscape:path-effect="#path-effect8824-8"
       inkscape:original-d="m 165.66406,967.02398 c -7.88029,3.10917 1.57606,-4.49968 0,-5.28797 -0.52529,-0.26276 -1.17469,0 -1.76204,0 -0.58698,0 -3.33249,-0.19171 -3.52417,0 -0.74375,0.74391 -1.40518,8.28901 -0.88106,8.81329 1.63738,1.63796 5.91453,0.88131 7.9294,0.88131 0.54954,0 4.83745,0.44895 5.28621,0 0.2077,-0.2077 0,-0.58752 0,-0.88131 0,-0.2938 0.27871,-0.78845 0,-0.88131 -0.83574,-0.27872 -1.81812,0.30944 -2.64319,0 -1.60329,-0.60151 -3.19427,-3.85529 -4.40515,-2.64401 -1.46841,1.46886 0.65167,4.1047 0.88116,6.16928 0.13134,1.18293 -0.22633,4.29347 0,4.40667 0.52529,0.26276 1.1746,0 1.76195,0 0.58735,0 1.23675,0.26276 1.76204,0 3.46012,-1.73057 3.46474,-17.20076 1.76222,-17.62658 -0.85474,-0.21374 -1.76222,0 -2.64311,0 -1.58917,0 -3.13022,-0.3941 -4.40532,0.88135 -4.94075,4.94232 0.88106,0.30422 0.88106,6.16928 0,1.71299 -2.97888,2.72689 -2.6431,4.40663 0.23039,1.15231 2.34947,0 3.52426,0 2.18457,0 6.45285,1.21569 7.04834,-1.76262 1.81731,-9.08943 -5.03754,-7.05063 -11.45367,-7.05063 -0.88106,0 -1.76204,0 -2.6431,0 -0.29372,0 -0.74972,-0.26277 -0.88107,0 -0.65673,1.31378 0,2.93776 0,4.40662 0,5.91014 5.2256,4.40663 9.69145,4.40663 1.4685,0 3.1835,0.81478 4.40523,0 1.40636,-0.9379 0.88116,-4.46128 0.88116,-5.28798 0,-1.46875 0.82426,-7.67601 -0.88116,-8.81325 -1.80084,-1.201 -9.57918,-1.87495 -11.45357,0 -1.03829,1.03866 -1.98647,2.2115 -2.64311,3.52532 -1.06614,2.13306 -2.07195,12.62427 0.88107,14.10122 4.52138,2.26143 8.46465,1.76266 13.21561,1.76266 1.46851,0 2.93683,0 4.40524,0 0.88107,0 1.88769,0.45341 2.6432,0 2.4137,-1.44868 1.76213,-3.99551 1.76213,-6.16928 0,-1.46891 0,-2.93777 0,-4.40667 0,-1.17506 0.58282,-2.50502 0,-3.52527 -2.3626,-4.13577 -23.86647,-6.92024 -26.43151,-2.64401 -0.45329,0.75575 0,1.76266 0,2.64401 0,1.1751 0,2.35021 0,3.52527 0,0.88135 0,1.7627 0,2.64401 0,0.88135 -0.6229,2.02077 0,2.64397 3.4025,3.40341 20.34013,5.9019 23.78831,1.76265 3.03135,-3.63878 2.6432,-8.83517 2.6432,-13.21991 0,-0.88131 0.62289,-2.02074 0,-2.64397 -1.85983,-1.86029 -13.92907,-2.56603 -16.73997,-1.76265 -1.01811,0.29099 -1.96521,0.94896 -2.64311,1.76265 -3.26347,3.91749 -2.6431,9.43535 -2.6431,14.10123 0,0.58755 -0.41539,1.34719 0,1.76265 3.9799,3.98122 9.09957,2.64397 14.09677,2.64397 2.02437,0 5.61865,0.52553 7.04834,-1.76261 1.21187,-1.93974 1.60682,-19.34362 0,-21.15186 -3.50825,-3.94796 -18.13104,-6.51146 -22.90724,-3.52536 -5.19178,3.246 -7.04835,16.30823 -7.04835,22.03321 0,1.1751 0,2.35021 0,3.52531 0,0.88131 -0.66894,2.07044 0,2.64401 3.58542,3.07421 23.51857,6.84671 28.19346,5.28793 5.51163,-1.83776 3.52417,-11.82071 3.52417,-15.86388 0,-2.05641 0,-4.11287 0,-6.16928 0,-1.17511 0.41249,-2.42505 0,-3.52532 -2.69611,-7.19192 -14.29976,-6.16932 -20.26405,-6.16932 -1.76204,0 -3.56614,-0.38235 -5.28639,0 -0.92195,0.20501 -3.78659,2.59722 -4.40515,3.52532 -2.36214,3.54443 -1.76204,6.55068 -1.76204,10.57594 0,1.17511 0,2.35021 0,3.52532 0,1.1751 -0.83068,2.69439 0,3.52527 2.4318,2.43261 9.19384,3.28368 12.33465,3.52532 1.75688,0.1352 3.52426,0 5.28621,0 1.17478,0 2.50425,0.58302 3.52426,0 6.04796,-3.45706 4.40515,-16.33222 4.40515,-21.15185 0,-0.57466 0.41538,-13.19947 -0.88089,-14.98253 -3.53159,-4.85743 -11.60573,-4.40667 -16.73997,-4.40667 -1.17469,0 -2.5682,-0.68299 -3.52426,0 -0.77622,0.55475 -5.19096,9.25003 -5.28621,9.6946 -0.34239,1.59824 -0.62498,16.78858 0,18.50789 0.64271,1.76783 1.97814,3.33591 3.52417,4.40666 6.12105,4.23899 8.95177,3.54292 15.8589,4.40658 1.60781,0.20108 12.54071,1.91903 14.0966,0.88135 3.7846,-2.52381 7.53311,-14.64603 1.76213,-16.74523 -2.95926,-1.07645 -23.93413,-1.78423 -26.43133,0 -1.06868,0.76369 -1.17469,2.35021 -1.76222,3.52532 -0.58726,1.17514 -1.47701,2.2428 -1.76204,3.52532 -0.50955,2.29423 -0.38626,4.73239 0,7.05063 0.15269,0.91634 0.10837,2.12864 0.88116,2.64396 6.03538,4.02488 14.31767,3.52532 21.14502,3.52532 1.76213,0 3.74598,0.85603 5.2863,0 3.80613,-2.11519 3.44647,-12.31192 3.52417,-14.10122 0.15315,-3.522 0,-7.05063 0,-10.57595 0,-2.05641 1.14041,-4.45826 0,-6.16928 -3.74217,-5.61515 -11.92188,-5.28798 -17.62094,-5.28798 -1.1747,0 -2.44437,-0.4629 -3.52417,0 -3.12543,1.33994 -4.06738,6.27826 -4.40515,8.81325 -0.62561,4.69324 0,10.18449 0,14.98261 0,0.88131 -0.78807,2.24982 0,2.64397 1.57606,0.7883 3.74589,-0.85602 5.28621,0 1.497,0.83191 1.14629,3.57475 2.64311,4.40663 1.54042,0.85602 3.52426,0 5.28639,0 5.65492,0 5.28621,0.46422 5.28621,-6.16929 0,-1.1751 0.28486,-2.38528 0,-3.52531 -0.31859,-1.27455 -0.66921,-2.79651 -1.76213,-3.52528 -2.35608,-1.57129 -11.96349,-2.62416 -14.97775,-1.7627 -3.17762,0.90823 -3.15826,10.90108 -2.6431,13.21996 1.72495,7.7648 13.39997,7.05059 19.38298,7.05059 1.84725,0 5.81666,0.52553 7.04834,-1.76266 3.87949,-7.20707 2.6432,-16.19937 2.6432,-23.79586 0,-1.7726 0.92865,-11.65425 -1.76222,-14.10119 -4.9261,-4.47984 -9.22025,-3.52531 -14.97766,-3.52531 -1.61224,0 -10.22253,-0.3864 -12.33464,0.88131 -1.61252,0.96782 -2.34948,2.93777 -3.52417,4.40667 -1.1747,1.46886 -2.68318,2.72409 -3.52427,4.40662 -1.65747,3.31607 -1.23819,9.64746 -0.88097,13.21987 0.14898,1.49056 -0.22696,3.399 0.88097,4.40667 1.65983,1.50942 15.37568,7.34087 17.62086,7.93194 2.57191,0.67702 5.27789,0.67728 7.9295,0.88135 1.17125,0.0901 2.34947,0 3.52426,0 0.29363,0 0.67328,0.20772 0.88097,0 0.2076,-0.20778 0,-0.5876 0,-0.88135 0,-0.88131 0.62299,-2.02078 0,-2.64401 -4.02377,-4.02507 -12.45947,-4.40662 -17.62094,-4.40662 -0.93136,0 -3.02285,-0.62316 -3.52417,0.88135 -0.18571,0.55738 0,1.1751 0,1.76265 0,0.96489 -0.28495,6.27304 0.88106,7.0506 3.49785,2.3327 10.28241,1.76265 14.09669,1.76265 4.7525,0 11.48107,1.2191 13.21579,-5.28793 0.75669,-2.83859 0,-5.87553 0,-8.81329 0,-3.52531 0,-7.05063 0,-10.57595 0,-2.35017 1.58746,-5.31813 0,-7.05063 -2.32288,-2.53473 -6.31481,-2.88189 -9.69153,-3.52528 -1.27664,-0.24325 -16.70243,-0.61869 -18.50201,0.88136 -2.17182,1.81047 -3.68293,10.79293 -2.64311,13.21987 0.80562,1.8802 5.76447,4.71716 7.04834,5.28797 0.009,0.004 4.29615,1.37656 5.2863,0.88135 1.48597,-0.74324 -1.93635,-3.0366 -3.52417,-3.52535 -3.60124,-1.1084 -10.19521,-0.88131 -14.09677,-0.88131 -0.88107,0 -1.76204,0 -2.64311,0 -0.29371,0 -0.78816,-0.27872 -0.88106,0 -0.27852,0.8361 -0.39395,1.85571 0,2.64396 4.54472,9.09227 16.34503,7.05064 24.66929,7.05064 0.50602,0 3.22339,0.62319 3.52417,-0.88131 0.23048,-1.15232 0,-2.35021 0,-3.52532 0,-10.55157 -6.01232,-8.81329 -14.97775,-8.81329 -2.80431,0 -7.00818,-0.16098 -7.04834,0 -0.28504,1.14003 0,2.35021 0,3.52532 0,4.90532 -0.46333,7.96916 5.28621,9.6946 1.40654,0.42207 2.93682,0 4.40523,0 0.88116,0 2.47033,0.86422 2.64311,0 0.61005,-3.05097 0.63891,-8.75202 -2.64311,-10.57591 -2.02039,-1.12283 -7.37498,-0.88135 -9.69144,-0.88135 -0.88116,0 -2.02012,-0.62324 -2.6432,0 -2.30741,2.30818 -1.76204,6.03926 -1.76204,8.81329 0,1.76266 -0.65447,3.65136 0,5.28793 2.63704,6.5948 13.1542,5.28798 18.50183,5.28798 0.28322,0 8.87994,0.57001 10.57269,-0.88131 3.70075,-3.17317 2.64302,-6.29137 2.64302,-10.57595 0,-4.43932 1.31354,-12.44803 -3.52408,-15.86388 -5.27699,-3.7261 -16.90008,-4.10618 -22.90734,-4.40662 -2.05305,-0.1027 -4.11143,0 -6.16719,0 -1.17469,0 -2.69349,-0.83094 -3.52426,0 -1.37008,1.37059 -0.88097,11.77361 -0.88097,13.21991 0,4.40662 -1.14521,8.96478 0,13.21987 2.45034,9.1041 15.17531,17.2353 23.78813,19.3892 1.99452,0.49877 4.1117,0 6.16737,0 1.23692,0 5.38553,0.21378 6.16736,-0.88131 1.17072,-1.63955 0.88098,-8.81476 0.88098,-10.5759 0,-1.46891 0.65682,-3.09285 0,-4.40663 -4.10564,-8.21406 -16.70307,-6.16932 -23.78813,-6.16932 -2.05576,0 -4.11161,0 -6.16737,0 -0.88107,0 -2.3644,-0.83611 -2.64311,0 -0.27861,0.8361 0,1.76265 0,2.64396 0,0.88135 -0.70485,2.11523 0,2.64401 2.00737,1.50602 4.58218,2.18141 7.04835,2.64397 1.02489,0.19223 14.60126,0.22602 14.97774,0 0.90812,-0.54496 1.47122,-1.6255 1.76214,-2.64397 0.72611,-2.54226 0,-5.28797 0,-7.93194 0,-1.17511 0.83068,-2.6944 0,-3.52532 -4.24404,-4.24546 -17.37698,-4.40662 -22.90716,-4.40662 -1.17478,0 -2.47359,-0.52553 -3.52426,0 -0.9471,0.47367 -1.55435,1.6053 -1.76204,2.64397 -0.40318,2.0165 0,4.11286 0,6.16928 0,7.73853 -1.51093,11.54286 5.2863,17.62657 3.97981,3.56206 14.49389,7.79467 20.26405,8.81325 2.02446,0.35737 4.11161,0 6.16728,0 0.22741,0 4.68348,0.52549 5.28621,-0.88135 1.17089,-2.73256 0.88106,-7.7366 0.88106,-10.5759 0,-6.34477 0.91653,-9.27695 -6.16727,-11.45726 -1.98475,-0.61091 -4.11152,-1.1751 -6.16728,-0.88131 -2.21424,0.3164 -3.93069,2.64397 -6.16737,2.64397 -4.69226,0 -5.602,-4.81415 -7.04834,-2.64397 -0.36898,0.55369 -0.35215,8.59316 0,8.81325 2.05359,1.28397 4.64785,1.44249 7.04834,1.76266 3.78433,0.50474 7.63578,0 11.45358,0 0.58744,0 1.4098,0.47004 1.76213,0 1.16809,-1.55799 1.42762,-14.91182 0,-15.86388 -2.57644,-1.71814 -18.38676,-3.18072 -21.14511,-0.88131 -3.52418,2.93776 -2.6432,3.81907 -2.6432,7.9319 0,1.17515 0,2.35021 0,3.52536 0,1.1751 -0.8779,2.74458 0,3.52527 6.13869,5.45825 16.32793,4.40667 23.78831,4.40667 2.54605,0 6.10296,0.97773 7.92932,-1.7627 1.23729,-1.85636 0.88115,-6.06599 0.88115,-7.9319 0,-1.7627 0,-3.52532 0,-5.28797 0,-1.46887 0.75551,-3.14709 0,-4.40663 -4.2472,-7.08087 -15.87292,-7.54105 -22.90724,-7.93198 -2.34568,-0.13036 -4.69887,0 -7.04834,0 -1.1747,0 -2.62167,-0.75231 -3.52418,0 -1.35018,1.12548 -3.87759,12.61955 -2.6431,14.10126 3.68926,4.42848 9.26928,2.41401 14.09668,2.64397 2.15581,0.10269 18.06076,1.86089 20.26405,0.88135 6.17298,-2.7444 5.2863,-11.56298 5.2863,-16.74527 0,-4.70681 1.03829,-5.88116 -4.40532,-8.81325 -3.38469,-1.82317 -18.91441,-3.63149 -22.02609,0 -1.02915,1.20119 -1.47909,2.85011 -1.76204,4.40663 -0.26523,1.45941 -0.27482,15.73737 0,16.74523 1.60971,5.90428 11.51029,8.88978 16.73988,9.69459 1.74159,0.26802 3.52408,0 5.28621,0 2.89973,0 7.04481,1.33832 7.9295,-2.64396 0.38227,-1.72071 0,-3.52532 0,-5.28798 0,-1.76265 0.46359,-3.58741 0,-5.28797 -3.22611,-11.8328 -25.3793,-10.57595 -34.36083,-10.57595 -2.34948,0 -4.76906,-0.56997 -7.04834,0 -5.46514,1.36674 -6.16728,8.85139 -6.16728,13.21996 0,1.1751 -0.72122,2.59774 0,3.52527 3.012,3.87396 11.89203,6.98721 15.85873,7.93199 4.68231,1.11519 11.00617,0.8813 15.85881,0.8813 1.76213,0 3.55836,0.34569 5.2863,0 5.2911,-1.05854 7.28761,-7.84433 7.9295,-12.33856 0.29064,-2.03578 0,-4.11287 0,-6.16933 0,-1.46886 0.92982,-3.26977 0,-4.40662 -8.29242,-10.13826 -25.96121,-7.93194 -37.00402,-7.93194 -1.36167,0 -13.18296,-0.457 -15.85872,0.88131 -1.31346,0.6569 -1.98647,2.21153 -2.64329,3.52531 -1.16583,2.33268 -0.88098,4.57706 -0.88098,7.05064 0,1.1751 -0.52529,2.47425 0,3.52531 3.51649,7.03518 15.88957,5.3322 22.02619,6.16928 5.75216,0.78463 9.80913,4.12239 14.09659,-0.88131 1.1661,-1.36072 0.88115,-5.52001 0.88115,-7.05063 0,-1.1751 0.58283,-2.50502 0,-3.52531 -2.96468,-5.18997 -17.34441,-3.52532 -22.02609,-3.52532 -7.69068,0 -11.40988,-1.10042 -13.2157,7.93198 -0.28802,1.44033 0,2.93776 0,4.40663 0,1.1751 -0.62263,2.5288 0,3.52527 3.27287,5.23823 15.27671,5.35691 20.26405,4.40667 3.37663,-0.64342 6.32775,-2.81697 9.69144,-3.52532 2.29909,-0.48417 4.97974,1.11425 7.04834,0 1.08741,-0.58566 7.5513,-11.01451 7.9295,-12.3386 0.8874,-3.10718 0,-6.46309 0,-9.6946 0,-0.88131 0.73308,-2.15507 0,-2.64397 -2.87875,-1.91975 -17.15897,-1.19465 -20.26405,0 -1.59234,0.61261 -6.36891,5.01142 -7.04843,7.05059 -0.46432,1.3935 0,2.93781 0,4.40667 0,1.76266 0,3.52531 0,5.28797 0,2.77402 -0.54537,6.50507 1.76204,8.81329 0.57134,0.57144 8.37781,4.14378 9.69154,4.40658 0.28467,0.057 8.39282,0.79 8.81056,-0.8813 0.49852,-1.99504 0,-4.11283 0,-6.16929 0,-5.74796 1.24516,-9.86203 -4.40524,-14.10126 -5.90331,-4.42885 -11.0769,-3.52527 -17.62094,-3.52527 -1.76213,0 -3.52426,0 -5.2863,0 -0.88098,0 -2.02021,-0.6232 -2.64311,0 -2.7285,2.72934 -3.51132,17.96739 -2.6431,21.15185 0.38625,1.41711 1.44019,2.68297 2.6431,3.52527 5.86877,4.10951 13.54507,3.52532 20.26405,3.52532 1.76204,0 3.67605,0.71587 5.2863,0 4.43482,-1.97167 4.40524,-11.40737 4.40524,-14.98253 0,-1.4689 0.46432,-3.01317 0,-4.40667 -0.46441,-1.39349 -1.42146,-2.71048 -2.6432,-3.52527 -3.0498,-2.03389 -13.8149,-2.52415 -17.62094,-1.7627 -0.64397,0.12885 -1.51816,0.27142 -1.76204,0.88135 -0.56111,1.40291 0.0317,11.2776 0.88097,12.3386 6.56747,8.21186 23.02819,9.69461 32.5987,9.69461 2.34948,0 4.84034,0.80314 7.04834,0 0.82842,-0.30137 5.20236,-7.62372 5.2863,-7.93199 0.46369,-1.70052 0,-3.52527 0,-5.28793 0,-1.76266 1.18537,-3.98372 0,-5.28797 -5.39476,-5.93612 -18.21571,-6.16933 -25.55026,-6.16933 -2.47838,0 -7.01722,-0.92798 -8.81047,1.76266 -0.96112,1.44222 -1.49076,10.96628 -0.88107,12.33861 0.67473,1.51864 3.52417,1.86346 3.52417,3.52531 0,1.88108 -3.73186,2.53704 -3.52417,4.40663 0.6362,5.72735 23.11666,6.42191 23.78822,4.40662 0.74303,-2.22956 0,-4.70038 0,-7.05059 0,-3.23152 0,-6.46304 0,-9.6946 0,-2.93776 1.69375,-6.41323 0,-8.81329 -5.24026,-7.42607 -17.59489,-7.93194 -25.55026,-7.93194 -1.17478,0 -2.34957,0 -3.52435,0 -0.58726,0 -1.45964,-0.50384 -1.76204,0 -1.16899,1.949 -0.88098,6.73094 -0.88098,8.81325 0,2.35025 0,4.70046 0,7.05067 0,5.8123 -1.46768,7.71211 3.52418,11.45726 7.17172,5.38049 16.20852,5.28793 24.66928,5.28793 5.78446,0 11.22807,2.16788 13.21571,-5.28793 0.68097,-2.55473 0,-5.28798 0,-7.93198 0,-2.05642 0.80978,-4.2791 0,-6.16928 -4.69959,-10.96934 -18.73675,-9.6946 -28.19346,-9.6946 -3.64556,0 -13.32688,-1.78829 -15.85881,2.64396 -2.14857,3.76125 -3.34154,15.16536 0,18.50789 6.80555,6.80775 16.72206,7.05064 25.55026,7.05064 1.4685,0 2.93692,0 4.40533,0 0.58725,0 1.4363,0.48886 1.76195,0 0.48883,-0.73334 0,-1.76271 0,-2.64401 0,-2.05642 0.68432,-4.23008 0,-6.16929 -4.43554,-12.57162 -14.65337,-14.28952 -26.43142,-14.98257 -2.93167,-0.1725 -5.87356,0 -8.81038,0 -0.58726,0 -1.49935,-0.52549 -1.76204,0 -1.21902,2.43881 -0.88098,9.11411 -0.88098,11.45726 0,2.05645 -0.65021,4.21839 0,6.16932 1.75544,5.26828 14.0463,10.60826 18.50192,11.45725 3.17347,0.60464 6.461,0 9.69154,0 0.35098,0 10.67346,1.06958 11.45349,-0.88134 0.43628,-1.09105 0,-2.35021 0,-3.52532 0,-0.8813 0,-1.76266 0,-2.64401 0,-0.5875 0.50367,-1.46031 0,-1.76261 -4.66784,-2.80158 -11.02843,0.56824 -15.85873,-0.88131 -1.40653,-0.42212 -2.16087,-3.18953 -3.52426,-2.64401 -1.39034,0.55633 -0.51778,2.95341 -0.88106,4.40663 -0.13352,0.53444 -1.7463,6.61785 -0.88098,7.05063 2.34143,1.1711 8.11901,0.88134 10.57252,0.88134 1.17469,0 2.34938,0 3.52417,0 0.29371,0 1.17478,0 0.88106,0 -2.42628,0 -12.58684,-0.79728 -14.97775,0 -0.62308,0.20774 -1.11047,0.79983 -1.76213,0.88131 -2.37001,0.29633 -15.31271,0.57723 -17.62094,0 -1.63368,-0.40855 -0.88098,-4.22947 -0.88098,-5.28797 0,-5.87553 0,-11.75101 0,-17.62654 0,-3.00856 -1.13932,-8.93103 0.88098,-11.45725 0.66152,-0.82712 1.76213,-1.17511 2.6431,-1.76266 1.76222,-1.1751 3.27731,-2.85541 5.2863,-3.52532 2.01985,-0.67346 5.785,0 7.9295,0 1.41794,0 14.7535,-0.55281 15.85873,0 1.48596,0.7432 2.34956,2.35022 3.52426,3.52532 4.41175,4.41313 7.91068,10.44517 8.81047,16.74523 0.47545,3.32945 0,7.18844 0,10.57591 0,3.18272 1.12132,9.66787 -0.88107,12.3386 -0.39403,0.52553 -1.21567,0.51691 -1.76213,0.88131 -6.99886,4.66742 -9.02829,5.28798 -17.62094,5.28798 -3.37293,0 -7.23731,0.47658 -10.57251,0 -1.08759,-0.15543 -13.29975,-5.57142 -14.09669,-6.16929 -1.79515,-1.34678 -4.43264,-3.15309 -5.2863,-5.28797 -1.73029,-4.32707 -0.88097,-9.5704 -0.88097,-14.10123 0,-1.91135 -0.639,-15.70906 0,-17.62657 0.72909,-2.18833 4.4937,-2.68831 6.16727,-3.52528 0.9471,-0.47371 1.66987,-1.34542 2.64311,-1.7627 7.56052,-3.24119 19.99041,-3.52528 28.19346,-3.52528 0.94438,0 8.21715,-0.39566 8.81038,0 0.54646,0.3644 0.33469,1.39826 0.88106,1.76267 2.81941,1.88017 0.89301,-1.74494 2.64311,0.8813 1.32132,1.98248 3.45976,3.96218 4.40532,6.16929 0.4769,1.1133 0.49816,2.37621 0.88098,3.52531 1.24959,3.74967 2.11546,4.23593 2.6432,7.93198 0.76003,5.3221 0,11.34076 0,16.74519 0,13.09862 -31.28343,13.26334 -40.52811,12.33856 -0.94212,-0.0942 -9.17203,-1.96649 -9.69153,-3.52527 -0.69355,-2.08177 0,-6.88947 0,-8.81329 0,-7.34439 0,-14.68877 0,-22.03316"
       inkscape:connector-curvature="0" />
  </g>
</svg>
