<?xml version="1.0" encoding="UTF-8" standalone="no"?>
<!-- Created with Inkscape (http://www.inkscape.org/) -->

<svg
   xmlns:dc="http://purl.org/dc/elements/1.1/"
   xmlns:cc="http://creativecommons.org/ns#"
   xmlns:rdf="http://www.w3.org/1999/02/22-rdf-syntax-ns#"
   xmlns:svg="http://www.w3.org/2000/svg"
   xmlns="http://www.w3.org/2000/svg"
   xmlns:sodipodi="http://sodipodi.sourceforge.net/DTD/sodipodi-0.dtd"
   xmlns:inkscape="http://www.inkscape.org/namespaces/inkscape"
   width="1143.0358"
   height="1143.0356"
   id="svg3163"
   version="1.1"
   inkscape:version="0.48.4 r9939"
   sodipodi:docname="lm_sticker_1_pink_bl.svg"
   inkscape:export-filename="/home/svet/Dropbox/falanster/digital-lab/start_stickers/lm_sticker_1_bl.png"
   inkscape:export-xdpi="84.112152"
   inkscape:export-ydpi="84.112152">
  <defs
     id="defs3165" />
  <sodipodi:namedview
     id="base"
     pagecolor="#ffffff"
     bordercolor="#666666"
     borderopacity="1.0"
     inkscape:pageopacity="0.0"
     inkscape:pageshadow="2"
     inkscape:zoom="0.49497474"
     inkscape:cx="1115.7461"
     inkscape:cy="592.03058"
     inkscape:document-units="px"
     inkscape:current-layer="layer1"
     showgrid="false"
     fit-margin-top="0"
     fit-margin-left="0"
     fit-margin-right="0"
     fit-margin-bottom="0"
     inkscape:window-width="1301"
     inkscape:window-height="744"
     inkscape:window-x="65"
     inkscape:window-y="24"
     inkscape:window-maximized="1"
     showguides="true"
     inkscape:guide-bbox="true">
    <sodipodi:guide
       orientation="1,0"
       position="851.16763,629.3199"
       id="guide3038" />
  </sodipodi:namedview>
  <metadata
     id="metadata3168">
    <rdf:RDF>
      <cc:Work
         rdf:about="">
        <dc:format>image/svg+xml</dc:format>
        <dc:type
           rdf:resource="http://purl.org/dc/dcmitype/StillImage" />
        <dc:title></dc:title>
      </cc:Work>
    </rdf:RDF>
  </metadata>
  <g
     inkscape:label="Layer 1"
     inkscape:groupmode="layer"
     id="layer1"
     transform="translate(-175.75439,-156.83487)">
    <path
       inkscape:connector-curvature="0"
       style="fill:#ffff00;fill-opacity:1;stroke:none"
       d="m 1318.7901,728.35265 c 0,315.64055 -255.8772,571.51785 -571.51794,571.51785 -315.64055,0 -571.51777,-255.8773 -571.51777,-571.51785 0,-315.64055 255.87722,-571.51778 571.51777,-571.51778 315.64074,0 571.51794,255.87723 571.51794,571.51778 z"
       id="path3290-7" />
    <path
       style="fill:#333333;fill-opacity:1;stroke:none"
       d="m 1265.7143,729.50507 c 0,287.18803 -232.8119,520.00003 -520.00001,520.00003 -287.18807,0 -520,-232.812 -520,-520.00003 0,-287.18807 232.81193,-520 520,-520 287.18811,0 520.00001,232.81193 520.00001,520 z"
       id="path3290"
       transform="translate(0,-2)"
       inkscape:connector-curvature="0" />
    <g
       id="g3306"
       transform="translate(893.01547,24.365492)"
       style="fill:#ffff00">
      <path
         transform="matrix(0.8622694,0.50644988,-0.46018637,0.88782234,0,0)"
         style="fill:#ffff00;fill-opacity:1;stroke:none"
         d="m 370.80783,776.70599 40.13075,0 0,221.38501 -40.13075,0 z"
         id="rect3855-0-5-9-2-1-7-5-2"
         inkscape:connector-curvature="0" />
      <path
         transform="matrix(0.65563803,-0.75507534,0.78866003,0.61482954,0,0)"
         style="fill:#ffff00;fill-opacity:1;stroke:none"
         d="m -842.52856,489.41898 40.13075,0 0,221.38501 -40.13075,0 z"
         id="rect3855-5-7-4-9-6-8-0-6"
         inkscape:connector-curvature="0" />
      <path
         style="fill:#ffff00;fill-opacity:1;stroke:none"
         d="m -307.92134,289.38184 c 30.91524,0 55.80369,23.27203 55.80369,52.17945 l 0,189.51756 c 0,28.90741 -24.88845,52.17945 -55.80369,52.17945 -30.91525,0 -55.8037,-23.27204 -55.8037,-52.17945 l 0,-189.51756 c 0,-28.90742 24.88845,-52.17945 55.8037,-52.17945 z"
         id="rect2985-79-1-9-3-2-4-9"
         inkscape:connector-curvature="0" />
      <path
         transform="matrix(1.3843393,0,0,1.3843393,-1108.3568,35.892234)"
         style="fill:#ffff00;fill-opacity:1;stroke:none"
         d="m 612.14286,645.2193 c 0,23.27486 -18.868,42.14286 -42.14286,42.14286 -23.27486,0 -42.14286,-18.868 -42.14286,-42.14286 0,-23.27486 18.868,-42.14286 42.14286,-42.14286 23.27486,0 42.14286,18.868 42.14286,42.14286 z"
         id="path3787-9-0-6-9-3-7-0"
         inkscape:connector-curvature="0" />
      <path
         transform="matrix(1.3843393,0,0,1.3843393,-946.96479,28.911094)"
         style="fill:#ffff00;fill-opacity:1;stroke:none"
         d="m 612.14286,645.2193 c 0,23.27486 -18.868,42.14286 -42.14286,42.14286 -23.27486,0 -42.14286,-18.868 -42.14286,-42.14286 0,-23.27486 18.868,-42.14286 42.14286,-42.14286 23.27486,0 42.14286,18.868 42.14286,42.14286 z"
         id="path3787-3-9-6-4-2-8-3-1"
         inkscape:connector-curvature="0" />
      <path
         transform="matrix(1.3843393,0,0,1.3843393,-786.31519,-46.060816)"
         style="fill:#ffff00;fill-opacity:1;stroke:none"
         d="m 612.14286,645.2193 c 0,23.27486 -18.868,42.14286 -42.14286,42.14286 -23.27486,0 -42.14286,-18.868 -42.14286,-42.14286 0,-23.27486 18.868,-42.14286 42.14286,-42.14286 23.27486,0 42.14286,18.868 42.14286,42.14286 z"
         id="path3787-5-3-8-0-7-2-9-2"
         inkscape:connector-curvature="0" />
      <path
         transform="matrix(1.3843393,0,0,1.3843393,-1041.1174,184.21432)"
         style="fill:#ffff00;fill-opacity:1;stroke:none"
         d="m 612.14286,645.2193 c 0,23.27486 -18.868,42.14286 -42.14286,42.14286 -23.27486,0 -42.14286,-18.868 -42.14286,-42.14286 0,-23.27486 18.868,-42.14286 42.14286,-42.14286 23.27486,0 42.14286,18.868 42.14286,42.14286 z"
         id="path3787-53-7-7-7-4-1-3-3"
         inkscape:connector-curvature="0" />
      <path
         transform="matrix(1.3843393,0,0,1.3843393,-922.17289,206.224)"
         style="fill:#ffff00;fill-opacity:1;stroke:none"
         d="m 612.14286,645.2193 c 0,23.27486 -18.868,42.14286 -42.14286,42.14286 -23.27486,0 -42.14286,-18.868 -42.14286,-42.14286 0,-23.27486 18.868,-42.14286 42.14286,-42.14286 23.27486,0 42.14286,18.868 42.14286,42.14286 z"
         id="path3787-4-1-5-8-2-6-8-9"
         inkscape:connector-curvature="0" />
      <path
         transform="matrix(0.70852623,0.70568447,-0.66726536,0.74482007,0,0)"
         style="fill:#ffff00;fill-opacity:1;stroke:none"
         d="m 363.19464,648.8006 40.13075,0 0,221.38501 -40.13075,0 z"
         id="rect3855-5-71-7-0-5-9-6"
         inkscape:connector-curvature="0" />
      <path
         transform="matrix(0.92669399,-0.37581677,0.4242518,0.90554426,0,0)"
         style="fill:#ffff00;fill-opacity:1;stroke:none"
         d="m -705.3681,694.23499 40.13075,0 0,221.38501 -40.13075,0 z"
         id="rect3855-8-1-4-7-1-5-2-2"
         inkscape:connector-curvature="0" />
      <path
         transform="matrix(0.49431547,-0.86928259,0.89418464,0.44769836,0,0)"
         style="fill:#ffff00;fill-opacity:1;stroke:none"
         d="m -766.12927,223.99118 40.13075,0 0,221.38501 -40.13075,0 z"
         id="rect3855-6-6-5-6-8-6-4-4"
         inkscape:connector-curvature="0" />
      <path
         transform="matrix(0.98898489,0.14801652,-0.09555887,0.99542378,0,0)"
         style="fill:#ffff00;fill-opacity:1;stroke:none"
         d="m -92.375557,703.36139 40.130753,0 0,221.38501 -40.130753,0 z"
         id="rect3855-89-9-0-5-6-8-6-3"
         inkscape:connector-curvature="0" />
      <path
         transform="matrix(0,-1,1,0,0,0)"
         style="fill:#ffff00;fill-opacity:1;stroke:none"
         d="m -528.30135,-353.44244 c 30.91525,0 55.80369,23.27203 55.80369,52.17945 l 0,146.79044 c 0,28.90742 -24.88844,52.17946 -55.80369,52.17946 -30.91524,0 -55.80369,-23.27204 -55.80369,-52.17946 l 0,-146.79044 c 0,-28.90742 24.88845,-52.17945 55.80369,-52.17945 z"
         id="rect2985-79-4-5-5-7-5-5-2"
         inkscape:connector-curvature="0" />
      <path
         style="fill:#ffff00;fill-opacity:1;stroke:none"
         d="m 3.7010498,327.17371 c 30.9152452,0 55.8036922,23.27203 55.8036922,52.17945 l 0,199.70936 c 0,28.90742 -24.888447,52.17945 -55.8036922,52.17945 -30.9152448,0 -55.8036918,-23.27203 -55.8036918,-52.17945 l 0,-199.70936 c 0,-28.90742 24.888447,-52.17945 55.8036918,-52.17945 z"
         id="rect2985-79-7-0-7-2-4-6-9"
         inkscape:connector-curvature="0" />
      <path
         style="fill:#ffff00;fill-opacity:1;stroke:none"
         d="m -150.76371,369.81876 c 30.91525,0 55.803696,23.27203 55.803696,52.17945 l 0,325.38639 c 0,28.90742 -24.888446,52.17946 -55.803696,52.17946 -30.91524,0 -55.80369,-23.27204 -55.80369,-52.17946 l 0,-325.38639 c 0,-28.90742 24.88845,-52.17945 55.80369,-52.17945 z"
         id="rect2985-79-5-8-8-2-7-1-3"
         inkscape:connector-curvature="0" />
      <path
         transform="matrix(1.3843393,0,0,1.3843393,-784.50073,151.13296)"
         style="fill:#ffff00;fill-opacity:1;stroke:none"
         d="m 612.14286,645.2193 c 0,23.27486 -18.868,42.14286 -42.14286,42.14286 -23.27486,0 -42.14286,-18.868 -42.14286,-42.14286 0,-23.27486 18.868,-42.14286 42.14286,-42.14286 23.27486,0 42.14286,18.868 42.14286,42.14286 z"
         id="path3787-4-1-7-8-5-2-7-8-5"
         inkscape:connector-curvature="0" />
      <path
         sodipodi:nodetypes="ssscs"
         inkscape:connector-curvature="0"
         id="path4099-90-1-7-8-9-1"
         d="m 16.625754,329.57398 c 0,8.23026 -6.07457,14.9022 -13.5676302,14.9022 -7.49334,0 -13.5678098,-6.67194 -13.5678098,-14.9022 0,-8.23027 5.8454698,-9.78653 13.5678098,-26.02326 7.3571602,16.01432 13.5676302,17.79299 13.5676302,26.02326 z"
         style="fill:#ffff00;fill-opacity:1;stroke:none" />
      <path
         sodipodi:nodetypes="ssscs"
         inkscape:connector-curvature="0"
         id="path4099-4-2-4-7-7-5-3"
         d="m 52.210724,358.79545 c -5.8819,5.75672 -14.89911,6.08209 -20.14028,0.72698 -5.24127,-5.35532 -4.72173,-14.3633 1.16018,-20.12001 5.88209,-5.7567 11.08299,-2.66765 28.08825,-8.50556 -6.29888,16.45929 -3.22605,22.14189 -9.10815,27.89859 z"
         style="fill:#ffff00;fill-opacity:1;stroke:none" />
      <path
         sodipodi:nodetypes="ssscs"
         inkscape:connector-curvature="0"
         id="path4099-8-7-9-1-0-5-6"
         d="m -30.14795,342.19157 c 6.55664,4.97464 8.2002,13.84674 3.67113,19.81614 -4.52916,5.96963 -13.51593,6.77612 -20.07276,1.80149 -6.55664,-4.97465 -4.26335,-10.57213 -12.5308,-26.5382 17.20486,3.81845 22.37569,-0.054 28.93243,4.92057 z"
         style="fill:#ffff00;fill-opacity:1;stroke:none" />
      <path
         sodipodi:nodetypes="ssscs"
         inkscape:connector-curvature="0"
         id="path4099-1-5-8-3-3-1-6"
         d="m 56.476424,411.66968 c -8.23027,0 -14.9023,-6.07459 -14.9023,-13.56766 0,-7.49336 6.67203,-13.5678 14.9023,-13.5678 8.23026,0 9.78635,5.84546 26.02312,13.5678 -16.01433,7.35716 -17.79286,13.56766 -26.02312,13.56766 z"
         style="fill:#ffff00;fill-opacity:1;stroke:none" />
      <path
         sodipodi:nodetypes="ssscs"
         inkscape:connector-curvature="0"
         id="path4099-9-1-6-1-3-2-2"
         d="m -295.97113,294.21084 c 0,8.23025 -6.07458,14.9022 -13.56765,14.9022 -7.49338,0 -13.56781,-6.67195 -13.56781,-14.9022 0,-8.23027 5.84545,-9.78653 13.56781,-26.02327 7.35716,16.01431 13.56765,17.793 13.56765,26.02327 z"
         style="fill:#ffff00;fill-opacity:1;stroke:none" />
      <path
         sodipodi:nodetypes="ssscs"
         inkscape:connector-curvature="0"
         id="path4099-6-9-8-7-3-7-8"
         d="m -135.55209,373.38512 c 0,8.23025 -6.07457,14.9022 -13.56767,14.9022 -7.49336,0 -13.56779,-6.67195 -13.56779,-14.9022 0,-8.23027 5.84545,-9.78653 13.56779,-26.02326 7.3572,16.01431 13.56767,17.79299 13.56767,26.02326 z"
         style="fill:#ffff00;fill-opacity:1;stroke:none" />
      <path
         sodipodi:nodetypes="ssscs"
         inkscape:connector-curvature="0"
         id="path4099-2-6-6-4-4-4-3"
         d="m -261.07282,315.97882 c -5.0011,6.53644 -13.87984,8.14397 -19.8307,3.59071 -5.95116,-4.55343 -6.72118,-13.54347 -1.71993,-20.0799 5.00109,-6.53644 10.58923,-4.22037 26.58861,-12.42293 -3.88826,17.18917 -0.0363,22.37567 -5.03798,28.91212 z"
         style="fill:#ffff00;fill-opacity:1;stroke:none" />
      <path
         sodipodi:nodetypes="ssscs"
         inkscape:connector-curvature="0"
         id="path4099-0-7-6-1-9-4-4"
         d="m -338.60676,299.7216 c 5.8774,5.76133 6.38967,14.76982 1.14449,20.12081 -5.24547,5.35123 -14.2623,5.01867 -20.13984,-0.74265 -5.87739,-5.76132 -2.89681,-11.02511 -9.08624,-27.90583 16.58643,5.95633 22.20405,2.76635 28.08159,8.52767 z"
         style="fill:#ffff00;fill-opacity:1;stroke:none" />
      <path
         sodipodi:nodetypes="ssscs"
         inkscape:connector-curvature="0"
         id="path4099-18-0-6-8-5-3-0"
         d="m -175.69632,378.06739 c 4.24037,7.05376 2.4718,15.90177 -3.95026,19.76241 -6.42219,3.86077 -15.06586,1.27227 -19.30637,-5.7815 -4.24037,-7.05378 -0.0319,-11.39931 -1.77947,-29.29383 14.55648,9.93452 20.79559,8.25913 25.0361,15.31292 z"
         style="fill:#ffff00;fill-opacity:1;stroke:none" />
      <path
         sodipodi:nodetypes="ssscs"
         inkscape:connector-curvature="0"
         id="path4099-92-9-8-5-3-2-5"
         d="m -358.30794,344.0505 c 8.23027,0 14.90221,6.07457 14.90221,13.56764 0,7.49336 -6.67194,13.5678 -14.90221,13.5678 -8.23027,0 -9.78656,-5.84544 -26.02334,-13.5678 16.01433,-7.35716 17.79307,-13.56764 26.02334,-13.56764 z"
         style="fill:#ffff00;fill-opacity:1;stroke:none" />
      <path
         sodipodi:nodetypes="ssscs"
         inkscape:connector-curvature="0"
         id="path4099-183-5-5-0-7-4-1"
         d="m -358.27846,398.23272 c 8.23026,0 14.90221,6.07458 14.90221,13.56765 0,7.49336 -6.67195,13.5678 -14.90221,13.5678 -8.23028,0 -9.78657,-5.84545 -26.02335,-13.5678 16.01434,-7.35716 17.79307,-13.56765 26.02335,-13.56765 z"
         style="fill:#ffff00;fill-opacity:1;stroke:none" />
      <path
         sodipodi:nodetypes="ssscs"
         inkscape:connector-curvature="0"
         id="path4099-99-0-6-1-7-0-9"
         d="m -203.69704,411.46108 c 8.23028,0 14.90222,6.07457 14.90222,13.56764 0,7.49337 -6.67194,13.56781 -14.90222,13.56781 -8.23027,0 -9.78655,-5.84545 -26.02333,-13.56781 16.01432,-7.35716 17.79306,-13.56764 26.02333,-13.56764 z"
         style="fill:#ffff00;fill-opacity:1;stroke:none" />
      <path
         transform="matrix(0,-1,1,0,0,0)"
         style="fill:#ffff00;fill-opacity:1;stroke:none"
         d="m -575.65615,-156.3868 c 30.91525,0 55.80369,23.27204 55.80369,52.17946 l 0,94.932121 c 0,28.907418 -24.88844,52.179455 -55.80369,52.179455 -30.91524,0 -55.80369,-23.272037 -55.80369,-52.179455 l 0,-94.932121 c 0,-28.90742 24.88845,-52.17946 55.80369,-52.17946 z"
         id="rect2985-79-4-5-6-7-6-7-1-8"
         inkscape:connector-curvature="0" />
    </g>
    <path
       inkscape:connector-curvature="0"
       id="path3896-4-6-9-5-7-9-7-5"
       d="m 676.58925,1102.5733 c 0,20.7521 -16.82286,37.5749 -37.57491,37.5749 -20.75206,0 -37.57493,-16.8228 -37.57493,-37.5749 0,-20.752 16.82287,-37.5749 37.57493,-37.5749 20.75205,0 37.57491,16.8229 37.57491,37.5749 z"
       style="fill:#333333;fill-opacity:1;stroke:none" />
    <path
       inkscape:connector-curvature="0"
       id="path3896-3-9-56-4-2-8-8-9"
       d="m 797.31345,1122.8031 c 0,20.7521 -16.82286,37.575 -37.57491,37.575 -20.75206,0 -37.57493,-16.8229 -37.57493,-37.575 0,-20.752 16.82287,-37.5749 37.57493,-37.5749 20.75205,0 37.57491,16.8229 37.57491,37.5749 z"
       style="fill:#333333;fill-opacity:1;stroke:none" />
    <path
       inkscape:connector-curvature="0"
       id="path3896-3-9-5-8-3-1-4-3-1"
       d="m 934.98565,1067.7121 c 0,20.7521 -16.82286,37.5749 -37.57491,37.5749 -20.75206,0 -37.57493,-16.8228 -37.57493,-37.5749 0,-20.7521 16.82287,-37.5749 37.57493,-37.5749 20.75205,0 37.57491,16.8228 37.57491,37.5749 z"
       style="fill:#333333;fill-opacity:1;stroke:none" />
    <g
       id="g3198">
      <path
         inkscape:connector-curvature="0"
         id="path9306-6-4"
         d="m 729.53125,524.875 c -4.6319,-0.2802 -9.37691,0.7486 -13.65625,3.28125 a 3.0254858,3.0254858 0 1 0 3.0625,5.21875 c 8.6021,-5.091 19.62775,-2.2896 24.71875,6.3125 1.34714,2.27622 2.15228,4.836 2.40625,7.46875 a 3.0302028,3.0302028 0 1 0 6.03125,-0.59375 c -0.33903,-3.51447 -1.4517,-6.89898 -3.25,-9.9375 -4.22109,-7.13223 -11.59266,-11.283 -19.3125,-11.75 z"
         style="font-size:medium;font-style:normal;font-variant:normal;font-weight:normal;font-stretch:normal;text-indent:0;text-align:start;text-decoration:none;line-height:normal;letter-spacing:normal;word-spacing:normal;text-transform:none;direction:ltr;block-progression:tb;writing-mode:lr-tb;text-anchor:start;baseline-shift:baseline;color:#000000;fill:#333333;fill-opacity:1;stroke:none;stroke-width:6.0406847;marker:none;visibility:visible;display:inline;overflow:visible;enable-background:accumulate;font-family:Sans;-inkscape-font-specification:Sans" />
      <path
         inkscape:connector-curvature="0"
         id="path9306-1-2-5"
         d="m 731.78125,509.59375 c -6.84145,-0.4124 -13.8599,1.16137 -20.1875,4.90625 a 3.0206446,3.0206446 0 1 0 3.0625,5.1875 c 14.06413,-8.32362 32.14513,-3.68914 40.46875,10.375 2.20557,3.72668 3.55294,7.90834 3.96875,12.21875 a 3.0302028,3.0302028 0 1 0 6.03125,-0.59375 c -0.50087,-5.19213 -2.15577,-10.19852 -4.8125,-14.6875 -6.24147,-10.546 -17.12883,-16.71892 -28.53125,-17.40625 z"
         style="font-size:medium;font-style:normal;font-variant:normal;font-weight:normal;font-stretch:normal;text-indent:0;text-align:start;text-decoration:none;line-height:normal;letter-spacing:normal;word-spacing:normal;text-transform:none;direction:ltr;block-progression:tb;writing-mode:lr-tb;text-anchor:start;baseline-shift:baseline;color:#000000;fill:#333333;fill-opacity:1;stroke:none;stroke-width:6.04068518;marker:none;visibility:visible;display:inline;overflow:visible;enable-background:accumulate;font-family:Sans;-inkscape-font-specification:Sans" />
      <path
         inkscape:connector-curvature="0"
         id="path9306-4-8-4"
         d="m 734.96875,494.25 c -8.87296,-0.53394 -18.00794,1.48432 -26.21875,6.34375 a 3.0206444,3.0206444 0 1 0 3.09375,5.1875 c 19.08604,-11.29574 43.6105,-4.9923 54.90625,14.09375 2.99483,5.06027 4.84165,10.7096 5.40625,16.5625 a 3.0206444,3.0206444 0 1 0 6,-0.5625 c -0.64966,-6.73462 -2.77276,-13.27118 -6.21875,-19.09375 -8.09905,-13.6847 -22.18049,-21.64134 -36.96875,-22.53125 z"
         style="font-size:medium;font-style:normal;font-variant:normal;font-weight:normal;font-stretch:normal;text-indent:0;text-align:start;text-decoration:none;line-height:normal;letter-spacing:normal;word-spacing:normal;text-transform:none;direction:ltr;block-progression:tb;writing-mode:lr-tb;text-anchor:start;baseline-shift:baseline;color:#000000;fill:#333333;fill-opacity:1;stroke:none;stroke-width:6.0406847;marker:none;visibility:visible;display:inline;overflow:visible;enable-background:accumulate;font-family:Sans;-inkscape-font-specification:Sans" />
    </g>
    <text
       xml:space="preserve"
       style="font-size:96.07583617999999603px;font-style:normal;font-variant:normal;font-weight:normal;font-stretch:normal;line-height:125%;letter-spacing:0px;word-spacing:0px;fill:#ffff00;fill-opacity:1;stroke:none;font-family:Ubuntu Mono;-inkscape-font-specification:Ubuntu Mono"
       x="277.25079"
       y="690.90222"
       id="text4575-3-7"
       sodipodi:linespacing="125%"
       inkscape:export-filename="/home/svet/Dropbox/Photos/falanster/dig_lab/dg_logo_black_vk.png"
       inkscape:export-xdpi="48.003429"
       inkscape:export-ydpi="48.003429"><tspan
         sodipodi:role="line"
         id="tspan4577-6"
         x="277.25079"
         y="690.90222">лічбавая</tspan></text>
    <text
       xml:space="preserve"
       style="font-size:85.05580138999999917px;font-style:normal;font-variant:normal;font-weight:normal;font-stretch:normal;line-height:125%;letter-spacing:0px;word-spacing:0px;fill:#ffff00;fill-opacity:1;stroke:none;font-family:Ubuntu Mono;-inkscape-font-specification:Ubuntu Mono"
       x="277.25079"
       y="755.27307"
       id="text4579-1-0"
       sodipodi:linespacing="125%"
       inkscape:export-filename="/home/svet/Dropbox/Photos/falanster/dig_lab/dg_logo_black_vk.png"
       inkscape:export-xdpi="48.003429"
       inkscape:export-ydpi="48.003429"><tspan
         sodipodi:role="line"
         id="tspan4581-6"
         x="277.25079"
         y="755.27307">майстэрня</tspan></text>
    <text
       xml:space="preserve"
       style="font-size:54.65794754000000211px;font-style:normal;font-variant:normal;font-weight:normal;font-stretch:normal;line-height:125%;letter-spacing:0px;word-spacing:0px;fill:#ffff00;fill-opacity:1;stroke:none;font-family:Ubuntu Mono;-inkscape-font-specification:Ubuntu Mono"
       x="817.93713"
       y="735.74713"
       id="text3292-8"
       sodipodi:linespacing="125%"><tspan
         sodipodi:role="line"
         id="tspan3294"
         x="817.93713"
         y="735.74713">it.falanster.by</tspan></text>
    <text
       xml:space="preserve"
       style="font-size:58.23609161px;font-style:normal;font-variant:normal;font-weight:normal;font-stretch:normal;line-height:125%;letter-spacing:0px;word-spacing:0px;fill:#999999;fill-opacity:1;stroke:none;font-family:Ubuntu Mono;-inkscape-font-specification:Ubuntu Mono"
       x="278.99481"
       y="812.26703"
       id="text4064-2"
       sodipodi:linespacing="125%"><tspan
         sodipodi:role="line"
         id="tspan4066"
         x="278.99481"
         y="812.26703">#айціваланцёр</tspan></text>
    <path
       inkscape:connector-curvature="0"
       id="path3896-12-9-4-0-8-4-9"
       d="m 610.93205,953.46021 c 0,20.75207 -16.82286,37.57493 -37.57491,37.57493 -20.75206,0 -37.57493,-16.82286 -37.57493,-37.57493 0,-20.75205 16.82287,-37.57491 37.57493,-37.57491 20.75205,0 37.57491,16.82286 37.57491,37.57491 z"
       style="fill:#333333;fill-opacity:1;stroke:none" />
    <path
       inkscape:connector-curvature="0"
       id="path3896-7-7-2-6-1-6-8-3"
       d="m 771.53285,946.47905 c 0,20.75207 -16.82286,37.57493 -37.57491,37.57493 -20.75206,0 -37.57493,-16.82286 -37.57493,-37.57493 0,-20.75205 16.82287,-37.57491 37.57493,-37.57491 20.75205,0 37.57491,16.82286 37.57491,37.57491 z"
       style="fill:#333333;fill-opacity:1;stroke:none" />
    <path
       inkscape:connector-curvature="0"
       id="path3896-1-4-7-6-4-6-6-1"
       d="m 933.17125,870.71608 c 0,20.75207 -16.82286,37.57493 -37.57491,37.57493 -20.75206,0 -37.57493,-16.82286 -37.57493,-37.57493 0,-20.75205 16.82287,-37.57491 37.57493,-37.57491 20.75205,0 37.57491,16.82286 37.57491,37.57491 z"
       style="fill:#333333;fill-opacity:1;stroke:none" />
    <g
       id="g3261-7-8-4"
       style="fill:#333333;stroke:none"
       transform="matrix(0.28328096,0.07597557,-0.07597557,0.28328096,-153.85693,209.28805)">
      <path
         sodipodi:nodetypes="csccsssscssczscac"
         inkscape:connector-curvature="0"
         id="path3245-1-9-4"
         d="m 3198.5714,336.6479 c 0,0 -18.5714,24.28571 -15.7143,41.42857 2.8572,17.14286 25.7143,50 25.7143,50 1.3288,13.89088 3.3508,29.78734 3.5504,31.60189 4.2857,37.14285 49.7251,40.59173 49.7251,96.30601 0,55.71429 -6.1326,44.94924 -28.9898,74.94924 -22.8571,30 -26.6853,54.01654 -22.8571,80 5.9594,40.44816 38.3816,100.24775 141.4286,84.28572 71.5424,-11.08194 81.4285,-32.85715 81.4285,-32.85715 0,0 0.7293,5.90898 -39.8687,14.28572 -65.6722,13.5504 -153.277,-26.19054 -139.6113,-92.61204 5.2417,-25.4775 19.9282,-32.39667 41.082,-57.14286 42.001,-55.2481 32.3876,-97.13291 25.5409,-117.07107 -6.8467,-19.93815 -20.9211,-28.24272 -29.2634,-44.68322 -7.9839,-15.73428 -29.2862,-25.17935 -36.9709,-48.23339 -2.5822,-28.96011 -2.683,-42.90223 -15.1943,-58.82885 -9.3441,-11.89482 -30,-21.42857 -40,-21.42857 z"
         style="fill:#333333;stroke:none" />
      <path
         sodipodi:nodetypes="ccsssccccccsccsc"
         inkscape:connector-curvature="0"
         id="path3247-0-7-1"
         d="m 3281.5373,466.82287 c 23.8824,-13.32688 23.2015,-11.53014 33.7144,-28.35069 0,0 3.8311,-13.79224 -6.8961,-20.68835 -10.7274,-6.89612 -18.3775,-17.98929 -10.1776,-19.43476 3.6713,-0.64718 2.5151,-1.25359 8.6451,-1.25359 6.1299,0 9.4779,-1.67997 8.9815,-4.96996 -34.831,2.85741 -14.0759,-9.20037 -23.54,-19.54957 -5.3637,0 -1.0842,0.2092 -4.9155,8.63779 -9.408,15.52794 -18.4764,-1.11016 -24.2014,-4.80661 -3.8312,2.2987 -0.5393,8.33167 7.7669,17.33627 11.0553,7.83506 -8.8984,23.64281 -1.6371,27.10537 5.1919,2.03051 3.4673,-8.52155 8.0648,-14.65143 4.5974,-6.12988 12.6236,6.98907 12.6236,6.98907 2.0885,5.83451 6.4549,12.36455 5.0662,16.76328 -2.7638,8.75454 -14.7105,13.60454 -17.4855,19.49187 -4.4589,9.4597 1.2399,17.20058 3.9907,17.38131 z"
         style="fill:#333333;stroke:none" />
      <path
         sodipodi:nodetypes="csssssccssacssccscacc"
         inkscape:connector-curvature="0"
         id="path3249-6-8-4"
         d="m 3225.3572,463.79075 c 7.8571,3.21429 16.7857,4.64286 11.4286,10.71429 -5.3572,6.07142 -13.5715,10 -22.5,14.28571 -8.9286,4.28571 -15,10.35714 -21.4286,1.07143 -6.4286,-9.28572 -16.0714,-27.5 -18.5714,-27.14286 -2.5,0.35714 -13.9286,15.35714 -14.6429,20.35714 -0.7143,5 -6.0714,2.5 -6.0714,2.5 0,0 -6.4286,-2.5 0,-7.85714 9.0428,-16.74701 -0.5924,-11.01156 -14.7961,-15.633 -1.3818,-0.44962 0.1532,-4.72414 3.0104,-5.08128 2.8571,-0.35715 14.0996,-1.42497 15.3568,-6.8933 0.7896,-3.43429 -6.7854,-8.1067 -6.7854,-8.1067 0,0 -0.7143,-8.57143 3.5714,-5 4.2857,3.57142 8.2446,5.62834 15.5419,7.47415 5.3586,1.35541 0.8867,-10.3313 4.4582,-12.8313 3.5714,-2.5 6.7857,5 6.7857,5 0,0 -3.2143,14.64286 0.7142,16.78572 3.9286,2.14286 5,8.57143 5,8.57143 0,0 6.2419,12.15147 11.7857,11.78571 7.0327,-0.46399 7.5,-13.21428 12.8571,-16.78571 6.8078,-5.89638 6.6434,4.02445 14.2858,6.78571 z"
         style="fill:#333333;stroke:none" />
      <path
         sodipodi:nodetypes="cssssscssacszccccsc"
         inkscape:connector-curvature="0"
         id="path3257-6-8-0"
         d="m 3233.9286,572.71932 c 0,0 8.5714,-13.92857 20,-12.14285 11.4285,1.78571 17.8571,-5.35715 18.2143,8.21428 0.3571,13.57143 5.3571,15.35715 -6.7858,20.35715 -12.1428,5 -19.6428,4.64285 -24.2857,4.64285 -4.6428,0 -9.6428,1.42857 -12.8571,3.21429 -3.2143,1.78571 -4.2857,1.78571 -6.0714,2.85714 -1.7858,1.07143 -10.3572,5 -15.3572,16.78572 -5,11.78571 -7.1428,12.14285 -7.1428,10.71428 0,-1.42857 2.7918,-12.28378 -1.4025,-15.11314 -4.2319,-2.85478 -7.8883,4.12892 -14.669,4.39886 -1.4285,0 -3.0903,-0.21173 0,-4.28572 4.3549,-5.74117 10.614,-14.49457 -4.9401,-14.0215 -15.5541,0.47308 -11.8456,-2.76421 -8.9884,-4.54993 13.4884,-0.86541 16.6653,-3.89496 6.0714,-4.64285 -7.8572,-1.42858 -10,-5.71429 0.3571,-5.35715 12.5615,1.47747 26.3672,-1.86089 33.5715,-1.78571 6.0714,0 8.5714,-3.57143 13.9285,-5.71429 5.3572,-2.14285 10.3572,-3.57143 10.3572,-3.57143 z"
         style="fill:#333333;stroke:none" />
      <path
         sodipodi:nodetypes="cssssscccsacsscsc"
         inkscape:connector-curvature="0"
         id="path3259-5-1-3"
         d="m 3321.0714,601.29075 c 0,0 -17.1428,-3.92857 -16.0714,-13.57143 1.0714,-9.64285 -1.4286,-20.71428 9.6429,-24.28571 11.0714,-3.57143 15.3571,-4.28571 21.7857,-1.42857 6.4285,2.85714 10,14.28571 10,19.28571 0,5 4.2856,4.28572 4.2856,-1.78571 0,-6.07143 -0.3571,-23.57143 4.2858,-22.14286 1.6483,22.35285 8.3242,6.56003 17.8571,5.71429 -2.8467,8.52027 -3.865,9.15467 -1.2193,12.6557 5.9527,5.622 14.7008,-1.05718 13.3622,4.13001 -1.0412,4.03458 -10.0098,2.38011 -10.3571,6.42857 -0.3676,4.28482 1.822,6.01562 9.6428,8.57143 2.1429,0.71429 3.4458,5.3392 -8.9286,3.57143 -5,-0.71429 -9.2857,-3.92857 -20,-0.35714 -10.7142,3.57143 -17.1428,6.42857 -17.1428,6.42857 0,0 0.3571,-4.64286 -5,-5 -5.3572,-0.35714 -12.1429,1.78571 -12.1429,1.78571 z"
         style="fill:#333333;stroke:none" />
    </g>
  </g>
</svg>
