<?xml version="1.0" encoding="UTF-8" standalone="no"?>
<!-- Created with Inkscape (http://www.inkscape.org/) -->

<svg
   xmlns:dc="http://purl.org/dc/elements/1.1/"
   xmlns:cc="http://creativecommons.org/ns#"
   xmlns:rdf="http://www.w3.org/1999/02/22-rdf-syntax-ns#"
   xmlns:svg="http://www.w3.org/2000/svg"
   xmlns="http://www.w3.org/2000/svg"
   xmlns:sodipodi="http://sodipodi.sourceforge.net/DTD/sodipodi-0.dtd"
   xmlns:inkscape="http://www.inkscape.org/namespaces/inkscape"
   width="1143.0358"
   height="1143.0356"
   id="svg3163"
   version="1.1"
   inkscape:version="0.48.4 r9939"
   sodipodi:docname="lm_sticker_2_pink_bl.svg"
   inkscape:export-filename="/home/svet/Dropbox/falanster/digital-lab/start_stickers/lm_sticker_1_bl.png"
   inkscape:export-xdpi="84.112152"
   inkscape:export-ydpi="84.112152">
  <defs
     id="defs3165" />
  <sodipodi:namedview
     id="base"
     pagecolor="#ffffff"
     bordercolor="#666666"
     borderopacity="1.0"
     inkscape:pageopacity="0.0"
     inkscape:pageshadow="2"
     inkscape:zoom="0.49497474"
     inkscape:cx="1115.7461"
     inkscape:cy="522.62185"
     inkscape:document-units="px"
     inkscape:current-layer="layer1"
     showgrid="false"
     fit-margin-top="0"
     fit-margin-left="0"
     fit-margin-right="0"
     fit-margin-bottom="0"
     inkscape:window-width="1301"
     inkscape:window-height="744"
     inkscape:window-x="65"
     inkscape:window-y="24"
     inkscape:window-maximized="1"
     showguides="true"
     inkscape:guide-bbox="true">
    <sodipodi:guide
       orientation="1,0"
       position="851.16763,629.3199"
       id="guide3038" />
  </sodipodi:namedview>
  <metadata
     id="metadata3168">
    <rdf:RDF>
      <cc:Work
         rdf:about="">
        <dc:format>image/svg+xml</dc:format>
        <dc:type
           rdf:resource="http://purl.org/dc/dcmitype/StillImage" />
        <dc:title></dc:title>
      </cc:Work>
    </rdf:RDF>
  </metadata>
  <g
     inkscape:label="Layer 1"
     inkscape:groupmode="layer"
     id="layer1"
     transform="translate(-175.75439,-156.83487)">
    <path
       inkscape:connector-curvature="0"
       style="fill:#ff2ad4;fill-opacity:1;stroke:none"
       d="m 1318.7901,728.35265 c 0,315.64055 -255.8772,571.51785 -571.51794,571.51785 -315.64055,0 -571.51777,-255.8773 -571.51777,-571.51785 0,-315.64055 255.87722,-571.51778 571.51777,-571.51778 315.64074,0 571.51794,255.87723 571.51794,571.51778 z"
       id="path3290-7" />
    <path
       style="fill:#ffffff;fill-opacity:1;stroke:none"
       d="m 1265.7143,729.50507 c 0,287.18803 -232.8119,520.00003 -520.00001,520.00003 -287.18807,0 -520,-232.812 -520,-520.00003 0,-287.18807 232.81193,-520 520,-520 287.18811,0 520.00001,232.81193 520.00001,520 z"
       id="path3290"
       transform="translate(0,-2)"
       inkscape:connector-curvature="0" />
    <text
       xml:space="preserve"
       style="font-size:96.07583617999999603px;font-style:normal;font-variant:normal;font-weight:normal;font-stretch:normal;line-height:125%;letter-spacing:0px;word-spacing:0px;fill:#ff00cc;fill-opacity:1;stroke:none;font-family:Ubuntu Mono;-inkscape-font-specification:Ubuntu Mono"
       x="848.99719"
       y="701.00372"
       id="text4575-3-7"
       sodipodi:linespacing="125%"
       inkscape:export-filename="/home/svet/Dropbox/Photos/falanster/dig_lab/dg_logo_black_vk.png"
       inkscape:export-xdpi="48.003429"
       inkscape:export-ydpi="48.003429"><tspan
         sodipodi:role="line"
         id="tspan4577-6"
         x="848.99719"
         y="701.00372">лічбавая</tspan></text>
    <text
       xml:space="preserve"
       style="font-size:85.05580138999999917px;font-style:normal;font-variant:normal;font-weight:normal;font-stretch:normal;line-height:125%;letter-spacing:0px;word-spacing:0px;fill:#ff00cc;fill-opacity:1;stroke:none;font-family:Ubuntu Mono;-inkscape-font-specification:Ubuntu Mono"
       x="848.99719"
       y="765.37457"
       id="text4579-1-0"
       sodipodi:linespacing="125%"
       inkscape:export-filename="/home/svet/Dropbox/Photos/falanster/dig_lab/dg_logo_black_vk.png"
       inkscape:export-xdpi="48.003429"
       inkscape:export-ydpi="48.003429"><tspan
         sodipodi:role="line"
         id="tspan4581-6"
         x="848.99719"
         y="765.37457">майстэрня</tspan></text>
    <text
       xml:space="preserve"
       style="font-size:54.65794754000000211px;font-style:normal;font-variant:normal;font-weight:normal;font-stretch:normal;line-height:125%;letter-spacing:0px;word-spacing:0px;fill:#d400aa;fill-opacity:1;stroke:none;font-family:Ubuntu Mono;-inkscape-font-specification:Ubuntu Mono"
       x="260.33292"
       y="760.03143"
       id="text3292-8"
       sodipodi:linespacing="125%"><tspan
         sodipodi:role="line"
         id="tspan3294"
         x="260.33292"
         y="760.03143">it.falanster.by</tspan></text>
    <text
       xml:space="preserve"
       style="font-size:58.23609161px;font-style:normal;font-variant:normal;font-weight:normal;font-stretch:normal;line-height:125%;letter-spacing:0px;word-spacing:0px;fill:#999999;fill-opacity:1;stroke:none;font-family:Ubuntu Mono;-inkscape-font-specification:Ubuntu Mono"
       x="850.74121"
       y="822.36853"
       id="text4064-2"
       sodipodi:linespacing="125%"><tspan
         sodipodi:role="line"
         id="tspan4066"
         x="850.74121"
         y="822.36853">#айціваланцёр</tspan></text>
    <g
       id="g3261-7-8"
       style="fill:#ff2ad4;stroke:none"
       transform="matrix(1.6428556,0.48128941,-0.48128941,1.6428556,-4385.1813,-1676.9324)">
      <path
         sodipodi:nodetypes="csccsssscssczscac"
         inkscape:connector-curvature="0"
         id="path3245-1-9"
         d="m 3198.5714,336.6479 c 0,0 -18.5714,24.28571 -15.7143,41.42857 2.8572,17.14286 25.7143,50 25.7143,50 1.3288,13.89088 3.3508,29.78734 3.5504,31.60189 4.2857,37.14285 49.7251,40.59173 49.7251,96.30601 0,55.71429 -6.1326,44.94924 -28.9898,74.94924 -22.8571,30 -26.6853,54.01654 -22.8571,80 5.9594,40.44816 38.3816,100.24775 141.4286,84.28572 71.5424,-11.08194 81.4285,-32.85715 81.4285,-32.85715 0,0 0.7293,5.90898 -39.8687,14.28572 -65.6722,13.5504 -153.277,-26.19054 -139.6113,-92.61204 5.2417,-25.4775 19.9282,-32.39667 41.082,-57.14286 42.001,-55.2481 32.3876,-97.13291 25.5409,-117.07107 -6.8467,-19.93815 -20.9211,-28.24272 -29.2634,-44.68322 -7.9839,-15.73428 -29.2862,-25.17935 -36.9709,-48.23339 -2.5822,-28.96011 -2.683,-42.90223 -15.1943,-58.82885 -9.3441,-11.89482 -30,-21.42857 -40,-21.42857 z"
         style="fill:#ff2ad4;stroke:none" />
      <path
         sodipodi:nodetypes="ccsssccccccsccsc"
         inkscape:connector-curvature="0"
         id="path3247-0-7"
         d="m 3281.5373,466.82287 c 23.8824,-13.32688 23.2015,-11.53014 33.7144,-28.35069 0,0 3.8311,-13.79224 -6.8961,-20.68835 -10.7274,-6.89612 -18.3775,-17.98929 -10.1776,-19.43476 3.6713,-0.64718 2.5151,-1.25359 8.6451,-1.25359 6.1299,0 9.4779,-1.67997 8.9815,-4.96996 -34.831,2.85741 -14.0759,-9.20037 -23.54,-19.54957 -5.3637,0 -1.0842,0.2092 -4.9155,8.63779 -9.408,15.52794 -18.4764,-1.11016 -24.2014,-4.80661 -3.8312,2.2987 -0.5393,8.33167 7.7669,17.33627 11.0553,7.83506 -8.8984,23.64281 -1.6371,27.10537 5.1919,2.03051 3.4673,-8.52155 8.0648,-14.65143 4.5974,-6.12988 12.6236,6.98907 12.6236,6.98907 2.0885,5.83451 6.4549,12.36455 5.0662,16.76328 -2.7638,8.75454 -14.7105,13.60454 -17.4855,19.49187 -4.4589,9.4597 1.2399,17.20058 3.9907,17.38131 z"
         style="fill:#ff2ad4;stroke:none" />
      <path
         sodipodi:nodetypes="csssssccssacssccscacc"
         inkscape:connector-curvature="0"
         id="path3249-6-8"
         d="m 3225.3572,463.79075 c 7.8571,3.21429 16.7857,4.64286 11.4286,10.71429 -5.3572,6.07142 -13.5715,10 -22.5,14.28571 -8.9286,4.28571 -15,10.35714 -21.4286,1.07143 -6.4286,-9.28572 -16.0714,-27.5 -18.5714,-27.14286 -2.5,0.35714 -13.9286,15.35714 -14.6429,20.35714 -0.7143,5 -6.0714,2.5 -6.0714,2.5 0,0 -6.4286,-2.5 0,-7.85714 9.0428,-16.74701 -0.5924,-11.01156 -14.7961,-15.633 -1.3818,-0.44962 0.1532,-4.72414 3.0104,-5.08128 2.8571,-0.35715 14.0996,-1.42497 15.3568,-6.8933 0.7896,-3.43429 -6.7854,-8.1067 -6.7854,-8.1067 0,0 -0.7143,-8.57143 3.5714,-5 4.2857,3.57142 8.2446,5.62834 15.5419,7.47415 5.3586,1.35541 0.8867,-10.3313 4.4582,-12.8313 3.5714,-2.5 6.7857,5 6.7857,5 0,0 -3.2143,14.64286 0.7142,16.78572 3.9286,2.14286 5,8.57143 5,8.57143 0,0 6.2419,12.15147 11.7857,11.78571 7.0327,-0.46399 7.5,-13.21428 12.8571,-16.78571 6.8078,-5.89638 6.6434,4.02445 14.2858,6.78571 z"
         style="fill:#ff2ad4;stroke:none" />
      <path
         sodipodi:nodetypes="cssssscssacszccccsc"
         inkscape:connector-curvature="0"
         id="path3257-6-8"
         d="m 3233.9286,572.71932 c 0,0 8.5714,-13.92857 20,-12.14285 11.4285,1.78571 17.8571,-5.35715 18.2143,8.21428 0.3571,13.57143 5.3571,15.35715 -6.7858,20.35715 -12.1428,5 -19.6428,4.64285 -24.2857,4.64285 -4.6428,0 -9.6428,1.42857 -12.8571,3.21429 -3.2143,1.78571 -4.2857,1.78571 -6.0714,2.85714 -1.7858,1.07143 -10.3572,5 -15.3572,16.78572 -5,11.78571 -7.1428,12.14285 -7.1428,10.71428 0,-1.42857 2.7918,-12.28378 -1.4025,-15.11314 -4.2319,-2.85478 -7.8883,4.12892 -14.669,4.39886 -1.4285,0 -3.0903,-0.21173 0,-4.28572 4.3549,-5.74117 10.614,-14.49457 -4.9401,-14.0215 -15.5541,0.47308 -11.8456,-2.76421 -8.9884,-4.54993 13.4884,-0.86541 16.6653,-3.89496 6.0714,-4.64285 -7.8572,-1.42858 -10,-5.71429 0.3571,-5.35715 12.5615,1.47747 26.3672,-1.86089 33.5715,-1.78571 6.0714,0 8.5714,-3.57143 13.9285,-5.71429 5.3572,-2.14285 10.3572,-3.57143 10.3572,-3.57143 z"
         style="fill:#ff2ad4;stroke:none" />
      <path
         sodipodi:nodetypes="cssssscccsacsscsc"
         inkscape:connector-curvature="0"
         id="path3259-5-1"
         d="m 3321.0714,601.29075 c 0,0 -17.1428,-3.92857 -16.0714,-13.57143 1.0714,-9.64285 -1.4286,-20.71428 9.6429,-24.28571 11.0714,-3.57143 15.3571,-4.28571 21.7857,-1.42857 6.4285,2.85714 10,14.28571 10,19.28571 0,5 4.2856,4.28572 4.2856,-1.78571 0,-6.07143 -0.3571,-23.57143 4.2858,-22.14286 1.6483,22.35285 8.3242,6.56003 17.8571,5.71429 -2.8467,8.52027 -3.865,9.15467 -1.2193,12.6557 5.9527,5.622 14.7008,-1.05718 13.3622,4.13001 -1.0412,4.03458 -10.0098,2.38011 -10.3571,6.42857 -0.3676,4.28482 1.822,6.01562 9.6428,8.57143 2.1429,0.71429 3.4458,5.3392 -8.9286,3.57143 -5,-0.71429 -9.2857,-3.92857 -20,-0.35714 -10.7142,3.57143 -17.1428,6.42857 -17.1428,6.42857 0,0 0.3571,-4.64286 -5,-5 -5.3572,-0.35714 -12.1429,1.78571 -12.1429,1.78571 z"
         style="fill:#ff2ad4;stroke:none" />
    </g>
    <g
       id="g3087"
       transform="matrix(1.0163997,0,0,1.0163997,-1211.9362,-10.165936)"
       style="fill:#ff2ad4">
      <path
         inkscape:connector-curvature="0"
         id="path9306-6"
         d="m 1857.4427,379.31442 a 9.4344041,9.4344041 0 0 0 13.2933,1.14179 c 24.1663,-19.76509 59.4893,-16.22626 79.2544,7.94009 5.23,6.39468 8.9876,13.8617 11.01,21.87139 a 9.4361486,9.4361486 0 1 0 18.2984,-4.61867 c -2.6997,-10.69219 -7.7224,-20.66104 -14.704,-29.19731 -26.2204,-32.05914 -73.7442,-36.8203 -105.8034,-10.59988 a 9.4344041,9.4344041 0 0 0 -1.3487,13.46259 z"
         style="font-size:medium;font-style:normal;font-variant:normal;font-weight:normal;font-stretch:normal;text-indent:0;text-align:start;text-decoration:none;line-height:normal;letter-spacing:normal;word-spacing:normal;text-transform:none;direction:ltr;block-progression:tb;writing-mode:lr-tb;text-anchor:start;baseline-shift:baseline;color:#000000;fill:#ff2ad4;fill-opacity:1;stroke:none;stroke-width:50.71868134000000339;marker:none;visibility:visible;display:inline;overflow:visible;enable-background:accumulate;font-family:Sans;-inkscape-font-specification:Sans" />
      <path
         inkscape:connector-curvature="0"
         id="path9306-1-2"
         d="m 1837.8228,339.11003 a 9.4344046,9.4344046 0 0 0 13.2958,1.12773 c 39.5111,-32.31523 97.4559,-26.51007 129.7711,13.00109 8.5628,10.46954 14.7096,22.68605 18.0207,35.79977 a 9.4344046,9.4344046 0 1 0 18.2884,-4.60401 c -3.9884,-15.79618 -11.4031,-30.51873 -21.7175,-43.12987 -38.7705,-47.40394 -108.9043,-54.44304 -156.3082,-15.67247 a 9.4344046,9.4344046 0 0 0 -1.3503,13.47776 z"
         style="font-size:medium;font-style:normal;font-variant:normal;font-weight:normal;font-stretch:normal;text-indent:0;text-align:start;text-decoration:none;line-height:normal;letter-spacing:normal;word-spacing:normal;text-transform:none;direction:ltr;block-progression:tb;writing-mode:lr-tb;text-anchor:start;baseline-shift:baseline;color:#000000;fill:#ff2ad4;fill-opacity:1;stroke:none;stroke-width:32.80998230000000149;marker:none;visibility:visible;display:inline;overflow:visible;enable-background:accumulate;font-family:Sans;-inkscape-font-specification:Sans" />
      <path
         inkscape:connector-curvature="0"
         id="path9306-4-8"
         d="m 1822.5274,297.51484 a 9.4344041,9.4344041 0 0 0 13.2845,1.12786 c 53.6194,-43.85409 132.3493,-35.9496 176.2033,17.66983 11.627,14.21607 19.9827,30.80976 24.4788,48.61625 a 9.4349555,9.4349555 0 1 0 18.2932,-4.62922 c -5.1733,-20.48895 -14.7817,-39.57987 -28.1603,-55.93758 -50.3094,-61.51222 -141.2382,-70.62195 -202.7505,-20.31253 a 9.4344041,9.4344041 0 0 0 -1.349,13.46539 z"
         style="font-size:medium;font-style:normal;font-variant:normal;font-weight:normal;font-stretch:normal;text-indent:0;text-align:start;text-decoration:none;line-height:normal;letter-spacing:normal;word-spacing:normal;text-transform:none;direction:ltr;block-progression:tb;writing-mode:lr-tb;text-anchor:start;baseline-shift:baseline;color:#000000;fill:#ff2ad4;fill-opacity:1;stroke:none;stroke-width:24.76887131000000153;marker:none;visibility:visible;display:inline;overflow:visible;enable-background:accumulate;font-family:Sans;-inkscape-font-specification:Sans" />
    </g>
    <g
       id="g3007"
       style="fill:#ffffff">
      <path
         transform="matrix(0.72947349,0,0,0.72947349,1014.4062,164.29557)"
         d="m -360,662.36218 c 0,14.99059 -12.15227,27.14286 -27.14285,27.14286 -14.99059,0 -27.14286,-12.15227 -27.14286,-27.14286 0,-14.99058 12.15227,-27.14285 27.14286,-27.14285 14.99058,0 27.14285,12.15227 27.14285,27.14285 z"
         sodipodi:ry="27.142857"
         sodipodi:rx="27.142857"
         sodipodi:cy="662.36218"
         sodipodi:cx="-387.14285"
         id="path3896-12-9-4-0-8-4"
         style="fill:#ffffff;fill-opacity:1;stroke:none"
         sodipodi:type="arc" />
      <path
         transform="matrix(0.72947349,0,0,0.72947349,1032.765,224.10441)"
         d="m -360,662.36218 c 0,14.99059 -12.15227,27.14286 -27.14285,27.14286 -14.99059,0 -27.14286,-12.15227 -27.14286,-27.14286 0,-14.99058 12.15227,-27.14285 27.14286,-27.14285 14.99058,0 27.14285,12.15227 27.14285,27.14285 z"
         sodipodi:ry="27.142857"
         sodipodi:rx="27.142857"
         sodipodi:cy="662.36218"
         sodipodi:cx="-387.14285"
         id="path3896-12-9-4-0-8-4-9-0"
         style="fill:#ffffff;fill-opacity:1;stroke:none"
         sodipodi:type="arc" />
      <path
         transform="matrix(0.72947349,0,0,0.72947349,1045.065,285.6869)"
         d="m -360,662.36218 c 0,14.99059 -12.15227,27.14286 -27.14285,27.14286 -14.99059,0 -27.14286,-12.15227 -27.14286,-27.14286 0,-14.99058 12.15227,-27.14285 27.14286,-27.14285 14.99058,0 27.14285,12.15227 27.14285,27.14285 z"
         sodipodi:ry="27.142857"
         sodipodi:rx="27.142857"
         sodipodi:cy="662.36218"
         sodipodi:cx="-387.14285"
         id="path3896-12-9-4-0-8-4-8"
         style="fill:#ffffff;fill-opacity:1;stroke:none"
         sodipodi:type="arc" />
      <path
         transform="matrix(0.72947349,0,0,0.72947349,1034.7978,347.29002)"
         d="m -360,662.36218 c 0,14.99059 -12.15227,27.14286 -27.14285,27.14286 -14.99059,0 -27.14286,-12.15227 -27.14286,-27.14286 0,-14.99058 12.15227,-27.14285 27.14286,-27.14285 14.99058,0 27.14285,12.15227 27.14285,27.14285 z"
         sodipodi:ry="27.142857"
         sodipodi:rx="27.142857"
         sodipodi:cy="662.36218"
         sodipodi:cx="-387.14285"
         id="path3896-12-9-4-0-8-4-3"
         style="fill:#ffffff;fill-opacity:1;stroke:none"
         sodipodi:type="arc" />
    </g>
  </g>
</svg>
