<?xml version="1.0" encoding="UTF-8" standalone="no"?>
<!-- Created with Inkscape (http://www.inkscape.org/) -->

<svg
   xmlns:dc="http://purl.org/dc/elements/1.1/"
   xmlns:cc="http://creativecommons.org/ns#"
   xmlns:rdf="http://www.w3.org/1999/02/22-rdf-syntax-ns#"
   xmlns:svg="http://www.w3.org/2000/svg"
   xmlns="http://www.w3.org/2000/svg"
   xmlns:sodipodi="http://sodipodi.sourceforge.net/DTD/sodipodi-0.dtd"
   xmlns:inkscape="http://www.inkscape.org/namespaces/inkscape"
   width="194.88188"
   height="194.88187"
   id="svg3163"
   version="1.1"
   inkscape:version="0.48.4 r9939"
   sodipodi:docname="lm_sticker_1_blue_bl_curves.svg"
   inkscape:export-filename="/home/svet/Dropbox/falanster/digital-lab/start_stickers/lm_sticker_1_blue_bl_print.png"
   inkscape:export-xdpi="300.18182"
   inkscape:export-ydpi="300.18182">
  <defs
     id="defs3165" />
  <sodipodi:namedview
     id="base"
     pagecolor="#ffffff"
     bordercolor="#666666"
     borderopacity="1.0"
     inkscape:pageopacity="0.0"
     inkscape:pageshadow="2"
     inkscape:zoom="2.8"
     inkscape:cx="200.00809"
     inkscape:cy="98.08732"
     inkscape:document-units="px"
     inkscape:current-layer="layer1"
     showgrid="false"
     fit-margin-top="0"
     fit-margin-left="0"
     fit-margin-right="0"
     fit-margin-bottom="0"
     inkscape:window-width="1301"
     inkscape:window-height="744"
     inkscape:window-x="65"
     inkscape:window-y="24"
     inkscape:window-maximized="1"
     showguides="true"
     inkscape:guide-bbox="true">
    <sodipodi:guide
       orientation="1,0"
       position="851.16763,629.31992"
       id="guide3038" />
  </sodipodi:namedview>
  <metadata
     id="metadata3168">
    <rdf:RDF>
      <cc:Work
         rdf:about="">
        <dc:format>image/svg+xml</dc:format>
        <dc:type
           rdf:resource="http://purl.org/dc/dcmitype/StillImage" />
        <dc:title></dc:title>
      </cc:Work>
    </rdf:RDF>
  </metadata>
  <g
     inkscape:label="Layer 1"
     inkscape:groupmode="layer"
     id="layer1"
     transform="translate(-175.75439,-1104.9887)">
    <g
       id="g3080"
       transform="matrix(0.17049501,0,0,0.17049501,145.78914,1078.2491)">
      <path
         id="path3290-7"
         d="m 1318.7901,728.35265 c 0,315.64055 -255.8772,571.51785 -571.51794,571.51785 -315.64055,0 -571.51777,-255.8773 -571.51777,-571.51785 0,-315.64055 255.87722,-571.51778 571.51777,-571.51778 315.64074,0 571.51794,255.87723 571.51794,571.51778 z"
         style="fill:#00ccff;fill-opacity:1;stroke:none"
         inkscape:connector-curvature="0" />
      <path
         inkscape:connector-curvature="0"
         transform="translate(0,-2)"
         id="path3290"
         d="m 1265.7143,729.50507 c 0,287.18803 -232.8119,520.00003 -520.00001,520.00003 -287.18807,0 -520,-232.812 -520,-520.00003 0,-287.18807 232.81193,-520 520,-520 287.18811,0 520.00001,232.81193 520.00001,520 z"
         style="fill:#333333;fill-opacity:1;stroke:none" />
      <g
         style="fill:#00ccff"
         transform="translate(893.01547,24.365492)"
         id="g3306">
        <path
           inkscape:connector-curvature="0"
           id="rect3855-0-5-9-2-1-7-5-2"
           d="m 370.80783,776.70599 40.13075,0 0,221.38501 -40.13075,0 z"
           style="fill:#00ccff;fill-opacity:1;stroke:none"
           transform="matrix(0.8622694,0.50644988,-0.46018637,0.88782234,0,0)" />
        <path
           inkscape:connector-curvature="0"
           id="rect3855-5-7-4-9-6-8-0-6"
           d="m -842.52856,489.41898 40.13075,0 0,221.38501 -40.13075,0 z"
           style="fill:#00ccff;fill-opacity:1;stroke:none"
           transform="matrix(0.65563803,-0.75507534,0.78866003,0.61482954,0,0)" />
        <path
           inkscape:connector-curvature="0"
           id="rect2985-79-1-9-3-2-4-9"
           d="m -307.92134,289.38184 c 30.91524,0 55.80369,23.27203 55.80369,52.17945 l 0,189.51756 c 0,28.90741 -24.88845,52.17945 -55.80369,52.17945 -30.91525,0 -55.8037,-23.27204 -55.8037,-52.17945 l 0,-189.51756 c 0,-28.90742 24.88845,-52.17945 55.8037,-52.17945 z"
           style="fill:#00ccff;fill-opacity:1;stroke:none" />
        <path
           inkscape:connector-curvature="0"
           id="path3787-9-0-6-9-3-7-0"
           d="m 612.14286,645.2193 c 0,23.27486 -18.868,42.14286 -42.14286,42.14286 -23.27486,0 -42.14286,-18.868 -42.14286,-42.14286 0,-23.27486 18.868,-42.14286 42.14286,-42.14286 23.27486,0 42.14286,18.868 42.14286,42.14286 z"
           style="fill:#00ccff;fill-opacity:1;stroke:none"
           transform="matrix(1.3843393,0,0,1.3843393,-1108.3568,35.892234)" />
        <path
           inkscape:connector-curvature="0"
           id="path3787-3-9-6-4-2-8-3-1"
           d="m 612.14286,645.2193 c 0,23.27486 -18.868,42.14286 -42.14286,42.14286 -23.27486,0 -42.14286,-18.868 -42.14286,-42.14286 0,-23.27486 18.868,-42.14286 42.14286,-42.14286 23.27486,0 42.14286,18.868 42.14286,42.14286 z"
           style="fill:#00ccff;fill-opacity:1;stroke:none"
           transform="matrix(1.3843393,0,0,1.3843393,-946.96479,28.911094)" />
        <path
           inkscape:connector-curvature="0"
           id="path3787-5-3-8-0-7-2-9-2"
           d="m 612.14286,645.2193 c 0,23.27486 -18.868,42.14286 -42.14286,42.14286 -23.27486,0 -42.14286,-18.868 -42.14286,-42.14286 0,-23.27486 18.868,-42.14286 42.14286,-42.14286 23.27486,0 42.14286,18.868 42.14286,42.14286 z"
           style="fill:#00ccff;fill-opacity:1;stroke:none"
           transform="matrix(1.3843393,0,0,1.3843393,-786.31519,-46.060816)" />
        <path
           inkscape:connector-curvature="0"
           id="path3787-53-7-7-7-4-1-3-3"
           d="m 612.14286,645.2193 c 0,23.27486 -18.868,42.14286 -42.14286,42.14286 -23.27486,0 -42.14286,-18.868 -42.14286,-42.14286 0,-23.27486 18.868,-42.14286 42.14286,-42.14286 23.27486,0 42.14286,18.868 42.14286,42.14286 z"
           style="fill:#00ccff;fill-opacity:1;stroke:none"
           transform="matrix(1.3843393,0,0,1.3843393,-1041.1174,184.21432)" />
        <path
           inkscape:connector-curvature="0"
           id="path3787-4-1-5-8-2-6-8-9"
           d="m 612.14286,645.2193 c 0,23.27486 -18.868,42.14286 -42.14286,42.14286 -23.27486,0 -42.14286,-18.868 -42.14286,-42.14286 0,-23.27486 18.868,-42.14286 42.14286,-42.14286 23.27486,0 42.14286,18.868 42.14286,42.14286 z"
           style="fill:#00ccff;fill-opacity:1;stroke:none"
           transform="matrix(1.3843393,0,0,1.3843393,-922.17289,206.224)" />
        <path
           inkscape:connector-curvature="0"
           id="rect3855-5-71-7-0-5-9-6"
           d="m 363.19464,648.8006 40.13075,0 0,221.38501 -40.13075,0 z"
           style="fill:#00ccff;fill-opacity:1;stroke:none"
           transform="matrix(0.70852623,0.70568447,-0.66726536,0.74482007,0,0)" />
        <path
           inkscape:connector-curvature="0"
           id="rect3855-8-1-4-7-1-5-2-2"
           d="m -705.3681,694.23499 40.13075,0 0,221.38501 -40.13075,0 z"
           style="fill:#00ccff;fill-opacity:1;stroke:none"
           transform="matrix(0.92669399,-0.37581677,0.4242518,0.90554426,0,0)" />
        <path
           inkscape:connector-curvature="0"
           id="rect3855-6-6-5-6-8-6-4-4"
           d="m -766.12927,223.99118 40.13075,0 0,221.38501 -40.13075,0 z"
           style="fill:#00ccff;fill-opacity:1;stroke:none"
           transform="matrix(0.49431547,-0.86928259,0.89418464,0.44769836,0,0)" />
        <path
           inkscape:connector-curvature="0"
           id="rect3855-89-9-0-5-6-8-6-3"
           d="m -92.375557,703.36139 40.130753,0 0,221.38501 -40.130753,0 z"
           style="fill:#00ccff;fill-opacity:1;stroke:none"
           transform="matrix(0.98898489,0.14801652,-0.09555887,0.99542378,0,0)" />
        <path
           inkscape:connector-curvature="0"
           id="rect2985-79-4-5-5-7-5-5-2"
           d="m -528.30135,-353.44244 c 30.91525,0 55.80369,23.27203 55.80369,52.17945 l 0,146.79044 c 0,28.90742 -24.88844,52.17946 -55.80369,52.17946 -30.91524,0 -55.80369,-23.27204 -55.80369,-52.17946 l 0,-146.79044 c 0,-28.90742 24.88845,-52.17945 55.80369,-52.17945 z"
           style="fill:#00ccff;fill-opacity:1;stroke:none"
           transform="matrix(0,-1,1,0,0,0)" />
        <path
           inkscape:connector-curvature="0"
           id="rect2985-79-7-0-7-2-4-6-9"
           d="m 3.7010498,327.17371 c 30.9152452,0 55.8036922,23.27203 55.8036922,52.17945 l 0,199.70936 c 0,28.90742 -24.888447,52.17945 -55.8036922,52.17945 -30.9152448,0 -55.8036918,-23.27203 -55.8036918,-52.17945 l 0,-199.70936 c 0,-28.90742 24.888447,-52.17945 55.8036918,-52.17945 z"
           style="fill:#00ccff;fill-opacity:1;stroke:none" />
        <path
           inkscape:connector-curvature="0"
           id="rect2985-79-5-8-8-2-7-1-3"
           d="m -150.76371,369.81876 c 30.91525,0 55.803696,23.27203 55.803696,52.17945 l 0,325.38639 c 0,28.90742 -24.888446,52.17946 -55.803696,52.17946 -30.91524,0 -55.80369,-23.27204 -55.80369,-52.17946 l 0,-325.38639 c 0,-28.90742 24.88845,-52.17945 55.80369,-52.17945 z"
           style="fill:#00ccff;fill-opacity:1;stroke:none" />
        <path
           inkscape:connector-curvature="0"
           id="path3787-4-1-7-8-5-2-7-8-5"
           d="m 612.14286,645.2193 c 0,23.27486 -18.868,42.14286 -42.14286,42.14286 -23.27486,0 -42.14286,-18.868 -42.14286,-42.14286 0,-23.27486 18.868,-42.14286 42.14286,-42.14286 23.27486,0 42.14286,18.868 42.14286,42.14286 z"
           style="fill:#00ccff;fill-opacity:1;stroke:none"
           transform="matrix(1.3843393,0,0,1.3843393,-784.50073,151.13296)" />
        <path
           style="fill:#00ccff;fill-opacity:1;stroke:none"
           d="m 16.625754,329.57398 c 0,8.23026 -6.07457,14.9022 -13.5676302,14.9022 -7.49334,0 -13.5678098,-6.67194 -13.5678098,-14.9022 0,-8.23027 5.8454698,-9.78653 13.5678098,-26.02326 7.3571602,16.01432 13.5676302,17.79299 13.5676302,26.02326 z"
           id="path4099-90-1-7-8-9-1"
           inkscape:connector-curvature="0"
           sodipodi:nodetypes="ssscs" />
        <path
           style="fill:#00ccff;fill-opacity:1;stroke:none"
           d="m 52.210724,358.79545 c -5.8819,5.75672 -14.89911,6.08209 -20.14028,0.72698 -5.24127,-5.35532 -4.72173,-14.3633 1.16018,-20.12001 5.88209,-5.7567 11.08299,-2.66765 28.08825,-8.50556 -6.29888,16.45929 -3.22605,22.14189 -9.10815,27.89859 z"
           id="path4099-4-2-4-7-7-5-3"
           inkscape:connector-curvature="0"
           sodipodi:nodetypes="ssscs" />
        <path
           style="fill:#00ccff;fill-opacity:1;stroke:none"
           d="m -30.14795,342.19157 c 6.55664,4.97464 8.2002,13.84674 3.67113,19.81614 -4.52916,5.96963 -13.51593,6.77612 -20.07276,1.80149 -6.55664,-4.97465 -4.26335,-10.57213 -12.5308,-26.5382 17.20486,3.81845 22.37569,-0.054 28.93243,4.92057 z"
           id="path4099-8-7-9-1-0-5-6"
           inkscape:connector-curvature="0"
           sodipodi:nodetypes="ssscs" />
        <path
           style="fill:#00ccff;fill-opacity:1;stroke:none"
           d="m 56.476424,411.66968 c -8.23027,0 -14.9023,-6.07459 -14.9023,-13.56766 0,-7.49336 6.67203,-13.5678 14.9023,-13.5678 8.23026,0 9.78635,5.84546 26.02312,13.5678 -16.01433,7.35716 -17.79286,13.56766 -26.02312,13.56766 z"
           id="path4099-1-5-8-3-3-1-6"
           inkscape:connector-curvature="0"
           sodipodi:nodetypes="ssscs" />
        <path
           style="fill:#00ccff;fill-opacity:1;stroke:none"
           d="m -295.97113,294.21084 c 0,8.23025 -6.07458,14.9022 -13.56765,14.9022 -7.49338,0 -13.56781,-6.67195 -13.56781,-14.9022 0,-8.23027 5.84545,-9.78653 13.56781,-26.02327 7.35716,16.01431 13.56765,17.793 13.56765,26.02327 z"
           id="path4099-9-1-6-1-3-2-2"
           inkscape:connector-curvature="0"
           sodipodi:nodetypes="ssscs" />
        <path
           style="fill:#00ccff;fill-opacity:1;stroke:none"
           d="m -135.55209,373.38512 c 0,8.23025 -6.07457,14.9022 -13.56767,14.9022 -7.49336,0 -13.56779,-6.67195 -13.56779,-14.9022 0,-8.23027 5.84545,-9.78653 13.56779,-26.02326 7.3572,16.01431 13.56767,17.79299 13.56767,26.02326 z"
           id="path4099-6-9-8-7-3-7-8"
           inkscape:connector-curvature="0"
           sodipodi:nodetypes="ssscs" />
        <path
           style="fill:#00ccff;fill-opacity:1;stroke:none"
           d="m -261.07282,315.97882 c -5.0011,6.53644 -13.87984,8.14397 -19.8307,3.59071 -5.95116,-4.55343 -6.72118,-13.54347 -1.71993,-20.0799 5.00109,-6.53644 10.58923,-4.22037 26.58861,-12.42293 -3.88826,17.18917 -0.0363,22.37567 -5.03798,28.91212 z"
           id="path4099-2-6-6-4-4-4-3"
           inkscape:connector-curvature="0"
           sodipodi:nodetypes="ssscs" />
        <path
           style="fill:#00ccff;fill-opacity:1;stroke:none"
           d="m -338.60676,299.7216 c 5.8774,5.76133 6.38967,14.76982 1.14449,20.12081 -5.24547,5.35123 -14.2623,5.01867 -20.13984,-0.74265 -5.87739,-5.76132 -2.89681,-11.02511 -9.08624,-27.90583 16.58643,5.95633 22.20405,2.76635 28.08159,8.52767 z"
           id="path4099-0-7-6-1-9-4-4"
           inkscape:connector-curvature="0"
           sodipodi:nodetypes="ssscs" />
        <path
           style="fill:#00ccff;fill-opacity:1;stroke:none"
           d="m -175.69632,378.06739 c 4.24037,7.05376 2.4718,15.90177 -3.95026,19.76241 -6.42219,3.86077 -15.06586,1.27227 -19.30637,-5.7815 -4.24037,-7.05378 -0.0319,-11.39931 -1.77947,-29.29383 14.55648,9.93452 20.79559,8.25913 25.0361,15.31292 z"
           id="path4099-18-0-6-8-5-3-0"
           inkscape:connector-curvature="0"
           sodipodi:nodetypes="ssscs" />
        <path
           style="fill:#00ccff;fill-opacity:1;stroke:none"
           d="m -358.30794,344.0505 c 8.23027,0 14.90221,6.07457 14.90221,13.56764 0,7.49336 -6.67194,13.5678 -14.90221,13.5678 -8.23027,0 -9.78656,-5.84544 -26.02334,-13.5678 16.01433,-7.35716 17.79307,-13.56764 26.02334,-13.56764 z"
           id="path4099-92-9-8-5-3-2-5"
           inkscape:connector-curvature="0"
           sodipodi:nodetypes="ssscs" />
        <path
           style="fill:#00ccff;fill-opacity:1;stroke:none"
           d="m -358.27846,398.23272 c 8.23026,0 14.90221,6.07458 14.90221,13.56765 0,7.49336 -6.67195,13.5678 -14.90221,13.5678 -8.23028,0 -9.78657,-5.84545 -26.02335,-13.5678 16.01434,-7.35716 17.79307,-13.56765 26.02335,-13.56765 z"
           id="path4099-183-5-5-0-7-4-1"
           inkscape:connector-curvature="0"
           sodipodi:nodetypes="ssscs" />
        <path
           style="fill:#00ccff;fill-opacity:1;stroke:none"
           d="m -203.69704,411.46108 c 8.23028,0 14.90222,6.07457 14.90222,13.56764 0,7.49337 -6.67194,13.56781 -14.90222,13.56781 -8.23027,0 -9.78655,-5.84545 -26.02333,-13.56781 16.01432,-7.35716 17.79306,-13.56764 26.02333,-13.56764 z"
           id="path4099-99-0-6-1-7-0-9"
           inkscape:connector-curvature="0"
           sodipodi:nodetypes="ssscs" />
        <path
           inkscape:connector-curvature="0"
           id="rect2985-79-4-5-6-7-6-7-1-8"
           d="m -575.65615,-156.3868 c 30.91525,0 55.80369,23.27204 55.80369,52.17946 l 0,94.932121 c 0,28.907418 -24.88844,52.179455 -55.80369,52.179455 -30.91524,0 -55.80369,-23.272037 -55.80369,-52.179455 l 0,-94.932121 c 0,-28.90742 24.88845,-52.17946 55.80369,-52.17946 z"
           style="fill:#00ccff;fill-opacity:1;stroke:none"
           transform="matrix(0,-1,1,0,0,0)" />
      </g>
      <path
         style="fill:#333333;fill-opacity:1;stroke:none"
         d="m 676.58925,1102.5733 c 0,20.7521 -16.82286,37.5749 -37.57491,37.5749 -20.75206,0 -37.57493,-16.8228 -37.57493,-37.5749 0,-20.752 16.82287,-37.5749 37.57493,-37.5749 20.75205,0 37.57491,16.8229 37.57491,37.5749 z"
         id="path3896-4-6-9-5-7-9-7-5"
         inkscape:connector-curvature="0" />
      <path
         style="fill:#333333;fill-opacity:1;stroke:none"
         d="m 797.31345,1122.8031 c 0,20.7521 -16.82286,37.575 -37.57491,37.575 -20.75206,0 -37.57493,-16.8229 -37.57493,-37.575 0,-20.752 16.82287,-37.5749 37.57493,-37.5749 20.75205,0 37.57491,16.8229 37.57491,37.5749 z"
         id="path3896-3-9-56-4-2-8-8-9"
         inkscape:connector-curvature="0" />
      <path
         style="fill:#333333;fill-opacity:1;stroke:none"
         d="m 934.98565,1067.7121 c 0,20.7521 -16.82286,37.5749 -37.57491,37.5749 -20.75206,0 -37.57493,-16.8228 -37.57493,-37.5749 0,-20.7521 16.82287,-37.5749 37.57493,-37.5749 20.75205,0 37.57491,16.8228 37.57491,37.5749 z"
         id="path3896-3-9-5-8-3-1-4-3-1"
         inkscape:connector-curvature="0" />
      <g
         id="g3198">
        <path
           style="font-size:medium;font-style:normal;font-variant:normal;font-weight:normal;font-stretch:normal;text-indent:0;text-align:start;text-decoration:none;line-height:normal;letter-spacing:normal;word-spacing:normal;text-transform:none;direction:ltr;block-progression:tb;writing-mode:lr-tb;text-anchor:start;baseline-shift:baseline;color:#000000;fill:#333333;fill-opacity:1;stroke:none;stroke-width:6.0406847;marker:none;visibility:visible;display:inline;overflow:visible;enable-background:accumulate;font-family:Sans;-inkscape-font-specification:Sans"
           d="m 729.53125,524.875 c -4.6319,-0.2802 -9.37691,0.7486 -13.65625,3.28125 a 3.0254858,3.0254858 0 1 0 3.0625,5.21875 c 8.6021,-5.091 19.62775,-2.2896 24.71875,6.3125 1.34714,2.27622 2.15228,4.836 2.40625,7.46875 a 3.0302028,3.0302028 0 1 0 6.03125,-0.59375 c -0.33903,-3.51447 -1.4517,-6.89898 -3.25,-9.9375 -4.22109,-7.13223 -11.59266,-11.283 -19.3125,-11.75 z"
           id="path9306-6-4"
           inkscape:connector-curvature="0" />
        <path
           style="font-size:medium;font-style:normal;font-variant:normal;font-weight:normal;font-stretch:normal;text-indent:0;text-align:start;text-decoration:none;line-height:normal;letter-spacing:normal;word-spacing:normal;text-transform:none;direction:ltr;block-progression:tb;writing-mode:lr-tb;text-anchor:start;baseline-shift:baseline;color:#000000;fill:#333333;fill-opacity:1;stroke:none;stroke-width:6.04068518;marker:none;visibility:visible;display:inline;overflow:visible;enable-background:accumulate;font-family:Sans;-inkscape-font-specification:Sans"
           d="m 731.78125,509.59375 c -6.84145,-0.4124 -13.8599,1.16137 -20.1875,4.90625 a 3.0206446,3.0206446 0 1 0 3.0625,5.1875 c 14.06413,-8.32362 32.14513,-3.68914 40.46875,10.375 2.20557,3.72668 3.55294,7.90834 3.96875,12.21875 a 3.0302028,3.0302028 0 1 0 6.03125,-0.59375 c -0.50087,-5.19213 -2.15577,-10.19852 -4.8125,-14.6875 -6.24147,-10.546 -17.12883,-16.71892 -28.53125,-17.40625 z"
           id="path9306-1-2-5"
           inkscape:connector-curvature="0" />
        <path
           style="font-size:medium;font-style:normal;font-variant:normal;font-weight:normal;font-stretch:normal;text-indent:0;text-align:start;text-decoration:none;line-height:normal;letter-spacing:normal;word-spacing:normal;text-transform:none;direction:ltr;block-progression:tb;writing-mode:lr-tb;text-anchor:start;baseline-shift:baseline;color:#000000;fill:#333333;fill-opacity:1;stroke:none;stroke-width:6.0406847;marker:none;visibility:visible;display:inline;overflow:visible;enable-background:accumulate;font-family:Sans;-inkscape-font-specification:Sans"
           d="m 734.96875,494.25 c -8.87296,-0.53394 -18.00794,1.48432 -26.21875,6.34375 a 3.0206444,3.0206444 0 1 0 3.09375,5.1875 c 19.08604,-11.29574 43.6105,-4.9923 54.90625,14.09375 2.99483,5.06027 4.84165,10.7096 5.40625,16.5625 a 3.0206444,3.0206444 0 1 0 6,-0.5625 c -0.64966,-6.73462 -2.77276,-13.27118 -6.21875,-19.09375 -8.09905,-13.6847 -22.18049,-21.64134 -36.96875,-22.53125 z"
           id="path9306-4-8-4"
           inkscape:connector-curvature="0" />
      </g>
      <g
         id="text4575-3-7"
         style="font-size:96.07583618px;font-style:normal;font-variant:normal;font-weight:normal;font-stretch:normal;line-height:125%;letter-spacing:0px;word-spacing:0px;fill:#00ccff;fill-opacity:1;stroke:none;font-family:Ubuntu Mono;-inkscape-font-specification:Ubuntu Mono">
        <path
           id="path3117"
           d="m 299.82861,652.95227 c -2e-5,1.92155 -0.0641,3.97116 -0.19215,6.14885 -0.0641,2.1137 -0.2242,4.25939 -0.48038,6.43708 -0.19217,2.11369 -0.4804,4.22736 -0.86468,6.34101 -0.38432,2.04963 -0.89673,3.97115 -1.53721,5.76455 -1.28103,3.65089 -3.23457,6.78936 -5.86063,9.41543 -2.62608,2.62607 -6.37304,4.19531 -11.24087,4.70771 l -1.15291,-6.7253 c 2.81822,-0.5124 5.02796,-1.53721 6.62923,-3.07443 1.66531,-1.60125 2.97834,-3.52277 3.93911,-5.76455 0.83265,-1.9215 1.44113,-4.09922 1.82544,-6.53316 0.44834,-2.4339 0.76859,-4.99592 0.96076,-7.68607 0.19214,-2.69009 0.28821,-5.38021 0.28823,-8.07037 -2e-5,-2.69008 -2e-5,-5.22007 0,-7.58999 l 26.32478,0 0,44.57919 -7.9743,0 0,-37.94995 -10.66442,0"
           inkscape:connector-curvature="0" />
        <path
           id="path3119"
           d="m 345.36856,639.40557 c -1.66533,5e-5 -3.10647,-0.5764 -4.32341,-1.72936 -1.21698,-1.15286 -1.82546,-2.72209 -1.82544,-4.70772 -2e-5,-1.9855 0.60846,-3.55474 1.82544,-4.70771 1.21694,-1.15285 2.65808,-1.7293 4.32341,-1.72937 1.72934,7e-5 3.17048,0.57652 4.32341,1.72937 1.21694,1.15297 1.82542,2.72221 1.82544,4.70771 -2e-5,1.98563 -0.6085,3.55486 -1.82544,4.70772 -1.15293,1.15296 -2.59407,1.72941 -4.32341,1.72936 m -2.01759,13.5467 -12.87416,0 0,-6.62924 20.75238,0 0,27.38162 c -3e-5,4.4195 0.60845,7.39785 1.82544,8.93505 1.21693,1.47317 3.04237,2.20975 5.47632,2.20974 1.85743,1e-5 3.55477,-0.22417 5.09202,-0.67253 1.60122,-0.44834 2.85021,-0.92872 3.74696,-1.44113 l 1.15291,6.7253 c -0.38435,0.19216 -0.92878,0.44836 -1.63329,0.76861 -0.7046,0.2562 -1.53725,0.51241 -2.49797,0.76861 -0.89675,0.2562 -1.92156,0.48038 -3.07443,0.67253 -1.08889,0.19215 -2.2418,0.28822 -3.45873,0.28823 -2.81825,-10e-6 -5.1561,-0.38431 -7.01354,-1.15291 -1.85749,-0.76861 -3.36267,-1.92152 -4.51556,-3.45873 -1.08888,-1.53721 -1.85749,-3.4267 -2.30582,-5.66848 -0.44837,-2.30581 -0.67255,-4.9639 -0.67253,-7.97429 l 0,-20.75238"
           inkscape:connector-curvature="0" />
        <path
           id="path3121"
           d="m 386.39294,646.32303 0,13.06632 c -1e-5,3.39471 0.8967,5.76457 2.69013,7.10961 1.85745,1.34508 4.38744,2.01761 7.58999,2.01759 2.30579,2e-5 4.22731,-0.0961 5.76455,-0.28823 1.53718,-0.25617 2.91427,-0.5444 4.13126,-0.86468 l 0,-21.04061 7.97429,0 0,44.57919 -7.97429,0 0,-17.19757 c -0.44839,0.12812 -1.08889,0.28824 -1.92152,0.48038 -0.76864,0.12811 -1.66534,0.28824 -2.69012,0.48038 -0.96079,0.12811 -1.9856,0.25621 -3.07443,0.3843 -1.08888,0.12812 -2.14572,0.19217 -3.1705,0.19215 -2.56204,2e-5 -4.89989,-0.25619 -7.01354,-0.76861 -2.11368,-0.57643 -3.93912,-1.47314 -5.47632,-2.69012 -1.47317,-1.21694 -2.62608,-2.8182 -3.45873,-4.80379 -0.83266,-2.04959 -1.24899,-4.54756 -1.24899,-7.49392 l 0,-13.16239 7.87822,0"
           inkscape:connector-curvature="0" />
        <path
           id="path3123"
           d="m 434.23871,651.41505 c 1.6653,-1.40907 3.58681,-2.49793 5.76455,-3.26658 2.1777,-0.76856 4.32339,-1.15286 6.43708,-1.15291 6.34097,5e-5 11.11274,1.95359 14.3153,5.86063 3.20249,3.90712 4.80375,9.35141 4.80379,16.33289 -4e-5,3.0104 -0.41637,5.89267 -1.24898,8.64683 -0.76865,2.75418 -1.98561,5.1881 -3.65089,7.30176 -1.6013,2.11367 -3.68294,3.81101 -6.24492,5.09202 -2.56206,1.21696 -5.57243,1.82544 -9.03113,1.82544 -3.97116,0 -7.23773,-0.73658 -9.79974,-2.20974 -2.49798,-1.53721 -4.48355,-3.58683 -5.9567,-6.14886 -1.47317,-2.56201 -2.49798,-5.54036 -3.07443,-8.93505 -0.57646,-3.45871 -0.86468,-7.10959 -0.86468,-10.95264 0,-4.99592 0.32025,-9.60755 0.96076,-13.83492 0.70455,-4.29135 1.98556,-8.07033 3.84303,-11.33695 1.85746,-3.26653 4.38745,-5.95665 7.58999,-8.07037 3.26656,-2.17766 7.46187,-3.65082 12.58594,-4.41949 1.60123,-0.25614 2.94629,-0.44829 4.03518,-0.57646 1.15288,-0.19208 2.17769,-0.35221 3.07443,-0.48038 0.89667,-0.12803 1.6973,-0.22411 2.4019,-0.28822 0.70451,-0.12804 1.44109,-0.28816 2.20974,-0.48038 l 0.86468,6.91746 c -0.38434,0.12816 -0.80067,0.25626 -1.24898,0.3843 -0.4484,0.0641 -1.05688,0.16019 -1.82544,0.28823 -0.76865,0.0641 -1.79346,0.19221 -3.07443,0.3843 -1.217,0.12816 -2.81826,0.28829 -4.80379,0.48038 -5.50838,0.70461 -9.73571,2.49803 -12.68201,5.38025 -2.94634,2.81827 -4.73976,7.23776 -5.38025,13.25846 m -0.48038,13.64277 c -10e-6,2.69015 0.16011,5.25217 0.48038,7.68607 0.32024,2.43394 0.89669,4.61165 1.72936,6.53316 0.8967,1.85747 2.08163,3.33063 3.55481,4.41948 1.53719,1.08887 3.49073,1.6333 5.86063,1.63329 2.11364,10e-6 3.93908,-0.41632 5.47632,-1.24898 1.53718,-0.8967 2.78617,-2.08164 3.74696,-3.55481 0.96072,-1.47315 1.66528,-3.17049 2.11367,-5.09202 0.51236,-1.98555 0.76857,-4.06719 0.7686,-6.24493 -3e-5,-1.92149 -0.19219,-3.81098 -0.57645,-5.66847 -0.38434,-1.92149 -1.05687,-3.5868 -2.0176,-4.99595 -0.96079,-1.47312 -2.2418,-2.65806 -3.84303,-3.5548 -1.60129,-0.89667 -3.61888,-1.34503 -6.05278,-1.34506 -2.30584,3e-5 -4.48355,0.57649 -6.53315,1.72936 -1.98559,1.0889 -3.55482,2.36991 -4.70772,3.84304 l 0,5.86062"
           inkscape:connector-curvature="0" />
        <path
           id="path3125"
           d="m 493.9018,685.23375 c 1.98554,0 3.74693,-0.064 5.28418,-0.19215 1.60123,-0.1281 2.91426,-0.28823 3.9391,-0.48038 l 0,-13.25847 c -1.02484,-0.32023 -2.27382,-0.57643 -3.74695,-0.76861 -1.40914,-0.19213 -2.91433,-0.2882 -4.51557,-0.28822 -1.47318,2e-5 -2.91432,0.12812 -4.32341,0.3843 -1.40913,0.19217 -2.65812,0.57647 -3.74696,1.15291 -1.08887,0.57647 -1.98558,1.34508 -2.69012,2.30582 -0.70457,0.89672 -1.05685,2.04963 -1.05684,3.45873 -1e-5,2.88229 0.96075,4.89988 2.88228,6.05278 1.98555,1.08886 4.64364,1.63329 7.97429,1.63329 m -0.7686,-39.96755 c 3.3306,5e-5 6.1168,0.41637 8.3586,1.24899 2.30578,0.8327 4.16325,1.98561 5.57239,3.45873 1.40908,1.4732 2.40186,3.26661 2.97835,5.38024 0.57642,2.1137 0.86465,4.41952 0.86469,6.91746 l 0,27.86199 c -1.85751,0.32026 -4.32345,0.70456 -7.39784,1.15292 -3.01041,0.44835 -6.11686,0.67252 -9.31936,0.67253 -2.43394,-10e-6 -4.80381,-0.22418 -7.10961,-0.67253 -2.30584,-0.38431 -4.35545,-1.08886 -6.14885,-2.11367 -1.79343,-1.08886 -3.23457,-2.56202 -4.32342,-4.41949 -1.08886,-1.85746 -1.63329,-4.22733 -1.63329,-7.10961 0,-2.56201 0.54443,-4.7077 1.63329,-6.43708 1.15291,-1.7934 2.59404,-3.23453 4.32342,-4.32342 1.7934,-1.08883 3.81099,-1.85744 6.05277,-2.30582 2.3058,-0.51238 4.61162,-0.76858 6.91746,-0.7686 3.13845,2e-5 6.21288,0.3523 9.22328,1.05683 l 0,-2.20974 c -3e-5,-1.34504 -0.16016,-2.62605 -0.48037,-3.84304 -0.25624,-1.28098 -0.80067,-2.43388 -1.63329,-3.45873 -0.76864,-1.02477 -1.8575,-1.8254 -3.26658,-2.40189 -1.34509,-0.64047 -3.10648,-0.96072 -5.28417,-0.96076 -2.7542,4e-5 -5.15609,0.19219 -7.20569,0.57645 -2.04963,0.38434 -3.61887,0.76865 -4.70772,1.15291 l -0.96076,-6.53315 c 1.08885,-0.51236 2.88227,-0.96072 5.38025,-1.34507 2.56201,-0.38425 5.28415,-0.5764 8.16645,-0.57645"
           inkscape:connector-curvature="0" />
        <path
           id="path3127"
           d="m 532.04391,684.84944 c 0.64049,0.12811 1.7934,0.25621 3.45873,0.38431 1.6653,0.0641 3.33061,0.0961 4.99594,0.0961 1.66529,1e-5 3.23453,-0.0961 4.70772,-0.28822 1.53718,-0.2562 2.85022,-0.67253 3.93911,-1.24899 1.15288,-0.57645 2.04958,-1.34505 2.69012,-2.30582 0.70452,-0.96075 1.0568,-2.17771 1.05684,-3.65088 -4e-5,-1.4091 -0.32029,-2.59403 -0.96076,-3.55481 -0.57649,-0.96074 -1.37712,-1.72934 -2.4019,-2.30582 -1.02484,-0.57643 -2.2418,-0.96074 -3.65088,-1.15291 -1.40914,-0.25618 -2.91432,-0.38428 -4.51556,-0.3843 l -9.31936,0 0,14.41137 m 8.26252,-20.272 c 3.0744,3e-5 5.6044,-0.44832 7.58999,-1.34506 2.04959,-0.96073 3.0744,-2.75414 3.07443,-5.38025 -3e-5,-1.34502 -0.35231,-2.40186 -1.05683,-3.1705 -0.64054,-0.83262 -1.53725,-1.47312 -2.69013,-1.92152 -1.08889,-0.44831 -2.33787,-0.73654 -3.74695,-0.86468 -1.40914,-0.12806 -2.81825,-0.19211 -4.22734,-0.19215 -1.34508,4e-5 -2.65812,0.0321 -3.93911,0.0961 -1.28103,0.0641 -2.36989,0.12814 -3.26658,0.19215 l 0,12.58593 8.26252,0 m -0.0961,27.09339 c -3.45875,0 -6.5652,-0.16013 -9.31936,-0.48038 -2.75418,-0.32025 -4.96393,-0.67253 -6.62923,-1.05684 l 0,-43.42627 c 1.6653,-0.38426 3.87505,-0.73654 6.62923,-1.05684 2.75416,-0.3202 5.86061,-0.48033 9.31936,-0.48038 2.30579,5e-5 4.57958,0.1922 6.82138,0.57646 2.24174,0.38435 4.2273,1.05688 5.9567,2.01759 1.72933,0.9608 3.10642,2.24181 4.13126,3.84303 1.08882,1.60131 1.63325,3.6189 1.63329,6.05278 -4e-5,2.2418 -0.54447,4.13129 -1.63329,5.66848 -1.08889,1.47319 -2.56206,2.65812 -4.41948,3.5548 2.43388,0.89673 4.38742,2.17774 5.86062,3.84304 1.47312,1.60128 2.2097,3.93912 2.20975,7.01353 -5e-5,2.69014 -0.54448,4.9319 -1.63329,6.72531 -1.02485,1.79342 -2.46599,3.23456 -4.32342,4.32341 -1.8575,1.02481 -4.03521,1.76139 -6.53315,2.20975 -2.498,0.44835 -5.18812,0.67253 -8.07037,0.67253"
           inkscape:connector-curvature="0" />
        <path
           id="path3129"
           d="m 589.97764,685.23375 c 1.98554,0 3.74693,-0.064 5.28417,-0.19215 1.60123,-0.1281 2.91427,-0.28823 3.93911,-0.48038 l 0,-13.25847 c -1.02484,-0.32023 -2.27383,-0.57643 -3.74696,-0.76861 -1.40914,-0.19213 -2.91432,-0.2882 -4.51556,-0.28822 -1.47319,2e-5 -2.91432,0.12812 -4.32341,0.3843 -1.40914,0.19217 -2.65812,0.57647 -3.74696,1.15291 -1.08888,0.57647 -1.98558,1.34508 -2.69013,2.30582 -0.70457,0.89672 -1.05684,2.04963 -1.05683,3.45873 -10e-6,2.88229 0.96074,4.89988 2.88228,6.05278 1.98554,1.08886 4.64364,1.63329 7.97429,1.63329 m -0.76861,-39.96755 c 3.33061,5e-5 6.1168,0.41637 8.3586,1.24899 2.30579,0.8327 4.16325,1.98561 5.5724,3.45873 1.40907,1.4732 2.40186,3.26661 2.97835,5.38024 0.57641,2.1137 0.86464,4.41952 0.86468,6.91746 l 0,27.86199 c -1.8575,0.32026 -4.32345,0.70456 -7.39784,1.15292 -3.0104,0.44835 -6.11685,0.67252 -9.31935,0.67253 -2.43395,-10e-6 -4.80381,-0.22418 -7.10961,-0.67253 -2.30584,-0.38431 -4.35546,-1.08886 -6.14886,-2.11367 -1.79342,-1.08886 -3.23456,-2.56202 -4.32341,-4.41949 -1.08887,-1.85746 -1.6333,-4.22733 -1.63329,-7.10961 -10e-6,-2.56201 0.54442,-4.7077 1.63329,-6.43708 1.1529,-1.7934 2.59404,-3.23453 4.32341,-4.32342 1.7934,-1.08883 3.811,-1.85744 6.05278,-2.30582 2.3058,-0.51238 4.61162,-0.76858 6.91746,-0.7686 3.13845,2e-5 6.21287,0.3523 9.22328,1.05683 l 0,-2.20974 c -3e-5,-1.34504 -0.16016,-2.62605 -0.48038,-3.84304 -0.25623,-1.28098 -0.80066,-2.43388 -1.63329,-3.45873 -0.76864,-1.02477 -1.85749,-1.8254 -3.26658,-2.40189 -1.34509,-0.64047 -3.10647,-0.96072 -5.28417,-0.96076 -2.75419,4e-5 -5.15609,0.19219 -7.20569,0.57645 -2.04963,0.38434 -3.61886,0.76865 -4.70771,1.15291 l -0.96076,-6.53315 c 1.08885,-0.51236 2.88226,-0.96072 5.38025,-1.34507 2.562,-0.38425 5.28415,-0.5764 8.16644,-0.57645"
           inkscape:connector-curvature="0" />
        <path
           id="path3131"
           d="m 640.03317,673.60857 c -0.89674,2e-5 -1.76142,2e-5 -2.59405,0 -0.76863,-0.064 -1.50521,-0.12808 -2.20975,-0.19215 -1.85748,2.75419 -3.61887,5.70051 -5.28417,8.83898 -1.66533,3.07443 -3.17051,5.9567 -4.51556,8.64682 l -8.07037,0 c 0.70455,-1.66531 1.50518,-3.36265 2.40189,-5.09202 0.89671,-1.79341 1.82544,-3.49074 2.7862,-5.09202 0.96075,-1.6653 1.92151,-3.23454 2.88228,-4.70771 0.96074,-1.5372 1.88948,-2.88226 2.7862,-4.03519 -3.20254,-1.15289 -5.38026,-2.78618 -6.53316,-4.89987 -1.08887,-2.17769 -1.63329,-4.48351 -1.63329,-6.91746 0,-2.49793 0.44835,-4.67565 1.34506,-6.53315 0.96075,-1.85743 2.27379,-3.39464 3.93911,-4.61164 1.6653,-1.28097 3.61884,-2.24173 5.86063,-2.88228 2.3058,-0.64046 4.80377,-0.96071 7.49391,-0.96076 3.77896,5e-5 6.94946,0.16018 9.51151,0.48038 2.56199,0.3203 4.7397,0.73663 6.53316,1.24899 l 0,44.00273 -7.9743,0 0,-17.29365 -6.7253,0 m 6.7253,-21.42491 c -0.64053,-0.12806 -1.66534,-0.22414 -3.07442,-0.28823 -1.34509,-0.12806 -2.97838,-0.19211 -4.89987,-0.19215 -3.2666,4e-5 -5.89267,0.67257 -7.87822,2.01759 -1.98558,1.3451 -2.97836,3.45877 -2.97835,6.34101 -10e-6,2.8823 1.02479,4.86787 3.07443,5.9567 2.0496,1.08888 4.70769,1.63331 7.97429,1.63329 l 7.78214,0 0,-15.46821"
           inkscape:connector-curvature="0" />
      </g>
      <g
         id="text4579-1-0"
         style="font-size:85.05580139px;font-style:normal;font-variant:normal;font-weight:normal;font-stretch:normal;line-height:125%;letter-spacing:0px;word-spacing:0px;fill:#00ccff;fill-opacity:1;stroke:none;font-family:Ubuntu Mono;-inkscape-font-specification:Ubuntu Mono">
        <path
           id="path3098"
           d="m 287.37243,726.18399 c -0.45364,5.16007 -0.7088,10.20671 -0.7655,15.13993 -10e-6,4.87654 -0.0851,9.52625 -0.25517,13.94915 l -6.80446,0 c 0.0567,-3.11871 0.17011,-6.35083 0.34022,-9.69636 0.22682,-3.34552 0.45363,-6.71939 0.68045,-10.12164 0.28352,-3.40221 0.56703,-6.77609 0.85056,-10.12164 0.34022,-3.3455 0.68044,-6.52091 1.02067,-9.52625 l 6.54929,0 c 1.07736,2.72182 2.3532,6.12405 3.82752,10.2067 1.47428,4.0827 3.3455,8.95923 5.61368,14.62959 2.32483,-5.67036 4.22441,-10.54689 5.69874,-14.62959 1.53097,-4.08265 2.86351,-7.48488 3.99762,-10.2067 l 6.46424,0 c 0.34019,3.00534 0.65206,6.18075 0.93561,9.52625 0.34019,3.34555 0.62371,6.71943 0.85056,10.12164 0.28348,3.40225 0.5103,6.77612 0.68045,10.12164 0.17007,3.34553 0.31183,6.57765 0.42528,9.69636 l -6.80447,0 c -0.17014,-4.4229 -0.3119,-9.18602 -0.42528,-14.28937 -0.0567,-5.10333 -0.28355,-10.03656 -0.68044,-14.79971 -0.73718,1.75784 -1.41763,3.40225 -2.04134,4.93323 -0.56707,1.47433 -1.13411,3.00533 -1.70112,4.59302 -0.51036,1.58772 -1.0774,3.28884 -1.70111,5.10335 -0.62377,1.75783 -1.36092,3.82752 -2.21145,6.20907 l -6.97458,0 c -0.79387,-2.38155 -1.50267,-4.45124 -2.12639,-6.20907 -0.62376,-1.81451 -1.21915,-3.51563 -1.78618,-5.10335 -0.51034,-1.58769 -1.07738,-3.11869 -1.70111,-4.59302 -0.56705,-1.53098 -1.21915,-3.17539 -1.95629,-4.93323"
           inkscape:connector-curvature="0" />
        <path
           id="path3100"
           d="m 341.46792,750.25478 c 1.7578,0 3.31715,-0.0567 4.67807,-0.17011 1.41757,-0.11341 2.58,-0.25516 3.48729,-0.42528 l 0,-11.7377 c -0.90729,-0.2835 -2.01301,-0.51032 -3.31718,-0.68045 -1.24751,-0.17009 -2.58005,-0.25515 -3.99762,-0.25517 -1.30421,2e-5 -2.58004,0.11343 -3.82751,0.34023 -1.2475,0.17013 -2.35323,0.51035 -3.31718,1.02067 -0.96398,0.51035 -1.75783,1.19079 -2.38156,2.04134 -0.62375,0.79386 -0.93562,1.81453 -0.93561,3.062 -1e-5,2.55169 0.85054,4.33786 2.55167,5.35852 1.75781,0.96397 4.11101,1.44595 7.05963,1.44595 m -0.68044,-35.38321 c 2.94857,4e-5 5.41519,0.36861 7.39985,1.10572 2.04131,0.73719 3.68572,1.75786 4.93324,3.06201 1.24745,1.30422 2.12636,2.89193 2.63673,4.76312 0.5103,1.87126 0.76546,3.9126 0.7655,6.12402 l 0,24.66618 c -1.64445,0.28352 -3.82754,0.62375 -6.5493,1.02067 -2.66511,0.39693 -5.41524,0.59539 -8.25041,0.5954 -2.15477,-1e-5 -4.25281,-0.19847 -6.29413,-0.5954 -2.04135,-0.34022 -3.85587,-0.96396 -5.44357,-1.87122 -1.58772,-0.96397 -2.86355,-2.26815 -3.82751,-3.91257 -0.96397,-1.64441 -1.44595,-3.74245 -1.44595,-6.29413 0,-2.26814 0.48198,-4.16772 1.44595,-5.69874 1.02066,-1.58769 2.2965,-2.86352 3.82751,-3.82751 1.5877,-0.96394 3.37387,-1.64439 5.35852,-2.04134 2.04132,-0.45361 4.08265,-0.68042 6.12401,-0.68044 2.77847,2e-5 5.50025,0.31189 8.16536,0.93561 l 0,-1.95628 c -3e-5,-1.19076 -0.14179,-2.32484 -0.42528,-3.40224 -0.22684,-1.13404 -0.70883,-2.15471 -1.44595,-3.06201 -0.68047,-0.90722 -1.64444,-1.61602 -2.89189,-2.12639 -1.19081,-0.567 -2.75016,-0.85052 -4.67807,-0.85056 -2.43829,4e-5 -4.56468,0.17015 -6.37919,0.51034 -1.81453,0.34025 -3.20378,0.68048 -4.16773,1.02067 l -0.85056,-5.7838 c 0.96395,-0.45359 2.55166,-0.85052 4.76312,-1.19078 2.26814,-0.34018 4.67805,-0.51029 7.22975,-0.51033"
           inkscape:connector-curvature="0" />
        <path
           id="path3102"
           d="m 399.56104,715.80718 0,39.46589 -6.88952,0 0,-30.10975 c -1.53104,1.92796 -3.1471,4.19611 -4.84818,6.80446 -1.64444,2.6084 -3.3172,5.30183 -5.0183,8.0803 -1.64443,2.7218 -3.23213,5.41523 -4.76312,8.0803 -1.53102,2.66509 -2.89191,5.04665 -4.08268,7.14469 l -6.29413,0 0,-39.46589 6.80446,0 0,28.40864 c 1.30418,-2.21144 2.72178,-4.593 4.25279,-7.14469 1.53099,-2.60836 3.1187,-5.18838 4.76313,-7.74008 1.64439,-2.60835 3.2888,-5.07496 4.93324,-7.39985 1.64438,-2.38153 3.26044,-4.42287 4.84818,-6.12402 l 6.29413,0 m -14.96983,-6.37919 c -3.17543,5e-5 -5.75545,-0.7938 -7.74007,-2.38156 -1.98465,-1.64436 -3.20378,-3.91251 -3.6574,-6.80446 l 5.35851,-1.44595 c 0.45362,1.64447 1.16241,2.97701 2.1264,3.99762 0.96394,0.96402 2.26813,1.446 3.91256,1.44595 1.64439,5e-5 2.94858,-0.48193 3.91257,-1.44595 0.96394,-1.02061 1.67274,-2.35315 2.1264,-3.99762 l 5.27346,1.44595 c -0.45367,2.89195 -1.6728,5.1601 -3.6574,6.80446 -1.92796,1.58776 -4.47963,2.38161 -7.65503,2.38156"
           inkscape:connector-curvature="0" />
        <path
           id="path3104"
           d="m 409.00223,735.62518 c 0,-3.57232 0.56703,-6.66268 1.70112,-9.27108 1.13407,-2.60835 2.69342,-4.76309 4.67806,-6.46424 1.98463,-1.70108 4.28113,-2.94856 6.88952,-3.74246 2.66507,-0.85052 5.50026,-1.27579 8.50558,-1.27583 1.92791,4e-5 3.82749,0.1418 5.69874,0.42527 1.9279,0.22686 3.96924,0.68049 6.12402,1.3609 l -1.61606,6.03896 c -1.87126,-0.68041 -3.60073,-1.10569 -5.1884,-1.27584 -1.53104,-0.22678 -3.09039,-0.34019 -4.67807,-0.34022 -2.04137,3e-5 -3.96929,0.28355 -5.7838,0.85056 -1.81454,0.51036 -3.40225,1.36092 -4.76312,2.55167 -1.3042,1.13411 -2.35323,2.63676 -3.14707,4.50796 -0.79386,1.81455 -1.19079,4.026 -1.19078,6.63435 -10e-6,2.49499 0.36857,4.64973 1.10573,6.46424 0.73714,1.75783 1.7578,3.23213 3.06201,4.4229 1.36087,1.13409 2.97693,1.98465 4.84818,2.55168 1.8712,0.56704 3.94089,0.85056 6.20907,0.85056 1.8145,0 3.54396,-0.0851 5.18841,-0.25517 1.70108,-0.22681 3.54395,-0.68044 5.52862,-1.36089 l 1.02067,5.86885 c -1.98467,0.73715 -3.99766,1.24748 -6.03896,1.531 -2.04137,0.34022 -4.25282,0.51033 -6.63435,0.51034 -3.17544,-1e-5 -6.09569,-0.42528 -8.76075,-1.27584 -2.60839,-0.90726 -4.87654,-2.21145 -6.80446,-3.91257 -1.87124,-1.70111 -3.34554,-3.8275 -4.42291,-6.37918 -1.02067,-2.60837 -1.531,-5.61367 -1.531,-9.01592"
           inkscape:connector-curvature="0" />
        <path
           id="path3106"
           d="m 484.95706,715.80718 0,5.86885 -12.84343,0 0,33.59704 -6.97457,0 0,-33.59704 -12.84343,0 0,-5.86885 32.66143,0"
           inkscape:connector-curvature="0" />
        <path
           id="path3108"
           d="m 529.01596,735.37001 c -4e-5,3.28884 -0.51038,6.23744 -1.53101,8.84581 -0.964,2.55168 -2.38159,4.73478 -4.25279,6.54929 -1.81455,1.75783 -4.05435,3.11872 -6.7194,4.08268 -2.60841,0.90726 -5.52865,1.36089 -8.76075,1.3609 -2.89191,-1e-5 -5.50029,-0.22682 -7.82514,-0.68045 -2.26816,-0.39693 -3.94092,-0.85056 -5.01829,-1.36089 l 1.02067,-5.86885 c 1.13407,0.51034 2.72178,0.93562 4.76313,1.27583 2.09803,0.34023 4.22442,0.51034 6.37918,0.51034 2.04132,0 3.91255,-0.28352 5.61368,-0.85056 1.7578,-0.56703 3.2888,-1.36089 4.59302,-2.38156 1.30416,-1.07737 2.35318,-2.38155 3.14706,-3.91257 0.79382,-1.53099 1.27581,-3.2321 1.44595,-5.10335 l -18.11689,0 0,-5.69874 17.94678,0 c -0.22685,-1.70109 -0.73718,-3.23209 -1.53101,-4.59301 -0.79388,-1.41757 -1.81455,-2.60835 -3.062,-3.57234 -1.24752,-0.96394 -2.69346,-1.70109 -4.33785,-2.21145 -1.64443,-0.56701 -3.4306,-0.85053 -5.35852,-0.85056 -2.21146,3e-5 -4.08269,0.14179 -5.61368,0.42528 -1.47431,0.28355 -3.03366,0.73718 -4.67807,1.36089 l -1.61606,-6.03896 c 1.36089,-0.45359 3.03365,-0.85052 5.01829,-1.19078 1.98463,-0.39689 4.39454,-0.59535 7.22975,-0.59539 3.17539,4e-5 6.06729,0.48202 8.67569,1.44594 2.60835,0.96401 4.84815,2.3249 6.71941,4.08268 1.87119,1.75786 3.31714,3.9126 4.33784,6.46424 1.02063,2.5517 1.53097,5.38689 1.53101,8.50558"
           inkscape:connector-curvature="0" />
        <path
           id="path3110"
           d="m 564.31412,735.62518 c -3e-5,-4.59299 -1.0774,-8.13698 -3.23212,-10.63197 -2.15477,-2.55165 -4.96161,-3.82748 -8.42052,-3.82752 -1.92795,4e-5 -3.45895,0.0851 -4.59301,0.25517 -1.07739,0.17015 -1.92795,0.36861 -2.55168,0.59539 l 0,24.92135 c 0.79384,0.73716 1.95627,1.41761 3.48729,2.04134 1.53099,0.62375 3.11869,0.93562 4.76312,0.93562 1.87121,0 3.45891,-0.36857 4.76313,-1.10573 1.36086,-0.73714 2.46659,-1.72946 3.31717,-2.97695 0.85053,-1.30418 1.47427,-2.80683 1.87123,-4.50796 0.3969,-1.7578 0.59536,-3.65738 0.59539,-5.69874 m 7.22975,0 c -4e-5,3.00532 -0.39697,5.78381 -1.19078,8.33547 -0.73719,2.49498 -1.84292,4.64972 -3.31718,6.46424 -1.41763,1.81453 -3.17545,3.23212 -5.27346,4.25279 -2.09807,1.02067 -4.47963,1.531 -7.14469,1.53101 -2.09806,-1e-5 -3.94094,-0.25517 -5.52863,-0.76551 -1.58772,-0.51033 -2.7785,-1.07737 -3.57234,-1.70111 l 0,15.56521 -7.05963,0 0,-52.30932 c 1.531,-0.45359 3.48728,-0.90722 5.86885,-1.36089 2.43825,-0.45359 5.21674,-0.68041 8.33547,-0.68045 2.83517,4e-5 5.41519,0.48202 7.74008,1.44595 2.32482,0.964 4.30946,2.35325 5.9539,4.16773 1.64438,1.75786 2.92021,3.9126 3.82751,6.46425 0.90723,2.55169 1.36086,5.41524 1.3609,8.59063"
           inkscape:connector-curvature="0" />
        <path
           id="path3112"
           d="m 611.43504,755.27307 -7.05963,0 0,-17.43644 -16.33071,0 0,17.43644 -7.05963,0 0,-39.46589 7.05963,0 0,16.07555 16.33071,0 0,-16.07555 7.05963,0 0,39.46589"
           inkscape:connector-curvature="0" />
        <path
           id="path3114"
           d="m 640.9494,739.96303 c -0.79388,10e-6 -1.55938,10e-6 -2.29651,0 -0.68046,-0.0567 -1.33256,-0.1134 -1.95628,-0.17011 -1.64443,2.43827 -3.20378,5.04665 -4.67807,7.82513 -1.47431,2.72179 -2.80685,5.27346 -3.99762,7.65502 l -7.14469,0 c 0.62374,-1.4743 1.33254,-2.97695 2.1264,-4.50796 0.79384,-1.5877 1.61605,-3.09035 2.46661,-4.50795 0.85055,-1.47429 1.70111,-2.86354 2.55168,-4.16774 0.85055,-1.36088 1.67275,-2.55166 2.46662,-3.57234 -2.83521,-1.02065 -4.76314,-2.4666 -5.7838,-4.33785 -0.96397,-1.92791 -1.44595,-3.96924 -1.44595,-6.12402 0,-2.21142 0.39692,-4.13935 1.19078,-5.78379 0.85055,-1.64438 2.01298,-3.00527 3.48729,-4.08268 1.47429,-1.13404 3.20376,-1.98459 5.18841,-2.55167 2.04132,-0.567 4.25277,-0.85052 6.63435,-0.85056 3.3455,4e-5 6.15234,0.1418 8.42052,0.42528 2.26813,0.28356 4.19605,0.65213 5.7838,1.10572 l 0,38.95556 -7.05963,0 0,-15.31004 -5.95391,0 m 5.95391,-18.96745 c -0.56707,-0.11337 -1.47433,-0.19843 -2.72179,-0.25516 -1.19081,-0.11338 -2.63675,-0.17008 -4.33785,-0.17012 -2.89191,4e-5 -5.21677,0.59543 -6.97457,1.78618 -1.75783,1.19081 -2.63674,3.06203 -2.63673,5.61368 -10e-6,2.5517 0.90725,4.30952 2.72178,5.27346 1.81451,0.96399 4.16772,1.44597 7.05964,1.44595 l 6.88952,0 0,-13.69399"
           inkscape:connector-curvature="0" />
      </g>
      <g
         id="text3292-8"
         style="font-size:54.65794754px;font-style:normal;font-variant:normal;font-weight:normal;font-stretch:normal;line-height:125%;letter-spacing:0px;word-spacing:0px;fill:#2ad4ff;fill-opacity:1;stroke:none;font-family:Ubuntu Mono;-inkscape-font-specification:Ubuntu Mono">
        <path
           id="path3067"
           d="m 829.36064,706.45047 c -0.94741,3e-5 -1.76728,-0.32792 -2.4596,-0.98384 -0.69235,-0.65587 -1.03851,-1.54861 -1.0385,-2.67824 -10e-6,-1.12956 0.34615,-2.02231 1.0385,-2.67824 0.69232,-0.65586 1.51219,-0.98381 2.4596,-0.98384 0.98384,3e-5 1.8037,0.32798 2.45961,0.98384 0.69232,0.65593 1.03849,1.54868 1.0385,2.67824 -10e-6,1.12963 -0.34618,2.02237 -1.0385,2.67824 -0.65591,0.65592 -1.47577,0.98387 -2.45961,0.98384 m -1.14781,7.70677 -7.32417,0 0,-3.7714 11.80612,0 0,15.57752 c -2e-5,2.51427 0.34615,4.20867 1.0385,5.08319 0.69232,0.83809 1.73082,1.25713 3.1155,1.25713 1.0567,0 2.02233,-0.12753 2.89687,-0.3826 0.91095,-0.25507 1.6215,-0.52836 2.13166,-0.81987 l 0.6559,3.82605 c -0.21866,0.10932 -0.52838,0.25507 -0.92918,0.43727 -0.40085,0.14575 -0.87455,0.2915 -1.42111,0.43726 -0.51016,0.14575 -1.09318,0.27329 -1.74906,0.3826 -0.61947,0.10932 -1.27537,0.16398 -1.96768,0.16398 -1.60332,0 -2.93333,-0.21863 -3.99003,-0.6559 -1.05674,-0.43726 -1.91304,-1.09315 -2.56893,-1.96768 -0.61946,-0.87453 -1.05673,-1.94947 -1.31179,-3.22482 -0.25508,-1.31179 -0.38261,-2.82399 -0.3826,-4.53661 l 0,-11.80612"
           inkscape:connector-curvature="0" />
        <path
           id="path3069"
           d="m 858.54799,710.38584 10.71296,0 0,3.7714 -10.71296,0 0,11.80612 c -10e-6,1.27536 0.0911,2.31386 0.27329,3.1155 0.18218,0.80166 0.47369,1.45755 0.87453,1.96769 0.43724,0.4737 0.98382,0.80165 1.63973,0.98384 0.65588,0.1822 1.45753,0.27329 2.40495,0.27329 1.31177,0 2.36849,-0.10931 3.17016,-0.32795 0.80163,-0.21862 1.56684,-0.51013 2.29564,-0.87452 l 0.65589,3.82605 c -0.51016,0.21863 -1.33003,0.51014 -2.4596,0.87453 -1.09318,0.36439 -2.45963,0.54658 -4.09935,0.54658 -1.89482,0 -3.44347,-0.21863 -4.64593,-0.6559 -1.20248,-0.43726 -2.14989,-1.09315 -2.84221,-1.96768 -0.6559,-0.87453 -1.11139,-1.94947 -1.36645,-3.22482 -0.25508,-1.31179 -0.38261,-2.82399 -0.3826,-4.53661 l 0,-11.80612 -5.35648,0 0,-3.7714 5.35648,0 0,-7.10553 4.48195,-0.76521 0,7.87074"
           inkscape:connector-curvature="0" />
        <path
           id="path3071"
           d="m 890.30426,732.24902 c -2e-5,1.09316 -0.36441,2.05879 -1.09316,2.89687 -0.72879,0.83809 -1.69441,1.25714 -2.89687,1.25714 -1.23893,0 -2.22277,-0.41905 -2.95153,-1.25714 -0.72879,-0.83808 -1.09317,-1.80371 -1.09316,-2.89687 -10e-6,-1.12959 0.36437,-2.11343 1.09316,-2.95153 0.72876,-0.83808 1.7126,-1.25712 2.95153,-1.25713 1.20246,1e-5 2.16808,0.41905 2.89687,1.25713 0.72875,0.8381 1.09314,1.82194 1.09316,2.95153"
           inkscape:connector-curvature="0" />
        <path
           id="path3073"
           d="m 908.72399,735.74713 0,-21.58989 -5.35648,0 0,-3.7714 5.35648,0 0,-2.29563 c -10e-6,-1.96766 0.27328,-3.58917 0.81987,-4.86456 0.54657,-1.31175 1.25712,-2.36847 2.13166,-3.17016 0.91095,-0.80161 1.94945,-1.36641 3.1155,-1.69439 1.20246,-0.32791 2.45959,-0.49189 3.7714,-0.49193 1.31177,4e-5 2.62356,0.1458 3.93537,0.43727 1.3482,0.29154 2.60534,0.63771 3.7714,1.0385 l -0.81987,3.88071 c -0.80168,-0.40079 -1.80374,-0.74696 -3.00619,-1.0385 -1.20249,-0.29147 -2.42319,-0.43723 -3.66208,-0.43726 -0.76523,3e-5 -1.494,0.10935 -2.18632,0.32795 -0.65591,0.18222 -1.23893,0.52839 -1.74905,1.0385 -0.51016,0.47373 -0.91098,1.12963 -1.20248,1.96768 -0.29152,0.80168 -0.43728,1.82196 -0.43726,3.06085 l 0,2.24097 10.22103,0 0,3.7714 -10.22103,0 0,21.58989 -4.48195,0"
           inkscape:connector-curvature="0" />
        <path
           id="path3075"
           d="m 941.19081,732.52231 c 1.12958,1e-5 2.13164,-0.0364 3.00618,-0.10931 0.91095,-0.0729 1.65794,-0.16397 2.24098,-0.27329 l 0,-7.5428 c -0.58304,-0.18218 -1.29359,-0.32794 -2.13166,-0.43726 -0.80167,-0.10931 -1.65797,-0.16397 -2.56893,-0.16398 -0.8381,10e-6 -1.65797,0.0729 -2.4596,0.21863 -0.80166,0.10933 -1.51222,0.32796 -2.13166,0.6559 -0.61947,0.32796 -1.12961,0.76522 -1.53043,1.31179 -0.40083,0.51015 -0.60124,1.16605 -0.60123,1.96769 -10e-6,1.63974 0.54657,2.78756 1.63974,3.44345 1.12958,0.61946 2.64178,0.92919 4.53661,0.92918 m -0.43727,-22.7377 c 1.8948,2e-5 3.47987,0.23687 4.75524,0.71055 1.31177,0.47373 2.36849,1.12962 3.17016,1.96769 0.80163,0.83811 1.36643,1.85839 1.6944,3.06084 0.32792,1.20249 0.4919,2.51428 0.49192,3.93537 l 0,15.85081 c -1.05674,0.18219 -2.45963,0.40082 -4.20866,0.65589 -1.71263,0.25507 -3.47991,0.38261 -5.30182,0.38261 -1.38468,0 -2.73291,-0.12754 -4.04469,-0.38261 -1.3118,-0.21863 -2.47783,-0.61945 -3.49811,-1.20247 -1.02028,-0.61946 -1.84015,-1.45754 -2.45961,-2.51427 -0.61946,-1.05671 -0.92918,-2.40494 -0.92918,-4.04469 0,-1.45753 0.30972,-2.67822 0.92918,-3.66208 0.6559,-1.02027 1.47576,-1.84014 2.45961,-2.45961 1.02028,-0.61944 2.16809,-1.0567 3.44345,-1.31179 1.31178,-0.29149 2.62357,-0.43724 3.93538,-0.43726 1.78547,2e-5 3.53453,0.20043 5.24716,0.60124 l 0,-1.25714 c -2e-5,-0.76519 -0.0911,-1.49396 -0.27329,-2.18631 -0.14577,-0.72876 -0.4555,-1.38465 -0.92919,-1.96769 -0.43728,-0.583 -1.05673,-1.03848 -1.85837,-1.36645 -0.76522,-0.36436 -1.76728,-0.54656 -3.00618,-0.54658 -1.56688,2e-5 -2.93332,0.10934 -4.09935,0.32795 -1.16604,0.21865 -2.05879,0.43729 -2.67824,0.6559 l -0.54658,-3.71674 c 0.61945,-0.29149 1.63973,-0.54656 3.06085,-0.76522 1.45753,-0.2186 3.00617,-0.32792 4.64592,-0.32794"
           inkscape:connector-curvature="0" />
        <path
           id="path3077"
           d="m 973.05639,736.34837 c -1.60332,0 -2.93333,-0.21863 -3.99003,-0.6559 -1.05674,-0.43726 -1.89482,-1.09315 -2.51427,-1.96768 -0.61947,-0.87453 -1.05673,-1.94947 -1.31179,-3.22482 -0.25508,-1.31179 -0.38262,-2.82399 -0.38261,-4.53661 l 0,-23.99484 -7.32416,0 0,-3.82606 11.80612,0 0,27.8209 c -2e-5,1.27536 0.0729,2.31386 0.21863,3.1155 0.18218,0.80166 0.43725,1.45755 0.76521,1.96769 0.36437,0.4737 0.80163,0.80165 1.31179,0.98384 0.51012,0.1822 1.11136,0.27329 1.80371,0.27329 1.0567,0 2.04055,-0.12753 2.95153,-0.3826 0.91094,-0.25507 1.6215,-0.52836 2.13166,-0.81987 l 0.6559,3.82605 c -0.21866,0.10932 -0.52839,0.25507 -0.92919,0.43727 -0.40085,0.14575 -0.87455,0.2915 -1.4211,0.43726 -0.54661,0.14575 -1.14784,0.27329 -1.80372,0.3826 -0.61947,0.10932 -1.27537,0.16398 -1.96768,0.16398"
           inkscape:connector-curvature="0" />
        <path
           id="path3079"
           d="m 995.84876,732.52231 c 1.12958,1e-5 2.13164,-0.0364 3.00618,-0.10931 0.91095,-0.0729 1.65796,-0.16397 2.24096,-0.27329 l 0,-7.5428 c -0.583,-0.18218 -1.29357,-0.32794 -2.13164,-0.43726 -0.80167,-0.10931 -1.65797,-0.16397 -2.56892,-0.16398 -0.83811,10e-6 -1.65797,0.0729 -2.45961,0.21863 -0.80166,0.10933 -1.51222,0.32796 -2.13166,0.6559 -0.61947,0.32796 -1.12961,0.76522 -1.53042,1.31179 -0.40084,0.51015 -0.60125,1.16605 -0.60124,1.96769 -10e-6,1.63974 0.54657,2.78756 1.63974,3.44345 1.12958,0.61946 2.64179,0.92919 4.53661,0.92918 m -0.43727,-22.7377 c 1.8948,2e-5 3.47988,0.23687 4.75521,0.71055 1.3118,0.47373 2.3685,1.12962 3.1702,1.96769 0.8016,0.83811 1.3664,1.85839 1.6944,3.06084 0.3279,1.20249 0.4919,2.51428 0.4919,3.93537 l 0,15.85081 c -1.0567,0.18219 -2.4596,0.40082 -4.2086,0.65589 -1.71268,0.25507 -3.47995,0.38261 -5.30187,0.38261 -1.38468,0 -2.73291,-0.12754 -4.04469,-0.38261 -1.3118,-0.21863 -2.47783,-0.61945 -3.49811,-1.20247 -1.02028,-0.61946 -1.84015,-1.45754 -2.4596,-2.51427 -0.61946,-1.05671 -0.92919,-2.40494 -0.92919,-4.04469 0,-1.45753 0.30973,-2.67822 0.92919,-3.66208 0.65589,-1.02027 1.47576,-1.84014 2.4596,-2.45961 1.02028,-0.61944 2.16809,-1.0567 3.44345,-1.31179 1.31178,-0.29149 2.62357,-0.43724 3.93538,-0.43726 1.78547,2e-5 3.53453,0.20043 5.24714,0.60124 l 0,-1.25714 c 0,-0.76519 -0.091,-1.49396 -0.2733,-2.18631 -0.1457,-0.72876 -0.4555,-1.38465 -0.92916,-1.96769 -0.43728,-0.583 -1.05673,-1.03848 -1.85837,-1.36645 -0.76522,-0.36436 -1.76728,-0.54656 -3.00618,-0.54658 -1.56688,2e-5 -2.93332,0.10934 -4.09935,0.32795 -1.16604,0.21865 -2.05879,0.43729 -2.67824,0.6559 l -0.54658,-3.71674 c 0.61945,-0.29149 1.63973,-0.54656 3.06085,-0.76522 1.45753,-0.2186 3.00617,-0.32792 4.64592,-0.32794"
           inkscape:connector-curvature="0" />
        <path
           id="path3081"
           d="m 1013.1207,711.0964 c 1.6397,-0.4008 3.2612,-0.71053 4.8645,-0.92919 1.6397,-0.2186 3.1702,-0.32792 4.5913,-0.32795 3.3888,3e-5 5.9395,0.87456 7.6521,2.62359 1.749,1.74907 2.6236,4.55484 2.6236,8.41732 l 0,14.86696 -4.482,0 0,-14.04709 c 0,-1.63972 -0.1457,-2.96973 -0.4372,-3.99003 -0.2916,-1.02026 -0.7106,-1.80369 -1.2572,-2.35029 -0.5101,-0.583 -1.1478,-0.98382 -1.913,-1.20248 -0.7288,-0.21861 -1.5304,-0.32792 -2.4049,-0.32795 -0.7288,3e-5 -1.5123,0.0547 -2.3503,0.16398 -0.8017,0.0729 -1.5851,0.18221 -2.3503,0.32795 l 0,21.42591 -4.5366,0 0,-24.65073"
           inkscape:connector-curvature="0" />
        <path
           id="path3083"
           d="m 1055.7539,729.40681 c -10e-5,-0.91096 -0.3827,-1.65795 -1.1479,-2.24098 -0.7287,-0.58301 -1.6579,-1.09315 -2.7875,-1.53042 -1.0932,-0.43725 -2.2957,-0.8563 -3.6074,-1.25713 -1.3118,-0.43725 -2.5325,-0.96561 -3.6621,-1.58508 -1.0932,-0.61945 -2.0224,-1.38466 -2.7876,-2.29564 -0.7287,-0.91095 -1.0931,-2.0952 -1.0931,-3.55276 0,-2.04055 0.8198,-3.73494 2.4596,-5.08319 1.6761,-1.38464 4.2815,-2.07698 7.8161,-2.077 1.3846,2e-5 2.8057,0.10934 4.2633,0.32794 1.4939,0.18222 2.7693,0.43729 3.826,0.76522 l -0.8198,4.04468 c -0.2916,-0.14573 -0.6924,-0.29148 -1.2025,-0.43726 -0.5102,-0.18217 -1.0932,-0.32793 -1.7491,-0.43726 -0.6559,-0.14574 -1.3664,-0.25505 -2.1316,-0.32795 -0.7288,-0.0729 -1.4394,-0.1093 -2.1317,-0.10932 -3.9354,2e-5 -5.903,1.07496 -5.903,3.22482 0,0.76523 0.3643,1.42113 1.0931,1.96769 0.7652,0.51015 1.7126,0.98386 2.8422,1.4211 1.1296,0.43728 2.3503,0.89277 3.6621,1.36645 1.3118,0.43728 2.5325,0.98386 3.6621,1.63974 1.1296,0.65591 2.0588,1.45756 2.7876,2.40495 0.7651,0.91098 1.1477,2.07701 1.1478,3.49811 -10e-5,2.29564 -0.8928,4.08113 -2.6783,5.35648 -1.7855,1.23891 -4.6095,1.85837 -8.4719,1.85837 -1.7491,0 -3.3524,-0.14576 -4.8099,-0.43726 -1.4576,-0.29151 -2.8423,-0.72878 -4.1541,-1.3118 l 0.8746,-4.09934 c 1.2753,0.58302 2.6053,1.07494 3.99,1.47576 1.4211,0.36439 2.9333,0.54659 4.5366,0.54658 4.1176,1e-5 6.1763,-1.03849 6.1764,-3.1155"
           inkscape:connector-curvature="0" />
        <path
           id="path3085"
           d="m 1077.1798,710.38584 10.7129,0 0,3.7714 -10.7129,0 0,11.80612 c 0,1.27536 0.091,2.31386 0.2733,3.1155 0.1822,0.80166 0.4737,1.45755 0.8745,1.96769 0.4373,0.4737 0.9838,0.80165 1.6397,0.98384 0.6559,0.1822 1.4576,0.27329 2.405,0.27329 1.3118,0 2.3685,-0.10931 3.1702,-0.32795 0.8016,-0.21862 1.5668,-0.51013 2.2956,-0.87452 l 0.6559,3.82605 c -0.5102,0.21863 -1.3301,0.51014 -2.4596,0.87453 -1.0932,0.36439 -2.4597,0.54658 -4.0994,0.54658 -1.8948,0 -3.4434,-0.21863 -4.6459,-0.6559 -1.2025,-0.43726 -2.1499,-1.09315 -2.8422,-1.96768 -0.6559,-0.87453 -1.1114,-1.94947 -1.3665,-3.22482 -0.255,-1.31179 -0.3826,-2.82399 -0.3826,-4.53661 l 0,-11.80612 -5.3564,0 0,-3.7714 5.3564,0 0,-7.10553 4.482,-0.76521 0,7.87074"
           inkscape:connector-curvature="0" />
        <path
           id="path3087"
           d="m 1105.3833,709.78461 c 3.4252,2e-5 6.067,1.07496 7.9254,3.22482 1.8583,2.11346 2.7875,5.33827 2.7875,9.67445 l 0,1.58508 -18.1464,0 c 0.1822,2.62359 1.0385,4.62772 2.5689,6.01238 1.5669,1.34823 3.7532,2.02234 6.559,2.02234 1.6033,0 2.9697,-0.12753 4.0993,-0.3826 1.1296,-0.25507 1.9859,-0.52836 2.5689,-0.81987 l 0.6013,3.82605 c -0.5466,0.29151 -1.5305,0.60124 -2.9515,0.92919 -1.4212,0.32794 -3.0245,0.49192 -4.8099,0.49192 -2.1864,0 -4.1176,-0.32795 -5.7938,-0.98384 -1.6397,-0.69234 -3.0062,-1.62152 -4.0993,-2.78756 -1.0932,-1.16603 -1.9131,-2.5507 -2.4596,-4.154 -0.5466,-1.63973 -0.8199,-3.407 -0.8199,-5.30182 0,-2.25918 0.3462,-4.22687 1.0385,-5.90306 0.6923,-1.67616 1.6033,-3.06083 2.7329,-4.15401 1.1296,-1.09313 2.4049,-1.913 3.826,-2.4596 1.4211,-0.54656 2.8787,-0.81985 4.3727,-0.81987 m 6.1217,10.82227 c -1e-4,-2.14986 -0.5649,-3.84426 -1.6944,-5.08319 -1.1296,-1.27533 -2.6236,-1.91301 -4.482,-1.91303 -1.0567,2e-5 -2.0223,0.20044 -2.8969,0.60124 -0.8381,0.40085 -1.5668,0.92921 -2.1863,1.58508 -0.6194,0.65592 -1.1114,1.40291 -1.4757,2.24098 -0.3644,0.8381 -0.6013,1.69441 -0.7106,2.56892 l 13.4459,0"
           inkscape:connector-curvature="0" />
        <path
           id="path3089"
           d="m 1124.4042,735.74713 0,-23.99484 c 3.7168,-1.27532 7.47,-1.913 11.2596,-1.91303 1.166,3e-5 2.2774,0.0547 3.3341,0.16398 1.0567,0.0729 2.2228,0.25509 3.4981,0.54658 l -0.8198,3.99003 c -1.1661,-0.32793 -2.2046,-0.52834 -3.1155,-0.60124 -0.8746,-0.10929 -1.8402,-0.16395 -2.8969,-0.16397 -2.2228,2e-5 -4.482,0.30975 -6.7776,0.92918 l 0,21.04331 -4.482,0"
           inkscape:connector-curvature="0" />
        <path
           id="path3091"
           d="m 1163.594,732.24902 c 0,1.09316 -0.3644,2.05879 -1.0932,2.89687 -0.7287,0.83809 -1.6944,1.25714 -2.8968,1.25714 -1.239,0 -2.2228,-0.41905 -2.9516,-1.25714 -0.7287,-0.83808 -1.0931,-1.80371 -1.0931,-2.89687 0,-1.12959 0.3644,-2.11343 1.0931,-2.95153 0.7288,-0.83808 1.7126,-1.25712 2.9516,-1.25713 1.2024,1e-5 2.1681,0.41905 2.8968,1.25713 0.7288,0.8381 1.0932,1.82194 1.0932,2.95153"
           inkscape:connector-curvature="0" />
        <path
           id="path3093"
           d="m 1181.6311,711.31503 c 0.5466,-0.32792 1.33,-0.65587 2.3503,-0.98384 1.0567,-0.36436 2.2228,-0.54656 3.4981,-0.54658 1.7126,2e-5 3.2431,0.32797 4.5913,0.98384 1.3482,0.65592 2.4778,1.56688 3.3888,2.7329 0.9474,1.16605 1.6579,2.56894 2.1317,4.20866 0.5101,1.60331 0.7651,3.38881 0.7652,5.35648 -1e-4,2.04057 -0.2916,3.88072 -0.8746,5.52045 -0.583,1.63974 -1.4029,3.04263 -2.4596,4.20866 -1.0567,1.1296 -2.3321,2.00413 -3.826,2.62358 -1.494,0.61946 -3.152,0.92919 -4.9739,0.92919 -2.0041,0 -3.7896,-0.14576 -5.3565,-0.43726 -1.5668,-0.29151 -2.824,-0.58302 -3.7714,-0.87453 l 0,-36.4022 4.5366,-0.76521 0,13.44586 m 0,20.49673 c 0.6924,0.1822 1.3847,0.32795 2.077,0.43726 0.6924,0.0729 1.3482,0.10932 1.9677,0.10932 2.5143,0 4.482,-0.76521 5.9031,-2.29564 1.4211,-1.56685 2.1316,-3.89892 2.1316,-6.99621 0,-1.31178 -0.1275,-2.53247 -0.3826,-3.66208 -0.2551,-1.16602 -0.6559,-2.14987 -1.2024,-2.95153 -0.5466,-0.83807 -1.2572,-1.49397 -2.1317,-1.96769 -0.8381,-0.47368 -1.8584,-0.71053 -3.0608,-0.71055 -1.0568,2e-5 -2.0771,0.21865 -3.0609,0.65589 -0.9838,0.40085 -1.7308,0.83811 -2.241,1.31179 l 0,16.06944"
           inkscape:connector-curvature="0" />
        <path
           id="path3095"
           d="m 1203.3303,740.50237 c 0.328,0.18219 0.7834,0.32795 1.3665,0.43727 0.6194,0.10931 1.1842,0.16396 1.6944,0.16397 1.7854,-10e-6 3.1701,-0.40083 4.154,-1.20247 1.0202,-0.76522 1.9494,-2.04057 2.7875,-3.82606 -2.0406,-3.86249 -3.9536,-7.99827 -5.7391,-12.40736 -1.7855,-4.44549 -3.2612,-8.87278 -4.4273,-13.28188 l 4.9193,0 c 0.3643,1.45757 0.7834,3.04265 1.2571,4.75525 0.5101,1.67619 1.0749,3.40702 1.6944,5.1925 0.6194,1.78551 1.2753,3.58922 1.9677,5.41114 0.7287,1.7855 1.4939,3.49811 2.2956,5.13784 0.583,-1.67617 1.1296,-3.33412 1.6397,-4.97387 0.5102,-1.63973 0.9839,-3.27946 1.4211,-4.91921 0.4373,-1.67617 0.8746,-3.37056 1.3118,-5.08319 0.4373,-1.74904 0.8928,-3.58919 1.3665,-5.52046 l 4.7006,0 c -1.1661,4.73705 -2.4779,9.32831 -3.9354,13.77381 -1.4211,4.44552 -2.9516,8.56308 -4.5913,12.35269 -0.6194,1.45755 -1.2936,2.71468 -2.0223,3.7714 -0.6924,1.05672 -1.4576,1.93124 -2.2956,2.62358 -0.8381,0.69233 -1.7856,1.20247 -2.8423,1.53043 -1.0567,0.32793 -2.2592,0.49191 -3.6074,0.49192 -0.6923,-10e-6 -1.4575,-0.0911 -2.2956,-0.27329 -0.8017,-0.18221 -1.3483,-0.34618 -1.6398,-0.49192 l 0.8199,-3.66209"
           inkscape:connector-curvature="0" />
      </g>
      <g
         id="text4064-2"
         style="font-size:58.23609161px;font-style:normal;font-variant:normal;font-weight:normal;font-stretch:normal;line-height:125%;letter-spacing:0px;word-spacing:0px;fill:#999999;fill-opacity:1;stroke:none;font-family:Ubuntu Mono;-inkscape-font-specification:Ubuntu Mono">
        <path
           id="path3040"
           d="m 297.6886,812.26703 -4.36771,0 1.80532,-9.49248 -6.46421,0 -1.80532,9.49248 -4.3677,0 1.80532,-9.49248 -3.72711,0 0,-3.90182 4.48418,0 1.74708,-9.25954 -6.23126,0 0,-3.84358 7.04656,0 1.80532,-9.55072 4.36771,0 -1.80532,9.55072 6.46421,0 1.74708,-9.55072 4.36771,0 -1.74709,9.55072 3.72711,0 0,3.84358 -4.48418,0 -1.80531,9.25954 6.28949,0 0,3.90182 -7.04656,0 -1.80532,9.49248 m -0.0582,-22.65384 -6.40597,0 -1.80532,9.25954 6.40597,0 1.80532,-9.25954"
           inkscape:connector-curvature="0" />
        <path
           id="path3042"
           d="m 322.96306,808.8311 c 1.20353,0 2.27119,-0.0388 3.20299,-0.11647 0.97058,-0.0777 1.76647,-0.17471 2.38768,-0.29118 l 0,-8.03658 c -0.62121,-0.19411 -1.37828,-0.34941 -2.27121,-0.46589 -0.85415,-0.11646 -1.76651,-0.1747 -2.7371,-0.17471 -0.89297,10e-6 -1.76651,0.0777 -2.62062,0.23294 -0.85414,0.11649 -1.61121,0.34943 -2.27121,0.69884 -0.66002,0.34942 -1.20355,0.81531 -1.63061,1.39766 -0.42707,0.54355 -0.64061,1.24238 -0.6406,2.0965 -1e-5,1.74709 0.58235,2.97005 1.74709,3.66888 1.20353,0.66001 2.81473,0.99001 4.83359,0.99001 m -0.46589,-24.22621 c 2.01884,2e-5 3.70768,0.25238 5.06654,0.75706 1.39765,0.50474 2.52354,1.20358 3.3777,2.0965 0.8541,0.89298 1.45587,1.98005 1.80531,3.26122 0.3494,1.28122 0.5241,2.67888 0.52413,4.193 l 0,16.88847 c -1.12592,0.19412 -2.62065,0.42706 -4.48418,0.69883 -1.82475,0.27177 -3.70771,0.40766 -5.6489,0.40766 -1.47533,0 -2.91182,-0.13589 -4.30947,-0.40766 -1.39768,-0.23294 -2.64005,-0.66001 -3.72711,-1.28119 -1.08708,-0.66001 -1.96062,-1.55296 -2.62063,-2.67886 -0.66001,-1.12589 -0.99001,-2.56238 -0.99001,-4.30947 0,-1.55295 0.33,-2.85356 0.99001,-3.90182 0.69883,-1.08706 1.57237,-1.9606 2.62063,-2.62062 1.08706,-0.66 2.31002,-1.12589 3.66887,-1.39767 1.39766,-0.31058 2.79532,-0.46587 4.193,-0.46589 1.90236,2e-5 3.76592,0.21355 5.59067,0.6406 l 0,-1.33943 c -2e-5,-0.81529 -0.0971,-1.59177 -0.29118,-2.32945 -0.15532,-0.77646 -0.48532,-1.47529 -0.99002,-2.0965 -0.46591,-0.62116 -1.12591,-1.10646 -1.98003,-1.4559 -0.81532,-0.38821 -1.88298,-0.58233 -3.20298,-0.58236 -1.66945,3e-5 -3.12535,0.1165 -4.36771,0.34942 -1.24238,0.23297 -2.19356,0.46591 -2.85357,0.69883 l -0.58236,-3.96005 c 0.66001,-0.31057 1.74708,-0.58234 3.26122,-0.81531 1.55296,-0.23291 3.20298,-0.34939 4.95007,-0.34941"
           inkscape:connector-curvature="0" />
        <path
           id="path3044"
           d="m 362.73831,785.24548 0,27.02155 -4.71712,0 0,-20.61558 c -1.04827,1.32004 -2.15476,2.873 -3.31946,4.65889 -1.12591,1.78592 -2.27122,3.63006 -3.43593,5.53243 -1.12591,1.86356 -2.21298,3.7077 -3.26122,5.53243 -1.04826,1.82473 -1.98004,3.45534 -2.79533,4.89183 l -4.30947,0 0,-27.02155 4.65888,0 0,19.45086 c 0.89295,-1.51413 1.86355,-3.14474 2.91181,-4.89183 1.04824,-1.7859 2.13531,-3.55239 3.26122,-5.29949 1.12588,-1.78589 2.25178,-3.47473 3.37769,-5.06654 1.12588,-1.63059 2.23237,-3.02825 3.31946,-4.193 l 4.30947,0 m -10.24955,-4.3677 c -2.17416,3e-5 -3.94065,-0.54351 -5.29948,-1.63062 -1.35886,-1.12586 -2.19357,-2.67882 -2.50416,-4.65888 l 3.66888,-0.99002 c 0.31058,1.12594 0.79588,2.0383 1.4559,2.7371 0.66,0.66004 1.55295,0.99005 2.67886,0.99001 1.12588,4e-5 2.01883,-0.32997 2.67886,-0.99001 0.65999,-0.6988 1.14529,-1.61116 1.4559,-2.7371 l 3.61064,0.99002 c -0.31062,1.98006 -1.14533,3.53302 -2.50415,4.65888 -1.32004,1.08711 -3.06712,1.63065 -5.24125,1.63062"
           inkscape:connector-curvature="0" />
        <path
           id="path3046"
           d="m 391.09929,808.1905 2.27121,0 0,11.58898 -4.54242,0 0,-7.51245 -18.34436,0 0,-27.02155 4.83359,0 0,22.94502 11.00662,0 0,-22.94502 4.77536,0 0,22.94502"
           inkscape:connector-curvature="0" />
        <path
           id="path3048"
           d="m 407.63834,781.05248 c -1.00944,3e-5 -1.88298,-0.34938 -2.62063,-1.04825 -0.73766,-0.6988 -1.10649,-1.64998 -1.10648,-2.85356 -10e-6,-1.20351 0.36882,-2.1547 1.10648,-2.85357 0.73765,-0.6988 1.61119,-1.04821 2.62063,-1.04825 1.04823,4e-5 1.92178,0.34945 2.62062,1.04825 0.73764,0.69887 1.10647,1.65006 1.10649,2.85357 -2e-5,1.20358 -0.36885,2.15476 -1.10649,2.85356 -0.69884,0.69887 -1.57239,1.04828 -2.62062,1.04825 m -1.22296,8.21129 -7.80364,0 0,-4.01829 12.579,0 0,16.59729 c -2e-5,2.67887 0.36881,4.48418 1.10649,5.41595 0.73764,0.89296 1.84412,1.33944 3.31945,1.33944 1.12588,0 2.15472,-0.13589 3.08652,-0.40766 0.97057,-0.27176 1.72764,-0.56294 2.2712,-0.87354 l 0.69884,4.07653 c -0.23297,0.11647 -0.56298,0.27177 -0.99002,0.46589 -0.42709,0.15529 -0.9318,0.31059 -1.51414,0.46588 -0.54356,0.1553 -1.16474,0.29119 -1.86355,0.40766 -0.66003,0.11647 -1.35886,0.17471 -2.0965,0.17471 -1.70828,0 -3.12535,-0.23295 -4.25123,-0.69884 -1.12592,-0.46589 -2.03828,-1.16472 -2.7371,-2.0965 -0.66002,-0.93177 -1.12591,-2.07708 -1.39767,-3.43593 -0.27178,-1.39766 -0.40766,-3.00885 -0.40765,-4.83359 l 0,-12.579"
           inkscape:connector-curvature="0" />
        <path
           id="path3050"
           d="m 433.43692,808.59816 c 0.38823,0.0776 1.08707,0.15529 2.0965,0.23294 1.00942,0.0388 2.01884,0.0582 3.02828,0.0582 1.00941,0 1.9606,-0.0582 2.85357,-0.17471 0.93176,-0.1553 1.72765,-0.40765 2.38768,-0.75707 0.69881,-0.34941 1.24235,-0.8153 1.63061,-1.39767 0.42704,-0.58235 0.64057,-1.32001 0.6406,-2.21297 -3e-5,-0.85412 -0.19415,-1.57236 -0.58237,-2.15474 -0.34943,-0.58235 -0.83473,-1.04823 -1.4559,-1.39766 -0.6212,-0.34941 -1.35886,-0.58235 -2.21297,-0.69883 -0.85415,-0.15529 -1.76651,-0.23294 -2.7371,-0.23295 l -5.6489,0 0,8.73542 m 5.00831,-12.28782 c 1.86354,2e-5 3.39709,-0.27175 4.60065,-0.81531 1.24235,-0.58234 1.86353,-1.66941 1.86355,-3.26122 -2e-5,-0.81528 -0.21355,-1.45588 -0.64059,-1.92179 -0.38826,-0.50469 -0.9318,-0.89293 -1.63061,-1.16472 -0.66003,-0.27174 -1.4171,-0.44645 -2.27121,-0.52412 -0.85415,-0.0776 -1.70827,-0.11645 -2.56239,-0.11648 -0.81532,3e-5 -1.61121,0.0194 -2.38768,0.0582 -0.77649,0.0389 -1.4365,0.0777 -1.98003,0.11647 l 0,7.62893 5.00831,0 m -0.0582,16.42258 c -2.09651,0 -3.97948,-0.0971 -5.6489,-0.29118 -1.66944,-0.19412 -3.00887,-0.40766 -4.01829,-0.6406 l 0,-26.32271 c 1.00942,-0.23292 2.34885,-0.44645 4.01829,-0.6406 1.66942,-0.19409 3.55239,-0.29115 5.6489,-0.29118 1.39765,3e-5 2.7759,0.1165 4.13476,0.34942 1.35883,0.23297 2.56237,0.64062 3.61064,1.22295 1.04823,0.58239 1.88294,1.35887 2.50415,2.32945 0.65999,0.97062 0.98999,2.19358 0.99002,3.66887 -3e-5,1.35886 -0.33003,2.50417 -0.99002,3.43593 -0.66003,0.89297 -1.55298,1.61121 -2.67886,2.15474 1.47529,0.54355 2.65943,1.32003 3.5524,2.32944 0.89293,0.97061 1.33941,2.38769 1.33943,4.25123 -2e-5,1.63062 -0.33003,2.98946 -0.99001,4.07653 -0.62121,1.08708 -1.49475,1.96062 -2.62062,2.62062 -1.12592,0.62119 -2.44594,1.06767 -3.96006,1.33943 -1.51415,0.27177 -3.14476,0.40766 -4.89183,0.40766"
           inkscape:connector-curvature="0" />
        <path
           id="path3052"
           d="m 468.5533,808.8311 c 1.20353,0 2.27119,-0.0388 3.20298,-0.11647 0.97059,-0.0777 1.76648,-0.17471 2.38768,-0.29118 l 0,-8.03658 c -0.6212,-0.19411 -1.37827,-0.34941 -2.2712,-0.46589 -0.85415,-0.11646 -1.76652,-0.1747 -2.7371,-0.17471 -0.89297,10e-6 -1.76651,0.0777 -2.62063,0.23294 -0.85414,0.11649 -1.61121,0.34943 -2.2712,0.69884 -0.66002,0.34942 -1.20356,0.81531 -1.63061,1.39766 -0.42708,0.54355 -0.64061,1.24238 -0.6406,2.0965 -1e-5,1.74709 0.58235,2.97005 1.74708,3.66888 1.20354,0.66001 2.81473,0.99001 4.8336,0.99001 m -0.46589,-24.22621 c 2.01883,2e-5 3.70768,0.25238 5.06654,0.75706 1.39764,0.50474 2.52354,1.20358 3.37769,2.0965 0.85411,0.89298 1.45588,1.98005 1.80532,3.26122 0.34939,1.28122 0.5241,2.67888 0.52413,4.193 l 0,16.88847 c -1.12593,0.19412 -2.62065,0.42706 -4.48418,0.69883 -1.82475,0.27177 -3.70772,0.40766 -5.6489,0.40766 -1.47533,0 -2.91182,-0.13589 -4.30947,-0.40766 -1.39768,-0.23294 -2.64005,-0.66001 -3.72711,-1.28119 -1.08708,-0.66001 -1.96062,-1.55296 -2.62063,-2.67886 -0.66001,-1.12589 -0.99002,-2.56238 -0.99001,-4.30947 -10e-6,-1.55295 0.33,-2.85356 0.99001,-3.90182 0.69883,-1.08706 1.57237,-1.9606 2.62063,-2.62062 1.08706,-0.66 2.31002,-1.12589 3.66887,-1.39767 1.39765,-0.31058 2.79532,-0.46587 4.193,-0.46589 1.90236,2e-5 3.76591,0.21355 5.59066,0.6406 l 0,-1.33943 c -2e-5,-0.81529 -0.0971,-1.59177 -0.29118,-2.32945 -0.15531,-0.77646 -0.48532,-1.47529 -0.99001,-2.0965 -0.46591,-0.62116 -1.12592,-1.10646 -1.98003,-1.4559 -0.81532,-0.38821 -1.88298,-0.58233 -3.20298,-0.58236 -1.66945,3e-5 -3.12535,0.1165 -4.36771,0.34942 -1.24238,0.23297 -2.19357,0.46591 -2.85357,0.69883 l -0.58236,-3.96005 c 0.66,-0.31057 1.74708,-0.58234 3.26122,-0.81531 1.55295,-0.23291 3.20297,-0.34939 4.95007,-0.34941"
           inkscape:connector-curvature="0" />
        <path
           id="path3054"
           d="m 496.50662,789.26377 c -2e-5,1.16475 -0.0388,2.40712 -0.11647,3.72711 -0.0388,1.28121 -0.1359,2.58182 -0.29118,3.90182 -0.11649,1.28121 -0.2912,2.5624 -0.52413,3.84358 -0.23296,1.24238 -0.54355,2.4071 -0.93178,3.49417 -0.77649,2.21298 -1.96062,4.11535 -3.5524,5.70714 -1.59179,1.59178 -3.863,2.54297 -6.81362,2.85356 l -0.69883,-4.07652 c 1.70825,-0.31059 3.04768,-0.93178 4.01829,-1.86356 1.00942,-0.97059 1.80531,-2.13531 2.38768,-3.49416 0.5047,-1.16471 0.87353,-2.48473 1.10648,-3.96006 0.27176,-1.4753 0.46588,-3.02826 0.58236,-4.65888 0.11647,-1.6306 0.1747,-3.26121 0.17471,-4.89184 -1e-5,-1.63058 -1e-5,-3.16413 0,-4.60065 l 15.95669,0 0,27.02155 -4.8336,0 0,-23.00326 -6.4642,0"
           inkscape:connector-curvature="0" />
        <path
           id="path3056"
           d="m 526.78938,808.8311 c 1.20353,0 2.27119,-0.0388 3.20299,-0.11647 0.97058,-0.0777 1.76647,-0.17471 2.38768,-0.29118 l 0,-8.03658 c -0.62121,-0.19411 -1.37828,-0.34941 -2.27121,-0.46589 -0.85415,-0.11646 -1.76651,-0.1747 -2.7371,-0.17471 -0.89297,10e-6 -1.76651,0.0777 -2.62062,0.23294 -0.85414,0.11649 -1.61121,0.34943 -2.27121,0.69884 -0.66002,0.34942 -1.20355,0.81531 -1.63061,1.39766 -0.42707,0.54355 -0.6406,1.24238 -0.6406,2.0965 0,1.74709 0.58236,2.97005 1.74709,3.66888 1.20353,0.66001 2.81473,0.99001 4.83359,0.99001 m -0.46589,-24.22621 c 2.01884,2e-5 3.70768,0.25238 5.06654,0.75706 1.39765,0.50474 2.52355,1.20358 3.3777,2.0965 0.8541,0.89298 1.45587,1.98005 1.80532,3.26122 0.34939,1.28122 0.52409,2.67888 0.52412,4.193 l 0,16.88847 c -1.12592,0.19412 -2.62065,0.42706 -4.48418,0.69883 -1.82475,0.27177 -3.70771,0.40766 -5.6489,0.40766 -1.47533,0 -2.91182,-0.13589 -4.30947,-0.40766 -1.39768,-0.23294 -2.64004,-0.66001 -3.72711,-1.28119 -1.08708,-0.66001 -1.96062,-1.55296 -2.62062,-2.67886 -0.66002,-1.12589 -0.99002,-2.56238 -0.99002,-4.30947 0,-1.55295 0.33,-2.85356 0.99002,-3.90182 0.69882,-1.08706 1.57236,-1.9606 2.62062,-2.62062 1.08707,-0.66 2.31002,-1.12589 3.66887,-1.39767 1.39766,-0.31058 2.79532,-0.46587 4.193,-0.46589 1.90236,2e-5 3.76592,0.21355 5.59067,0.6406 l 0,-1.33943 c -2e-5,-0.81529 -0.0971,-1.59177 -0.29118,-2.32945 -0.15532,-0.77646 -0.48532,-1.47529 -0.99002,-2.0965 -0.4659,-0.62116 -1.12591,-1.10646 -1.98002,-1.4559 -0.81533,-0.38821 -1.88299,-0.58233 -3.20299,-0.58236 -1.66945,3e-5 -3.12535,0.1165 -4.36771,0.34942 -1.24237,0.23297 -2.19356,0.46591 -2.85356,0.69883 l -0.58237,-3.96005 c 0.66001,-0.31057 1.74708,-0.58234 3.26123,-0.81531 1.55295,-0.23291 3.20297,-0.34939 4.95006,-0.34941"
           inkscape:connector-curvature="0" />
        <path
           id="path3058"
           d="m 566.0405,812.26703 -4.83359,0 0,-11.9384 -11.18133,0 0,11.9384 -4.8336,0 0,-27.02155 4.8336,0 0,11.00662 11.18133,0 0,-11.00662 4.83359,0 0,27.02155"
           inkscape:connector-curvature="0" />
        <path
           id="path3060"
           d="m 594.9256,808.1905 2.27121,0 0,11.58898 -4.54242,0 0,-7.51245 -18.34437,0 0,-27.02155 4.8336,0 0,22.94502 11.00662,0 0,-22.94502 4.77536,0 0,22.94502"
           inkscape:connector-curvature="0" />
        <path
           id="path3062"
           d="m 614.37645,784.60489 c 3.64945,2e-5 6.46419,1.14533 8.44424,3.43592 1.98,2.25182 2.97001,5.68775 2.97004,10.30779 l 0,1.68885 -19.33439,0 c 0.19412,2.79534 1.10648,4.93066 2.7371,6.40597 1.66942,1.43649 3.99886,2.15474 6.98833,2.15474 1.70824,0 3.16414,-0.13589 4.36771,-0.40766 1.20352,-0.27176 2.11589,-0.56294 2.73709,-0.87354 l 0.6406,4.07653 c -0.58238,0.31059 -1.63063,0.64059 -3.14475,0.99001 -1.51416,0.34942 -3.22241,0.52413 -5.12477,0.52413 -2.32946,0 -4.38713,-0.34942 -6.17303,-1.04825 -1.74709,-0.73766 -3.20299,-1.72767 -4.36771,-2.97004 -1.16472,-1.24237 -2.03826,-2.71768 -2.62062,-4.42595 -0.58236,-1.74707 -0.87354,-3.63004 -0.87354,-5.6489 0,-2.40707 0.36882,-4.50357 1.10648,-6.2895 0.73766,-1.78588 1.70826,-3.26119 2.91181,-4.42594 1.20354,-1.1647 2.56238,-2.03824 4.07652,-2.62062 1.51413,-0.58234 3.06709,-0.87352 4.65889,-0.87354 m 6.52244,11.53074 c -2e-5,-2.2906 -0.60179,-4.09592 -1.80531,-5.41596 -1.20357,-1.35881 -2.79535,-2.03823 -4.77536,-2.03826 -1.12592,3e-5 -2.15475,0.21356 -3.08652,0.6406 -0.89296,0.42709 -1.66944,0.99003 -2.32944,1.68885 -0.66002,0.69885 -1.18414,1.49474 -1.57237,2.38768 -0.38825,0.89297 -0.64061,1.80533 -0.75707,2.73709 l 14.32607,0 m -11.23956,-15.89845 c -0.77649,3e-5 -1.47532,-0.29115 -2.0965,-0.87354 -0.62119,-0.58233 -0.93179,-1.31999 -0.93178,-2.21297 -10e-6,-0.89292 0.31059,-1.61117 0.93178,-2.15474 0.62118,-0.58232 1.32001,-0.8735 2.0965,-0.87354 0.81529,4e-5 1.51413,0.29122 2.0965,0.87354 0.62117,0.54357 0.93176,1.26182 0.93178,2.15474 -2e-5,0.89298 -0.31061,1.63064 -0.93178,2.21297 -0.58237,0.58239 -1.28121,0.87357 -2.0965,0.87354 m 9.90013,0 c -0.81532,3e-5 -1.53356,-0.29115 -2.15473,-0.87354 -0.58238,-0.58233 -0.87356,-1.31999 -0.87354,-2.21297 -2e-5,-0.89292 0.29116,-1.61117 0.87354,-2.15474 0.62117,-0.58232 1.33941,-0.8735 2.15473,-0.87354 0.81529,4e-5 1.51412,0.29122 2.0965,0.87354 0.62117,0.54357 0.93176,1.26182 0.93178,2.15474 -2e-5,0.89298 -0.31061,1.63064 -0.93178,2.21297 -0.58238,0.58239 -1.28121,0.87357 -2.0965,0.87354"
           inkscape:connector-curvature="0" />
        <path
           id="path3064"
           d="m 650.24991,798.81449 c -2e-5,-3.14473 -0.73768,-5.57123 -2.21297,-7.27951 -1.47533,-1.74706 -3.39712,-2.6206 -5.76537,-2.62062 -1.32003,2e-5 -2.36828,0.0583 -3.14475,0.1747 -0.73767,0.1165 -1.32003,0.25238 -1.74708,0.40766 l 0,17.06317 c 0.54352,0.50472 1.33941,0.97061 2.38767,1.39767 1.04824,0.42707 2.13531,0.6406 3.26123,0.6406 1.28117,0 2.36825,-0.25236 3.26122,-0.75707 0.93176,-0.50471 1.68882,-1.18413 2.2712,-2.03827 0.58234,-0.89294 1.00941,-1.92178 1.2812,-3.08651 0.27175,-1.20354 0.40763,-2.50414 0.40765,-3.90182 m 4.95007,0 c -3e-5,2.05769 -0.2718,3.96007 -0.81531,5.70714 -0.50473,1.70826 -1.2618,3.18358 -2.2712,4.42594 -0.97063,1.24237 -2.17417,2.21297 -3.61064,2.91181 -1.43651,0.69883 -3.06712,1.04825 -4.89183,1.04825 -1.43651,0 -2.69829,-0.17471 -3.78535,-0.52413 -1.08708,-0.34942 -1.90239,-0.73766 -2.44591,-1.16472 l 0,10.6572 -4.8336,0 0,-35.81519 c 1.04824,-0.31057 2.38767,-0.62116 4.01829,-0.93178 1.66942,-0.31056 3.5718,-0.46586 5.70714,-0.46589 1.94118,3e-5 3.70768,0.33003 5.29948,0.99001 1.59177,0.66004 2.95061,1.61123 4.07653,2.85357 1.12587,1.20357 1.99941,2.67888 2.62062,4.42595 0.62116,1.7471 0.93175,3.70771 0.93178,5.88184"
           inkscape:connector-curvature="0" />
      </g>
      <path
         style="fill:#333333;fill-opacity:1;stroke:none"
         d="m 610.93205,953.46021 c 0,20.75207 -16.82286,37.57493 -37.57491,37.57493 -20.75206,0 -37.57493,-16.82286 -37.57493,-37.57493 0,-20.75205 16.82287,-37.57491 37.57493,-37.57491 20.75205,0 37.57491,16.82286 37.57491,37.57491 z"
         id="path3896-12-9-4-0-8-4-9"
         inkscape:connector-curvature="0" />
      <path
         style="fill:#333333;fill-opacity:1;stroke:none"
         d="m 771.53285,946.47905 c 0,20.75207 -16.82286,37.57493 -37.57491,37.57493 -20.75206,0 -37.57493,-16.82286 -37.57493,-37.57493 0,-20.75205 16.82287,-37.57491 37.57493,-37.57491 20.75205,0 37.57491,16.82286 37.57491,37.57491 z"
         id="path3896-7-7-2-6-1-6-8-3"
         inkscape:connector-curvature="0" />
      <path
         style="fill:#333333;fill-opacity:1;stroke:none"
         d="m 933.17125,870.71608 c 0,20.75207 -16.82286,37.57493 -37.57491,37.57493 -20.75206,0 -37.57493,-16.82286 -37.57493,-37.57493 0,-20.75205 16.82287,-37.57491 37.57493,-37.57491 20.75205,0 37.57491,16.82286 37.57491,37.57491 z"
         id="path3896-1-4-7-6-4-6-6-1"
         inkscape:connector-curvature="0" />
      <g
         transform="matrix(0.28328096,0.07597557,-0.07597557,0.28328096,-153.85693,209.28805)"
         style="fill:#333333;stroke:none"
         id="g3261-7-8-4">
        <path
           style="fill:#333333;stroke:none"
           d="m 3198.5714,336.6479 c 0,0 -18.5714,24.28571 -15.7143,41.42857 2.8572,17.14286 25.7143,50 25.7143,50 1.3288,13.89088 3.3508,29.78734 3.5504,31.60189 4.2857,37.14285 49.7251,40.59173 49.7251,96.30601 0,55.71429 -6.1326,44.94924 -28.9898,74.94924 -22.8571,30 -26.6853,54.01654 -22.8571,80 5.9594,40.44816 38.3816,100.24775 141.4286,84.28572 71.5424,-11.08194 81.4285,-32.85715 81.4285,-32.85715 0,0 0.7293,5.90898 -39.8687,14.28572 -65.6722,13.5504 -153.277,-26.19054 -139.6113,-92.61204 5.2417,-25.4775 19.9282,-32.39667 41.082,-57.14286 42.001,-55.2481 32.3876,-97.13291 25.5409,-117.07107 -6.8467,-19.93815 -20.9211,-28.24272 -29.2634,-44.68322 -7.9839,-15.73428 -29.2862,-25.17935 -36.9709,-48.23339 -2.5822,-28.96011 -2.683,-42.90223 -15.1943,-58.82885 -9.3441,-11.89482 -30,-21.42857 -40,-21.42857 z"
           id="path3245-1-9-4"
           inkscape:connector-curvature="0"
           sodipodi:nodetypes="csccsssscssczscac" />
        <path
           style="fill:#333333;stroke:none"
           d="m 3281.5373,466.82287 c 23.8824,-13.32688 23.2015,-11.53014 33.7144,-28.35069 0,0 3.8311,-13.79224 -6.8961,-20.68835 -10.7274,-6.89612 -18.3775,-17.98929 -10.1776,-19.43476 3.6713,-0.64718 2.5151,-1.25359 8.6451,-1.25359 6.1299,0 9.4779,-1.67997 8.9815,-4.96996 -34.831,2.85741 -14.0759,-9.20037 -23.54,-19.54957 -5.3637,0 -1.0842,0.2092 -4.9155,8.63779 -9.408,15.52794 -18.4764,-1.11016 -24.2014,-4.80661 -3.8312,2.2987 -0.5393,8.33167 7.7669,17.33627 11.0553,7.83506 -8.8984,23.64281 -1.6371,27.10537 5.1919,2.03051 3.4673,-8.52155 8.0648,-14.65143 4.5974,-6.12988 12.6236,6.98907 12.6236,6.98907 2.0885,5.83451 6.4549,12.36455 5.0662,16.76328 -2.7638,8.75454 -14.7105,13.60454 -17.4855,19.49187 -4.4589,9.4597 1.2399,17.20058 3.9907,17.38131 z"
           id="path3247-0-7-1"
           inkscape:connector-curvature="0"
           sodipodi:nodetypes="ccsssccccccsccsc" />
        <path
           style="fill:#333333;stroke:none"
           d="m 3225.3572,463.79075 c 7.8571,3.21429 16.7857,4.64286 11.4286,10.71429 -5.3572,6.07142 -13.5715,10 -22.5,14.28571 -8.9286,4.28571 -15,10.35714 -21.4286,1.07143 -6.4286,-9.28572 -16.0714,-27.5 -18.5714,-27.14286 -2.5,0.35714 -13.9286,15.35714 -14.6429,20.35714 -0.7143,5 -6.0714,2.5 -6.0714,2.5 0,0 -6.4286,-2.5 0,-7.85714 9.0428,-16.74701 -0.5924,-11.01156 -14.7961,-15.633 -1.3818,-0.44962 0.1532,-4.72414 3.0104,-5.08128 2.8571,-0.35715 14.0996,-1.42497 15.3568,-6.8933 0.7896,-3.43429 -6.7854,-8.1067 -6.7854,-8.1067 0,0 -0.7143,-8.57143 3.5714,-5 4.2857,3.57142 8.2446,5.62834 15.5419,7.47415 5.3586,1.35541 0.8867,-10.3313 4.4582,-12.8313 3.5714,-2.5 6.7857,5 6.7857,5 0,0 -3.2143,14.64286 0.7142,16.78572 3.9286,2.14286 5,8.57143 5,8.57143 0,0 6.2419,12.15147 11.7857,11.78571 7.0327,-0.46399 7.5,-13.21428 12.8571,-16.78571 6.8078,-5.89638 6.6434,4.02445 14.2858,6.78571 z"
           id="path3249-6-8-4"
           inkscape:connector-curvature="0"
           sodipodi:nodetypes="csssssccssacssccscacc" />
        <path
           style="fill:#333333;stroke:none"
           d="m 3233.9286,572.71932 c 0,0 8.5714,-13.92857 20,-12.14285 11.4285,1.78571 17.8571,-5.35715 18.2143,8.21428 0.3571,13.57143 5.3571,15.35715 -6.7858,20.35715 -12.1428,5 -19.6428,4.64285 -24.2857,4.64285 -4.6428,0 -9.6428,1.42857 -12.8571,3.21429 -3.2143,1.78571 -4.2857,1.78571 -6.0714,2.85714 -1.7858,1.07143 -10.3572,5 -15.3572,16.78572 -5,11.78571 -7.1428,12.14285 -7.1428,10.71428 0,-1.42857 2.7918,-12.28378 -1.4025,-15.11314 -4.2319,-2.85478 -7.8883,4.12892 -14.669,4.39886 -1.4285,0 -3.0903,-0.21173 0,-4.28572 4.3549,-5.74117 10.614,-14.49457 -4.9401,-14.0215 -15.5541,0.47308 -11.8456,-2.76421 -8.9884,-4.54993 13.4884,-0.86541 16.6653,-3.89496 6.0714,-4.64285 -7.8572,-1.42858 -10,-5.71429 0.3571,-5.35715 12.5615,1.47747 26.3672,-1.86089 33.5715,-1.78571 6.0714,0 8.5714,-3.57143 13.9285,-5.71429 5.3572,-2.14285 10.3572,-3.57143 10.3572,-3.57143 z"
           id="path3257-6-8-0"
           inkscape:connector-curvature="0"
           sodipodi:nodetypes="cssssscssacszccccsc" />
        <path
           style="fill:#333333;stroke:none"
           d="m 3321.0714,601.29075 c 0,0 -17.1428,-3.92857 -16.0714,-13.57143 1.0714,-9.64285 -1.4286,-20.71428 9.6429,-24.28571 11.0714,-3.57143 15.3571,-4.28571 21.7857,-1.42857 6.4285,2.85714 10,14.28571 10,19.28571 0,5 4.2856,4.28572 4.2856,-1.78571 0,-6.07143 -0.3571,-23.57143 4.2858,-22.14286 1.6483,22.35285 8.3242,6.56003 17.8571,5.71429 -2.8467,8.52027 -3.865,9.15467 -1.2193,12.6557 5.9527,5.622 14.7008,-1.05718 13.3622,4.13001 -1.0412,4.03458 -10.0098,2.38011 -10.3571,6.42857 -0.3676,4.28482 1.822,6.01562 9.6428,8.57143 2.1429,0.71429 3.4458,5.3392 -8.9286,3.57143 -5,-0.71429 -9.2857,-3.92857 -20,-0.35714 -10.7142,3.57143 -17.1428,6.42857 -17.1428,6.42857 0,0 0.3571,-4.64286 -5,-5 -5.3572,-0.35714 -12.1429,1.78571 -12.1429,1.78571 z"
           id="path3259-5-1-3"
           inkscape:connector-curvature="0"
           sodipodi:nodetypes="cssssscccsacsscsc" />
      </g>
    </g>
  </g>
</svg>
