<?xml version="1.0" encoding="UTF-8" standalone="no"?>
<!-- Created with Inkscape (http://www.inkscape.org/) -->

<svg
   xmlns:dc="http://purl.org/dc/elements/1.1/"
   xmlns:cc="http://creativecommons.org/ns#"
   xmlns:rdf="http://www.w3.org/1999/02/22-rdf-syntax-ns#"
   xmlns:svg="http://www.w3.org/2000/svg"
   xmlns="http://www.w3.org/2000/svg"
   xmlns:sodipodi="http://sodipodi.sourceforge.net/DTD/sodipodi-0.dtd"
   xmlns:inkscape="http://www.inkscape.org/namespaces/inkscape"
   width="283.46457"
   height="70.866142"
   id="svg3223"
   version="1.1"
   inkscape:version="0.91 r13725"
   sodipodi:docname="console_1.svg"
   inkscape:export-filename="/home/jedi/Dropbox/falanster/dig_lab/design/sticker/stickers-2/console_1.png"
   inkscape:export-xdpi="300.03751"
   inkscape:export-ydpi="300.03751">
  <defs
     id="defs3225" />
  <sodipodi:namedview
     id="base"
     pagecolor="#ffffff"
     bordercolor="#666666"
     borderopacity="1.0"
     inkscape:pageopacity="0.0"
     inkscape:pageshadow="2"
     inkscape:zoom="1.4"
     inkscape:cx="435.8402"
     inkscape:cy="-5.9533732"
     inkscape:document-units="px"
     inkscape:current-layer="layer1"
     showgrid="false"
     inkscape:window-width="1855"
     inkscape:window-height="1056"
     inkscape:window-x="65"
     inkscape:window-y="24"
     inkscape:window-maximized="1"
     fit-margin-top="0"
     fit-margin-left="0"
     fit-margin-right="0"
     fit-margin-bottom="0" />
  <metadata
     id="metadata3228">
    <rdf:RDF>
      <cc:Work
         rdf:about="">
        <dc:format>image/svg+xml</dc:format>
        <dc:type
           rdf:resource="http://purl.org/dc/dcmitype/StillImage" />
        <dc:title></dc:title>
      </cc:Work>
    </rdf:RDF>
  </metadata>
  <g
     inkscape:label="Layer 1"
     inkscape:groupmode="layer"
     id="layer1"
     transform="translate(1348.5715,-506.49607)">
    <g
       id="g4163"
       transform="matrix(0.29973592,0,0,0.29973592,-944.3562,404.30602)">
      <text
         transform="matrix(0,-1,1,0,0,0)"
         sodipodi:linespacing="125%"
         id="text4277-1-9"
         y="-1299.5735"
         x="-549.48975"
         style="font-style:normal;font-weight:normal;font-size:34.49818802px;line-height:125%;font-family:Sans;letter-spacing:0px;word-spacing:0px;fill:#e6e6e6;fill-opacity:1;stroke:none"
         xml:space="preserve"><tspan
           style="font-style:normal;font-variant:normal;font-weight:normal;font-stretch:normal;font-family:Ubuntu;-inkscape-font-specification:Ubuntu;fill:#e6e6e6"
           y="-1299.5735"
           x="-549.48975"
           id="tspan4279-0-4"
           sodipodi:role="line">falanster.by</tspan></text>
      <rect
         y="340.93362"
         x="-1348.5715"
         height="236.42859"
         width="945.71436"
         id="rect3231"
         style="fill:#1a1a1a;fill-opacity:1;fill-rule:nonzero;stroke:none" />
      <g
         id="text3763"
         style="font-style:normal;font-weight:normal;font-size:108.38851929px;line-height:125%;font-family:Sans;letter-spacing:0px;word-spacing:0px;fill:#ffffff;fill-opacity:1;stroke:none">
        <path
           inkscape:connector-curvature="0"
           id="path3494"
           style="font-variant:normal;font-stretch:normal;font-family:'Courier10 BT';-inkscape-font-specification:'Courier10 BT';fill:#ffffff"
           d="m -1208.7248,445.63224 c -4.622,4e-5 -8.3973,1.42899 -11.3257,4.28685 -2.9285,2.85793 -4.3927,6.56261 -4.3927,11.11405 0,4.48093 1.4642,8.15915 4.3927,11.03468 2.9284,2.87555 6.7037,4.31332 11.3257,4.31331 4.5868,1e-5 8.3532,-1.43776 11.2993,-4.31331 2.9461,-2.87553 4.4191,-6.55375 4.4192,-11.03468 -10e-5,-4.51615 -1.4643,-8.21201 -4.3927,-11.08759 -2.9285,-2.8755 -6.7038,-4.31327 -11.3258,-4.31331 z m 22.9691,38.26411 0,1.16433 c -10e-5,4.37505 -0.247,7.54167 -0.7409,9.49987 -0.4941,1.95818 -1.3232,3.7135 -2.4875,5.26595 -2.0111,2.6109 -4.7985,4.59555 -8.362,5.95396 -3.5636,1.35836 -7.7622,2.03755 -12.5959,2.03757 -4.0223,-2e-5 -6.9595,-0.38813 -8.8119,-1.16433 -1.8523,-0.77624 -2.7785,-2.01113 -2.7785,-3.70468 0,-1.09378 0.4499,-2.05524 1.3496,-2.88436 0.8997,-0.82916 1.967,-1.24373 3.2019,-1.24372 1.0937,-1e-5 2.6197,0.1323 4.5779,0.39693 1.9582,0.26461 3.396,0.39692 4.3133,0.39693 5.2218,-10e-6 8.9265,-1.19962 11.1141,-3.59884 2.1875,-2.39923 3.2812,-6.50966 3.2813,-12.33131 l 0,-6.40381 c -2.1523,2.50508 -4.5339,4.33978 -7.1448,5.5041 -2.6109,1.16433 -5.61,1.7465 -8.9971,1.7465 -6.6331,0 -12.102,-2.20517 -16.4064,-6.61551 -4.3045,-4.41033 -6.4568,-10.03792 -6.4568,-16.88279 0,-6.6684 2.2405,-12.22542 6.7214,-16.67108 4.4809,-4.44558 10.0026,-6.66839 16.5652,-6.66844 2.6815,5e-5 5.31,0.50283 7.8857,1.50834 2.5756,1.00561 5.1513,2.53158 7.7269,4.57793 l 0,-3.81053 c 0,-0.74089 0.247,-1.28777 0.741,-1.64065 0.4939,-0.35277 1.2701,-0.52919 2.3286,-0.52924 l 7.9916,0 c 1.4465,5e-5 2.5138,0.30878 3.2019,0.92617 0.6879,0.6175 1.0319,1.54367 1.032,2.77852 -10e-5,1.41135 -0.4411,2.39927 -1.3231,2.96375 -0.8821,0.56456 -2.5404,0.84682 -4.9749,0.84678 l -0.9526,0 z" />
        <path
           inkscape:connector-curvature="0"
           id="path3496"
           style="font-variant:normal;font-stretch:normal;font-family:'Courier10 BT';-inkscape-font-specification:'Courier10 BT';fill:#ffffff"
           d="m -1159.8758,464.57906 c 0.2469,5.08073 1.9493,9.00593 5.1071,11.77561 3.1578,2.7697 7.4888,4.15454 12.9929,4.15454 4.0575,0 8.5119,-1.10258 13.3633,-3.30776 4.8514,-2.20516 7.8239,-3.30774 8.9177,-3.30775 1.0585,10e-6 1.9405,0.3352 2.6462,1.00555 0.7056,0.67039 1.0585,1.49953 1.0585,2.48744 0,1.05849 -0.3705,2.01112 -1.1114,2.8579 -0.741,0.84679 -1.9229,1.65829 -3.5459,2.4345 -3.5283,1.72886 -7.1712,3.05196 -10.9288,3.96931 -3.7577,0.91735 -7.4888,1.37603 -11.1935,1.37603 -8.1503,0 -14.6158,-2.33748 -19.3966,-7.01244 -4.7808,-4.67495 -7.1712,-10.98173 -7.1712,-18.92036 0,-7.58576 2.5668,-13.76023 7.7004,-18.52343 5.1336,-4.76312 11.7932,-7.1447 19.9789,-7.14475 7.4446,5e-5 13.619,2.25814 18.5234,6.77428 4.9042,4.51623 7.3564,9.98504 7.3564,16.40646 0,1.97586 -0.4322,3.29896 -1.2966,3.96931 -0.8645,0.67039 -3.3607,1.00558 -7.4888,1.00556 z m 0.2117,-6.93306 34.4535,0 c -0.494,-4.16332 -2.2405,-7.53282 -5.2394,-10.1085 -2.9991,-2.57559 -6.6685,-3.86341 -11.0082,-3.86345 -4.6927,4e-5 -8.6443,1.23493 -11.855,3.70468 -3.2108,2.46983 -5.3277,5.89225 -6.3509,10.26727 z" />
        <path
           inkscape:connector-curvature="0"
           id="path3498"
           style="font-variant:normal;font-stretch:normal;font-family:'Courier10 BT';-inkscape-font-specification:'Courier10 BT';fill:#ffffff"
           d="m -1094.6734,464.57906 c 0.247,5.08073 1.9494,9.00593 5.1072,11.77561 3.1578,2.7697 7.4887,4.15454 12.9929,4.15454 4.0575,0 8.5119,-1.10258 13.3633,-3.30776 4.8513,-2.20516 7.8239,-3.30774 8.9177,-3.30775 1.0584,10e-6 1.9405,0.3352 2.6462,1.00555 0.7056,0.67039 1.0584,1.49953 1.0585,2.48744 -10e-5,1.05849 -0.3705,2.01112 -1.1114,2.8579 -0.741,0.84679 -1.923,1.65829 -3.5459,2.4345 -3.5283,1.72886 -7.1713,3.05196 -10.9288,3.96931 -3.7577,0.91735 -7.4888,1.37603 -11.1935,1.37603 -8.1503,0 -14.6159,-2.33748 -19.3967,-7.01244 -4.7808,-4.67495 -7.1712,-10.98173 -7.1712,-18.92036 0,-7.58576 2.5668,-13.76023 7.7005,-18.52343 5.1336,-4.76312 11.7932,-7.1447 19.9788,-7.14475 7.4446,5e-5 13.6191,2.25814 18.5234,6.77428 4.9043,4.51623 7.3564,9.98504 7.3565,16.40646 -10e-5,1.97586 -0.4323,3.29896 -1.2966,3.96931 -0.8645,0.67039 -3.3608,1.00558 -7.4888,1.00556 z m 0.2117,-6.93306 34.4536,0 c -0.494,-4.16332 -2.2405,-7.53282 -5.2395,-10.1085 -2.999,-2.57559 -6.6684,-3.86341 -11.0082,-3.86345 -4.6926,4e-5 -8.6443,1.23493 -11.855,3.70468 -3.2107,2.46983 -5.3277,5.89225 -6.3509,10.26727 z" />
        <path
           inkscape:connector-curvature="0"
           id="path3500"
           style="font-variant:normal;font-stretch:normal;font-family:'Courier10 BT';-inkscape-font-specification:'Courier10 BT';fill:#ffffff"
           d="m -1021.2677,466.4314 0,15.61261 c 0,1.41131 -0.2911,2.54035 -0.8732,3.38714 -0.5822,0.84678 -1.3319,1.27017 -2.2493,1.27017 l -9.7909,0 c -1.4114,0 -2.4787,-0.32636 -3.2019,-0.97909 -0.7233,-0.65273 -1.085,-1.59654 -1.085,-2.83144 0,-1.37602 0.4234,-2.32865 1.2702,-2.8579 0.8468,-0.52923 2.6638,-0.79385 5.4512,-0.79386 l 2.4874,0 0,-54.19426 -2.1699,0 c -3.0343,6e-5 -4.9925,-0.27338 -5.8746,-0.82032 -0.882,-0.54682 -1.3231,-1.54356 -1.3231,-2.99021 0,-1.27012 0.3617,-2.22275 1.085,-2.8579 0.7233,-0.63503 1.7729,-0.95257 3.149,-0.95264 l 10.1085,0 c 0.9526,7e-5 1.6935,0.19413 2.2228,0.58217 0.5292,0.38817 0.7938,0.91741 0.7938,1.58772 l 0,37.94657 15.2951,-12.80763 c -1.1644,-0.49392 -2.02,-1.0408 -2.5668,-1.64065 -0.5469,-0.59976 -0.8204,-1.30541 -0.8203,-2.11696 -10e-5,-1.05844 0.388,-1.8523 1.1643,-2.38159 0.7762,-0.52919 1.9052,-0.79381 3.3871,-0.79386 l 14.34246,0 c 1.34069,5e-5 2.36388,0.29995 3.06959,0.89971 0.7056,0.59986 1.05843,1.49956 1.05849,2.69913 -6e-5,2.11701 -1.69363,3.3519 -5.08072,3.70469 -0.7057,0.0706 -1.27023,0.14117 -1.69357,0.21169 -1.30551,0.14117 -2.83148,0.68806 -4.57793,1.64065 -1.74654,0.95267 -3.53712,2.20521 -5.37182,3.75761 l -7.674,6.72136 19.95241,21.69887 4.65732,0 c 1.5171,1e-5 2.60204,0.29109 3.25483,0.87325 0.65267,0.58217 0.97904,1.54362 0.9791,2.88436 -6e-5,1.2349 -0.36171,2.17871 -1.08495,2.83144 -0.72335,0.65273 -1.77301,0.97909 -3.14898,0.97909 l -14.34243,0 c -1.5525,0 -2.6815,-0.26462 -3.3871,-0.79386 -0.7057,-0.52924 -1.0586,-1.37602 -1.0585,-2.54035 -1e-4,-0.95263 0.3439,-1.77295 1.032,-2.46097 0.688,-0.68801 1.72,-1.24371 3.0961,-1.66711 l -15.7185,-17.1474 z" />
        <path
           inkscape:connector-curvature="0"
           id="path3502"
           style="font-variant:normal;font-stretch:normal;font-family:'Courier10 BT';-inkscape-font-specification:'Courier10 BT';fill:#ffffff"
           d="m -857.36179,453.72962 c -6e-5,1.30549 -0.33524,2.28459 -1.00556,2.93729 -0.67043,0.65276 -1.67598,0.97912 -3.01667,0.97909 -0.98797,3e-5 -1.82593,-0.28223 -2.5139,-0.84678 -0.68806,-0.56449 -1.50838,-1.69354 -2.46097,-3.38714 -1.62305,-2.85787 -3.66062,-5.01893 -6.11273,-6.4832 -2.45219,-1.46419 -5.24834,-2.19631 -8.38846,-2.19635 -5.46885,4e-5 -9.93211,1.63186 -13.3898,4.89548 -3.45772,3.26368 -5.18657,7.4535 -5.18656,12.56946 -1e-5,5.363 1.65827,9.68513 4.97487,12.9664 3.31655,3.28131 7.6916,4.92195 13.12517,4.92194 2.08165,1e-5 4.18096,-0.33517 6.29796,-1.00555 2.11693,-0.67037 4.14568,-1.64064 6.08627,-2.91083 0.63505,-0.42338 1.51711,-1.07611 2.64621,-1.95819 2.32861,-1.86997 4.14567,-2.80496 5.45118,-2.80498 1.09371,2e-5 1.9846,0.34403 2.67266,1.03202 0.68796,0.68803 1.03197,1.57892 1.03202,2.67267 -5e-5,2.78734 -2.64625,5.63642 -7.93861,8.54724 -5.29245,2.91082 -10.88476,4.36624 -16.77693,4.36624 -7.65638,0 -14.03372,-2.45215 -19.13206,-7.35645 -5.09836,-4.90429 -7.64753,-11.02583 -7.64753,-18.36466 0,-7.30349 2.54917,-13.42503 7.64753,-18.36465 5.09834,-4.93954 11.4404,-7.40932 19.02621,-7.40937 2.68145,5e-5 5.37176,0.36169 8.07092,1.08494 2.69909,0.72334 5.58345,1.84357 8.65309,3.36068 l 0,-0.2117 c -5e-5,-1.16428 0.32632,-2.01989 0.9791,-2.56682 0.65268,-0.54683 1.68469,-0.82027 3.09605,-0.82032 1.44654,5e-5 2.44328,0.43226 2.99021,1.29664 0.54683,0.86447 0.82027,2.60215 0.82033,5.21302 z" />
        <path
           inkscape:connector-curvature="0"
           id="path3504"
           style="font-variant:normal;font-stretch:normal;font-family:'Courier10 BT';-inkscape-font-specification:'Courier10 BT';fill:#ffffff"
           d="m -816.02807,480.61506 c 5.4335,0 9.88794,-1.71121 13.36333,-5.13364 3.4753,-3.42241 5.21297,-7.8151 5.21302,-13.1781 -5e-5,-5.32766 -1.74654,-9.72917 -5.23948,-13.20456 -3.49303,-3.4753 -7.93865,-5.21297 -13.33687,-5.21302 -5.39828,5e-5 -9.83508,1.73772 -13.31041,5.21302 -3.47536,3.47539 -5.21303,7.8769 -5.21302,13.20456 -10e-6,5.32771 1.73766,9.71159 5.21302,13.15164 3.47533,3.44007 7.91213,5.1601 13.31041,5.1601 z m 27.6793,-18.31174 c -6e-5,7.55052 -2.55806,13.72499 -7.674,18.52343 -5.11604,4.79845 -11.78447,7.19768 -20.0053,7.19768 -8.18561,0 -14.85404,-2.39923 -20.0053,-7.19768 -5.15129,-4.79844 -7.72692,-10.97291 -7.72692,-18.52343 0,-7.55047 2.57563,-13.71612 7.72692,-18.49696 5.15126,-4.78076 11.81969,-7.17117 20.0053,-7.17122 8.18555,5e-5 14.84516,2.39928 19.97884,7.19768 5.13358,4.79849 7.7004,10.95532 7.70046,18.4705 z" />
        <path
           inkscape:connector-curvature="0"
           id="path3506"
           style="font-variant:normal;font-stretch:normal;font-family:'Courier10 BT';-inkscape-font-specification:'Courier10 BT';fill:#ffffff"
           d="m -731.50829,457.22261 c -6e-5,-5.25709 -0.42345,-8.68833 -1.27018,-10.29373 -0.84684,-1.60533 -2.34635,-2.40801 -4.49855,-2.40805 -2.61096,4e-5 -4.68382,1.12909 -6.21858,3.38714 -1.53484,2.25813 -2.30223,5.36301 -2.3022,9.31464 l 0,22.01642 0.95264,0 c 2.18748,10e-6 3.66054,0.26463 4.41916,0.79386 0.75853,0.52925 1.13782,1.48188 1.13787,2.8579 -5e-5,1.27018 -0.30877,2.22281 -0.92618,2.8579 -0.61749,0.63509 -1.54366,0.95263 -2.77851,0.95263 l -6.72136,0 c -1.44662,0 -2.42572,-0.32636 -2.93729,-0.97909 -0.51163,-0.65273 -0.76742,-2.24927 -0.76739,-4.78963 l 0,-1.37603 0,-26.46204 c -3e-5,-2.61088 -0.63512,-4.69256 -1.90527,-6.24504 -1.27021,-1.5524 -2.94613,-2.32862 -5.02779,-2.32866 -1.62303,4e-5 -3.08726,0.46754 -4.3927,1.40249 -1.30548,0.93503 -2.43452,2.31988 -3.38714,4.15454 l 0,29.16117 c 0.28225,10e-6 0.67918,-0.0176 1.19079,-0.0529 0.51159,-0.0353 0.87323,-0.0529 1.08495,-0.0529 1.90524,10e-6 3.22834,0.27345 3.9693,0.82032 0.74092,0.54689 1.11139,1.52599 1.11141,2.93729 -2e-5,1.44659 -0.29993,2.44333 -0.89971,2.99021 -0.59983,0.54688 -1.74652,0.82032 -3.44007,0.82032 l -14.0778,0 c -1.37603,0 -2.40805,-0.31754 -3.09606,-0.95263 -0.68801,-0.63509 -1.03202,-1.58772 -1.03202,-2.8579 0,-1.37602 0.43221,-2.32865 1.29664,-2.8579 0.86442,-0.52923 2.49625,-0.79385 4.89548,-0.79386 l 1.05848,0 0,-33.92434 -2.38159,0 c -1.69357,4e-5 -2.92846,-0.29986 -3.70468,-0.89971 -0.77622,-0.59976 -1.16433,-1.57003 -1.16433,-2.91082 0,-1.27013 0.33518,-2.20512 1.00556,-2.80498 0.67037,-0.59976 1.71121,-0.89966 3.12252,-0.89971 l 8.09738,0 c 1.16432,5e-5 1.94054,0.21175 2.32866,0.63509 0.3881,0.42344 0.63508,1.25259 0.74094,2.48743 1.37601,-1.51711 2.89316,-2.64615 4.55147,-3.38714 1.65827,-0.74088 3.52825,-1.11135 5.60995,-1.1114 2.46977,5e-5 4.50734,0.53811 6.11273,1.61418 1.60533,1.07617 2.79613,2.708 3.57238,4.89548 1.48184,-2.22277 3.19305,-3.86341 5.13364,-4.92194 1.9405,-1.05843 4.16331,-1.58767 6.66843,-1.58772 4.55142,5e-5 7.85917,1.4731 9.92327,4.41916 2.06398,2.94615 3.09599,7.75341 3.09605,14.42181 l 0,23.97461 0.95264,0 c 2.18746,10e-6 3.65169,0.26463 4.3927,0.79386 0.74087,0.52925 1.11134,1.48188 1.1114,2.8579 -6e-5,1.27018 -0.31761,2.22281 -0.95263,2.8579 -0.63516,0.63509 -1.57015,0.95263 -2.80498,0.95263 l -6.40381,0 c -1.44665,0 -2.54923,-0.44985 -3.30776,-1.34956 -0.75863,-0.89971 -1.13792,-2.21399 -1.13786,-3.94284 z" />
        <path
           inkscape:connector-curvature="0"
           id="path3508"
           style="font-variant:normal;font-stretch:normal;font-family:'Courier10 BT';-inkscape-font-specification:'Courier10 BT';fill:#ffffff"
           d="m -666.30584,457.22261 c -5e-5,-5.25709 -0.42345,-8.68833 -1.27018,-10.29373 -0.84683,-1.60533 -2.34635,-2.40801 -4.49855,-2.40805 -2.61096,4e-5 -4.68382,1.12909 -6.21858,3.38714 -1.53483,2.25813 -2.30223,5.36301 -2.30219,9.31464 l 0,22.01642 0.95263,0 c 2.18749,10e-6 3.66054,0.26463 4.41916,0.79386 0.75854,0.52925 1.13782,1.48188 1.13787,2.8579 -5e-5,1.27018 -0.30877,2.22281 -0.92617,2.8579 -0.61749,0.63509 -1.54366,0.95263 -2.77852,0.95263 l -6.72136,0 c -1.44662,0 -2.42571,-0.32636 -2.93728,-0.97909 -0.51163,-0.65273 -0.76743,-2.24927 -0.7674,-4.78963 l 0,-1.37603 0,-26.46204 c -3e-5,-2.61088 -0.63512,-4.69256 -1.90527,-6.24504 -1.2702,-1.5524 -2.94613,-2.32862 -5.02779,-2.32866 -1.62302,4e-5 -3.08725,0.46754 -4.39269,1.40249 -1.30548,0.93503 -2.43453,2.31988 -3.38715,4.15454 l 0,29.16117 c 0.28225,10e-6 0.67918,-0.0176 1.1908,-0.0529 0.51158,-0.0353 0.87323,-0.0529 1.08494,-0.0529 1.90525,10e-6 3.22835,0.27345 3.96931,0.82032 0.74091,0.54689 1.11138,1.52599 1.1114,2.93729 -2e-5,1.44659 -0.29992,2.44333 -0.89971,2.99021 -0.59983,0.54688 -1.74651,0.82032 -3.44006,0.82032 l -14.07781,0 c -1.37603,0 -2.40805,-0.31754 -3.09606,-0.95263 -0.68801,-0.63509 -1.03202,-1.58772 -1.03202,-2.8579 0,-1.37602 0.43222,-2.32865 1.29664,-2.8579 0.86443,-0.52923 2.49625,-0.79385 4.89548,-0.79386 l 1.05848,0 0,-33.92434 -2.38158,0 c -1.69358,4e-5 -2.92847,-0.29986 -3.70469,-0.89971 -0.77622,-0.59976 -1.16433,-1.57003 -1.16433,-2.91082 0,-1.27013 0.33519,-2.20512 1.00556,-2.80498 0.67037,-0.59976 1.71121,-0.89966 3.12252,-0.89971 l 8.09739,0 c 1.16431,5e-5 1.94053,0.21175 2.32866,0.63509 0.38809,0.42344 0.63507,1.25259 0.74093,2.48743 1.37601,-1.51711 2.89317,-2.64615 4.55147,-3.38714 1.65827,-0.74088 3.52825,-1.11135 5.60996,-1.1114 2.46976,5e-5 4.50733,0.53811 6.11273,1.61418 1.60533,1.07617 2.79612,2.708 3.57237,4.89548 1.48184,-2.22277 3.19305,-3.86341 5.13364,-4.92194 1.94051,-1.05843 4.16332,-1.58767 6.66843,-1.58772 4.55142,5e-5 7.85917,1.4731 9.92327,4.41916 2.06398,2.94615 3.096,7.75341 3.09606,14.42181 l 0,23.97461 0.95263,0 c 2.18747,10e-6 3.6517,0.26463 4.3927,0.79386 0.74087,0.52925 1.11134,1.48188 1.11141,2.8579 -7e-5,1.27018 -0.31762,2.22281 -0.95264,2.8579 -0.63515,0.63509 -1.57014,0.95263 -2.80497,0.95263 l -6.40382,0 c -1.44664,0 -2.54923,-0.44985 -3.30775,-1.34956 -0.75863,-0.89971 -1.13792,-2.21399 -1.13787,-3.94284 z" />
        <path
           inkscape:connector-curvature="0"
           id="path3510"
           style="font-variant:normal;font-stretch:normal;font-family:'Courier10 BT';-inkscape-font-specification:'Courier10 BT';fill:#ffffff"
           d="m -625.39554,422.55734 c -3e-5,-3.77519 0.3528,-6.16559 1.05848,-7.17122 0.70563,-1.00548 2.20514,-1.50826 4.49855,-1.50833 2.18749,7e-5 3.63408,0.41464 4.33977,1.24371 0.70562,0.82922 1.05845,2.79623 1.05848,5.90104 -3e-5,3.06966 -0.33522,4.95728 -1.00555,5.66288 -0.67041,0.70571 -2.13464,1.05854 -4.3927,1.05848 -2.29341,6e-5 -3.79292,-0.34395 -4.49855,-1.03202 -0.70568,-0.68795 -1.05851,-2.0728 -1.05848,-4.15454 z m 9.8968,56.68169 16.98863,0 c 1.37597,10e-6 2.39035,0.29109 3.04314,0.87325 0.65267,0.58217 0.97903,1.50834 0.97909,2.77851 -6e-5,1.44659 -0.30878,2.44333 -0.92617,2.99021 -0.6175,0.54688 -1.75537,0.82032 -3.4136,0.82032 l -41.06909,0 c -1.41132,0 -2.4698,-0.31754 -3.17544,-0.95263 -0.70567,-0.63509 -1.05849,-1.58772 -1.05849,-2.8579 0,-1.23489 0.37046,-2.15224 1.11141,-2.75205 0.74093,-0.5998 1.85233,-0.8997 3.33422,-0.89971 l 16.14184,0 0,-33.92434 -10.32019,0 c -1.44661,4e-5 -2.54038,-0.32632 -3.2813,-0.97909 -0.74095,-0.65269 -1.11142,-1.5965 -1.1114,-2.83144 -2e-5,-1.23485 0.34399,-2.16102 1.03202,-2.77852 0.68799,-0.61739 1.73765,-0.92612 3.14898,-0.92617 l 15.50676,0 c 0.98788,5e-5 1.74645,0.19411 2.27573,0.58217 0.5292,0.38816 0.79382,0.9174 0.79386,1.58772 z" />
        <path
           inkscape:connector-curvature="0"
           id="path3512"
           style="font-variant:normal;font-stretch:normal;font-family:'Courier10 BT';-inkscape-font-specification:'Courier10 BT';fill:#ffffff"
           d="m -540.76995,440.76322 c 1.72881,5e-5 2.99016,0.29995 3.78407,0.89971 0.79381,0.59985 1.19074,1.55248 1.19079,2.8579 -5e-5,1.23494 -0.37052,2.16111 -1.1114,2.77852 -0.74099,0.61748 -1.85239,0.92621 -3.33422,0.92617 l -21.43425,0 0,17.67664 c -3e-5,5.7511 0.74973,9.53517 2.24927,11.35222 1.49949,1.81706 4.0663,2.72559 7.70046,2.72559 3.21068,0 7.0565,-0.93499 11.53745,-2.80498 4.48085,-1.86997 7.25054,-2.80496 8.30908,-2.80498 0.95257,2e-5 1.79936,0.3793 2.54035,1.13787 0.74088,0.75859 1.11135,1.63184 1.11141,2.61974 -6e-5,1.16434 -0.4411,2.1699 -1.3231,3.01668 -0.88213,0.84679 -2.38164,1.69357 -4.49855,2.54035 -3.49304,1.37603 -6.6332,2.38159 -9.42049,3.01667 -2.78737,0.63509 -5.36301,0.95264 -7.72691,0.95264 -4.09283,0 -7.54171,-0.65273 -10.34666,-1.95819 -2.805,-1.30546 -4.94842,-3.28129 -6.43028,-5.9275 -0.70567,-1.1996 -1.20845,-2.64619 -1.50833,-4.33977 -0.29992,-1.69356 -0.44988,-4.32212 -0.44986,-7.88569 l 0,-1.64065 0,-17.67664 -8.89124,0 c -1.48189,4e-5 -2.55801,-0.29105 -3.22837,-0.87325 -0.67038,-0.58213 -1.00557,-1.52594 -1.00556,-2.83144 -10e-6,-1.44655 0.44103,-2.43446 1.3231,-2.96375 0.88206,-0.52919 2.85789,-0.79381 5.9275,-0.79386 l 5.87457,0 0,-13.65441 c -2e-5,-1.5171 0.34399,-2.63732 1.03202,-3.36068 0.68799,-0.72323 1.72001,-1.08488 3.09606,-1.08494 1.62298,6e-5 2.73439,0.44991 3.33422,1.34956 0.59978,0.89977 0.89968,2.90206 0.89971,6.00688 l 0,10.74359 z" />
        <path
           inkscape:connector-curvature="0"
           id="path3514"
           style="font-variant:normal;font-stretch:normal;font-family:'Courier10 BT';-inkscape-font-specification:'Courier10 BT';fill:#ffffff"
           d="m -457.36155,510.30546 c 0.81144,-2e-5 1.42888,0.18522 1.85234,0.55571 0.42333,0.37044 0.63502,0.9085 0.63509,1.61418 l 0,4.02223 c -7e-5,0.70563 -0.24705,1.31425 -0.74094,1.82588 -0.49402,0.51157 -1.07618,0.76737 -1.74649,0.7674 l -65.25539,0 c -0.70566,-3e-5 -1.279,-0.23819 -1.72004,-0.71447 -0.44103,-0.47635 -0.66154,-1.10262 -0.66155,-1.87881 l 0,-4.02223 c 10e-6,-0.63511 0.22052,-1.15553 0.66155,-1.56126 0.44104,-0.40577 1.01438,-0.60865 1.72004,-0.60863 z" />
      </g>
      <g
         id="text4277-1"
         style="font-style:normal;font-weight:normal;font-size:34.49818802px;line-height:125%;font-family:Sans;letter-spacing:0px;word-spacing:0px;fill:#ffffff;fill-opacity:1;stroke:none"
         transform="matrix(0,-1,1,0,0,0)">
        <path
           inkscape:connector-curvature="0"
           id="path3469"
           style="font-variant:normal;font-stretch:normal;font-family:Ubuntu;-inkscape-font-specification:Ubuntu;fill:#ffffff"
           d="m -543.03913,-1324.7052 c 0.9433,0 1.75413,0.069 2.43249,0.2069 0.67835,0.1379 1.15544,0.2644 1.43129,0.3795 l -0.58641,2.7605 c -0.27585,-0.1383 -0.66679,-0.2708 -1.17282,-0.3975 -0.50606,-0.1266 -1.12686,-0.19 -1.86241,-0.19 -1.49498,0 -2.54147,0.4083 -3.13945,1.2249 -0.598,0.8167 -0.89699,1.9149 -0.89699,3.2948 l 0,1.5529 6.89901,0 0,2.6909 -6.89901,0 0,15.2477 -3.20894,0 0,-19.56 c 0,-2.3 0.5636,-4.0767 1.6908,-5.3303 1.1272,-1.2535 2.89801,-1.8803 5.31244,-1.8803 z" />
        <path
           inkscape:connector-curvature="0"
           id="path3471"
           style="font-variant:normal;font-stretch:normal;font-family:Ubuntu;-inkscape-font-specification:Ubuntu;fill:#ffffff"
           d="m -530.62871,-1300.2455 c 0.75871,0 1.43127,-0.017 2.01769,-0.052 0.5864,-0.035 1.07507,-0.098 1.46603,-0.19 l 0,-5.3472 c -0.23023,-0.1151 -0.60397,-0.2128 -1.12124,-0.2932 -0.51728,-0.08 -1.14405,-0.1205 -1.8803,-0.1205 -0.48289,0 -0.99455,0.034 -1.53498,0.1037 -0.54045,0.069 -1.03491,0.2128 -1.4834,0.4311 -0.4485,0.2183 -0.82224,0.5171 -1.12123,0.8964 -0.299,0.3794 -0.4485,0.8797 -0.4485,1.5008 0,1.1504 0.36795,1.9498 1.10386,2.3983 0.73591,0.4485 1.73659,0.6727 3.00207,0.6727 z m -0.27689,-16.0762 c 1.28792,0 2.37476,0.1667 3.26053,0.5 0.88574,0.3334 1.59884,0.8049 2.13929,1.4145 0.54042,0.6096 0.92557,1.3341 1.15545,2.1735 0.22984,0.8394 0.34477,1.7648 0.34479,2.7762 l 0,11.2124 c -0.27585,0.046 -0.661,0.1096 -1.15545,0.19 -0.49448,0.08 -1.05229,0.1551 -1.67343,0.2242 -0.62116,0.069 -1.2939,0.1323 -2.01822,0.1895 -0.72433,0.057 -1.44305,0.086 -2.15613,0.086 -1.0121,0 -1.94348,-0.1033 -2.79414,-0.31 -0.85067,-0.2067 -1.58657,-0.5343 -2.20772,-0.9828 -0.62116,-0.4485 -1.10422,-1.0407 -1.44918,-1.7766 -0.34497,-0.7359 -0.51746,-1.6215 -0.51746,-2.6567 0,-0.989 0.20126,-1.84 0.60379,-2.5531 0.40251,-0.7131 0.94874,-1.2881 1.63868,-1.725 0.68993,-0.4369 1.4948,-0.7589 2.4146,-0.9659 0.91979,-0.2071 1.88574,-0.3106 2.89784,-0.3106 0.32214,0 0.65571,0.017 1.00068,0.052 0.34496,0.035 0.67273,0.081 0.98332,0.1379 0.31056,0.057 0.58078,0.109 0.81066,0.1553 0.22985,0.046 0.39075,0.081 0.48271,0.1032 l 0,-0.897 c -2e-5,-0.5285 -0.0576,-1.0516 -0.17266,-1.5692 -0.11512,-0.5176 -0.322,-0.9777 -0.62063,-1.3802 -0.29866,-0.4025 -0.70679,-0.7245 -1.22441,-0.966 -0.51763,-0.2414 -1.19055,-0.3621 -2.01874,-0.3622 -1.05773,10e-5 -1.98331,0.075 -2.77677,0.2243 -0.79346,0.1495 -1.38566,0.3046 -1.7766,0.4653 l -0.38006,-2.6562 c 0.4141,-0.1839 1.10421,-0.362 2.07033,-0.5343 0.96612,-0.1723 2.01243,-0.2584 3.13893,-0.2584 z" />
        <path
           inkscape:connector-curvature="0"
           id="path3473"
           style="font-variant:normal;font-stretch:normal;font-family:Ubuntu;-inkscape-font-specification:Ubuntu;fill:#ffffff"
           d="m -513.32908,-1297.5893 c -1.97787,-0.046 -3.38073,-0.472 -4.20858,-1.277 -0.82785,-0.805 -1.24178,-2.0582 -1.24177,-3.7596 l 0,-21.5276 3.20788,-0.5517 0,21.5614 c -10e-6,0.5292 0.046,0.9663 0.13792,1.3112 0.0919,0.345 0.24143,0.621 0.44849,0.8281 0.20705,0.207 0.48305,0.3621 0.82803,0.4653 0.34496,0.1032 0.77047,0.1895 1.27652,0.259 z" />
        <path
           inkscape:connector-curvature="0"
           id="path3475"
           style="font-variant:normal;font-stretch:normal;font-family:Ubuntu;-inkscape-font-specification:Ubuntu;fill:#ffffff"
           d="m -503.20535,-1300.2455 c 0.75871,0 1.43128,-0.017 2.0177,-0.052 0.58639,-0.035 1.07507,-0.098 1.46602,-0.19 l 0,-5.3472 c -0.23022,-0.1151 -0.60397,-0.2128 -1.12123,-0.2932 -0.51729,-0.08 -1.14406,-0.1205 -1.8803,-0.1205 -0.4829,0 -0.99456,0.034 -1.53499,0.1037 -0.54044,0.069 -1.03491,0.2128 -1.4834,0.4311 -0.44849,0.2183 -0.82224,0.5171 -1.12123,0.8964 -0.299,0.3794 -0.4485,0.8797 -0.44849,1.5008 -1e-5,1.1504 0.36795,1.9498 1.10386,2.3983 0.7359,0.4485 1.73659,0.6727 3.00206,0.6727 z m -0.27688,-16.0762 c 1.28791,0 2.37475,0.1667 3.26052,0.5 0.88574,0.3334 1.59884,0.8049 2.13929,1.4145 0.54043,0.6096 0.92558,1.3341 1.15545,2.1735 0.22985,0.8394 0.34478,1.7648 0.34479,2.7762 l 0,11.2124 c -0.27584,0.046 -0.66099,0.1096 -1.15544,0.19 -0.49448,0.08 -1.05229,0.1551 -1.67343,0.2242 -0.62117,0.069 -1.29391,0.1323 -2.01822,0.1895 -0.72434,0.057 -1.44305,0.086 -2.15614,0.086 -1.0121,0 -1.94348,-0.1033 -2.79413,-0.31 -0.85067,-0.2067 -1.58658,-0.5343 -2.20773,-0.9828 -0.62115,-0.4485 -1.10421,-1.0407 -1.44918,-1.7766 -0.34497,-0.7359 -0.51745,-1.6215 -0.51745,-2.6567 0,-0.989 0.20126,-1.84 0.60378,-2.5531 0.40252,-0.7131 0.94875,-1.2881 1.63869,-1.725 0.68993,-0.4369 1.49479,-0.7589 2.4146,-0.9659 0.91979,-0.2071 1.88573,-0.3106 2.89783,-0.3106 0.32215,0 0.65571,0.017 1.00069,0.052 0.34496,0.035 0.67273,0.081 0.98332,0.1379 0.31056,0.057 0.58078,0.109 0.81065,0.1553 0.22985,0.046 0.39075,0.081 0.48271,0.1032 l 0,-0.897 c -10e-6,-0.5285 -0.0576,-1.0516 -0.17266,-1.5692 -0.11512,-0.5176 -0.32199,-0.9777 -0.62062,-1.3802 -0.29866,-0.4025 -0.7068,-0.7245 -1.22441,-0.966 -0.51764,-0.2414 -1.19055,-0.3621 -2.01875,-0.3622 -1.05772,10e-5 -1.98331,0.075 -2.77676,0.2243 -0.79347,0.1495 -1.38567,0.3046 -1.7766,0.4653 l -0.38006,-2.6562 c 0.41409,-0.1839 1.1042,-0.362 2.07033,-0.5343 0.96611,-0.1723 2.01242,-0.2584 3.13893,-0.2584 z" />
        <path
           inkscape:connector-curvature="0"
           id="path3477"
           style="font-variant:normal;font-stretch:normal;font-family:Ubuntu;-inkscape-font-specification:Ubuntu;fill:#ffffff"
           d="m -491.28764,-1315.3563 c 0.73626,-0.1839 1.71378,-0.3794 2.93258,-0.5864 1.21878,-0.2071 2.62164,-0.3106 4.20857,-0.3106 1.42618,0 2.61076,0.2013 3.55373,0.6038 0.94295,0.4025 1.69622,0.9659 2.25984,1.6902 0.56358,0.7244 0.96031,1.5926 1.19019,2.6047 0.22984,1.0121 0.34478,2.1277 0.34479,3.3468 l 0,10.0732 -3.20788,0 0,-9.3836 c -2e-5,-1.104 -0.0748,-2.047 -0.22425,-2.8289 -0.14951,-0.7818 -0.39674,-1.4142 -0.7417,-1.8971 -0.34498,-0.4829 -0.80505,-0.8336 -1.38022,-1.0523 -0.57519,-0.2186 -1.28811,-0.3279 -2.13877,-0.3279 -0.34532,0 -0.70187,0.012 -1.06964,0.035 -0.36779,0.023 -0.71855,0.052 -1.05228,0.086 -0.33374,0.034 -0.63274,0.075 -0.89698,0.1206 -0.26426,0.046 -0.45394,0.081 -0.56904,0.1037 l 0,15.1445 -3.20894,0 z" />
        <path
           inkscape:connector-curvature="0"
           id="path3479"
           style="font-variant:normal;font-stretch:normal;font-family:Ubuntu;-inkscape-font-specification:Ubuntu;fill:#ffffff"
           d="m -467.30378,-1300.2455 c 1.31108,0 2.28282,-0.1725 2.91521,-0.5174 0.63237,-0.345 0.94856,-0.8972 0.94857,-1.6566 -10e-6,-0.7819 -0.31041,-1.4029 -0.9312,-1.8629 -0.62081,-0.4601 -1.64431,-0.9776 -3.07049,-1.5524 -0.68995,-0.2758 -1.3511,-0.5574 -1.98348,-0.8449 -0.63239,-0.2874 -1.17862,-0.6265 -1.63869,-1.0175 -0.46007,-0.3909 -0.82803,-0.8624 -1.10386,-1.4144 -0.27583,-0.552 -0.41375,-1.2306 -0.41375,-2.0356 0,-1.5869 0.58641,-2.8461 1.75923,-3.7775 1.17282,-0.9313 2.77132,-1.397 4.79551,-1.397 0.50604,0 1.01191,0.029 1.51761,0.086 0.50569,0.057 0.97717,0.1261 1.41444,0.2068 0.43725,0.081 0.82258,0.1671 1.15598,0.259 0.33337,0.092 0.59201,0.1724 0.77591,0.2411 l -0.58641,2.7605 c -0.34533,-0.1839 -0.88594,-0.3736 -1.62184,-0.5691 -0.73592,-0.1954 -1.62115,-0.2932 -2.65569,-0.2932 -0.89699,0 -1.67905,0.1781 -2.34617,0.5343 -0.66713,0.3562 -1.00069,0.914 -1.00068,1.6734 -10e-6,0.391 0.0747,0.736 0.22424,1.0349 0.14949,0.2991 0.37953,0.5693 0.69011,0.8107 0.31057,0.2415 0.6959,0.4657 1.15598,0.6727 0.46007,0.2071 1.01191,0.4254 1.65553,0.6549 0.85135,0.3222 1.61042,0.6385 2.27721,0.9491 0.66676,0.3106 1.23597,0.6729 1.70764,1.087 0.47164,0.4141 0.83398,0.9144 1.08702,1.5008 0.25301,0.5864 0.37952,1.3049 0.37953,2.1556 -10e-6,1.6557 -0.61537,2.909 -1.84608,3.7601 -1.23074,0.851 -2.98453,1.2765 -5.26138,1.2765 -1.58693,0 -2.82888,-0.1321 -3.72586,-0.3964 -0.89699,-0.2643 -1.50621,-0.4655 -1.82766,-0.6038 l 0.58641,-2.7594 c 0.36777,0.1376 0.95418,0.3445 1.75923,0.6207 0.80503,0.2761 1.87433,0.4142 3.20788,0.4142 z" />
        <path
           inkscape:connector-curvature="0"
           id="path3481"
           style="font-variant:normal;font-stretch:normal;font-family:Ubuntu;-inkscape-font-specification:Ubuntu;fill:#ffffff"
           d="m -453.11413,-1315.8732 6.79689,0 0,2.6909 -6.79689,0 0,8.2792 c 0,0.897 0.069,1.6387 0.20688,2.2251 0.13791,0.5864 0.34496,1.0463 0.62115,1.3797 0.27618,0.3334 0.62132,0.5691 1.03543,0.707 0.4141,0.1379 0.89698,0.2069 1.44866,0.2069 0.96576,0 1.74185,-0.1092 2.32827,-0.3275 0.58639,-0.2182 0.99471,-0.3734 1.22493,-0.4653 l 0.62115,2.6562 c -0.32217,0.1607 -0.88577,0.3618 -1.6908,0.6033 -0.80505,0.2414 -1.72484,0.3621 -2.75939,0.3621 -1.21915,0 -2.22545,-0.1551 -3.0189,-0.4653 -0.79347,-0.3102 -1.43164,-0.7759 -1.91452,-1.3971 -0.48289,-0.6211 -0.82207,-1.3858 -1.01754,-2.294 -0.19547,-0.9082 -0.2932,-1.9603 -0.2932,-3.1563 l 0,-16.0079 3.20788,-0.5516 z" />
        <path
           inkscape:connector-curvature="0"
           id="path3483"
           style="font-variant:normal;font-stretch:normal;font-family:Ubuntu;-inkscape-font-specification:Ubuntu;fill:#ffffff"
           d="m -443.23569,-1306.8697 c 0,-1.5869 0.23004,-2.9726 0.69011,-4.157 0.46007,-1.1844 1.06965,-2.1675 1.82872,-2.9494 0.75906,-0.7819 1.63306,-1.3683 2.622,-1.7592 0.98892,-0.391 2.00066,-0.5864 3.03523,-0.5864 2.41511,0 4.26663,0.7531 5.55457,2.2593 1.28791,1.5062 1.93188,3.8002 1.93189,6.8821 -10e-6,0.1383 -10e-6,0.3166 0,0.5349 -10e-6,0.2182 -0.0116,0.4197 -0.0347,0.6043 l -12.28092,0 c 0.13756,1.8627 0.67782,3.277 1.62078,4.2427 0.94296,0.9658 2.41495,1.4487 4.41598,1.4487 1.12719,0 2.07593,-0.098 2.84625,-0.2932 0.77028,-0.1955 1.3509,-0.3851 1.74186,-0.569 l 0.44849,2.6909 c -0.39096,0.2071 -1.0751,0.4255 -2.05244,0.6554 -0.97736,0.2298 -2.08719,0.3448 -3.32948,0.3448 -1.56377,0 -2.91486,-0.2357 -4.05328,-0.707 -1.13844,-0.4713 -2.07561,-1.121 -2.81151,-1.9492 -0.73591,-0.8282 -1.28214,-1.8116 -1.63869,-2.95 -0.35655,-1.1384 -0.53482,-2.386 -0.53482,-3.7427 z m 12.31567,-1.7592 c 0.0232,-1.4487 -0.33902,-2.6389 -1.08649,-3.5706 -0.7475,-0.9317 -1.77679,-1.3976 -3.08787,-1.3976 -0.73556,0 -1.38514,0.1439 -1.94873,0.4317 -0.56361,0.2877 -1.04088,0.6615 -1.43181,1.1212 -0.39095,0.4597 -0.69556,0.9886 -0.91383,1.5866 -0.21829,0.598 -0.36217,1.2075 -0.43165,1.8287 z" />
        <path
           inkscape:connector-curvature="0"
           id="path3485"
           style="font-variant:normal;font-stretch:normal;font-family:Ubuntu;-inkscape-font-specification:Ubuntu;fill:#ffffff"
           d="m -416.34083,-1316.2533 c 0.27582,0 0.59201,0.017 0.94857,0.052 0.35654,0.034 0.7073,0.08 1.05228,0.1379 0.34495,0.058 0.66114,0.1151 0.94857,0.1727 0.2874,0.058 0.50024,0.1095 0.63852,0.1558 l -0.55272,2.7941 c -0.25268,-0.092 -0.67222,-0.2012 -1.25862,-0.3279 -0.58642,-0.1267 -1.3397,-0.1901 -2.25984,-0.1901 -0.598,0 -1.1902,0.063 -1.7766,0.1901 -0.58642,0.1267 -0.97157,0.2128 -1.15545,0.2584 l 0,15.0761 -3.20894,0 0,-17.1796 c 0.75942,-0.2765 1.70255,-0.5355 2.82941,-0.7769 1.12684,-0.2415 2.39178,-0.3622 3.79482,-0.3622 z" />
        <path
           inkscape:connector-curvature="0"
           id="path3487"
           style="font-variant:normal;font-stretch:normal;font-family:Ubuntu;-inkscape-font-specification:Ubuntu;fill:#ffffff"
           d="m -405.82861,-1299.797 c 0,0.6205 -0.20705,1.1607 -0.62115,1.6208 -0.41411,0.4601 -0.97771,0.6901 -1.6908,0.6901 -0.7124,0 -1.27564,-0.23 -1.68974,-0.6901 -0.41411,-0.4601 -0.62116,-1.0003 -0.62116,-1.6208 0,-0.6211 0.20705,-1.1617 0.62116,-1.6218 0.4141,-0.4601 0.97734,-0.6901 1.68974,-0.6901 0.71309,0 1.27669,0.23 1.6908,0.6901 0.4141,0.4601 0.62115,1.0007 0.62115,1.6218 z" />
        <path
           inkscape:connector-curvature="0"
           id="path3489"
           style="font-variant:normal;font-stretch:normal;font-family:Ubuntu;-inkscape-font-specification:Ubuntu;fill:#ffffff"
           d="m -397.92524,-1315.0805 c 0.39093,-0.2526 0.98313,-0.5171 1.7766,-0.7933 0.79345,-0.2761 1.70746,-0.4142 2.74202,-0.4143 1.28792,10e-5 2.43214,0.2301 3.43266,0.6902 1.0005,0.46 1.84572,1.104 2.53567,1.9318 0.68992,0.8279 1.21316,1.8168 1.56973,2.9668 0.35653,1.1501 0.5348,2.415 0.53482,3.7949 -2e-5,1.4493 -0.21268,2.7546 -0.638,3.9159 -0.42535,1.1612 -1.02895,2.1443 -1.81081,2.9494 -0.7819,0.805 -1.72486,1.426 -2.82888,1.8629 -1.10405,0.4369 -2.346,0.6554 -3.72586,0.6554 -1.49499,0 -2.81748,-0.1035 -3.96749,-0.3106 -1.15001,-0.207 -2.09314,-0.4141 -2.8294,-0.6211 l 0,-25.701 3.20894,-0.5517 z m 0,14.3518 c 0.32215,0.092 0.77643,0.1781 1.36285,0.2585 0.5864,0.08 1.31652,0.1205 2.19035,0.1205 1.72518,0 3.10523,-0.5692 4.14014,-1.7076 1.03489,-1.1385 1.55234,-2.7542 1.55236,-4.8471 -2e-5,-0.9195 -0.0921,-1.7817 -0.27636,-2.5868 -0.18426,-0.805 -0.48325,-1.5007 -0.89699,-2.0871 -0.41376,-0.5864 -0.94841,-1.0465 -1.60394,-1.3803 -0.65556,-0.3337 -1.4434,-0.5006 -2.36354,-0.5006 -0.87383,0 -1.6787,0.1495 -2.4146,0.4485 -0.73591,0.299 -1.29934,0.6096 -1.69027,0.9317 z" />
        <path
           inkscape:connector-curvature="0"
           id="path3491"
           style="font-variant:normal;font-stretch:normal;font-family:Ubuntu;-inkscape-font-specification:Ubuntu;fill:#ffffff"
           d="m -382.88913,-1294.5888 c 0.25267,0.1151 0.58026,0.2245 0.98279,0.328 0.40252,0.1035 0.79925,0.1553 1.19019,0.1553 1.26476,0 2.25369,-0.2817 2.96679,-0.8449 0.71309,-0.5633 1.35706,-1.4776 1.93189,-2.7431 -1.44866,-2.7597 -2.79975,-5.6862 -4.05328,-8.7793 -1.25354,-3.0931 -2.29441,-6.2266 -3.12261,-9.4004 l 3.45003,0 c 0.25337,1.0345 0.55815,2.1498 0.91436,3.3458 0.35619,1.1959 0.75292,2.4265 1.19019,3.6916 0.43725,1.2651 0.90873,2.5301 1.41444,3.7948 0.50568,1.2648 1.03472,2.4836 1.58709,3.6564 0.87382,-2.4144 1.63271,-4.8062 2.27669,-7.1754 0.64395,-2.3691 1.25334,-4.8069 1.82819,-7.3132 l 3.31211,0 c -0.82822,3.3809 -1.74819,6.6295 -2.75992,9.7457 -1.01175,3.1163 -2.10439,6.0312 -3.2779,8.7446 -0.45973,1.0353 -0.93682,1.9266 -1.43128,2.6741 -0.49447,0.7475 -1.0407,1.3627 -1.63868,1.8456 -0.598,0.4829 -1.27074,0.8392 -2.01822,1.0691 -0.7475,0.2298 -1.59255,0.3448 -2.53515,0.3448 -0.25338,0 -0.51798,-0.017 -0.79381,-0.052 -0.27584,-0.034 -0.54606,-0.08 -0.81066,-0.1379 -0.2646,-0.058 -0.50605,-0.1207 -0.72433,-0.1895 -0.21828,-0.069 -0.37339,-0.1264 -0.46533,-0.1727 z" />
      </g>
    </g>
  </g>
</svg>
