<?xml version="1.0" encoding="UTF-8" standalone="no"?>
<!-- Created with Inkscape (http://www.inkscape.org/) -->

<svg
   xmlns:dc="http://purl.org/dc/elements/1.1/"
   xmlns:cc="http://creativecommons.org/ns#"
   xmlns:rdf="http://www.w3.org/1999/02/22-rdf-syntax-ns#"
   xmlns:svg="http://www.w3.org/2000/svg"
   xmlns="http://www.w3.org/2000/svg"
   xmlns:sodipodi="http://sodipodi.sourceforge.net/DTD/sodipodi-0.dtd"
   xmlns:inkscape="http://www.inkscape.org/namespaces/inkscape"
   width="283.46457"
   height="70.866142"
   id="svg3223"
   version="1.1"
   inkscape:version="0.91 r13725"
   sodipodi:docname="console_3_green.svg"
   inkscape:export-filename="/home/jedi/Dropbox/falanster/dig_lab/design/sticker/stickers-2/console_3_green.png"
   inkscape:export-xdpi="300.03748"
   inkscape:export-ydpi="300.03748">
  <defs
     id="defs3225" />
  <sodipodi:namedview
     id="base"
     pagecolor="#ffffff"
     bordercolor="#666666"
     borderopacity="1.0"
     inkscape:pageopacity="0.0"
     inkscape:pageshadow="2"
     inkscape:zoom="1.4"
     inkscape:cx="398.97366"
     inkscape:cy="43.721604"
     inkscape:document-units="px"
     inkscape:current-layer="layer1"
     showgrid="false"
     inkscape:window-width="1855"
     inkscape:window-height="1056"
     inkscape:window-x="65"
     inkscape:window-y="24"
     inkscape:window-maximized="1"
     fit-margin-top="0"
     fit-margin-left="0"
     fit-margin-right="0"
     fit-margin-bottom="0" />
  <metadata
     id="metadata3228">
    <rdf:RDF>
      <cc:Work
         rdf:about="">
        <dc:format>image/svg+xml</dc:format>
        <dc:type
           rdf:resource="http://purl.org/dc/dcmitype/StillImage" />
        <dc:title></dc:title>
      </cc:Work>
    </rdf:RDF>
  </metadata>
  <g
     inkscape:label="Layer 1"
     inkscape:groupmode="layer"
     id="layer1"
     transform="translate(1348.5715,-506.49607)">
    <g
       id="g4162"
       transform="matrix(0.29973592,0,0,0.29973592,-944.35622,404.30602)">
      <rect
         y="340.93362"
         x="-1348.5715"
         height="236.42859"
         width="945.71436"
         id="rect3231"
         style="fill:#1a1a1a;fill-opacity:1;fill-rule:nonzero;stroke:none" />
      <g
         id="text3763"
         style="font-style:normal;font-weight:normal;font-size:108.38851929px;line-height:125%;font-family:Sans;letter-spacing:0px;word-spacing:0px;fill:#00ff00;fill-opacity:1;stroke:none">
        <path
           id="path3639"
           style="font-variant:normal;font-stretch:normal;font-family:'Courier10 BT';-inkscape-font-specification:'Courier10 BT';fill:#00ff00"
           d="m -1154.7248,445.63224 c -4.622,4e-5 -8.3973,1.42899 -11.3257,4.28685 -2.9285,2.85793 -4.3927,6.56261 -4.3927,11.11405 0,4.48093 1.4642,8.15915 4.3927,11.03468 2.9284,2.87555 6.7037,4.31332 11.3257,4.31331 4.5868,1e-5 8.3532,-1.43776 11.2993,-4.31331 2.9461,-2.87553 4.4191,-6.55375 4.4192,-11.03468 -10e-5,-4.51615 -1.4643,-8.21201 -4.3927,-11.08759 -2.9285,-2.8755 -6.7038,-4.31327 -11.3258,-4.31331 z m 22.9691,38.26411 0,1.16433 c -10e-5,4.37505 -0.247,7.54167 -0.7409,9.49987 -0.4941,1.95818 -1.3232,3.7135 -2.4875,5.26595 -2.0111,2.6109 -4.7985,4.59555 -8.362,5.95396 -3.5636,1.35836 -7.7622,2.03755 -12.5959,2.03757 -4.0223,-2e-5 -6.9595,-0.38813 -8.8119,-1.16433 -1.8523,-0.77624 -2.7785,-2.01113 -2.7785,-3.70468 0,-1.09378 0.4499,-2.05524 1.3496,-2.88436 0.8997,-0.82916 1.967,-1.24373 3.2019,-1.24372 1.0937,-1e-5 2.6197,0.1323 4.5779,0.39693 1.9582,0.26461 3.396,0.39692 4.3133,0.39693 5.2218,-10e-6 8.9265,-1.19962 11.1141,-3.59884 2.1875,-2.39923 3.2812,-6.50966 3.2813,-12.33131 l 0,-6.40381 c -2.1523,2.50508 -4.5339,4.33978 -7.1448,5.5041 -2.6109,1.16433 -5.61,1.7465 -8.9971,1.7465 -6.6331,0 -12.102,-2.20517 -16.4064,-6.61551 -4.3045,-4.41033 -6.4568,-10.03792 -6.4568,-16.88279 0,-6.6684 2.2405,-12.22542 6.7214,-16.67108 4.4809,-4.44558 10.0026,-6.66839 16.5652,-6.66844 2.6815,5e-5 5.31,0.50283 7.8857,1.50834 2.5756,1.00561 5.1513,2.53158 7.7269,4.57793 l 0,-3.81053 c 0,-0.74089 0.247,-1.28777 0.741,-1.64065 0.4939,-0.35277 1.2701,-0.52919 2.3286,-0.52924 l 7.9916,0 c 1.4465,5e-5 2.5138,0.30878 3.2019,0.92617 0.6879,0.6175 1.0319,1.54367 1.032,2.77852 -10e-5,1.41135 -0.4411,2.39927 -1.3231,2.96375 -0.8821,0.56456 -2.5404,0.84682 -4.9749,0.84678 l -0.9526,0 z"
           inkscape:connector-curvature="0" />
        <path
           id="path3641"
           style="font-variant:normal;font-stretch:normal;font-family:'Courier10 BT';-inkscape-font-specification:'Courier10 BT';fill:#00ff00"
           d="m -1105.8758,464.57906 c 0.2469,5.08073 1.9493,9.00593 5.1071,11.77561 3.1578,2.7697 7.4888,4.15454 12.9929,4.15454 4.0575,0 8.5119,-1.10258 13.3633,-3.30776 4.8514,-2.20516 7.8239,-3.30774 8.9177,-3.30775 1.0585,10e-6 1.9405,0.3352 2.6462,1.00555 0.7056,0.67039 1.0585,1.49953 1.0585,2.48744 0,1.05849 -0.3705,2.01112 -1.1114,2.8579 -0.741,0.84679 -1.9229,1.65829 -3.5459,2.4345 -3.5283,1.72886 -7.1712,3.05196 -10.9288,3.96931 -3.7577,0.91735 -7.4888,1.37603 -11.1935,1.37603 -8.1503,0 -14.6158,-2.33748 -19.3966,-7.01244 -4.7808,-4.67495 -7.1712,-10.98173 -7.1712,-18.92036 0,-7.58576 2.5668,-13.76023 7.7004,-18.52343 5.1336,-4.76312 11.7932,-7.1447 19.9789,-7.14475 7.4446,5e-5 13.619,2.25814 18.5234,6.77428 4.9042,4.51623 7.3564,9.98504 7.3564,16.40646 0,1.97586 -0.4322,3.29896 -1.2966,3.96931 -0.8645,0.67039 -3.3607,1.00558 -7.4888,1.00556 z m 0.2117,-6.93306 34.4535,0 c -0.494,-4.16332 -2.2405,-7.53282 -5.2394,-10.1085 -2.9991,-2.57559 -6.6685,-3.86341 -11.0082,-3.86345 -4.6927,4e-5 -8.6443,1.23493 -11.855,3.70468 -3.2108,2.46983 -5.3277,5.89225 -6.3509,10.26727 z"
           inkscape:connector-curvature="0" />
        <path
           id="path3643"
           style="font-variant:normal;font-stretch:normal;font-family:'Courier10 BT';-inkscape-font-specification:'Courier10 BT';fill:#00ff00"
           d="m -1040.6734,464.57906 c 0.247,5.08073 1.9494,9.00593 5.1072,11.77561 3.1578,2.7697 7.4887,4.15454 12.9929,4.15454 4.0575,0 8.5119,-1.10258 13.3633,-3.30776 4.8513,-2.20516 7.8239,-3.30774 8.9177,-3.30775 1.05844,10e-6 1.94051,0.3352 2.64622,1.00555 0.70559,0.67039 1.05842,1.49953 1.05848,2.48744 -6e-5,1.05849 -0.37053,2.01112 -1.11141,2.8579 -0.74099,0.84679 -1.92296,1.65829 -3.54589,2.4345 -3.5283,1.72886 -7.1713,3.05196 -10.9288,3.96931 -3.7577,0.91735 -7.4888,1.37603 -11.1935,1.37603 -8.1503,0 -14.6159,-2.33748 -19.3967,-7.01244 -4.7808,-4.67495 -7.1712,-10.98173 -7.1712,-18.92036 0,-7.58576 2.5668,-13.76023 7.7005,-18.52343 5.1336,-4.76312 11.7932,-7.1447 19.9788,-7.14475 7.4446,5e-5 13.6191,2.25814 18.5234,6.77428 4.90429,4.51623 7.35644,9.98504 7.3565,16.40646 -6e-5,1.97586 -0.43228,3.29896 -1.29664,3.96931 -0.86449,0.67039 -3.36076,1.00558 -7.48876,1.00556 z m 0.2117,-6.93306 34.4536,0 c -0.494,-4.16332 -2.2405,-7.53282 -5.2395,-10.1085 -2.999,-2.57559 -6.6684,-3.86341 -11.0082,-3.86345 -4.6926,4e-5 -8.6443,1.23493 -11.855,3.70468 -3.2107,2.46983 -5.3277,5.89225 -6.3509,10.26727 z"
           inkscape:connector-curvature="0" />
        <path
           id="path3645"
           style="font-variant:normal;font-stretch:normal;font-family:'Courier10 BT';-inkscape-font-specification:'Courier10 BT';fill:#00ff00"
           d="m -967.26766,466.4314 0,15.61261 c -2e-5,1.41131 -0.2911,2.54035 -0.87325,3.38714 -0.58218,0.84678 -1.33194,1.27017 -2.24927,1.27017 l -9.79095,0 c -1.41132,0 -2.47862,-0.32636 -3.20191,-0.97909 -0.7233,-0.65273 -1.08495,-1.59654 -1.08494,-2.83144 -10e-6,-1.37602 0.42338,-2.32865 1.27017,-2.8579 0.84678,-0.52923 2.66384,-0.79385 5.45118,-0.79386 l 2.48744,0 0,-54.19426 -2.16989,0 c -3.03433,6e-5 -4.99251,-0.27338 -5.87457,-0.82032 -0.88208,-0.54682 -1.32311,-1.54356 -1.32311,-2.99021 0,-1.27012 0.36164,-2.22275 1.08495,-2.8579 0.72329,-0.63503 1.77295,-0.95257 3.14898,-0.95264 l 10.1085,0 c 0.95261,7e-5 1.69355,0.19413 2.22281,0.58217 0.52922,0.38817 0.79384,0.91741 0.79386,1.58772 l 0,37.94657 15.29506,-12.80763 c -1.16437,-0.49392 -2.01997,-1.0408 -2.56682,-1.64065 -0.54691,-0.59976 -0.82035,-1.30541 -0.82032,-2.11696 -3e-5,-1.05844 0.38807,-1.8523 1.16433,-2.38159 0.77618,-0.52919 1.90523,-0.79381 3.38714,-0.79386 l 14.34243,0 c 1.34069,5e-5 2.36388,0.29995 3.06959,0.89971 0.7056,0.59986 1.05843,1.49956 1.05849,2.69913 -6e-5,2.11701 -1.69363,3.3519 -5.08072,3.70469 -0.7057,0.0706 -1.27023,0.14117 -1.69357,0.21169 -1.30551,0.14117 -2.83148,0.68806 -4.57793,1.64065 -1.74654,0.95267 -3.53714,2.20521 -5.37179,3.75761 l -7.674,6.72136 19.95238,21.69887 4.65732,0 c 1.5171,1e-5 2.60204,0.29109 3.25483,0.87325 0.65267,0.58217 0.97904,1.54362 0.9791,2.88436 -6e-5,1.2349 -0.36171,2.17871 -1.08495,2.83144 -0.72335,0.65273 -1.77301,0.97909 -3.14898,0.97909 l -14.34242,0 c -1.55249,0 -2.68153,-0.26462 -3.38715,-0.79386 -0.70569,-0.52924 -1.05852,-1.37602 -1.05848,-2.54035 -4e-5,-0.95263 0.34397,-1.77295 1.03202,-2.46097 0.68797,-0.68801 1.71999,-1.24371 3.09606,-1.66711 l -15.71845,-17.1474 z"
           inkscape:connector-curvature="0" />
        <path
           id="path3647"
           style="font-variant:normal;font-stretch:normal;font-family:'Courier10 BT';-inkscape-font-specification:'Courier10 BT';fill:#00ff00"
           d="m -840.99081,500.24989 12.80762,0 c 1.34071,-10e-6 2.34627,0.31753 3.01668,0.95263 0.67033,0.63508 1.00552,1.58771 1.00555,2.8579 -3e-5,1.37601 -0.3264,2.34628 -0.97909,2.91083 -0.65277,0.5645 -1.80827,0.84676 -3.46653,0.84678 l -23.44537,0 c -1.37603,-2e-5 -2.41687,-0.31756 -3.12252,-0.95263 -0.70566,-0.63511 -1.05848,-1.5701 -1.05848,-2.80498 0,-1.41132 0.45867,-2.39924 1.37603,-2.96375 0.91734,-0.56453 2.57563,-0.84679 4.97486,-0.84678 l 1.00556,0 0,-54.9352 -2.38159,0 c -1.72886,4e-5 -2.99021,-0.30868 -3.78407,-0.92617 -0.79386,-0.6174 -1.19079,-1.57886 -1.19079,-2.88436 0,-1.23485 0.344,-2.16102 1.03202,-2.77852 0.68801,-0.61739 1.73767,-0.92612 3.14898,-0.92617 l 8.15031,0 c 1.05847,5e-5 1.82586,0.17647 2.3022,0.52924 0.4763,0.35288 0.71446,0.89976 0.71447,1.64065 l 0,5.13364 c 2.39921,-2.46975 5.05423,-4.32209 7.96508,-5.55703 2.91079,-1.23485 6.04213,-1.8523 9.39402,-1.85235 7.09179,5e-5 13.01928,2.39928 17.78249,7.19768 4.76311,4.79849 7.14469,10.81418 7.14476,18.04711 -7e-5,6.986 -2.25816,12.71061 -6.77429,17.17387 -4.51624,4.46326 -10.28495,6.69489 -17.30617,6.69489 -3.74,0 -7.18007,-0.66155 -10.3202,-1.98465 -3.14018,-1.3231 -5.80403,-3.21954 -7.99153,-5.68934 z m 16.51231,-21.22256 c 4.90426,10e-6 8.92648,-1.54361 12.06669,-4.63085 3.14011,-3.08723 4.71019,-7.08299 4.71024,-11.98731 -5e-5,-4.8337 -1.57013,-8.803 -4.71024,-11.90792 -3.14021,-3.10484 -7.16243,-4.65728 -12.06669,-4.65732 -4.90433,4e-5 -8.91773,1.5613 -12.04023,4.68378 -3.12254,3.12256 -4.6838,7.08304 -4.68378,11.88146 -2e-5,4.83375 1.56124,8.81188 4.68378,11.93438 3.1225,3.12253 7.1359,4.68379 12.04023,4.68378 z"
           inkscape:connector-curvature="0" />
        <path
           id="path3649"
           style="font-variant:normal;font-stretch:normal;font-family:'Courier10 BT';-inkscape-font-specification:'Courier10 BT';fill:#00ff00"
           d="m -775.10032,467.17234 c -2e-5,4.44564 0.92615,7.69164 2.77852,9.73803 1.85232,2.0464 4.7896,3.0696 8.81186,3.0696 3.84578,0 7.13589,-1.21725 9.87034,-3.65177 2.73437,-2.43449 4.10157,-5.48644 4.10161,-9.15586 l 0,-21.85765 -7.25059,0 c -1.37607,4e-5 -2.3728,-0.29986 -2.99022,-0.89971 -0.61748,-0.59976 -0.9262,-1.57003 -0.92617,-2.91082 -3e-5,-1.27013 0.33515,-2.20512 1.00556,-2.80498 0.67034,-0.59976 1.74646,-0.89966 3.22837,-0.89971 l 11.27283,0 c 1.34069,5e-5 2.29332,0.29113 2.8579,0.87325 0.56447,0.58221 0.84673,2.00234 0.84679,4.26039 l 0,36.30592 2.38158,0 c 1.72879,10e-6 2.97251,0.28227 3.73115,0.84678 0.75851,0.56453 1.1378,1.49953 1.13786,2.80498 -6e-5,1.27018 -0.35288,2.22281 -1.05848,2.8579 -0.70571,0.63509 -1.76419,0.95263 -3.17544,0.95263 l -8.04446,0 c -0.95268,0 -1.69362,-0.18523 -2.22281,-0.5557 -0.52929,-0.37047 -0.79391,-0.90853 -0.79387,-1.61418 l 0,-3.59884 c -3.24605,2.57564 -6.10395,4.35742 -8.5737,5.34533 -2.46982,0.98792 -5.09838,1.48188 -7.88568,1.48188 -5.82168,0 -10.18791,-1.56126 -13.09872,-4.68379 -2.91083,-3.12251 -4.36624,-7.771 -4.36623,-13.94549 l 0,-23.81584 -2.38159,0 c -1.72886,4e-5 -2.97257,-0.29986 -3.73114,-0.89971 -0.75859,-0.59976 -1.13787,-1.57003 -1.13787,-2.91082 0,-1.23485 0.344,-2.16102 1.03202,-2.77852 0.68801,-0.61739 1.75531,-0.92612 3.20191,-0.92617 l 7.99153,0 c 1.30545,5e-5 2.19633,0.23821 2.67267,0.71448 0.4763,0.47636 0.71445,1.57895 0.71447,3.30775 z"
           inkscape:connector-curvature="0" />
        <path
           id="path3651"
           style="font-variant:normal;font-stretch:normal;font-family:'Courier10 BT';-inkscape-font-specification:'Courier10 BT';fill:#00ff00"
           d="m -720.00633,482.89079 0,-9.42049 c -10e-6,-1.51714 0.30871,-2.61972 0.92617,-3.30775 0.61744,-0.688 1.57889,-1.032 2.88436,-1.03202 1.44658,2e-5 2.61091,0.98793 3.49299,2.96375 0.52922,1.19962 1.02318,2.09933 1.48188,2.69913 1.48185,1.90527 3.66056,3.43125 6.53612,4.57793 2.87551,1.14669 6.04213,1.72004 9.49987,1.72003 3.73993,1e-5 6.7566,-0.76739 9.05002,-2.3022 2.29333,-1.53478 3.44002,-3.51944 3.44007,-5.95395 -5e-5,-2.50506 -0.89094,-4.28684 -2.67267,-5.34534 -1.78182,-1.05846 -4.87788,-1.5877 -9.28818,-1.58772 l -3.01667,0 c -7.16242,2e-5 -12.64005,-1.25251 -16.43293,-3.75761 -3.7929,-2.50505 -5.68935,-6.13916 -5.68934,-10.90236 -1e-5,-4.55143 1.81705,-8.15909 5.45118,-10.82297 3.63411,-2.6638 8.60896,-3.99572 14.9246,-3.99577 3.56352,5e-5 7.32112,0.61749 11.27282,1.85234 1.12901,0.35288 1.8523,0.52929 2.16989,0.52924 0.42335,5e-5 1.17311,-0.34396 2.24928,-1.03202 1.07607,-0.68796 2.14337,-1.03197 3.2019,-1.03202 1.19957,5e-5 2.09045,0.44108 2.67267,1.3231 0.58211,0.88212 0.87319,2.20522 0.87325,3.96931 l 0,6.19212 c -6e-5,1.83474 -0.28232,3.17548 -0.84679,4.02223 -0.56457,0.84682 -1.46428,1.27021 -2.69913,1.27018 -1.05853,3e-5 -2.38163,-0.89968 -3.9693,-2.69913 -1.05853,-1.23486 -1.9406,-2.16985 -2.64621,-2.80498 -1.94059,-1.72881 -3.9517,-2.97253 -6.03334,-3.73115 -2.08172,-0.75853 -4.55151,-1.13782 -7.40937,-1.13786 -3.31661,4e-5 -5.98927,0.73215 -8.018,2.19634 -2.02878,1.46428 -3.04316,3.32544 -3.04314,5.5835 -2e-5,2.22284 1.032,3.81056 3.09606,4.76316 2.06402,0.95267 6.51846,1.49955 13.36333,1.64065 7.37405,0.17644 12.76348,1.45544 16.16831,3.837 3.40473,2.3816 5.10712,6.05982 5.10717,11.03467 -5e-5,4.76317 -1.87004,8.59134 -5.60995,11.48452 -3.74001,2.89319 -8.78544,4.33978 -15.13629,4.33978 -2.11699,0 -4.47211,-0.20288 -7.06536,-0.60863 -2.59331,-0.40575 -5.58351,-1.04966 -8.97063,-1.93173 -1.34076,0.88207 -2.43453,1.52598 -3.2813,1.93173 -0.8468,0.40575 -1.55245,0.60863 -2.11696,0.60863 -1.27019,0 -2.24046,-0.44104 -2.91082,-1.32311 -0.67039,-0.88206 -1.00557,-2.15224 -1.00556,-3.81053 z"
           inkscape:connector-curvature="0" />
        <path
           id="path3653"
           style="font-variant:normal;font-stretch:normal;font-family:'Courier10 BT';-inkscape-font-specification:'Courier10 BT';fill:#00ff00"
           d="m -651.52259,479.23903 0,-54.19426 c -0.28227,6e-5 -0.68802,-0.0176 -1.21725,-0.0529 -0.52925,-0.0352 -0.91736,-0.0529 -1.16433,-0.0529 -1.76414,6e-5 -3.0255,-0.29102 -3.78407,-0.87325 -0.75859,-0.5821 -1.13787,-1.52591 -1.13787,-2.83143 0,-1.27012 0.36164,-2.22275 1.08494,-2.8579 0.72329,-0.63503 1.77295,-0.95257 3.14899,-0.95264 l 8.04446,0 c 0.95261,7e-5 1.69355,0.19413 2.22281,0.58217 0.52922,0.38817 0.79384,0.91741 0.79386,1.58772 l 0,23.97461 c 2.64618,-2.46975 5.22182,-4.27798 7.72692,-5.42472 2.50504,-1.14664 5.09832,-1.71998 7.77984,-1.72003 5.29236,5e-5 9.50864,1.67597 12.64885,5.02778 3.14011,3.35191 4.71019,7.9563 4.71025,13.81319 l 0,23.97461 2.27573,0 c 1.76408,10e-6 3.03426,0.29109 3.81053,0.87325 0.77616,0.58217 1.16427,1.50834 1.16433,2.77851 -6e-5,1.27018 -0.35288,2.22281 -1.05848,2.8579 -0.70571,0.63509 -1.76419,0.95263 -3.17544,0.95263 l -14.07781,0 c -1.65833,0 -2.77855,-0.27344 -3.36068,-0.82032 -0.5822,-0.54688 -0.87328,-1.54362 -0.87324,-2.99021 -4e-5,-1.37602 0.36161,-2.32865 1.08494,-2.8579 0.72326,-0.52923 2.09046,-0.79385 4.10162,-0.79386 l 1.74649,0 0,-22.01642 c -4e-5,-4.16333 -0.91739,-7.32113 -2.75205,-9.47341 -1.83474,-2.1522 -4.53387,-3.22833 -8.09739,-3.22837 -3.63415,4e-5 -6.83605,1.22612 -9.60572,3.67823 -2.76971,2.45218 -4.15456,5.46003 -4.15454,9.02355 l 0,22.01642 c 0.31753,10e-6 0.72328,-0.0176 1.21726,-0.0529 0.49393,-0.0353 0.84676,-0.0529 1.05848,-0.0529 1.90524,10e-6 3.22834,0.27345 3.9693,0.82032 0.74091,0.54689 1.11138,1.52599 1.11141,2.93729 -3e-5,1.44659 -0.29111,2.44333 -0.87325,2.99021 -0.58219,0.54688 -1.68477,0.82032 -3.30775,0.82032 l -14.13073,0 c -1.37604,0 -2.4257,-0.31754 -3.14899,-0.95263 -0.7233,-0.63509 -1.08494,-1.58772 -1.08494,-2.8579 0,-1.37602 0.43221,-2.32865 1.29664,-2.8579 0.86442,-0.52923 2.49624,-0.79385 4.89548,-0.79386 z"
           inkscape:connector-curvature="0" />
        <path
           id="path3655"
           style="font-variant:normal;font-stretch:normal;font-family:'Courier10 BT';-inkscape-font-specification:'Courier10 BT';fill:#00ff00"
           d="m -533.76652,510.30546 c 0.81144,-2e-5 1.42888,0.18522 1.85234,0.55571 0.42333,0.37044 0.63503,0.9085 0.63509,1.61418 l 0,4.02223 c -6e-5,0.70563 -0.24704,1.31425 -0.74093,1.82588 -0.49403,0.51157 -1.07619,0.76737 -1.7465,0.7674 l -65.25539,0 c -0.70566,-3e-5 -1.279,-0.23819 -1.72003,-0.71447 -0.44104,-0.47635 -0.66155,-1.10262 -0.66156,-1.87881 l 0,-4.02223 c 10e-6,-0.63511 0.22052,-1.15553 0.66156,-1.56126 0.44103,-0.40577 1.01437,-0.60865 1.72003,-0.60863 z"
           inkscape:connector-curvature="0" />
      </g>
      <g
         id="text4277-1"
         style="font-style:normal;font-weight:normal;font-size:34.49818802px;line-height:125%;font-family:Sans;letter-spacing:0px;word-spacing:0px;fill:#00ff00;fill-opacity:1;stroke:none"
         transform="matrix(0,-1,1,0,0,0)">
        <path
           id="path3614"
           style="font-variant:normal;font-stretch:normal;font-family:Ubuntu;-inkscape-font-specification:Ubuntu;fill:#00ff00"
           d="m -543.03913,-1324.7052 c 0.9433,0 1.75413,0.069 2.43249,0.2069 0.67835,0.1379 1.15544,0.2644 1.43129,0.3795 l -0.58641,2.7605 c -0.27585,-0.1383 -0.66679,-0.2708 -1.17282,-0.3975 -0.50606,-0.1266 -1.12686,-0.19 -1.86241,-0.19 -1.49498,0 -2.54147,0.4083 -3.13945,1.2249 -0.598,0.8167 -0.89699,1.9149 -0.89699,3.2948 l 0,1.5529 6.89901,0 0,2.6909 -6.89901,0 0,15.2477 -3.20894,0 0,-19.56 c 0,-2.3 0.5636,-4.0767 1.6908,-5.3303 1.1272,-1.2535 2.89801,-1.8803 5.31244,-1.8803 z"
           inkscape:connector-curvature="0" />
        <path
           id="path3616"
           style="font-variant:normal;font-stretch:normal;font-family:Ubuntu;-inkscape-font-specification:Ubuntu;fill:#00ff00"
           d="m -530.62871,-1300.2455 c 0.75871,0 1.43127,-0.017 2.01769,-0.052 0.5864,-0.035 1.07507,-0.098 1.46603,-0.19 l 0,-5.3472 c -0.23023,-0.1151 -0.60397,-0.2128 -1.12124,-0.2932 -0.51728,-0.08 -1.14405,-0.1205 -1.8803,-0.1205 -0.48289,0 -0.99455,0.034 -1.53498,0.1037 -0.54045,0.069 -1.03491,0.2128 -1.4834,0.4311 -0.4485,0.2183 -0.82224,0.5171 -1.12123,0.8964 -0.299,0.3794 -0.4485,0.8797 -0.4485,1.5008 0,1.1504 0.36795,1.9498 1.10386,2.3983 0.73591,0.4485 1.73659,0.6727 3.00207,0.6727 z m -0.27689,-16.0762 c 1.28792,0 2.37476,0.1667 3.26053,0.5 0.88574,0.3334 1.59884,0.8049 2.13929,1.4145 0.54042,0.6096 0.92557,1.3341 1.15545,2.1735 0.22984,0.8394 0.34477,1.7648 0.34479,2.7762 l 0,11.2124 c -0.27585,0.046 -0.661,0.1096 -1.15545,0.19 -0.49448,0.08 -1.05229,0.1551 -1.67343,0.2242 -0.62116,0.069 -1.2939,0.1323 -2.01822,0.1895 -0.72433,0.057 -1.44305,0.086 -2.15613,0.086 -1.0121,0 -1.94348,-0.1033 -2.79414,-0.31 -0.85067,-0.2067 -1.58657,-0.5343 -2.20772,-0.9828 -0.62116,-0.4485 -1.10422,-1.0407 -1.44918,-1.7766 -0.34497,-0.7359 -0.51746,-1.6215 -0.51746,-2.6567 0,-0.989 0.20126,-1.84 0.60379,-2.5531 0.40251,-0.7131 0.94874,-1.2881 1.63868,-1.725 0.68993,-0.4369 1.4948,-0.7589 2.4146,-0.9659 0.91979,-0.2071 1.88574,-0.3106 2.89784,-0.3106 0.32214,0 0.65571,0.017 1.00068,0.052 0.34496,0.035 0.67273,0.081 0.98332,0.1379 0.31056,0.057 0.58078,0.109 0.81066,0.1553 0.22985,0.046 0.39075,0.081 0.48271,0.1032 l 0,-0.897 c -2e-5,-0.5285 -0.0576,-1.0516 -0.17266,-1.5692 -0.11512,-0.5176 -0.322,-0.9777 -0.62063,-1.3802 -0.29866,-0.4025 -0.70679,-0.7245 -1.22441,-0.966 -0.51763,-0.2414 -1.19055,-0.3621 -2.01874,-0.3622 -1.05773,10e-5 -1.98331,0.075 -2.77677,0.2243 -0.79346,0.1495 -1.38566,0.3046 -1.7766,0.4653 l -0.38006,-2.6562 c 0.4141,-0.1839 1.10421,-0.362 2.07033,-0.5343 0.96612,-0.1723 2.01243,-0.2584 3.13893,-0.2584 z"
           inkscape:connector-curvature="0" />
        <path
           id="path3618"
           style="font-variant:normal;font-stretch:normal;font-family:Ubuntu;-inkscape-font-specification:Ubuntu;fill:#00ff00"
           d="m -513.32908,-1297.5893 c -1.97787,-0.046 -3.38073,-0.472 -4.20858,-1.277 -0.82785,-0.805 -1.24178,-2.0582 -1.24177,-3.7596 l 0,-21.5276 3.20788,-0.5517 0,21.5614 c -10e-6,0.5292 0.046,0.9663 0.13792,1.3112 0.0919,0.345 0.24143,0.621 0.44849,0.8281 0.20705,0.207 0.48305,0.3621 0.82803,0.4653 0.34496,0.1032 0.77047,0.1895 1.27652,0.259 z"
           inkscape:connector-curvature="0" />
        <path
           id="path3620"
           style="font-variant:normal;font-stretch:normal;font-family:Ubuntu;-inkscape-font-specification:Ubuntu;fill:#00ff00"
           d="m -503.20535,-1300.2455 c 0.75871,0 1.43128,-0.017 2.0177,-0.052 0.58639,-0.035 1.07507,-0.098 1.46602,-0.19 l 0,-5.3472 c -0.23022,-0.1151 -0.60397,-0.2128 -1.12123,-0.2932 -0.51729,-0.08 -1.14406,-0.1205 -1.8803,-0.1205 -0.4829,0 -0.99456,0.034 -1.53499,0.1037 -0.54044,0.069 -1.03491,0.2128 -1.4834,0.4311 -0.44849,0.2183 -0.82224,0.5171 -1.12123,0.8964 -0.299,0.3794 -0.4485,0.8797 -0.44849,1.5008 -1e-5,1.1504 0.36795,1.9498 1.10386,2.3983 0.7359,0.4485 1.73659,0.6727 3.00206,0.6727 z m -0.27688,-16.0762 c 1.28791,0 2.37475,0.1667 3.26052,0.5 0.88574,0.3334 1.59884,0.8049 2.13929,1.4145 0.54043,0.6096 0.92558,1.3341 1.15545,2.1735 0.22985,0.8394 0.34478,1.7648 0.34479,2.7762 l 0,11.2124 c -0.27584,0.046 -0.66099,0.1096 -1.15544,0.19 -0.49448,0.08 -1.05229,0.1551 -1.67343,0.2242 -0.62117,0.069 -1.29391,0.1323 -2.01822,0.1895 -0.72434,0.057 -1.44305,0.086 -2.15614,0.086 -1.0121,0 -1.94348,-0.1033 -2.79413,-0.31 -0.85067,-0.2067 -1.58658,-0.5343 -2.20773,-0.9828 -0.62115,-0.4485 -1.10421,-1.0407 -1.44918,-1.7766 -0.34497,-0.7359 -0.51745,-1.6215 -0.51745,-2.6567 0,-0.989 0.20126,-1.84 0.60378,-2.5531 0.40252,-0.7131 0.94875,-1.2881 1.63869,-1.725 0.68993,-0.4369 1.49479,-0.7589 2.4146,-0.9659 0.91979,-0.2071 1.88573,-0.3106 2.89783,-0.3106 0.32215,0 0.65571,0.017 1.00069,0.052 0.34496,0.035 0.67273,0.081 0.98332,0.1379 0.31056,0.057 0.58078,0.109 0.81065,0.1553 0.22985,0.046 0.39075,0.081 0.48271,0.1032 l 0,-0.897 c -10e-6,-0.5285 -0.0576,-1.0516 -0.17266,-1.5692 -0.11512,-0.5176 -0.32199,-0.9777 -0.62062,-1.3802 -0.29866,-0.4025 -0.7068,-0.7245 -1.22441,-0.966 -0.51764,-0.2414 -1.19055,-0.3621 -2.01875,-0.3622 -1.05772,10e-5 -1.98331,0.075 -2.77676,0.2243 -0.79347,0.1495 -1.38567,0.3046 -1.7766,0.4653 l -0.38006,-2.6562 c 0.41409,-0.1839 1.1042,-0.362 2.07033,-0.5343 0.96611,-0.1723 2.01242,-0.2584 3.13893,-0.2584 z"
           inkscape:connector-curvature="0" />
        <path
           id="path3622"
           style="font-variant:normal;font-stretch:normal;font-family:Ubuntu;-inkscape-font-specification:Ubuntu;fill:#00ff00"
           d="m -491.28764,-1315.3563 c 0.73626,-0.1839 1.71378,-0.3794 2.93258,-0.5864 1.21878,-0.2071 2.62164,-0.3106 4.20857,-0.3106 1.42618,0 2.61076,0.2013 3.55373,0.6038 0.94295,0.4025 1.69622,0.9659 2.25984,1.6902 0.56358,0.7244 0.96031,1.5926 1.19019,2.6047 0.22984,1.0121 0.34478,2.1277 0.34479,3.3468 l 0,10.0732 -3.20788,0 0,-9.3836 c -2e-5,-1.104 -0.0748,-2.047 -0.22425,-2.8289 -0.14951,-0.7818 -0.39674,-1.4142 -0.7417,-1.8971 -0.34498,-0.4829 -0.80505,-0.8336 -1.38022,-1.0523 -0.57519,-0.2186 -1.28811,-0.3279 -2.13877,-0.3279 -0.34532,0 -0.70187,0.012 -1.06964,0.035 -0.36779,0.023 -0.71855,0.052 -1.05228,0.086 -0.33374,0.034 -0.63274,0.075 -0.89698,0.1206 -0.26426,0.046 -0.45394,0.081 -0.56904,0.1037 l 0,15.1445 -3.20894,0 z"
           inkscape:connector-curvature="0" />
        <path
           id="path3624"
           style="font-variant:normal;font-stretch:normal;font-family:Ubuntu;-inkscape-font-specification:Ubuntu;fill:#00ff00"
           d="m -467.30378,-1300.2455 c 1.31108,0 2.28282,-0.1725 2.91521,-0.5174 0.63237,-0.345 0.94856,-0.8972 0.94857,-1.6566 -10e-6,-0.7819 -0.31041,-1.4029 -0.9312,-1.8629 -0.62081,-0.4601 -1.64431,-0.9776 -3.07049,-1.5524 -0.68995,-0.2758 -1.3511,-0.5574 -1.98348,-0.8449 -0.63239,-0.2874 -1.17862,-0.6265 -1.63869,-1.0175 -0.46007,-0.3909 -0.82803,-0.8624 -1.10386,-1.4144 -0.27583,-0.552 -0.41375,-1.2306 -0.41375,-2.0356 0,-1.5869 0.58641,-2.8461 1.75923,-3.7775 1.17282,-0.9313 2.77132,-1.397 4.79551,-1.397 0.50604,0 1.01191,0.029 1.51761,0.086 0.50569,0.057 0.97717,0.1261 1.41444,0.2068 0.43725,0.081 0.82258,0.1671 1.15598,0.259 0.33337,0.092 0.59201,0.1724 0.77591,0.2411 l -0.58641,2.7605 c -0.34533,-0.1839 -0.88594,-0.3736 -1.62184,-0.5691 -0.73592,-0.1954 -1.62115,-0.2932 -2.65569,-0.2932 -0.89699,0 -1.67905,0.1781 -2.34617,0.5343 -0.66713,0.3562 -1.00069,0.914 -1.00068,1.6734 -10e-6,0.391 0.0747,0.736 0.22424,1.0349 0.14949,0.2991 0.37953,0.5693 0.69011,0.8107 0.31057,0.2415 0.6959,0.4657 1.15598,0.6727 0.46007,0.2071 1.01191,0.4254 1.65553,0.6549 0.85135,0.3222 1.61042,0.6385 2.27721,0.9491 0.66676,0.3106 1.23597,0.6729 1.70764,1.087 0.47164,0.4141 0.83398,0.9144 1.08702,1.5008 0.25301,0.5864 0.37952,1.3049 0.37953,2.1556 -10e-6,1.6557 -0.61537,2.909 -1.84608,3.7601 -1.23074,0.851 -2.98453,1.2765 -5.26138,1.2765 -1.58693,0 -2.82888,-0.1321 -3.72586,-0.3964 -0.89699,-0.2643 -1.50621,-0.4655 -1.82766,-0.6038 l 0.58641,-2.7594 c 0.36777,0.1376 0.95418,0.3445 1.75923,0.6207 0.80503,0.2761 1.87433,0.4142 3.20788,0.4142 z"
           inkscape:connector-curvature="0" />
        <path
           id="path3626"
           style="font-variant:normal;font-stretch:normal;font-family:Ubuntu;-inkscape-font-specification:Ubuntu;fill:#00ff00"
           d="m -453.11413,-1315.8732 6.79689,0 0,2.6909 -6.79689,0 0,8.2792 c 0,0.897 0.069,1.6387 0.20688,2.2251 0.13791,0.5864 0.34496,1.0463 0.62115,1.3797 0.27618,0.3334 0.62132,0.5691 1.03543,0.707 0.4141,0.1379 0.89698,0.2069 1.44866,0.2069 0.96576,0 1.74185,-0.1092 2.32827,-0.3275 0.58639,-0.2182 0.99471,-0.3734 1.22493,-0.4653 l 0.62115,2.6562 c -0.32217,0.1607 -0.88577,0.3618 -1.6908,0.6033 -0.80505,0.2414 -1.72484,0.3621 -2.75939,0.3621 -1.21915,0 -2.22545,-0.1551 -3.0189,-0.4653 -0.79347,-0.3102 -1.43164,-0.7759 -1.91452,-1.3971 -0.48289,-0.6211 -0.82207,-1.3858 -1.01754,-2.294 -0.19547,-0.9082 -0.2932,-1.9603 -0.2932,-3.1563 l 0,-16.0079 3.20788,-0.5516 z"
           inkscape:connector-curvature="0" />
        <path
           id="path3628"
           style="font-variant:normal;font-stretch:normal;font-family:Ubuntu;-inkscape-font-specification:Ubuntu;fill:#00ff00"
           d="m -443.23569,-1306.8697 c 0,-1.5869 0.23004,-2.9726 0.69011,-4.157 0.46007,-1.1844 1.06965,-2.1675 1.82872,-2.9494 0.75906,-0.7819 1.63306,-1.3683 2.622,-1.7592 0.98892,-0.391 2.00066,-0.5864 3.03523,-0.5864 2.41511,0 4.26663,0.7531 5.55457,2.2593 1.28791,1.5062 1.93188,3.8002 1.93189,6.8821 -10e-6,0.1383 -10e-6,0.3166 0,0.5349 -10e-6,0.2182 -0.0116,0.4197 -0.0347,0.6043 l -12.28092,0 c 0.13756,1.8627 0.67782,3.277 1.62078,4.2427 0.94296,0.9658 2.41495,1.4487 4.41598,1.4487 1.12719,0 2.07593,-0.098 2.84625,-0.2932 0.77028,-0.1955 1.3509,-0.3851 1.74186,-0.569 l 0.44849,2.6909 c -0.39096,0.2071 -1.0751,0.4255 -2.05244,0.6554 -0.97736,0.2298 -2.08719,0.3448 -3.32948,0.3448 -1.56377,0 -2.91486,-0.2357 -4.05328,-0.707 -1.13844,-0.4713 -2.07561,-1.121 -2.81151,-1.9492 -0.73591,-0.8282 -1.28214,-1.8116 -1.63869,-2.95 -0.35655,-1.1384 -0.53482,-2.386 -0.53482,-3.7427 z m 12.31567,-1.7592 c 0.0232,-1.4487 -0.33902,-2.6389 -1.08649,-3.5706 -0.7475,-0.9317 -1.77679,-1.3976 -3.08787,-1.3976 -0.73556,0 -1.38514,0.1439 -1.94873,0.4317 -0.56361,0.2877 -1.04088,0.6615 -1.43181,1.1212 -0.39095,0.4597 -0.69556,0.9886 -0.91383,1.5866 -0.21829,0.598 -0.36217,1.2075 -0.43165,1.8287 z"
           inkscape:connector-curvature="0" />
        <path
           id="path3630"
           style="font-variant:normal;font-stretch:normal;font-family:Ubuntu;-inkscape-font-specification:Ubuntu;fill:#00ff00"
           d="m -416.34083,-1316.2533 c 0.27582,0 0.59201,0.017 0.94857,0.052 0.35654,0.034 0.7073,0.08 1.05228,0.1379 0.34495,0.058 0.66114,0.1151 0.94857,0.1727 0.2874,0.058 0.50024,0.1095 0.63852,0.1558 l -0.55272,2.7941 c -0.25268,-0.092 -0.67222,-0.2012 -1.25862,-0.3279 -0.58642,-0.1267 -1.3397,-0.1901 -2.25984,-0.1901 -0.598,0 -1.1902,0.063 -1.7766,0.1901 -0.58642,0.1267 -0.97157,0.2128 -1.15545,0.2584 l 0,15.0761 -3.20894,0 0,-17.1796 c 0.75942,-0.2765 1.70255,-0.5355 2.82941,-0.7769 1.12684,-0.2415 2.39178,-0.3622 3.79482,-0.3622 z"
           inkscape:connector-curvature="0" />
        <path
           id="path3632"
           style="font-variant:normal;font-stretch:normal;font-family:Ubuntu;-inkscape-font-specification:Ubuntu;fill:#00ff00"
           d="m -405.82861,-1299.797 c 0,0.6205 -0.20705,1.1607 -0.62115,1.6208 -0.41411,0.4601 -0.97771,0.6901 -1.6908,0.6901 -0.7124,0 -1.27564,-0.23 -1.68974,-0.6901 -0.41411,-0.4601 -0.62116,-1.0003 -0.62116,-1.6208 0,-0.6211 0.20705,-1.1617 0.62116,-1.6218 0.4141,-0.4601 0.97734,-0.6901 1.68974,-0.6901 0.71309,0 1.27669,0.23 1.6908,0.6901 0.4141,0.4601 0.62115,1.0007 0.62115,1.6218 z"
           inkscape:connector-curvature="0" />
        <path
           id="path3634"
           style="font-variant:normal;font-stretch:normal;font-family:Ubuntu;-inkscape-font-specification:Ubuntu;fill:#00ff00"
           d="m -397.92524,-1315.0805 c 0.39093,-0.2526 0.98313,-0.5171 1.7766,-0.7933 0.79345,-0.2761 1.70746,-0.4142 2.74202,-0.4143 1.28792,10e-5 2.43214,0.2301 3.43266,0.6902 1.0005,0.46 1.84572,1.104 2.53567,1.9318 0.68992,0.8279 1.21316,1.8168 1.56973,2.9668 0.35653,1.1501 0.5348,2.415 0.53482,3.7949 -2e-5,1.4493 -0.21268,2.7546 -0.638,3.9159 -0.42535,1.1612 -1.02895,2.1443 -1.81081,2.9494 -0.7819,0.805 -1.72486,1.426 -2.82888,1.8629 -1.10405,0.4369 -2.346,0.6554 -3.72586,0.6554 -1.49499,0 -2.81748,-0.1035 -3.96749,-0.3106 -1.15001,-0.207 -2.09314,-0.4141 -2.8294,-0.6211 l 0,-25.701 3.20894,-0.5517 z m 0,14.3518 c 0.32215,0.092 0.77643,0.1781 1.36285,0.2585 0.5864,0.08 1.31652,0.1205 2.19035,0.1205 1.72518,0 3.10523,-0.5692 4.14014,-1.7076 1.03489,-1.1385 1.55234,-2.7542 1.55236,-4.8471 -2e-5,-0.9195 -0.0921,-1.7817 -0.27636,-2.5868 -0.18426,-0.805 -0.48325,-1.5007 -0.89699,-2.0871 -0.41376,-0.5864 -0.94841,-1.0465 -1.60394,-1.3803 -0.65556,-0.3337 -1.4434,-0.5006 -2.36354,-0.5006 -0.87383,0 -1.6787,0.1495 -2.4146,0.4485 -0.73591,0.299 -1.29934,0.6096 -1.69027,0.9317 z"
           inkscape:connector-curvature="0" />
        <path
           id="path3636"
           style="font-variant:normal;font-stretch:normal;font-family:Ubuntu;-inkscape-font-specification:Ubuntu;fill:#00ff00"
           d="m -382.88913,-1294.5888 c 0.25267,0.1151 0.58026,0.2245 0.98279,0.328 0.40252,0.1035 0.79925,0.1553 1.19019,0.1553 1.26476,0 2.25369,-0.2817 2.96679,-0.8449 0.71309,-0.5633 1.35706,-1.4776 1.93189,-2.7431 -1.44866,-2.7597 -2.79975,-5.6862 -4.05328,-8.7793 -1.25354,-3.0931 -2.29441,-6.2266 -3.12261,-9.4004 l 3.45003,0 c 0.25337,1.0345 0.55815,2.1498 0.91436,3.3458 0.35619,1.1959 0.75292,2.4265 1.19019,3.6916 0.43725,1.2651 0.90873,2.5301 1.41444,3.7948 0.50568,1.2648 1.03472,2.4836 1.58709,3.6564 0.87382,-2.4144 1.63271,-4.8062 2.27669,-7.1754 0.64395,-2.3691 1.25334,-4.8069 1.82819,-7.3132 l 3.31211,0 c -0.82822,3.3809 -1.74819,6.6295 -2.75992,9.7457 -1.01175,3.1163 -2.10439,6.0312 -3.2779,8.7446 -0.45973,1.0353 -0.93682,1.9266 -1.43128,2.6741 -0.49447,0.7475 -1.0407,1.3627 -1.63868,1.8456 -0.598,0.4829 -1.27074,0.8392 -2.01822,1.0691 -0.7475,0.2298 -1.59255,0.3448 -2.53515,0.3448 -0.25338,0 -0.51798,-0.017 -0.79381,-0.052 -0.27584,-0.034 -0.54606,-0.08 -0.81066,-0.1379 -0.2646,-0.058 -0.50605,-0.1207 -0.72433,-0.1895 -0.21828,-0.069 -0.37339,-0.1264 -0.46533,-0.1727 z"
           inkscape:connector-curvature="0" />
      </g>
    </g>
  </g>
</svg>
